<svg width="76" height="76" viewBox="0 0 76 76" fill="none" xmlns="http://www.w3.org/2000/svg">
<path d="M46.465 49.0792C33.773 56.2232 22.8289 57.2112 6.10889 52.1952V69.9032H70.025V43.6832C61.057 42.0872 53.457 45.6592 46.465 49.0792Z" fill="white"/>
<path d="M6.1087 43.3792C20.4727 51.4352 38.3328 50.5232 46.0848 48.0152C56.1928 45.2032 60.9807 39.0472 69.9487 38.6672V6.06323H6.03271L6.1087 43.3792Z" fill="white"/>
<path d="M60.04 37.468C59.28 37.924 59.508 37.164 59.736 36.784C59.964 36.328 63.308 30.78 63.308 30.78H61.56L61.256 31.236C61.256 31.236 60.876 30.552 60.268 30.628C59.204 30.628 58.216 31.464 57 32.832C56.088 33.82 54.644 36.1 54.644 36.1C54.644 36.1 53.504 37.848 52.972 37.696C51.984 37.468 53.808 33.896 53.808 33.896C53.808 33.896 54.72 33.288 55.936 32.3C56.696 31.616 57.608 30.78 58.368 29.944C59.128 29.184 59.964 28.196 60.8 27.056C60.572 27.056 60.344 27.132 60.116 27.132C59.356 28.12 58.596 28.956 57.912 29.716C56.924 30.78 56.012 31.616 55.328 32.148C54.72 32.68 54.264 32.908 54.264 32.908C54.264 32.908 55.48 30.4 57.532 27.588C59.584 24.776 62.472 22.192 62.244 23.484C62.168 23.864 61.94 24.32 61.636 24.928C61.864 24.852 62.092 24.852 62.32 24.776C62.776 23.788 63.004 22.952 62.624 22.648C61.104 21.66 57.304 25.764 55.404 28.12C53.504 30.476 51.756 34.124 51.756 34.124C51.756 34.124 51.452 34.276 51.148 34.276C50.92 34.352 50.844 34.276 50.844 34.276C50.844 34.276 52.516 31.16 50.768 30.704C49.096 30.324 46.208 33.364 45.22 35.492C44.536 36.936 44.156 38.836 45.296 39.216C46.588 39.672 48.792 37.316 49.324 36.632C49.856 35.948 50.464 34.808 50.464 34.808C50.464 34.808 50.768 34.808 50.92 34.732C51.224 34.656 51.376 34.656 51.376 34.656C51.376 34.656 51.148 35.188 50.92 35.948C50.464 37.316 50.084 39.216 51.68 39.292C52.668 39.368 54.112 37.544 54.112 37.544C54.112 37.544 53.732 39.14 55.024 39.292C56.012 39.368 57.38 37.924 57.38 37.924C57.38 37.924 57.076 39.216 58.064 39.292C58.9 39.368 60.04 38.38 61.028 37.316C62.092 36.176 62.928 34.884 62.928 34.884H62.32C62.32 34.808 60.952 36.86 60.04 37.468ZM49.856 34.656C49.856 34.732 49.4 35.492 48.944 36.1C48.412 36.784 47.5 37.696 46.968 37.544C46.132 37.24 47.044 35.34 47.652 34.428C48.26 33.516 48.336 33.44 48.336 33.44C48.336 33.44 48.336 33.364 48.412 33.44C48.412 33.44 48.64 33.82 49.02 34.2C49.4 34.504 49.78 34.732 49.856 34.732C49.856 34.58 49.856 34.58 49.856 34.656ZM50.236 33.972C50.16 34.048 50.16 34.048 50.008 34.048C49.78 33.972 48.944 33.592 48.944 32.756C48.944 31.92 50.16 31.084 50.616 31.464C51.072 31.768 50.844 32.604 50.692 33.06C50.54 33.44 50.312 33.896 50.236 33.972ZM57.684 36.86C57.304 37.316 57.076 37.468 56.848 37.544C56.772 37.544 56.62 37.544 56.544 37.544C56.24 37.316 56.468 36.556 57 35.568C57.532 34.656 58.064 33.668 59.052 32.604C60.04 31.54 60.42 31.464 60.648 31.464C60.876 31.464 60.876 31.692 60.876 31.692C60.876 31.692 60.876 31.768 60.8 31.844C60.496 32.376 58.9 35.188 58.216 36.024C57.988 36.404 57.836 36.632 57.684 36.86Z" fill="black"/>
<path d="M52.9718 22.192C51.4518 22.116 50.1598 22.648 50.1598 22.648C50.1598 22.648 49.7038 21.964 48.2598 22.192C46.8158 22.42 42.2558 24.32 38.4558 30.4C34.9598 35.948 36.6318 39.14 39.1398 39.14C41.8758 39.064 44.3838 36.1 45.2958 33.592C46.1318 31.084 45.1438 30.476 44.3838 30.476C43.4718 30.552 41.9518 31.312 41.1158 33.06C40.2798 34.808 40.2798 35.796 40.2798 35.796C40.2798 35.796 40.7358 35.34 41.4198 34.808C42.1038 34.276 42.6358 34.124 42.6358 34.124C42.6358 34.124 42.7878 33.516 43.0918 32.832C43.3958 32.224 43.8518 31.54 44.4598 31.388C45.6758 31.084 45.0678 33.288 44.2318 34.732C43.7758 35.492 42.0278 37.772 40.5838 37.772C39.1398 37.772 38.8358 36.328 39.1398 35.036C39.4438 33.744 39.8998 31.996 42.0278 28.956C44.1558 25.916 46.5118 24.092 47.8038 23.332C49.1718 22.572 49.7798 22.876 49.7798 22.876C49.7798 22.876 48.0318 23.94 47.0438 25.232C46.0558 26.448 45.5238 27.892 45.9798 28.576C46.4358 29.26 47.8798 29.26 49.5518 26.904C51.1478 24.548 50.7678 23.18 50.7678 23.18C50.7678 23.18 50.9958 23.104 51.0718 23.104C51.8318 23.028 52.5158 23.18 53.5038 23.712C54.5678 24.244 55.5558 25.08 56.8478 25.764C57.2278 25.308 57.6838 24.852 58.2158 24.396C56.0878 23.636 54.7198 22.344 52.9718 22.192ZM49.5518 25.384C49.0958 26.524 48.4118 27.284 47.8038 27.892C46.9678 28.652 46.5118 28.652 46.2838 28.5C45.7518 28.12 46.4358 26.6 47.6518 25.232C48.8678 23.864 49.9318 23.484 49.9318 23.484C49.9318 23.484 50.0838 24.092 49.5518 25.384Z" fill="black"/>
<path d="M61.5602 38.076C61.4082 38.076 61.2562 38.1521 61.1802 38.2281C61.1042 38.3041 61.0282 38.4561 61.0282 38.6081C61.0282 38.7601 61.1042 38.9121 61.1802 38.9881C61.2562 39.0641 61.4082 39.1401 61.5602 39.1401C61.7122 39.1401 61.8643 39.0641 61.9403 38.9881C62.0163 38.9121 62.0921 38.7601 62.0921 38.6081C62.0921 38.4561 62.0163 38.3041 61.9403 38.2281C61.8643 38.1521 61.7122 38.076 61.5602 38.076ZM61.8643 39.0641C61.7883 39.1401 61.6362 39.216 61.4842 39.216C61.3322 39.216 61.2562 39.1401 61.1042 39.0641C61.0282 38.9881 60.9521 38.8361 60.9521 38.6841C60.9521 38.5321 61.0282 38.4561 61.1042 38.3041C61.1802 38.2281 61.3322 38.1521 61.4842 38.1521C61.6362 38.1521 61.7123 38.2281 61.8643 38.3041C61.9403 38.3801 62.0162 38.5321 62.0162 38.6841C62.0162 38.8361 62.0163 38.9121 61.8643 39.0641Z" fill="black"/>
<path d="M61.788 38.532C61.788 38.456 61.788 38.38 61.712 38.38C61.712 38.38 61.636 38.38 61.56 38.38H61.332V38.988H61.408V38.76H61.484C61.56 38.76 61.56 38.76 61.636 38.76C61.712 38.76 61.712 38.836 61.712 38.912V38.988H61.788C61.788 38.988 61.788 38.988 61.788 38.912V38.836V38.76L61.712 38.684C61.788 38.684 61.788 38.684 61.788 38.684C61.788 38.608 61.788 38.608 61.788 38.532ZM61.636 38.684H61.484V38.456H61.56C61.636 38.456 61.636 38.456 61.712 38.456L61.788 38.532C61.712 38.608 61.636 38.608 61.636 38.684Z" fill="black"/>
<path d="M30.628 38.304C32.072 38.228 33.744 38.684 35.036 39.596C34.58 38.988 33.364 38 32.3 37.392C31.236 36.708 29.868 36.328 28.272 36.328C24.244 36.328 19.836 38.228 16.796 38.304C13.3 38.304 13.072 35.644 13.376 34.124C13.908 30.932 16.188 27.892 17.708 26.22C19.152 24.624 20.672 23.332 21.964 23.028C23.256 22.724 23.104 23.712 22.952 23.788C22.8 23.788 22.496 23.788 22.268 23.94C21.964 24.092 21.66 24.472 21.584 25.004C21.508 25.84 22.648 25.992 23.408 24.244C23.94 23.028 23.104 22.192 22.344 22.116C21.508 22.04 19.988 22.42 18.24 23.56C15.124 25.536 11.02 29.944 10.868 34.884C10.792 37.696 12.616 39.292 15.124 39.292C17.708 39.292 21.052 37.772 24.32 37.696C26.372 37.696 27.74 38.38 28.348 39.596C28.424 39.52 29.108 38.38 30.628 38.304Z" fill="black"/>
<path d="M33.6681 33.136C32.9081 33.516 33.2121 32.832 33.3641 32.452C33.5921 31.996 36.9361 26.448 36.9361 26.448H35.1881L34.9601 26.752C34.9601 26.752 34.5801 26.22 33.9721 26.22C32.2241 26.372 30.0961 29.184 29.1841 30.4C28.2721 31.616 26.2961 33.972 25.2321 33.592C24.0921 33.136 25.2321 31.008 25.9921 29.792C26.8281 28.424 28.2721 27.132 28.8041 27.132C29.4881 27.132 29.2601 27.74 29.2601 27.74C29.2601 27.74 28.7281 27.664 28.3481 28.12C28.0441 28.424 27.8161 28.956 28.1201 29.26C28.5001 29.716 29.1081 29.26 29.4121 28.728C30.4001 27.208 29.7161 26.372 28.8801 26.22C27.2081 25.992 25.6121 28.12 24.4721 28.956C23.7121 29.64 23.3321 29.64 23.3321 29.64C23.3321 29.64 24.7761 26.828 23.0281 26.448C21.3561 25.992 18.5441 28.88 17.3281 31.236C16.5681 32.68 16.2641 34.504 17.5561 34.96C18.8481 35.416 21.0521 33.06 21.5841 32.376C22.1161 31.692 22.9521 30.324 22.9521 30.324C22.9521 30.324 23.1801 30.248 23.4081 30.248C23.5601 30.172 23.8641 30.096 23.8641 30.096C23.8641 30.096 23.5601 30.704 23.2561 31.236C22.9521 31.92 22.0401 34.2 23.7881 34.96C25.5361 35.644 27.9681 32.832 28.1201 32.832C28.1201 32.832 27.3601 34.732 28.5001 35.036C29.7161 35.34 31.0841 33.744 31.0841 33.744C31.0841 33.744 30.7801 34.96 31.7681 35.036C33.5161 35.264 36.5561 30.78 36.5561 30.78H35.9481C36.0241 30.78 34.4281 32.756 33.6681 33.136ZM22.3441 30.248C22.3441 30.324 21.7361 31.236 21.2801 31.844C20.7481 32.528 19.8361 33.44 19.3041 33.288C18.4681 32.984 19.3801 31.084 19.9881 30.172C20.5961 29.26 20.6721 29.108 20.7481 29.108C20.7481 29.108 20.7481 29.032 20.8241 29.108C20.8241 29.108 21.0521 29.564 21.5081 29.792C21.9641 30.096 22.4201 30.172 22.4201 30.172C22.3441 30.172 22.3441 30.172 22.3441 30.248ZM23.1041 28.804C22.9521 29.26 22.8001 29.488 22.8001 29.564C22.7241 29.64 22.5721 29.64 22.5721 29.64C22.4201 29.64 21.3561 29.412 21.3561 28.5C21.3561 27.664 22.5721 26.828 23.0281 27.208C23.4841 27.588 23.2561 28.424 23.1041 28.804ZM31.3881 32.604C31.0081 33.06 30.7041 33.212 30.5521 33.288C30.4761 33.288 30.3241 33.288 30.2481 33.288C29.9441 33.06 30.1721 32.376 30.7041 31.388C31.2361 30.476 31.9201 29.564 32.8321 28.424C33.7441 27.284 34.2001 27.208 34.4281 27.208C34.6561 27.208 34.6561 27.436 34.6561 27.436C34.6561 27.436 32.6801 30.856 31.9961 31.844C31.7681 32.148 31.5401 32.452 31.3881 32.604Z" fill="black"/>
<path d="M39.8999 26.524H38.2279L37.3159 28.12H38.9879L39.8999 26.524Z" fill="black"/>
<path d="M64.6 23.788C63.384 24.548 61.636 25.308 60.04 25.156C59.66 25.612 59.204 26.068 58.748 26.6C61.636 27.132 64.068 25.384 65.436 23.864C66.272 22.952 66.652 22.116 66.652 22.116C66.652 22.116 65.816 23.028 64.6 23.788Z" fill="black"/>
<path d="M29.2598 62.244C28.8798 62.168 28.4238 62.016 28.4238 61.788C28.4238 61.56 28.6518 61.408 28.9558 61.408C29.3358 61.484 29.7158 61.56 30.0198 61.788L30.1718 61.94L30.6278 61.104L30.4758 61.028C30.0198 60.724 29.4878 60.572 28.9558 60.572C28.8798 60.572 28.8798 60.572 28.8038 60.572C28.0438 60.572 27.3598 61.18 27.3598 61.94C27.3598 62.852 28.1958 63.08 28.8038 63.232C29.3358 63.384 29.6398 63.536 29.6398 63.764C29.6398 64.068 29.3358 64.144 29.0318 64.144C28.5758 64.144 28.1958 63.992 27.8158 63.688L27.6638 63.536L27.1318 64.296L27.2838 64.448C27.7398 64.828 28.4238 65.056 29.0318 65.056C29.0318 65.056 29.1078 65.056 29.2598 65.056C30.0198 65.056 30.7038 64.448 30.7038 63.612C30.7038 62.7 29.7918 62.396 29.2598 62.244Z" fill="black"/>
<path d="M33.44 60.496C33.06 60.496 32.604 60.572 32.3 60.876V58.9H31.312V64.904H32.3V62.472V62.396C32.3 61.864 32.756 61.484 33.288 61.484C34.124 61.484 34.2 62.092 34.2 62.472V64.98H35.188V62.32C35.188 62.244 35.188 62.168 35.188 62.092C35.112 61.18 34.352 60.42 33.44 60.496Z" fill="black"/>
<path d="M47.1959 62.244C46.8159 62.168 46.3599 62.016 46.3599 61.788C46.3599 61.56 46.5879 61.408 46.8919 61.408C47.2719 61.484 47.6519 61.56 47.9559 61.788L48.1079 61.94L48.5639 61.104L48.4119 61.028C47.9559 60.724 47.4239 60.572 46.8919 60.572C46.8159 60.572 46.8159 60.572 46.7399 60.572C45.9799 60.572 45.2959 61.18 45.2959 61.94C45.2959 62.852 46.1319 63.08 46.7399 63.232C47.2719 63.384 47.5759 63.536 47.5759 63.764C47.5759 64.068 47.2719 64.144 46.9679 64.144C46.5119 64.144 46.1319 63.992 45.7519 63.688L45.5999 63.536L45.0679 64.296L45.2199 64.448C45.6759 64.828 46.3599 65.056 46.9679 65.056C46.9679 65.056 47.0439 65.056 47.1199 65.056C47.9559 65.056 48.6399 64.448 48.6399 63.612C48.6399 62.7 47.7279 62.396 47.1959 62.244Z" fill="black"/>
<path d="M42.7877 60.572C41.6477 60.648 40.7357 61.636 40.6597 62.776C40.6597 63.992 41.5717 65.056 42.8637 65.132C43.6237 65.132 44.2317 64.828 44.6877 64.296L44.8397 64.144L44.1557 63.536L44.0037 63.688C43.7757 63.992 43.3957 64.144 42.9397 64.144C42.4077 64.144 41.8757 63.764 41.7997 63.232H44.8397V63.08C44.8397 63.004 44.8397 62.928 44.8397 62.852C44.8397 62.852 44.8397 62.776 44.8397 62.7C44.8397 61.56 43.9277 60.572 42.7877 60.572ZM41.7237 62.396C41.8757 61.864 42.2557 61.484 42.7877 61.484C43.3197 61.484 43.6997 61.864 43.7757 62.396H41.7237Z" fill="black"/>
<path d="M37.9997 60.496C36.7077 60.496 35.7197 61.484 35.7197 62.776C35.7197 64.068 36.7077 65.056 37.9997 65.056C39.2917 65.056 40.2797 64.068 40.2797 62.776C40.2797 61.484 39.2157 60.496 37.9997 60.496ZM39.2157 62.928C39.2157 63.004 39.2157 63.004 39.2157 62.928C39.2157 63.688 38.6837 64.22 37.9997 64.22C37.3157 64.144 36.7837 63.536 36.7837 62.852C36.7837 62.776 36.7837 62.776 36.7837 62.776C36.7837 62.092 37.3157 61.484 37.9997 61.484C38.7597 61.484 39.2917 62.092 39.2157 62.928Z" fill="black"/>
</svg>
