<svg width="100" height="100" viewBox="0 0 100 100" fill="none" xmlns="http://www.w3.org/2000/svg">
<path d="M89.5 53.7C86.7 49.6 83.9 45.4 81.1 41.2C78.9 37.7 77.3 37.5 74.7 37.1C67.6 35.9 60.4 34.9 53.2 33.7C52.8 33.2 52.4 32.6 52.1 32.1C49.6 28.3 46.1 27.5 42.1 26.5C34.1 24.6 23.7 22.1 15.7 20.2C10.7 18.9 9.39997 22.1 9.99997 25.3C12.1 41.2 14.5 59.2 16.6 75.2C17.3 80.3 19.7 81.4 25.9 78.8C34.3 75.4 43.2 71.8 51.6 68.4C54.8 67.1 56.6 66.7 57.5 69C57.7 69.8 57.6 69.3 57.8 70C58.8 72.9 63.4 72.8 65.7 71.4C72.4 67.6 81.4 62.5 88.2 58.6C89.5 57.9 91.5 56.8 89.5 53.7ZM80.8 46.5C81 46.4 81.3 46.6 81.3 46.7L83 49.4C83.2 49.7 83 50.2 82.6 50.3L66.2 53.2C66 53.2 65.7 53.1 65.6 52.9L63.3 48.3C63.2 47.9 63.4 47.4 63.8 47.4L80.8 46.5ZM59.3 38.4L77 40.2C77.1 40.2 77.3 40.3 77.4 40.4L78.8 42.8C79.1 43.1 78.8 43.7 78.4 43.7L61.3 43.6C61.1 43.6 60.9 43.4 60.8 43.3L58.8 39.3C58.4 38.8 58.8 38.4 59.3 38.4ZM24.3 55.1L18.7 26.8C18.6 26.5 19 26 19.4 26.2L28.9 27.7C29.1 27.7 29.4 28 29.4 28.1L30.3 31.3C30.6 30.8 30.8 30.3 31.2 30C32 29.4 32.8 29 34.1 29.2C40.2 30.2 43.9 31 46.2 32.1C48.7 33.1 49.7 34.2 50.4 35.7L57.5 51.7C57.7 52.2 57.2 52.8 56.6 52.5C54.9 51.6 52.4 52 49.4 52.4H48.8C48.6 52.5 48.3 52.3 48.2 52.1L43.4 39C42.2 35.8 38.8 35.5 35.8 35.1C35.8 35.1 35.7 35.1 35.6 35.1C35.5 35.1 35.3 35.1 35 35.1C34.8 35 34.9 35.1 34.9 35.1C33.5 34.9 32.4 34.8 31.9 35C31.7 35 31.6 35.3 31.8 36L36.8 53.3C36.9 53.6 36.6 54.1 36.3 54.1L24.9 55.6C24.7 55.5 24.4 55.3 24.3 55.1ZM86.4 55.7L71.3 62.9C71.1 63 71 63 70.8 63.1C68.5 64.1 66.3 64.5 64.4 64.1C62.8 63.8 61.5 62.9 60.4 61.6C59.8 60.6 59.6 60.5 58.5 60.8L27.6 69.9C27.3 70 26.8 69.8 26.8 69.5L25.2 60.8C25 60.6 25.2 60.1 25.5 60.1L50 55.9C54.4 55.1 57.6 54.6 59.9 58C60.4 59 60.4 58.9 61.5 58.5L84.4 52C84.6 51.9 84.9 52.1 85.2 52.2L86.7 54.8C86.8 55.1 86.7 55.6 86.4 55.7Z" fill="white"/>
</svg>
