<svg width="100" height="100" viewBox="0 0 100 100" fill="none" xmlns="http://www.w3.org/2000/svg">
<g clip-path="url(#clip0_119_1083)">
<path fill-rule="evenodd" clip-rule="evenodd" d="M9.45699 12.333C8.81499 12.433 8.19699 14.796 6.95699 16.033C6.04699 16.92 4.91609 16.8679 4.31209 17.9659C4.08409 18.3759 4.15801 19.078 3.89901 19.752C3.39101 21.097 1.60604 21.216 1.60604 22.684C1.60604 24.27 3.093 24.571 4.389 25.698C5.401 26.598 5.49703 27.225 6.72103 27.666C7.76503 28.021 9.32103 26.858 10.721 27.277C11.869 27.619 12.97 27.8649 13.228 29.0439C13.456 30.1329 13.212 31.819 11.82 31.624C10.1894 31.1905 8.49803 31.0307 6.81502 31.151C3.79502 31.495 0.352095 32.479 0.0150952 35.845C-0.170905 37.724 2.15706 39.9449 4.40206 39.4929C5.95506 39.1859 5.221 37.354 6.066 36.464C7.174 35.324 13.4571 40.444 19.2981 40.444C20.4388 40.5069 21.5792 40.3129 22.635 39.8762C23.6907 39.4395 24.635 38.7714 25.398 37.921C25.568 37.775 25.775 37.464 26.038 37.444C26.3334 37.5106 26.6125 37.6354 26.8591 37.811C31.5591 41.59 35.1191 49.1739 52.4061 49.2629C55.2009 49.4118 57.849 50.5607 59.867 52.5C61.884 54.366 63.067 57.269 64.21 60.212C65.941 64.627 69.0401 68.9259 73.7401 73.7059C73.9971 73.9619 77.867 76.969 78.176 77.194C78.3629 77.5251 78.4446 77.9053 78.41 78.2839C78.296 81.1519 77.8791 89.484 84.0941 89.863C85.6111 89.941 85.215 88.8709 85.215 88.1379C85.215 86.6859 84.948 85.238 85.715 83.757C86.763 81.713 83.496 80.772 83.591 76.35C83.66 73.057 80.8911 73.6169 79.4911 71.1069C78.6841 69.6509 77.9631 68.88 78.0151 67.099C78.3321 57.086 75.8841 50.507 74.6661 48.89C73.7121 47.67 72.9261 47.1899 73.7971 46.6229C78.9821 43.1959 80.158 40.01 80.158 40.01C82.916 33.526 85.3961 27.61 88.8171 24.999C89.9276 24.1102 91.1108 23.316 92.3541 22.625C95.5481 21.125 97.227 20.208 98.154 19.306C99.617 17.879 100.779 14.897 99.3741 13.089C97.6251 10.859 94.6011 12.629 93.2671 13.421C83.7321 19.079 82.327 29.061 79.024 34.792C76.388 39.374 72.105 42.7379 68.274 43.0129C65.1627 43.186 62.0563 42.5949 59.226 41.291C54.608 39.2454 50.3613 36.4477 46.659 33.012C44.646 31.459 29.011 16.112 16.346 15.484C16.346 15.484 14.772 12.3359 14.378 12.2839C13.451 12.1659 12.5031 14.163 11.8241 14.397C11.1851 14.608 10.1101 12.233 9.46407 12.338L9.45699 12.333Z" fill="white"/>
</g>
<defs>
<clipPath id="clip0_119_1083">
<rect width="100" height="100" fill="white"/>
</clipPath>
</defs>
</svg>
