<svg width="100" height="100" viewBox="0 0 100 100" fill="none" xmlns="http://www.w3.org/2000/svg">
<path d="M25.745 34C20.245 34 14.1951 37.358 10.3921 40.547L10.692 40.981C16.592 36.844 24.779 34.157 27.04 38.19C28.228 40.319 26.2041 44.622 23.3621 48.015C24.0351 46.515 23.591 43.637 19.62 43.637C13.003 43.637 0.00109863 52.391 0.00109863 61.337C0.00109863 64.931 2.49506 67.269 6.59106 67.269C17.5671 67.269 32.447 49.281 32.447 40.242C32.446 37.067 30.609 34 25.745 34ZM10.338 57.6C9.94698 57.633 9.55405 57.5654 9.19653 57.4036C8.83902 57.2418 8.52886 56.9912 8.29553 56.6757C8.0622 56.3602 7.91349 55.9902 7.86353 55.601C7.81356 55.2118 7.86394 54.8162 8.01001 54.452C8.99601 50.952 15.3211 45.764 19.6261 45.764C22.7701 45.764 22.5261 48.571 20.6851 50.969L19.6691 52.094C16.0161 55.685 12.627 57.598 10.337 57.598L10.338 57.6Z" fill="white"/>
<path d="M94.111 41.693C92.4346 41.6728 90.7974 42.1993 89.4471 43.193C88.1869 44.1102 87.3016 45.4531 86.9559 46.973C86.0129 50.495 88.775 52.2 91.004 53.407C92.604 54.264 93.9761 55.007 93.6871 56.119C93.4711 56.904 93.126 57.604 91.161 57.604H85.171L84.0841 61.667H90.715C92.4061 61.7483 94.0755 61.2588 95.455 60.277C96.7497 59.2165 97.6456 57.7475 97.996 56.111C98.232 55.3588 98.2711 54.5587 98.1095 53.7871C97.9479 53.0155 97.5912 52.2982 97.0731 51.704C96.1145 50.7702 95.0073 50.0021 93.797 49.431C92.356 48.659 91.0131 47.931 91.2391 47.048C91.3548 46.6557 91.6006 46.3144 91.9362 46.0805C92.2717 45.8465 92.6769 45.7338 93.0851 45.761H98.9061L99.9979 41.698L94.111 41.693Z" fill="white"/>
<path d="M59.329 41.693C57.6538 41.6728 56.0179 42.1994 54.6691 43.193C53.4071 44.108 52.5224 45.4521 52.181 46.973C51.228 50.495 54.0071 52.2 56.2291 53.407C57.8241 54.264 59.205 55.007 58.901 56.119C58.688 56.904 58.3411 57.604 56.3851 57.604H50.385L49.295 61.667H55.9371C57.6277 61.7487 59.2964 61.2591 60.6749 60.277C61.9705 59.2173 62.8667 57.748 63.2159 56.111C63.4515 55.36 63.4907 54.5611 63.3292 53.7907C63.1678 53.0203 62.8114 52.3043 62.2941 51.711C61.3349 50.7748 60.2263 50.0049 59.014 49.433C57.584 48.661 56.2301 47.933 56.4581 47.05C56.5738 46.6577 56.8196 46.3164 57.1552 46.0825C57.4907 45.8485 57.8959 45.7359 58.3041 45.763H64.1281L65.2201 41.7L59.329 41.693Z" fill="white"/>
<path d="M68.3792 41.693L63.179 61.661H67.5671L72.7671 41.693H68.3792Z" fill="white"/>
<path d="M84.4631 41.693C81.4691 41.6065 78.5362 42.5519 76.1564 44.3707C73.7767 46.1896 72.0945 48.7713 71.392 51.683C69.874 57.374 72.892 61.661 78.444 61.661H82.156L83.248 57.599H79.528C77.458 57.599 74.601 55.963 75.76 51.683C76.2556 49.9762 77.2912 48.4761 78.7114 47.4075C80.1315 46.3389 81.8599 45.7595 83.6372 45.756H85.9912L87.0839 41.693H84.4631Z" fill="white"/>
<path d="M50.021 43.493C49.5489 42.9438 48.9666 42.4997 48.312 42.1897C47.6575 41.8796 46.9451 41.7104 46.221 41.693H39.794L38.7061 45.756H44.756L45.3361 45.817C45.6744 45.8653 45.9837 46.0344 46.2071 46.293C46.3334 46.5264 46.4077 46.7843 46.425 47.0491C46.4422 47.3139 46.402 47.5792 46.307 47.827L46.016 48.892H42.2C38.924 48.892 34.348 51.248 33.334 55.052C33.086 55.8589 33.0401 56.7144 33.2004 57.5432C33.3606 58.372 33.7222 59.1487 34.2531 59.805C34.8778 60.4384 35.6301 60.9315 36.4601 61.2515C37.2902 61.5715 38.1789 61.7111 39.0671 61.661H47.085L49.193 53.803L50.739 48.023C51.006 47.2679 51.0801 46.458 50.9547 45.6669C50.8294 44.8758 50.5084 44.1286 50.021 43.493V43.493ZM39.875 57.599C39.5941 57.6131 39.3135 57.564 39.054 57.4555C38.7944 57.347 38.5624 57.1818 38.375 56.972C38.2004 56.7382 38.0837 56.4662 38.0345 56.1785C37.9853 55.8909 38.0051 55.5956 38.0921 55.317C38.3213 54.6156 38.7655 54.0043 39.3619 53.5697C39.9582 53.1351 40.6761 52.8994 41.414 52.896H44.94L43.6851 57.596L39.875 57.599Z" fill="white"/>
</svg>
