<svg width="100" height="100" viewBox="0 0 100 100" fill="none" xmlns="http://www.w3.org/2000/svg">
<g clip-path="url(#clip0_119_974)">
<path fill-rule="evenodd" clip-rule="evenodd" d="M41.8291 43.493L46.8579 43.049L51.814 42.605L47.1541 49.114L46.854 48.814L41.825 43.489L41.8291 43.493ZM46.8579 37.354C32.8049 38.316 26.9579 34.913 40.9409 26.961L2.81201 36.281C2.81201 36.281 15.053 38.463 22.449 40.534C29.845 42.605 40.3491 47.783 43.4551 57.953H53.292C53.292 40.238 76.5169 35.986 83.6169 34.062L98.188 30.662L100.998 26.002C100.998 26.002 78.1431 31.994 63.7981 34.878C58.2181 36.1035 52.5583 36.9316 46.8611 37.356L46.8579 37.354Z" fill="white"/>
<path fill-rule="evenodd" clip-rule="evenodd" d="M29.217 57.362C28.2451 57.3853 27.2925 57.6389 26.4376 58.1018C25.5827 58.5647 24.8498 59.2239 24.2991 60.025L22.8571 61.763V57.363H17.864C16.8867 57.3859 15.9286 57.6389 15.0675 58.1016C14.2064 58.5643 13.4665 59.2236 12.9081 60.026L0.998047 74.746H8.09802L17.4181 63.429C18.8601 61.506 19.6001 61.801 20.4871 61.801H22.854L12.391 74.746H19.4551L28.774 63.429C30.253 61.506 30.9931 61.801 31.8811 61.801H34.248L23.598 74.746H31.364C31.7441 74.7624 32.1235 74.7003 32.4785 74.5634C32.8335 74.4266 33.1565 74.218 33.4272 73.9507C33.698 73.6835 33.9106 73.3633 34.052 73.0101C34.1934 72.6569 34.2605 72.2783 34.249 71.898V57.362H29.217ZM85.9111 72.007H86.9841C87.5761 72.007 87.946 71.563 87.946 70.749V65.793C87.946 64.942 87.5761 64.535 86.9841 64.535H84.876C84.284 64.535 83.915 64.942 83.915 65.793V70.746C83.915 71.559 84.284 72.004 84.876 72.004L85.9111 72.007ZM85.9111 61.799H90.165C90.4809 61.7837 90.7965 61.831 91.094 61.938C91.3915 62.0451 91.6651 62.2099 91.8987 62.423C92.1323 62.636 92.3214 62.8932 92.4553 63.1796C92.5893 63.4661 92.6652 63.7761 92.679 64.092V72.446C92.6652 72.7619 92.5893 73.072 92.4553 73.3584C92.3214 73.6448 92.1323 73.902 91.8987 74.1151C91.6651 74.3281 91.3915 74.493 91.094 74.6C90.7965 74.7071 90.4809 74.7543 90.165 74.739H81.698C81.3815 74.7569 81.0648 74.7115 80.7661 74.6053C80.4674 74.4992 80.193 74.3346 79.9587 74.121C79.7245 73.9075 79.5353 73.6493 79.4021 73.3617C79.2689 73.0741 79.1944 72.7628 79.1831 72.446V64.088C79.1944 63.7713 79.2689 63.4599 79.4021 63.1723C79.5353 62.8847 79.7245 62.6266 79.9587 62.413C80.193 62.1995 80.4674 62.0348 80.7661 61.9286C81.0648 61.8225 81.3815 61.7771 81.698 61.795L85.9111 61.799ZM48.2981 72.046H54.1411V74.746H42.938V72.046C42.9318 71.7314 42.9949 71.4192 43.1228 71.1317C43.2507 70.8441 43.4402 70.5882 43.678 70.382L48.6331 64.502H42.7161V61.802H53.9211V64.502C53.9274 64.8167 53.8642 65.1288 53.7363 65.4164C53.6084 65.7039 53.419 65.9599 53.1812 66.166L48.2981 72.046ZM74.814 61.802H64.0142V70.752C64.0458 71.051 63.9585 71.3504 63.7715 71.5857C63.5844 71.821 63.3125 71.9734 63.0142 72.01H61.127C60.535 72.01 60.166 71.566 60.166 70.752V61.802H55.4321V72.446C55.4459 72.762 55.5218 73.0721 55.6558 73.3586C55.7898 73.6451 55.9792 73.9023 56.2129 74.1154C56.4466 74.3285 56.72 74.4933 57.0176 74.6003C57.3152 74.7074 57.6311 74.7545 57.947 74.739H66.231C66.5469 74.7545 66.8628 74.7074 67.1604 74.6003C67.458 74.4933 67.7316 74.3285 67.9653 74.1154C68.1991 73.9023 68.3882 73.6451 68.5222 73.3586C68.6562 73.0721 68.7324 72.762 68.7461 72.446V65.789C68.7147 65.4901 68.802 65.1909 68.989 64.9556C69.176 64.7204 69.4478 64.5679 69.7461 64.531H71.6331C72.2251 64.531 72.594 64.938 72.594 65.789V74.739H77.3281V64.092C77.3144 63.7761 77.2382 63.4659 77.1042 63.1794C76.9703 62.8929 76.7811 62.6357 76.5474 62.4226C76.3136 62.2095 76.0401 62.0448 75.7424 61.9377C75.4448 61.8307 75.1289 61.7836 74.813 61.799L74.814 61.802ZM38.6479 74.746H36.429V61.799H41.1631V72.446C41.1494 72.762 41.0732 73.0721 40.9392 73.3586C40.8052 73.6451 40.616 73.9023 40.3823 74.1154C40.1486 74.3285 39.875 74.4933 39.5774 74.6003C39.2798 74.7074 38.9638 74.7545 38.6479 74.739V74.746Z" fill="white"/>
</g>
<defs>
<clipPath id="clip0_119_974">
<rect width="100" height="100" fill="white"/>
</clipPath>
</defs>
</svg>
