<svg width="100" height="100" viewBox="0 0 100 100" fill="none" xmlns="http://www.w3.org/2000/svg">
<g clip-path="url(#clip0_119_1087)">
<path d="M48.6621 26.4891L11.1172 40.854C10.5882 41.054 10.5882 41.386 11.1172 41.588L48.6621 55.9621C49.5316 56.2393 50.4658 56.2393 51.3352 55.9621L88.8782 41.588C89.4102 41.388 89.4102 41.058 88.8782 40.854L51.3352 26.4891C50.467 26.2041 49.5303 26.2041 48.6621 26.4891M98.5542 39.1711C98.9773 39.3228 99.3429 39.6018 99.601 39.9699C99.859 40.3379 99.9966 40.7769 99.995 41.2264C99.9934 41.6758 99.8525 42.1137 99.5918 42.4799C99.3311 42.846 98.9634 43.1224 98.5392 43.271L51.8062 61.1601C50.6311 61.5381 49.3671 61.5381 48.1921 61.1601L1.45813 43.271C1.03172 43.1225 0.66219 42.845 0.400635 42.477C0.139079 42.1089 -0.00146484 41.6685 -0.00146484 41.217C-0.00146484 40.7654 0.139079 40.3251 0.400635 39.9571C0.66219 39.589 1.03172 39.3115 1.45813 39.163L48.1921 21.281C49.367 20.9019 50.6313 20.9019 51.8062 21.281L98.5542 39.1711ZM73.2152 40.241C73.4189 40.3118 73.5954 40.4442 73.7203 40.6199C73.8453 40.7956 73.9125 41.0059 73.9125 41.2215C73.9125 41.4371 73.8453 41.6474 73.7203 41.8232C73.5954 41.9989 73.4189 42.1313 73.2152 42.2021L50.8691 50.758C50.3055 50.9446 49.6968 50.9446 49.1332 50.758L26.7842 42.2021C26.5798 42.1317 26.4025 41.9994 26.277 41.8234C26.1515 41.6474 26.084 41.4366 26.084 41.2205C26.084 41.0044 26.1515 40.7937 26.277 40.6177C26.4025 40.4418 26.5798 40.3094 26.7842 40.239L49.1332 31.684C49.6976 31.5023 50.3047 31.5023 50.8691 31.684L73.2152 40.241ZM49.6062 45.5611C49.8625 45.6385 50.1359 45.6385 50.3922 45.5611L61.4381 41.328C61.5911 41.27 61.5911 41.171 61.4381 41.11L50.3922 36.888C50.1363 36.808 49.8621 36.808 49.6062 36.888L38.5652 41.11C38.4092 41.171 38.4092 41.269 38.5652 41.328L49.6062 45.5611Z" fill="white"/>
<path d="M68.924 70.449H68.875V68.2709H64.813V80.0859H69.275V75.0939C69.275 72.7809 70.439 71.4009 72.519 71.4009C73.0226 71.3784 73.5269 71.4221 74.019 71.5309V68.0989C73.5947 68.0372 73.1668 68.0038 72.738 67.9989C71.9285 67.9727 71.1302 68.1935 70.4491 68.6318C69.768 69.0702 69.2365 69.7053 68.925 70.4529" fill="white"/>
<path d="M58.2423 67.99C57.4174 67.9348 56.5907 68.0669 55.8241 68.3763C55.0575 68.6858 54.3707 69.1646 53.8153 69.777H53.7633V64.084H49.2783V80.071H53.3843V77.963H53.4363C53.8867 78.7293 54.5393 79.3568 55.3226 79.777C56.1059 80.1971 56.9898 80.3937 57.8773 80.3451C61.7103 80.3451 63.7704 77.445 63.7704 73.953C63.7704 71.092 61.8103 67.99 58.2433 67.99M56.4794 77.39C56.0845 77.3724 55.6971 77.2765 55.3396 77.108C54.9821 76.9395 54.6615 76.7019 54.3966 76.4086C54.1317 76.1153 53.9276 75.7723 53.7963 75.3995C53.6649 75.0268 53.6089 74.6316 53.6313 74.2371C53.5902 73.835 53.6329 73.4288 53.7565 73.0441C53.8801 72.6593 54.0819 72.3043 54.3495 72.0015C54.617 71.6986 54.9444 71.4544 55.3109 71.2843C55.6775 71.1142 56.0754 71.0219 56.4794 71.0131C56.8712 71.0111 57.2591 71.0907 57.6185 71.2469C57.9779 71.4032 58.301 71.6324 58.5669 71.9203C58.8328 72.2081 59.0359 72.5482 59.1632 72.9188C59.2905 73.2894 59.3392 73.6825 59.3063 74.073C59.3063 76.04 58.2404 77.39 56.4794 77.39Z" fill="white"/>
<path d="M43.1582 67.996C42.2643 67.9516 41.3738 68.1371 40.572 68.5349C39.7702 68.9326 39.0837 69.5293 38.5781 70.2679C38.2115 69.5265 37.6297 68.9129 36.9087 68.5075C36.1877 68.1022 35.3611 67.9239 34.5371 67.996C33.6013 67.92 32.6631 68.11 31.8307 68.5442C30.9982 68.9784 30.3054 69.639 29.8322 70.4499H29.7882V68.272H25.7251V80.0849H30.1852V75.0939C30.1852 72.5559 31.1211 71.4009 32.7081 71.4009C33.9711 71.4009 34.4961 72.4009 34.4961 73.7329V80.0859H38.9541V75.095C38.9541 72.557 39.8951 71.402 41.4751 71.402C42.7441 71.402 43.2622 72.4019 43.2622 73.7339V80.0869H47.7201V73.1269C47.7201 69.9269 46.8752 67.9989 43.1582 67.9989" fill="white"/>
<path d="M81.7811 67.996C77.5181 67.996 74.2732 70.268 74.2732 74.189C74.2732 78.089 77.5181 80.3539 81.7811 80.3539C86.0441 80.3539 89.2811 78.093 89.2811 74.189C89.2811 70.269 86.0351 67.996 81.7811 67.996ZM78.6152 74.2209C78.6152 72.1629 79.8782 70.6659 81.7352 70.6659C82.1656 70.6643 82.5916 70.7525 82.9861 70.9246C83.3806 71.0967 83.7349 71.349 84.0265 71.6655C84.3181 71.9821 84.5406 72.3558 84.6798 72.7631C84.819 73.1703 84.872 73.6021 84.8352 74.0309C84.8352 76.2189 83.6582 77.6909 81.7352 77.6909C81.3017 77.6702 80.8766 77.5639 80.4845 77.3778C80.0924 77.1918 79.7412 76.9298 79.451 76.6071C79.1609 76.2843 78.9377 75.9073 78.7942 75.4977C78.6507 75.0881 78.5899 74.6542 78.6152 74.2209" fill="white"/>
<path d="M10.7102 68.272V74.958C10.7102 78.745 13.6232 80.358 17.3912 80.358C21.1592 80.358 24.0673 78.747 24.0673 74.958V68.272H19.6143V74.6281C19.6143 76.0831 19.2202 77.389 17.3912 77.389C15.5622 77.389 15.1592 76.0831 15.1592 74.6281V68.272H10.7102Z" fill="white"/>
</g>
<defs>
<clipPath id="clip0_119_1087">
<rect width="100" height="100" fill="white"/>
</clipPath>
</defs>
</svg>
