<svg width="100" height="100" viewBox="0 0 100 100" fill="none" xmlns="http://www.w3.org/2000/svg">
<g clip-path="url(#clip0_119_1106)">
<path d="M-0.00195312 50.432C-0.00195312 48.096 2.17902 46.383 4.59802 46.383H22.822C23.395 46.3819 23.9626 46.494 24.4922 46.7128C25.0218 46.9316 25.5029 47.2528 25.9081 47.658C26.3132 48.0631 26.6345 48.5443 26.8533 49.0739C27.0721 49.6034 27.1842 50.171 27.1831 50.744V50.977C27.1842 51.55 27.072 52.1177 26.8533 52.6473C26.6345 53.1769 26.3134 53.6582 25.9082 54.0634C25.5031 54.4687 25.0219 54.79 24.4923 55.0089C23.9627 55.2278 23.3951 55.3399 22.822 55.339H10.4391C10.1319 55.3471 9.83938 55.4728 9.62207 55.6901C9.40476 55.9074 9.27909 56.1998 9.271 56.507V62.582C9.27192 63.155 9.15975 63.7224 8.94092 64.252C8.72208 64.7815 8.40099 65.2626 7.99585 65.6677C7.59071 66.0729 7.1096 66.3941 6.58008 66.6129C6.05056 66.8318 5.48299 66.9439 4.91003 66.943H4.36401C3.79098 66.9441 3.22336 66.832 2.69373 66.6132C2.16409 66.3945 1.68296 66.0733 1.27771 65.6681C0.872464 65.2629 0.551172 64.7818 0.332275 64.2522C0.113379 63.7226 0.00115294 63.1551 0.0020752 62.582V50.432H-0.00195312Z" fill="white"/>
<path d="M32.1661 62.582L32.0881 38.439C32.079 37.86 32.1852 37.2851 32.4003 36.7475C32.6154 36.2099 32.935 35.7204 33.3409 35.3074C33.7467 34.8944 34.2306 34.5661 34.7643 34.3417C35.2981 34.1172 35.8711 34.0011 36.4501 34H36.9181C38.0834 34.0155 39.1954 34.4907 40.0121 35.322C40.8289 36.1534 41.2842 37.2736 41.2791 38.439L41.3571 62.582C41.358 63.155 41.2458 63.7226 41.0269 64.2522C40.808 64.7818 40.4867 65.2629 40.0815 65.6681C39.6762 66.0732 39.195 66.3944 38.6653 66.6132C38.1357 66.832 37.5681 66.944 36.995 66.943H36.4501C35.8812 66.9424 35.3181 66.8286 34.7936 66.6083C34.2691 66.3879 33.7938 66.0655 33.3952 65.6596C32.9966 65.2537 32.6827 64.7726 32.4718 64.2442C32.261 63.7158 32.1575 63.1508 32.1672 62.582H32.1661Z" fill="white"/>
<path d="M87.617 36.881L97.3521 52.769C99.5331 56.196 99.999 57.052 99.999 59.622C99.9373 61.4348 99.2 63.1591 97.932 64.4561C96.664 65.7532 94.957 66.5293 93.146 66.632H79.984C79.4282 66.6676 78.8709 66.5896 78.3462 66.4027C77.8215 66.2158 77.3403 65.924 76.9321 65.545C76.5239 65.166 76.1972 64.7078 75.9719 64.1984C75.7467 63.6889 75.6276 63.139 75.622 62.582V62.35C75.621 61.7769 75.7333 61.2094 75.9522 60.6798C76.1711 60.1502 76.4923 59.6691 76.8976 59.2639C77.3028 58.8588 77.7841 58.5376 78.3137 58.3188C78.8434 58.1 79.411 57.988 79.984 57.989H88.084C88.552 57.989 88.8631 57.911 89.0191 57.599C89.1751 57.21 89.097 57.054 88.863 56.665L83.1 47.397C83.022 47.24 82.944 47.007 82.788 47.007C82.555 47.007 82.4761 47.24 82.3991 47.397L73.599 62.505C72.199 64.92 70.562 66.633 68.226 66.633H51.3261C49.6517 66.5494 48.0667 65.8519 46.8742 64.6737C45.6816 63.4955 44.9649 61.9192 44.861 60.246V38.439C44.8599 37.8659 44.9721 37.2982 45.1909 36.7685C45.4098 36.2388 45.731 35.7575 46.1362 35.3522C46.5415 34.947 47.0228 34.6257 47.5525 34.4069C48.0822 34.188 48.6499 34.076 49.223 34.077H49.768C50.341 34.0761 50.9087 34.1883 51.4382 34.4072C51.9678 34.6261 52.449 34.9474 52.8541 35.3526C53.2593 35.7579 53.5804 36.2391 53.7992 36.7687C54.018 37.2984 54.1301 37.866 54.129 38.439V56.273C54.1262 56.4272 54.1545 56.5803 54.2122 56.7233C54.2699 56.8663 54.3557 56.9962 54.4647 57.1052C54.5738 57.2143 54.7037 57.3002 54.8467 57.3579C54.9897 57.4156 55.1428 57.4438 55.297 57.441H63.708C64.3549 57.4792 64.9983 57.3214 65.5541 56.9881C66.1098 56.6548 66.552 56.1617 66.823 55.573L78.116 36.881C78.6034 36.0364 79.3084 35.3379 80.1576 34.8585C81.0068 34.379 81.969 34.1361 82.944 34.155C83.8974 34.1404 84.8367 34.3866 85.6603 34.867C86.4839 35.3475 87.1605 36.0439 87.617 36.881V36.881Z" fill="white"/>
<path d="M4.44006 34.701H25C25.5689 34.6912 26.1342 34.7947 26.6627 35.0054C27.1913 35.2162 27.6726 35.53 28.0786 35.9287C28.4847 36.3273 28.8074 36.8027 29.028 37.3272C29.2485 37.8518 29.3623 38.4149 29.363 38.984V39.296C29.364 39.8691 29.2517 40.4368 29.0327 40.9664C28.8138 41.4961 28.4924 41.9773 28.087 42.3825C27.6817 42.7876 27.2004 43.1087 26.6707 43.3275C26.1409 43.5462 25.5731 43.6582 25 43.657H4.44006C3.27466 43.6618 2.15444 43.2064 1.323 42.3898C0.49156 41.5731 0.0160664 40.4613 0 39.296V38.984C0.00962717 38.411 0.132245 37.8456 0.360718 37.3201C0.589191 36.7945 0.919112 36.3192 1.33154 35.9214C1.74397 35.5235 2.23075 35.2109 2.76416 35.0015C3.29757 34.7921 3.86712 34.69 4.44006 34.701V34.701Z" fill="white"/>
</g>
<defs>
<clipPath id="clip0_119_1106">
<rect width="100" height="100" fill="white"/>
</clipPath>
</defs>
</svg>
