<svg width="100" height="100" viewBox="0 0 100 100" fill="none" xmlns="http://www.w3.org/2000/svg">
<path fill-rule="evenodd" clip-rule="evenodd" d="M18.83 59.462V54.962H0.00402832V59.462H6.73602V77.581H12.101V59.462H18.83ZM89.041 77.581H93.565V64.843C95.1418 64.2088 96.8461 63.9563 98.539 64.106L99.904 60.185C96.165 59.5062 92.3067 60.2028 89.041 62.146V62.146V77.581Z" fill="white"/>
<path fill-rule="evenodd" clip-rule="evenodd" d="M27.973 33.686C27.962 33.986 28.821 33.931 29.243 33.986C36.9379 34.852 44.5819 36.1231 52.143 37.794C57.743 39.124 64.569 40.85 66.743 42.916C67.3769 43.5596 67.7957 44.384 67.9417 45.2755C68.0876 46.167 67.9536 47.0818 67.558 47.894C66.992 49.13 65.524 50.602 65.935 51.176C66.256 51.625 68.88 49.613 70.403 48.882C75.382 46.499 79.968 43.896 85.133 41.729C90.392 39.523 99.772 37.172 99.72 31.379C99.681 26.979 94.387 24.779 87.72 22.769C84.2223 21.4889 80.8146 19.9751 77.52 18.238C75.909 17.444 75.573 16.747 75.079 17.09C74.895 17.217 75.305 19.776 74.549 20.772C73.187 22.564 70.337 23.608 66.136 24.618C58.715 26.2313 51.2048 27.4027 43.645 28.126C43.227 28.172 42.376 28.278 42.405 28.435C42.462 28.74 43.169 28.607 43.561 28.602C55.441 28.423 67.321 27.851 79.201 27.715C86.447 27.632 97.225 29.691 97.165 31.134C97.098 32.707 86.259 35.234 78.102 35.317C62.23 35.478 45.902 34.225 29.787 33.572C29.202 33.549 27.987 33.341 27.969 33.689L27.973 33.686Z" fill="white"/>
<path fill-rule="evenodd" clip-rule="evenodd" d="M24.752 59.752C20.314 59.752 16.801 63.846 16.801 68.893C16.801 73.94 20.221 78.034 24.752 78.034C29.283 78.034 32.703 73.94 32.703 68.893C32.703 63.846 29.19 59.752 24.752 59.752ZM24.72 73.562C22.82 73.549 21.4 71.362 21.42 68.689C21.44 66.016 22.926 63.849 24.787 63.862C26.648 63.875 28.106 66.056 28.087 68.734C28.068 71.412 26.62 73.574 24.72 73.562V73.562Z" fill="white"/>
<path fill-rule="evenodd" clip-rule="evenodd" d="M42.9409 59.752C40.1181 59.6549 37.3682 60.6589 35.272 62.552V83.494H39.796V76.241C40.7546 77.2777 42.0584 77.929 43.463 78.073C48.032 78.028 50.896 73.942 50.896 68.895C50.896 63.848 47.3789 59.752 42.9409 59.752ZM43.31 73.534C41.922 73.848 40.819 73.108 39.768 72.471L39.817 65.079C40.2171 64.6777 40.7067 64.3769 41.2455 64.2011C41.7843 64.0254 42.3571 63.9798 42.917 64.068C44.917 64.53 45.797 66.387 45.836 68.926C45.876 71.442 45.08 73.133 43.31 73.534Z" fill="white"/>
<path fill-rule="evenodd" clip-rule="evenodd" d="M60.8581 59.752C58.0356 59.655 55.2859 60.659 53.1901 62.552V83.494H57.7141V76.241C58.6726 77.2776 59.9765 77.929 61.381 78.073C65.95 78.028 68.8141 73.942 68.8141 68.895C68.8141 63.848 65.2961 59.752 60.8581 59.752ZM61.2271 73.652C59.8401 73.967 58.7371 73.226 57.6851 72.589L57.735 65.197C58.1352 64.7956 58.6247 64.4948 59.1636 64.319C59.7024 64.1433 60.2752 64.0977 60.8351 64.186C62.8351 64.649 63.7141 66.506 63.7531 69.044C63.7931 71.562 62.9971 73.253 61.2271 73.654V73.652Z" fill="white"/>
<path fill-rule="evenodd" clip-rule="evenodd" d="M82.317 72.185C81.8847 72.6686 81.3565 73.0568 80.766 73.325C80.1755 73.5933 79.5355 73.7356 78.887 73.743C77.402 73.743 76.203 72.418 75.748 70.562H86.704C86.713 65.492 84.504 59.752 78.889 59.752C74.451 59.752 70.938 63.846 70.938 68.893C70.938 73.94 74.358 78.034 78.889 78.034C81.717 78.034 84.347 77.053 85.747 74.845L82.353 72.186L82.317 72.185ZM78.917 64.226C80.335 64.235 81.517 65.503 81.996 67.291L75.796 67.249C76.299 65.468 77.504 64.216 78.919 64.226H78.917Z" fill="white"/>
</svg>
