<svg width="100" height="100" viewBox="0 0 100 100" fill="none" xmlns="http://www.w3.org/2000/svg">
<g clip-path="url(#clip0_119_1039)">
<path d="M52.8711 79.186C52.4711 79.005 52.4221 78.911 52.4991 78.474C52.9925 75.6594 53.4858 72.8447 53.9791 70.03C54.0641 69.546 54.1461 69.061 54.2451 68.58C54.2481 68.4901 54.2703 68.4019 54.3103 68.3212C54.3502 68.2406 54.4069 68.1695 54.4767 68.1127C54.5464 68.0558 54.6274 68.0146 54.7145 67.9917C54.8015 67.9688 54.8924 67.9648 54.9811 67.98C56.6064 67.976 58.2317 67.976 59.857 67.98C60.3389 67.977 60.816 68.0758 61.2571 68.27C61.6667 68.4284 62.0182 68.708 62.2647 69.0715C62.5113 69.4349 62.6412 69.8649 62.6371 70.304C62.688 70.8725 62.5803 71.4439 62.3259 71.9548C62.0715 72.4657 61.6803 72.896 61.196 73.198C61.149 73.228 61.1081 73.268 61.0511 73.313C61.1191 73.359 61.1741 73.398 61.2301 73.434C61.6544 73.6961 61.9586 74.1146 62.0771 74.599C62.2942 75.3958 62.2224 76.2436 61.8747 76.9926C61.527 77.7416 60.9258 78.3435 60.1771 78.692C59.6547 78.9273 59.0967 79.074 58.5261 79.126C58.4269 79.1412 58.3287 79.1622 58.232 79.189L52.8711 79.186ZM55.971 76.586C56.622 76.586 57.237 76.595 57.852 76.586C57.9929 76.5976 58.1347 76.5791 58.2679 76.5319C58.4012 76.4846 58.5228 76.4097 58.625 76.312C58.7271 76.2143 58.8075 76.096 58.8606 75.965C58.9137 75.834 58.9384 75.6933 58.9331 75.552C58.9711 75.097 58.7891 74.831 58.3331 74.809C57.6621 74.777 56.989 74.801 56.294 74.801L55.971 76.586ZM56.7501 72.204C57.3721 72.204 57.9321 72.235 58.4861 72.195C58.7131 72.1913 58.9296 72.0982 59.0884 71.9358C59.2471 71.7735 59.3354 71.5551 59.3341 71.328C59.3881 70.818 59.191 70.567 58.68 70.539C58.28 70.517 57.8801 70.531 57.4801 70.529H57.0301L56.7501 72.204Z" fill="white"/>
<path d="M39.682 79.186C39.5556 79.1323 39.4545 79.0322 39.3996 78.9062C39.3448 78.7803 39.3403 78.6382 39.3871 78.509C39.7361 76.574 40.07 74.635 40.41 72.698C40.6453 71.358 40.8817 70.018 41.119 68.678C41.219 68.134 41.3971 67.983 41.9551 67.978C43.4664 67.9747 44.9777 67.9747 46.489 67.978C47.0514 67.9691 47.6091 68.0817 48.124 68.308C48.5597 68.4919 48.937 68.7911 49.2152 69.1735C49.4934 69.5559 49.662 70.0069 49.703 70.478C49.8011 71.2777 49.6981 72.0893 49.4031 72.839C49.0957 73.6614 48.5232 74.3581 47.776 74.819C47.671 74.885 47.563 74.949 47.451 75.019C47.641 75.543 47.8281 76.055 48.0121 76.568C48.2051 77.106 48.3931 77.646 48.5841 78.185L48.607 78.25C48.775 78.742 48.733 78.889 48.338 79.185H45.9381C45.9211 79.17 45.9061 79.145 45.8871 79.143C45.6694 79.1164 45.4665 79.0189 45.3097 78.8657C45.1528 78.7125 45.0507 78.5119 45.019 78.295C44.88 77.753 44.713 77.218 44.552 76.681C44.473 76.419 44.3871 76.158 44.2921 75.901C44.2558 75.7909 44.1883 75.6938 44.098 75.6212C44.0077 75.5486 43.8983 75.5037 43.7831 75.492C43.545 75.4772 43.3064 75.4752 43.0681 75.486C42.8981 76.457 42.7271 77.402 42.5681 78.349C42.5662 78.526 42.5135 78.6988 42.4166 78.8469C42.3197 78.995 42.1824 79.1123 42.021 79.185L39.682 79.186ZM43.531 72.801C44.096 72.801 44.622 72.786 45.146 72.801C45.324 72.811 45.5021 72.7818 45.6676 72.7154C45.833 72.649 45.9818 72.547 46.1035 72.4166C46.2252 72.2863 46.3167 72.1308 46.3716 71.9612C46.4264 71.7915 46.4433 71.6119 46.421 71.435C46.4222 71.2844 46.3701 71.1382 46.2738 71.0223C46.1775 70.9065 46.0433 70.8284 45.895 70.802C45.7611 70.7717 45.6243 70.756 45.487 70.755C45.052 70.749 44.617 70.755 44.187 70.755C44.098 70.755 44.0091 70.77 43.9031 70.779C43.7771 71.447 43.658 72.093 43.53 72.802L43.531 72.801Z" fill="white"/>
<path d="M30.4751 79.186C30.3916 79.1013 30.3319 78.996 30.3021 78.8809C30.2722 78.7657 30.2732 78.6447 30.3051 78.53C30.8738 75.322 31.4372 72.1133 31.9952 68.904C32.1292 68.139 32.2802 68.004 33.0572 68.004C35.1058 68.004 37.1548 68.004 39.2042 68.004C39.3187 68.0021 39.4332 68.0071 39.5472 68.019C39.9532 68.068 40.0631 68.197 40.0191 68.61C39.9891 68.894 39.9292 69.174 39.8792 69.455C39.8412 69.669 39.8001 69.882 39.7581 70.095C39.6511 70.633 39.4581 70.795 38.9201 70.795C37.6841 70.795 36.4481 70.795 35.2121 70.795H34.8222L34.5761 72.167H37.7352C37.8352 72.167 37.9421 72.167 38.0441 72.174C38.3361 72.203 38.4531 72.325 38.4441 72.616C38.4362 72.7756 38.4165 72.9343 38.3852 73.091C38.3252 73.452 38.2661 73.813 38.1951 74.172C38.0661 74.823 37.9291 74.934 37.2791 74.935H34.0792L33.8101 76.426H34.2192C35.4672 76.426 36.7191 76.436 37.9621 76.426C38.7021 76.418 38.7071 76.67 38.6181 77.209C38.5451 77.649 38.4501 78.085 38.3841 78.525C38.374 78.6621 38.3293 78.7944 38.2543 78.9097C38.1793 79.0249 38.0764 79.1193 37.9551 79.184L30.4751 79.186Z" fill="white"/>
<path d="M66.4781 79.186C66.2331 79.142 65.987 79.107 65.745 79.052C65.4995 79.0002 65.2574 78.9334 65.0201 78.852C64.4015 78.6448 63.8642 78.2471 63.4854 77.7159C63.1066 77.1848 62.9055 76.5473 62.9111 75.895C62.9072 75.3116 62.9709 74.7297 63.101 74.161C63.244 73.386 63.3651 72.606 63.5201 71.834C63.6856 70.8479 64.1716 69.944 64.9029 69.2621C65.6341 68.5802 66.5699 68.1584 67.5651 68.062C68.5141 67.889 69.4897 67.9313 70.4201 68.186C71.1207 68.3632 71.7394 68.7752 72.173 69.3534C72.6067 69.9315 72.829 70.6408 72.803 71.363C72.7904 71.9456 72.7235 72.5258 72.6031 73.096C72.4671 73.873 72.356 74.654 72.188 75.424C72.0121 76.3604 71.5424 77.2163 70.8471 77.8676C70.1517 78.5189 69.2669 78.9316 68.3211 79.046C68.0071 79.096 67.691 79.139 67.376 79.186H66.4781ZM69.778 71.922C69.786 71.19 69.531 70.835 68.944 70.707C68.675 70.6553 68.4002 70.6395 68.127 70.66C67.7147 70.6542 67.3153 70.804 67.0086 71.0797C66.7018 71.3553 66.5103 71.7364 66.4721 72.147C66.3911 72.62 66.3021 73.092 66.2181 73.565C66.1261 74.083 66.0311 74.6 65.9461 75.119C65.9023 75.2692 65.8932 75.4274 65.9195 75.5816C65.9457 75.7358 66.0066 75.8821 66.0976 76.0094C66.1886 76.1367 66.3073 76.2417 66.4447 76.3164C66.5822 76.3912 66.7348 76.4338 66.891 76.441C67.1955 76.4845 67.5046 76.4845 67.809 76.441C68.1669 76.409 68.503 76.255 68.7609 76.0049C69.0189 75.7548 69.183 75.4237 69.226 75.067C69.341 74.449 69.451 73.83 69.559 73.21C69.643 72.739 69.721 72.265 69.778 71.922V71.922Z" fill="white"/>
<path d="M13.7811 79.186C13.5452 79.1523 13.3114 79.1049 13.0811 79.044C12.6848 78.9371 12.2997 78.7924 11.9311 78.612C11.477 78.3623 11.0937 78.0015 10.8169 77.5634C10.54 77.1254 10.3787 76.6243 10.348 76.107C10.3024 75.4211 10.3567 74.7323 10.5091 74.062C10.8251 72.3067 11.1374 70.5506 11.4461 68.794C11.4541 68.749 11.4571 68.703 11.4661 68.658C11.5751 68.135 11.751 67.987 12.288 67.982C12.849 67.982 13.41 67.982 13.971 67.982C14.017 67.982 14.0631 67.982 14.1081 67.982C14.4871 68.009 14.621 68.168 14.564 68.54C14.507 68.912 14.44 69.285 14.374 69.656C14.0527 71.4686 13.7314 73.281 13.4101 75.093C13.3844 75.2277 13.377 75.3653 13.3881 75.502C13.396 75.6989 13.4676 75.888 13.5919 76.0408C13.7163 76.1937 13.8869 76.3022 14.0781 76.35C14.5864 76.5057 15.1323 76.4845 15.627 76.29C15.8596 76.2037 16.0653 76.0575 16.2233 75.8663C16.3813 75.6751 16.4861 75.4456 16.5271 75.201C16.6781 74.45 16.805 73.695 16.939 72.941C17.196 71.5 17.4471 70.059 17.7071 68.618C17.7911 68.149 17.9811 67.986 18.4511 67.98C19.0581 67.972 19.6651 67.972 20.2711 67.98C20.7221 67.987 20.854 68.131 20.788 68.58C20.681 69.292 20.5491 70 20.4231 70.71C20.1551 72.218 19.892 73.728 19.614 75.234C19.5307 75.8313 19.3276 76.4055 19.0169 76.9224C18.7062 77.4393 18.2944 77.8882 17.8061 78.242C17.0707 78.7348 16.2236 79.0353 15.3421 79.116C15.2321 79.129 15.1231 79.161 15.0141 79.184L13.7811 79.186Z" fill="white"/>
<path d="M20.583 79.186C20.236 79 20.183 78.903 20.255 78.498C20.463 77.304 20.676 76.112 20.886 74.918C21.2193 73.0154 21.5543 71.113 21.891 69.211C21.933 68.975 21.969 68.737 22.028 68.504C22.0503 68.3543 22.1276 68.2183 22.2448 68.1227C22.3621 68.027 22.5109 67.9786 22.662 67.987C22.753 67.981 22.845 67.981 22.937 67.981C24.31 67.981 25.684 67.981 27.057 67.981C27.5497 67.9686 28.0409 68.0396 28.51 68.191C29.0223 68.3476 29.4793 68.6473 29.8272 69.0547C30.1752 69.4622 30.3995 69.9604 30.474 70.491C30.6563 71.5255 30.4992 72.5912 30.026 73.529C29.7607 74.0848 29.3661 74.5689 28.8753 74.9409C28.3845 75.3129 27.8117 75.5619 27.2049 75.667C26.7563 75.7547 26.301 75.8032 25.844 75.812C25.205 75.836 24.564 75.818 23.884 75.818C23.814 76.192 23.744 76.558 23.679 76.924C23.588 77.43 23.49 77.936 23.414 78.444C23.4087 78.6106 23.3515 78.7714 23.2503 78.9039C23.1492 79.0363 23.0092 79.134 22.8499 79.183L20.583 79.186ZM24.367 73.052C24.959 73.041 25.514 73.088 26.067 73.023C26.384 73.0011 26.6817 72.8629 26.9032 72.635C27.1246 72.4071 27.2541 72.1055 27.2669 71.788C27.2973 71.6703 27.3005 71.5471 27.2762 71.4279C27.2519 71.3088 27.2007 71.1967 27.1266 71.1003C27.0524 71.0039 26.9573 70.9257 26.8484 70.8715C26.7394 70.8174 26.6196 70.7889 26.498 70.788C25.934 70.743 25.363 70.778 24.768 70.778L24.367 73.052Z" fill="white"/>
<path d="M3.33806 79.186C3.10406 79.14 2.87005 79.095 2.63805 79.047C2.07333 78.945 1.53578 78.7275 1.05907 78.408C0.785647 78.2279 0.552085 77.9935 0.372854 77.7195C0.193623 77.4455 0.0724839 77.1377 0.0170191 76.815C-0.0257181 76.6703 -0.0124017 76.5149 0.0543116 76.3796C0.121025 76.2443 0.236287 76.1392 0.377065 76.085C0.417292 76.063 0.45907 76.0439 0.502065 76.028C1.06507 75.837 1.62507 75.637 2.19207 75.46C2.62107 75.326 2.77103 75.399 2.93603 75.814C3.01357 76.0127 3.1435 76.1867 3.312 76.3175C3.4805 76.4484 3.68131 76.5311 3.89306 76.557C4.42406 76.6557 4.97023 76.6366 5.49303 76.501C5.64038 76.474 5.77929 76.4128 5.89849 76.3221C6.01769 76.2314 6.11385 76.1138 6.17907 75.979C6.22304 75.9139 6.25126 75.8395 6.26159 75.7617C6.27191 75.6839 6.26402 75.6047 6.23852 75.5304C6.21302 75.4562 6.17064 75.3888 6.11468 75.3337C6.05871 75.2786 5.99073 75.2373 5.91607 75.213C5.57289 75.0903 5.22041 74.9953 4.86205 74.929C4.30505 74.806 3.73903 74.718 3.18603 74.58C2.89974 74.5004 2.6241 74.3866 2.36504 74.241C2.00725 74.0678 1.69878 73.8074 1.46795 73.4837C1.23711 73.1601 1.09135 72.7837 1.04406 72.389C0.924901 71.6902 1.01803 70.9717 1.31145 70.3264C1.60488 69.681 2.08511 69.1386 2.69005 68.769C3.03559 68.5654 3.40506 68.4055 3.79003 68.293C4.95958 67.9505 6.19448 67.895 7.39007 68.131C7.93772 68.2133 8.45047 68.4503 8.86815 68.8139C9.28584 69.1776 9.59109 69.6529 9.74804 70.184C9.90204 70.654 9.83503 70.824 9.37603 71.015C8.83803 71.239 8.29605 71.4536 7.75005 71.659C7.37005 71.803 7.20507 71.736 7.05907 71.347C6.9871 71.1342 6.85481 70.9469 6.67834 70.8079C6.50186 70.6689 6.2888 70.5841 6.06505 70.564C5.63408 70.4942 5.19291 70.5219 4.77404 70.645C4.61008 70.6929 4.4588 70.7766 4.33105 70.89C4.24391 70.9534 4.17634 71.04 4.13598 71.14C4.09562 71.2399 4.08407 71.3491 4.10271 71.4553C4.12136 71.5615 4.16944 71.6603 4.24145 71.7405C4.31345 71.8207 4.40652 71.879 4.51006 71.909C4.75562 72.0001 5.00948 72.0671 5.26806 72.109C5.78406 72.209 6.31104 72.264 6.81804 72.395C7.21573 72.499 7.59949 72.6504 7.96105 72.846C8.39972 73.0662 8.76531 73.4087 9.01372 73.8321C9.26213 74.2554 9.38272 74.7416 9.36101 75.232C9.36457 75.7485 9.271 76.2611 9.08507 76.743C8.92327 77.1607 8.68021 77.5422 8.37005 77.8654C8.05988 78.1886 7.68876 78.4471 7.27807 78.626C6.70315 78.8837 6.09134 79.0497 5.46502 79.118C5.35302 79.132 5.24305 79.163 5.13305 79.186H3.33806Z" fill="white"/>
<path d="M89.4201 79.186C89.1291 78.986 89.108 78.916 89.255 78.6C89.322 78.455 89.4041 78.317 89.4801 78.176C91.1801 75.028 92.8801 71.886 94.5631 68.729C94.6567 68.4777 94.8324 68.2654 95.0619 68.1267C95.2914 67.988 95.5611 67.931 95.8271 67.965C96.3611 68.011 96.9011 67.965 97.4391 67.976C97.9261 67.982 98.0631 68.096 98.1541 68.576C98.5868 70.8653 99.0171 73.155 99.4451 75.445C99.5941 76.245 99.745 77.039 99.89 77.836C99.923 78.011 99.9632 78.186 100 78.36V78.91L99.588 79.185H97.458C97.44 79.172 97.4231 79.152 97.4031 79.147C96.8261 79.007 96.7721 78.941 96.6971 78.353C96.6551 78.029 96.5971 77.707 96.5501 77.392H93.1601C93.0011 77.719 92.8371 78.021 92.7051 78.336C92.6384 78.5556 92.5088 78.7508 92.3323 78.8974C92.1558 79.044 91.9401 79.1357 91.7121 79.161C91.7031 79.161 91.696 79.176 91.687 79.184L89.4201 79.186ZM96.0641 70.82C95.9781 70.902 95.9352 70.92 95.9222 70.957C95.4072 72.245 94.8941 73.534 94.3731 74.845H96.2731C96.2031 73.509 96.1351 72.198 96.0651 70.82H96.0641Z" fill="white"/>
<path d="M81.3131 79.186C80.9261 79.013 80.8561 78.899 80.9261 78.508C81.5088 75.222 82.093 71.9363 82.679 68.651C82.779 68.113 82.939 67.979 83.487 67.976C84.059 67.976 84.632 67.976 85.204 67.976C85.2842 67.9741 85.3643 67.9775 85.444 67.986C85.502 67.9853 85.5595 67.9973 85.6124 68.021C85.6653 68.0448 85.7124 68.0798 85.7504 68.1235C85.7885 68.1673 85.8165 68.2188 85.8327 68.2744C85.8489 68.3301 85.8528 68.3887 85.8441 68.446C85.8402 68.5371 85.8288 68.6278 85.81 68.717C85.3713 71.2043 84.9324 73.6917 84.4931 76.179C84.4862 76.2455 84.4829 76.3122 84.4831 76.379H88.0611C88.1531 76.379 88.245 76.379 88.336 76.379C88.7 76.407 88.8471 76.551 88.7971 76.907C88.7151 77.483 88.597 78.055 88.497 78.629C88.4648 78.7687 88.3922 78.8959 88.2882 78.9946C88.1841 79.0933 88.0533 79.1592 87.9121 79.184L81.3131 79.186Z" fill="white"/>
<path d="M72.933 79.185C72.522 79.01 72.462 78.901 72.542 78.447C72.8186 76.883 73.0963 75.319 73.375 73.755C73.663 72.135 73.951 70.515 74.239 68.895C74.2617 68.7367 74.2931 68.5798 74.333 68.425C74.3583 68.2996 74.4266 68.1869 74.5261 68.1064C74.6256 68.0259 74.7501 67.9826 74.878 67.984C75.587 67.976 76.297 67.97 77.006 67.984C77.349 67.991 77.495 68.184 77.445 68.535C77.386 68.942 77.309 69.346 77.237 69.752C76.8597 71.8787 76.4823 74.005 76.105 76.131C76.093 76.198 76.095 76.267 76.089 76.378H79.6581C79.7381 76.378 79.818 76.378 79.898 76.378C80.324 76.4 80.47 76.578 80.398 77.002C80.32 77.464 80.2191 77.922 80.1531 78.386C80.1518 78.57 80.0895 78.7483 79.9761 78.893C79.8626 79.0378 79.7043 79.1409 79.526 79.186L72.933 79.185Z" fill="white"/>
<path d="M28.0851 21C34.5493 25.4869 42.2294 27.8931 50.0983 27.8968C57.9671 27.9006 65.6495 25.5017 72.118 21.021C72.128 21.169 72.141 21.269 72.141 21.368C72.141 22.158 72.135 22.948 72.146 23.738C72.1507 23.8452 72.1327 23.9522 72.0932 24.0519C72.0538 24.1517 71.9937 24.242 71.917 24.317C66.2438 30.2921 58.7908 34.2727 50.67 35.665C49.0793 35.9342 47.4737 36.1069 45.862 36.182C44.1694 36.2657 42.473 36.2323 40.785 36.082C36.7319 35.7307 32.7626 34.724 29.032 33.101C28.738 32.973 28.449 32.835 28.154 32.711C28.0896 32.6892 28.0334 32.6481 27.993 32.5934C27.9526 32.5387 27.9299 32.473 27.928 32.405C27.878 31.916 27.797 31.43 27.756 30.94C27.5752 28.8062 27.567 26.6612 27.7311 24.526C27.8151 23.454 27.922 22.384 28.021 21.314C28.03 21.221 28.0571 21.134 28.0851 21Z" fill="white"/>
<path d="M29.381 39.199C36.6506 42.2158 44.6704 42.9311 52.3591 41.2485C60.0479 39.5659 67.0359 35.5663 72.381 29.789C72.394 29.8735 72.4023 29.9586 72.406 30.044C72.392 30.444 72.3641 30.844 72.3621 31.244C72.3575 31.4948 72.2781 31.7386 72.134 31.944C70.1957 34.9389 67.8296 37.6341 65.111 39.944C60.2928 44.0586 54.5386 46.9278 48.353 48.3C46.6113 48.6905 44.8437 48.9551 43.064 49.092C41.2838 49.2391 39.495 49.2512 37.713 49.128C36.744 49.058 35.78 48.918 34.813 48.817C34.7396 48.8116 34.6683 48.7901 34.6041 48.754C34.54 48.7179 34.4847 48.668 34.442 48.608C32.2624 45.857 30.5711 42.7522 29.442 39.429C29.427 39.38 29.416 39.326 29.381 39.199Z" fill="white"/>
<path d="M70.52 40.093C70.475 40.231 70.445 40.336 70.407 40.438C68.981 44.2188 66.8124 47.6757 64.0291 50.605C60.6153 54.26 56.3578 57.0226 51.629 58.651C51.208 58.797 50.783 58.932 50.353 59.051C50.2016 59.0938 50.0417 59.0962 49.889 59.058C47.0406 58.228 44.3306 56.9812 41.847 55.358C41.8084 55.3336 41.7714 55.3069 41.7361 55.278C41.7205 55.2605 41.7073 55.241 41.697 55.22C47.3118 54.9438 52.799 53.4474 57.7767 50.835C62.7544 48.2226 67.103 44.5569 70.52 40.093V40.093Z" fill="white"/>
</g>
<defs>
<clipPath id="clip0_119_1039">
<rect width="100" height="100" fill="white"/>
</clipPath>
</defs>
</svg>
