<svg width="100" height="100" viewBox="0 0 100 100" fill="none" xmlns="http://www.w3.org/2000/svg">
<g clip-path="url(#clip0_119_980)">
<path d="M34.368 25.115L39.127 32.515L35.427 40.446L25.381 39.389L20.094 29.343L25.381 22.998L34.368 25.115Z" fill="white"/>
<path d="M20.0919 49.436L22.735 58.425L16.9189 62.655C16.9189 62.655 11.103 61.598 8.98804 60.011C7.40104 57.368 4.75796 54.195 5.28796 52.08C6.34496 51.023 10.047 46.263 10.047 46.263L20.0919 49.436Z" fill="white"/>
<path d="M10.047 24.587L12.6901 31.46L6.87402 39.92H0V33.047C0 33.047 3.23997 27.415 6.34497 26.173C8.98897 25.115 10.047 24.587 10.047 24.587Z" fill="white"/>
<path d="M43.759 55.088C40.029 54.748 37.766 54.415 37.766 52.649C37.766 50.403 41.1659 50.067 43.1949 50.067C47.4519 50.067 49.0451 51.906 49.8101 52.79L50.266 53.309L52.578 51.431L52.288 51.031C51.653 50.142 49.125 47.245 43.243 47.245C37.643 47.245 34.5551 49.286 34.5551 52.99C34.5551 57.254 39.274 57.711 43.436 58.114C47.236 58.481 49.726 58.86 49.726 60.696C49.726 62.867 46.595 63.637 43.913 63.637C38.936 63.637 37.373 61.553 36.439 60.307L36.101 59.857L34.046 61.61L33.651 61.982L34.0131 62.382C35.5071 64.046 37.764 66.559 43.673 66.559C50.503 66.559 52.937 63.53 52.937 60.694C52.937 55.925 47.848 55.461 43.759 55.088Z" fill="white"/>
<path d="M68.858 47.674H58.1359V66.129H61.299V58.71H68.858C73.671 58.71 76.111 56.85 76.111 53.181C76.111 49.512 73.671 47.674 68.858 47.674ZM61.299 50.598H68.308C72.252 50.598 73.0441 51.598 73.0441 53.205C73.0441 54.799 72.252 55.787 68.308 55.787H61.296L61.299 50.598Z" fill="white"/>
<path d="M93.6289 58.274C96.1289 57.882 98.6589 56.354 98.6589 53.057C98.6589 50.599 97.3799 47.67 91.2869 47.67H80.708V66.125H83.8708V58.419H89.917L95.5168 66.125H99.4438L93.6289 58.274ZM83.8708 50.594H90.8079C94.3399 50.594 95.592 51.233 95.592 53.033C95.592 54.851 94.3399 55.495 90.8079 55.495H83.8708V50.594Z" fill="white"/>
<path d="M53.3181 74.936C53.6353 75.3895 54.0695 75.7486 54.5745 75.9751C55.0795 76.2015 55.6364 76.2869 56.186 76.222C57.16 76.222 58.4862 75.944 58.4862 74.962C58.4862 73.041 52.9771 74.728 52.9771 72.162C52.9771 70.815 54.2201 70.267 55.9401 70.267C56.5264 70.2229 57.115 70.3172 57.6583 70.5421C58.2016 70.767 58.6844 71.1164 59.068 71.562L58.5121 72.014C58.204 71.6322 57.8066 71.3321 57.3551 71.1403C56.9036 70.9484 56.4118 70.8707 55.9231 70.914C54.6541 70.914 53.7592 71.245 53.7592 72.044C53.7592 73.955 59.2692 72.131 59.2692 74.964C59.2692 76.024 58.2431 76.901 56.0961 76.901C55.4575 76.9527 54.8161 76.8466 54.2283 76.592C53.6404 76.3374 53.1242 75.9421 52.7251 75.441L53.3181 74.936Z" fill="white"/>
<path d="M56.0981 77.028C55.4425 77.0784 54.7843 76.9681 54.1809 76.7067C53.5775 76.4453 53.0469 76.0407 52.6351 75.528L52.5441 75.428L52.644 75.328L53.3441 74.733L53.4291 74.845C53.7346 75.2814 54.1529 75.6266 54.6394 75.8438C55.1259 76.0609 55.6622 76.1419 56.191 76.078C57.191 76.078 58.3611 75.778 58.3611 74.951C58.3611 74.18 57.2261 74.07 56.0231 73.951C54.5371 73.808 52.8521 73.644 52.8521 72.151C52.8521 70.844 53.9521 70.124 55.9521 70.124C56.5604 70.0718 57.1722 70.1672 57.7356 70.4023C58.299 70.6373 58.7972 71.005 59.188 71.474L59.261 71.574L58.51 72.185L58.3831 72.04C58.0873 71.6864 57.7101 71.4098 57.2839 71.2341C56.8577 71.0583 56.3951 70.9886 55.936 71.031C55.178 71.031 53.9041 71.161 53.9041 72.031C53.9041 72.773 54.9381 72.866 56.1351 72.976C57.6711 73.116 59.4131 73.276 59.4131 74.951C59.4031 75.955 58.5351 77.028 56.0981 77.028ZM52.9161 75.448C53.3032 75.9051 53.7939 76.263 54.3474 76.4918C54.901 76.7206 55.5013 76.8136 56.0981 76.763C57.9731 76.763 59.1372 76.071 59.1372 74.958C59.1372 73.524 57.5931 73.383 56.0991 73.246C54.8281 73.13 53.6281 73.02 53.6281 72.038C53.6281 71.225 54.4431 70.776 55.9281 70.776C56.4143 70.7372 56.9029 70.812 57.3552 70.9946C57.8075 71.1772 58.2112 71.4625 58.5342 71.828L58.8901 71.538C58.5113 71.1457 58.0516 70.8405 57.5431 70.6435C57.0346 70.4464 56.4893 70.3623 55.9451 70.397C54.6531 70.397 53.1141 70.703 53.1141 72.159C53.1141 73.413 54.6041 73.559 56.0471 73.697C57.3711 73.826 58.623 73.946 58.623 74.957C58.623 75.968 57.3651 76.349 56.1891 76.349C55.6428 76.4115 55.0896 76.3314 54.5835 76.1165C54.0774 75.9017 53.6356 75.5594 53.3011 75.123L52.9161 75.448Z" fill="white"/>
<path d="M61.1051 70.423H64.8051C66.0821 70.423 67.2472 70.789 67.2472 72.23C67.2472 73.671 66.0821 74.047 64.8051 74.047H61.8722V76.74H61.1071L61.1051 70.423ZM61.8702 73.369H64.6061C65.8761 73.369 66.5182 73.1 66.5182 72.239C66.5182 71.378 65.8751 71.101 64.6061 71.101H61.8722L61.8702 73.369Z" fill="white"/>
<path d="M62.0033 76.872H60.9733V70.291H64.8063C66.5143 70.291 67.3802 70.943 67.3802 72.23C67.3802 73.517 66.5143 74.179 64.8063 74.179H62.0062L62.0033 76.872ZM61.2382 76.608H61.7382V73.914H64.8063C66.3603 73.914 67.1151 73.364 67.1151 72.23C67.1151 71.096 66.3603 70.555 64.8063 70.555H61.2372L61.2382 76.608ZM64.6061 73.501H61.7391V70.969H64.6061C65.6171 70.969 66.6522 71.12 66.6522 72.239C66.6522 73.358 65.6171 73.501 64.6061 73.501ZM62.0062 73.237H64.6061C65.8881 73.237 66.3871 72.957 66.3871 72.237C66.3871 71.517 65.9051 71.231 64.6061 71.231H62.0062V73.237Z" fill="white"/>
<path d="M72.2981 70.266C74.4441 70.266 75.998 71.518 75.998 73.62C75.998 75.862 74.1211 76.896 72.2981 76.896C70.4751 76.896 68.5981 75.862 68.5981 73.62C68.5981 71.518 70.1551 70.266 72.2981 70.266ZM72.2981 76.218C72.8089 76.1691 73.2946 75.9738 73.6973 75.6557C74.0999 75.3375 74.4022 74.91 74.5679 74.4243C74.7336 73.9387 74.7558 73.4155 74.6316 72.9176C74.5074 72.4197 74.2421 71.9682 73.8677 71.6173C73.4933 71.2664 73.0256 71.0309 72.5208 70.9391C72.0159 70.8474 71.4952 70.9032 71.0212 71.0999C70.5473 71.2967 70.1403 71.626 69.8489 72.0483C69.5574 72.4706 69.3937 72.9681 69.3779 73.481C69.3608 73.8609 69.4263 74.24 69.5696 74.5923C69.7129 74.9445 69.9306 75.2616 70.208 75.5216C70.4855 75.7817 70.816 75.9786 71.1768 76.0988C71.5375 76.219 71.9201 76.2597 72.2981 76.218V76.218Z" fill="white"/>
<path d="M72.301 77.028C70.455 77.028 68.467 75.962 68.467 73.62C68.467 71.535 70.008 70.134 72.301 70.134C74.594 70.134 76.135 71.534 76.135 73.62C76.135 75.962 74.148 77.028 72.301 77.028ZM72.301 70.398C70.133 70.398 68.7312 71.663 68.7312 73.62C68.7312 75.792 70.524 76.764 72.301 76.764C74.078 76.764 75.8711 75.792 75.8711 73.62C75.8711 71.663 74.469 70.398 72.301 70.398ZM72.301 76.35C71.7636 76.3014 71.2518 76.0986 70.8269 75.7659C70.4021 75.4331 70.0823 74.9848 69.9062 74.4747C69.7302 73.9645 69.7054 73.4144 69.8347 72.8905C69.964 72.3666 70.2419 71.8912 70.635 71.5216C71.0281 71.1519 71.5197 70.9037 72.0505 70.8069C72.5814 70.71 73.1291 70.7686 73.6274 70.9756C74.1258 71.1826 74.5536 71.5292 74.8596 71.9737C75.1656 72.4182 75.3366 72.9416 75.3521 73.481C75.3703 73.8786 75.3025 74.2755 75.1531 74.6444C75.0037 75.0133 74.7763 75.3456 74.4866 75.6185C74.1968 75.8915 73.8516 76.0986 73.4744 76.2257C73.0972 76.3528 72.6968 76.3969 72.301 76.355V76.35ZM72.301 71.041C71.9549 71.0034 71.6048 71.038 71.2727 71.1427C70.9407 71.2474 70.634 71.4199 70.3721 71.6493C70.1101 71.8786 69.8987 72.1598 69.751 72.4751C69.6033 72.7904 69.5226 73.1329 69.5142 73.481C69.4939 73.8441 69.5536 74.2072 69.6892 74.5446C69.8248 74.882 70.0329 75.1855 70.2988 75.4336C70.5647 75.6816 70.882 75.8682 71.228 75.9801C71.574 76.092 71.9402 76.1264 72.301 76.081C72.6534 76.1161 73.0094 76.077 73.3457 75.9663C73.682 75.8555 73.9914 75.6755 74.2539 75.4378C74.5164 75.2002 74.726 74.9102 74.8696 74.5865C75.0132 74.2628 75.0874 73.9126 75.0874 73.5585C75.0874 73.2044 75.0132 72.8542 74.8696 72.5305C74.726 72.2068 74.5164 71.9168 74.2539 71.6792C73.9914 71.4415 73.682 71.2615 73.3457 71.1507C73.0094 71.04 72.6534 71.0009 72.301 71.036V71.041Z" fill="white"/>
<path d="M77.8619 70.423H81.5111C82.5201 70.423 83.996 70.641 83.996 72.187C83.9818 72.4325 83.9188 72.6728 83.8107 72.8937C83.7026 73.1146 83.5515 73.3117 83.3663 73.4735C83.1811 73.6354 82.9657 73.7587 82.7323 73.8362C82.4989 73.9137 82.2522 73.9439 82.007 73.925L84.0909 76.74H83.1451L81.111 73.94H78.6261V76.74H77.861L77.8619 70.423ZM78.6271 73.265H81.339C82.439 73.265 83.2679 73.108 83.2679 72.179C83.2679 71.25 82.442 71.101 81.339 71.101H78.6271V73.265Z" fill="white"/>
<path d="M84.3541 76.872H83.078L81.045 74.072H78.7592V76.872H77.7301V70.291H81.5111C83.6741 70.291 84.1281 71.322 84.1281 72.191C84.1149 72.6817 83.9124 73.1483 83.5629 73.493C83.2133 73.8377 82.7439 74.0337 82.2531 74.04L84.3541 76.872ZM83.212 76.608H83.829L81.7531 73.808L82.0021 73.797C82.3131 73.783 83.8651 73.638 83.8651 72.191C83.8651 71.108 83.0731 70.559 81.5121 70.559H77.995V76.612H78.495V73.812H81.1791L83.212 76.608ZM81.338 73.397H78.494V70.969H81.338C82.408 70.969 83.399 71.116 83.399 72.179C83.399 73.242 82.408 73.397 81.338 73.397V73.397ZM78.7592 73.133H81.338C82.647 73.133 83.1381 72.874 83.1381 72.179C83.1381 71.484 82.651 71.233 81.338 71.233H78.7592V73.133Z" fill="white"/>
<path d="M88.4561 71.101H85.406V70.423H92.271V71.101H89.2212V76.74H88.457L88.4561 71.101Z" fill="white"/>
<path d="M89.3533 76.872H88.3252V71.233H85.2751V70.291H92.4041V71.233H89.3542L89.3533 76.872ZM88.5891 76.608H89.0891V70.969H92.1392V70.555H85.5391V70.969H88.5891V76.608Z" fill="white"/>
<path d="M93.916 74.936C94.2331 75.3896 94.6673 75.7488 95.1724 75.9752C95.6774 76.2017 96.2345 76.287 96.7842 76.222C97.7572 76.222 99.084 75.944 99.084 74.962C99.084 73.041 93.5752 74.728 93.5752 72.162C93.5752 70.815 94.8181 70.267 96.5381 70.267C97.1244 70.223 97.7128 70.3173 98.2561 70.5422C98.7994 70.7671 99.2823 71.1164 99.666 71.562L99.1101 72.014C98.802 71.6322 98.4047 71.3321 97.9531 71.1403C97.5016 70.9484 97.0097 70.8707 96.521 70.914C95.252 70.914 94.3572 71.245 94.3572 72.044C94.3572 73.955 99.866 72.131 99.866 74.964C99.866 76.024 98.8411 76.901 96.6941 76.901C96.0555 76.9528 95.414 76.8468 94.8262 76.5922C94.2383 76.3375 93.722 75.9422 93.323 75.441L93.916 74.936Z" fill="white"/>
<path d="M96.6971 77.028C96.0421 77.0785 95.3845 76.9687 94.7814 76.7083C94.1782 76.4478 93.6474 76.0444 93.235 75.533L93.1442 75.433L93.244 75.333L93.944 74.738L94.0292 74.85C94.3348 75.2863 94.7529 75.6315 95.2394 75.8486C95.7258 76.0658 96.2623 76.1468 96.7911 76.083C97.7911 76.083 98.9611 75.783 98.9611 74.956C98.9611 74.185 97.8262 74.075 96.6232 73.956C95.1372 73.813 93.452 73.649 93.452 72.156C93.452 70.849 94.5521 70.129 96.5521 70.129C97.1602 70.0769 97.7719 70.1725 98.3351 70.4075C98.8983 70.6426 99.3963 71.0101 99.787 71.479L99.859 71.579L99.109 72.19L98.9811 72.045C98.6854 71.6915 98.3085 71.415 97.8824 71.2392C97.4564 71.0635 96.994 70.9937 96.535 71.036C95.776 71.036 94.5031 71.166 94.5031 72.036C94.5031 72.778 95.537 72.871 96.733 72.981C98.27 73.121 100.012 73.281 100.012 74.956C100.001 75.955 99.1331 77.028 96.6971 77.028ZM93.515 75.448C93.902 75.9052 94.3928 76.2632 94.9464 76.4919C95.5 76.7207 96.1003 76.8137 96.6971 76.763C98.5721 76.763 99.7372 76.071 99.7372 74.958C99.7372 73.524 98.1931 73.383 96.6991 73.246C95.4281 73.13 94.2281 73.02 94.2281 72.038C94.2281 71.225 95.0432 70.776 96.5282 70.776C97.0135 70.7378 97.5008 70.8129 97.952 70.9955C98.4033 71.178 98.8059 71.463 99.1281 71.828L99.486 71.538C99.1071 71.1458 98.6475 70.8406 98.139 70.6436C97.6305 70.4466 97.0854 70.3624 96.5411 70.397C95.2491 70.397 93.7101 70.703 93.7101 72.159C93.7101 73.413 95.2 73.559 96.642 73.697C97.967 73.826 99.2181 73.946 99.2181 74.957C99.2181 75.968 97.9601 76.349 96.7841 76.349C96.2377 76.4113 95.6843 76.3311 95.1781 76.1163C94.6719 75.9014 94.23 75.5592 93.8951 75.123L93.515 75.448Z" fill="white"/>
</g>
<defs>
<clipPath id="clip0_119_980">
<rect width="100" height="100" fill="white"/>
</clipPath>
</defs>
</svg>
