<svg width="100" height="100" viewBox="0 0 100 100" fill="none" xmlns="http://www.w3.org/2000/svg">
<g clip-path="url(#clip0_119_967)">
<path d="M9.79203 50.951C10.478 48.842 12.3921 47.689 15.9991 47.689C19.6431 47.689 20.7991 48.841 20.1121 50.951C19.4631 53.108 17.5862 54.2371 13.9422 54.2371C10.3292 54.2371 9.14303 53.109 9.79203 50.951ZM0.33817 50.951C-1.21383 55.904 2.50323 58.209 12.6792 58.209C22.8552 58.209 28.0142 55.904 29.5662 50.951C31.1182 46.022 27.4011 43.7161 17.2261 43.7161C7.05111 43.7161 1.89115 46.022 0.339146 50.951H0.33817Z" fill="white"/>
<path d="M20.364 60.276H34.894L47.4851 54.465L55.1741 60.3309H65.75L54.2651 51.075L75.5142 41H61.4141L48.7461 47.011L41.3381 41H31.113L42.0701 49.8829L20.364 60.276Z" fill="white"/>
<path d="M68.519 57.6709H78.4509L80.5969 51.491C81.3519 49.259 83.6551 48.303 86.2781 48.303C88.6211 48.303 89.8531 49.039 89.2571 50.731L86.873 57.6709H96.804L99.7439 49.137C101.015 45.41 97.4 43.8889 91.917 43.8889C87.15 43.8889 83.5749 45.0659 82.2639 45.9249H82.1851L82.741 44.2579H73.125L68.519 57.6709Z" fill="white"/>
</g>
<defs>
<clipPath id="clip0_119_967">
<rect width="100" height="100" fill="white"/>
</clipPath>
</defs>
</svg>
