<svg width="100" height="100" viewBox="0 0 100 100" fill="none" xmlns="http://www.w3.org/2000/svg">
<g clip-path="url(#clip0_119_1026)">
<path fill-rule="evenodd" clip-rule="evenodd" d="M41.6739 59.314C41.7461 59.799 41.6227 60.2929 41.3309 60.687C40.8159 61.03 40.3008 61.545 39.6138 61.374C39.2698 61.202 38.9269 60.859 39.0989 60.516C39.3837 60.1351 39.7435 59.8166 40.1563 59.5805C40.5692 59.3443 41.0261 59.1954 41.4989 59.143L41.671 59.315L41.6739 59.314Z" fill="white"/>
<path fill-rule="evenodd" clip-rule="evenodd" d="M69.142 54.679C70.172 55.366 69.485 56.567 69.485 57.597C68.627 59.142 66.223 59.485 66.567 61.717C65.537 63.262 63.134 62.232 61.588 62.232C61.073 62.06 60.3881 61.889 60.3881 61.374C60.5601 60.344 61.9331 60.174 62.4481 59.142C63.3061 57.769 62.1051 55.542 63.4781 54.507C65.3661 54.507 67.2549 54.679 69.1429 54.679H69.142Z" fill="white"/>
<path fill-rule="evenodd" clip-rule="evenodd" d="M42.5331 54.163C42.7051 55.193 43.0481 56.223 42.5331 57.253C42.3611 57.425 42.0181 57.253 41.8461 57.425C41.3201 56.2268 40.6881 55.0779 39.9579 53.992C39.9579 53.649 39.9579 53.305 40.3019 53.134C41.3319 53.134 42.1901 53.306 42.5331 54.164V54.163Z" fill="white"/>
<path fill-rule="evenodd" clip-rule="evenodd" d="M82.8759 45.751C84.5919 47.468 86.1379 49.184 86.1379 51.588C87.1679 53.134 85.2789 54.164 84.5929 55.366C83.7349 56.224 82.362 55.881 81.332 55.709C81.1598 55.6079 81.0303 55.4477 80.9672 55.2583C80.9041 55.0689 80.9118 54.8631 80.9889 54.679C82.0189 52.619 86.139 51.416 84.079 48.67C83.564 47.64 82.019 47.125 82.362 45.923C82.362 45.923 82.7049 45.58 82.8769 45.751H82.8759Z" fill="white"/>
<path fill-rule="evenodd" clip-rule="evenodd" d="M57.8119 36.827C62.1039 35.454 67.94 34.595 71.889 37.17C74.7382 38.8051 77.389 40.7638 79.7889 43.007C81.5059 44.38 80.9889 46.612 81.1619 48.5C80.6469 50.732 78.9308 52.449 78.7618 54.681C77.2158 56.054 79.106 58.458 77.732 59.831C76.872 61.376 79.1049 62.749 77.2159 63.779C75.6709 64.637 73.2679 65.496 71.5509 64.122C71.2823 63.7831 71.1589 63.3516 71.2078 62.922C71.8806 62.3338 72.3593 61.5556 72.5809 60.69C72.4089 58.458 71.036 56.57 71.036 54.338C70.521 52.965 69.319 53.823 68.461 53.651C66.061 53.823 62.9679 52.793 61.0789 54.681C59.6466 55.3178 58.0964 55.6469 56.5289 55.6469C54.9613 55.6469 53.4112 55.3178 51.9788 54.681C51.4638 54.681 51.1198 55.196 50.9488 55.539C49.7488 57.939 48.0308 60.174 48.0308 62.921C47.8626 63.2681 47.5902 63.5539 47.2515 63.7386C46.9129 63.9233 46.5249 63.9976 46.1419 63.951C44.7461 63.5481 43.2735 63.4891 41.8499 63.779C41.5069 63.607 41.1629 63.436 41.1629 63.092C41.8499 61.375 43.2228 60.002 43.5628 57.942C43.97 56.3445 43.8493 54.6582 43.2188 53.135C42.3608 52.276 41.159 52.448 40.129 52.104C39.442 51.932 38.7558 51.589 37.8978 51.417C36.6978 51.932 36.6979 53.65 35.3219 53.817C34.4629 54.332 34.4629 55.534 33.4339 55.362C30.3439 53.989 28.2838 57.594 25.3658 57.937C22.201 57.6792 19.0603 58.6645 16.6099 60.684C16.2659 60.856 15.751 60.684 15.41 60.684C15.0815 60.5049 14.82 60.224 14.6651 59.8835C14.5102 59.5429 14.4701 59.1613 14.5509 58.796C14.5509 57.766 15.2379 56.736 14.8949 55.534C14.2799 54.8096 13.8494 53.947 13.6405 53.02C13.4315 52.093 13.4502 51.1292 13.6949 50.211C14.0389 49.696 14.2099 48.838 14.7249 48.666C15.7549 48.666 15.5839 49.866 15.9249 50.383C16.2659 50.9 16.6119 51.413 17.2979 51.413C19.1869 51.07 20.389 49.013 20.732 47.121C20.56 45.233 23.1319 44.721 23.1319 43.001C23.138 42.2691 23.3113 41.5482 23.6388 40.8936C23.9662 40.2389 24.4388 39.6678 25.0208 39.224C26.0508 39.396 26.7379 40.941 27.7679 39.911C28.4539 39.396 28.9678 40.254 29.6558 39.911C33.6674 36.4512 38.6377 34.2956 43.9049 33.731C48.8829 33.903 52.4879 38.538 57.8109 36.821L57.8119 36.827Z" fill="white"/>
<path fill-rule="evenodd" clip-rule="evenodd" d="M98.4979 51.244C98.6254 51.1599 98.7747 51.1151 98.9274 51.1151C99.0801 51.1151 99.2296 51.1599 99.3571 51.244C100.387 51.587 99.8719 52.961 99.8719 53.82C99.0139 63.777 91.972 73.391 82.705 77.854C78.5463 79.7256 74.0461 80.719 69.486 80.772L51.975 80.6L51.4598 80.085C51.4598 76.823 51.46 73.905 51.632 70.814C51.976 70.471 52.3189 70.127 52.8319 70.299H70.514C74.0634 70.1237 77.5038 69.0157 80.4884 67.0868C83.473 65.1578 85.8963 62.4761 87.514 59.312C88.6379 56.9944 89.3355 54.4936 89.5739 51.929C89.7459 51.586 90.261 51.414 90.432 51.242L98.4979 51.244Z" fill="white"/>
<path fill-rule="evenodd" clip-rule="evenodd" d="M9.22717 51.2391C9.57117 51.0671 9.74208 51.2391 10.0851 51.4111C10.9431 52.0981 10.4291 53.4721 10.7721 54.3301C11.8021 61.0301 17.983 67.5481 24.506 69.2651C25.9604 69.6738 27.4591 69.9045 28.9691 69.952H48.369C48.5271 69.8662 48.7043 69.8213 48.8842 69.8213C49.064 69.8213 49.2409 69.8662 49.399 69.952L49.9142 70.639L49.7421 77.163C49.7421 78.193 50.4292 79.738 49.2272 80.425L27.4271 80.597C21.9248 80.0419 16.6749 78.0099 12.2325 74.7161C7.79023 71.4222 4.32063 66.9888 2.19104 61.8851C0.89953 58.6605 0.201581 55.2289 0.130981 51.756C0.302981 51.584 0.645993 51.241 0.817993 51.241L9.22717 51.2391Z" fill="white"/>
<path fill-rule="evenodd" clip-rule="evenodd" d="M72.4039 20.174C83.3919 20.861 94.378 29.101 97.984 39.745C99.1631 42.8108 99.7459 46.0736 99.701 49.358L99.014 49.873L90.9449 49.701C90.8176 49.7849 90.6685 49.8296 90.516 49.8296C90.3635 49.8296 90.2144 49.7849 90.087 49.701C88.887 49.014 89.4 47.469 89.057 46.439C87.857 39.744 81.8471 33.049 75.3231 31.332C73.8687 30.9232 72.37 30.6925 70.86 30.645L56.0961 30.473L52.3199 30.645C52.0131 30.5099 51.768 30.2648 51.6329 29.958V20.688L52.3199 20.001L72.4061 20.173L72.4039 20.174Z" fill="white"/>
<path fill-rule="evenodd" clip-rule="evenodd" d="M49.3991 20.174C50.4291 20.517 49.743 21.891 49.914 22.749C49.743 25.149 49.9141 27.727 49.7431 30.131C49.2281 31.161 48.0259 30.646 47.1679 30.646L29.829 30.474C26.1931 30.5638 22.652 31.6524 19.5936 33.6206C16.5353 35.5889 14.0777 38.3609 12.4899 41.633C11.3656 44.0104 10.6685 46.567 10.4301 49.186C10.3138 49.3498 10.159 49.4824 9.97939 49.5722C9.79976 49.662 9.6008 49.7063 9.40004 49.701H1.84096C1.65224 49.7856 1.44767 49.8293 1.24086 49.8293C1.03406 49.8293 0.829731 49.7856 0.641011 49.701C-0.388989 49.186 0.125874 47.813 0.125874 46.954C0.812874 36.139 9.56794 25.154 20.0399 21.718C22.8167 20.7846 25.7008 20.2077 28.6229 20.001L49.3949 20.173L49.3991 20.174Z" fill="white"/>
</g>
<defs>
<clipPath id="clip0_119_1026">
<rect width="100" height="100" fill="white"/>
</clipPath>
</defs>
</svg>
