<svg width="100" height="100" viewBox="0 0 100 100" fill="none" xmlns="http://www.w3.org/2000/svg">
<g clip-path="url(#clip0_119_1056)">
<path d="M23.906 38.569V63.169H1.56909V38.569H23.906ZM24.4751 38H0.998047V63.746H24.473V38H24.4751Z" fill="white"/>
<path fill-rule="evenodd" clip-rule="evenodd" d="M16.807 41.365L4.13 48.016L7.03003 50.833L1.71008 53.65L8.83008 60.379L21.4301 53.65L18.457 50.833L23.8571 48.016L16.8151 41.365H16.807ZM11.6421 53.649L8.66907 50.832L13.9901 48.015L16.9641 50.832L11.6431 53.649H11.6421Z" fill="white"/>
<path d="M43.3322 54.432H48.6532L51.0792 50.207H45.8322L43.3322 54.432Z" fill="white"/>
<path d="M83.4731 54.432H88.7942L91.2192 50.207H85.9761L83.4731 54.432Z" fill="white"/>
<path d="M24.4751 38V63.746H101.003V38H24.4751ZM96.3051 50.6L93.3322 55.687C92.9716 56.2788 92.466 56.7689 91.8634 57.1112C91.2608 57.4534 90.581 57.6365 89.8881 57.643H80.264C79.9703 57.6302 79.682 57.5589 79.4161 57.4334C79.1503 57.3079 78.9121 57.1307 78.7155 56.9121C78.5188 56.6935 78.3679 56.4379 78.2711 56.1602C78.1744 55.8826 78.134 55.5885 78.1522 55.295V54.904C77.8695 55.6977 77.3501 56.3856 76.6644 56.8752C75.9787 57.3648 75.1595 57.6324 74.317 57.642H69.703C69.4092 57.6291 69.121 57.5579 68.8551 57.4324C68.5892 57.3069 68.3509 57.1297 68.1542 56.9111C67.9575 56.6926 67.8062 56.437 67.7094 56.1593C67.6125 55.8817 67.5721 55.5875 67.5902 55.294C67.5724 54.8553 67.681 54.4207 67.9032 54.042L70.1732 50.208H64.8512L62.4252 54.433H66.338C66.1424 55.3303 65.6498 56.1352 64.9396 56.7175C64.2294 57.2997 63.3434 57.6251 62.4252 57.641H59.139C58.8452 57.6283 58.5569 57.5571 58.2909 57.4317C58.0248 57.3062 57.7863 57.1291 57.5895 56.9105C57.3927 56.6919 57.2416 56.4362 57.1447 56.1585C57.0477 55.8808 57.0069 55.5866 57.025 55.293C57.0073 54.8543 57.1159 54.4197 57.338 54.041L59.6071 50.207H56.3202C56.2422 50.364 56.2422 50.52 56.1642 50.676L53.191 55.684C52.8141 56.2782 52.2943 56.7686 51.6791 57.1102C51.0639 57.4519 50.3728 57.634 49.6691 57.64H40.045C39.7514 57.627 39.4632 57.5557 39.1974 57.4301C38.9316 57.3046 38.6934 57.1273 38.4968 56.9088C38.3002 56.6902 38.1492 56.4347 38.0524 56.1571C37.9556 55.8795 37.915 55.5854 37.9331 55.292V55.057C37.6466 55.8202 37.1329 56.477 36.4612 56.9389C35.7895 57.4008 34.9923 57.6455 34.1771 57.64H30.8911C30.5973 57.6271 30.309 57.5559 30.0431 57.4304C29.7772 57.3049 29.5389 57.1277 29.3422 56.9091C29.1455 56.6906 28.9943 56.435 28.8975 56.1573C28.8006 55.8797 28.76 55.5855 28.7781 55.292C28.7607 54.8784 28.8695 54.4693 29.0901 54.119L33.2382 46.998H31.6731L33.394 44.103H40.2802L34.1801 54.431H38.092C38.17 54.275 38.1701 54.197 38.2491 54.04L41.222 49.032C41.5731 48.426 42.0744 47.9205 42.6774 47.5643C43.2804 47.208 43.9649 47.013 44.6652 46.998H54.3651C54.6588 47.011 54.9469 47.0824 55.2128 47.2079C55.4786 47.3334 55.7169 47.5106 55.9135 47.7292C56.1101 47.9478 56.261 48.2033 56.3578 48.4809C56.4546 48.7585 56.4953 49.0526 56.4772 49.346V49.659L58.0421 46.998H61.5641L63.2072 44.103H68.5282L66.8031 46.998H72.045L73.766 44.103H79.087L77.3661 46.998H80.8871L78.9301 50.206H75.4091L72.983 54.431H78.3041C78.3041 54.275 78.3821 54.197 78.4601 54.04L81.4342 49.032C81.7613 48.4225 82.246 47.9121 82.838 47.5543C83.43 47.1964 84.1075 47.0043 84.7992 46.998H94.4991C95.1006 47.0202 95.6686 47.2796 96.0792 47.7197C96.4898 48.1597 96.7095 48.7445 96.6901 49.346C96.6931 49.7929 96.558 50.2299 96.3031 50.597L96.3051 50.6Z" fill="white"/>
</g>
<defs>
<clipPath id="clip0_119_1056">
<rect width="100" height="100" fill="white"/>
</clipPath>
</defs>
</svg>
