<svg width="100" height="100" viewBox="0 0 100 100" fill="none" xmlns="http://www.w3.org/2000/svg">
<g clip-path="url(#clip0_119_1130)">
<path d="M-0.00195312 77.498V68.142H2.07202V68.95C2.39817 68.5956 2.79395 68.3123 3.23462 68.1178C3.67529 67.9234 4.1514 67.822 4.63306 67.82C5.16662 67.8272 5.69268 67.9467 6.177 68.1706C6.66132 68.3946 7.09308 68.7181 7.44409 69.12C8.09553 70.0991 8.39935 71.2686 8.30701 72.441V77.497H6.06702V72.878C6.06702 72.104 6.06708 69.878 4.17908 69.878C3.87639 69.8843 3.57943 69.962 3.3125 70.1049C3.04557 70.2477 2.81621 70.4516 2.64307 70.7C2.29524 71.4296 2.15508 72.241 2.23804 73.045V77.495H-0.00195312M11.167 72.017H16.338C16.2616 71.4051 15.9618 70.8429 15.4961 70.4387C15.0304 70.0344 14.4317 69.8166 13.8151 69.827C13.1883 69.8287 12.5816 70.0481 12.0986 70.4475C11.6157 70.8469 11.2863 71.4017 11.167 72.017M11.234 73.817C11.3977 74.3739 11.738 74.8624 12.2035 75.2091C12.669 75.5558 13.2346 75.7417 13.8151 75.739C14.2504 75.7646 14.6839 75.666 15.0653 75.4546C15.4467 75.2432 15.7601 74.9277 15.969 74.545H18.3311C18.0022 75.4842 17.3927 76.2998 16.5852 76.8814C15.7777 77.4631 14.8111 77.7827 13.816 77.797C13.1651 77.8001 12.5199 77.6739 11.9181 77.4257C11.3163 77.1775 10.7697 76.8124 10.3101 76.3513C9.85044 75.8903 9.48694 75.3426 9.2406 74.7401C8.99426 74.1375 8.86996 73.492 8.875 72.841C8.86402 72.1843 8.98275 71.5319 9.22424 70.9212C9.46574 70.3104 9.82525 69.7533 10.2823 69.2817C10.7395 68.8101 11.2851 68.4333 11.8881 68.1729C12.491 67.9125 13.1393 67.7735 13.796 67.764C15.0879 67.785 16.3198 68.3135 17.2252 69.2352C18.1307 70.1569 18.637 71.3979 18.635 72.69C18.6302 73.0694 18.5849 73.4472 18.5 73.817H11.234ZM21.51 77.493H22.891L24.6631 71.425H24.6941L26.448 77.493H27.8311L31.2521 68.137H28.859L27.1381 73.851H27.1051L25.588 68.137H23.7981L22.264 73.851H22.2301L20.53 68.137H18.1381L21.51 77.493ZM37.692 72.693C37.664 73.0811 37.7159 73.4709 37.8445 73.8382C37.9731 74.2055 38.1757 74.5425 38.4397 74.8284C38.7037 75.1143 39.0236 75.3429 39.3795 75.5002C39.7355 75.6576 40.1199 75.7402 40.509 75.743C41.2467 75.6811 41.934 75.3433 42.4336 74.797C42.9332 74.2507 43.2084 73.536 43.2042 72.7957C43.2001 72.0555 42.9168 71.3439 42.4111 70.8033C41.9054 70.2626 41.2144 69.9326 40.4761 69.879C39.7338 69.8832 39.0236 70.182 38.5016 70.7097C37.9795 71.2374 37.6883 71.9507 37.692 72.693M35.592 65.021H37.832V68.987C38.614 68.2308 39.6613 67.8115 40.749 67.819C42.0293 67.8541 43.2433 68.3958 44.1245 69.3252C45.0057 70.2546 45.4822 71.4957 45.4491 72.776C45.4491 74.649 44.215 77.798 40.797 77.798C40.1952 77.8286 39.5949 77.7146 39.0461 77.4657C38.4974 77.2167 38.0164 76.84 37.6431 76.367V77.497H35.589L35.592 65.021ZM53.792 72.796C53.8171 72.422 53.7651 72.0467 53.639 71.6937C53.513 71.3406 53.3156 71.0173 53.0593 70.7437C52.803 70.4701 52.4932 70.2522 52.149 70.1035C51.8049 69.9547 51.434 69.8783 51.0591 69.879C50.6791 69.8864 50.3045 69.9701 49.9574 70.125C49.6103 70.2799 49.2978 70.5029 49.0386 70.7809C48.7793 71.0588 48.5785 71.3859 48.448 71.7429C48.3175 72.0999 48.2601 72.4794 48.2791 72.859C48.268 73.2319 48.3316 73.6033 48.4661 73.9514C48.6006 74.2994 48.8033 74.6171 49.0623 74.8856C49.3212 75.1542 49.6313 75.3683 49.9742 75.5154C50.3172 75.6625 50.686 75.7395 51.0591 75.742C51.4358 75.7399 51.808 75.6606 52.1528 75.509C52.4976 75.3573 52.8077 75.1366 53.0638 74.8604C53.32 74.5842 53.5167 74.2584 53.642 73.9032C53.7672 73.5479 53.8182 73.1708 53.792 72.795M55.916 77.495H53.8571V76.337C53.4363 76.7857 52.9305 77.1463 52.3691 77.3978C51.8078 77.6493 51.202 77.7867 50.587 77.802C48.177 77.802 46.0381 75.88 46.0381 72.762C46.0091 72.1268 46.1086 71.4923 46.3306 70.8965C46.5526 70.3007 46.8925 69.7558 47.33 69.2944C47.7674 68.833 48.2935 68.4646 48.8767 68.2113C49.4599 67.9579 50.0882 67.8248 50.724 67.82C51.3205 67.8231 51.9087 67.9601 52.4452 68.2207C52.9817 68.4814 53.4529 68.8591 53.8241 69.326H53.8561V68.142H55.915L55.916 77.495ZM59.348 65.023H57.1061V77.498H59.348V65.023ZM67.774 72.798C67.7994 72.4241 67.7476 72.0491 67.6218 71.6961C67.4961 71.3431 67.299 71.0198 67.043 70.7462C66.7869 70.4726 66.4773 70.2546 66.1334 70.1058C65.7895 69.9569 65.4188 69.8804 65.0441 69.881C64.6641 69.8886 64.2894 69.9723 63.9424 70.1273C63.5953 70.2822 63.2829 70.5052 63.0236 70.7831C62.7642 71.061 62.5634 71.388 62.4327 71.745C62.3021 72.1019 62.2444 72.4814 62.2631 72.861C62.252 73.234 62.3156 73.6055 62.4502 73.9536C62.5848 74.3017 62.7875 74.6194 63.0466 74.888C63.3057 75.1566 63.6158 75.3707 63.9589 75.5177C64.3019 75.6647 64.6709 75.7416 65.0441 75.744C65.4206 75.7418 65.7926 75.6624 66.1372 75.5107C66.4818 75.3589 66.7916 75.1382 67.0475 74.8619C67.3034 74.5857 67.4999 74.26 67.6249 73.9048C67.7498 73.5496 67.8006 73.1726 67.774 72.797M69.8981 77.497H67.8411V76.337C67.4202 76.7855 66.9144 77.146 66.353 77.3975C65.7917 77.649 65.186 77.7865 64.571 77.802C62.16 77.802 60.021 75.88 60.021 72.762C59.9921 72.1267 60.0916 71.492 60.3137 70.8961C60.5358 70.3001 60.876 69.7551 61.3137 69.2937C61.7514 68.8322 62.2777 68.4639 62.8611 68.2107C63.4445 67.9575 64.0731 67.8246 64.7091 67.82C65.3056 67.8227 65.8938 67.9595 66.4304 68.2201C66.967 68.4808 67.4382 68.8588 67.8091 69.326H67.843V68.142H69.9L69.8981 77.497ZM71.092 77.497H73.3311V73.047C73.2481 72.243 73.3883 71.4316 73.7361 70.702C73.9094 70.454 74.1386 70.2503 74.4053 70.1075C74.672 69.9647 74.9685 69.8868 75.271 69.88C77.159 69.88 77.1591 72.104 77.1591 72.88V77.499H79.4021V72.443C79.4947 71.2704 79.1904 70.1008 78.5381 69.122C78.187 68.72 77.755 68.3964 77.2705 68.1724C76.786 67.9484 76.2598 67.829 75.7261 67.822C75.2444 67.824 74.7683 67.9254 74.3276 68.1198C73.887 68.3143 73.4912 68.5976 73.165 68.952V68.144H71.092V77.5M87.365 74.448C87.1678 74.8307 86.8714 75.1533 86.5067 75.382C86.142 75.6107 85.7224 75.7372 85.292 75.748C84.9117 75.7505 84.535 75.6754 84.1847 75.5275C83.8344 75.3796 83.5179 75.1618 83.2545 74.8876C82.9911 74.6133 82.7864 74.2883 82.6527 73.9323C82.519 73.5763 82.4593 73.1968 82.4771 72.817C82.4486 72.4432 82.4975 72.0676 82.6208 71.7136C82.7442 71.3596 82.9392 71.0348 83.1937 70.7596C83.4483 70.4845 83.7569 70.2647 84.1002 70.1142C84.4435 69.9637 84.8142 69.8857 85.1891 69.885C85.6454 69.8737 86.0948 69.9968 86.4817 70.239C86.8686 70.4811 87.1757 70.8317 87.365 71.247H89.896C89.5794 70.249 88.9519 69.3785 88.1052 68.7626C87.2585 68.1468 86.237 67.8179 85.1901 67.824C83.8666 67.8267 82.5985 68.3549 81.6646 69.2926C80.7306 70.2303 80.2074 71.5006 80.2101 72.824C80.2127 74.1474 80.741 75.4156 81.6787 76.3495C82.6164 77.2835 83.8867 77.8067 85.2101 77.804C86.2474 77.8203 87.2626 77.5033 88.1063 76.8995C88.95 76.2957 89.5778 75.4371 89.8971 74.45H87.3661M92.535 72.024H97.707C97.6306 71.4114 97.3301 70.8487 96.8635 70.4443C96.397 70.04 95.7973 69.8226 95.1801 69.834C94.554 69.8372 93.9484 70.0571 93.4662 70.4564C92.984 70.8556 92.655 71.4096 92.535 72.024M92.604 73.824C92.7654 74.3812 93.1045 74.8705 93.5695 75.2174C94.0344 75.5644 94.5999 75.75 95.1801 75.746C95.6158 75.7722 96.05 75.6739 96.432 75.4624C96.814 75.251 97.1279 74.9352 97.337 74.552H99.698C99.3691 75.4918 98.7593 76.3078 97.9512 76.8895C97.143 77.4711 96.1757 77.7904 95.1801 77.804C94.5292 77.8068 93.8843 77.6804 93.2826 77.4321C92.6809 77.1839 92.1345 76.8187 91.675 76.3577C91.2156 75.8967 90.8522 75.3491 90.6058 74.7467C90.3595 74.1442 90.2351 73.4988 90.24 72.848C90.2298 72.1914 90.3491 71.5393 90.5909 70.9289C90.8328 70.3184 91.1925 69.7615 91.6495 69.2901C92.1066 68.8186 92.6521 68.4418 93.2548 68.1812C93.8574 67.9206 94.5054 67.7812 95.162 67.771C96.4538 67.7918 97.6855 68.3202 98.5907 69.2421C99.4959 70.1639 100.002 71.405 99.999 72.697C99.9954 73.0764 99.9504 73.4543 99.865 73.824H92.604ZM51.771 35.713L62.697 36.421L62.276 37.147L24.998 39.568L23.339 42.447L57.9711 44.631L57.5531 45.357L38.276 46.482L39.7361 51.95L53.2821 52.778L52.859 53.507L40.369 54.386L41.5431 59.001L65.3921 58.991C71.1331 58.991 81.455 55.191 82.655 47.219C82.7732 46.4801 82.7415 45.725 82.5619 44.9985C82.3823 44.2721 82.0585 43.5892 81.6096 42.9904C81.1608 42.3917 80.5961 41.8893 79.9492 41.5132C79.3023 41.1371 78.5864 40.8949 77.844 40.801C85.25 38.713 87.775 33.733 88.312 31.755C90.096 25.223 85.501 23.003 79.291 23.003H59.0911L56.545 27.427L67.4351 28.187L67.026 28.92L55.2521 29.675L51.7721 35.712M71.323 30.044H74.6591C76.0961 30.044 77.1791 31.72 76.3721 33.694C75.4971 35.822 73.107 36.871 70.812 36.883L67.3671 36.904L71.323 30.044ZM67.3511 43.783C68.5511 43.783 70.2681 45.033 69.3311 47.454C68.3241 50.062 65.044 50.975 63.213 50.975H59.2621L63.411 43.785L67.3511 43.783ZM15.4651 56.131L13.802 59.009L30.938 58.994L33.328 54.878L15.4651 56.131ZM32.8831 25.883L49.354 26.915L48.3141 23.015L34.5431 23.006L32.8831 25.883ZM29.7721 31.283L28.115 34.162L51.6431 35.71L50.1431 30L29.7721 31.283ZM20.233 47.846L18.5741 50.729L35.155 51.658L38.155 46.487L20.233 47.846Z" fill="white"/>
</g>
<defs>
<clipPath id="clip0_119_1130">
<rect width="100" height="100" fill="white"/>
</clipPath>
</defs>
</svg>
