<svg width="100" height="100" viewBox="0 0 100 100" fill="none" xmlns="http://www.w3.org/2000/svg">
<g clip-path="url(#clip0_119_1141)">
<path fill-rule="evenodd" clip-rule="evenodd" d="M50.9829 49.1399C52.8769 52.3499 58.52 54.6109 65.235 55.5529C74.607 56.7759 84.735 56.661 94.417 51.828C105.752 46.169 103.65 36.291 78.617 35.828C77.173 31.07 69.1829 27.8879 57.0549 28.0039C54.9259 28.0309 52.903 28.1329 50.984 28.3269C42.502 29.1639 35.956 31.6519 30.85 35.7879C22.936 35.6489 13.578 37.451 8.57802 39.695C-5.22198 45.92 -0.13699 56.117 23.594 56.117C32.061 56.117 42.18 53.9629 49.013 48.4719H50.648C50.7412 48.7042 50.8536 48.9283 50.984 49.1419L50.9829 49.1399ZM37.7429 35.893C40.6809 32.646 48.119 31.8259 55.272 31.6699C70.418 31.3629 76.384 35.8829 70.25 40.5499C68.4277 41.7049 66.423 42.543 64.3209 43.0289C61.8049 43.7969 61.7689 44.277 60.9419 45.578C60.3619 46.442 61.483 47.065 62.708 46.755C68.699 46.647 75.932 42.1419 77.685 39.2919C82.053 39.1907 86.4174 39.613 90.685 40.5499C96.861 42.0199 98.439 46.0819 88.064 49.8839C81.092 52.4479 72.7419 52.708 65.3309 51.354C55.5109 49.654 54.216 45.032 61.267 41.914C63.6244 40.8915 66.0951 40.153 68.627 39.7139C70.805 39.3399 68.442 36.99 65.281 37.414C56.534 38.575 52.781 41.714 51.481 44.875C46.3832 45.2722 41.2774 44.2123 36.7589 41.8189C35.2729 40.9799 34.0759 40.7509 30.8529 40.6369C29.1629 40.5719 29.0239 40.9189 29.8729 42.0369C33.5343 45.0651 37.9508 47.0396 42.6489 47.7489C38.7549 50.4279 33.518 52.3239 24.909 52.3239C7.06895 52.3239 2.33392 46.4939 12.7489 42.2929C17.5878 40.3287 22.7492 39.2793 27.971 39.198C33.4623 38.8054 38.9624 39.8312 43.943 42.177C45.443 42.939 46.387 42.6829 48.543 42.7609C50.656 42.8369 50.8759 42.4369 49.5089 41.0979C45.9909 37.6979 42.133 36.8719 37.752 35.8919L37.7429 35.893ZM16.06 59.5619H19.8419L16.8579 70.6789H21.6489L20.9559 73.2099H12.383L16.059 59.5619H16.06ZM22.497 73.2099L24.0199 67.5889L22.287 59.5619H26.007L26.854 64.3379L30.2279 59.5619H33.86L27.771 67.6049L26.325 73.2099H22.497ZM49.934 59.5619L46.304 73.2099H43.0499L45.5659 63.568L40.3519 73.2099H37.324L37.5349 63.643L34.958 73.2099H31.146L34.792 59.5619H40.0919L40.1389 67.7569L44.5969 59.5619H49.934ZM59.458 73.2099H63.345L66.9299 59.5619H63.0869L59.459 73.2099H59.458ZM64.836 73.2099H68.693L70.32 67.034L72.037 73.2099H75.819L73.9509 65.7529L79.1189 59.5619H75.3059L70.877 64.9539L72.325 59.5619H68.4509L64.836 73.2099V73.2099ZM79.949 59.5619L77.386 69.443C76.574 72.608 78.758 73.4359 81.724 73.4359C84.362 73.4359 87.134 72.636 87.948 69.443L90.5249 59.5619H86.819L84.21 69.443C83.851 70.843 83.291 71.237 82.329 71.237C80.941 71.237 80.822 70.6369 81.153 69.0659L83.6399 59.5659L79.949 59.5619ZM92.7489 69.805C92.6489 70.587 92.9749 71.1749 93.7589 71.1749C94.1072 71.2073 94.4566 71.1266 94.7554 70.9448C95.0542 70.7631 95.2865 70.49 95.418 70.1659C96.427 67.8309 91.184 66.9859 91.033 64.0799C90.9386 63.06 91.2461 62.0436 91.8899 61.247C92.9899 59.786 94.59 59.2869 96.729 59.2869C99.847 59.2869 101.219 60.9299 100.901 62.4369L100.645 63.5659H97.2699C97.5259 62.5879 97.7229 61.547 96.1699 61.547C95.9201 61.5302 95.6709 61.5868 95.4528 61.7097C95.2347 61.8326 95.0571 62.0165 94.942 62.2388C94.8269 62.4612 94.7793 62.7123 94.8048 62.9614C94.8304 63.2104 94.9281 63.4466 95.086 63.6409C96.2009 64.4888 97.2623 65.4048 98.2639 66.3839C98.7107 66.8045 99.0224 67.3484 99.1593 67.9465C99.2962 68.5446 99.2523 69.1699 99.033 69.7429C98.039 73.4939 94.7839 73.4489 93.2179 73.4489C90.9109 73.4489 88.894 72.8759 89.09 70.4049C89.1646 69.8449 89.2799 69.2912 89.435 68.7479H92.9299L92.75 69.8029L92.7489 69.805ZM7.36696 59.2589C8.03103 59.1201 8.70758 59.0494 9.386 59.0479C12.098 59.0479 14.326 60.1629 13.559 62.9649L11.7949 69.443C11.5444 70.4641 10.9845 71.3829 10.1917 72.0736C9.39882 72.7642 8.41188 73.1929 7.36598 73.3009C6.77875 73.3979 6.18415 73.4431 5.58901 73.4359C2.58901 73.4359 0.374951 72.636 1.23195 69.443L2.98 62.9649C3.29208 61.9993 3.86828 61.1403 4.64345 60.4853C5.41862 59.8303 6.36178 59.4055 7.36598 59.2589H7.36696ZM7.36696 70.8869C7.74826 70.4739 8.00879 69.964 8.12001 69.4129L9.71999 63.357C10.158 61.714 9.43495 61.3509 8.72695 61.3509C8.22714 61.335 7.74084 61.5144 7.37099 61.8509C7.05397 62.1486 6.83813 62.5382 6.75392 62.9649L5.08095 69.065C4.80995 70.165 4.54 71.2049 6.105 71.2359C6.55602 71.2811 7.00767 71.1566 7.37197 70.8869H7.36696ZM55.367 59.5609H56.558C60.475 59.5609 61.2889 61.4609 60.7909 63.6419C60.2639 65.9779 59.104 67.4419 55.367 67.8419C54.5692 67.9168 53.7681 67.9501 52.9669 67.9419L51.5669 73.1989H47.667L51.313 59.5509L55.367 59.5609ZM55.367 65.5709C55.7926 65.4805 56.1801 65.2613 56.4769 64.9431C56.7737 64.6248 56.9655 64.2229 57.026 63.792C57.462 62.15 56.799 61.805 55.367 61.805L54.5669 61.8339L53.5869 65.6339C54.1796 65.6926 54.7775 65.6727 55.365 65.5749L55.367 65.5709Z" fill="white"/>
</g>
<defs>
<clipPath id="clip0_119_1141">
<rect width="100" height="100" fill="white"/>
</clipPath>
</defs>
</svg>
