<svg width="100" height="100" viewBox="0 0 100 100" fill="none" xmlns="http://www.w3.org/2000/svg">
<g clip-path="url(#clip0_119_1013)">
<path fill-rule="evenodd" clip-rule="evenodd" d="M42.651 58.276C42.72 58.2789 42.7878 58.2944 42.8511 58.322C42.8993 58.3456 42.942 58.379 42.9764 58.4202C43.0109 58.4614 43.0363 58.5094 43.051 58.561C43.0649 58.5967 43.0717 58.6347 43.0711 58.673C43.0704 58.753 43.0468 58.8311 43.003 58.898C42.987 58.9263 42.969 58.9534 42.949 58.979L35.064 66.721C34.7254 67.0267 34.4665 67.4105 34.31 67.839L34.271 67.99C34.2641 68.0057 34.2591 68.0221 34.2561 68.039L34.249 68.061C34.2039 68.2177 34.1998 68.3833 34.237 68.542C34.254 68.6101 34.2846 68.6741 34.327 68.73C34.3671 68.7846 34.4183 68.83 34.4773 68.8632C34.5363 68.8965 34.6016 68.9169 34.669 68.923C34.6853 68.9255 34.7018 68.9255 34.7181 68.923H43.7781C43.8614 68.9184 43.944 68.906 44.025 68.886C44.19 68.8402 44.3409 68.754 44.4641 68.635C44.587 68.5221 44.6737 68.3752 44.7131 68.213C44.7286 68.1448 44.736 68.075 44.7351 68.005C44.7308 67.8963 44.7044 67.7895 44.6574 67.6913C44.6105 67.5932 44.544 67.5056 44.462 67.434C44.2841 67.287 44.0608 67.2061 43.8301 67.205H43.818C43.8017 67.2038 43.7854 67.2038 43.7691 67.205H39.143C39.0822 67.2012 39.0225 67.1863 38.967 67.161C38.87 67.1123 38.7963 67.027 38.762 66.924C38.7514 66.8883 38.7463 66.8512 38.747 66.814C38.7478 66.7321 38.7706 66.652 38.8131 66.582C38.83 66.5556 38.8498 66.5311 38.872 66.509L46.999 58.209C47.245 57.9517 47.4332 57.6449 47.551 57.309C47.573 57.1848 47.569 57.0575 47.539 56.935C47.5211 56.8697 47.4924 56.8078 47.454 56.752C47.4146 56.6962 47.3636 56.6495 47.3046 56.615C47.2457 56.5806 47.18 56.5591 47.112 56.552C47.0941 56.5496 47.076 56.5496 47.0581 56.552H38.2781C38.1861 56.5541 38.0949 56.5689 38.0071 56.596C37.8437 56.6379 37.6938 56.7213 37.572 56.838C37.4514 56.9499 37.3651 57.0939 37.323 57.253C37.3013 57.3259 37.2931 57.4022 37.299 57.478C37.3011 57.5861 37.3265 57.6926 37.3736 57.7899C37.4208 57.8873 37.4884 57.9733 37.572 58.042C37.7446 58.1938 37.9672 58.2764 38.197 58.274H42.65L42.651 58.276ZM50.5801 55.442C50.5695 55.4437 50.5586 55.4437 50.548 55.442H50.538C50.3089 55.4419 50.0871 55.3616 49.911 55.215C49.8286 55.1437 49.7615 55.0562 49.7141 54.958C49.6666 54.8598 49.6397 54.7529 49.635 54.644C49.6328 54.5681 49.642 54.4922 49.6621 54.419C49.7049 54.2603 49.792 54.1171 49.913 54.006C50.0346 53.8901 50.183 53.8063 50.345 53.762C50.434 53.7374 50.5258 53.725 50.618 53.725H50.63C50.643 53.724 50.6561 53.724 50.669 53.725H51.904C51.9187 53.7238 51.9334 53.7238 51.948 53.725H51.96C52.018 53.7262 52.0758 53.7312 52.133 53.74C52.1452 53.7372 52.1579 53.7372 52.1701 53.74H52.185C52.4158 53.7391 52.6396 53.8195 52.8171 53.967C52.8996 54.0383 52.9666 54.1258 53.014 54.224C53.0615 54.3222 53.0884 54.429 53.0931 54.538C53.0949 54.6144 53.0868 54.6907 53.069 54.765C53.0206 54.921 52.9332 55.0621 52.815 55.175C52.6942 55.2908 52.5464 55.3747 52.385 55.419C52.295 55.4431 52.2023 55.4556 52.109 55.456H52.0971C52.0891 55.4555 52.081 55.4555 52.073 55.456H50.803C50.791 55.456 50.7811 55.456 50.7691 55.456C50.7067 55.4562 50.6445 55.4512 50.583 55.441M61.75 53.741C61.8199 53.7274 61.8909 53.72 61.962 53.719H61.9771C61.99 53.7178 62.0031 53.7178 62.016 53.719H63.254C63.267 53.7177 63.2801 53.7177 63.293 53.719H63.3081C63.5368 53.7178 63.7584 53.7983 63.9331 53.946C64.0168 54.0159 64.0848 54.1028 64.1327 54.2008C64.1806 54.2989 64.2073 54.4059 64.211 54.515C64.2129 54.592 64.2049 54.669 64.187 54.744C64.1421 54.9016 64.0541 55.0435 63.9331 55.154C63.8122 55.2714 63.6636 55.3564 63.501 55.401C63.44 55.416 63.379 55.425 63.318 55.435C63.2454 55.4477 63.1718 55.4544 63.098 55.455H63.086C63.076 55.455 63.066 55.455 63.059 55.455H61.794C61.782 55.455 61.7721 55.455 61.7651 55.455H61.758C61.5263 55.456 61.3016 55.3756 61.1231 55.228C61.0415 55.1562 60.9753 55.0686 60.9287 54.9704C60.8822 54.8722 60.8561 54.7656 60.8521 54.657C60.848 54.5805 60.856 54.5039 60.876 54.43C60.9193 54.2716 61.0075 54.1292 61.13 54.02C61.2495 53.9028 61.3973 53.8188 61.559 53.776C61.6211 53.7586 61.6847 53.7472 61.749 53.742M83.289 62.255H85.161C85.41 62.255 85.632 62.255 85.835 62.235C86.038 62.215 86.206 62.201 86.355 62.176C86.491 62.1543 86.6248 62.1208 86.755 62.076C86.8551 62.0442 86.951 62.0009 87.0411 61.947C87.1178 61.9006 87.1889 61.8456 87.253 61.783C87.3152 61.72 87.3693 61.6494 87.414 61.573C87.4689 61.4744 87.5177 61.3726 87.56 61.268C87.606 61.156 87.648 61.024 87.689 60.887L88.0021 59.72C88.0387 59.5857 88.0681 59.4495 88.09 59.312C88.11 59.2049 88.1174 59.0958 88.112 58.987C88.1134 58.9093 88.0991 58.8321 88.07 58.76C88.042 58.6925 88.0013 58.6311 87.9501 58.579C87.8878 58.5237 87.8168 58.4791 87.74 58.447H87.733C87.6261 58.404 87.5148 58.3728 87.401 58.354C87.2355 58.3271 87.0686 58.309 86.901 58.3C86.713 58.288 86.493 58.28 86.242 58.28H85.068C84.821 58.28 84.5921 58.287 84.3991 58.302C84.2061 58.317 84.026 58.336 83.872 58.363C83.7412 58.3873 83.6129 58.4242 83.4891 58.473C83.3862 58.5155 83.2894 58.5713 83.2011 58.639C83.1112 58.708 83.0323 58.7903 82.967 58.883C82.8833 58.9911 82.8106 59.1074 82.75 59.23C82.684 59.372 82.6181 59.535 82.5501 59.718C82.4821 59.901 82.416 60.118 82.35 60.348L81.0501 65.14C80.9891 65.369 80.94 65.579 80.906 65.772C80.8738 65.9331 80.8517 66.0961 80.84 66.26C80.8309 66.3769 80.839 66.4945 80.8641 66.609C80.8801 66.6961 80.9168 66.778 80.971 66.848C81.024 66.9186 81.0924 66.976 81.1711 67.016C81.2724 67.0676 81.381 67.1036 81.493 67.123C81.656 67.1534 81.8206 67.1737 81.986 67.184C82.179 67.199 82.396 67.206 82.65 67.206H86.9251C86.938 67.2046 86.9511 67.2046 86.9641 67.206H86.9811C87.2085 67.2032 87.4292 67.2839 87.6011 67.433C87.6852 67.5018 87.7535 67.588 87.8012 67.6857C87.8488 67.7834 87.8747 67.8903 87.8771 67.999C87.8806 68.074 87.8714 68.149 87.85 68.221C87.8102 68.3809 87.7226 68.525 87.599 68.634C87.4779 68.749 87.3302 68.8321 87.169 68.876C87.0844 68.8982 86.9975 68.9106 86.91 68.913C86.8851 68.9194 86.8597 68.9234 86.8341 68.925H81.1751C80.791 68.927 80.4072 68.9089 80.025 68.871C79.7184 68.8445 79.414 68.7963 79.1141 68.727C78.8707 68.6642 78.6357 68.5726 78.414 68.454C78.2219 68.3462 78.05 68.2057 77.906 68.039C77.7718 67.8758 77.67 67.6884 77.6061 67.487C77.5352 67.2671 77.5014 67.037 77.5061 66.806C77.5098 66.5378 77.5342 66.2704 77.579 66.006C77.6351 65.6852 77.7075 65.3674 77.7961 65.054L79.048 60.43C79.141 60.088 79.241 59.773 79.348 59.488C79.4518 59.2145 79.5717 58.9473 79.707 58.688C79.8366 58.441 79.9947 58.2101 80.178 58C80.3537 57.7891 80.5553 57.6013 80.7781 57.441C81.0057 57.2773 81.2504 57.1388 81.508 57.028C81.7815 56.9093 82.0663 56.8185 82.358 56.757C82.6846 56.684 83.0157 56.6326 83.349 56.603V56.603C83.713 56.574 84.103 56.554 84.518 56.554H87.699C88.116 56.554 88.499 56.574 88.846 56.6C89.1526 56.6271 89.457 56.6752 89.7571 56.744C89.9979 56.7989 90.2324 56.8783 90.457 56.981C90.6478 57.0667 90.8247 57.1802 90.982 57.318C91.1197 57.4442 91.2338 57.5939 91.319 57.76C91.4005 57.9305 91.4477 58.1153 91.458 58.304C91.4747 58.5056 91.4697 58.7084 91.443 58.909C91.4128 59.1386 91.3653 59.3655 91.301 59.588L90.949 60.899C90.8852 61.131 90.8061 61.3585 90.712 61.58C90.6256 61.7895 90.5226 61.9918 90.404 62.185C90.2829 62.3853 90.1353 62.5683 89.965 62.729C89.7934 62.8994 89.6005 63.047 89.391 63.168C89.169 63.3031 88.9347 63.4166 88.691 63.507C88.422 63.6059 88.1463 63.6858 87.866 63.746C87.5386 63.8119 87.2078 63.8594 86.875 63.888C86.511 63.917 86.118 63.932 85.703 63.932H83.172C82.966 63.9144 82.7717 63.8285 82.62 63.688C82.5454 63.6203 82.4851 63.5384 82.4427 63.447C82.4003 63.3556 82.3766 63.2567 82.3731 63.156C82.3718 63.1009 82.3769 63.0459 82.388 62.992C82.4204 62.8247 82.5019 62.6708 82.622 62.55C82.745 62.4229 82.9002 62.3316 83.0711 62.286C83.1336 62.2707 83.1971 62.2593 83.2611 62.252L83.289 62.255ZM68.411 59.064L66.1401 67.431L66.003 67.931L65.954 68.119C65.9056 68.2737 65.8267 68.4172 65.7221 68.541C65.667 68.6107 65.6046 68.6744 65.536 68.731C65.4057 68.8315 65.2518 68.8969 65.0891 68.921C65.0722 68.9235 65.0549 68.9235 65.038 68.921H63.156C63.1398 68.9235 63.1233 68.9235 63.107 68.921C63.0401 68.9143 62.9752 68.894 62.9164 68.8613C62.8576 68.8286 62.8061 68.7843 62.7651 68.731C62.7248 68.6737 62.6959 68.6092 62.68 68.541C62.6455 68.3997 62.6455 68.2522 62.68 68.111L65.615 57.311C65.665 57.1738 65.7377 57.046 65.8301 56.933C65.8846 56.8641 65.9478 56.8027 66.018 56.75C66.1431 56.641 66.2976 56.5714 66.462 56.55C66.4783 56.5477 66.4948 56.5477 66.5111 56.55H73.668C74.09 56.55 74.474 56.57 74.818 56.599C75.1252 56.6265 75.4299 56.678 75.729 56.753C75.9741 56.8095 76.2098 56.9007 76.4291 57.024C76.6226 57.1298 76.7953 57.2697 76.939 57.437C77.0758 57.6011 77.1779 57.7913 77.2391 57.996C77.3101 58.2182 77.3439 58.4507 77.3391 58.684C77.3343 58.9522 77.3088 59.2197 77.263 59.484C77.214 59.77 77.143 60.084 77.055 60.426L75.155 67.426L75.0061 67.985L74.9721 68.105C74.9232 68.2624 74.8436 68.4085 74.738 68.535C74.6843 68.6059 74.6218 68.6697 74.552 68.725C74.4232 68.8261 74.2701 68.8916 74.108 68.915C74.0918 68.9172 74.0753 68.9172 74.059 68.915H72.174C72.1578 68.9175 72.1413 68.9175 72.125 68.915C72.0581 68.9083 71.9932 68.8879 71.9344 68.8553C71.8756 68.8226 71.8241 68.7783 71.7831 68.725C71.7418 68.6679 71.7119 68.6034 71.695 68.535C71.662 68.3946 71.662 68.2484 71.695 68.108L73.802 60.337C73.863 60.11 73.912 59.902 73.948 59.705C73.9821 59.5443 74.0032 59.3811 74.0111 59.217C74.0192 59.1002 74.0118 58.9829 73.9891 58.868C73.972 58.7825 73.938 58.7012 73.889 58.629C73.8348 58.5602 73.7666 58.5037 73.689 58.463C73.585 58.4129 73.4752 58.3759 73.362 58.353C73.1996 58.3235 73.0357 58.3031 72.871 58.292C72.671 58.277 72.459 58.27 72.212 58.27H69.3211C69.3056 58.2713 69.2902 58.2737 69.275 58.277C69.112 58.2991 68.9584 58.3659 68.831 58.47C68.7624 58.5256 68.6994 58.588 68.643 58.656C68.5465 58.7755 68.4714 58.9109 68.4211 59.056M54.098 68.919H52.208C52.1928 68.9212 52.1773 68.9212 52.1621 68.919C52.0949 68.9122 52.0297 68.8919 51.9706 68.8592C51.9115 68.8266 51.8596 68.7823 51.818 68.729C51.7804 68.6705 51.7524 68.6064 51.7351 68.539C51.6935 68.3555 51.7053 68.164 51.7691 67.987L51.915 67.428H51.888L55.599 53.763C55.6496 53.6184 55.724 53.4832 55.819 53.363C55.8761 53.2965 55.939 53.2352 56.0071 53.18C56.1359 53.0765 56.2904 53.0098 56.454 52.987H56.5H58.3951H58.437C58.5037 52.9944 58.5682 53.0154 58.6264 53.0485C58.6847 53.0817 58.7356 53.1264 58.776 53.18C58.8168 53.2348 58.8467 53.2969 58.8641 53.363C58.9082 53.5469 58.8963 53.7398 58.8301 53.917L58.681 54.476L54.9291 68.316C54.8866 68.3967 54.8349 68.4722 54.775 68.541C54.7213 68.6119 54.6588 68.6757 54.5891 68.731C54.4613 68.8325 54.3087 68.8981 54.147 68.921C54.1308 68.9234 54.1143 68.9234 54.098 68.921M48.544 68.921H46.6621C46.6458 68.9235 46.6293 68.9235 46.613 68.921C46.5459 68.914 46.4808 68.8932 46.422 68.86C46.3632 68.8268 46.3118 68.7819 46.271 68.728C46.2286 68.6721 46.198 68.6081 46.181 68.54C46.1504 68.4034 46.1504 68.2616 46.181 68.125L48.918 58.049L48.999 57.741L49.1061 57.355C49.157 57.2034 49.233 57.0614 49.331 56.935C49.3875 56.8673 49.4512 56.8059 49.521 56.752C49.6466 56.6438 49.8008 56.5743 49.965 56.552C49.982 56.5497 49.9991 56.5497 50.016 56.552H51.898C51.9143 56.5494 51.9308 56.5494 51.947 56.552C52.0148 56.5582 52.0803 56.5794 52.139 56.614C52.1976 56.6486 52.2478 56.6957 52.286 56.752C52.3289 56.8058 52.3596 56.8682 52.376 56.935C52.4115 57.0802 52.4115 57.2318 52.376 57.377L52.344 57.489L52.329 57.54L49.6491 67.428L49.5 67.987V68.007L49.473 68.097C49.4257 68.2592 49.3449 68.4098 49.236 68.539C49.1816 68.6094 49.1184 68.6725 49.048 68.727C48.9203 68.8304 48.7668 68.8971 48.604 68.92C48.5878 68.9223 48.5713 68.9223 48.555 68.92M29.297 63.002H27.771C27.524 63.002 27.297 63.009 27.107 63.024C26.9304 63.0357 26.7545 63.0568 26.5801 63.087C26.4443 63.11 26.3106 63.1434 26.18 63.187C26.0798 63.2212 25.9834 63.2654 25.892 63.319C25.8161 63.3647 25.7462 63.4198 25.684 63.483C25.621 63.5468 25.566 63.618 25.5201 63.695L25.513 63.702C25.46 63.7963 25.4135 63.8942 25.374 63.995C25.328 64.115 25.289 64.239 25.247 64.378L24.876 65.76C24.8357 65.8978 24.8047 66.0381 24.7831 66.18C24.7654 66.2864 24.7573 66.3941 24.759 66.502C24.7622 66.579 24.7778 66.6549 24.805 66.727C24.8363 66.7897 24.8767 66.8473 24.9251 66.898C24.9857 66.9558 25.0571 67.0013 25.135 67.032C25.2457 67.0759 25.3602 67.1094 25.4771 67.132C25.6191 67.154 25.7771 67.174 25.9771 67.186C26.1771 67.198 26.39 67.203 26.641 67.203H28.872C28.894 67.203 28.911 67.203 28.928 67.203C29.09 67.1792 29.243 67.1137 29.372 67.013C29.44 66.9565 29.5023 66.8936 29.5581 66.825C29.6898 66.6651 29.7811 66.4757 29.824 66.273L29.978 65.711L31.4331 60.347C31.4941 60.12 31.5431 59.912 31.5791 59.715C31.6108 59.5539 31.6318 59.3909 31.642 59.227C31.6521 59.1101 31.644 58.9924 31.6181 58.878C31.6052 58.7912 31.5709 58.709 31.518 58.639C31.4643 58.5697 31.396 58.513 31.318 58.473C31.2143 58.4221 31.1044 58.3852 30.991 58.363C30.828 58.3332 30.6634 58.3128 30.4981 58.302C30.3101 58.287 30.0881 58.28 29.8391 58.28H26.7221C26.5094 58.2651 26.3084 58.1771 26.1531 58.031C26.0759 57.9613 26.0137 57.8767 25.97 57.7824C25.9264 57.6881 25.9023 57.5859 25.8991 57.482C25.8949 57.412 25.9016 57.3419 25.919 57.274C25.9614 57.1116 26.0476 56.9639 26.168 56.847C26.2931 56.7273 26.4455 56.6401 26.612 56.593C26.6931 56.5736 26.7758 56.5622 26.859 56.559H31.3121C31.7341 56.559 32.118 56.579 32.462 56.608C32.7683 56.6355 33.0719 56.687 33.37 56.762C33.615 56.8189 33.8506 56.9102 34.07 57.033C34.2619 57.137 34.4317 57.2772 34.57 57.446C34.7101 57.6087 34.814 57.7992 34.875 58.005C34.9413 58.2282 34.9727 58.4602 34.9681 58.693C34.9607 58.9609 34.9363 59.2282 34.8951 59.493C34.8461 59.779 34.775 60.093 34.685 60.435L32.585 68.164C32.5371 68.3034 32.4636 68.4326 32.368 68.545C32.3142 68.6159 32.251 68.6792 32.18 68.733C32.0524 68.8367 31.8989 68.9034 31.736 68.926C31.7191 68.9283 31.702 68.9283 31.685 68.926H25.167C24.75 68.926 24.3671 68.909 24.0201 68.88C23.7129 68.8522 23.4079 68.8041 23.107 68.736C22.8665 68.6813 22.6321 68.6029 22.4071 68.502C22.2181 68.415 22.0429 68.3008 21.887 68.163C21.7458 68.0408 21.632 67.8902 21.553 67.721C21.4691 67.5518 21.4202 67.3675 21.409 67.179C21.3931 66.9773 21.3988 66.7745 21.426 66.574C21.4547 66.3429 21.5005 66.1143 21.5631 65.89L21.978 64.367C22.0418 64.135 22.1183 63.9066 22.207 63.683C22.2977 63.4761 22.4023 63.2757 22.5201 63.083C22.6424 62.8837 22.7885 62.7001 22.9551 62.536C23.1324 62.3692 23.3272 62.222 23.5361 62.097C23.7576 61.961 23.992 61.8475 24.236 61.758C24.505 61.6601 24.7807 61.5819 25.061 61.524C25.3885 61.458 25.7193 61.4099 26.052 61.38C26.416 61.3507 26.8067 61.336 27.224 61.336H29.4771C29.4894 61.3348 29.5017 61.3348 29.514 61.336C29.7135 61.3597 29.9001 61.447 30.0461 61.585C30.1823 61.7254 30.2614 61.9115 30.268 62.107C30.2684 62.1744 30.2604 62.2416 30.2441 62.307C30.2011 62.4658 30.1157 62.61 29.997 62.724C29.8727 62.8404 29.7221 62.9252 29.5581 62.971C29.4766 62.9955 29.3921 63.008 29.307 63.008H29.297V63.002ZM16.0361 60.424C16.1261 60.082 16.229 59.767 16.336 59.482C16.4415 59.2089 16.562 58.9418 16.697 58.682C16.8259 58.4351 16.9833 58.2042 17.1661 57.994C17.3412 57.7826 17.5428 57.5947 17.766 57.435C17.9941 57.2708 18.2396 57.1323 18.4981 57.022C18.7682 56.9037 19.0497 56.8129 19.3381 56.751C19.6658 56.6786 19.9978 56.6271 20.332 56.597V56.597C20.698 56.568 21.089 56.548 21.504 56.548H23.499C23.7175 56.5582 23.9259 56.6425 24.09 56.787C24.172 56.8568 24.2384 56.9431 24.2848 57.0403C24.3311 57.1375 24.3564 57.2433 24.359 57.351C24.3601 57.4089 24.3561 57.4668 24.3471 57.524C24.3095 57.6936 24.2249 57.8492 24.103 57.973C23.9749 58.098 23.818 58.1893 23.646 58.239C23.5789 58.256 23.5102 58.2657 23.441 58.268H22.0411C21.7941 58.268 21.57 58.275 21.37 58.29C21.17 58.305 20.999 58.324 20.848 58.351C20.717 58.3746 20.5887 58.4115 20.465 58.461C20.3612 58.5034 20.2634 58.5592 20.1741 58.627C20.0849 58.6978 20.0053 58.7798 19.9371 58.871C19.8557 58.9804 19.7838 59.0965 19.7221 59.218C19.6591 59.36 19.593 59.523 19.522 59.706C19.451 59.889 19.388 60.106 19.322 60.336L17.396 67.423L17.262 67.923L17.2131 68.113C17.1629 68.2674 17.0834 68.4107 16.979 68.535C16.9256 68.6046 16.8642 68.6677 16.7961 68.723C16.667 68.8261 16.5126 68.8928 16.349 68.916C16.3311 68.9185 16.313 68.9185 16.2951 68.916H14.4251C14.4071 68.9184 14.389 68.9184 14.371 68.916C14.3039 68.909 14.2388 68.8882 14.18 68.855C14.1212 68.8218 14.0698 68.7769 14.029 68.723C13.9899 68.666 13.9618 68.6023 13.9461 68.535C13.9001 68.352 13.9112 68.1594 13.978 67.983L14.124 67.424L16.0361 60.424ZM13.1481 64.596C12.9791 65.2472 12.715 65.87 12.3641 66.444C12.0372 66.973 11.6158 67.4374 11.121 67.814C10.5993 68.2039 10.0061 68.4876 9.37504 68.649C8.64222 68.8376 7.88772 68.9288 7.13105 68.92H0.366037C0.349785 68.9223 0.333308 68.9223 0.317056 68.92C0.249792 68.9132 0.184645 68.8926 0.125772 68.8594C0.0668994 68.8262 0.0155749 68.7811 -0.0249543 68.727C-0.0707298 68.6736 -0.106924 68.6127 -0.131949 68.547C-0.168747 68.3924 -0.165325 68.2309 -0.12197 68.078L-0.106955 68.029C-0.106955 68.019 -0.0999453 68.007 -0.0969453 67.995L0.0370574 67.482L3.45005 54.911L3.59904 54.357V54.347L3.62605 54.235C3.67927 54.0769 3.76018 53.9297 3.86503 53.8C3.91974 53.7321 3.98105 53.6698 4.04804 53.614C4.17756 53.5116 4.3317 53.445 4.49503 53.421C4.51003 53.421 4.52406 53.421 4.53706 53.421H11.2871C11.9684 53.4036 12.6482 53.4944 13.301 53.69C13.7833 53.8261 14.2059 54.1201 14.501 54.525C14.7642 54.9189 14.9137 55.3777 14.9331 55.851C14.957 56.4406 14.8854 57.0302 14.721 57.597C14.6453 57.8792 14.5549 58.1572 14.4501 58.43C14.3609 58.668 14.2539 58.899 14.13 59.121C14.0228 59.3164 13.9022 59.5042 13.7691 59.683C13.6489 59.8491 13.5151 60.005 13.3691 60.149C13.2345 60.2819 13.0908 60.4052 12.939 60.518C12.7911 60.6291 12.6354 60.7293 12.473 60.818C12.3515 60.8877 12.2252 60.9489 12.095 61.001C12.2254 61.0673 12.351 61.1424 12.471 61.226C12.6027 61.3197 12.721 61.4307 12.823 61.556C12.9265 61.684 13.0141 61.824 13.0841 61.973C13.1606 62.136 13.2186 62.3071 13.2571 62.483C13.2981 62.6808 13.3241 62.8813 13.335 63.083C13.3415 63.3203 13.3285 63.5578 13.2961 63.793C13.2541 64.0723 13.1953 64.3488 13.12 64.621M9.72004 64.66C9.84406 64.2224 9.92906 63.7746 9.97404 63.322C10.0068 63.0373 9.97678 62.7488 9.88606 62.477C9.80405 62.2809 9.64919 62.1243 9.45405 62.04C9.16309 61.9283 8.85248 61.877 8.54106 61.889H6.72706C6.71912 61.8904 6.71098 61.8904 6.70304 61.889C6.48293 61.8844 6.27109 61.8042 6.10304 61.662C6.02203 61.5918 5.95635 61.5057 5.91007 61.409C5.86379 61.3123 5.83793 61.2071 5.83405 61.1C5.82929 61.0252 5.83739 60.9501 5.85804 60.878C5.90427 60.7221 5.99004 60.5809 6.10703 60.468C6.22853 60.3542 6.37625 60.2721 6.53706 60.229C6.6258 60.203 6.71758 60.1889 6.81004 60.187H8.99806C9.32065 60.1958 9.64243 60.1505 9.95005 60.053C10.1647 59.9835 10.3574 59.859 10.509 59.692C10.692 59.4728 10.8411 59.2274 10.9511 58.964C11.1156 58.5881 11.2494 58.1995 11.3511 57.802C11.4748 57.3788 11.5476 56.9424 11.568 56.502C11.585 56.228 11.5221 55.955 11.387 55.716C11.2686 55.5304 11.0977 55.3842 10.896 55.296C10.6571 55.1939 10.3988 55.1448 10.139 55.152H7.41004H7.37306C7.20949 55.1766 7.05587 55.2458 6.92906 55.352C6.8592 55.4054 6.79753 55.4687 6.74604 55.54C6.6427 55.6637 6.56242 55.8049 6.50904 55.957L6.41905 56.311L6.32905 56.645L3.75605 66.118L3.71003 66.294V66.301L3.68104 66.401C3.6457 66.5486 3.6457 66.7024 3.68104 66.85C3.69815 66.9165 3.72878 66.9788 3.77104 67.033C3.80927 67.0846 3.85748 67.128 3.91279 67.1606C3.9681 67.1933 4.0294 67.2145 4.09306 67.223H6.86604C7.17978 67.2259 7.49202 67.179 7.79106 67.084C8.07674 66.991 8.34479 66.8507 8.58405 66.669C8.8467 66.4663 9.06315 66.2099 9.21903 65.917C9.43907 65.5219 9.60713 65.1001 9.71903 64.662M59.508 68.947H57.628C57.6118 68.9495 57.5953 68.9495 57.579 68.947C57.5118 68.9403 57.4466 68.9196 57.3878 68.8864C57.3289 68.8532 57.2776 68.8081 57.237 68.754C57.1956 68.6975 57.1651 68.6337 57.147 68.566C57.1152 68.4295 57.1152 68.2875 57.147 68.151L59.879 58.075L59.9641 57.767L60.064 57.381C60.1137 57.2284 60.1906 57.0861 60.2911 56.961C60.3462 56.8927 60.4093 56.8313 60.479 56.778C60.6046 56.6698 60.7588 56.6003 60.923 56.578C60.9393 56.5758 60.9558 56.5758 60.9721 56.578H62.868C62.8843 56.5753 62.9008 56.5753 62.917 56.578C62.9852 56.5844 63.0511 56.6056 63.1101 56.6402C63.1692 56.6747 63.22 56.7218 63.259 56.778C63.3003 56.8325 63.3303 56.8947 63.3471 56.961C63.3813 57.1063 63.3813 57.2576 63.3471 57.403L63.315 57.515L63.3001 57.566L60.615 67.454L60.466 68.013V68.033L60.4421 68.123C60.3909 68.2841 60.3098 68.434 60.203 68.565C60.1492 68.6359 60.086 68.6992 60.0151 68.753C59.8875 68.8567 59.7339 68.9234 59.5711 68.946C59.5541 68.9482 59.537 68.9482 59.5201 68.946M99.827 61.863C100.403 50.523 86.976 45.371 70.189 45.955C70.145 39.798 68.929 34.749 65.958 32.324C59.122 26.753 42.4311 40.015 29.4211 52.624C29.3875 52.6764 29.3706 52.7379 29.3728 52.8001C29.3749 52.8623 29.3959 52.9225 29.433 52.9725C29.4701 53.0225 29.5216 53.06 29.5805 53.0801C29.6395 53.1002 29.7031 53.1019 29.763 53.085C43.056 42.077 60.038 29.95 64.103 35.355C66.168 38.097 66.3471 40.455 66.4201 46.173C64.1741 46.359 61.879 46.642 59.565 47.02C53.3167 48.1423 47.2257 50.011 41.423 52.586C41.3753 52.6252 41.3404 52.6777 41.3229 52.7369C41.3053 52.7961 41.3059 52.8592 41.3245 52.918C41.3431 52.9769 41.3789 53.0288 41.4273 53.0671C41.4757 53.1054 41.5345 53.1284 41.596 53.133C47.5712 51.1876 53.7215 49.8285 59.96 49.075C76.849 47.256 91.39 49.825 94.96 57.127C95.6746 58.5278 95.9921 60.0975 95.878 61.666C95.678 64.657 93.354 66.93 89.948 67.308C89.9183 67.3132 89.8882 67.3165 89.858 67.318H89.306C89.1008 67.3209 88.9048 67.404 88.7602 67.5496C88.6155 67.6952 88.5336 67.8917 88.5321 68.097C88.5299 68.2976 88.6069 68.4911 88.7463 68.6354C88.8858 68.7797 89.0764 68.8633 89.277 68.868C89.445 68.868 89.414 68.868 89.458 68.868C90.093 68.851 90.7031 68.868 91.0581 68.868C98.3581 68.853 99.837 63.868 99.827 61.868" fill="white"/>
<path fill-rule="evenodd" clip-rule="evenodd" d="M42.651 58.276C42.72 58.2789 42.7878 58.2944 42.8511 58.322C42.8993 58.3456 42.942 58.379 42.9764 58.4202C43.0109 58.4614 43.0363 58.5094 43.051 58.561C43.0649 58.5967 43.0717 58.6347 43.0711 58.673C43.0704 58.753 43.0468 58.8311 43.003 58.898C42.987 58.9263 42.969 58.9534 42.949 58.979L35.064 66.721C34.7254 67.0267 34.4665 67.4105 34.31 67.839L34.271 67.99C34.2641 68.0057 34.2591 68.0221 34.2561 68.039L34.249 68.061C34.2039 68.2177 34.1998 68.3833 34.237 68.542C34.254 68.6101 34.2846 68.6741 34.327 68.73C34.3671 68.7846 34.4183 68.83 34.4773 68.8632C34.5363 68.8965 34.6016 68.9169 34.669 68.923C34.6853 68.9255 34.7018 68.9255 34.7181 68.923H43.7781C43.8614 68.9184 43.944 68.906 44.025 68.886C44.19 68.8402 44.3409 68.754 44.4641 68.635C44.587 68.5221 44.6737 68.3752 44.7131 68.213C44.7286 68.1448 44.736 68.075 44.7351 68.005C44.7308 67.8963 44.7044 67.7895 44.6574 67.6913C44.6105 67.5932 44.544 67.5056 44.462 67.434C44.2841 67.287 44.0608 67.2061 43.8301 67.205H43.818C43.8017 67.2038 43.7854 67.2038 43.7691 67.205H39.143C39.0822 67.2012 39.0225 67.1863 38.967 67.161C38.87 67.1123 38.7963 67.027 38.762 66.924C38.7514 66.8883 38.7463 66.8512 38.747 66.814C38.7478 66.7321 38.7706 66.652 38.8131 66.582C38.83 66.5556 38.8498 66.5311 38.872 66.509L46.999 58.209C47.245 57.9517 47.4332 57.6449 47.551 57.309C47.573 57.1848 47.569 57.0575 47.539 56.935C47.5211 56.8697 47.4924 56.8078 47.454 56.752C47.4146 56.6962 47.3636 56.6495 47.3046 56.615C47.2457 56.5806 47.18 56.5591 47.112 56.552C47.0941 56.5496 47.076 56.5496 47.0581 56.552H38.2781C38.1861 56.5541 38.0949 56.5689 38.0071 56.596C37.8437 56.6379 37.6938 56.7213 37.572 56.838C37.4514 56.9499 37.3651 57.0939 37.323 57.253C37.3013 57.3259 37.2931 57.4022 37.299 57.478C37.3011 57.5861 37.3265 57.6926 37.3736 57.7899C37.4208 57.8873 37.4884 57.9733 37.572 58.042C37.7446 58.1938 37.9672 58.2764 38.197 58.274H42.65L42.651 58.276ZM50.5801 55.442C50.5695 55.4437 50.5586 55.4437 50.548 55.442H50.538C50.3089 55.4419 50.0871 55.3616 49.911 55.215C49.8286 55.1437 49.7615 55.0562 49.7141 54.958C49.6666 54.8598 49.6397 54.7529 49.635 54.644C49.6328 54.5681 49.642 54.4922 49.6621 54.419C49.7049 54.2603 49.792 54.1171 49.913 54.006C50.0346 53.8901 50.183 53.8063 50.345 53.762C50.434 53.7374 50.5258 53.725 50.618 53.725H50.63C50.643 53.724 50.6561 53.724 50.669 53.725H51.904C51.9187 53.7238 51.9334 53.7238 51.948 53.725H51.96C52.018 53.7262 52.0758 53.7312 52.133 53.74C52.1452 53.7372 52.1579 53.7372 52.1701 53.74H52.185C52.4158 53.7391 52.6396 53.8195 52.8171 53.967C52.8996 54.0383 52.9666 54.1258 53.014 54.224C53.0615 54.3222 53.0884 54.429 53.0931 54.538C53.0949 54.6144 53.0868 54.6907 53.069 54.765C53.0206 54.921 52.9332 55.0621 52.815 55.175C52.6942 55.2908 52.5464 55.3747 52.385 55.419C52.295 55.4431 52.2023 55.4556 52.109 55.456H52.0971C52.0891 55.4555 52.081 55.4555 52.073 55.456H50.803C50.791 55.456 50.7811 55.456 50.7691 55.456C50.7067 55.4562 50.6445 55.4512 50.583 55.441M61.75 53.741C61.8199 53.7274 61.8909 53.72 61.962 53.719H61.9771C61.99 53.7178 62.0031 53.7178 62.016 53.719H63.254C63.267 53.7177 63.2801 53.7177 63.293 53.719H63.3081C63.5368 53.7178 63.7584 53.7983 63.9331 53.946C64.0168 54.0159 64.0848 54.1028 64.1327 54.2008C64.1806 54.2989 64.2073 54.4059 64.211 54.515C64.2129 54.592 64.2049 54.669 64.187 54.744C64.1421 54.9016 64.0541 55.0435 63.9331 55.154C63.8122 55.2714 63.6636 55.3564 63.501 55.401C63.44 55.416 63.379 55.425 63.318 55.435C63.2454 55.4477 63.1718 55.4544 63.098 55.455H63.086C63.076 55.455 63.066 55.455 63.059 55.455H61.794C61.782 55.455 61.7721 55.455 61.7651 55.455H61.758C61.5263 55.456 61.3016 55.3756 61.1231 55.228C61.0415 55.1562 60.9753 55.0686 60.9287 54.9704C60.8822 54.8722 60.8561 54.7656 60.8521 54.657C60.848 54.5805 60.856 54.5039 60.876 54.43C60.9193 54.2716 61.0075 54.1292 61.13 54.02C61.2495 53.9028 61.3973 53.8188 61.559 53.776C61.6211 53.7586 61.6847 53.7472 61.749 53.742M83.289 62.255H85.161C85.41 62.255 85.632 62.255 85.835 62.235C86.038 62.215 86.206 62.201 86.355 62.176C86.491 62.1543 86.6248 62.1208 86.755 62.076C86.8551 62.0442 86.951 62.0009 87.0411 61.947C87.1178 61.9006 87.1889 61.8456 87.253 61.783C87.3152 61.72 87.3693 61.6494 87.414 61.573C87.4689 61.4744 87.5177 61.3726 87.56 61.268C87.606 61.156 87.648 61.024 87.689 60.887L88.0021 59.72C88.0387 59.5857 88.0681 59.4495 88.09 59.312C88.11 59.2049 88.1174 59.0958 88.112 58.987C88.1134 58.9093 88.0991 58.8321 88.07 58.76C88.042 58.6925 88.0013 58.6311 87.9501 58.579C87.8878 58.5237 87.8168 58.4791 87.74 58.447H87.733C87.6261 58.404 87.5148 58.3728 87.401 58.354C87.2355 58.3271 87.0686 58.309 86.901 58.3C86.713 58.288 86.493 58.28 86.242 58.28H85.068C84.821 58.28 84.5921 58.287 84.3991 58.302C84.2061 58.317 84.026 58.336 83.872 58.363C83.7412 58.3873 83.6129 58.4242 83.4891 58.473C83.3862 58.5155 83.2894 58.5713 83.2011 58.639C83.1112 58.708 83.0323 58.7903 82.967 58.883C82.8833 58.9911 82.8106 59.1074 82.75 59.23C82.684 59.372 82.6181 59.535 82.5501 59.718C82.4821 59.901 82.416 60.118 82.35 60.348L81.0501 65.14C80.9891 65.369 80.94 65.579 80.906 65.772C80.8738 65.9331 80.8517 66.0961 80.84 66.26C80.8309 66.3769 80.839 66.4945 80.8641 66.609C80.8801 66.6961 80.9168 66.778 80.971 66.848C81.024 66.9186 81.0924 66.976 81.1711 67.016C81.2724 67.0676 81.381 67.1036 81.493 67.123C81.656 67.1534 81.8206 67.1737 81.986 67.184C82.179 67.199 82.396 67.206 82.65 67.206H86.9251C86.938 67.2046 86.9511 67.2046 86.9641 67.206H86.9811C87.2085 67.2032 87.4292 67.2839 87.6011 67.433C87.6852 67.5018 87.7535 67.588 87.8012 67.6857C87.8488 67.7834 87.8747 67.8903 87.8771 67.999C87.8806 68.074 87.8714 68.149 87.85 68.221C87.8102 68.3809 87.7226 68.525 87.599 68.634C87.4779 68.749 87.3302 68.8321 87.169 68.876C87.0844 68.8982 86.9975 68.9106 86.91 68.913C86.8851 68.9194 86.8597 68.9234 86.8341 68.925H81.1751C80.791 68.927 80.4072 68.9089 80.025 68.871C79.7184 68.8445 79.414 68.7963 79.1141 68.727C78.8707 68.6642 78.6357 68.5726 78.414 68.454C78.2219 68.3462 78.05 68.2057 77.906 68.039C77.7718 67.8758 77.67 67.6884 77.6061 67.487C77.5352 67.2671 77.5014 67.037 77.5061 66.806C77.5098 66.5378 77.5342 66.2704 77.579 66.006C77.6351 65.6852 77.7075 65.3674 77.7961 65.054L79.048 60.43C79.141 60.088 79.241 59.773 79.348 59.488C79.4518 59.2145 79.5717 58.9473 79.707 58.688C79.8366 58.441 79.9947 58.2101 80.178 58C80.3537 57.7891 80.5553 57.6013 80.7781 57.441C81.0057 57.2773 81.2504 57.1388 81.508 57.028C81.7815 56.9093 82.0663 56.8185 82.358 56.757C82.6846 56.684 83.0157 56.6326 83.349 56.603V56.603C83.713 56.574 84.103 56.554 84.518 56.554H87.699C88.116 56.554 88.499 56.574 88.846 56.6C89.1526 56.6271 89.457 56.6752 89.7571 56.744C89.9979 56.7989 90.2324 56.8783 90.457 56.981C90.6478 57.0667 90.8247 57.1802 90.982 57.318C91.1197 57.4442 91.2338 57.5939 91.319 57.76C91.4005 57.9305 91.4477 58.1153 91.458 58.304C91.4747 58.5056 91.4697 58.7084 91.443 58.909C91.4128 59.1386 91.3653 59.3655 91.301 59.588L90.949 60.899C90.8852 61.131 90.8061 61.3585 90.712 61.58C90.6256 61.7895 90.5226 61.9918 90.404 62.185C90.2829 62.3853 90.1353 62.5683 89.965 62.729C89.7934 62.8994 89.6005 63.047 89.391 63.168C89.169 63.3031 88.9347 63.4166 88.691 63.507C88.422 63.6059 88.1463 63.6858 87.866 63.746C87.5386 63.8119 87.2078 63.8594 86.875 63.888C86.511 63.917 86.118 63.932 85.703 63.932H83.172C82.966 63.9144 82.7717 63.8285 82.62 63.688C82.5454 63.6203 82.4851 63.5384 82.4427 63.447C82.4003 63.3556 82.3766 63.2567 82.3731 63.156C82.3718 63.1009 82.3769 63.0459 82.388 62.992C82.4204 62.8247 82.5019 62.6708 82.622 62.55C82.745 62.4229 82.9002 62.3316 83.0711 62.286C83.1336 62.2707 83.1971 62.2593 83.2611 62.252L83.289 62.255ZM68.411 59.064L66.1401 67.431L66.003 67.931L65.954 68.119C65.9056 68.2737 65.8267 68.4172 65.7221 68.541C65.667 68.6107 65.6046 68.6744 65.536 68.731C65.4057 68.8315 65.2518 68.8969 65.0891 68.921C65.0722 68.9235 65.0549 68.9235 65.038 68.921H63.156C63.1398 68.9235 63.1233 68.9235 63.107 68.921C63.0401 68.9143 62.9752 68.894 62.9164 68.8613C62.8576 68.8286 62.8061 68.7843 62.7651 68.731C62.7248 68.6737 62.6959 68.6092 62.68 68.541C62.6455 68.3997 62.6455 68.2522 62.68 68.111L65.615 57.311C65.665 57.1738 65.7377 57.046 65.8301 56.933C65.8846 56.8641 65.9478 56.8027 66.018 56.75C66.1431 56.641 66.2976 56.5714 66.462 56.55C66.4783 56.5477 66.4948 56.5477 66.5111 56.55H73.668C74.09 56.55 74.474 56.57 74.818 56.599C75.1252 56.6265 75.4299 56.678 75.729 56.753C75.9741 56.8095 76.2098 56.9007 76.4291 57.024C76.6226 57.1298 76.7953 57.2697 76.939 57.437C77.0758 57.6011 77.1779 57.7913 77.2391 57.996C77.3101 58.2182 77.3439 58.4507 77.3391 58.684C77.3343 58.9522 77.3088 59.2197 77.263 59.484C77.214 59.77 77.143 60.084 77.055 60.426L75.155 67.426L75.0061 67.985L74.9721 68.105C74.9232 68.2624 74.8436 68.4085 74.738 68.535C74.6843 68.6059 74.6218 68.6697 74.552 68.725C74.4232 68.8261 74.2701 68.8916 74.108 68.915C74.0918 68.9172 74.0753 68.9172 74.059 68.915H72.174C72.1578 68.9175 72.1413 68.9175 72.125 68.915C72.0581 68.9083 71.9932 68.8879 71.9344 68.8553C71.8756 68.8226 71.8241 68.7783 71.7831 68.725C71.7418 68.6679 71.7119 68.6034 71.695 68.535C71.662 68.3946 71.662 68.2484 71.695 68.108L73.802 60.337C73.863 60.11 73.912 59.902 73.948 59.705C73.9821 59.5443 74.0032 59.3811 74.0111 59.217C74.0192 59.1002 74.0118 58.9829 73.9891 58.868C73.972 58.7825 73.938 58.7012 73.889 58.629C73.8348 58.5602 73.7666 58.5037 73.689 58.463C73.585 58.4129 73.4752 58.3759 73.362 58.353C73.1996 58.3235 73.0357 58.3031 72.871 58.292C72.671 58.277 72.459 58.27 72.212 58.27H69.3211C69.3056 58.2713 69.2902 58.2737 69.275 58.277C69.112 58.2991 68.9584 58.3659 68.831 58.47C68.7624 58.5256 68.6994 58.588 68.643 58.656C68.5465 58.7755 68.4714 58.9109 68.4211 59.056M54.098 68.919H52.208C52.1928 68.9212 52.1773 68.9212 52.1621 68.919C52.0949 68.9122 52.0297 68.8919 51.9706 68.8592C51.9115 68.8266 51.8596 68.7823 51.818 68.729C51.7804 68.6705 51.7524 68.6064 51.7351 68.539C51.6935 68.3555 51.7053 68.164 51.7691 67.987L51.915 67.428H51.888L55.599 53.763C55.6496 53.6184 55.724 53.4832 55.819 53.363C55.8761 53.2965 55.939 53.2352 56.0071 53.18C56.1359 53.0765 56.2904 53.0098 56.454 52.987H56.5H58.3951H58.437C58.5037 52.9944 58.5682 53.0154 58.6264 53.0485C58.6847 53.0817 58.7356 53.1264 58.776 53.18C58.8168 53.2348 58.8467 53.2969 58.8641 53.363C58.9082 53.5469 58.8963 53.7398 58.8301 53.917L58.681 54.476L54.9291 68.316C54.8866 68.3967 54.8349 68.4722 54.775 68.541C54.7213 68.6119 54.6588 68.6757 54.5891 68.731C54.4613 68.8325 54.3087 68.8981 54.147 68.921C54.1308 68.9234 54.1143 68.9234 54.098 68.921M48.544 68.921H46.6621C46.6458 68.9235 46.6293 68.9235 46.613 68.921C46.5459 68.914 46.4808 68.8932 46.422 68.86C46.3632 68.8268 46.3118 68.7819 46.271 68.728C46.2286 68.6721 46.198 68.6081 46.181 68.54C46.1504 68.4034 46.1504 68.2616 46.181 68.125L48.918 58.049L48.999 57.741L49.1061 57.355C49.157 57.2034 49.233 57.0614 49.331 56.935C49.3875 56.8673 49.4512 56.8059 49.521 56.752C49.6466 56.6438 49.8008 56.5743 49.965 56.552C49.982 56.5497 49.9991 56.5497 50.016 56.552H51.898C51.9143 56.5494 51.9308 56.5494 51.947 56.552C52.0148 56.5582 52.0803 56.5794 52.139 56.614C52.1976 56.6486 52.2478 56.6957 52.286 56.752C52.3289 56.8058 52.3596 56.8682 52.376 56.935C52.4115 57.0802 52.4115 57.2318 52.376 57.377L52.344 57.489L52.329 57.54L49.6491 67.428L49.5 67.987V68.007L49.473 68.097C49.4257 68.2592 49.3449 68.4098 49.236 68.539C49.1816 68.6094 49.1184 68.6725 49.048 68.727C48.9203 68.8304 48.7668 68.8971 48.604 68.92C48.5878 68.9223 48.5713 68.9223 48.555 68.92M29.297 63.002H27.771C27.524 63.002 27.297 63.009 27.107 63.024C26.9304 63.0357 26.7545 63.0568 26.5801 63.087C26.4443 63.11 26.3106 63.1434 26.18 63.187C26.0798 63.2212 25.9834 63.2654 25.892 63.319C25.8161 63.3647 25.7462 63.4198 25.684 63.483C25.621 63.5468 25.566 63.618 25.5201 63.695L25.513 63.702C25.46 63.7963 25.4135 63.8942 25.374 63.995C25.328 64.115 25.289 64.239 25.247 64.378L24.876 65.76C24.8357 65.8978 24.8047 66.0381 24.7831 66.18C24.7654 66.2864 24.7573 66.3941 24.759 66.502C24.7622 66.579 24.7778 66.6549 24.805 66.727C24.8363 66.7897 24.8767 66.8473 24.9251 66.898C24.9857 66.9558 25.0571 67.0013 25.135 67.032C25.2457 67.0759 25.3602 67.1094 25.4771 67.132C25.6191 67.154 25.7771 67.174 25.9771 67.186C26.1771 67.198 26.39 67.203 26.641 67.203H28.872C28.894 67.203 28.911 67.203 28.928 67.203C29.09 67.1792 29.243 67.1137 29.372 67.013C29.44 66.9565 29.5023 66.8936 29.5581 66.825C29.6898 66.6651 29.7811 66.4757 29.824 66.273L29.978 65.711L31.4331 60.347C31.4941 60.12 31.5431 59.912 31.5791 59.715C31.6108 59.5539 31.6318 59.3909 31.642 59.227C31.6521 59.1101 31.644 58.9924 31.6181 58.878C31.6052 58.7912 31.5709 58.709 31.518 58.639C31.4643 58.5697 31.396 58.513 31.318 58.473C31.2143 58.4221 31.1044 58.3852 30.991 58.363C30.828 58.3332 30.6634 58.3128 30.4981 58.302C30.3101 58.287 30.0881 58.28 29.8391 58.28H26.7221C26.5094 58.2651 26.3084 58.1771 26.1531 58.031C26.0759 57.9613 26.0137 57.8767 25.97 57.7824C25.9264 57.6881 25.9023 57.5859 25.8991 57.482C25.8949 57.412 25.9016 57.3419 25.919 57.274C25.9614 57.1116 26.0476 56.9639 26.168 56.847C26.2931 56.7273 26.4455 56.6401 26.612 56.593C26.6931 56.5736 26.7758 56.5622 26.859 56.559H31.3121C31.7341 56.559 32.118 56.579 32.462 56.608C32.7683 56.6355 33.0719 56.687 33.37 56.762C33.615 56.8189 33.8506 56.9102 34.07 57.033C34.2619 57.137 34.4317 57.2772 34.57 57.446C34.7101 57.6087 34.814 57.7992 34.875 58.005C34.9413 58.2282 34.9727 58.4602 34.9681 58.693C34.9607 58.9609 34.9363 59.2282 34.8951 59.493C34.8461 59.779 34.775 60.093 34.685 60.435L32.585 68.164C32.5371 68.3034 32.4636 68.4326 32.368 68.545C32.3142 68.6159 32.251 68.6792 32.18 68.733C32.0524 68.8367 31.8989 68.9034 31.736 68.926C31.7191 68.9283 31.702 68.9283 31.685 68.926H25.167C24.75 68.926 24.3671 68.909 24.0201 68.88C23.7129 68.8522 23.4079 68.8041 23.107 68.736C22.8665 68.6813 22.6321 68.6029 22.4071 68.502C22.2181 68.415 22.0429 68.3008 21.887 68.163C21.7458 68.0408 21.632 67.8902 21.553 67.721C21.4691 67.5518 21.4202 67.3675 21.409 67.179C21.3931 66.9773 21.3988 66.7745 21.426 66.574C21.4547 66.3429 21.5005 66.1143 21.5631 65.89L21.978 64.367C22.0418 64.135 22.1183 63.9066 22.207 63.683C22.2977 63.4761 22.4023 63.2757 22.5201 63.083C22.6424 62.8837 22.7885 62.7001 22.9551 62.536C23.1324 62.3692 23.3272 62.222 23.5361 62.097C23.7576 61.961 23.992 61.8475 24.236 61.758C24.505 61.6601 24.7807 61.5819 25.061 61.524C25.3885 61.458 25.7193 61.4099 26.052 61.38C26.416 61.3507 26.8067 61.336 27.224 61.336H29.4771C29.4894 61.3348 29.5017 61.3348 29.514 61.336C29.7135 61.3597 29.9001 61.447 30.0461 61.585C30.1823 61.7254 30.2614 61.9115 30.268 62.107C30.2684 62.1744 30.2604 62.2416 30.2441 62.307C30.2011 62.4658 30.1157 62.61 29.997 62.724C29.8727 62.8404 29.7221 62.9252 29.5581 62.971C29.4766 62.9955 29.3921 63.008 29.307 63.008H29.297V63.002ZM16.0361 60.424C16.1261 60.082 16.229 59.767 16.336 59.482C16.4415 59.2089 16.562 58.9418 16.697 58.682C16.8259 58.4351 16.9833 58.2042 17.1661 57.994C17.3412 57.7826 17.5428 57.5947 17.766 57.435C17.9941 57.2708 18.2396 57.1323 18.4981 57.022C18.7682 56.9037 19.0497 56.8129 19.3381 56.751C19.6658 56.6786 19.9978 56.6271 20.332 56.597V56.597C20.698 56.568 21.089 56.548 21.504 56.548H23.499C23.7175 56.5582 23.9259 56.6425 24.09 56.787C24.172 56.8568 24.2384 56.9431 24.2848 57.0403C24.3311 57.1375 24.3564 57.2433 24.359 57.351C24.3601 57.4089 24.3561 57.4668 24.3471 57.524C24.3095 57.6936 24.2249 57.8492 24.103 57.973C23.9749 58.098 23.818 58.1893 23.646 58.239C23.5789 58.256 23.5102 58.2657 23.441 58.268H22.0411C21.7941 58.268 21.57 58.275 21.37 58.29C21.17 58.305 20.999 58.324 20.848 58.351C20.717 58.3746 20.5887 58.4115 20.465 58.461C20.3612 58.5034 20.2634 58.5592 20.1741 58.627C20.0849 58.6978 20.0053 58.7798 19.9371 58.871C19.8557 58.9804 19.7838 59.0965 19.7221 59.218C19.6591 59.36 19.593 59.523 19.522 59.706C19.451 59.889 19.388 60.106 19.322 60.336L17.396 67.423L17.262 67.923L17.2131 68.113C17.1629 68.2674 17.0834 68.4107 16.979 68.535C16.9256 68.6046 16.8642 68.6677 16.7961 68.723C16.667 68.8261 16.5126 68.8928 16.349 68.916C16.3311 68.9185 16.313 68.9185 16.2951 68.916H14.4251C14.4071 68.9184 14.389 68.9184 14.371 68.916C14.3039 68.909 14.2388 68.8882 14.18 68.855C14.1212 68.8218 14.0698 68.7769 14.029 68.723C13.9899 68.666 13.9618 68.6023 13.9461 68.535C13.9001 68.352 13.9112 68.1594 13.978 67.983L14.124 67.424L16.0361 60.424ZM13.1481 64.596C12.9791 65.2472 12.715 65.87 12.3641 66.444C12.0372 66.973 11.6158 67.4374 11.121 67.814C10.5993 68.2039 10.0061 68.4876 9.37504 68.649C8.64222 68.8376 7.88772 68.9288 7.13105 68.92H0.366037C0.349785 68.9223 0.333308 68.9223 0.317056 68.92C0.249792 68.9132 0.184645 68.8926 0.125772 68.8594C0.0668994 68.8262 0.0155749 68.7811 -0.0249543 68.727C-0.0707298 68.6736 -0.106924 68.6127 -0.131949 68.547C-0.168747 68.3924 -0.165325 68.2309 -0.12197 68.078L-0.106955 68.029C-0.106955 68.019 -0.0999453 68.007 -0.0969453 67.995L0.0370574 67.482L3.45005 54.911L3.59904 54.357V54.347L3.62605 54.235C3.67927 54.0769 3.76018 53.9297 3.86503 53.8C3.91974 53.7321 3.98105 53.6698 4.04804 53.614C4.17756 53.5116 4.3317 53.445 4.49503 53.421C4.51003 53.421 4.52406 53.421 4.53706 53.421H11.2871C11.9684 53.4036 12.6482 53.4944 13.301 53.69C13.7833 53.8261 14.2059 54.1201 14.501 54.525C14.7642 54.9189 14.9137 55.3777 14.9331 55.851C14.957 56.4406 14.8854 57.0302 14.721 57.597C14.6453 57.8792 14.5549 58.1572 14.4501 58.43C14.3609 58.668 14.2539 58.899 14.13 59.121C14.0228 59.3164 13.9022 59.5042 13.7691 59.683C13.6489 59.8491 13.5151 60.005 13.3691 60.149C13.2345 60.2819 13.0908 60.4052 12.939 60.518C12.7911 60.6291 12.6354 60.7293 12.473 60.818C12.3515 60.8877 12.2252 60.9489 12.095 61.001C12.2254 61.0673 12.351 61.1424 12.471 61.226C12.6027 61.3197 12.721 61.4307 12.823 61.556C12.9265 61.684 13.0141 61.824 13.0841 61.973C13.1606 62.136 13.2186 62.3071 13.2571 62.483C13.2981 62.6808 13.3241 62.8813 13.335 63.083C13.3415 63.3203 13.3285 63.5578 13.2961 63.793C13.2541 64.0723 13.1953 64.3488 13.12 64.621M9.72004 64.66C9.84406 64.2224 9.92906 63.7746 9.97404 63.322C10.0068 63.0373 9.97678 62.7488 9.88606 62.477C9.80405 62.2809 9.64919 62.1243 9.45405 62.04C9.16309 61.9283 8.85248 61.877 8.54106 61.889H6.72706C6.71912 61.8904 6.71098 61.8904 6.70304 61.889C6.48293 61.8844 6.27109 61.8042 6.10304 61.662C6.02203 61.5918 5.95635 61.5057 5.91007 61.409C5.86379 61.3123 5.83793 61.2071 5.83405 61.1C5.82929 61.0252 5.83739 60.9501 5.85804 60.878C5.90427 60.7221 5.99004 60.5809 6.10703 60.468C6.22853 60.3542 6.37625 60.2721 6.53706 60.229C6.6258 60.203 6.71758 60.1889 6.81004 60.187H8.99806C9.32065 60.1958 9.64243 60.1505 9.95005 60.053C10.1647 59.9835 10.3574 59.859 10.509 59.692C10.692 59.4728 10.8411 59.2274 10.9511 58.964C11.1156 58.5881 11.2494 58.1995 11.3511 57.802C11.4748 57.3788 11.5476 56.9424 11.568 56.502C11.585 56.228 11.5221 55.955 11.387 55.716C11.2686 55.5304 11.0977 55.3842 10.896 55.296C10.6571 55.1939 10.3988 55.1448 10.139 55.152H7.41004H7.37306C7.20949 55.1766 7.05587 55.2458 6.92906 55.352C6.8592 55.4054 6.79753 55.4687 6.74604 55.54C6.6427 55.6637 6.56242 55.8049 6.50904 55.957L6.41905 56.311L6.32905 56.645L3.75605 66.118L3.71003 66.294V66.301L3.68104 66.401C3.6457 66.5486 3.6457 66.7024 3.68104 66.85C3.69815 66.9165 3.72878 66.9788 3.77104 67.033C3.80927 67.0846 3.85748 67.128 3.91279 67.1606C3.9681 67.1933 4.0294 67.2145 4.09306 67.223H6.86604C7.17978 67.2259 7.49202 67.179 7.79106 67.084C8.07674 66.991 8.34479 66.8507 8.58405 66.669C8.8467 66.4663 9.06315 66.2099 9.21903 65.917C9.43907 65.5219 9.60713 65.1001 9.71903 64.662M59.508 68.947H57.628C57.6118 68.9495 57.5953 68.9495 57.579 68.947C57.5118 68.9403 57.4466 68.9196 57.3878 68.8864C57.3289 68.8532 57.2776 68.8081 57.237 68.754C57.1956 68.6975 57.1651 68.6337 57.147 68.566C57.1152 68.4295 57.1152 68.2875 57.147 68.151L59.879 58.075L59.9641 57.767L60.064 57.381C60.1137 57.2284 60.1906 57.0861 60.2911 56.961C60.3462 56.8927 60.4093 56.8313 60.479 56.778C60.6046 56.6698 60.7588 56.6003 60.923 56.578C60.9393 56.5758 60.9558 56.5758 60.9721 56.578H62.868C62.8843 56.5753 62.9008 56.5753 62.917 56.578C62.9852 56.5844 63.0511 56.6056 63.1101 56.6402C63.1692 56.6747 63.22 56.7218 63.259 56.778C63.3003 56.8325 63.3303 56.8947 63.3471 56.961C63.3813 57.1063 63.3813 57.2576 63.3471 57.403L63.315 57.515L63.3001 57.566L60.615 67.454L60.466 68.013V68.033L60.4421 68.123C60.3909 68.2841 60.3098 68.434 60.203 68.565C60.1492 68.6359 60.086 68.6992 60.0151 68.753C59.8875 68.8567 59.7339 68.9234 59.5711 68.946C59.5541 68.9482 59.537 68.9482 59.5201 68.946M99.827 61.863C100.403 50.523 86.976 45.371 70.189 45.955C70.145 39.798 68.929 34.749 65.958 32.324C59.122 26.753 42.4311 40.015 29.4211 52.624C29.3875 52.6764 29.3706 52.7379 29.3728 52.8001C29.3749 52.8623 29.3959 52.9225 29.433 52.9725C29.4701 53.0225 29.5216 53.06 29.5805 53.0801C29.6395 53.1002 29.7031 53.1019 29.763 53.085C43.056 42.077 60.038 29.95 64.103 35.355C66.168 38.097 66.3471 40.455 66.4201 46.173C64.1741 46.359 61.879 46.642 59.565 47.02C53.3167 48.1423 47.2257 50.011 41.423 52.586C41.3753 52.6252 41.3404 52.6777 41.3229 52.7369C41.3053 52.7961 41.3059 52.8592 41.3245 52.918C41.3431 52.9769 41.3789 53.0288 41.4273 53.0671C41.4757 53.1054 41.5345 53.1284 41.596 53.133C47.5712 51.1876 53.7215 49.8285 59.96 49.075C76.849 47.256 91.39 49.825 94.96 57.127C95.6746 58.5278 95.9921 60.0975 95.878 61.666C95.678 64.657 93.354 66.93 89.948 67.308C89.9183 67.3132 89.8882 67.3165 89.858 67.318H89.306C89.1008 67.3209 88.9048 67.404 88.7602 67.5496C88.6155 67.6952 88.5336 67.8917 88.5321 68.097C88.5299 68.2976 88.6069 68.4911 88.7463 68.6354C88.8858 68.7797 89.0764 68.8633 89.277 68.868C89.445 68.868 89.414 68.868 89.458 68.868C90.093 68.851 90.7031 68.868 91.0581 68.868C98.3581 68.853 99.837 63.868 99.827 61.868" fill="white"/>
</g>
<defs>
<clipPath id="clip0_119_1013">
<rect width="100" height="100" fill="white"/>
</clipPath>
</defs>
</svg>
