<svg width="100" height="100" viewBox="0 0 100 100" fill="none" xmlns="http://www.w3.org/2000/svg">
<g clip-path="url(#clip0_119_1180)">
<path fill-rule="evenodd" clip-rule="evenodd" d="M-0.00195312 61.259C-0.00195312 60.639 0.698047 60.159 1.49805 60.159H10.244C10.6755 60.1403 11.1063 60.2092 11.5105 60.3614C11.9147 60.5136 12.2839 60.746 12.5958 61.0448C12.9078 61.3435 13.156 61.7022 13.3256 62.0994C13.4951 62.4966 13.5825 62.9241 13.5825 63.356C13.5825 63.7879 13.4951 64.2153 13.3256 64.6125C13.156 65.0097 12.9078 65.3685 12.5958 65.6672C12.2839 65.9659 11.9147 66.1984 11.5105 66.3507C11.1063 66.5029 10.6755 66.5718 10.244 66.5531H4.70801C4.53537 66.5628 4.36259 66.5371 4.2002 66.4777C4.0378 66.4183 3.8892 66.3264 3.76355 66.2076C3.6379 66.0888 3.53789 65.9456 3.46948 65.7868C3.40108 65.628 3.36572 65.4569 3.36572 65.284C3.36572 65.1111 3.40108 64.94 3.46948 64.7812C3.53789 64.6224 3.6379 64.4792 3.76355 64.3604C3.8892 64.2416 4.0378 64.1497 4.2002 64.0903C4.36259 64.0309 4.53537 64.0053 4.70801 64.015H10.4081C10.5812 64.0083 10.7449 63.9348 10.865 63.81C10.9851 63.6852 11.0521 63.5188 11.0521 63.3455C11.0521 63.1723 10.9851 63.0058 10.865 62.8809C10.7449 62.7561 10.5812 62.6827 10.4081 62.676H2.45105V69.3761C2.41758 69.6785 2.27379 69.9579 2.04712 70.1608C1.82045 70.3638 1.5268 70.476 1.22253 70.476C0.918267 70.476 0.624745 70.3638 0.398071 70.1608C0.171398 69.9579 0.0274867 69.6785 -0.00598145 69.3761L-0.00195312 61.259ZM20.359 60.164H27.4821C27.661 60.1409 27.8427 60.156 28.0153 60.2087C28.1878 60.2613 28.3472 60.3502 28.4827 60.4693C28.6182 60.5884 28.7268 60.735 28.8011 60.8994C28.8755 61.0637 28.9139 61.2422 28.9139 61.4226C28.9139 61.603 28.8755 61.7813 28.8011 61.9456C28.7268 62.11 28.6182 62.2566 28.4827 62.3757C28.3472 62.4948 28.1878 62.5837 28.0153 62.6363C27.8427 62.689 27.661 62.7041 27.4821 62.681H19.853C16.505 62.681 16.434 67.958 19.853 67.958H27.441C27.6239 67.9323 27.8102 67.9462 27.9873 67.9987C28.1644 68.0512 28.3281 68.1411 28.4674 68.2623C28.6068 68.3835 28.7185 68.5332 28.795 68.7012C28.8716 68.8693 28.9113 69.0518 28.9113 69.2365C28.9113 69.4212 28.8716 69.6037 28.795 69.7718C28.7185 69.9399 28.6068 70.0895 28.4674 70.2106C28.3281 70.3318 28.1644 70.4217 27.9873 70.4742C27.8102 70.5267 27.6239 70.5406 27.441 70.515H20.359C19.6544 70.5552 18.949 70.4513 18.286 70.2093C17.623 69.9673 17.0165 69.5925 16.5034 69.1079C15.9904 68.6232 15.5816 68.0389 15.3024 67.3907C15.0231 66.7425 14.8791 66.0442 14.8793 65.3385C14.8794 64.6327 15.0237 63.9344 15.3032 63.2863C15.5827 62.6383 15.9917 62.0541 16.5049 61.5697C17.0181 61.0852 17.6249 60.7107 18.288 60.4689C18.951 60.2272 19.6565 60.1235 20.3611 60.164H20.359ZM20.052 64.07H26.2411C26.5776 64.07 26.9003 64.2037 27.1383 64.4417C27.3763 64.6797 27.51 65.0025 27.51 65.3391C27.51 65.6756 27.3763 65.9983 27.1383 66.2363C26.9003 66.4743 26.5776 66.608 26.2411 66.608H20.052C19.7154 66.6076 19.3929 66.4736 19.1552 66.2353C18.9174 65.997 18.7841 65.674 18.7845 65.3375C18.7849 65.0009 18.9191 64.6783 19.1573 64.4406C19.3956 64.2029 19.7185 64.0696 20.0551 64.07H20.052ZM33.073 63.0939V69.366C33.0439 69.6754 32.9004 69.9628 32.6707 70.172C32.4409 70.3811 32.1413 70.497 31.8306 70.497C31.5198 70.497 31.2203 70.3811 30.9905 70.172C30.7607 69.9628 30.6172 69.6754 30.588 69.366V61.474C30.5807 61.2986 30.61 61.1237 30.6742 60.9604C30.7384 60.7971 30.836 60.649 30.9607 60.5256C31.0854 60.4022 31.2346 60.3062 31.3986 60.2437C31.5625 60.1813 31.7379 60.1538 31.9131 60.163C32.8719 60.232 33.7955 60.5524 34.5911 61.092C37.5751 62.927 39.4421 66.4501 42.7831 67.7251V61.41C42.7831 61.2482 42.8149 61.088 42.8768 60.9386C42.9387 60.7891 43.0295 60.6533 43.1439 60.5389C43.2583 60.4245 43.3941 60.3337 43.5436 60.2718C43.6931 60.2099 43.8532 60.1781 44.015 60.1781C44.1768 60.1781 44.3371 60.2099 44.4866 60.2718C44.636 60.3337 44.7718 60.4245 44.8862 60.5389C45.0006 60.6533 45.0914 60.7891 45.1533 60.9386C45.2152 61.088 45.2471 61.2482 45.2471 61.41V69.1781C45.2677 69.354 45.249 69.5323 45.1925 69.7002C45.136 69.868 45.0432 70.0214 44.9204 70.1491C44.7977 70.2768 44.6482 70.3757 44.4827 70.4388C44.3171 70.5019 44.1396 70.5276 43.963 70.514C43.0639 70.484 42.1815 70.2635 41.374 69.867C38.847 68.55 36.691 66.031 34.594 64.104C34.1911 63.6335 33.6657 63.2838 33.076 63.0939H33.073ZM50.406 65.856V65.993C51.8683 65.3457 53.4474 65.0036 55.0465 64.9876C56.6456 64.9716 58.2311 65.2821 59.7061 65.9V65.841C59.7091 61.504 50.3881 61.5841 50.4091 65.8551L50.406 65.856ZM50.406 68.847V69.385C50.406 70.849 47.9331 70.891 47.9331 69.385V66.1521C47.9331 58.1971 62.082 58.252 62.082 65.816V69.5C62.082 70.829 59.7051 70.864 59.7051 69.5V68.828C58.1731 67.176 52.5231 66.919 50.4091 68.846L50.406 68.847ZM67.6061 70.515C66.8071 70.4999 66.0438 70.1816 65.4709 69.6245C64.8981 69.0674 64.5584 68.3132 64.521 67.515V61.635C64.521 59.684 66.932 59.698 66.932 61.635V67.248C66.9367 67.3537 66.9628 67.4572 67.0085 67.5526C67.0543 67.6479 67.1189 67.733 67.1984 67.8028C67.2778 67.8726 67.3706 67.9255 67.4711 67.9586C67.5715 67.9916 67.6777 68.0039 67.7831 67.995H74.2351C74.4186 67.9634 74.6067 67.9723 74.7864 68.0211C74.966 68.0698 75.1329 68.1572 75.2753 68.2772C75.4176 68.3971 75.5321 68.5468 75.6106 68.7157C75.6891 68.8845 75.7297 69.0683 75.7297 69.2545C75.7297 69.4406 75.6891 69.6246 75.6106 69.7934C75.5321 69.9622 75.4176 70.1118 75.2753 70.2318C75.1329 70.3517 74.966 70.4391 74.7864 70.4879C74.6067 70.5366 74.4186 70.5456 74.2351 70.514L67.6061 70.515ZM73.4911 60.163H84.498C84.8257 60.1723 85.1368 60.3089 85.3652 60.5439C85.5937 60.7789 85.7216 61.0937 85.7216 61.4215C85.7216 61.7492 85.5937 62.0641 85.3652 62.2991C85.1368 62.5342 84.8257 62.6708 84.498 62.68H80.254V69.268C80.2448 69.5957 80.1082 69.9067 79.8732 70.1352C79.6382 70.3637 79.3234 70.4915 78.9956 70.4915C78.6678 70.4915 78.3529 70.3637 78.1179 70.1352C77.8829 69.9067 77.7463 69.5957 77.7371 69.268V62.68H73.493C73.1654 62.671 72.8542 62.5346 72.6255 62.2998C72.3968 62.0649 72.2688 61.7502 72.2686 61.4224C72.2683 61.0947 72.3959 60.7798 72.6241 60.5446C72.8524 60.3094 73.1635 60.1725 73.4911 60.163V60.163ZM91.942 69.269V65.982L86.942 62.47C86.6767 62.2751 86.4984 61.9839 86.4452 61.659C86.392 61.3341 86.4681 61.0013 86.6573 60.7319C86.8466 60.4625 87.1338 60.2779 87.4575 60.2177C87.7812 60.1576 88.1156 60.2266 88.389 60.41L93.196 63.79L98.0031 60.41C98.2762 60.2187 98.6142 60.1436 98.9427 60.2012C99.2713 60.2589 99.5635 60.4444 99.7552 60.7172C99.947 60.9901 100.023 61.328 99.9657 61.6566C99.9087 61.9852 99.7236 62.2778 99.451 62.47L94.451 65.982V69.269C94.4258 69.5845 94.2826 69.879 94.05 70.0937C93.8175 70.3084 93.5126 70.4277 93.196 70.4277C92.8795 70.4277 92.5746 70.3084 92.342 70.0937C92.1095 69.879 91.9663 69.5845 91.941 69.269H91.942Z" fill="white"/>
<path fill-rule="evenodd" clip-rule="evenodd" d="M19.741 36.007C14.4105 34.7954 8.926 34.4072 3.47803 34.856C8.92741 33.9419 14.4579 33.6044 19.978 33.849C26.8387 34.2617 33.6238 35.5067 40.184 37.5569C42.853 38.3749 45.448 39.173 48.032 40.08C49.363 40.547 50.691 40.9539 52.026 41.4319C58.614 43.7899 71.281 49.332 77.4 46.524L64.7 54.033C61.671 55.825 58.525 54.326 55.713 52.933C51.949 51.065 48.365 48.905 44.745 46.816C42.304 45.407 39.845 44.029 37.306 42.795C31.711 40.073 25.82 37.417 19.741 36.007ZM7.09998 33.424C23.367 30.207 37.962 30.712 52.03 31.971C66.843 33.298 88.686 38.594 96.522 35.278L82.778 43.403C79.656 45.248 76.0379 44.903 72.7159 43.969C65.3779 41.904 58.066 39.755 50.731 37.685C36.602 33.698 21.7601 31.537 7.10205 33.424H7.09998Z" fill="white"/>
</g>
<defs>
<clipPath id="clip0_119_1180">
<rect width="100" height="100" fill="white"/>
</clipPath>
</defs>
</svg>
