<svg width="100" height="100" viewBox="0 0 100 100" fill="none" xmlns="http://www.w3.org/2000/svg">
<g clip-path="url(#clip0_119_1114)">
<path d="M73.3818 42.825C81.4998 39.254 86.7989 33.8921 87.0869 27.9431C87.0869 27.9431 84.9458 26.291 78.0278 23.743C74.5681 22.4378 70.9757 21.5163 67.3149 20.9951L67.3359 34.251C67.2761 36.3925 66.4615 38.4439 65.0359 40.043C60.1246 38.8787 55.0933 38.2973 50.0459 38.311C44.993 38.2973 39.9562 38.8804 35.04 40.048C33.6129 38.4468 32.7981 36.3922 32.74 34.248L32.761 20.992C29.1005 21.5133 25.5082 22.4349 22.0488 23.7401C15.1298 26.2841 12.99 27.94 12.99 27.94C13.278 33.892 18.5809 39.256 26.7039 42.826C18.5859 46.397 13.2859 51.7591 12.9989 57.7081C12.9989 57.7081 15.1399 59.36 22.0579 61.908C25.5173 63.2131 29.1096 64.135 32.77 64.657L32.749 51.4C32.8094 49.2586 33.6238 47.2074 35.0488 45.608C39.9601 46.7724 44.9917 47.3538 50.0391 47.34V47.34C55.0923 47.3535 60.1292 46.7709 65.0459 45.6041C66.4731 47.2053 67.2879 49.2598 67.3459 51.404L67.325 64.6611C70.9854 64.139 74.5774 63.2172 78.0369 61.912C84.9559 59.368 87.0959 57.712 87.0959 57.712C86.8089 51.756 81.5058 46.396 73.3818 42.825ZM50.042 45.808H50.0359H49.884C45.8149 45.9211 41.7957 44.8896 38.2839 42.831C41.7972 40.7691 45.8188 39.7355 49.8909 39.848H50.042H50.0479H50.199C54.268 39.7352 58.2869 40.7667 61.7988 42.825C58.2854 44.8872 54.2633 45.9209 50.1909 45.808H50.042Z" fill="white"/>
<path d="M2.36794 79.3411C2.03963 79.3802 1.70679 79.3426 1.39541 79.2315C1.08402 79.1204 0.802529 78.9386 0.573142 78.7005C0.343755 78.4624 0.172716 78.1744 0.073264 77.8591C-0.0261876 77.5438 -0.0512456 77.2097 2.18004e-05 76.8831V73.6511C2.18004e-05 73.4511 -0.0160759 73.1961 0.399924 73.1961H1.6C1.991 73.1961 1.96694 73.4721 1.96694 73.6511V76.8831C1.955 77.0008 1.97016 77.1197 2.01113 77.2307C2.0521 77.3416 2.11784 77.4417 2.20339 77.5234C2.28895 77.6051 2.39204 77.6662 2.50478 77.702C2.61753 77.7378 2.73701 77.7474 2.85403 77.73H4.87295C4.98928 77.7457 5.10772 77.7349 5.21926 77.6983C5.3308 77.6617 5.43259 77.6004 5.51711 77.519C5.60164 77.4375 5.66663 77.338 5.7073 77.2278C5.74797 77.1177 5.76326 77 5.75198 76.8831V73.6511C5.75198 73.4721 5.72694 73.1961 6.11794 73.1961H7.32998C7.76998 73.1961 7.73 73.4721 7.73 73.6511V76.8831C7.78094 77.2105 7.75534 77.5451 7.65517 77.8609C7.55501 78.1767 7.38303 78.465 7.15273 78.7032C6.92243 78.9413 6.64004 79.1228 6.32778 79.2335C6.01552 79.3441 5.6818 79.3811 5.35293 79.3411H2.36794Z" fill="white"/>
<path d="M13.52 78.9511C12.697 77.8431 11.525 76.4511 10.329 74.9781V78.9101C10.329 79.0801 10.37 79.3411 9.96299 79.3411H8.83995C8.43195 79.3411 8.48191 79.0801 8.48191 78.9101V73.6511C8.48191 73.4721 8.46595 73.1961 8.83995 73.1961H11.0279C11.6479 73.1961 12.528 74.4411 13.104 75.2641C13.552 75.8901 14.374 76.8341 14.927 77.5421V73.6511C14.927 73.4721 14.9019 73.1961 15.3089 73.1961H16.5299C16.9199 73.1961 16.897 73.4721 16.897 73.6511V79.3411H14.6499C14.4439 79.3777 14.232 79.3609 14.0343 79.2927C13.8365 79.2244 13.6596 79.1069 13.52 78.9511Z" fill="white"/>
<path d="M22.7739 77.7211C23.7579 77.7211 23.6851 76.7771 23.6851 76.3451C23.6851 74.8961 23.279 74.8401 22.626 74.8401H19.5339V77.7211H22.7739ZM17.6379 79.3411V73.203H23.0591C23.3825 73.1608 23.7112 73.1891 24.0227 73.2859C24.3342 73.3826 24.6211 73.5456 24.8638 73.7635C25.1064 73.9815 25.2992 74.2493 25.4287 74.5487C25.5582 74.8481 25.6214 75.1719 25.614 75.498C25.614 77.883 25.8739 79.3411 23.1069 79.3411H20.1851L19.55 78.0541V79.3411H17.6379Z" fill="white"/>
<path d="M27.7388 73.2441H32.7388C33.1618 73.2441 33.105 73.52 33.105 74.034C33.105 74.514 33.1698 74.783 32.7388 74.783H28.7908C28.6848 74.783 28.327 74.725 28.327 75.1C28.327 75.475 28.2539 75.621 28.6529 75.621H32.1448C32.1448 75.621 32.6448 76.5831 32.7068 76.7441C32.7878 76.8901 32.78 77.029 32.47 77.029H28.856L28.295 75.938V77.5511C28.295 77.9251 28.6279 77.851 28.7259 77.851H32.826C33.233 77.851 33.201 78.1351 33.201 78.5991C33.201 79.0991 33.233 79.372 32.826 79.372H27.6329C27.2019 79.372 26.355 79.2421 26.355 77.8911V74.5041C26.3521 74.327 26.3868 74.1514 26.4571 73.9888C26.5273 73.8263 26.6313 73.6805 26.7623 73.5613C26.8932 73.4421 27.048 73.3523 27.2164 73.2975C27.3848 73.2428 27.5628 73.2246 27.7388 73.2441V73.2441Z" fill="white"/>
<path d="M38.8069 74.822H36.3738C35.9668 74.822 35.9829 74.961 35.9829 75.083V76.183H38.4898C39.7028 76.183 39.7029 75.883 39.7029 75.564C39.7029 74.928 39.6499 74.822 38.8069 74.822ZM34.4529 73.2029H39.9229C40.6559 73.2029 41.7229 73.1951 41.7229 75.1721C41.7229 76.4721 41.4469 76.533 40.8599 76.931C41.8449 77.102 41.7139 78.363 41.7139 79.015C41.7139 79.348 41.5919 79.341 41.4949 79.341H39.8948C39.5608 79.341 39.6419 78.811 39.6419 78.534C39.6419 77.777 39.2179 77.809 39.0559 77.809H36.6958C36.4688 77.419 36.0288 76.539 36.0288 76.539V79.087C36.0288 79.307 35.8098 79.34 35.7288 79.34H34.1167C34.2057 79.34 33.9539 79.356 33.9539 79.14V73.735C33.9475 73.6667 33.9556 73.5977 33.9778 73.5327C34 73.4676 34.0357 73.408 34.0825 73.3577C34.1294 73.3075 34.1862 73.2678 34.2495 73.2412C34.3128 73.2145 34.3811 73.2014 34.4497 73.2029H34.4529Z" fill="white"/>
<path d="M50.4879 74.945C50.3979 75.1 49.5429 76.6451 49.4789 76.7851C49.4379 76.8501 49.479 76.8741 49.568 76.8741H51.4449C51.5499 76.8741 51.575 76.8491 51.545 76.7851C51.479 76.6461 50.6649 75.1 50.5839 74.938C50.5793 74.9288 50.5721 74.9211 50.5631 74.916C50.5541 74.9108 50.5439 74.9086 50.5336 74.9094C50.5233 74.9101 50.5134 74.9139 50.5052 74.9202C50.4971 74.9266 50.4911 74.9352 50.4879 74.945V74.945ZM51.139 73.2451C51.539 73.2451 51.9299 73.4241 52.3519 74.2451C52.6369 74.8311 54.623 78.422 55.038 79.17V79.3701H52.9698L52.3759 78.295H49.861C49.861 78.295 49.438 77.327 49.317 77.058C49.162 77.31 48.331 78.8891 48.046 79.3701H45.9698V79.2401C46.3928 78.4401 49.2841 73.2401 49.2841 73.2401L51.139 73.2451Z" fill="white"/>
<path d="M60.4569 74.822H58.0231C57.6161 74.822 57.6329 74.961 57.6329 75.083V76.1831H60.1391C61.3531 76.1831 61.3529 75.8831 61.3529 75.5641C61.3569 74.9281 61.3069 74.822 60.4569 74.822ZM56.1029 73.203H61.5729C62.3059 73.203 63.3729 73.1951 63.3729 75.1721C63.3729 76.4721 63.0969 76.533 62.5099 76.931C63.4949 77.102 63.3639 78.363 63.3639 79.015C63.3639 79.348 63.2419 79.341 63.1449 79.341H61.5451C61.2121 79.341 61.2929 78.811 61.2929 78.534C61.2929 77.777 60.8699 77.809 60.7069 77.809H58.3471C58.1191 77.419 57.6791 76.539 57.6791 76.539V79.087C57.6791 79.307 57.46 79.3401 57.379 79.3401H55.766C55.857 79.3401 55.6049 79.356 55.6049 79.14V73.7351C55.5983 73.6663 55.6064 73.5968 55.6288 73.5315C55.6512 73.4661 55.6872 73.4063 55.7345 73.3559C55.7818 73.3056 55.8393 73.266 55.9032 73.2396C55.9671 73.2132 56.0358 73.2007 56.1049 73.203H56.1029Z" fill="white"/>
<path d="M68.1501 79.341C67.7441 78.575 66.6131 76.4671 65.8501 75.0841V78.91C65.8501 79.08 65.8741 79.341 65.4841 79.341H64.3772C63.9622 79.341 63.9941 79.08 63.9941 78.91V73.651C63.9941 73.471 63.9702 73.203 64.3772 73.203H66.2871C66.5731 73.203 66.98 73.138 67.436 74.049C67.778 74.783 68.502 76.296 68.998 77.102C69.5838 76.1127 70.118 75.0937 70.5981 74.049C71.0461 73.138 71.4441 73.203 71.7631 73.203H73.663C74.054 73.203 74.0131 73.471 74.0131 73.651V78.91C74.0131 79.08 74.07 79.341 73.663 79.341H72.5481C72.1411 79.341 72.1731 79.08 72.1731 78.91V75.0841C71.4001 76.4681 70.273 78.575 69.853 79.341H68.1501Z" fill="white"/>
<path d="M80.1168 77.777C81.0368 77.777 81.0037 76.826 81.0037 76.19C81.0037 75.621 81.1338 74.725 79.9378 74.725H77.9058C76.7178 74.725 76.8558 75.625 76.8558 76.19C76.8558 76.826 76.7988 77.777 77.7188 77.777H80.1168ZM76.4698 79.357C74.6548 79.357 74.7369 77.411 74.7369 76.149C74.7369 74.994 74.6058 73.186 76.8768 73.171H80.9068C83.1858 73.171 83.0379 75.002 83.0379 76.149C83.0379 77.411 83.1269 79.357 81.2879 79.357H76.4698Z" fill="white"/>
<path d="M86.0719 79.3411C85.7436 79.3802 85.4107 79.3426 85.0993 79.2315C84.7879 79.1204 84.5064 78.9386 84.277 78.7005C84.0476 78.4624 83.8767 78.1744 83.7772 77.8591C83.6778 77.5438 83.6527 77.2097 83.704 76.8831V73.6511C83.704 73.4511 83.6879 73.1961 84.1039 73.1961H85.309C85.701 73.1961 85.6759 73.4721 85.6759 73.6511V76.8831C85.6638 77.0008 85.6788 77.1195 85.7196 77.2305C85.7605 77.3415 85.826 77.4417 85.9115 77.5234C85.997 77.6051 86.1001 77.6663 86.2128 77.7021C86.3255 77.7379 86.4449 77.7474 86.5619 77.73H88.581C88.6973 77.7459 88.8158 77.7352 88.9274 77.6987C89.039 77.6622 89.1409 77.6008 89.2255 77.5193C89.3101 77.4379 89.3751 77.3383 89.4157 77.2281C89.4563 77.1179 89.4713 77 89.4599 76.8831V73.6511C89.4599 73.4721 89.4348 73.1961 89.8258 73.1961H91.039C91.479 73.1961 91.4389 73.4721 91.4389 73.6511V76.8831C91.4898 77.2104 91.4643 77.545 91.3642 77.8607C91.264 78.1764 91.0921 78.4646 90.862 78.7027C90.6318 78.9408 90.3494 79.1223 90.0373 79.2331C89.7251 79.3439 89.3917 79.3809 89.0629 79.3411H86.0719Z" fill="white"/>
<path d="M97.0857 74.822H94.6528C94.2458 74.822 94.2608 74.9609 94.2608 75.0829V76.183H96.7678C97.9818 76.183 97.9817 75.883 97.9817 75.564C97.9817 74.928 97.9327 74.822 97.0857 74.822ZM92.7307 73.2029H98.2007C98.9337 73.2029 100.001 73.195 100.001 75.172C100.001 76.472 99.7237 76.533 99.1377 76.931C100.123 77.102 99.9917 78.3629 99.9917 79.0149C99.9917 79.3479 99.8687 79.341 99.7717 79.341H98.1719C97.8379 79.341 97.9197 78.811 97.9197 78.534C97.9197 77.777 97.4948 77.809 97.3338 77.809H94.9729C94.7439 77.419 94.3047 76.539 94.3047 76.539V79.087C94.3047 79.307 94.0849 79.34 94.0049 79.34H92.3928C92.4828 79.34 92.2307 79.3559 92.2307 79.1399V73.735C92.2243 73.6663 92.2327 73.597 92.2551 73.5317C92.2776 73.4664 92.3136 73.4066 92.3609 73.3563C92.4081 73.3059 92.4655 73.2662 92.5293 73.2398C92.5931 73.2134 92.6617 73.2008 92.7307 73.2029V73.2029Z" fill="white"/>
</g>
<defs>
<clipPath id="clip0_119_1114">
<rect width="100" height="100" fill="white"/>
</clipPath>
</defs>
</svg>
