<svg width="79" height="76" viewBox="0 0 79 76" fill="none" xmlns="http://www.w3.org/2000/svg">
<path fill-rule="evenodd" clip-rule="evenodd" d="M16.432 49.8561C16.669 49.5521 16.906 49.3241 17.222 49.0201L18.723 47.3481C19.75 46.2841 20.777 45.0681 21.725 44.0041C21.804 43.9281 22.436 43.2441 22.436 43.1681H17.854C17.696 43.1681 17.696 43.1681 17.538 43.2441C16.748 44.1561 15.8 45.2201 15.01 46.1321C14.378 46.8921 13.588 47.7281 12.956 48.4881C12.877 48.6401 12.719 48.7161 12.64 48.8681C12.561 48.9441 12.403 49.1721 12.245 49.2481V43.1681H8.37402V59.3561H8.53202C9.63802 59.3561 11.139 59.3561 12.166 59.3561C12.166 57.7601 12.166 56.0881 12.166 54.4921C12.166 54.2641 12.166 54.2641 12.245 54.1881L13.351 52.9721C13.43 52.8961 13.43 52.8201 13.588 52.7441C14.22 53.8081 15.089 55.0241 15.721 56.0881L17.301 58.5961C17.38 58.7481 17.459 58.9001 17.538 58.9761C17.617 59.0521 17.696 59.2801 17.775 59.4321H22.594L22.199 58.8241C21.251 57.5321 20.303 56.0121 19.355 54.7201C19.197 54.4921 19.118 54.3401 18.96 54.1121L16.985 51.1481C17.064 50.7681 16.511 50.0081 16.432 49.8561ZM66.123 53.9601C66.123 54.4161 66.044 55.0241 65.965 55.4801C65.728 56.8481 63.911 57.6841 62.963 56.8481C62.41 56.2401 62.41 55.1001 63.358 54.6441C63.753 54.4921 64.306 54.4161 64.78 54.3401C65.649 54.1881 65.965 53.9601 66.123 53.9601ZM62.805 51.4521C62.805 50.7681 62.884 50.3881 63.279 50.0081C63.674 49.7041 64.227 49.5521 64.78 49.6281C65.096 49.6281 65.333 49.7041 65.491 49.8561C66.044 50.2361 66.044 50.6921 65.965 51.3001C65.965 51.6041 65.965 51.7561 65.649 51.9081C65.254 52.0601 64.543 52.2121 63.99 52.2121C63.437 52.2881 62.805 52.3641 62.252 52.4401C61.146 52.6681 60.356 52.8961 59.645 53.6561C58.381 55.0241 58.381 57.9121 60.198 58.9761C61.067 59.5081 62.331 59.5841 63.516 59.4321C64.701 59.2801 65.491 58.8241 66.202 58.2161C66.281 58.2921 66.36 58.9761 66.439 59.1281H70.152V58.7481C70.073 58.6721 69.994 58.7481 69.836 58.5961C69.599 58.3681 69.52 57.9121 69.52 57.6081C69.52 57.0761 69.52 56.5441 69.52 55.9361C69.52 54.7961 69.52 53.7321 69.52 52.6681C69.52 50.6921 69.678 48.8681 67.782 47.7281C66.36 46.8921 63.753 46.8161 62.015 47.3481C60.435 47.8801 59.329 49.4001 59.329 51.3761L62.805 51.4521ZM29.704 53.9601C29.625 55.1761 29.704 55.8601 28.914 56.5441C27.571 57.8361 25.833 57.0001 26.149 55.5561C26.386 54.4921 27.334 54.4921 28.282 54.3401C28.677 54.2641 28.914 54.1881 29.309 54.0361C29.467 54.0361 29.546 53.9601 29.704 53.9601ZM26.386 51.5281C26.386 50.8441 26.544 50.4641 26.86 50.0841C27.413 49.6281 28.598 49.5521 29.151 49.9321C29.309 50.0081 29.546 50.2361 29.546 50.4641C29.625 50.6921 29.625 51.0721 29.625 51.3761C29.625 51.7561 29.546 51.8321 29.309 51.9841C28.914 52.1361 28.124 52.2881 27.65 52.2881C27.097 52.3641 26.465 52.4401 25.991 52.5161C24.806 52.7441 24.016 53.0481 23.384 53.7321C22.752 54.4161 22.436 55.4801 22.515 56.6201C22.752 59.1281 24.885 59.8121 27.255 59.4321C27.887 59.3561 28.282 59.2041 28.756 58.9761C29.309 58.7481 29.546 58.4441 29.862 58.2161C29.941 58.4441 30.02 58.9761 30.099 59.1281H33.812V58.6721C33.575 58.5961 33.417 58.5201 33.338 58.2921C33.101 57.6841 33.18 56.6201 33.18 55.9361C33.18 54.7961 33.18 53.7321 33.18 52.6681C33.18 50.6921 33.417 48.9441 31.442 47.7281C30.02 46.8921 27.334 46.8161 25.675 47.3481C23.937 47.9561 22.989 49.6281 22.989 51.3761L26.386 51.5281ZM50.323 53.8841C50.165 52.1361 50.639 50.3121 52.14 49.9321C53.009 49.7041 53.799 50.1601 54.194 50.6921C54.668 51.3001 54.826 51.9081 54.905 52.8201C55.063 54.4921 54.589 56.3921 53.088 56.7721C52.14 57.0001 51.35 56.5441 50.955 56.0121C50.56 55.4801 50.402 54.7201 50.323 53.8841ZM50.481 58.4441C50.56 58.5201 50.56 58.5201 50.639 58.5961L51.034 58.9001C52.535 59.8881 54.984 59.7361 56.406 58.6721C57.907 57.5321 58.618 55.4801 58.539 53.0481C58.539 51.9081 58.302 50.7681 57.828 49.8561C57.67 49.4001 57.354 49.0201 57.038 48.6401C56.09 47.4241 54.431 46.8161 52.772 47.1201C51.192 47.3481 50.402 48.4121 50.244 48.4881V47.4241H46.847V63.4601H50.402L50.481 58.4441ZM42.423 53.7321C42.344 54.6441 42.186 55.3281 41.791 55.9361C41.396 56.4681 40.685 56.9241 39.737 56.7721C37.999 56.4681 37.841 54.3401 37.841 52.8961C37.92 51.3001 38.631 49.5521 40.527 49.9321C42.186 50.2361 42.502 52.3641 42.423 53.7321ZM37.999 58.4441C37.999 58.4441 38.473 58.8241 38.552 58.9001C40.132 59.8881 42.502 59.7361 43.924 58.6721C45.346 57.6081 46.136 55.4801 46.136 53.0481C46.057 50.6921 45.267 48.7161 43.608 47.7281C42.265 46.8921 40.369 46.7401 38.947 47.6521C38.236 48.1081 38.078 48.3361 37.841 48.4881V47.4241H34.444V63.4601H37.999V58.4441Z" fill="white"/>
<path d="M70.8631 40.584C70.7841 40.508 70.6261 40.432 70.6261 40.432H70.3101C70.2311 40.432 70.0731 40.432 69.9941 40.356C69.5991 40.204 69.2831 40.052 68.8881 39.824C68.1771 39.368 67.4661 38.836 66.7551 38.38C66.7551 38.38 66.7551 38.38 66.6761 38.38C66.3601 38.152 65.8861 38.076 65.5701 37.924C65.0961 37.696 64.7011 37.468 64.3061 37.012C63.8321 36.48 63.4371 35.948 62.9631 35.416C61.6991 33.896 60.8301 32.452 59.7241 30.932C59.4081 30.476 58.7761 29.716 58.4601 29.26C58.3021 29.032 58.1441 28.88 58.1441 28.88C58.1441 28.804 58.2231 28.652 58.2231 28.576C58.3811 27.892 58.5391 27.512 58.5391 26.904V26.676C58.5391 26.524 58.1441 26.22 57.9071 26.068L57.5121 26.144C57.4331 26.6 57.1961 26.6 56.8801 26.6C56.8011 26.6 56.6431 26.6 56.3271 26.6C56.1691 26.6 55.9321 26.676 55.7741 26.752C55.6951 26.752 55.6161 26.828 55.5371 26.828C55.4581 26.828 55.3791 26.904 55.3001 26.98C55.2211 26.98 54.8261 27.284 54.6681 27.284C54.3521 27.284 53.3251 26.904 53.1671 26.752C53.0881 26.676 53.0881 26.524 53.0091 26.448C53.0091 26.22 52.9301 25.992 52.7721 25.764C52.6141 25.46 52.4561 25.156 52.2981 24.776H50.0861C50.0861 24.852 50.0071 24.852 50.0861 24.928H49.8491C49.7701 24.928 49.6911 24.852 49.6121 24.776C49.1381 24.548 48.6641 24.244 48.1901 23.94C48.0321 23.864 47.8741 23.712 47.7161 23.636C47.6371 23.636 47.0051 23.256 47.0051 23.028C47.0051 22.952 47.3211 22.268 47.4791 21.964C47.5581 21.888 47.5581 21.736 47.6371 21.66C47.7951 21.508 47.9531 21.432 48.1111 21.432C48.1901 21.432 48.2691 21.432 48.2691 21.432C48.5061 21.66 48.6641 21.888 48.8221 22.116C49.0591 22.496 49.2171 22.876 49.3751 23.256C49.6121 23.712 50.0071 24.7 50.0071 24.776H52.2191C51.6661 23.864 51.1131 22.952 50.5601 22.04C50.3231 21.66 50.0071 21.204 49.7701 20.824C49.7701 20.748 49.7701 20.672 49.6911 20.596C49.6911 20.444 49.6121 20.292 49.6121 20.216C49.6121 19.912 49.8491 20.14 49.8491 19.76C49.8491 19.608 49.8491 19.532 49.6911 19.304C49.6121 19.152 49.6911 19 49.6121 18.924C49.5331 18.848 49.4541 18.772 49.3751 18.772C49.3751 18.62 49.4541 18.392 49.4541 18.392C49.4541 18.316 49.2961 17.936 49.2961 17.86C49.2961 17.784 49.5331 17.48 49.5331 17.404C49.5331 17.328 49.4541 17.252 49.4541 17.252C49.2961 17.176 49.1381 17.1 48.9801 17.024C48.9011 16.948 48.7431 16.872 48.6641 16.796C48.5851 16.72 48.5851 16.492 48.5851 16.416C48.5851 16.112 48.1111 15.808 48.0321 15.58C47.8741 15.276 47.9531 14.82 47.6371 14.516C47.5581 14.44 46.8471 13.908 46.4521 13.908C46.3731 13.908 45.9781 13.984 45.9781 13.984C45.8991 13.984 45.5831 13.908 45.4251 13.832H45.1091C45.0301 13.832 44.7931 14.136 44.7141 14.212C44.5561 14.288 44.3981 14.212 44.3191 14.288C44.2401 14.288 44.0821 14.364 43.9241 14.364C43.8451 14.364 43.6081 14.288 43.5291 14.288H43.2131C43.1341 14.288 43.0551 14.288 43.0551 14.364C42.8181 14.516 42.6601 14.668 42.5021 14.82C42.4231 14.896 42.4231 15.048 42.3441 15.124C42.2651 15.276 42.1071 15.428 42.0281 15.504C41.9491 15.58 41.9491 15.732 41.8701 15.884C41.7911 15.96 41.7121 16.112 41.7121 16.188C41.6331 16.72 41.4751 17.784 41.4751 17.86C41.4751 18.012 41.5541 17.936 41.6331 18.088C41.6331 18.164 41.6331 18.24 41.6331 18.316C41.6331 18.392 41.7121 18.392 41.7911 18.468C41.8701 18.772 41.9491 19.228 42.1071 19.532C42.1861 19.684 42.1861 19.836 42.3441 19.988C42.5021 20.216 42.5811 20.292 42.5811 20.52C42.5811 20.9 42.5021 20.748 42.1071 21.052C42.0281 21.052 42.0281 21.204 42.0281 21.204C42.1071 21.356 42.3441 21.66 42.3441 21.812C42.3441 21.964 41.8701 22.192 41.8701 22.268C41.8701 22.42 42.0281 22.648 42.0281 22.952C42.0281 23.028 42.0281 23.104 42.0281 23.18C42.0281 23.256 41.8701 23.256 41.8701 23.332C41.5541 23.864 41.1591 24.32 40.8431 24.852L40.6851 25.08C40.5271 25.308 40.3691 25.536 40.2901 25.764C40.0531 26.22 39.8161 26.752 39.6581 27.284C39.5001 27.284 39.4211 26.828 39.3421 26.752C39.3421 26.676 39.2631 26.524 39.1841 26.448C39.1841 26.372 39.1051 26.22 39.1051 26.144C38.9471 25.84 38.7101 25.46 38.5521 25.156L38.3941 24.852C38.3151 24.776 38.2361 24.624 38.2361 24.548C37.9991 24.092 37.6831 23.636 37.4461 23.104C37.3671 22.952 37.1301 22.8 37.0511 22.648C36.8931 22.344 36.2611 21.812 35.8661 21.508C36.0241 21.356 36.1031 21.052 36.1031 20.976C36.1031 20.748 35.7871 20.824 35.7871 20.672C35.7871 20.52 35.8661 20.596 36.0241 20.368C35.9451 20.14 35.7081 20.216 35.6291 20.216V20.064C35.6291 19.988 35.7081 19.836 35.7871 19.76L35.3921 19.152C35.3921 19.076 35.3921 19 35.3921 18.924H35.5501C35.5501 19 35.6291 19 35.7081 19C35.7081 17.632 35.7081 17.556 35.7081 17.556C35.7081 17.48 35.7081 17.404 35.7081 17.328C35.7081 17.252 35.6291 16.796 35.6291 16.72C35.6291 16.644 35.6291 16.644 35.6291 16.568C35.6291 16.492 35.7081 16.416 35.7081 16.416C35.7081 16.34 35.5501 15.96 35.5501 15.884V15.2C35.5501 15.124 35.5501 15.048 35.5501 14.972C35.5501 14.82 35.4711 14.668 35.3921 14.516C35.3131 14.364 35.1551 14.212 35.0761 14.136C35.0761 14.136 35.0761 14.06 34.9971 13.984C34.9181 13.832 34.7601 13.756 34.6021 13.604C34.5231 13.528 34.4441 13.604 34.3651 13.528C34.0491 13.224 33.8121 13.224 33.4961 13.224C33.3381 13.072 32.9431 12.92 32.7061 12.92C32.6271 12.92 32.3901 12.92 32.3111 12.996C32.0741 13.072 31.9951 13.148 31.8371 13.148C31.6001 13.148 31.4421 12.996 31.2841 12.996C31.2051 12.996 31.1261 13.148 31.0471 13.148H30.1781C30.0991 13.148 29.9411 13.224 29.8621 13.224C29.7831 13.376 29.6251 13.528 29.5461 13.604C29.4671 13.68 29.3881 13.68 29.3091 13.68C29.2301 13.756 29.1511 13.832 29.0721 13.908C28.9931 13.908 28.9141 13.984 28.9141 13.984C28.6771 14.212 28.1241 14.592 28.1241 14.896C28.1241 15.124 28.1241 15.2 28.1241 15.2C28.1241 15.276 28.1241 15.352 28.1241 15.352C28.2031 15.504 28.3611 15.58 28.4401 15.656L28.1241 16.568C28.2031 16.644 28.2821 16.872 28.2821 17.024C27.9661 17.328 27.6501 17.632 27.3341 17.936C27.2551 18.012 27.2551 18.164 27.2551 18.164C27.2551 18.392 27.8871 18.544 27.8871 18.696V19C27.9661 19.076 28.0451 19.152 28.0451 19.228C28.0451 19.304 27.9661 19.76 27.9661 19.988C27.8081 20.748 27.4131 21.432 27.0971 22.192C26.9391 22.648 26.8601 23.18 26.6231 23.56C26.3071 24.092 24.4901 24.548 23.7791 24.548C23.5421 24.548 23.3051 24.548 23.1471 24.472C22.8311 24.396 22.9101 24.32 22.6731 24.32C22.1991 24.32 21.7251 24.7 21.4091 24.776H21.3301C21.3301 24.776 21.3301 24.776 21.2511 24.776H20.9351H21.2511C21.1721 24.776 21.1721 24.624 20.8561 24.624C20.7771 24.7 20.7771 24.7 20.6981 24.776C20.4611 25.232 20.3031 25.384 20.3031 25.764C20.3031 26.22 20.4611 26.6 20.6191 27.056C20.6981 27.208 20.8561 27.512 20.8561 27.588C20.8561 27.664 20.8561 27.74 20.7771 27.816C20.4611 28.348 20.0661 28.88 19.7501 29.412C19.6711 29.488 19.5921 29.64 19.5921 29.716C19.5131 29.944 19.3551 30.096 19.1971 30.324C18.8021 31.008 18.3281 31.692 17.8541 32.376L17.3801 32.908C16.1951 34.656 12.9561 37.24 10.1911 38.38C10.1121 38.38 10.0331 38.456 9.95411 38.456C9.63811 38.608 9.32211 38.684 9.00611 38.76C8.84811 38.836 8.61111 38.836 8.45311 38.912C8.29511 38.988 8.05811 39.064 8.05811 39.292C8.05811 39.52 8.37411 39.672 8.61111 39.748C8.69011 39.748 9.00611 39.748 9.00611 39.824C8.84811 39.976 8.69011 40.128 8.69011 40.28C8.69011 40.356 8.84811 40.508 8.92711 40.584C9.40111 40.66 9.87511 40.812 10.3491 40.888C10.4281 40.888 10.5071 40.964 10.5071 40.964H10.8231C10.9021 40.964 10.9811 40.964 10.9811 41.04H12.0871C12.8771 40.964 13.6671 40.66 14.5361 40.66L16.4321 40.888H17.2221C17.3011 40.888 17.6171 40.812 17.8541 40.66C18.0121 40.584 18.0911 40.356 18.0911 40.204C18.0911 39.976 18.0911 39.824 18.0911 39.748L17.9331 38.38V38.152C17.9331 38.076 18.0121 38 18.0121 37.924C18.4861 36.708 20.1451 35.568 21.2511 34.58C21.8831 33.972 22.6731 33.364 23.1471 32.756C23.4631 32.376 23.6211 31.996 23.9371 31.616C24.0161 31.54 24.0951 31.54 24.1741 31.54C24.2531 31.54 24.3321 31.54 24.4111 31.692C24.8061 32.604 25.2011 33.592 25.7541 34.504C26.3071 35.568 26.9391 36.632 27.6501 37.62C27.8081 37.848 28.0451 38.152 28.2031 38.38C28.6771 39.064 29.0721 39.672 29.6251 40.356C30.0201 40.812 30.5731 41.04 31.0471 41.116H34.5231C34.9181 41.04 35.3131 41.04 35.7081 40.812C35.7871 40.736 35.8661 40.584 35.9451 40.508C36.7351 39.748 37.2091 39.064 37.6831 38.304C37.9201 37.924 38.1571 37.62 38.3941 37.24C38.5521 37.012 38.7101 36.708 38.8681 36.404C39.1841 35.948 39.3421 35.492 39.5001 35.036C39.6581 34.732 39.7371 34.428 39.8161 34.2C39.8951 34.048 39.8951 33.82 40.0531 33.668C40.3691 34.124 40.3691 34.58 40.5271 34.96C40.6851 35.492 40.9221 36.1 41.0801 36.632C41.2381 37.012 41.3961 37.392 41.4751 37.772C41.5541 37.924 41.5541 38.152 41.5541 38.304C41.7121 39.52 41.7911 41.116 43.6081 41.268H46.9261C47.4001 41.192 47.9531 41.116 48.4271 40.964C48.6641 40.888 48.9011 40.812 49.0591 40.66C49.7701 40.204 50.6391 39.292 51.4291 38.304C52.0611 37.468 52.6931 36.632 53.2461 35.872C53.3251 35.72 53.4831 35.492 53.5621 35.34C54.3521 34.276 54.9051 33.212 55.6951 32.148H55.8531C56.3271 33.136 57.1171 34.2 58.1441 35.112C58.6181 35.568 59.0921 35.796 59.4871 36.176C59.5661 36.252 59.7241 36.252 59.8031 36.328C60.2771 36.784 60.8301 37.088 61.2251 37.544C61.3831 37.696 61.6991 38.076 62.0151 38.38C62.1731 38.608 62.3311 38.76 62.3311 38.912C62.3311 38.988 62.2521 39.14 62.2521 39.216C62.1731 39.444 62.1731 39.824 62.1731 39.824C62.1731 39.9 62.1731 39.9 62.1731 40.204C62.1731 40.356 62.2521 40.508 62.3311 40.66C62.4891 40.812 62.8051 40.964 62.9631 40.964H65.3331L66.6761 41.192H66.9921C67.0711 41.192 67.2291 41.268 67.3081 41.268H69.4411C69.5991 41.268 69.8361 41.268 69.9941 41.192C70.0731 41.192 70.8631 41.04 70.8631 40.812C70.8631 40.812 70.8631 40.66 70.8631 40.584ZM29.5461 20.748C29.5461 20.672 29.6251 20.672 29.7041 20.672C30.0201 20.672 30.2571 20.748 30.5731 21.128C30.6521 21.204 30.8101 21.432 30.8101 21.508C30.8101 21.584 30.8101 21.66 30.5731 21.812C30.4151 21.888 30.1781 21.964 29.9411 22.04C29.9411 22.04 29.3881 22.344 29.2301 22.344C29.1511 22.344 29.0721 22.344 29.0721 22.192C29.1511 22.116 29.3881 21.204 29.5461 20.748ZM32.5481 30.628L32.4691 32.528C32.4691 32.604 32.3901 33.44 32.0741 33.44C31.8371 33.44 31.4421 32.68 31.3631 32.604C31.1261 32.3 29.9411 30.476 29.1511 29.184C28.7561 28.5 28.4401 28.044 28.4401 28.044C28.4401 27.892 28.6771 27.816 28.7561 27.816C29.0721 27.664 29.3881 27.512 29.7041 27.36C29.8621 27.284 30.0201 27.208 30.1781 27.132C30.6521 26.904 31.2841 26.524 31.7581 26.372C31.8371 26.448 31.8371 26.448 31.8371 26.524C31.9161 26.828 31.9951 27.284 31.9951 27.36V27.664C31.9951 27.816 32.3111 29.032 32.3901 29.108V29.184C32.4691 29.412 32.7061 29.792 32.7061 30.02C32.7061 30.248 32.6271 30.476 32.5481 30.628ZM51.9821 29.26C51.9031 29.488 51.4291 29.792 51.2711 29.944C50.0861 31.084 48.9011 32.3 47.6371 33.364C47.4791 33.516 47.3211 33.592 47.1631 33.592C46.8471 33.592 46.8471 33.06 46.8471 32.832V32.3C46.9261 31.92 46.9261 31.388 47.4001 31.084C47.4001 31.084 47.4791 31.084 47.5581 31.084C47.7951 30.932 48.9011 30.628 48.9011 30.096C48.9011 29.868 48.7431 29.564 48.6641 29.336C48.5851 29.184 48.5851 29.108 48.5061 29.032C48.3481 28.652 48.1901 27.968 48.1901 27.968V27.892C49.4541 28.348 50.7181 28.728 51.9821 29.184C52.0611 29.184 52.0611 29.26 52.0611 29.336C51.9821 29.184 51.9821 29.184 51.9821 29.26Z" fill="white"/>
</svg>
