<svg width="20" height="20" viewBox="0 0 20 20" fill="none" xmlns="http://www.w3.org/2000/svg">
<path d="M9.99987 0C7.47712 0.00155664 5.04804 0.955893 3.19889 2.67197C1.34974 4.38804 0.216968 6.73922 0.0273487 9.25484C-0.162271 11.7705 0.605253 14.2649 2.17627 16.2387C3.74728 18.2126 6.00585 19.5203 8.49987 19.9V12.9H5.89987V10H8.39987V7.8C8.34589 7.29639 8.40365 6.78707 8.56904 6.30834C8.73444 5.82961 9.00338 5.39325 9.35672 5.03036C9.71006 4.66747 10.1391 4.38698 10.6132 4.20889C11.0874 4.03079 11.595 3.95947 12.0999 4C12.8373 4.00903 13.5729 4.0759 14.2999 4.2V6.6H13.0999C12.8926 6.57641 12.6826 6.59817 12.4846 6.66378C12.2866 6.72939 12.1052 6.83728 11.953 6.97997C11.8008 7.12265 11.6814 7.29673 11.6032 7.49013C11.5249 7.68353 11.4897 7.89162 11.4999 8.1V10H14.1999L13.7999 12.9H11.4999V19.9C13.9939 19.5203 16.2525 18.2126 17.8235 16.2387C19.3945 14.2649 20.162 11.7705 19.9724 9.25484C19.7828 6.73922 18.65 4.38804 16.8008 2.67197C14.9517 0.955893 12.5226 0.00155664 9.99987 0Z" fill="#757575"/>
</svg>
