<svg width="20" height="20" viewBox="0 0 20 20" fill="none" xmlns="http://www.w3.org/2000/svg">
<path d="M13.7001 8.87766e-05H6.20009C5.38467 -0.00428638 4.57648 0.153095 3.82229 0.463124C3.06809 0.773154 2.38287 1.22968 1.80628 1.80627C1.22968 2.38287 0.773154 3.06809 0.463124 3.82228C0.153095 4.57648 -0.00428638 5.38467 8.87765e-05 6.20009V13.7001C-0.00428638 14.5155 0.153095 15.3237 0.463124 16.0779C0.773154 16.8321 1.22968 17.5173 1.80628 18.0939C2.38287 18.6705 3.06809 19.127 3.82229 19.4371C4.57648 19.7471 5.38467 19.9045 6.20009 19.9001H13.7001C14.5155 19.9045 15.3237 19.7471 16.0779 19.4371C16.8321 19.127 17.5173 18.6705 18.0939 18.0939C18.6705 17.5173 19.127 16.8321 19.4371 16.0779C19.7471 15.3237 19.9045 14.5155 19.9001 13.7001V6.20009C19.8919 4.55826 19.2361 2.98599 18.0751 1.82503C16.9142 0.664066 15.3419 0.00823697 13.7001 8.87766e-05ZM18.0001 13.8001C17.9899 14.9639 17.5231 16.0771 16.7001 16.9001C15.8771 17.7231 14.7639 18.1899 13.6001 18.2001H6.10009C4.93629 18.1899 3.82304 17.7231 3.00007 16.9001C2.17711 16.0771 1.71027 14.9639 1.70009 13.8001V6.20009C1.71027 5.03629 2.17711 3.92304 3.00007 3.10007C3.82304 2.27711 4.93629 1.81027 6.10009 1.80009H13.6001C14.7639 1.81027 15.8771 2.27711 16.7001 3.10007C17.5231 3.92304 17.9899 5.03629 18.0001 6.20009V13.8001Z" fill="#757575"/>
<path d="M9.90039 5C8.91149 5 7.94479 5.29325 7.12254 5.84265C6.3003 6.39206 5.65943 7.17295 5.281 8.08658C4.90256 9.00021 4.80354 10.0055 4.99647 10.9755C5.18939 11.9454 5.6656 12.8363 6.36486 13.5355C7.06412 14.2348 7.95504 14.711 8.92494 14.9039C9.89485 15.0969 10.9002 14.9978 11.8138 14.6194C12.7274 14.241 13.5083 13.6001 14.0577 12.7779C14.6071 11.9556 14.9004 10.9889 14.9004 10C14.9069 9.34157 14.7821 8.68845 14.5331 8.07886C14.2842 7.46928 13.9161 6.91547 13.4505 6.44987C12.9849 5.98427 12.4311 5.61622 11.8215 5.36726C11.2119 5.11831 10.5588 4.99345 9.90039 5ZM9.90039 13.1C9.28727 13.1 8.68792 12.9182 8.17813 12.5776C7.66833 12.2369 7.271 11.7528 7.03637 11.1863C6.80174 10.6199 6.74034 9.99656 6.85996 9.39522C6.97957 8.79388 7.27482 8.24151 7.70836 7.80797C8.1419 7.37443 8.69427 7.07918 9.29561 6.95957C9.89696 6.83995 10.5203 6.90134 11.0867 7.13597C11.6532 7.37061 12.1373 7.76794 12.4779 8.27773C12.8186 8.78752 13.0004 9.38688 13.0004 10C12.9962 10.8209 12.6682 11.6069 12.0878 12.1874C11.5073 12.7678 10.7213 13.0958 9.90039 13.1Z" fill="#757575"/>
<path d="M15.3001 5.2999C15.4385 5.2999 15.5739 5.25885 15.689 5.18193C15.8041 5.10501 15.8938 4.99569 15.9468 4.86778C15.9998 4.73987 16.0137 4.59913 15.9866 4.46334C15.9596 4.32755 15.893 4.20282 15.7951 4.10493C15.6972 4.00703 15.5724 3.94036 15.4367 3.91335C15.3009 3.88634 15.1601 3.90021 15.0322 3.95319C14.9043 4.00617 14.795 4.09589 14.7181 4.211C14.6412 4.32612 14.6001 4.46146 14.6001 4.5999C14.6001 4.78555 14.6738 4.9636 14.8051 5.09488C14.9364 5.22615 15.1144 5.2999 15.3001 5.2999Z" fill="#757575"/>
</svg>
