<svg width="20" height="20" viewBox="0 0 20 20" fill="none" xmlns="http://www.w3.org/2000/svg">
<path d="M10 0C8.02219 0 6.08878 0.58649 4.44429 1.6853C2.7998 2.78412 1.51808 4.3459 0.761201 6.17317C0.00432432 8.00043 -0.193698 10.0111 0.192155 11.9509C0.578007 13.8907 1.5304 15.6725 2.92893 17.0711C4.32745 18.4696 6.10929 19.422 8.0491 19.8079C9.98891 20.1937 11.9996 19.9957 13.8268 19.2388C15.6541 18.4819 17.2159 17.2002 18.3147 15.5557C19.4135 13.9112 20 11.9778 20 10C19.9923 7.35019 18.9363 4.81109 17.0626 2.93738C15.1889 1.06368 12.6498 0.00765122 10 0ZM16 8.7H15.7C15.08 8.71118 14.4678 8.56021 13.924 8.26203C13.3803 7.96385 12.9239 7.52882 12.6 7V12.8C12.5916 13.9378 12.1359 15.0267 11.3313 15.8313C10.5267 16.6359 9.43785 17.0916 8.3 17.1C7.15204 17.0691 6.0612 16.5925 5.25856 15.7712C4.45592 14.9499 4.00452 13.8484 4 12.7C3.99574 12.1341 4.10406 11.5731 4.31865 11.0494C4.53324 10.5258 4.84981 10.0501 5.24996 9.64995C5.6501 9.2498 6.12581 8.93323 6.64943 8.71864C7.17305 8.50406 7.73413 8.39574 8.3 8.4H8.60001V10.5H8.3C7.87407 10.5198 7.46307 10.663 7.11702 10.9122C6.77097 11.1613 6.50476 11.5056 6.3508 11.9032C6.19684 12.3009 6.16175 12.7347 6.2498 13.1519C6.33785 13.5691 6.54525 13.9517 6.84676 14.2533C7.14827 14.5548 7.5309 14.7622 7.94811 14.8502C8.36532 14.9383 8.79911 14.9032 9.19675 14.7492C9.59438 14.5952 9.93871 14.329 10.1878 13.983C10.437 13.6369 10.5802 13.2259 10.6 12.8V3H12.6C12.6801 3.86513 13.0668 4.67314 13.6902 5.27826C14.3137 5.88337 15.1329 6.24575 16 6.3V8.7Z" fill="#757575"/>
</svg>
