<svg width="21" height="17" viewBox="0 0 21 17" fill="none" xmlns="http://www.w3.org/2000/svg">
<path d="M18 4.02711C18.1563 7.10291 17.0858 10.1151 15.0235 12.4024C12.9611 14.6897 10.0755 16.0652 7 16.2271H6.3C4.07224 16.2335 1.88813 15.6094 0 14.4271C2.17816 14.6897 4.37163 14.0784 6.1 12.7271C5.2512 12.725 4.42517 12.4524 3.74184 11.9489C3.0585 11.4454 2.55345 10.7372 2.3 9.92711C2.93252 10.0415 3.58298 10.0072 4.2 9.82711C3.26371 9.62472 2.42522 9.10719 1.8246 8.36096C1.22398 7.61474 0.897608 6.68501 0.9 5.72711C1.48398 6.04396 2.1357 6.21547 2.8 6.22711C1.9245 5.64758 1.30273 4.75623 1.06122 3.73445C0.819707 2.71268 0.976613 1.63728 1.5 0.727106C2.53914 1.99638 3.83202 3.03453 5.29576 3.77501C6.75951 4.5155 8.36182 4.94197 10 5.02711C9.80053 4.14785 9.89645 3.22736 10.2729 2.40812C10.6493 1.58887 11.2853 0.916558 12.0824 0.495235C12.8795 0.0739126 13.7933 -0.0729221 14.6823 0.0774584C15.5712 0.227839 16.3858 0.667049 17 1.32711C17.9171 1.14361 18.7963 0.805458 19.6 0.327106C19.3036 1.28922 18.6627 2.10816 17.8 2.62711C18.6208 2.52194 19.4263 2.32055 20.2 2.02711C19.5151 2.74519 18.7799 3.41355 18 4.02711Z" fill="#757575"/>
</svg>
