<svg width="22" height="17" viewBox="0 0 22 17" fill="none" xmlns="http://www.w3.org/2000/svg">
<path d="M21 8.68608C21.032 6.90628 20.8643 5.12849 20.5 3.38608C20.3688 2.93505 20.1259 2.52443 19.7937 2.19229C19.4616 1.86015 19.051 1.61724 18.6 1.48608C16.9 0.986084 11 0.986084 11 0.986084C11 0.986084 5.09995 0.986084 3.39995 1.48608C2.94891 1.61724 2.5383 1.86015 2.20616 2.19229C1.87402 2.52443 1.63111 2.93505 1.49995 3.38608C1.18023 5.13495 1.01293 6.90828 0.999954 8.68608C0.967893 10.4659 1.13561 12.2437 1.49995 13.9861C1.63111 14.4371 1.87402 14.8477 2.20616 15.1799C2.5383 15.512 2.94891 15.7549 3.39995 15.8861C5.09995 16.3861 11 16.3861 11 16.3861C11 16.3861 16.9 16.3861 18.6 15.8861C19.051 15.7549 19.4616 15.512 19.7937 15.1799C20.1259 14.8477 20.3688 14.4371 20.5 13.9861C20.8643 12.2437 21.032 10.4659 21 8.68608ZM8.79996 11.8861V5.48608L14.5 8.68608L8.79996 11.8861Z" fill="#757575"/>
</svg>
