<svg width="42" height="28" viewBox="0 0 42 28" fill="none" xmlns="http://www.w3.org/2000/svg">
<path d="M40 0H2C0.89543 0 0 0.89543 0 2V26C0 27.1046 0.89543 28 2 28H40C41.1046 28 42 27.1046 42 26V2C42 0.89543 41.1046 0 40 0Z" fill="#016FD0"/>
<path d="M21.6647 13.4219V12.5689C21.6516 12.3831 21.5669 12.2097 21.4285 12.0851C21.2901 11.9605 21.1088 11.8945 20.9227 11.9009H19.8386V13.4219H18.7227V9.03789H21.4227C21.6036 9.00858 21.7886 9.02048 21.9642 9.07268C22.1398 9.12488 22.3013 9.21607 22.4368 9.33941C22.5722 9.46274 22.6781 9.61501 22.7465 9.78496C22.8148 9.95491 22.844 10.1381 22.8317 10.3209C22.8357 10.533 22.7793 10.7418 22.6689 10.923C22.5586 11.1041 22.399 11.2502 22.2087 11.3439C22.3826 11.443 22.5253 11.5886 22.6208 11.7644C22.7164 11.9402 22.761 12.1392 22.7496 12.3389V13.4219H21.6597H21.6647ZM19.8337 10.8699H20.9836C21.3176 10.8699 21.5927 10.6849 21.5927 10.4549C21.5927 10.2249 21.3186 10.0389 20.9836 10.0389H19.8337V10.8699Z" fill="#FDFEFD"/>
<path d="M34.7977 13.42L33.0327 10.4901V13.42H30.8518L30.4577 12.5001H28.4248L28.0387 13.42H26.2948C25.8322 13.3234 25.4222 13.058 25.1449 12.6754C24.8675 12.2929 24.7427 11.8207 24.7948 11.3511C24.7948 8.91807 26.4947 9.01402 26.5527 8.99902L27.9248 9.03705V10.0231L26.7977 10.038C26.7977 10.038 26.0627 10.0381 25.9737 10.9951C25.9636 11.0947 25.9586 11.1949 25.9587 11.295C25.9268 11.4652 25.9428 11.6408 26.0051 11.8023C26.0673 11.9638 26.1734 12.1048 26.3112 12.2094C26.4491 12.3141 26.6134 12.3782 26.7857 12.3948C26.958 12.4113 27.1314 12.3796 27.2867 12.303L28.6667 9.03204H30.2237L31.8927 13.0081V9.03204H33.4657L35.2097 11.918V9.03204H36.3308V13.42H34.7977ZM28.8977 11.3801H29.9797L29.4458 10.074L28.8967 11.3801" fill="#FDFEFD"/>
<path d="M12.933 13.4221V10.3961L11.5389 13.4221H10.627L9.22693 10.4101V13.4221H7.02698L6.64099 12.5021H4.60901L4.21594 13.4221H3.00098L4.8479 9.03809H6.41394L8.10498 13.0661V9.03711H9.86292L11.0869 11.7591L12.3009 9.03711H14.059V13.4211H12.9299L12.933 13.4221ZM5.08191 11.3811H6.16492L5.6239 10.0751L5.08191 11.3811Z" fill="#FDFEFD"/>
<path d="M14.6758 13.4221V9.03711H18.1478V10.0601H15.7958V10.7351H18.0879V11.7291H15.7958V12.4711H18.1478V13.4201H14.6758" fill="#FDFEFD"/>
<path d="M23.2969 13.4371V9.03711H24.4169V13.4371H23.2969Z" fill="#FDFEFD"/>
<path d="M25.96 19V18.147C25.9469 17.9613 25.8622 17.788 25.7238 17.6636C25.5853 17.5392 25.4039 17.4733 25.2179 17.48H24.1349V19H23.022V14.616H25.7219C25.9028 14.5867 26.0879 14.5986 26.2635 14.6508C26.4392 14.703 26.6008 14.7942 26.7363 14.9175C26.8718 15.0408 26.9778 15.1931 27.0463 15.3631C27.1148 15.533 27.1441 15.7162 27.132 15.899C27.1359 16.1112 27.0794 16.3202 26.9691 16.5015C26.8588 16.6828 26.6992 16.829 26.5089 16.923C26.6812 17.0228 26.8225 17.1685 26.9167 17.3438C27.011 17.5192 27.0547 17.7173 27.043 17.916V19H25.96ZM24.1349 16.448H25.2849C25.6179 16.448 25.8929 16.263 25.8929 16.033C25.8929 15.803 25.6179 15.618 25.2849 15.618H24.1349V16.449" fill="#FDFEFD"/>
<path d="M18.542 18.9939H17.5699L16.392 17.6939L15.204 18.9939H11.0649V14.6019H15.116L16.3929 15.9969L17.6759 14.6089H18.5289V14.6019H21.229C21.4102 14.5745 21.595 14.5881 21.7703 14.6415C21.9455 14.6949 22.1067 14.7867 22.2418 14.9104C22.377 15.0341 22.4828 15.1864 22.5515 15.3562C22.6202 15.526 22.6501 15.7091 22.6389 15.8919C22.6389 17.1829 22.1709 17.5839 20.7319 17.5839H19.642V18.9939H18.542ZM17.1479 16.8359L18.527 18.3639V15.3169L17.1479 16.8379V16.8359ZM12.184 18.0469H14.528L15.6279 16.8379L14.528 15.6379H12.184V16.3119H14.469V17.3119H12.184V18.0539V18.0469ZM19.6389 16.4539H20.7889C21.1229 16.4539 21.3979 16.2689 21.3979 16.0389C21.3979 15.8089 21.1229 15.6229 20.7889 15.6229H19.6389V16.4539Z" fill="#FDFEFD"/>
<path d="M33.5492 18.9861H31.5683V17.9761H33.3042C33.3042 17.9761 33.9273 18.0501 33.9273 17.6281C33.9273 17.2341 32.9853 17.2641 32.9853 17.2641C32.9853 17.2641 31.4493 17.3981 31.4493 15.9591C31.439 15.7759 31.4682 15.5927 31.5348 15.4218C31.6014 15.2509 31.7039 15.0963 31.8354 14.9683C31.9668 14.8404 32.1241 14.7421 32.2968 14.6802C32.4694 14.6182 32.6534 14.594 32.8362 14.6091H34.9732V15.6331H33.2522C33.2522 15.6331 32.6582 15.5141 32.6582 15.9451C32.6582 16.3071 33.4662 16.2561 33.4662 16.2561C33.4662 16.2561 35.1662 16.1301 35.1662 17.4501C35.1889 17.6531 35.1666 17.8585 35.101 18.0519C35.0353 18.2452 34.928 18.4218 34.7864 18.569C34.6449 18.7161 34.4727 18.8304 34.282 18.9035C34.0914 18.9766 33.8869 19.0069 33.6833 18.9921C33.5993 18.9921 33.5492 18.9861 33.5492 18.9861Z" fill="#FDFEFD"/>
<path d="M27.5928 18.9939V14.6179H31.0637V15.6339H28.7128V16.3079H31.0048V17.3079H28.7128V18.0499H31.0637V18.9989H27.5928" fill="#FDFEFD"/>
<path d="M37.4731 18.9861H35.4921V17.9761H37.2211C37.2211 17.9761 37.8511 18.0501 37.8511 17.6281C37.8511 17.2341 36.9091 17.2641 36.9091 17.2641C36.9091 17.2641 35.3731 17.3981 35.3731 15.9591C35.3629 15.7759 35.392 15.5927 35.4587 15.4218C35.5253 15.2509 35.6277 15.0963 35.7592 14.9683C35.8906 14.8404 36.0481 14.7421 36.2207 14.6802C36.3934 14.6182 36.5774 14.594 36.7602 14.6091H38.89V15.6331H37.1761C37.1761 15.6331 36.5832 15.5141 36.5832 15.9451C36.5832 16.3071 37.3921 16.2561 37.3921 16.2561C37.3921 16.2561 39.0921 16.1301 39.0921 17.4501C39.1148 17.6531 39.0925 17.8585 39.0269 18.0519C38.9613 18.2452 38.8539 18.4218 38.7123 18.569C38.5708 18.7161 38.3986 18.8304 38.2079 18.9035C38.0173 18.9766 37.8128 19.0069 37.6092 18.9921C37.5252 18.9921 37.4742 18.9861 37.4742 18.9861" fill="#FDFEFD"/>
</svg>
