<svg width="42" height="28" viewBox="0 0 42 28" fill="none" xmlns="http://www.w3.org/2000/svg">
<path d="M40 0H2C0.89543 0 0 0.89543 0 2V26C0 27.1046 0.89543 28 2 28H40C41.1046 28 42 27.1046 42 26V2C42 0.89543 41.1046 0 40 0Z" fill="white"/>
<path d="M10.2321 18.7611C11.5446 18.7719 12.8102 18.2741 13.7636 17.3721C14.717 16.4702 15.2842 15.2341 15.3462 13.9231C15.3375 13.2629 15.1979 12.611 14.9355 12.0052C14.673 11.3993 14.293 10.8515 13.8173 10.3936C13.3416 9.93567 12.7798 9.57675 12.1644 9.33755C11.549 9.09835 10.8922 8.98362 10.2321 9.00009H7.93216C7.28106 8.9848 6.63366 9.10165 6.02896 9.34353C5.42427 9.58541 4.87485 9.94733 4.41391 10.4074C3.95297 10.8675 3.59006 11.4163 3.34708 12.0205C3.10409 12.6248 2.98606 13.272 3.00015 13.9231C3.0165 15.2175 3.5444 16.4528 4.46848 17.3592C5.39255 18.2657 6.63774 18.7697 7.93216 18.7611H10.2321Z" fill="#006095"/>
<path d="M8.95929 16.5161V11.2291C9.49472 11.4337 9.95556 11.7958 10.281 12.2676C10.6065 12.7395 10.7812 13.2989 10.7823 13.8721C10.7811 14.4452 10.6063 15.0046 10.2808 15.4764C9.95539 15.9482 9.49464 16.3103 8.95929 16.5151V16.5161ZM5.10626 13.8721C5.10744 13.2992 5.28208 12.7401 5.60712 12.2683C5.93216 11.7966 6.39235 11.4342 6.92725 11.2291V16.5141C6.39243 16.3091 5.93222 15.947 5.60718 15.4754C5.28213 15.0038 5.1075 14.4448 5.10626 13.8721ZM7.9433 9.40405C6.75733 9.40326 5.61957 9.87351 4.78021 10.7114C3.94086 11.5492 3.46861 12.6861 3.46729 13.8721C3.46861 15.058 3.94086 16.1949 4.78021 17.0328C5.61957 17.8706 6.75733 18.3409 7.9433 18.3401C9.12944 18.3411 10.2674 17.871 11.107 17.0331C11.9466 16.1953 12.419 15.0582 12.4203 13.8721C12.419 12.6859 11.9466 11.5489 11.107 10.711C10.2674 9.87312 9.12944 9.40299 7.9433 9.40405Z" fill="white"/>
<path d="M16.9153 11.101C16.9153 10.639 16.6744 10.6701 16.4424 10.6651V10.532C16.6424 10.542 16.8483 10.5421 17.0493 10.5421C17.2503 10.5421 17.5583 10.532 17.9393 10.532C18.1943 10.5066 18.4518 10.5337 18.6959 10.6118C18.9399 10.6899 19.1653 10.8173 19.3582 10.986C19.551 11.1548 19.7071 11.3613 19.8169 11.5928C19.9267 11.8243 19.9878 12.076 19.9963 12.3321C19.9963 12.8401 19.6963 14.1181 17.8773 14.1181C17.6153 14.1181 17.3773 14.1081 17.1313 14.1081C16.8853 14.1081 16.6734 14.1081 16.4424 14.1181V13.9841C16.7504 13.9531 16.9003 13.9431 16.9153 13.5941V11.101ZM17.4153 13.5091C17.4153 13.9091 17.6983 13.95 17.9503 13.95C18.1571 13.958 18.3632 13.9211 18.5543 13.8417C18.7454 13.7624 18.917 13.6425 19.0573 13.4904C19.1976 13.3383 19.3033 13.1576 19.367 12.9607C19.4307 12.7639 19.4509 12.5555 19.4263 12.3501C19.4419 12.1327 19.4113 11.9144 19.3365 11.7097C19.2618 11.5049 19.1445 11.3183 18.9924 11.1622C18.8403 11.006 18.6569 10.8838 18.4542 10.8037C18.2515 10.7235 18.0341 10.6872 17.8163 10.6971C17.6053 10.6971 17.5084 10.712 17.4164 10.718L17.4153 13.5091ZM20.1723 13.981H20.2723C20.4163 13.981 20.5193 13.9811 20.5193 13.8111V12.42C20.5193 12.194 20.4423 12.1631 20.2513 12.0611V11.9791C20.4933 11.9071 20.7813 11.8101 20.8013 11.7941C20.8294 11.7772 20.8616 11.7682 20.8943 11.7681C20.9193 11.7681 20.9303 11.7991 20.9303 11.8401V13.8111C20.9303 13.9811 21.0433 13.981 21.1873 13.981H21.2744V14.1151C21.0994 14.1151 20.9193 14.1051 20.7343 14.1051C20.5493 14.1051 20.3633 14.1101 20.1733 14.1151L20.1723 13.981ZM20.7224 10.981C20.6556 10.978 20.5925 10.9499 20.5457 10.9022C20.499 10.8545 20.472 10.7908 20.4703 10.7241C20.4743 10.659 20.5022 10.5977 20.5488 10.552C20.5953 10.5064 20.6572 10.4797 20.7224 10.4771C20.7883 10.477 20.8517 10.5029 20.8988 10.5491C20.9459 10.5953 20.973 10.6581 20.9743 10.7241C20.9736 10.79 20.9476 10.8531 20.9016 10.9004C20.8556 10.9477 20.7932 10.9755 20.7273 10.9781L20.7224 10.981ZM21.7614 12.4541C21.7614 12.2641 21.7043 12.2131 21.4613 12.1151V12.015C21.6918 11.9445 21.9184 11.8621 22.1404 11.7681C22.1554 11.7681 22.1703 11.7781 22.1703 11.8191V12.153C22.4169 11.9302 22.7301 11.7948 23.0613 11.7681C23.4983 11.7681 23.6523 12.0861 23.6523 12.4871V13.8111C23.6523 13.9811 23.7653 13.981 23.9093 13.981H24.0023V14.1151C23.8224 14.1151 23.6423 14.1051 23.4573 14.1051C23.2723 14.1051 23.0863 14.1101 22.9013 14.1151V13.981H22.9933C23.1373 13.981 23.2403 13.9811 23.2403 13.8111V12.4821C23.2403 12.1891 23.0613 12.0461 22.7673 12.0461C22.5506 12.079 22.3449 12.1634 22.1673 12.2921V13.8111C22.1673 13.9811 22.2814 13.981 22.4254 13.981H22.5173V14.1151C22.3373 14.1151 22.1574 14.1051 21.9724 14.1051C21.7874 14.1051 21.6013 14.1101 21.4173 14.1151V13.981H21.5103C21.6543 13.981 21.7563 13.9811 21.7563 13.8111L21.7614 12.4541ZM24.3954 12.701C24.3833 12.8007 24.3833 12.9014 24.3954 13.0011C24.3863 13.2171 24.4591 13.4286 24.5993 13.5933C24.7394 13.7579 24.9366 13.8636 25.1513 13.8891C25.2844 13.8816 25.4146 13.8473 25.534 13.7882C25.6535 13.7291 25.7597 13.6463 25.8463 13.545L25.9183 13.6171C25.8181 13.783 25.6793 13.9224 25.5138 14.0233C25.3482 14.1243 25.1608 14.1839 24.9673 14.1971C24.8283 14.1911 24.6919 14.157 24.5664 14.097C24.4408 14.0369 24.3288 13.952 24.2369 13.8474C24.1451 13.7429 24.0753 13.6208 24.0319 13.4886C23.9885 13.3564 23.9723 13.2167 23.9843 13.0781C23.9843 12.0721 24.6633 11.778 25.0223 11.778C25.133 11.7708 25.244 11.7863 25.3486 11.8234C25.4531 11.8606 25.5489 11.9186 25.6303 11.994C25.7116 12.0695 25.7767 12.1607 25.8216 12.2621C25.8665 12.3636 25.8902 12.4731 25.8913 12.584C25.8936 12.615 25.8936 12.6461 25.8913 12.6771L25.8443 12.7081L24.3954 12.701ZM25.3053 12.537C25.4343 12.537 25.4483 12.4701 25.4483 12.4091C25.4536 12.3479 25.4458 12.2863 25.4256 12.2283C25.4053 12.1703 25.373 12.1173 25.3308 12.0727C25.2886 12.0281 25.2374 11.993 25.1806 11.9696C25.1238 11.9463 25.0627 11.9351 25.0013 11.937C24.6873 11.937 24.4713 12.167 24.4103 12.537H25.3053ZM26.0053 13.985H26.1443C26.2873 13.985 26.3904 13.9851 26.3904 13.8151V12.373C26.3904 12.214 26.2004 12.1831 26.1234 12.1421V12.0651C26.4984 11.9061 26.7043 11.7721 26.7513 11.7721C26.7813 11.7721 26.7973 11.7871 26.7973 11.8391V12.3011H26.8083C26.9363 12.1011 27.1533 11.7721 27.4663 11.7721C27.5035 11.7703 27.5407 11.776 27.5757 11.7888C27.6106 11.8016 27.6427 11.8212 27.67 11.8466C27.6972 11.8719 27.7192 11.9024 27.7345 11.9363C27.7499 11.9702 27.7583 12.0069 27.7593 12.0441C27.7611 12.0772 27.7562 12.1103 27.745 12.1415C27.7337 12.1727 27.7164 12.2013 27.6939 12.2257C27.6715 12.2501 27.6444 12.2698 27.6143 12.2836C27.5841 12.2974 27.5515 12.305 27.5183 12.3061C27.3583 12.3061 27.3583 12.1821 27.1783 12.1821C27.0751 12.1962 26.9804 12.247 26.9116 12.3253C26.8427 12.4035 26.8043 12.5039 26.8033 12.6081V13.8141C26.8033 13.9841 26.9034 13.9841 27.0504 13.9841H27.3383V14.1181C27.0553 14.1131 26.8383 14.1081 26.6183 14.1081C26.3983 14.1081 26.1913 14.1131 26.0063 14.1181L26.0053 13.985ZM27.9854 13.4051C27.9977 13.5707 28.0706 13.7261 28.1901 13.8415C28.3096 13.9569 28.4673 14.0244 28.6333 14.0311C28.6853 14.0387 28.7384 14.035 28.7888 14.0202C28.8392 14.0054 28.8859 13.9797 28.9254 13.9451C28.965 13.9105 28.9965 13.8677 29.0179 13.8197C29.0393 13.7717 29.0501 13.7196 29.0493 13.6671C29.0493 13.0611 27.9283 13.2561 27.9283 12.4301C27.9343 12.3331 27.9602 12.2384 28.0045 12.1519C28.0487 12.0655 28.1102 11.989 28.1853 11.9274C28.2604 11.8657 28.3473 11.8202 28.4407 11.7937C28.5342 11.7671 28.6321 11.7601 28.7283 11.7731C28.9324 11.7779 29.1327 11.8288 29.3143 11.9221L29.3503 12.4451H29.2323C29.2299 12.3745 29.2134 12.3052 29.1837 12.2411C29.154 12.1771 29.1117 12.1197 29.0594 12.0723C29.0071 12.0249 28.9457 11.9885 28.8791 11.9653C28.8124 11.9421 28.7418 11.9324 28.6713 11.937C28.6225 11.9317 28.5732 11.9363 28.5263 11.9507C28.4793 11.965 28.4358 11.9887 28.3984 12.0205C28.361 12.0522 28.3304 12.0913 28.3085 12.1352C28.2867 12.1791 28.274 12.2271 28.2713 12.2761C28.2713 12.8761 29.4644 12.692 29.4644 13.498C29.4644 13.837 29.1913 14.1981 28.5793 14.1981C28.3592 14.1915 28.144 14.1314 27.9523 14.0231L27.8954 13.433L27.9854 13.4051ZM34.1064 11.4641H33.9783C33.9616 11.3365 33.9198 11.2134 33.8554 11.102C33.791 10.9906 33.7053 10.8929 33.6031 10.8147C33.5009 10.7365 33.3843 10.6792 33.2599 10.6462C33.1355 10.6131 33.0059 10.6049 32.8783 10.6221C32.6727 10.6228 32.4695 10.6668 32.282 10.7512C32.0945 10.8356 31.9269 10.9585 31.79 11.112C31.6531 11.2654 31.5501 11.446 31.4876 11.6419C31.4251 11.8378 31.4046 12.0447 31.4273 12.2491C31.3975 12.6879 31.5416 13.1209 31.8285 13.4544C32.1153 13.7879 32.5219 13.995 32.9603 14.0311C33.2104 14.0313 33.4523 13.9418 33.642 13.7788C33.8318 13.6159 33.9568 13.3903 33.9944 13.1431L34.1123 13.1741L33.9944 13.9241C33.6379 14.0913 33.2509 14.1838 32.8573 14.196C32.5973 14.2157 32.3361 14.1796 32.0912 14.0901C31.8462 14.0005 31.6233 13.8596 31.4373 13.6768C31.2513 13.494 31.1065 13.2736 31.0127 13.0303C30.9189 12.787 30.8782 12.5264 30.8933 12.2661C30.9147 11.7689 31.1314 11.3002 31.4963 10.9618C31.8612 10.6235 32.345 10.4428 32.8423 10.459C33.2595 10.4811 33.6699 10.5735 34.0563 10.7321L34.1064 11.4641ZM34.2914 13.985H34.3913C34.5353 13.985 34.6383 13.9851 34.6383 13.8151V10.9561C34.6383 10.6221 34.5613 10.6121 34.3653 10.5561V10.4741C34.5481 10.4161 34.7255 10.3421 34.8954 10.2531C34.9307 10.2297 34.9686 10.2106 35.0083 10.196C35.0393 10.196 35.0504 10.2271 35.0504 10.2681V13.8151C35.0504 13.9851 35.1633 13.985 35.3073 13.985H35.3943V14.119C35.2203 14.119 35.0403 14.1091 34.8543 14.1091C34.6683 14.1091 34.4843 14.114 34.2933 14.119L34.2914 13.985ZM37.5913 13.8361C37.5913 13.9291 37.6474 13.9361 37.7354 13.9361C37.7974 13.9361 37.8743 13.9361 37.9413 13.9361V14.0441C37.6908 14.0791 37.4432 14.1322 37.2003 14.2031L37.1743 14.187V13.7711C36.9354 14.0238 36.6103 14.1776 36.2633 14.2021C36.1846 14.204 36.1064 14.1892 36.0338 14.1586C35.9613 14.1279 35.8961 14.0822 35.8426 14.0244C35.7892 13.9665 35.7486 13.898 35.7238 13.8233C35.6989 13.7486 35.6902 13.6694 35.6983 13.5911V12.2771C35.6983 12.1431 35.6784 12.0151 35.3904 11.9901V11.89C35.5753 11.885 35.9903 11.8541 36.0533 11.8541C36.1163 11.8541 36.1104 11.8901 36.1104 12.0031V13.3271C36.1104 13.4811 36.1103 13.9271 36.5573 13.9271C36.7921 13.8896 37.0094 13.7803 37.1794 13.614V12.2331C37.1794 12.1331 36.9323 12.0741 36.7473 12.0231V11.9311C37.2093 11.9001 37.4983 11.8591 37.5473 11.8591C37.5963 11.8591 37.5894 11.8951 37.5894 11.9521L37.5913 13.8361ZM38.6143 12.1421C38.821 11.9363 39.0907 11.806 39.3803 11.7721C39.5147 11.7776 39.6467 11.8101 39.7682 11.8678C39.8897 11.9255 39.9984 12.0071 40.0876 12.1077C40.1769 12.2084 40.2449 12.326 40.2877 12.4536C40.3304 12.5811 40.3469 12.716 40.3363 12.8501C40.3486 13.1908 40.2266 13.5226 39.9965 13.7742C39.7665 14.0258 39.4468 14.1769 39.1064 14.1951C38.8569 14.1947 38.6113 14.1328 38.3913 14.015L38.2373 14.1331L38.1293 14.0771C38.1763 13.7746 38.2004 13.4691 38.2014 13.1631V10.9561C38.2014 10.6221 38.1243 10.6121 37.9283 10.5561V10.4741C38.1112 10.4161 38.2885 10.3422 38.4583 10.2531C38.4936 10.2296 38.5315 10.2105 38.5714 10.196C38.6024 10.196 38.6123 10.2271 38.6123 10.2681L38.6143 12.1421ZM38.6143 13.5421C38.6215 13.6797 38.6798 13.8098 38.7778 13.9068C38.8758 14.0037 39.0066 14.0605 39.1443 14.0661C39.6953 14.0661 39.9263 13.5271 39.9263 13.0661C39.9385 12.8251 39.8612 12.588 39.7093 12.4005C39.5574 12.213 39.3416 12.0882 39.1033 12.05C38.917 12.0701 38.7437 12.1554 38.6143 12.291V13.5421ZM16.4233 17.1071H16.4623C16.5623 17.1071 16.6693 17.0931 16.6693 16.9481V15.485C16.6693 15.339 16.5633 15.325 16.4623 15.325H16.4233V15.2411C16.5323 15.2411 16.7003 15.252 16.8383 15.252C16.9763 15.252 17.1463 15.2411 17.2773 15.2411V15.325H17.2383C17.1383 15.325 17.0313 15.339 17.0313 15.485V16.9481C17.0313 17.0931 17.1383 17.1071 17.2383 17.1071H17.2773V17.1911C17.1433 17.1911 16.9773 17.1801 16.8353 17.1801C16.6933 17.1801 16.5353 17.1911 16.4233 17.1911V17.1071ZM19.2003 16.6411L19.2063 16.636V15.5891C19.2112 15.555 19.2084 15.5204 19.1981 15.4875C19.1878 15.4547 19.1704 15.4246 19.147 15.3994C19.1236 15.3742 19.0949 15.3546 19.063 15.3419C19.031 15.3292 18.9966 15.3238 18.9623 15.326H18.9003V15.2421C19.0323 15.2421 19.1603 15.2531 19.2923 15.2531C19.4073 15.2531 19.5224 15.2421 19.6364 15.2421V15.326H19.5943C19.4763 15.326 19.3453 15.3491 19.3453 15.6811V16.9521C19.3438 17.0464 19.3495 17.1406 19.3623 17.2341H19.2563L17.8153 15.6341V16.7851C17.8153 17.0281 17.8623 17.1121 18.0783 17.1121H18.1253V17.196C18.0053 17.196 17.8853 17.1851 17.7643 17.1851C17.6433 17.1851 17.5103 17.196 17.3843 17.196V17.1121H17.4233C17.6163 17.1121 17.6754 16.9811 17.6754 16.7581V15.5811C17.6754 15.5478 17.6687 15.515 17.6559 15.4843C17.6431 15.4537 17.6244 15.4258 17.6008 15.4025C17.5771 15.3791 17.5491 15.3607 17.5183 15.3483C17.4875 15.3359 17.4545 15.3297 17.4213 15.33H17.3853V15.2461C17.4913 15.2461 17.6003 15.257 17.7063 15.257C17.7903 15.257 17.8714 15.2461 17.9554 15.2461L19.2003 16.6411ZM20.0563 15.381C19.8463 15.381 19.8383 15.4311 19.7963 15.6351H19.7123C19.7233 15.5571 19.7373 15.4791 19.7463 15.3981C19.7577 15.3196 19.7634 15.2404 19.7633 15.1611H19.8304C19.8534 15.2451 19.9234 15.2421 19.9984 15.2421H21.4424C21.5184 15.2421 21.5874 15.2421 21.5934 15.1551L21.6603 15.166C21.6493 15.242 21.6383 15.3171 21.6293 15.3921C21.6203 15.4671 21.6243 15.5431 21.6243 15.6181L21.5403 15.649C21.5343 15.549 21.5203 15.381 21.3333 15.381H20.8743V16.8671C20.8743 17.0821 20.9744 17.1071 21.1064 17.1071H21.1593V17.1911C21.0503 17.1911 20.8543 17.1801 20.7033 17.1801C20.5353 17.1801 20.3393 17.1911 20.2303 17.1911V17.1071H20.2834C20.4374 17.1071 20.5154 17.093 20.5154 16.873V15.381H20.0563ZM21.7493 17.1071H21.7883C21.8883 17.1071 21.9953 17.0931 21.9953 16.9481V15.485C21.9953 15.339 21.8893 15.325 21.7883 15.325H21.7493V15.2411C21.9193 15.2411 22.2113 15.252 22.4493 15.252C22.6873 15.252 22.9753 15.2411 23.1653 15.2411C23.1653 15.3611 23.1653 15.5411 23.1713 15.6681L23.0873 15.6901C23.0733 15.5091 23.0403 15.3631 22.7463 15.3631H22.3573V16.0951H22.6903C22.8583 16.0951 22.8903 16.0001 22.9113 15.8491H22.9953C22.99 15.9584 22.9873 16.0674 22.9873 16.1761C22.9873 16.2831 22.9873 16.3881 22.9953 16.4951L22.9113 16.5121C22.8943 16.3451 22.8864 16.2361 22.6924 16.2361H22.3573V16.8871C22.3573 17.0691 22.5193 17.0691 22.6983 17.0691C23.0343 17.0691 23.1823 17.0461 23.2663 16.7281L23.3443 16.7471C23.3073 16.8951 23.2743 17.0471 23.2493 17.1911C23.0703 17.1911 22.7493 17.1801 22.4963 17.1801C22.2433 17.1801 21.9113 17.1911 21.7513 17.1911L21.7493 17.1071ZM23.7193 15.537C23.7193 15.337 23.6073 15.325 23.5193 15.325H23.4693V15.2411C23.5593 15.2411 23.7324 15.252 23.9034 15.252C24.0744 15.252 24.2033 15.2411 24.3533 15.2411C24.7053 15.2411 25.0193 15.3361 25.0193 15.7331C25.0156 15.8459 24.9758 15.9545 24.9058 16.0431C24.8358 16.1316 24.7393 16.1954 24.6303 16.2251L25.1083 16.9401C25.1341 16.9901 25.1731 17.0322 25.221 17.0618C25.2689 17.0914 25.324 17.1074 25.3803 17.1081V17.192C25.2873 17.192 25.1984 17.1811 25.1064 17.1811C25.0144 17.1811 24.9294 17.192 24.8434 17.192C24.6286 16.9042 24.4342 16.6018 24.2614 16.287H24.0773V16.8871C24.0773 17.1021 24.1773 17.11 24.3063 17.11H24.3573V17.1941C24.1973 17.1941 24.0353 17.183 23.8763 17.183C23.7413 17.183 23.6103 17.1941 23.4703 17.1941V17.11H23.5204C23.6204 17.11 23.7203 17.0631 23.7203 16.9601L23.7193 15.537ZM24.0773 16.1851H24.2144C24.4944 16.1851 24.6454 16.0791 24.6454 15.7491C24.6491 15.6945 24.641 15.6397 24.6218 15.5885C24.6025 15.5373 24.5725 15.4909 24.5337 15.4523C24.4949 15.4137 24.4483 15.3839 24.397 15.3648C24.3457 15.3458 24.2909 15.3381 24.2363 15.3421C24.1832 15.3428 24.1301 15.3465 24.0773 15.3531V16.1851ZM27.2773 16.6411L27.2823 16.636V15.5891C27.2872 15.5551 27.2844 15.5205 27.2741 15.4878C27.2639 15.4551 27.2466 15.425 27.2233 15.3998C27.2 15.3747 27.1715 15.355 27.1396 15.3422C27.1078 15.3295 27.0736 15.3239 27.0393 15.326H26.9783V15.2421C27.1093 15.2421 27.2383 15.2531 27.3703 15.2531C27.4853 15.2531 27.5993 15.2421 27.7153 15.2421V15.326H27.6733C27.5563 15.326 27.4243 15.3491 27.4243 15.6811V16.9521C27.4224 17.0463 27.4278 17.1406 27.4403 17.2341H27.3344L25.8933 15.6341V16.7851C25.8933 17.0281 25.9403 17.1121 26.1563 17.1121H26.2033V17.196C26.0833 17.196 25.9623 17.1851 25.8423 17.1851C25.7223 17.1851 25.5873 17.196 25.4613 17.196V17.1121H25.5003C25.6933 17.1121 25.7523 16.9811 25.7523 16.7581V15.5811C25.7524 15.5478 25.7457 15.5148 25.7328 15.4841C25.72 15.4534 25.7012 15.4255 25.6774 15.4021C25.6537 15.3788 25.6256 15.3604 25.5946 15.348C25.5637 15.3356 25.5306 15.3295 25.4973 15.33H25.4613V15.2461C25.5673 15.2461 25.6774 15.257 25.7834 15.257C25.8664 15.257 25.9483 15.2461 26.0323 15.2461L27.2773 16.6411ZM28.1643 16.7921C28.1363 16.8624 28.1155 16.9355 28.1023 17.0101C28.1023 17.0941 28.2203 17.11 28.3123 17.11H28.3434V17.1941C28.2314 17.1881 28.1173 17.183 28.0043 17.183C27.8913 17.183 27.8043 17.1831 27.7043 17.1941V17.11H27.7213C27.7761 17.1101 27.8294 17.0924 27.8732 17.0596C27.917 17.0268 27.949 16.9806 27.9644 16.9281L28.4124 15.6461C28.4545 15.5331 28.4879 15.4171 28.5123 15.2991C28.6007 15.2675 28.6858 15.2273 28.7663 15.179C28.7732 15.1757 28.7807 15.1737 28.7883 15.1731C28.7922 15.1723 28.7962 15.1728 28.7998 15.1744C28.8034 15.176 28.8064 15.1787 28.8083 15.1821C28.8163 15.2041 28.8243 15.229 28.8333 15.252L29.3483 16.713C29.3823 16.813 29.4153 16.913 29.4483 16.998C29.4628 17.0343 29.4887 17.0647 29.5221 17.0848C29.5555 17.1048 29.5946 17.1134 29.6333 17.1091H29.6503V17.1931C29.5243 17.1871 29.3983 17.1821 29.2643 17.1821C29.1303 17.1821 28.9873 17.1821 28.8443 17.1931V17.1091H28.8753C28.9393 17.1091 29.0493 17.098 29.0493 17.028C29.0382 16.9594 29.0191 16.8923 28.9923 16.8281L28.8833 16.5041H28.2484L28.1643 16.7921ZM28.5723 15.554H28.5663L28.3063 16.3451H28.8293L28.5723 15.554ZM29.7784 15.381C29.5684 15.381 29.5603 15.4311 29.5183 15.6351H29.4343C29.4453 15.5571 29.4594 15.4791 29.4684 15.3981C29.4793 15.3196 29.4846 15.2404 29.4843 15.1611H29.5513C29.5733 15.2451 29.6443 15.2421 29.7193 15.2421H31.1633C31.2383 15.2421 31.3083 15.2421 31.3143 15.1551L31.3813 15.166C31.3703 15.242 31.3593 15.3171 31.3513 15.3921C31.3433 15.4671 31.3453 15.5431 31.3453 15.6181L31.2614 15.649C31.2564 15.549 31.2424 15.381 31.0544 15.381H30.5953V16.8671C30.5953 17.0821 30.6953 17.1071 30.8273 17.1071H30.8803V17.1911C30.7713 17.1911 30.5803 17.1801 30.4243 17.1801C30.2563 17.1801 30.0604 17.1911 29.9514 17.1911V17.1071H30.0043C30.1583 17.1071 30.2363 17.093 30.2363 16.873V15.381H29.7784ZM31.4843 17.1071H31.5233C31.6233 17.1071 31.7303 17.0931 31.7303 16.9481V15.485C31.7303 15.339 31.6243 15.325 31.5233 15.325H31.4843V15.2411C31.5933 15.2411 31.7613 15.252 31.8983 15.252C32.0353 15.252 32.2063 15.2411 32.3383 15.2411V15.325H32.2993C32.1993 15.325 32.0913 15.339 32.0913 15.485V16.9481C32.0913 17.0931 32.1983 17.1071 32.2993 17.1071H32.3383V17.1911C32.2033 17.1911 32.0383 17.1801 31.8963 17.1801C31.7543 17.1801 31.5963 17.1911 31.4843 17.1911V17.1071ZM33.4543 15.2C33.5892 15.1875 33.7252 15.203 33.8537 15.2455C33.9823 15.2881 34.1007 15.3568 34.2014 15.4474C34.3021 15.5379 34.3829 15.6484 34.4389 15.7717C34.4948 15.895 34.5246 16.0286 34.5263 16.1641C34.5326 16.3052 34.5097 16.4462 34.4589 16.578C34.4081 16.7099 34.3306 16.8298 34.2312 16.9303C34.1318 17.0308 34.0128 17.1097 33.8815 17.1619C33.7502 17.2142 33.6096 17.2388 33.4684 17.2341C33.3327 17.2422 33.1968 17.2222 33.0692 17.1755C32.9417 17.1287 32.8251 17.0562 32.7268 16.9623C32.6286 16.8685 32.5507 16.7553 32.4982 16.63C32.4456 16.5047 32.4194 16.3699 32.4213 16.2341C32.4176 16.0954 32.4422 15.9573 32.4938 15.8285C32.5454 15.6997 32.6228 15.5828 32.7213 15.485C32.8197 15.3872 32.9371 15.3105 33.0663 15.2598C33.1955 15.2091 33.3337 15.1854 33.4724 15.1901L33.4543 15.2ZM33.4963 17.1111C34.0393 17.1111 34.1343 16.633 34.1343 16.226C34.1343 15.819 33.9143 15.326 33.4493 15.326C32.9593 15.326 32.8143 15.762 32.8143 16.136C32.8313 16.624 33.0613 17.1021 33.5143 17.1021L33.4963 17.1111ZM36.4124 16.6411L36.4183 16.636V15.5891C36.4232 15.555 36.4204 15.5204 36.4101 15.4875C36.3998 15.4547 36.3824 15.4246 36.359 15.3994C36.3356 15.3742 36.3069 15.3546 36.275 15.3419C36.243 15.3292 36.2086 15.3238 36.1743 15.326H36.1133V15.2421C36.2443 15.2421 36.3733 15.2531 36.5043 15.2531C36.6193 15.2531 36.7343 15.2421 36.8493 15.2421V15.326H36.8073C36.6903 15.326 36.5583 15.3491 36.5583 15.6811V16.9521C36.5566 17.0464 36.5623 17.1407 36.5753 17.2341H36.4693L35.0273 15.6341V16.7851C35.0273 17.0281 35.0753 17.1121 35.2903 17.1121H35.3383V17.196C35.2183 17.196 35.0983 17.1851 34.9773 17.1851C34.8563 17.1851 34.7223 17.196 34.5963 17.196V17.1121H34.6364C34.8294 17.1121 34.8883 16.9811 34.8883 16.7581V15.5811C34.8885 15.5477 34.882 15.5147 34.8691 15.4839C34.8563 15.4531 34.8375 15.4252 34.8137 15.4018C34.79 15.3784 34.7618 15.36 34.7308 15.3477C34.6998 15.3354 34.6667 15.3294 34.6333 15.33H34.5974V15.2461C34.7044 15.2461 34.8133 15.257 34.9193 15.257C35.0033 15.257 35.0843 15.2461 35.1683 15.2461L36.4124 16.6411ZM37.2993 16.7921C37.272 16.8626 37.2516 16.9356 37.2383 17.0101C37.2383 17.0941 37.3563 17.11 37.4483 17.11H37.4793V17.1941C37.3673 17.1881 37.2523 17.183 37.1404 17.183C37.0284 17.183 36.9403 17.1831 36.8403 17.1941V17.11H36.8564C36.9113 17.1103 36.9648 17.0927 37.0088 17.0598C37.0528 17.027 37.0849 16.9808 37.1003 16.9281L37.5483 15.6461C37.5908 15.5332 37.6242 15.4172 37.6483 15.2991C37.7371 15.2675 37.8225 15.2273 37.9034 15.179C37.9102 15.1757 37.9177 15.1736 37.9254 15.1731C37.9334 15.1731 37.9393 15.1731 37.9443 15.1821L37.9703 15.252L38.4854 16.713C38.5194 16.813 38.5523 16.913 38.5853 16.998C38.5996 17.0344 38.6255 17.0649 38.659 17.085C38.6924 17.1051 38.7316 17.1135 38.7704 17.1091H38.7874V17.1931C38.6614 17.1871 38.5353 17.1821 38.4003 17.1821C38.2653 17.1821 38.1233 17.1821 37.9803 17.1931V17.1091H38.0114C38.0754 17.1091 38.1853 17.098 38.1853 17.028C38.1741 16.9594 38.155 16.8923 38.1283 16.8281L38.0193 16.5041H37.3843L37.2993 16.7921ZM37.7083 15.554H37.7023L37.4413 16.3451H37.9653L37.7083 15.554ZM39.4963 16.9171C39.4963 17.0291 39.5743 17.0621 39.6633 17.0741C39.7866 17.0833 39.9105 17.0813 40.0334 17.0681C40.0858 17.0618 40.1364 17.0453 40.1824 17.0193C40.2284 16.9934 40.2688 16.9587 40.3013 16.9171C40.3416 16.8559 40.3711 16.7883 40.3883 16.7171H40.4693C40.4383 16.8761 40.3994 17.033 40.3694 17.192C40.1234 17.192 39.8763 17.1811 39.6313 17.1811C39.3863 17.1811 39.1383 17.192 38.8923 17.192V17.1081H38.9313C39.0313 17.1081 39.1423 17.0941 39.1423 16.9211V15.4861C39.1423 15.3401 39.0333 15.3271 38.9313 15.3271H38.8923V15.2431C39.0403 15.2431 39.1863 15.2541 39.3344 15.2541C39.4824 15.2541 39.6173 15.2431 39.7603 15.2431V15.3271H39.6903C39.5843 15.3271 39.5003 15.3271 39.5003 15.4781L39.4963 16.9171Z" fill="#1A1918"/>
</svg>
