<svg width="42" height="28" viewBox="0 0 42 28" fill="none" xmlns="http://www.w3.org/2000/svg">
<path d="M40 0H2C0.89543 0 0 0.89543 0 2V26C0 27.1046 0.89543 28 2 28H40C41.1046 28 42 27.1046 42 26V2C42 0.89543 41.1046 0 40 0Z" fill="white"/>
<path d="M8.4859 9.97596C8.89138 9.84198 9.31582 9.77443 9.74286 9.77594C10.6566 9.77615 11.5423 10.0919 12.25 10.6699C12.9577 11.2479 13.4441 12.0526 13.6269 12.9479L16.3449 12.3939C16.0345 10.8724 15.208 9.50486 14.0054 8.52252C12.8027 7.54019 11.2977 7.00339 9.74487 7.00293C9.01887 7.00226 8.29756 7.11912 7.60889 7.34894L8.4859 9.97596Z" fill="#FFCA05"/>
<path d="M5.27399 18.7839L7.112 16.7059C6.69105 16.3343 6.35405 15.8774 6.12336 15.3655C5.89266 14.8536 5.77354 14.2984 5.77399 13.7369C5.77344 13.1758 5.8924 12.621 6.12293 12.1094C6.35346 11.5979 6.69031 11.1412 7.11103 10.7699L5.27301 8.69189C4.558 9.32344 3.98561 10.0999 3.59388 10.9698C3.20214 11.8396 3.00001 12.783 3.00098 13.7369C2.99997 14.6914 3.20227 15.6351 3.59436 16.5054C3.98646 17.3756 4.5594 18.1524 5.27503 18.7839" fill="#00A3DF"/>
<path d="M13.6211 14.5349C13.4379 15.4295 12.9514 16.2334 12.2439 16.8106C11.5364 17.3879 10.6512 17.7031 9.7381 17.7029C9.31069 17.705 8.88575 17.6374 8.48004 17.5029L7.6001 20.1339C8.28946 20.3637 9.01144 20.4806 9.7381 20.4799C11.2899 20.4796 12.7941 19.9437 13.9965 18.9628C15.199 17.9819 16.0261 16.6161 16.3381 15.0959L13.6211 14.5349Z" fill="#EE4023"/>
<path d="M18.715 16.793C18.6078 16.6183 18.512 16.437 18.428 16.2501C18.0034 15.2919 17.9717 14.2053 18.34 13.2241C18.5183 12.7066 18.8011 12.2314 19.1707 11.8278C19.5404 11.4242 19.9891 11.101 20.489 10.8781C21.0982 10.6162 21.7614 10.5047 22.4228 10.5529C23.0841 10.6011 23.7242 10.8076 24.289 11.155C25.0695 11.627 25.6684 12.3481 25.989 13.202C26.041 13.323 26.089 13.452 26.131 13.562L18.715 16.793ZM21.192 12.481C20.7739 12.655 20.4253 12.9627 20.2008 13.3559C19.9762 13.7491 19.8884 14.2056 19.951 14.6541L23.681 13.049C23.3998 12.6759 22.9957 12.4143 22.5403 12.3103C22.0848 12.2064 21.6072 12.2668 21.192 12.481ZM24.146 15.9741L24.069 15.9221C23.8276 16.3002 23.4757 16.5949 23.061 16.7661C22.7195 16.9471 22.3322 17.0231 21.9477 16.9845C21.5631 16.9458 21.1986 16.7943 20.9 16.549L20.849 16.627L19.903 18.043C20.1384 18.2066 20.3904 18.3447 20.655 18.455C21.157 18.6686 21.6981 18.7751 22.2436 18.7675C22.7891 18.7599 23.3271 18.6385 23.823 18.411C24.5473 18.1095 25.1638 17.5965 25.592 16.939L24.146 15.9741Z" fill="#231F20"/>
<path d="M28.724 8.79199V16.662L29.948 17.162L29.248 18.784L27.897 18.222C27.6256 18.1039 27.3943 17.9097 27.231 17.663C27.0506 17.3704 26.9599 17.0315 26.97 16.688V8.79596L28.724 8.79199Z" fill="#231F20"/>
<path d="M31.8941 14.6584C31.8941 14.3399 31.9623 14.0252 32.0943 13.7354C32.2262 13.4455 32.4189 13.1873 32.6592 12.9783L31.4042 11.5784C30.9673 11.9634 30.6175 12.437 30.378 12.9677C30.1385 13.4984 30.0148 14.0741 30.0151 14.6564C30.0139 15.2388 30.1368 15.8149 30.3756 16.3461C30.6144 16.8774 30.9637 17.3517 31.4002 17.7374L32.6542 16.3373C32.415 16.1279 32.2234 15.8697 32.0923 15.5801C31.9612 15.2905 31.8937 14.9763 31.8941 14.6584Z" fill="#231F20"/>
<path d="M34.1244 16.8923C33.8841 16.8918 33.6454 16.8529 33.4174 16.7773L32.8174 18.5593C33.2365 18.6996 33.6754 18.7716 34.1174 18.7723C35.0648 18.7727 35.9833 18.4462 36.7179 17.8479C37.4524 17.2496 37.9581 16.4162 38.1494 15.4883L36.3064 15.1123C36.2023 15.6144 35.9287 16.0654 35.5313 16.3896C35.134 16.7137 34.6372 16.8912 34.1244 16.8923Z" fill="#231F20"/>
<path d="M34.1301 10.5474C33.6883 10.547 33.2493 10.6178 32.8301 10.7573L33.4241 12.5413C33.6525 12.4658 33.8915 12.4273 34.1321 12.4274C34.6469 12.4277 35.1457 12.606 35.5441 12.9321C35.9425 13.2581 36.2159 13.7118 36.3181 14.2164L38.1611 13.8423C37.9722 12.9125 37.4677 12.0766 36.7331 11.4761C35.9985 10.8756 35.0789 10.5475 34.1301 10.5474Z" fill="#231F20"/>
</svg>
