<svg width="42" height="28" viewBox="0 0 42 28" fill="none" xmlns="http://www.w3.org/2000/svg">
<path d="M40 0H2C0.89543 0 0 0.89543 0 2V26C0 27.1046 0.89543 28 2 28H40C41.1046 28 42 27.1046 42 26V2C42 0.89543 41.1046 0 40 0Z" fill="white"/>
<path fill-rule="evenodd" clip-rule="evenodd" d="M34.7851 11.6089C34.7863 12.7385 34.565 13.8572 34.1337 14.9012C33.7025 15.9452 33.0699 16.894 32.2719 17.6934C31.4739 18.4929 30.5263 19.1273 29.4831 19.5605C28.44 19.9937 27.3217 20.217 26.1921 20.218C25.0626 20.217 23.9443 19.9937 22.9011 19.5605C21.8579 19.1273 20.9103 18.4929 20.1124 17.6934C19.3144 16.894 18.6817 15.9452 18.2505 14.9012C17.8193 13.8572 17.5979 12.7385 17.5991 11.6089C17.5979 10.4794 17.8193 9.36076 18.2505 8.31677C18.6817 7.27279 19.3144 6.32398 20.1124 5.52454C20.9103 4.72509 21.8579 4.09064 22.9011 3.65747C23.9443 3.22431 25.0626 3.00092 26.1921 3C27.3217 3.00092 28.44 3.22431 29.4831 3.65747C30.5263 4.09064 31.4739 4.72509 32.2719 5.52454C33.0699 6.32398 33.7025 7.27279 34.1337 8.31677C34.565 9.36076 34.7863 10.4794 34.7851 11.6089Z" fill="#F79F1A"/>
<path fill-rule="evenodd" clip-rule="evenodd" d="M24.185 11.6089C24.1862 12.7385 23.9649 13.8572 23.5336 14.9012C23.1024 15.9452 22.4698 16.894 21.6718 17.6934C20.8738 18.4929 19.9262 19.1273 18.883 19.5605C17.8399 19.9937 16.7216 20.217 15.592 20.218C14.4625 20.217 13.3442 19.9937 12.301 19.5605C11.2578 19.1273 10.3102 18.4929 9.51225 17.6934C8.71429 16.894 8.08163 15.9452 7.65041 14.9012C7.21919 13.8572 6.99785 12.7385 6.99903 11.6089C6.99785 10.4794 7.21919 9.36076 7.65041 8.31677C8.08163 7.27279 8.71429 6.32398 9.51225 5.52454C10.3102 4.72509 11.2578 4.09064 12.301 3.65747C13.3442 3.22431 14.4625 3.00092 15.592 3C16.7216 3.00092 17.8399 3.22431 18.883 3.65747C19.9262 4.09064 20.8738 4.72509 21.6718 5.52454C22.4698 6.32398 23.1024 7.27279 23.5336 8.31677C23.9649 9.36076 24.1862 10.4794 24.185 11.6089Z" fill="#EA001B"/>
<path fill-rule="evenodd" clip-rule="evenodd" d="M20.8931 4.83203C19.8661 5.63762 19.036 6.66639 18.4657 7.84039C17.8953 9.01439 17.5996 10.3028 17.6011 11.608C17.5993 12.9136 17.8949 14.2024 18.4652 15.3768C19.0356 16.5511 19.8659 17.5802 20.8931 18.386C21.9203 17.5802 22.7506 16.5511 23.3209 15.3768C23.8913 14.2024 24.1868 12.9136 24.1851 11.608C24.1865 10.3028 23.8909 9.01439 23.3205 7.84039C22.7501 6.66639 21.92 5.63762 20.8931 4.83203Z" fill="#FF5F01"/>
<path d="M8.9109 24.477H8.4209V22.202H8.8989V22.479C9.09146 22.3148 9.32105 22.1998 9.56789 22.144C9.71964 22.1542 9.8674 22.1971 10.001 22.2697C10.1346 22.3424 10.2509 22.4432 10.3419 22.565C10.4232 22.4357 10.5361 22.3292 10.6699 22.2555C10.8038 22.1819 10.9541 22.1435 11.1069 22.144C11.318 22.1356 11.5251 22.2034 11.6903 22.3351C11.8556 22.4667 11.9679 22.6533 12.0069 22.861V24.467H11.5389V23.052C11.5369 22.9894 11.5219 22.9279 11.4946 22.8715C11.4674 22.8151 11.4287 22.7649 11.3809 22.7244C11.3331 22.6839 11.2774 22.6538 11.2173 22.6362C11.1571 22.6186 11.094 22.6138 11.0319 22.622C10.8994 22.6068 10.7661 22.6428 10.6594 22.7228C10.5526 22.8028 10.4805 22.9206 10.4579 23.052V24.467H9.96989V23.043C9.95745 22.9215 9.90094 22.8087 9.81104 22.726C9.72113 22.6433 9.60405 22.5963 9.4819 22.594C8.9089 22.594 8.8989 23.053 8.8989 23.053L8.9109 24.477Z" fill="black"/>
<path d="M23.7398 22.144C23.4929 22.1998 23.2633 22.3148 23.0708 22.4791V22.2021H22.5918V24.4771H23.0798L23.0708 23.053C23.0708 23.053 23.0818 22.595 23.6538 22.595C23.7429 22.5926 23.8309 22.6151 23.9078 22.66L24.0668 22.217C23.9635 22.1718 23.8525 22.147 23.7398 22.144Z" fill="black"/>
<path d="M30.6078 22.144C30.361 22.1998 30.1314 22.3148 29.9389 22.4791V22.2021H29.4639V24.4771H29.9519L29.9429 23.053C29.9429 23.053 29.9538 22.595 30.5258 22.595C30.6149 22.5926 30.7029 22.6151 30.7798 22.66L30.9389 22.217C30.8355 22.1725 30.7244 22.1484 30.6118 22.1461L30.6078 22.144Z" fill="black"/>
<path d="M13.585 22.1341C13.2777 22.1453 12.9875 22.278 12.7779 22.5029C12.5683 22.7279 12.4565 23.0268 12.467 23.3341C12.4628 23.6439 12.5791 23.9432 12.7915 24.1688C13.0038 24.3944 13.2955 24.5286 13.605 24.5431C13.8787 24.5267 14.1396 24.4214 14.348 24.2431V24.4751H14.828V22.1971H14.346V22.4841C14.1471 22.2731 13.8746 22.1467 13.585 22.1311V22.1341ZM13.678 22.5981C13.873 22.6051 14.0572 22.6892 14.1903 22.8318C14.3234 22.9745 14.3945 23.1641 14.388 23.3591C14.3942 23.5539 14.323 23.743 14.1899 23.8853C14.0568 24.0276 13.8727 24.1113 13.678 24.1181C13.4835 24.1113 13.2996 24.0275 13.1668 23.8852C13.034 23.7429 12.9632 23.5537 12.97 23.3591C12.9632 23.1644 13.034 22.9749 13.1667 22.8323C13.2994 22.6896 13.4833 22.6054 13.678 22.5981Z" fill="black"/>
<path d="M27.582 22.1341C27.2748 22.1453 26.9845 22.278 26.7749 22.5029C26.5653 22.7279 26.4535 23.0268 26.4641 23.3341C26.4598 23.6439 26.5762 23.9432 26.7885 24.1688C27.0009 24.3944 27.2926 24.5286 27.6021 24.5431C27.8758 24.5266 28.1366 24.4213 28.345 24.2431V24.4751H28.8251V22.1971H28.3431V22.4841C28.1441 22.2732 27.8716 22.1468 27.582 22.1311V22.1341ZM27.676 22.5981C27.871 22.6051 28.0552 22.6892 28.1883 22.8318C28.3214 22.9745 28.3925 23.1641 28.3861 23.3591C28.3923 23.5539 28.321 23.743 28.1879 23.8853C28.0548 24.0276 27.8707 24.1113 27.676 24.1181C27.4815 24.1113 27.2976 24.0275 27.1649 23.8852C27.0321 23.7429 26.9613 23.5537 26.9681 23.3591C26.9613 23.1646 27.0319 22.9752 27.1644 22.8326C27.2969 22.69 27.4805 22.6056 27.6751 22.5981H27.676Z" fill="black"/>
<path d="M32.1909 22.1351C31.8837 22.1465 31.5936 22.2792 31.3841 22.5042C31.1745 22.7291 31.0626 23.0278 31.0729 23.335C31.0687 23.6448 31.185 23.9441 31.3974 24.1697C31.6097 24.3953 31.9014 24.5296 32.2109 24.5441C32.4846 24.5277 32.7455 24.4223 32.9539 24.244V24.4761H33.4339V21.2991H32.9519V22.485C32.7529 22.2741 32.4805 22.1477 32.1909 22.132V22.1351ZM32.2839 22.5991C32.4789 22.6061 32.6631 22.6902 32.7962 22.8328C32.9293 22.9755 33.0004 23.1651 32.9939 23.36C33.0001 23.5548 32.9289 23.744 32.7958 23.8863C32.6627 24.0286 32.4786 24.1122 32.2839 24.119C32.0894 24.1122 31.9055 24.0285 31.7727 23.8862C31.64 23.7438 31.5692 23.5546 31.5759 23.36C31.5689 23.1651 31.6395 22.9755 31.7723 22.8326C31.905 22.6897 32.089 22.6053 32.2839 22.598V22.5991Z" fill="black"/>
<path d="M16.2919 24.554C15.9523 24.536 15.623 24.4306 15.3359 24.248L15.5459 23.923C15.7813 24.0319 16.0337 24.0996 16.2919 24.123C16.4919 24.123 16.8329 24.058 16.8369 23.855C16.8409 23.652 16.2679 23.5781 16.2679 23.5781C16.2679 23.5781 15.4119 23.566 15.4119 22.861C15.4119 22.417 15.8389 22.134 16.3869 22.134C16.7021 22.179 17.0084 22.2725 17.2949 22.4111L17.0559 22.7841C16.8312 22.6921 16.5962 22.628 16.3559 22.593C16.1559 22.586 15.907 22.683 15.907 22.861C15.907 23.343 17.3319 22.823 17.3319 23.798C17.3319 24.437 16.7519 24.553 16.2899 24.553L16.2919 24.554Z" fill="black"/>
<path d="M18.1247 21.5421V22.204H17.7007V22.682H18.1247V23.826C18.1188 23.931 18.1354 24.0359 18.1735 24.1339C18.2116 24.2318 18.2702 24.3204 18.3455 24.3938C18.4207 24.4672 18.5108 24.5235 18.6097 24.5591C18.7086 24.5947 18.814 24.6086 18.9187 24.6C19.1516 24.5722 19.3801 24.5151 19.5987 24.4301L19.4057 23.9301C19.2979 24.019 19.1643 24.0709 19.0247 24.0781C18.6397 24.0681 18.6507 23.822 18.6507 23.822V22.6801H19.4437V22.202H18.6507V21.54L18.1247 21.5421Z" fill="black"/>
<path d="M21.0138 22.1661C20.8573 22.1648 20.7021 22.1951 20.5576 22.2554C20.4131 22.3156 20.2822 22.4044 20.1729 22.5165C20.0636 22.6286 19.9781 22.7616 19.9216 22.9076C19.865 23.0536 19.8386 23.2095 19.8438 23.366C19.8354 23.5283 19.8611 23.6906 19.9192 23.8424C19.9773 23.9942 20.0665 24.1321 20.1812 24.2474C20.2958 24.3626 20.4333 24.4525 20.5848 24.5113C20.7363 24.5702 20.8985 24.5966 21.0609 24.589C21.3761 24.5467 21.6783 24.4365 21.9468 24.266L21.7248 23.879C21.5284 24.0176 21.2999 24.1036 21.0609 24.129C20.8935 24.133 20.731 24.072 20.6076 23.9588C20.4842 23.8457 20.4094 23.6891 20.3989 23.522H22.0629C22.0629 23.522 22.1868 22.1661 21.0138 22.1661ZM20.9428 22.613C20.9608 22.613 20.9808 22.613 21.0008 22.613C21.076 22.6085 21.1512 22.6195 21.2219 22.6453C21.2926 22.6711 21.3572 22.7112 21.4117 22.7631C21.4662 22.815 21.5094 22.8776 21.5387 22.9469C21.568 23.0162 21.5827 23.0908 21.5819 23.1661H20.3989C20.3951 23.093 20.4065 23.02 20.4323 22.9516C20.4582 22.8832 20.4979 22.8209 20.549 22.7685C20.6001 22.7162 20.6615 22.675 20.7292 22.6476C20.797 22.6201 20.8697 22.607 20.9428 22.609V22.613Z" fill="black"/>
<path d="M25.9629 23.8731L26.1858 24.3191C25.9595 24.4582 25.7013 24.5374 25.4358 24.549C25.2724 24.5571 25.109 24.5322 24.9555 24.4757C24.8019 24.4193 24.6613 24.3324 24.542 24.2204C24.4227 24.1084 24.3272 23.9736 24.2612 23.8239C24.1952 23.6742 24.1601 23.5126 24.1579 23.349C24.1507 23.1886 24.1775 23.0284 24.2366 22.879C24.2956 22.7296 24.3855 22.5943 24.5003 22.482C24.6152 22.3697 24.7524 22.2829 24.9031 22.2272C25.0538 22.1716 25.2146 22.1483 25.3748 22.159C25.6698 22.1707 25.9566 22.2594 26.2068 22.4161L25.9568 22.862C25.8843 22.7772 25.7923 22.7114 25.6886 22.6701C25.585 22.6288 25.4728 22.6133 25.3618 22.625C25.2681 22.6281 25.176 22.6499 25.0909 22.6892C25.0058 22.7286 24.9294 22.7846 24.8664 22.854C24.8033 22.9234 24.7548 23.0047 24.7238 23.0932C24.6928 23.1817 24.6799 23.2755 24.6858 23.3691C24.679 23.4637 24.6916 23.5587 24.7226 23.6484C24.7537 23.738 24.8026 23.8204 24.8665 23.8905C24.9304 23.9607 25.0078 24.0171 25.0942 24.0564C25.1806 24.0957 25.274 24.117 25.3689 24.1191C25.5882 24.1042 25.7969 24.019 25.9639 23.8761L25.9629 23.8731Z" fill="black"/>
<path d="M34.4391 24.165C34.3768 24.1646 34.3168 24.1886 34.2721 24.2321C34.2505 24.2532 34.2334 24.2784 34.2217 24.3062C34.21 24.334 34.204 24.3639 34.2041 24.3941C34.204 24.4242 34.21 24.4541 34.2217 24.4819C34.2334 24.5098 34.2505 24.535 34.2721 24.5561C34.3166 24.6 34.3766 24.6244 34.4391 24.6241C34.5009 24.624 34.5602 24.5996 34.6041 24.5561C34.6256 24.535 34.6427 24.5098 34.6544 24.4819C34.6661 24.4541 34.6721 24.4242 34.6721 24.3941C34.672 24.3639 34.666 24.3341 34.6543 24.3063C34.6427 24.2785 34.6256 24.2532 34.6041 24.2321C34.56 24.1889 34.5007 24.1649 34.4391 24.165ZM34.4391 24.5731C34.4155 24.5732 34.3922 24.5686 34.3704 24.5597C34.3486 24.5508 34.3288 24.5377 34.3121 24.5211C34.2956 24.5045 34.2825 24.4849 34.2736 24.4633C34.2646 24.4416 34.2601 24.4185 34.2601 24.3951C34.26 24.3717 34.2645 24.3485 34.2735 24.3269C34.2824 24.3052 34.2955 24.2856 34.3121 24.2691C34.3459 24.2356 34.3915 24.2169 34.4391 24.217C34.4623 24.217 34.4854 24.2217 34.5068 24.2306C34.5283 24.2395 34.5477 24.2526 34.5641 24.2691C34.5807 24.2856 34.5938 24.3052 34.6027 24.3269C34.6116 24.3485 34.6162 24.3717 34.6161 24.3951C34.6161 24.4185 34.6116 24.4416 34.6026 24.4633C34.5937 24.4849 34.5806 24.5045 34.5641 24.5211C34.5477 24.5376 34.5283 24.5507 34.5068 24.5596C34.4854 24.5685 34.4623 24.5731 34.4391 24.5731ZM34.4521 24.2871H34.3521V24.5001H34.3981V24.4201H34.4191L34.4841 24.5001H34.5391L34.4691 24.4201C34.4876 24.4186 34.5051 24.4113 34.5191 24.3991C34.5249 24.3935 34.5294 24.3868 34.5325 24.3794C34.5356 24.372 34.5372 24.3641 34.5371 24.3561C34.5376 24.3466 34.5358 24.3372 34.532 24.3285C34.5282 24.3198 34.5224 24.3121 34.5151 24.3061C34.4969 24.2928 34.4746 24.2861 34.4521 24.2871ZM34.4521 24.3271C34.4622 24.3265 34.4724 24.3289 34.4811 24.3341C34.4846 24.3363 34.4875 24.3395 34.4894 24.3431C34.4913 24.3468 34.4922 24.3509 34.4921 24.355C34.4923 24.3594 34.4914 24.3636 34.4895 24.3675C34.4876 24.3714 34.4847 24.3747 34.4811 24.3771C34.4724 24.3823 34.4622 24.3847 34.4521 24.3841H34.4001V24.3271H34.4521Z" fill="black"/>
</svg>
