<svg width="42" height="28" viewBox="0 0 42 28" fill="none" xmlns="http://www.w3.org/2000/svg">
<path d="M40 0H2C0.89543 0 0 0.89543 0 2V26C0 27.1046 0.89543 28 2 28H40C41.1046 28 42 27.1046 42 26V2C42 0.89543 41.1046 0 40 0Z" fill="white"/>
<path d="M17.568 8.21729L15.188 19.1803H18.073L20.381 8.21729H17.568Z" fill="#254194"/>
<path d="M13.386 8.21924L10.4291 15.6482L9.203 9.30121C9.15102 8.99543 8.99145 8.71832 8.75305 8.5199C8.51465 8.32148 8.21321 8.21485 7.90308 8.21924H3.07104L2.99902 8.50824C3.96974 8.71133 4.91368 9.02608 5.81201 9.44623C6.24501 9.66223 6.31206 9.87922 6.46106 10.3842L8.69702 19.1112H11.7261L16.342 8.14819H13.385L13.386 8.21924Z" fill="#254194"/>
<path d="M35.8158 8.21621H33.3638C33.1025 8.20518 32.8442 8.27558 32.6246 8.41763C32.405 8.55967 32.2349 8.76639 32.1378 9.00924L27.8828 19.1782H30.8398L31.4167 17.5192H35.0228L35.3838 19.1782H37.9838L35.8158 8.21621ZM32.3538 15.2842L33.8688 11.1732L34.7338 15.2842H32.3538Z" fill="#254194"/>
<path d="M24.132 11.2462C24.132 10.8852 24.493 10.4532 25.358 10.3092C26.3237 10.2174 27.2961 10.3903 28.171 10.8092L28.671 8.50122C27.8146 8.19015 26.9131 8.02125 26.0021 8.00122C23.1891 8.00122 21.2421 9.51624 21.2421 11.6072C21.2421 13.1942 22.684 14.0592 23.694 14.5642C24.776 15.0642 25.137 15.4292 25.137 15.9342C25.137 16.6552 24.272 17.0162 23.406 17.0162C22.3957 17.0515 21.3959 16.8016 20.521 16.2952L20.021 18.6752C21.033 19.0664 22.1101 19.2622 23.1951 19.2522C26.1521 19.2522 28.095 17.8092 28.095 15.5022C28.098 12.7602 24.06 12.5442 24.132 11.2462Z" fill="#254194"/>
</svg>
