<svg width="42" height="28" viewBox="0 0 42 28" fill="none" xmlns="http://www.w3.org/2000/svg">
<path d="M40 0H2C0.89543 0 0 0.89543 0 2V26C0 27.1046 0.89543 28 2 28H40C41.1046 28 42 27.1046 42 26V2C42 0.89543 41.1046 0 40 0Z" fill="white"/>
<path d="M7.20586 6H5.48486V13.118H7.20586V6Z" fill="#231F20"/>
<path d="M8.28105 6H7.74805V13.118H8.28105V6Z" fill="#231F20"/>
<path d="M9.70109 6H8.74609V13.118H9.70109V6Z" fill="#231F20"/>
<path d="M11.1541 6H10.6211V13.118H11.1541V6Z" fill="#231F20"/>
<path d="M11.7967 6H11.3857V13.118H11.7967V6Z" fill="#231F20"/>
<path d="M4.70976 6H4.17676V22.112H4.70976V6Z" fill="#231F20"/>
<path d="M3.95498 6H3.00098V22.112H3.95498V6Z" fill="#231F20"/>
<path d="M16.367 6H14.647V13.118H16.367V6Z" fill="#231F20"/>
<path d="M17.4432 6H16.9102V13.118H17.4432V6Z" fill="#231F20"/>
<path d="M18.8622 6H17.9072V13.118H18.8622V6Z" fill="#231F20"/>
<path d="M20.3152 6H19.7822V13.118H20.3152V6Z" fill="#231F20"/>
<path d="M20.9579 6H20.5469V13.118H20.9579V6Z" fill="#231F20"/>
<path d="M13.8709 6H13.3379V13.118H13.8709V6Z" fill="#231F20"/>
<path d="M13.1161 6H12.1621V13.118H13.1161V6Z" fill="#231F20"/>
<path d="M22.5878 6H21.6338V13.118H22.5878V6Z" fill="#231F20"/>
<path d="M24.0418 6H23.5098V13.118H24.0418V6Z" fill="#231F20"/>
<path d="M24.6859 6H24.2739V13.118H24.6859V6Z" fill="#231F20"/>
<path d="M26.7601 6H26.2271V13.118H26.7601V6Z" fill="#231F20"/>
<path d="M26.0048 6H25.0498V13.118H26.0048V6Z" fill="#231F20"/>
<path d="M28.0008 6H27.4688V13.118H28.0008V6Z" fill="#231F20"/>
<path d="M28.6449 6H28.2339V13.118H28.6449V6Z" fill="#231F20"/>
<path d="M30.719 6H30.186V13.118H30.719V6Z" fill="#231F20"/>
<path d="M29.9648 6H29.0098V13.118H29.9648V6Z" fill="#231F20"/>
<path d="M32.9041 6H31.1841V13.118H32.9041V6Z" fill="#231F20"/>
<path d="M33.9788 6H33.4458V13.118H33.9788V6Z" fill="#231F20"/>
<path d="M35.3998 6H34.4448V13.118H35.3998V6Z" fill="#231F20"/>
<path d="M36.8518 6H36.3188V13.118H36.8518V6Z" fill="#231F20"/>
<path d="M37.495 6H37.084V13.118H37.495V6Z" fill="#231F20"/>
<path d="M39.1259 6H38.1719V22.112H39.1259V6Z" fill="#231F20"/>
<path d="M5.56887 21.8021V13.6321H8.63487C9.14639 13.6128 9.65656 13.6968 10.1349 13.8791C10.5019 14.0363 10.8112 14.3036 11.0199 14.6441C11.2281 14.9652 11.3399 15.3394 11.3419 15.7221C11.3415 16.0709 11.2431 16.4125 11.0579 16.7081C10.85 17.0336 10.5533 17.2928 10.2029 17.4551C10.6535 17.5705 11.0537 17.8309 11.3419 18.1961C11.6106 18.5513 11.7516 18.9868 11.7419 19.4321C11.745 19.8025 11.6618 20.1685 11.4989 20.5011C11.3617 20.7986 11.1561 21.0593 10.8989 21.2621C10.6297 21.4522 10.326 21.5881 10.0049 21.6621C9.57209 21.7613 9.1288 21.8073 8.68487 21.7991H5.56787L5.56887 21.8021ZM6.65287 17.0671H8.42287C8.76944 17.0791 9.11607 17.0454 9.45387 16.9671C9.70083 16.9041 9.91951 16.7601 10.0749 16.5581C10.2203 16.3487 10.294 16.0979 10.2849 15.8431C10.2893 15.5901 10.2198 15.3412 10.0849 15.1271C9.9574 14.9219 9.75929 14.7704 9.52787 14.7011C9.12077 14.6082 8.70306 14.5702 8.28587 14.5881H6.65287V17.0631V17.0671ZM6.65287 20.8431H8.68787C8.93455 20.8498 9.18136 20.8364 9.42587 20.8031C9.64619 20.7698 9.85804 20.6944 10.0499 20.5811C10.2249 20.4675 10.367 20.3099 10.4619 20.1241C10.5732 19.9114 10.6289 19.6741 10.6239 19.4341C10.6314 19.1492 10.5488 18.8693 10.3879 18.6341C10.2306 18.4073 10.0017 18.24 9.73787 18.1591C9.34867 18.0537 8.94582 18.0075 8.54287 18.0221H6.65287V20.8401V20.8431Z" fill="#231F20"/>
<path d="M12.7231 18.841C12.6863 18.3935 12.7493 17.9434 12.9076 17.5232C13.0658 17.103 13.3153 16.7232 13.6381 16.411C14.1562 15.9694 14.8195 15.7354 15.5001 15.754C15.87 15.7412 16.2385 15.8057 16.582 15.9435C16.9255 16.0812 17.2365 16.2892 17.4951 16.554C17.7629 16.8515 17.9691 17.1991 18.102 17.5767C18.2348 17.9543 18.2916 18.3544 18.2691 18.754C18.2987 19.3707 18.1814 19.9855 17.9271 20.548C17.7029 20.9792 17.3546 21.3331 16.9271 21.564C16.4899 21.805 15.9981 21.9293 15.4991 21.925C15.1271 21.9404 14.7561 21.8777 14.41 21.7409C14.0638 21.6042 13.7501 21.3964 13.4891 21.131C12.9409 20.4978 12.6652 19.6736 12.7221 18.838L12.7231 18.841ZM13.7501 18.841C13.7036 19.4498 13.8814 20.0544 14.2501 20.541C14.4039 20.7225 14.5963 20.8674 14.8132 20.9652C15.0302 21.0629 15.2662 21.111 15.5041 21.106C15.7409 21.1104 15.9757 21.0617 16.1912 20.9636C16.4068 20.8655 16.5978 20.7204 16.7501 20.539C17.1195 20.0417 17.2971 19.4278 17.2501 18.81C17.2928 18.2147 17.1149 17.6245 16.7501 17.1521C16.5979 16.9717 16.4075 16.8274 16.1927 16.7297C15.9779 16.632 15.744 16.5833 15.5081 16.5871C15.2705 16.5816 15.0347 16.6291 14.8178 16.7261C14.6009 16.8232 14.4083 16.9673 14.2541 17.148C13.8866 17.6333 13.7088 18.236 13.7541 18.843L13.7501 18.841Z" fill="#231F20"/>
<path d="M19.4229 21.8011V13.6311H20.4229V21.8011H19.4229Z" fill="#231F20"/>
<path d="M26.0209 19.8839L27.059 20.0209C26.9274 20.5782 26.61 21.0741 26.1589 21.4269C25.6662 21.7762 25.0714 21.9521 24.468 21.9269C24.0886 21.9456 23.7095 21.8839 23.3556 21.7461C23.0017 21.6082 22.6808 21.3972 22.414 21.1269C21.8768 20.5096 21.6042 19.7057 21.6549 18.8889C21.6017 18.0479 21.8763 17.2189 22.421 16.5759C22.6744 16.3039 22.9833 16.0896 23.3269 15.9474C23.6704 15.8052 24.0404 15.7386 24.412 15.7519C24.7734 15.7399 25.1331 15.8057 25.4668 15.9449C25.8005 16.0842 26.1003 16.2936 26.346 16.5589C26.8792 17.1907 27.1482 18.0038 27.097 18.8289C27.097 18.8889 27.097 18.9769 27.091 19.0949H22.682C22.6803 19.642 22.8759 20.1714 23.233 20.5859C23.3907 20.7541 23.5821 20.8872 23.7948 20.9764C24.0074 21.0657 24.2364 21.1091 24.467 21.1039C24.8038 21.1133 25.1343 21.011 25.407 20.8129C25.6999 20.57 25.9148 20.2462 26.0249 19.8819L26.0209 19.8839ZM22.735 18.2759H26.035C26.0247 17.873 25.8929 17.4827 25.657 17.1559C25.5094 16.9697 25.3206 16.8204 25.1054 16.7197C24.8902 16.6191 24.6545 16.5698 24.417 16.5759C24.2025 16.5709 23.9892 16.6092 23.7898 16.6886C23.5905 16.768 23.4093 16.8868 23.257 17.0379C22.9346 17.3707 22.7496 17.8128 22.739 18.2759H22.735Z" fill="#231F20"/>
<path d="M30.5107 20.9059L30.6477 21.7919C30.4001 21.8474 30.1475 21.8773 29.8937 21.8809C29.6012 21.897 29.3095 21.8374 29.0468 21.7079C28.8599 21.6069 28.7114 21.4474 28.6237 21.2539C28.518 20.8677 28.4767 20.4666 28.5017 20.0669V16.6549H27.7607V15.8799H28.5017V14.4149L29.5017 13.8149V15.8829H30.5017V16.6579H29.5017V20.1269C29.4892 20.3133 29.5074 20.5005 29.5558 20.6809C29.5896 20.7647 29.65 20.835 29.7278 20.8809C29.8334 20.9348 29.9514 20.9597 30.0697 20.9529C30.2161 20.9497 30.3622 20.9364 30.5067 20.9129L30.5107 20.9059Z" fill="#231F20"/>
<path d="M31.12 18.841C31.0834 18.3935 31.1465 17.9435 31.3047 17.5233C31.4629 17.1031 31.7123 16.7232 32.035 16.411C32.5532 15.9696 33.2165 15.7355 33.897 15.754C34.2669 15.7412 34.6354 15.8058 34.9789 15.9435C35.3224 16.0813 35.6334 16.2892 35.892 16.554C36.1598 16.8515 36.3661 17.199 36.499 17.5766C36.6318 17.9542 36.6885 18.3544 36.666 18.754C36.6956 19.3707 36.5784 19.9855 36.324 20.548C36.1002 20.9794 35.7518 21.3334 35.324 21.564C34.8868 21.8049 34.3951 21.9292 33.896 21.925C33.5239 21.9405 33.1527 21.8778 32.8064 21.741C32.46 21.6043 32.1461 21.3965 31.885 21.131C31.3371 20.4976 31.0614 19.6736 31.118 18.838L31.12 18.841ZM32.147 18.841C32.1005 19.4497 32.2783 20.0544 32.647 20.541C32.8007 20.7224 32.993 20.8672 33.2097 20.9649C33.4265 21.0627 33.6623 21.1109 33.9 21.106C34.1366 21.1103 34.3713 21.0616 34.5867 20.9635C34.8021 20.8654 34.9928 20.7204 35.145 20.539C35.5144 20.0417 35.692 19.4278 35.645 18.81C35.6875 18.2147 35.5095 17.6246 35.145 17.152C34.9924 16.9721 34.8019 16.8282 34.5872 16.7305C34.3725 16.6328 34.1388 16.5838 33.903 16.587C33.6654 16.5816 33.4296 16.6291 33.2127 16.7261C32.9958 16.8231 32.8032 16.9672 32.649 17.148C32.2815 17.6333 32.1037 18.236 32.149 18.843L32.147 18.841Z" fill="#231F20"/>
</svg>
