<svg width="42" height="28" viewBox="0 0 42 28" fill="none" xmlns="http://www.w3.org/2000/svg">
<path d="M40 0H2C0.89543 0 0 0.89543 0 2V26C0 27.1046 0.89543 28 2 28H40C41.1046 28 42 27.1046 42 26V2C42 0.89543 41.1046 0 40 0Z" fill="#991915"/>
<path fill-rule="evenodd" clip-rule="evenodd" d="M11.4211 11.0511C11.6011 10.9271 11.8331 10.3611 11.5681 10.1261C11.5068 10.0853 11.4374 10.0584 11.3646 10.0475C11.2919 10.0367 11.2176 10.0419 11.1471 10.063C11.0778 10.0685 11.0104 10.0882 10.949 10.1207C10.8876 10.1532 10.8336 10.1979 10.7901 10.2521C10.6761 10.4081 10.5711 10.8771 10.7481 11.0521C10.9251 11.2271 11.3071 11.1301 11.4211 11.0511ZM8.85608 10.1261C8.72708 10.9641 8.5811 11.7861 8.4361 12.6071C7.4991 12.6171 6.54311 12.6531 5.63611 12.5861C5.80711 11.7861 5.92908 10.9311 6.09808 10.1261H5.08905C4.72805 12.1761 4.39909 14.2581 3.99609 16.2651H5.02606C5.18706 15.2351 5.33906 14.195 5.55206 13.217C6.47674 13.1729 7.40318 13.18 8.32709 13.2381C8.15309 14.2551 7.94209 15.2381 7.78009 16.2651H8.81006C9.14106 14.1851 9.49008 12.1231 9.90308 10.1261H8.85608ZM23.4261 11.8921C23.0987 11.7771 22.7402 11.7888 22.4211 11.925C22.102 12.0613 21.8455 12.3121 21.7021 12.6281C21.7681 12.4001 21.7961 12.1331 21.8491 11.8921H21.0491C20.8491 13.4071 20.5661 14.8291 20.2921 16.2651H21.1921C21.268 15.3149 21.4229 14.3726 21.6551 13.4481C21.6954 13.2741 21.7722 13.1106 21.8804 12.9685C21.9886 12.8264 22.1258 12.7089 22.2828 12.6238C22.4399 12.5388 22.6132 12.488 22.7913 12.475C22.9694 12.4619 23.1483 12.4868 23.3161 12.5481C23.3331 12.3041 23.4021 12.1201 23.4261 11.8961V11.8921ZM23.9261 15.235C23.844 14.9628 23.8155 14.6772 23.8421 14.394C23.8658 13.7836 24.0789 13.1958 24.4521 12.7121C24.7696 12.5109 25.1331 12.3937 25.5083 12.3717C25.8835 12.3497 26.2582 12.4234 26.5971 12.5861C26.6201 12.3361 26.6701 12.1131 26.7021 11.8711C26.1944 11.7291 25.6608 11.7065 25.1429 11.805C24.6251 11.9035 24.1371 12.1206 23.7171 12.4391C23.3846 12.8528 23.148 13.3351 23.0244 13.8513C22.9007 14.3674 22.8931 14.9046 23.0021 15.4241C23.3271 16.4891 24.7861 16.5471 25.9661 16.1391C26.0181 15.9251 26.0461 15.6861 26.0921 15.4661C25.4511 15.8021 24.2181 15.976 23.9311 15.235H23.9261ZM34.0811 11.9131C33.7614 11.792 33.4081 11.7937 33.0897 11.918C32.7712 12.0423 32.5102 12.2804 32.3571 12.5861C32.4311 12.3801 32.4351 12.1041 32.5041 11.8921H31.7041C31.4888 13.3941 31.2294 14.8517 30.9261 16.2651H31.8511C31.8787 15.7346 31.9489 15.2072 32.0611 14.688C32.2541 13.474 32.5381 12.1431 33.9531 12.5431C34.0061 12.3391 34.0261 12.1061 34.0851 11.9131H34.0811ZM10.4921 11.8921C10.4671 11.8921 10.4691 11.9251 10.4711 11.9551C10.2711 13.4451 10.0021 14.8641 9.71405 16.2651H10.6141C10.8311 14.7651 11.0801 13.2971 11.3921 11.8921H10.4921ZM18.4391 11.808C17.8425 11.8154 17.2709 12.0484 16.8391 12.4601C16.2506 13.2104 15.9789 14.1611 16.0821 15.1091C16.2451 16.5661 18.0581 16.5091 19.5091 16.1601C19.5341 15.9041 19.5961 15.6861 19.6351 15.4451C19.2891 15.6194 18.9116 15.7223 18.525 15.7476C18.1384 15.7728 17.7508 15.7199 17.3851 15.592C16.9211 15.298 16.9181 14.5561 17.0701 13.9101C18.0451 13.8791 19.0581 13.8851 20.0341 13.9101C20.1697 13.4531 20.1985 12.971 20.1181 12.5011C19.9211 11.9051 19.1891 11.751 18.4441 11.808H18.4391ZM19.3011 13.4081H17.1781C17.2249 13.1208 17.3703 12.8587 17.5892 12.6669C17.8082 12.4751 18.0871 12.3656 18.3781 12.3571C19.0321 12.3301 19.4981 12.5961 19.3061 13.4061L19.3011 13.4081ZM15.0121 11.894C14.6564 11.7904 14.2815 11.771 13.917 11.8373C13.5525 11.9036 13.2085 12.0538 12.9121 12.2761C12.9121 12.2901 12.9021 12.2921 12.8911 12.2931L12.9121 12.2761C12.9191 12.1361 12.9681 12.0381 12.9751 11.8971H12.1971C11.8731 14.0541 11.4881 16.1501 11.0831 18.2251H11.9831C12.1141 17.4171 12.2001 16.5641 12.3831 15.8071C12.5891 16.6071 13.9381 16.4511 14.5061 16.1431C15.6861 15.5041 16.5911 12.4841 15.0171 11.8961L15.0121 11.894ZM14.2971 15.4471C13.8131 15.9591 12.6241 15.9471 12.5311 15.0891C12.534 14.6979 12.5906 14.3089 12.6991 13.933C12.7691 13.54 12.8191 13.1631 12.8881 12.8191C13.3641 12.2371 14.7641 12.1671 14.9061 13.1341C15.0096 13.9535 14.7933 14.7812 14.3021 15.4451L14.2971 15.4471ZM37.4491 9.99609C37.3721 10.6751 37.2681 11.329 37.1341 11.951C34.9161 11.251 33.5561 12.881 33.5811 14.894C33.5574 15.2707 33.6691 15.6435 33.8961 15.9451C34.2091 16.1897 34.5866 16.3378 34.9824 16.3713C35.3783 16.4049 35.7753 16.3225 36.1251 16.1341C36.2445 16.0446 36.3506 15.9386 36.4401 15.8191C36.4991 15.7461 36.5911 15.5531 36.6081 15.6091C36.5648 15.8242 36.5367 16.042 36.5241 16.261H37.3441C37.5644 14.1557 37.9013 12.0642 38.3531 9.99609H37.4491ZM35.4311 15.7781C34.8221 15.7911 34.5201 15.414 34.5061 14.79C34.4821 13.696 34.9621 12.4811 35.9361 12.3721C36.3155 12.3378 36.6977 12.3954 37.0501 12.54C36.7451 13.773 36.8551 15.751 35.4311 15.782V15.7781ZM27.6311 11.8881C27.5871 12.1381 27.5181 12.3641 27.4631 12.6031C27.9971 12.4691 29.6581 12.0591 29.8181 12.7711C29.8463 13.0008 29.81 13.2339 29.7131 13.4441C28.2131 13.3021 26.9871 13.5511 26.6651 14.6211C26.5453 14.9052 26.528 15.2221 26.6163 15.5175C26.7046 15.8129 26.893 16.0683 27.1491 16.2401C27.5561 16.3999 28.0041 16.4228 28.4253 16.3051C28.8465 16.1875 29.2178 15.9357 29.4831 15.5881C29.4345 15.809 29.4133 16.035 29.4201 16.261H30.1981C30.2182 15.5831 30.2955 14.908 30.4291 14.243C30.5698 13.7066 30.6543 13.157 30.6811 12.6031C30.6131 11.4531 28.7011 11.8611 27.6311 11.8961V11.8881ZM29.1031 15.42C28.6371 15.876 27.3291 16.006 27.4631 14.92C27.5741 14.014 28.5631 13.8201 29.6291 13.9531C29.6031 14.4846 29.4201 14.9966 29.1031 15.4241V15.42Z" fill="white"/>
</svg>
