<svg width="63" height="75" viewBox="0 0 63 75" fill="none" xmlns="http://www.w3.org/2000/svg">
<path d="M50.2963 17.0316H48.5363L48.493 17.1266C48.4547 17.2216 46.8813 23.3016 46.8813 23.3616C46.8813 23.375 46.8497 23.3883 46.8163 23.3883C46.738 23.3883 46.803 23.605 45.8797 20.0783C45.4713 18.5116 45.118 17.1816 45.0963 17.1266L45.053 17.0316H43.2847C42.3047 17.0316 41.4897 17.045 41.4747 17.0633C41.4597 17.0816 41.443 19.2116 41.443 21.8C41.3815 23.3883 41.4015 24.9787 41.503 26.565C41.8808 26.6217 42.2639 26.6345 42.6447 26.6033L43.7297 26.59L43.743 22.9833C43.6797 21.7826 43.7031 20.579 43.813 19.3816C43.8329 19.3843 43.8517 19.3926 43.8671 19.4056C43.8825 19.4186 43.8938 19.4357 43.8997 19.455C43.908 19.4983 44.358 21.0917 44.888 22.995C45.418 24.8983 45.8713 26.4866 45.888 26.535C45.9046 26.5833 46.0013 26.6083 46.8247 26.6L47.7213 26.5866L48.7046 23.0283C49.2446 21.0683 49.7046 19.4666 49.7396 19.4666C49.8793 20.8777 49.9145 22.2971 49.8447 23.7133C49.7864 24.6617 49.8065 25.6132 49.9046 26.5583C50.2825 26.615 50.6655 26.6279 51.0463 26.5966L52.1313 26.5833L52.1446 21.8633C52.1446 18.41 52.1447 17.13 52.1063 17.08C51.507 16.9934 50.8995 16.9771 50.2963 17.0316V17.0316Z" fill="white"/>
<path d="M33.298 21.8433C32.393 19.4 31.6081 17.3317 31.5697 17.25L31.4914 17.0967L30.2847 17.0833C29.1614 17.075 29.0747 17.0833 29.0347 17.1533C29.0131 17.1967 28.8081 17.7267 28.5814 18.3383C28.3547 18.95 27.6547 20.82 27.0297 22.505C26.4378 23.8168 25.9486 25.1725 25.5664 26.56C25.5831 26.6117 25.793 26.62 26.7764 26.62H27.9664L28.2697 25.75L28.5714 24.8783L30.2931 24.8867L32.0147 24.9L32.2881 25.705C32.3831 25.9967 32.4914 26.2833 32.6214 26.5633C33.0288 26.641 33.4453 26.6601 33.8581 26.62C35.1514 26.62 35.108 26.6283 35.008 26.3933C34.9747 26.33 34.208 24.2867 33.298 21.8433ZM30.2714 23.085C29.9009 23.1248 29.5264 23.1068 29.1614 23.0317C29.1614 22.9883 29.3281 22.475 30.1281 20.0017C30.2581 19.5917 30.3197 19.64 30.5381 20.32C30.6381 20.6333 30.8714 21.3483 31.0547 21.9133C31.2381 22.4783 31.388 22.9717 31.388 23.0117C31.388 23.0833 31.2881 23.0867 30.2731 23.0867L30.2714 23.085Z" fill="white"/>
<path d="M18.874 24.7234C18.5606 24.5267 17.1506 23.6567 17.064 23.6184C16.9773 23.58 16.959 23.5834 16.859 23.7567C16.6607 24.0539 16.3891 24.2949 16.0706 24.4567C15.6396 24.6501 15.1662 24.7299 14.6956 24.6884C14.4084 24.7214 14.1179 24.6668 13.8623 24.5317C13.4863 24.3195 13.169 24.0171 12.9389 23.6517C12.8457 23.4623 12.7682 23.2655 12.7073 23.0634C12.5934 22.6896 12.5516 22.2977 12.584 21.9084C12.5242 21.2895 12.6396 20.6663 12.9173 20.11C13.0446 19.8278 13.2362 19.5793 13.4767 19.3842C13.7171 19.1892 13.9999 19.0531 14.3023 18.9867C14.5455 18.9503 14.7919 18.9397 15.0373 18.955C15.3592 18.9419 15.6802 18.9982 15.9784 19.1201C16.2767 19.2421 16.5451 19.4268 16.7656 19.6617L16.9323 19.8567L17.8873 19.2734C18.404 18.9517 18.8456 18.6684 18.854 18.6467C18.7964 18.5338 18.7197 18.4318 18.6273 18.345C17.8926 17.6529 16.9786 17.1806 15.989 16.9817C15.4104 16.8751 14.82 16.8471 14.234 16.8984C13.2666 17.026 12.3642 17.4559 11.6556 18.1267C11.0531 18.6851 10.6111 19.3947 10.3756 20.1817C10.0484 21.193 10.0315 22.2791 10.3273 23.3C10.5124 23.8598 10.7684 24.3936 11.089 24.8884C11.6628 25.6715 12.4714 26.2513 13.3973 26.5434C14.1477 26.7753 14.94 26.8389 15.7178 26.7297C16.4956 26.6205 17.2397 26.3412 17.8973 25.9117C18.2685 25.6262 18.5973 25.2895 18.874 24.9117C18.9706 24.79 18.9656 24.79 18.874 24.7234Z" fill="white"/>
<path d="M59.5779 12.9517C59.5345 12.8917 59.4478 12.8983 58.6812 13.0433C53.9592 13.9847 49.0825 13.8077 44.4412 12.5267C40.45 11.3763 36.7721 9.33506 33.6845 6.55668C32.9296 5.86174 32.2114 5.12797 31.5328 4.35834L31.2362 4.01001C31.2362 4.01001 31.1228 4.14001 30.9912 4.30168C29.4133 6.12294 27.5884 7.71447 25.5695 9.03001C22.3554 11.1461 18.7367 12.5713 14.9428 13.215C13.3048 13.509 11.6416 13.6391 9.97784 13.6033C7.88557 13.6288 5.79624 13.4389 3.74285 13.0367L3.00783 12.9067C2.85116 12.88 2.87783 12.7933 2.7495 14.0467C1.79223 24.3601 3.60037 34.7424 7.98784 44.125C11.5473 51.7659 16.4597 58.6997 22.4878 64.5917C24.1545 66.245 25.5112 67.475 27.2262 68.9017C28.7062 70.1333 31.1328 71.99 31.2595 71.99C31.3861 71.99 33.8278 70.1 35.1961 68.9683C41.5113 63.7401 46.906 57.4908 51.1562 50.48C55.8817 42.7367 58.8118 34.0329 59.7312 25.0083C60.0309 21.8084 60.0677 18.5893 59.8412 15.3833C59.8061 14.5679 59.7182 13.7557 59.5779 12.9517V12.9517ZM14.6145 41.8117C14.6145 51.3667 14.6062 53.1783 14.5528 53.1783C13.7493 52.1058 13.0107 50.986 12.3412 49.825C9.51879 45.1609 7.33276 40.1403 5.84118 34.8967C5.46785 33.5633 4.81783 30.8 4.81783 30.5333C4.81783 30.4467 4.88282 30.4467 9.71615 30.4467H14.6145V41.8117ZM25.1961 47.93C25.1961 63.115 25.1962 65.415 25.1362 65.415C25.0495 65.415 23.3028 63.735 22.2528 62.645C20.2915 60.6252 18.4489 58.4933 16.7345 56.26L16.3112 55.7117V30.4433H25.1945L25.1961 47.93ZM35.6962 48.705V66.965L35.0828 67.4817C34.2495 68.1917 33.4162 68.8667 32.6062 69.4933C31.5212 70.3267 31.3345 70.47 31.2428 70.47C30.0208 69.6559 28.8579 68.7565 27.7628 67.7783L26.8578 67.02V30.4483H35.6912L35.6962 48.705ZM46.2778 43.0083V55.5717L45.7462 56.26C44.4128 57.9833 43.2245 59.4083 41.6662 61.1283C40.8328 62.0483 37.5512 65.33 37.4645 65.33C37.3778 65.33 37.3945 63.675 37.3945 47.8883V30.4467H46.2778V43.0083ZM57.6312 30.675C57.6045 30.9633 57.3612 32.065 57.0578 33.2783C55.6556 38.8206 53.4738 44.1359 50.5778 49.065C49.8078 50.4284 48.958 51.7451 48.0329 53.0083C47.9812 53.0083 47.9728 51.3417 47.9728 41.7283V30.4483H57.6528L57.6312 30.675ZM58.6545 23.0233C58.5078 25.0667 58.1895 27.87 58.0078 28.69L57.9895 28.7917H31.2512C12.9779 28.7917 4.50783 28.7783 4.48783 28.7483C4.4495 28.6817 4.18449 26.8283 4.07783 25.8517C3.69905 22.4025 3.63212 18.9262 3.87783 15.465C3.91283 14.9983 3.94284 14.56 3.94284 14.4933C3.94284 14.3883 3.95952 14.375 4.09619 14.375C4.18452 14.375 4.48451 14.4133 4.78451 14.4583C9.26516 15.2032 13.8545 14.9598 18.2312 13.745C22.8108 12.4491 26.9934 10.0278 30.3978 6.70168C30.6626 6.42068 30.9497 6.16151 31.2562 5.92668C31.353 5.97237 31.4359 6.04315 31.4962 6.13168C31.5879 6.24001 31.9712 6.62334 32.3528 6.98168C36.2198 10.6081 41.0025 13.1112 46.1862 14.2217C49.8456 14.9817 53.6111 15.0832 57.3062 14.5217C57.7162 14.4617 58.1395 14.4033 58.2728 14.3917L58.4995 14.37L58.5212 14.5133C58.5345 14.5967 58.5812 15.14 58.6212 15.7283C58.7345 17.0717 58.7478 21.77 58.6562 23.0167L58.6545 23.0233Z" fill="white"/>
<path d="M61.1479 23.2033C60.9774 25.9391 60.6227 28.6602 60.0862 31.3483C57.2961 44.2292 50.7552 55.9958 41.2879 65.165C40.7429 65.71 40.0029 66.43 39.6462 66.76C39.2896 67.09 38.8912 67.4666 38.7646 67.5816C38.3029 68.01 36.9629 69.19 36.3279 69.7266C34.6985 71.1203 32.9985 72.4293 31.2346 73.6483C30.7151 73.348 30.2237 73.0016 29.7663 72.6133C21.9071 66.7495 15.237 59.4419 10.1129 51.0816C6.1367 44.5402 3.41783 37.3134 2.09624 29.7733C1.06991 23.6803 0.963732 17.4678 1.78124 11.3433C1.84791 10.8266 1.89457 10.6083 1.9379 10.5966C2.08103 10.6046 2.22211 10.6344 2.35625 10.685C4.37483 11.3624 6.46185 11.8157 8.57959 12.0366C9.84384 12.134 11.1128 12.1552 12.3796 12.1C18.0874 11.6667 23.4709 9.27726 27.6212 5.33497C28.8697 4.1944 30.0081 2.93887 31.0213 1.58497C31.0765 1.4892 31.1508 1.40581 31.2396 1.33997C31.3537 1.43076 31.4517 1.54006 31.5296 1.6633C33.0991 3.72534 34.9473 5.55951 37.0213 7.1133C39.9998 9.36578 43.4398 10.9315 47.0946 11.6983C50.2476 12.308 53.4904 12.2853 56.6346 11.6316C57.7971 11.3899 58.945 11.0828 60.0729 10.7116C60.2194 10.6586 60.3692 10.6151 60.5213 10.5816C60.6146 10.5816 60.6179 10.6083 60.7496 11.6316C60.9679 13.395 61.1096 15.0533 61.1946 16.875C61.2446 18.1016 61.2146 22.1916 61.1479 23.2033Z" fill="white"/>
<path d="M61.8433 10.6667C61.7133 9.60333 61.7033 9.57833 61.6083 9.57833C61.4508 9.61198 61.2954 9.6554 61.1433 9.70833C59.9734 10.0937 58.7826 10.4126 57.5766 10.6633C54.3154 11.3413 50.9521 11.3651 47.6816 10.7333C43.8907 9.93844 40.3227 8.31464 37.2333 5.97833C35.0827 4.36946 33.1661 2.46964 31.5383 0.333333C31.457 0.206161 31.3551 0.0934922 31.2366 0C31.1443 0.0698134 31.0672 0.157714 31.01 0.258333C29.9585 1.65874 28.7778 2.95723 27.4833 4.13667C23.1787 8.22436 17.5958 10.702 11.6766 11.1517C10.3626 11.2089 9.04639 11.1872 7.73498 11.0867C5.53836 10.857 3.37365 10.3864 1.27995 9.68333C1.14039 9.63108 0.993763 9.60017 0.844978 9.59167C0.801644 9.605 0.753301 9.83167 0.678301 10.3667C-0.168633 16.7185 -0.0562472 23.1616 1.01165 29.48C2.38222 37.3001 5.20166 44.7954 9.32495 51.58C14.6411 60.2522 21.5612 67.8318 29.715 73.9133C30.1899 74.3168 30.7003 74.6766 31.24 74.9883C33.0694 73.7234 34.8328 72.3655 36.5233 70.92C37.1816 70.3633 38.57 69.1383 39.0483 68.695C39.1783 68.5717 39.5933 68.195 39.9633 67.84C40.3333 67.485 41.0999 66.7517 41.6666 66.1867C51.4879 56.6773 58.2732 44.4725 61.1666 31.1117C61.7229 28.3235 62.091 25.501 62.2683 22.6633C62.3416 21.615 62.37 17.3733 62.3116 16.105C62.22 14.2267 62.07 12.5 61.8433 10.6667ZM59.73 25C58.8108 34.0277 55.8794 42.7345 51.1516 50.48C46.9015 57.4908 41.5068 63.7401 35.1916 68.9683C33.8233 70.1017 31.3583 71.99 31.255 71.99C31.1516 71.99 28.7033 70.135 27.2216 68.9017C25.5066 67.48 24.155 66.245 22.4833 64.5917C16.4556 58.7007 11.5432 51.768 7.98329 44.1283C3.59583 34.7457 1.78768 24.3634 2.74495 14.05C2.86828 12.7967 2.84662 12.8833 3.00328 12.91L3.7383 13.04C5.79169 13.4423 7.88102 13.6322 9.97329 13.6067C11.6371 13.6424 13.3003 13.5123 14.9383 13.2183C18.7322 12.5746 22.3509 11.1495 25.565 9.03333C27.5839 7.7178 29.4088 6.12626 30.9866 4.305C31.1166 4.13833 31.2266 4.01333 31.2316 4.01333C31.2366 4.01333 31.3616 4.17 31.5283 4.36167C32.208 5.1314 32.9273 5.86518 33.6833 6.56C36.7709 9.33838 40.4488 11.3797 44.4399 12.53C49.0813 13.811 53.958 13.988 58.68 13.0467C59.4416 12.9033 59.5333 12.8933 59.5766 12.955C59.715 13.7569 59.8013 14.5669 59.8349 15.38C60.0624 18.5842 60.0273 21.8016 59.73 25V25Z" fill="black"/>
<path d="M58.5304 14.5117L58.5087 14.3683L58.2821 14.39C58.1521 14.4033 57.7237 14.46 57.3154 14.52C53.6203 15.0816 49.8548 14.98 46.1954 14.22C41.0115 13.1101 36.2287 10.6069 32.3621 6.97999C31.9737 6.62332 31.5954 6.23999 31.5037 6.12999C31.4439 6.04169 31.3617 5.97092 31.2654 5.92499C30.959 6.15984 30.6719 6.41901 30.4071 6.69999C27.0027 10.0261 22.8201 12.4474 18.2404 13.7433C13.8637 14.9581 9.27437 15.2016 4.79372 14.4567C4.49705 14.4133 4.19206 14.3733 4.10539 14.3733C3.97539 14.3733 3.95209 14.3867 3.95209 14.4917C3.95209 14.56 3.92043 14.9917 3.88709 15.4633C3.64135 18.9245 3.70828 22.4008 4.08708 25.85C4.19208 26.8267 4.45875 28.6833 4.49709 28.7467C4.51375 28.7767 12.9837 28.79 31.2604 28.79H57.9854L58.0038 28.6883C58.1821 27.865 58.5038 25.0617 58.6504 23.0217C58.7421 21.7767 58.7288 17.075 58.6288 15.7267C58.5904 15.1383 58.5421 14.5933 58.5304 14.5117ZM18.9004 24.92C18.6238 25.2978 18.2949 25.6345 17.9238 25.92C17.2662 26.3495 16.522 26.6288 15.7442 26.738C14.9664 26.8472 14.1741 26.7836 13.4237 26.5517C12.4978 26.2596 11.6892 25.6798 11.1154 24.8967C10.7948 24.4019 10.5389 23.8681 10.3538 23.3083C10.058 22.2874 10.0748 21.2013 10.4021 20.19C10.633 19.3991 11.0722 18.6847 11.6738 18.1217C12.3824 17.4509 13.2847 17.0211 14.2521 16.8933C14.8382 16.8421 15.4285 16.8701 16.0071 16.9767C16.9965 17.1762 17.9103 17.6484 18.6454 18.34C18.7378 18.4267 18.8145 18.5288 18.8721 18.6417C18.8721 18.6633 18.4287 18.945 17.9054 19.2683L16.9521 19.8517L16.7854 19.6567C16.565 19.4216 16.2966 19.2368 15.9983 19.1148C15.7 18.9929 15.379 18.9366 15.0571 18.95C14.8117 18.9347 14.5653 18.9453 14.3221 18.9817C14.0195 19.0478 13.7367 19.1838 13.4962 19.3789C13.2557 19.5739 13.0642 19.8226 12.9371 20.105C12.6594 20.6613 12.5439 21.2845 12.6037 21.9033C12.5713 22.2927 12.6132 22.6846 12.7271 23.0583C12.788 23.2605 12.8655 23.4573 12.9587 23.6467C13.1888 24.012 13.5061 24.3144 13.8821 24.5267C14.1379 24.661 14.4282 24.7156 14.7154 24.6833C15.186 24.7248 15.6594 24.6451 16.0904 24.4517C16.4087 24.2895 16.6801 24.0485 16.8787 23.7517C16.9787 23.585 17.0021 23.565 17.0838 23.6133C17.1654 23.6617 18.5838 24.5183 18.8938 24.7183C18.9838 24.7783 18.9871 24.7883 18.9171 24.915L18.9004 24.92ZM33.8454 26.6133C33.4327 26.654 33.0163 26.6354 32.6088 26.5583C32.4833 26.278 32.372 25.9915 32.2754 25.7L32.0021 24.895L30.2804 24.8817L28.5587 24.8733L28.2571 25.745L27.9521 26.615H26.7621C25.7788 26.615 25.5687 26.6067 25.5521 26.555C25.9336 25.1673 26.4229 23.8115 27.0154 22.5C27.6421 20.82 28.3487 18.9517 28.5671 18.3333C28.7854 17.715 28.9971 17.1933 29.0204 17.1483C29.0604 17.075 29.1504 17.07 30.2704 17.0783L31.4771 17.0917L31.5554 17.245C31.5937 17.3283 32.3738 19.395 33.2838 21.8383C34.1938 24.2817 34.9637 26.325 34.9821 26.38C35.0937 26.6117 35.1287 26.6117 33.8387 26.6117L33.8454 26.6133ZM52.1437 21.8717L52.1304 26.5917L51.0454 26.605C50.6646 26.6362 50.2815 26.6234 49.9037 26.5667C49.8055 25.6216 49.7855 24.67 49.8438 23.7217C49.9136 22.3054 49.8784 20.886 49.7387 19.475C49.7121 19.475 49.2387 21.0767 48.7037 23.0367L47.7204 26.595L46.8237 26.6083C46.0004 26.6167 45.9187 26.6083 45.8871 26.5433C45.8554 26.4783 45.4121 24.9067 44.8871 23.0033C44.3621 21.1 43.9071 19.5117 43.8987 19.4633C43.8928 19.4441 43.8816 19.4269 43.8662 19.4139C43.8508 19.4009 43.832 19.3926 43.8121 19.39C43.7022 20.5873 43.6788 21.791 43.7421 22.9917L43.7288 26.5983L42.6438 26.6117C42.263 26.6429 41.8799 26.63 41.5021 26.5733C41.4007 24.9871 41.3806 23.3966 41.4421 21.8083C41.4421 19.2217 41.4554 17.0833 41.4738 17.0717C41.4921 17.06 42.3071 17.04 43.2838 17.04H45.0604L45.1037 17.135C45.1254 17.19 45.4787 18.52 45.8871 20.0867C46.8121 23.6133 46.7437 23.3967 46.8237 23.3967C46.8587 23.3967 46.8888 23.3833 46.8888 23.37C46.8888 23.31 48.4604 17.23 48.5004 17.135L48.5437 17.04H50.3038C50.9074 16.9895 51.5148 17.0096 52.1138 17.1C52.1471 17.1367 52.1571 18.4167 52.1521 21.8717H52.1437Z" fill="black"/>
<path d="M30.5348 20.3217C30.3182 19.6434 30.2548 19.5934 30.1248 20.0034C29.3232 22.4767 29.1582 22.99 29.1582 23.0334C29.5232 23.1085 29.8976 23.1265 30.2682 23.0867C31.2832 23.0867 31.3782 23.0867 31.3782 23.0134C31.3782 22.975 31.2315 22.4784 31.0448 21.915C30.8582 21.3517 30.6348 20.6284 30.5348 20.3217Z" fill="black"/>
<path d="M4.81641 30.535C4.81641 30.8017 5.46304 33.57 5.83971 34.8983C7.33161 40.1418 9.51767 45.1624 12.3398 49.8267C13.0093 50.9876 13.7478 52.1074 14.5514 53.18C14.6047 53.18 14.6131 51.37 14.6131 41.8133V30.4467H9.71473C4.8814 30.445 4.81641 30.445 4.81641 30.535Z" fill="black"/>
<path d="M16.3125 30.445V55.7133L16.7358 56.2617C18.4502 58.4949 20.2928 60.6269 22.2542 62.6467C23.3025 63.74 25.0491 65.4167 25.1375 65.4167C25.1908 65.4167 25.1975 63.1183 25.1975 47.9317V30.4467H16.3125V30.445Z" fill="black"/>
<path d="M26.8516 30.445V67.0167L27.7566 67.775C28.8516 68.7532 30.0146 69.6526 31.2366 70.4667C31.3282 70.4667 31.5166 70.3367 32.5999 69.49C33.4049 68.8633 34.2366 68.1883 35.0766 67.4783L35.6899 66.9617V30.445H26.8565H26.8516Z" fill="black"/>
<path d="M37.3906 30.445V47.8867C37.3906 63.6733 37.3906 65.3283 37.4606 65.3283C37.5306 65.3283 40.8373 62.045 41.6623 61.1267C43.2223 59.405 44.4157 57.9817 45.7423 56.2583L46.274 55.57V30.4483H37.3906V30.445Z" fill="black"/>
<path d="M47.9727 30.445V41.725C47.9727 51.335 47.981 53.005 48.0327 53.005C48.9564 51.7424 49.8045 50.4262 50.5727 49.0633C53.4687 44.1342 55.6504 38.819 57.0527 33.2767C57.356 32.0617 57.6026 30.96 57.626 30.6733L57.6527 30.4467H47.9727V30.445Z" fill="black"/>
</svg>
