<svg width="74" height="74" viewBox="0 0 74 74" fill="none" xmlns="http://www.w3.org/2000/svg">
<path d="M37 74C57.3542 74 73.9579 57.3542 73.9579 37C73.9579 16.6458 57.3542 0 37 0C16.6036 0 0 16.6458 0 37C0 57.3964 16.6458 74 37 74Z" fill="#2762A6"/>
<path d="M2.69727 37.0422C2.69727 55.9636 18.121 71.3873 37.0845 71.3873C56.0059 71.3873 71.4296 55.9636 71.4296 37.0422C71.4296 18.0786 56.0059 2.65491 37.0845 2.65491C18.121 2.65491 2.69727 18.0786 2.69727 37.0422ZM4.84647 37.0422C4.84647 19.2586 19.3009 4.80413 37.0845 4.80413C54.826 4.80413 69.2804 19.2586 69.2804 37.0422C69.2804 54.7836 54.826 69.2381 37.0845 69.2381C19.3009 69.2802 4.84647 54.8258 4.84647 37.0422Z" fill="white"/>
<path d="M37.0844 56.2586C26.507 56.2586 17.9102 47.6617 17.9102 37.1264C17.9102 26.5911 26.507 17.9943 37.0844 17.9943C47.5776 17.9943 56.2165 26.5911 56.2165 37.1264C56.2165 47.6617 47.5776 56.2586 37.0844 56.2586Z" fill="white"/>
<path d="M14.2012 37.1264C14.2012 49.6845 24.4415 59.9248 36.9996 59.9248C49.5577 59.9248 59.7559 49.6845 59.7559 37.1264C59.7559 24.5683 49.5155 14.328 36.9996 14.328C24.4415 14.328 14.2012 24.5683 14.2012 37.1264ZM16.3082 37.1264C16.3082 25.7061 25.5793 16.4351 36.9996 16.4351C48.3777 16.4351 57.6488 25.7061 57.6488 37.1264C57.6488 48.5467 48.3777 57.8178 36.9996 57.8178C25.6214 57.8178 16.3082 48.5467 16.3082 37.1264Z" fill="white"/>
<path d="M23.3887 22.2085C30.637 18.795 34.1347 22.2927 39.4445 22.8827C44.3329 24.6948 48.9684 22.5877 53.3932 21.9556C49.8955 36.1572 54.9103 42.5627 55.7531 52.8451C45.9342 52.3816 38.0117 45.934 26.3807 51.623C27.7292 41.762 26.6335 31.8588 23.3887 22.2085Z" fill="#CD3529"/>
<path d="M38.8535 22.672V29.5832H52.3387L53.4765 21.9135C47.8296 23.2198 43.2783 24.1048 38.8535 22.672Z" fill="white"/>
<path d="M67.7625 41.4248L67.9732 40.1185L64.1383 39.5285L61.6099 39.1492L61.4413 39.1071L61.2727 40.4134L61.6099 40.4977L64.0962 40.877L63.7169 43.4476L61.6099 43.1105L60.8513 42.9841L60.6406 44.2904L61.6099 44.459L64.1383 44.8804L67.1725 45.344L67.3832 44.0376L64.8126 43.6162L65.1919 41.0456L67.7625 41.4248Z" fill="white"/>
<path d="M61.6107 46.0182L60.0093 45.4704L59.5879 46.6925L61.6107 47.4089L64.1391 48.2938L65.8248 48.8417L66.2462 47.6196L64.1391 46.9032L61.6107 46.0182Z" fill="white"/>
<path d="M61.6109 32.0695L61.1895 31.9431L61.2316 33.3337L61.6109 33.4602L62.7487 33.8394L62.833 36.4522L61.6109 36.9579L61.4002 37.0843L61.4423 38.5171L61.6109 38.4328L64.1393 37.295L67.8899 35.6515L67.8478 34.2608L64.1393 32.9545L61.6109 32.0695ZM66.3728 34.9772L64.1815 35.8622L63.9708 35.9886L63.8865 34.1765L64.1815 34.303L66.3728 34.9772Z" fill="white"/>
<path d="M59.4611 47.3668L58.7447 48.5888L59.7561 49.8109L58.4076 52.0444L56.8484 51.7916L56.0898 53.0137L61.6525 53.9408L63.0853 54.1515L63.8017 52.9294L61.6103 50.1481L59.4611 47.3668ZM62.116 52.7608L61.6103 52.6344L59.5454 52.2551L60.4725 50.7381L61.6103 52.1287L62.116 52.7608Z" fill="white"/>
<path d="M57.9435 22.2506L55.4993 19.5114L56.8057 18.3314L58.997 20.7756L59.8398 20.0592L57.6063 17.5729L58.702 16.6037L61.1041 19.2164L61.6098 18.7529L61.9047 18.5L61.6098 18.1629L58.6599 14.8759L54.6565 18.4579L53.7715 19.2586L54.6565 20.2699L57.1007 23.0091L57.9435 22.2506Z" fill="white"/>
<path d="M58.9141 26.3804L59.7147 28.4875C60.0097 29.2882 60.2204 29.7939 60.3469 30.0046C60.5154 30.2996 60.7261 30.5524 60.9368 30.721C61.1054 30.8474 61.3583 30.9317 61.6111 30.9738C61.6532 30.9738 61.7375 30.9738 61.7797 30.9738C62.0747 31.016 62.3696 30.9738 62.6646 30.8895C63.0439 30.721 63.2967 30.5103 63.4653 30.2153C63.6339 29.9203 63.7182 29.541 63.7182 29.1617C63.8446 29.2882 63.971 29.3725 64.1396 29.4567C64.266 29.4989 64.3924 29.541 64.5188 29.541C64.8138 29.6253 65.1088 29.5832 65.3617 29.4989C65.6145 29.4146 65.8674 29.246 66.0359 29.0353C66.2045 28.8246 66.3309 28.5718 66.3731 28.3611C66.4152 28.1082 66.4152 27.8975 66.3731 27.6446C66.3309 27.3918 66.2045 27.0125 65.9938 26.549L65.0667 24.1048L64.1396 24.4419L61.6111 25.4112L58.9141 26.3804ZM64.1396 25.7904L64.5188 25.664L64.8138 26.3804C65.0245 26.9704 65.151 27.3075 65.1931 27.4339C65.2352 27.6868 65.2352 27.8554 65.151 27.9818C65.0667 28.1504 64.9403 28.2346 64.7717 28.3189C64.561 28.4032 64.3924 28.4032 64.2239 28.3189C64.2239 28.3189 64.2239 28.3189 64.1817 28.3189C64.0553 28.2346 63.9289 28.0661 63.8024 27.8975C63.7603 27.8132 63.6339 27.5182 63.4232 27.0125L63.1282 26.2119L64.1396 25.7904ZM62.1168 26.5911L62.4961 27.6025C62.7068 28.1925 62.7911 28.5296 62.7911 28.7403C62.8332 28.951 62.7489 29.0775 62.6646 29.246C62.5803 29.3725 62.4539 29.4567 62.2432 29.541C62.0325 29.6253 61.8639 29.6253 61.6532 29.5832C61.6532 29.5832 61.6532 29.541 61.6111 29.541C61.4425 29.4567 61.3583 29.3724 61.2318 29.2039C61.1475 29.1196 61.0211 28.8246 60.8526 28.3611L60.4311 27.2232L61.6111 26.7597L62.1168 26.5911Z" fill="white"/>
<path d="M54.0671 16.7301C54.2357 16.393 54.32 16.0558 54.2779 15.7187C54.2357 15.3394 54.0671 15.0445 53.7722 14.7073C54.0671 14.7073 54.3621 14.6652 54.615 14.5809L54.6571 14.5388C54.91 14.4123 55.1628 14.2016 55.3314 13.9488C55.4578 13.7381 55.5421 13.4431 55.5421 13.1902C55.5421 12.9374 55.5 12.6845 55.4157 12.4738C55.2892 12.2631 55.1628 12.0524 54.9521 11.8839C54.8678 11.7996 54.7835 11.7153 54.6571 11.6732C54.4886 11.5467 54.2778 11.4203 53.9829 11.2096L52.8872 10.5353L51.7494 9.86108L48.7573 14.8337L48.3359 15.508L48.7573 15.7609L50.2744 16.6879C50.9908 17.1094 51.4544 17.3622 51.6651 17.4886C52.0022 17.6151 52.3394 17.6994 52.5922 17.6572C52.6765 17.6572 52.7608 17.6151 52.8872 17.6151C53.0558 17.5729 53.2665 17.4886 53.435 17.3622C53.6879 17.2358 53.8986 16.9829 54.0671 16.7301ZM52.9293 15.9716C52.9293 16.0137 52.9293 16.0137 52.9293 15.9716C52.8029 16.1823 52.6765 16.3087 52.5079 16.3508C52.3394 16.393 52.1287 16.393 51.9601 16.3087C51.8337 16.3087 51.5808 16.1401 51.1594 15.8873L50.1059 15.2552L51.033 13.7802L51.9601 14.328C52.4658 14.623 52.8029 14.8337 52.9293 15.0023C52.9293 15.0023 52.9715 15.0023 52.9715 15.0445C53.0558 15.1709 53.14 15.3394 53.14 15.4659C53.0979 15.6344 53.0136 15.803 52.9293 15.9716ZM53.14 13.7381C53.0979 13.6959 53.0136 13.6959 52.9293 13.6538C52.8029 13.5274 52.5922 13.4431 52.3394 13.2745L51.5808 12.811L52.3815 11.5046L52.9715 11.8417L53.0558 11.8839C53.6036 12.1788 53.9407 12.3895 54.025 12.4738C54.1936 12.6002 54.32 12.7688 54.32 12.8952C54.32 13.0638 54.32 13.2324 54.1936 13.4009C54.0671 13.5695 53.9407 13.6959 53.73 13.7381C53.5193 13.8645 53.3507 13.8223 53.14 13.7381Z" fill="white"/>
<path d="M49.1795 8.68109L48.8002 8.55467L47.9153 8.25968L46.6932 11.6731C46.5246 12.1788 46.3982 12.516 46.2718 12.7267C46.1453 12.9374 45.9768 13.0638 45.7661 13.1481C45.5554 13.2745 45.2604 13.2323 44.8811 13.1059C44.5018 13.0216 44.2911 12.811 44.1226 12.6002C43.954 12.3895 43.9119 12.1367 43.954 11.8838C43.954 11.7153 44.0383 11.3781 44.249 10.8303L45.4289 7.45901L44.1647 7.0376L43.0269 10.3667C42.8162 11.0831 42.6476 11.5889 42.6055 11.9681C42.6055 12.221 42.6055 12.4738 42.7319 12.7688C42.8162 13.0638 43.0269 13.3166 43.2376 13.5695C43.4904 13.7802 43.9118 14.033 44.5018 14.2437C45.0075 14.4123 45.4289 14.4966 45.8082 14.4544C46.1453 14.4544 46.4403 14.3702 46.6932 14.2437C46.946 14.0752 47.1567 13.8645 47.3674 13.6116C47.536 13.3166 47.7467 12.8109 47.9996 12.0524L48.7159 9.94533L49.1795 8.68109Z" fill="white"/>
<path d="M22.841 16.1401L21.956 14.623L24.7374 12.8952L24.1895 11.9681L21.3661 13.6537L20.6075 12.3895L23.6417 10.5774L23.0939 9.65033L19.5118 11.7574L18.9219 12.1366L19.5118 13.1902L22.251 17.7836L26.5494 15.213L26.0016 14.2437L22.841 16.1401Z" fill="white"/>
<path d="M33.3761 11.7996C33.1654 12.0524 32.8704 12.221 32.5333 12.2631C32.0697 12.3474 31.6483 12.221 31.269 11.926C30.9319 11.631 30.679 11.041 30.5526 10.2403C30.4262 9.43966 30.4683 8.89182 30.7212 8.4704C30.9319 8.09113 31.3112 7.83831 31.8169 7.75402C32.154 7.71188 32.4911 7.75401 32.744 7.92257C33.039 8.09114 33.2497 8.30185 33.3761 8.63898L34.5982 8.13328C34.3875 7.62758 34.0925 7.29046 33.7553 7.03762C33.1654 6.65835 32.4911 6.53192 31.6904 6.6162C30.7633 6.78477 30.0891 7.20618 29.6255 7.88044C29.162 8.5547 29.0355 9.43966 29.2041 10.5353C29.3727 11.5467 29.7519 12.3053 30.4262 12.811C31.1005 13.3167 31.8169 13.4852 32.7018 13.3588C33.4182 13.2324 33.9661 12.9795 34.3453 12.5581C34.7246 12.1367 34.9774 11.5467 35.0617 10.8303L33.7132 10.6196C33.7132 11.1675 33.5868 11.5046 33.3761 11.7996Z" fill="white"/>
<path d="M38.0963 6.40546H36.79L36.5371 12.8952L41.1726 13.0638L41.2148 11.9681L37.8856 11.8417L38.0963 6.40546Z" fill="white"/>
<path d="M15.9714 16.098L17.2356 14.623L16.3506 13.8645L15.4235 15.0023L13.0215 17.8679L13.8643 18.6265L15.1285 17.1094L15.4235 17.3622L19.3427 20.6071L19.5112 20.3542L20.1434 19.5957L19.5112 19.0479L15.9714 16.098Z" fill="white"/>
<path d="M15.4244 22.3349C15.2558 22.377 15.0873 22.377 15.003 22.4192C14.7501 22.5034 14.4551 22.5877 14.1602 22.7984C14.3709 22.2506 14.3709 21.787 14.2444 21.3656C14.118 20.9442 13.823 20.6492 13.3595 20.3964C13.0224 20.1857 12.6852 20.1014 12.3059 20.1435C12.1795 20.1435 12.0531 20.1857 11.9267 20.2278C11.7581 20.27 11.5474 20.3964 11.421 20.5228C11.1681 20.7335 10.831 21.1549 10.4939 21.787L9.1875 24.2312L11.9688 25.7483L14.9609 27.3918L15.4244 26.5069L15.593 26.2119L15.4244 26.1276L13.1909 24.8634L13.3173 24.6105C13.4438 24.3577 13.5702 24.1891 13.6966 24.0627C13.823 23.9362 13.9495 23.8941 14.118 23.852C14.2866 23.8098 14.708 23.7255 15.298 23.6834H15.4244L17.0258 23.557L17.8265 22.1663L16.3094 22.2506C15.9301 22.2927 15.6351 22.3349 15.4244 22.3349ZM13.2331 22.4192C13.1909 22.5877 13.0224 22.967 12.7274 23.5148L12.2217 24.3998L11.9267 24.2312L10.7467 23.5991L11.2524 22.672C11.5053 22.2085 11.6738 21.9135 11.716 21.8292C11.8003 21.7449 11.8424 21.7028 11.8845 21.6606C12.011 21.6185 12.0952 21.5763 12.1795 21.5342C12.3481 21.5342 12.5588 21.5342 12.7695 21.6606C12.9381 21.7449 13.0645 21.8713 13.1488 22.0399C13.2331 22.1242 13.2752 22.2506 13.2331 22.4192Z" fill="white"/>
<path d="M15.2122 47.5353L14.243 48.1253L15.4229 50.106L16.1393 51.2438L15.4229 51.7073L14.5801 52.213L12.8944 49.3474L11.9673 49.9374H11.9252L11.9673 49.9795L13.6108 52.7609L12.3887 53.5194L11.9673 52.803L10.5767 50.4852L9.60742 51.0331L11.9673 54.9943L12.0938 55.2472L15.4229 53.2244L17.7407 51.8338L15.4229 47.9146L15.2122 47.5353Z" fill="white"/>
<path d="M11.9684 40.7084L13.0641 40.6242L12.9798 39.3178L11.9684 39.4021L10.4935 39.4863L10.4513 38.6014C10.4092 38.0114 10.3671 37.5478 10.2828 37.2107C10.1985 37 10.0721 36.7472 9.90351 36.5365C9.73495 36.3258 9.4821 36.1572 9.22925 36.0308C8.9764 35.9465 8.72356 35.8622 8.42857 35.8622C8.34429 35.8622 8.26 35.8622 8.21786 35.8622C7.71217 35.9043 7.29075 36.0729 6.95362 36.3258C6.65864 36.5786 6.44792 36.9157 6.36364 37.295C6.3215 37.5478 6.3215 38.0957 6.36364 38.8964L6.49007 41.0034L8.38642 40.877L11.9684 40.7084ZM7.50146 39.6971L7.45931 39.0228C7.41717 38.5592 7.41717 38.2221 7.45931 38.0957C7.45931 37.885 7.54359 37.6743 7.67002 37.5057C7.83858 37.3793 8.00715 37.295 8.25999 37.295C8.30213 37.295 8.38642 37.295 8.38642 37.295C8.55499 37.295 8.68141 37.3371 8.76569 37.3793C8.93426 37.4636 9.06068 37.59 9.14496 37.7585C9.22924 37.9271 9.27138 38.2642 9.31352 38.8121V39.5285L8.34428 39.5706L7.50146 39.6971Z" fill="white"/>
<path d="M10.1562 47.9567C10.6619 47.7882 11.0412 47.451 11.2519 46.9875C11.4204 46.6504 11.4626 46.1025 11.4204 45.344C11.4204 44.754 11.3783 44.4169 11.3783 44.2483C11.3783 44.0376 11.4204 43.8269 11.5047 43.7005C11.589 43.5741 11.6733 43.4898 11.8419 43.4476C11.884 43.4476 11.9261 43.4055 12.0104 43.4055C12.2211 43.4055 12.3897 43.4476 12.5583 43.5741C12.769 43.7426 12.9797 43.9955 13.1061 44.4169C13.2325 44.7962 13.2325 45.1333 13.1061 45.4283C12.9797 45.7233 12.7268 45.934 12.3476 46.1447L12.8533 47.3668C13.5275 47.0296 13.9911 46.6504 14.2018 46.0604C14.4125 45.5125 14.4125 44.8383 14.1596 44.0376C13.9911 43.4898 13.7804 43.0684 13.4854 42.7734C13.2325 42.4362 12.8954 42.2677 12.5161 42.1413C12.3476 42.1413 12.179 42.0991 12.0104 42.0991C11.8419 42.0991 11.6311 42.1412 11.4204 42.1834C11.0412 42.3098 10.704 42.5205 10.4933 42.7734C10.2826 43.0262 10.1141 43.3212 10.0719 43.7005C10.0298 44.0376 10.0298 44.5433 10.0719 45.1754C10.1141 45.8497 10.0719 46.2711 10.0298 46.4818C9.98765 46.6504 9.86122 46.7346 9.73479 46.7768C9.56623 46.8189 9.43981 46.8189 9.27125 46.6925C9.06054 46.5239 8.89197 46.2711 8.76555 45.8918C8.68127 45.5126 8.63912 45.2176 8.72341 45.0069C8.80769 44.754 9.01839 44.5855 9.31338 44.4169L8.84984 43.1527C8.68127 43.1948 8.55485 43.2791 8.42842 43.3212C8.09129 43.5319 7.83844 43.8269 7.66987 44.2062C7.41703 44.7119 7.45917 45.344 7.71202 46.1868C7.88058 46.6504 8.09129 47.0718 8.34414 47.3246C8.38628 47.3246 8.38628 47.4089 8.42842 47.4089C8.68127 47.6618 8.93412 47.7882 9.22911 47.8724C9.48195 48.041 9.81908 48.041 10.1562 47.9567Z" fill="white"/>
<path d="M7.33341 32.1538C7.50197 32.4909 7.75482 32.7438 8.00767 32.9966C8.13409 33.123 8.26051 33.1652 8.3448 33.2495C8.68193 33.4602 9.06119 33.6287 9.56689 33.7551C10.494 34.008 11.2525 34.008 11.9268 33.713C12.0111 33.6709 12.0954 33.6287 12.1797 33.5866C12.8961 33.2073 13.4017 32.5331 13.6967 31.6059C13.9496 30.6788 13.8653 29.8781 13.4439 29.1196C13.1489 28.5718 12.6432 28.1504 11.9268 27.8554C11.7582 27.7711 11.5054 27.6868 11.2525 27.6447C10.2411 27.3497 9.35619 27.3918 8.63979 27.8132C8.51337 27.8554 8.47122 27.9397 8.3448 27.9818C7.75482 28.4032 7.33341 28.9932 7.1227 29.7939C6.99628 30.2996 6.95413 30.8053 6.99627 31.2267C7.03841 31.5217 7.16484 31.8588 7.33341 32.1538ZM8.21838 30.0467C8.26052 29.9203 8.30265 29.836 8.3448 29.7096C8.51336 29.3725 8.7662 29.1196 9.10333 28.9511C9.56689 28.7403 10.1569 28.7403 10.8733 28.9511C11.2947 29.0775 11.674 29.246 11.9268 29.4568C12.1375 29.5832 12.2639 29.7517 12.3904 29.9203C12.6432 30.3417 12.6853 30.8474 12.5589 31.311C12.4746 31.6902 12.2218 32.0274 11.8847 32.2381C11.8004 32.2802 11.7161 32.3224 11.6318 32.4066C11.1683 32.6595 10.5783 32.6595 9.86188 32.4488C9.14548 32.2381 8.63978 31.9431 8.3448 31.5217C8.3448 31.5217 8.34479 31.4795 8.30265 31.4374C8.13409 31.016 8.09195 30.5524 8.21838 30.0467Z" fill="white"/>
<path d="M44.0795 60.262L43.1102 60.5148C43.1102 60.9784 42.8995 61.3576 42.6467 61.7369C42.3938 62.1162 42.141 62.369 41.846 62.5376C41.8039 62.5797 41.8039 62.5797 41.7617 62.5797L41.846 62.8747L42.0567 63.6754C42.6045 63.2961 43.026 62.8747 43.3631 62.3269L44.5852 66.9203L45.7651 66.6253L44.0795 60.262Z" fill="white"/>
<path d="M41.5101 64.7289C41.2573 64.476 40.9623 64.3075 40.583 64.2232C41.2151 63.8439 41.5101 63.3804 41.468 62.7904C41.468 62.369 41.2573 61.9897 40.9623 61.7369C40.583 61.3576 40.0352 61.189 39.4452 61.2312C39.0659 61.2312 38.7709 61.3155 38.4759 61.484C38.2231 61.6526 37.9702 61.8212 37.8438 62.074C37.6753 62.2847 37.591 62.6218 37.5488 63.0432L38.6866 63.1697C38.6866 62.8747 38.7709 62.664 38.9395 62.4954C39.0659 62.3268 39.2345 62.2847 39.4452 62.2847C39.6559 62.2426 39.8666 62.2847 39.993 62.4533C40.1195 62.5797 40.2037 62.7904 40.2459 62.959C40.2459 63.2118 40.1616 63.4225 39.993 63.6332C39.8245 63.8018 39.5716 63.8861 39.2345 63.8861L39.1502 64.8975C39.3609 64.8132 39.5716 64.771 39.7402 64.771C39.9509 64.771 40.2037 64.8553 40.3723 65.0239C40.5409 65.1925 40.6673 65.4453 40.6673 65.7403C40.6673 66.0774 40.6251 66.3303 40.4566 66.541C40.288 66.7517 40.0773 66.836 39.7823 66.8781C39.5295 66.8781 39.3609 66.836 39.1502 66.6674C38.9816 66.4988 38.8552 66.2881 38.8131 65.951L37.591 66.1617C37.7174 66.7095 37.9281 67.1731 38.3495 67.4681C38.7709 67.7631 39.2345 67.9316 39.8666 67.8895C40.4987 67.8473 40.9623 67.6367 41.4258 67.1731C41.6365 66.9203 41.8051 66.6674 41.8894 66.3724C41.9315 66.1196 41.9737 65.9089 41.9737 65.656C41.9737 65.4453 41.9315 65.3189 41.8894 65.1925C41.763 65.066 41.6787 64.8975 41.5101 64.7289Z" fill="white"/>
<path d="M34.9355 61.2312C34.8933 61.2312 34.8512 61.2312 34.8091 61.2312C34.2612 61.2312 33.7977 61.3998 33.4184 61.779C32.997 62.1583 32.7441 62.7061 32.7441 63.3383C32.7441 63.9704 32.8706 64.5182 33.2077 64.9396C33.587 65.361 34.0084 65.5718 34.5141 65.6139C34.6405 65.656 34.7669 65.6139 34.8091 65.6139C35.1462 65.5718 35.4833 65.4032 35.7362 65.1503C35.6519 65.8667 35.5255 66.3724 35.3148 66.6253C35.1883 66.7938 35.0198 66.8781 34.8512 66.9203C34.8091 66.9203 34.7248 66.9203 34.6405 66.9203C34.4298 66.9203 34.2612 66.836 34.1769 66.7096C34.0505 66.5831 34.0084 66.3724 33.9662 66.1617L32.7441 66.246C32.7863 66.7939 32.9549 67.2153 33.292 67.5103C33.587 67.8052 34.0084 67.9317 34.5141 67.9738C34.5984 67.9738 34.7248 67.9738 34.8512 67.9738C35.4412 67.9317 35.9047 67.6788 36.284 67.2574C36.7476 66.7517 37.0004 65.9089 37.0847 64.6868C37.1268 63.5068 37.0004 62.664 36.579 62.1162C36.1576 61.5262 35.6097 61.2312 34.9355 61.2312ZM35.399 64.434C35.2305 64.6025 35.0619 64.6447 34.8091 64.6447C34.8091 64.6447 34.8091 64.6447 34.7669 64.6447C34.5562 64.6447 34.3455 64.5604 34.1769 64.3497C34.0084 64.139 33.9662 63.844 33.9662 63.4226C33.9662 63.0011 34.0927 62.7061 34.2612 62.4954C34.4298 62.3269 34.6405 62.2426 34.8512 62.2426C34.8933 62.2426 34.8933 62.2426 34.8933 62.2426C35.1041 62.2847 35.3148 62.369 35.5255 62.6219C35.694 62.8326 35.7783 63.1697 35.7783 63.5911C35.694 63.9704 35.5676 64.2654 35.399 64.434Z" fill="white"/>
<path d="M30.2573 61.5262C29.7938 61.6948 29.3724 61.8212 29.0352 61.8212L28.7402 62.9169C29.4145 62.9169 30.0045 62.7483 30.5523 62.4112L29.2881 67.0046L30.5102 67.3417L32.238 60.9784L31.2266 60.7255C31.058 61.0205 30.7209 61.3155 30.2573 61.5262Z" fill="white"/>
<path d="M52.4652 60.7677C53.4766 60.7677 54.2773 59.967 54.2773 58.9556C54.2773 57.9442 53.4766 57.1435 52.4652 57.1435C51.496 57.1435 50.6953 57.9442 50.6953 58.9556C50.6953 59.967 51.496 60.7677 52.4652 60.7677Z" fill="white"/>
<path d="M21.2398 61.4419C22.2091 61.4419 23.0097 60.6412 23.0097 59.6298C23.0097 58.6184 22.2091 57.8177 21.2398 57.8177C20.2284 57.8177 19.4277 58.6184 19.4277 59.6298C19.4699 60.5991 20.2706 61.4419 21.2398 61.4419Z" fill="white"/>
<path d="M22.8818 20.8178L19.8477 21.197L24.4832 61.4419L27.8545 61.0627L23.219 20.7756L22.8818 20.8178Z" fill="white"/>
<path d="M56.0482 52.803C55.7532 49.3895 54.9947 46.3975 54.3204 43.4476C52.8455 37.5478 51.3705 31.4374 53.6883 21.9977L53.7726 21.6185L53.3933 21.6606C52.2133 21.8292 51.0334 22.1241 49.8534 22.377C46.5243 23.1355 43.1108 23.9362 39.571 22.6299H39.5288H39.4867C37.9275 22.4613 36.4947 21.9977 35.104 21.5763C31.817 20.5649 28.4457 19.5535 23.3045 21.9977L23.0938 22.082L23.178 22.2927C26.4651 32.1538 27.4764 41.9727 26.1701 51.5809L26.1279 52.0444L26.5915 51.8337C34.3033 48.0832 40.2031 49.6424 46.4821 51.328C49.4742 52.1287 52.5926 52.9294 55.8796 53.098H56.1746L56.0482 52.803ZM46.5243 50.8223C40.5402 49.221 34.3876 47.6196 26.7179 51.2016C27.055 48.631 27.2236 46.0182 27.2236 43.4476C27.2236 43.279 27.2236 43.0683 27.2236 42.8998C27.2236 41.0456 27.0972 39.1914 26.9286 37.295C30.7635 35.8201 34.7669 35.3144 39.0653 36.0308L38.981 23.0934C39.1074 23.0934 39.276 23.1356 39.4024 23.1356C43.0687 24.4841 46.5664 23.6834 49.9799 22.9248C51.0755 22.672 52.0869 22.4613 53.0983 22.2927C52.2976 25.7483 51.9605 28.7403 51.9605 31.4374C51.9605 33.418 52.1291 35.2301 52.3819 37C52.719 39.2756 53.2247 41.3827 53.7304 43.4476C53.7304 43.4897 53.7726 43.574 53.7726 43.6583C54.4468 46.4818 55.1632 49.3895 55.5004 52.6344C52.3819 52.3394 49.432 51.5809 46.5243 50.8223Z" fill="#2762A6"/>
<path d="M20.2695 21.492L24.8208 61.0205L27.4757 60.7255L22.9244 21.197L20.2695 21.492Z" fill="#2762A6"/>
<path d="M53.7296 43.3633C53.2239 41.2984 52.7182 39.1913 52.381 36.9157C47.8719 37.1264 39.0644 35.9886 39.0644 35.9886C34.766 35.2301 30.7626 35.7779 26.9277 37.2529C27.0963 39.1071 27.2227 41.0034 27.2227 42.8576C36.7045 40.4556 44.5428 43.8269 53.7296 43.3633Z" fill="white"/>
<path d="M31.6906 34.6822C28.9093 34.6822 26.6758 31.9852 26.6758 28.6982C26.6758 25.369 28.9093 22.672 31.6906 22.672C34.4298 22.672 36.7054 25.369 36.7054 28.6982C36.7054 31.9852 34.4719 34.6822 31.6906 34.6822Z" fill="white"/>
<path d="M28.9512 25.4533C30.384 24.7791 31.1004 25.4533 32.1539 25.5798C33.1232 25.959 34.0503 25.5376 34.9352 25.369C34.261 28.1925 35.2302 29.4989 35.3988 31.5638C33.4182 31.4795 31.8589 30.1731 29.499 31.311C29.8361 29.3725 29.6254 27.3918 28.9512 25.4533Z" fill="#CD3529"/>
<path d="M32.0703 25.5376V26.9282H34.7674L34.9781 25.4111C33.8403 25.664 32.9553 25.8325 32.0703 25.5376Z" fill="white"/>
<path d="M28.8673 25.1583L28.2773 25.2426L29.2045 33.2916L29.8787 33.2073L28.9516 25.1583H28.8673Z" fill="white"/>
<path d="M35.4834 31.5638C35.4412 30.8895 35.2727 30.2574 35.1462 29.7096C34.8512 28.5296 34.5562 27.3075 35.0198 25.4112V25.3269H34.9355C34.6827 25.369 34.472 25.4112 34.2191 25.4533C33.5449 25.6219 32.8706 25.7483 32.1542 25.4955C31.8592 25.4533 31.5642 25.369 31.2692 25.2848C30.595 25.074 29.9628 24.8633 28.9093 25.369H28.8672V25.4112C29.5414 27.3918 29.71 29.3725 29.4572 31.2688V31.3531L29.5414 31.3109C31.0585 30.5524 32.2806 30.8895 33.5027 31.2267C34.0927 31.3952 34.7248 31.5638 35.3569 31.5638H35.3991H35.4834ZM33.587 31.1845C32.407 30.8895 31.1428 30.5524 29.6257 31.2688C29.6679 30.7631 29.71 30.2574 29.71 29.7096C29.71 29.6674 29.71 29.6253 29.71 29.5832C29.71 29.2039 29.6679 28.8246 29.6679 28.4453C30.4264 28.1504 31.2271 28.0239 32.0699 28.1925V25.6219C32.1121 25.6219 32.1121 25.6219 32.1542 25.6219C32.8706 25.8747 33.587 25.7483 34.2613 25.5797C34.472 25.5376 34.6827 25.4955 34.8934 25.4533C34.7248 26.1276 34.6827 26.7597 34.6827 27.2654C34.6827 27.6868 34.7248 28.0239 34.767 28.3611C34.8512 28.8246 34.9355 29.246 35.0198 29.6675V29.7096C35.1462 30.2574 35.3148 30.8474 35.3569 31.4795C34.767 31.4795 34.177 31.311 33.587 31.1845Z" fill="#2762A6"/>
<path d="M28.3613 25.3269L29.2463 33.2073L29.7941 33.1652L28.867 25.2426L28.3613 25.3269Z" fill="#2762A6"/>
<path d="M35.0188 29.6674C34.9345 29.246 34.8081 28.8246 34.7659 28.361C33.881 28.4032 32.111 28.1503 32.111 28.1503C31.2682 27.9818 30.4675 28.1082 29.709 28.4032C29.7511 28.7825 29.7511 29.1617 29.7511 29.541C31.6475 29.1196 33.2067 29.7938 35.0188 29.6674Z" fill="white"/>
<path d="M30.6364 27.9397C30.0886 27.9397 29.625 27.3918 29.625 26.7597C29.625 26.0854 30.0886 25.5376 30.6364 25.5376C31.1842 25.5376 31.6478 26.0854 31.6478 26.7597C31.6478 27.3918 31.1842 27.9397 30.6364 27.9397Z" fill="white"/>
</svg>
