<svg width="66" height="75" viewBox="0 0 66 75" fill="none" xmlns="http://www.w3.org/2000/svg">
<path fill-rule="evenodd" clip-rule="evenodd" d="M17.7714 5.19614C13.5398 7.37566 9.55044 9.42772 4.23548 9.45321L1.48241 9.46595L1.30397 12.219C0.118622 31.1336 1.97949 58.0908 31.8044 73.7298L33.1682 74.4435L34.532 73.7298C64.3569 58.0908 66.2178 31.1336 65.0325 12.219L64.854 9.46595L62.101 9.45321C56.786 9.44046 52.7966 7.37566 48.565 5.20889C44.0913 2.88917 39.4391 0.492981 33.181 0.492981C26.9228 0.492981 22.2707 2.88917 17.7714 5.19614Z" fill="black"/>
<path fill-rule="evenodd" clip-rule="evenodd" d="M17.5454 4.75747L17.6185 4.72C22.0905 2.42688 26.8234 0 33.1799 0C39.5709 0 44.3202 2.4531 48.7898 4.7707C48.7902 4.77088 48.7905 4.77106 48.7909 4.77125L48.8553 4.80422C53.0711 6.96297 56.9473 8.94787 62.101 8.96023L62.1022 8.96023L65.3152 8.97511L65.5234 12.1882C66.1176 21.6701 65.953 33.2186 61.873 44.3722C57.7871 55.5421 49.7842 66.2883 34.7599 74.1664L33.1671 75L31.5747 74.1666C16.5504 66.2884 8.54719 55.5421 4.46125 44.3722C0.381306 33.2186 0.216622 21.6701 0.810839 12.1882L0.810905 12.1872L1.0191 8.97511L4.23202 8.96023C4.23205 8.96023 4.232 8.96023 4.23202 8.96023C9.41375 8.93536 13.3059 6.94108 17.5454 4.75747ZM4.23439 9.45323L1.48132 9.46598L1.30288 12.219C0.117527 31.1337 1.9784 58.0908 31.8033 73.7298L33.1671 74.4436L34.5309 73.7298C64.3559 58.0908 66.2167 31.1337 65.0314 12.219L64.8529 9.46598L62.0999 9.45323C56.8275 9.44059 52.8595 7.40862 48.6656 5.26095L48.5639 5.20891C44.0902 2.8892 39.438 0.493004 33.1799 0.493004C26.9426 0.493004 22.3007 2.87321 17.8154 5.17304L17.7703 5.19617C13.5388 7.37568 9.54935 9.42774 4.23439 9.45323Z" fill="#3A3A3A"/>
<path fill-rule="evenodd" clip-rule="evenodd" d="M33.1802 71.1042C7.98197 57.8869 2.74348 36.2957 4.24748 12.3847C16.1392 12.3465 21.9385 3.43726 33.1802 3.43726C44.4219 3.43726 50.2212 12.3465 62.113 12.3847C63.6169 36.2957 58.3785 57.8869 33.1802 71.1042Z" fill="white"/>
<path fill-rule="evenodd" clip-rule="evenodd" d="M20.9068 11.3014C25.0236 9.18561 28.5797 7.36298 33.1681 7.36298C37.7693 7.36298 41.3254 9.18561 45.4295 11.3014C49.113 13.2005 53.2171 15.2781 58.3409 16.0173C58.3791 17.1772 58.4046 18.3115 58.4046 19.4332C58.4046 42.095 50.4386 56.8673 33.1681 66.6177C15.8977 56.8673 7.93164 42.095 7.93164 19.4332C7.93164 18.3115 7.95713 17.1772 7.99537 16.0173C13.1191 15.2781 17.2233 13.2005 20.9068 11.3014Z" fill="black"/>
<path fill-rule="evenodd" clip-rule="evenodd" d="M33.1812 14.7172L37.5785 28.2658H51.8282L40.306 36.6398L44.7033 50.2012L33.1812 41.8145L21.6463 50.2012L26.0563 36.6398L14.5215 28.2658H28.7712L33.1812 14.7172Z" fill="white"/>
</svg>
