<svg width="59" height="75" viewBox="0 0 59 75" fill="none" xmlns="http://www.w3.org/2000/svg">
<path fill-rule="evenodd" clip-rule="evenodd" d="M15.6699 56.2467C16.4572 55.2811 17.3044 54.366 18.2066 53.5067C18.2732 53.5067 19.6915 54.45 19.9415 54.5817C20.5782 54.915 21.1282 55.1617 21.7932 55.4717C23.1661 56.0699 24.6092 56.4917 26.0882 56.7267V57.1383C26.0841 57.4911 26.1539 57.8409 26.2932 58.165C25.6565 58.5917 25.0216 59.4667 23.8249 59.4667H22.7282C20.1416 59.4667 17.2982 57.335 15.6682 56.2467H15.6699ZM10.8732 50.6967L11.0199 50.68C12.0377 50.4913 13.0081 50.1027 13.8749 49.5367C14.2043 49.9032 14.5068 50.2931 14.7799 50.7033C14.7799 50.72 12.7532 52.99 12.5816 53.1C12.4666 52.6717 10.9149 51.2383 10.8666 50.7033L10.8732 50.6967ZM13.7182 49.345C11.6386 48.2891 9.75391 46.8868 8.14491 45.1983C7.4349 44.5112 6.77852 43.7707 6.18156 42.9833C5.08163 41.736 4.29135 40.2468 3.87489 38.6367C3.25226 40.2486 2.81448 41.926 2.56991 43.6367C2.36979 44.9314 2.2584 46.2384 2.23655 47.5483V48.37C2.32009 50.3301 2.74068 52.2611 3.47989 54.0783V54.0783C3.93178 55.0479 4.54938 55.9311 5.30489 56.6883C5.35642 56.096 5.53248 55.5212 5.82155 55.0017C5.93501 54.852 6.04016 54.6962 6.13655 54.535L8.51153 57.7017C7.81499 58.3872 7.1536 59.1076 6.52987 59.86C6.18487 60.1933 4.69657 61.75 4.69657 62.2067V62.3433C4.63413 62.95 4.81517 63.5566 5.19991 64.0298C5.58465 64.503 6.14158 64.804 6.74822 64.8667C6.79655 64.8667 6.84491 64.875 6.89491 64.8767H7.44321C8.12821 64.8767 9.07154 63.485 9.51154 63.0433C10.1696 62.3969 10.7821 61.7059 11.3449 60.975C11.6949 61.21 12.9099 62.4083 13.3449 62.8083C14.0352 63.4082 14.7701 63.9548 15.5432 64.4433C17.1377 65.4982 18.8512 66.3609 20.6482 67.0133C21.6132 67.3733 22.5466 67.5783 23.5749 67.925C24.8682 68.36 25.3082 68.1183 26.4549 68.8817C27.19 69.4386 27.779 70.1655 28.1716 71C28.8454 72.2796 29.4 73.6186 29.8282 75C30.2355 73.5846 30.7943 72.2173 31.4949 70.9217C31.9057 70.0781 32.5246 69.3531 33.2932 68.815C34.2461 68.3398 35.2691 68.0207 36.3232 67.87C37.3244 67.6048 38.3108 67.2866 39.2782 66.9167C41.0924 66.202 42.8245 65.2945 44.4449 64.21C45.3182 63.6283 45.8949 63.0833 46.6799 62.4717C47.3465 61.9433 48.0832 60.9717 48.6799 60.5667C48.7982 60.6467 50.5132 62.5233 50.6799 62.7467C51.2249 63.4433 51.9165 64.4717 53.0665 64.4717C53.6579 64.4792 54.2281 64.2521 54.6524 63.8401C55.0766 63.4281 55.3202 62.8647 55.3299 62.2733V61.8033C55.3299 60.8383 51.5616 57.675 51.5616 57.1483C52.1644 56.2553 52.8153 55.3957 53.5115 54.5733L53.6116 54.7033C53.653 54.7867 53.7038 54.865 53.7632 54.9367C54.0794 55.4749 54.2724 56.0766 54.3282 56.6983C55.0838 55.9411 55.7014 55.0579 56.1532 54.0883V54.0883C56.862 52.5003 57.2824 50.7987 57.3949 49.0633V47.2767C57.3971 44.2804 56.7022 41.3247 55.3649 38.6433C55.1972 40.2929 54.5096 41.8465 53.4016 43.08C52.808 43.8703 52.1561 44.6151 51.4515 45.3083C50.6982 45.9867 50.0049 46.6017 49.2216 47.2583C48.3102 47.9976 47.3243 48.64 46.2799 49.175C46.5015 48.91 46.7249 48.64 46.9115 48.3733C47.4019 47.6605 47.8516 46.9204 48.2582 46.1567C49.1587 44.517 49.7916 42.7442 50.1332 40.905C51.0716 40.455 51.8482 40.06 51.8482 38.645V35.7C51.8433 35.3804 51.7687 35.0657 51.6297 34.7778C51.4906 34.49 51.2905 34.2359 51.0432 34.0333C50.8065 33.8183 50.3965 33.725 50.3232 33.5167C50.2699 33.38 50.2216 32.77 50.1566 32.5167C49.8719 31.2605 49.4724 30.0331 48.9632 28.85C48.4761 27.7579 47.8979 26.7086 47.2349 25.7133C46.9015 25.2133 46.5982 24.78 46.2349 24.3167C45.9265 23.9283 45.3549 23.3717 45.1249 23.0233H47.7916C49.0295 22.8962 50.1674 22.2859 50.9582 21.325C51.7582 20.55 52.7765 19.8783 53.5982 19.1017C54.4199 18.325 55.3882 17.6467 56.2365 16.875C56.7115 16.4433 58.6166 15.0783 58.6166 14.46V14.1167C58.6166 12.8767 52.1665 6.03334 50.9399 6.03334H50.8716C49.9866 6.03334 48.6865 7.84334 48.2049 8.44334C47.6432 9.15834 46.4799 10.5317 45.8449 11.1583C45.1149 11.8733 44.1632 13.0517 43.4799 13.865C42.9834 14.2769 42.5744 14.7841 42.277 15.3566C41.9796 15.929 41.7998 16.5553 41.7482 17.1983C41.7482 18.0317 42.0332 19.565 41.4749 19.9383C40.3565 19.3467 39.4982 18.7817 38.2315 18.18C37.0345 17.6333 35.7752 17.2348 34.4815 16.9933C34.6982 16.6983 37.8432 15.9933 37.8432 14.46V11.4467C37.8432 10.1133 35.3032 9.40334 34.2799 8.91334C34.8595 8.08178 35.2138 7.11424 35.3082 6.10501V5.48834C35.3051 4.03051 34.7234 2.63355 33.6908 1.60443C32.6583 0.575315 31.2594 -0.00176628 29.8016 4.06122e-06H29.7082C28.3111 0.0473183 26.9819 0.614248 25.9807 1.58986C24.9795 2.56548 24.3783 3.87956 24.2949 5.27501V5.83334C24.3141 6.4218 24.4267 7.00346 24.6282 7.55667C24.7765 8.01333 25.2432 8.61334 25.3249 8.915C24.1582 9.47334 21.7599 10.0533 21.7599 11.655V14.395C21.7599 15.5083 24.2332 16.9067 25.2515 16.9283C25.2299 16.9483 21.8899 18.0283 21.3899 18.275C20.2366 18.8213 19.1228 19.4472 18.0566 20.1483C17.5182 19.76 17.7832 17.8683 17.7832 16.9283C17.7832 15.625 16.5749 14.675 15.9882 13.9283C15.2886 13.0363 14.5443 12.1802 13.7582 11.3633C12.9636 10.5556 12.212 9.70666 11.5066 8.82C11.1732 8.365 9.61821 6.45001 9.08154 6.45001H8.66986C7.47986 6.45001 0.783203 12.9683 0.783203 14.1167V14.5283C0.783203 15.1483 3.06155 16.8717 3.57988 17.2817C4.61488 18.0967 5.55155 18.9383 6.55321 19.7817C7.55488 20.625 8.5449 21.4917 9.53824 22.2817C11.0482 23.475 11.6516 23.16 14.0049 23.16C14.2549 23.16 14.1715 23.22 14.4849 23.2283C14.1537 23.6927 13.7965 24.1378 13.4149 24.5617C13.0549 25.035 12.7899 25.43 12.4549 25.9317C11.8083 26.9036 11.2569 27.9356 10.8082 29.0133C10.3205 30.1774 9.94599 31.3858 9.68986 32.6217C9.39319 34.1 9.47156 33.1383 8.63822 33.8983C8.40818 34.0851 8.21829 34.3165 8.07996 34.5786C7.94162 34.8407 7.85769 35.128 7.83322 35.4233V39.0533C7.87991 39.535 8.08835 39.9867 8.4246 40.3348C8.76085 40.6828 9.20508 40.9067 9.68488 40.97C10.0789 42.859 10.7531 44.6786 11.6849 46.3683C12.1949 47.1783 12.6049 47.8467 13.1232 48.63C13.1949 48.7383 13.4266 49.0183 13.6966 49.3467L13.7182 49.345ZM48.7799 50.6967H48.7599C48.6522 50.6912 48.5451 50.6767 48.4399 50.6533C47.5434 50.4578 46.6878 50.1076 45.9115 49.6183C45.7175 49.845 45.5367 50.0826 45.3699 50.33L47.4549 52.605L48.8382 50.6967H48.7799V50.6967ZM33.4866 56.7933C35.1136 56.5422 36.7005 56.0782 38.2066 55.4133C39.5583 54.7733 40.8661 54.0445 42.1216 53.2317L44.4549 55.8267C42.3927 57.6586 39.8839 58.9141 37.1816 59.4667H35.7432C34.8031 59.3175 33.9497 58.8304 33.3432 58.0967C33.4353 57.9293 33.4823 57.741 33.4799 57.55V56.7967L33.4866 56.7933ZM28.9015 5.41667C28.9275 5.1835 29.0411 4.96892 29.2194 4.81636C29.3976 4.66381 29.6272 4.58469 29.8616 4.59501H29.9299C30.158 4.6186 30.3711 4.7199 30.5335 4.88194C30.6958 5.04398 30.7975 5.25689 30.8216 5.485V5.62167C30.8058 5.86483 30.6976 6.09272 30.519 6.25855C30.3405 6.42438 30.1052 6.51555 29.8616 6.51333H29.7249C29.5119 6.49856 29.3113 6.40726 29.1603 6.25625C29.0093 6.10524 28.918 5.90472 28.9032 5.69167V5.41667H28.9015Z" fill="#1D1D1B"/>
<path fill-rule="evenodd" clip-rule="evenodd" d="M55.627 42.08L55.5837 41.9133L55.517 42.065C55.502 42.0967 53.997 45.34 48.5353 49.295L48.4353 49.3667L50.7937 49.995C50.1528 51.0718 49.4283 52.0967 48.627 53.06C48.227 53.55 47.852 54.0083 47.492 54.4383L41.0703 47.305C40.6146 47.7744 40.1345 48.2194 39.632 48.6383L46.177 55.9067C44.9928 57.1232 43.6167 58.1367 42.1036 58.9067L41.5303 59.21C40.2172 60.0596 38.7066 60.5551 37.1454 60.6483H37.0154C36.1655 60.748 35.3042 60.6422 34.5037 60.34C33.5584 59.9992 32.753 59.3544 32.2137 58.5067C31.9167 57.985 31.8034 57.3787 31.892 56.785C31.9514 55.3274 31.8895 53.8674 31.707 52.42C31.1304 52.4733 30.5403 52.5017 29.9553 52.5017C29.304 52.5014 28.6532 52.4675 28.0053 52.4C27.8511 53.7214 27.7826 55.0514 27.8003 56.3817C27.8003 56.5117 27.8003 56.6483 27.8103 56.7817C27.8203 56.915 27.8187 57.0583 27.8187 57.1967C27.8494 57.6566 27.7326 58.1143 27.4853 58.5033C26.9463 59.3514 26.1408 59.9963 25.1953 60.3367C24.3948 60.6389 23.5335 60.7446 22.6837 60.645H22.5537C20.9924 60.5517 19.4818 60.0562 18.1687 59.2067L17.5953 58.9033C16.2648 58.2252 15.0384 57.3597 13.9537 56.3333L20.6203 48.9217C20.108 48.5167 19.6173 48.085 19.1504 47.6283L19.1303 47.6483L12.597 54.905C12.1053 54.34 11.6087 53.7383 11.0637 53.0617C10.2623 52.0983 9.53791 51.0735 8.89701 49.9967L11.257 49.3683L11.157 49.2967C5.70033 45.3433 4.19367 42.0983 4.17533 42.0667L4.10865 41.915L4.06532 42.0817C4.04532 42.155 2.17702 49.4633 4.87536 54.1067L4.92368 54.19L6.18364 52.19C7.16591 53.9345 8.31462 55.58 9.61367 57.1033C9.78033 57.3017 9.94702 57.4917 10.097 57.685L5.88366 62.3633V62.3833C5.87271 62.576 5.90071 62.7688 5.966 62.9504C6.0313 63.132 6.13253 63.2985 6.26365 63.44C6.4098 63.5579 6.58116 63.6406 6.76439 63.6816C6.94763 63.7227 7.13784 63.721 7.32032 63.6767H7.34031L11.3803 59.1883C13.2062 61.3549 15.4316 63.1503 17.9354 64.4767C19.8775 65.5252 21.9452 66.3222 24.0887 66.8483C24.3863 66.9302 24.6885 66.9948 24.9937 67.0417C25.4442 67.0978 25.8837 67.222 26.297 67.41C27.2023 67.8241 27.9782 68.4762 28.542 69.2967C29.1563 70.0742 29.5834 70.9826 29.7903 71.9517L29.8453 72.1584L29.902 71.9517C30.1152 70.9848 30.5417 70.0777 31.1503 69.2967C31.7141 68.4762 32.4901 67.8241 33.3954 67.41C33.8085 67.2216 34.248 67.0973 34.6987 67.0417C35.0038 66.9948 35.306 66.9302 35.6037 66.8483C37.7471 66.3222 39.8149 65.5252 41.757 64.4767C44.4383 63.0478 46.8043 61.0934 48.7137 58.73L52.7786 63.2434H52.7987C52.9812 63.2879 53.1714 63.2897 53.3547 63.2487C53.538 63.2076 53.7093 63.1248 53.8554 63.0067C53.9865 62.8648 54.0878 62.698 54.1531 62.5162C54.2183 62.3343 54.2463 62.1412 54.2354 61.9483V61.9283L49.9887 57.2117L50.0787 57.1017C51.3781 55.5786 52.5268 53.9331 53.5087 52.1883L54.7686 54.1883L54.817 54.105C57.517 49.45 55.6504 42.1483 55.6287 42.08H55.627ZM13.0354 21.9417C13.422 21.8832 13.8153 21.8832 14.202 21.9417L14.4037 21.9733C14.7365 22.0027 15.0607 22.0955 15.3587 22.2467C15.367 22.2467 18.5903 25.4617 19.1087 25.965C19.6229 25.4485 20.1666 24.9621 20.737 24.5083C20.262 24.0217 16.8886 20.63 16.8736 20.6133L16.7953 20.3667C16.6935 20.0691 16.6166 19.7636 16.5653 19.4533C16.5343 19.2677 16.5182 19.0799 16.517 18.8917C16.5193 18.6905 16.5327 18.4897 16.557 18.29C16.594 17.9769 16.6129 17.6619 16.6137 17.3467V17.275C16.6055 16.7431 16.4306 16.2272 16.1137 15.8L8.86202 7.55001L8.81869 7.58C6.16132 9.37952 3.84476 11.6368 1.977 14.2467L1.94531 14.29L10.5487 21.495C10.9752 21.812 11.4906 21.9869 12.022 21.995C12.3612 21.9968 12.7002 21.9779 13.037 21.9383L13.0354 21.9417ZM23.0004 14.4083C23.0004 14.4083 22.932 11.435 23.0004 11.3833C24.5081 10.4114 26.1858 9.73288 27.9453 9.38334C27.1966 9.05794 26.5634 8.51448 26.1282 7.82385C25.6929 7.13322 25.4759 6.32748 25.5053 5.51167C25.5051 4.94086 25.6174 4.37559 25.8356 3.84815C26.0538 3.3207 26.3738 2.8414 26.7773 2.43762C27.1807 2.03384 27.6598 1.71349 28.1871 1.49485C28.7144 1.2762 29.2795 1.16355 29.8503 1.16333C30.9982 1.16554 32.0982 1.62306 32.9091 2.43547C33.7199 3.24789 34.1753 4.34884 34.1753 5.49667V5.5C34.2048 6.31581 33.9878 7.12156 33.5525 7.81219C33.1173 8.50282 32.484 9.04626 31.7354 9.37166C33.4949 9.72094 35.1727 10.3995 36.6803 11.3717C36.7487 11.425 36.6803 14.3967 36.6803 14.3967C35.5467 15.3945 34.0969 15.9595 32.587 15.9917C32.347 16.0083 32.0187 17.4017 31.8703 18.1017C31.2313 18.0359 30.5894 18.0031 29.947 18.0033C29.2336 18.0037 28.5208 18.0444 27.812 18.125C27.6653 17.4333 27.332 16.0067 27.0887 15.99C25.5793 15.958 24.1299 15.393 22.997 14.395L23.0004 14.4083ZM27.6787 5.505C27.6787 6.07963 27.9069 6.63074 28.3133 7.03707C28.7196 7.4434 29.2707 7.67167 29.8453 7.67167C30.42 7.67167 30.9711 7.4434 31.3774 7.03707C31.7837 6.63074 32.012 6.07963 32.012 5.505C32.012 4.93036 31.7837 4.37927 31.3774 3.97294C30.9711 3.56661 30.42 3.33834 29.8453 3.33834C29.2716 3.33834 28.7212 3.56592 28.315 3.97117C27.9089 4.37642 27.68 4.92623 27.6787 5.5V5.505ZM57.467 14.18C55.7158 11.4919 53.5008 9.13635 50.9253 7.22333L50.882 7.19L50.8454 7.23167L43.5254 15.67C43.2023 16.0906 43.0213 16.6031 43.0086 17.1333C43.0007 17.4716 43.0135 17.81 43.047 18.1467C43.0973 18.5347 43.0883 18.928 43.0203 19.3133L42.987 19.5083C42.9521 19.845 42.852 20.1717 42.692 20.47L39.4253 23.515C40.0081 23.956 40.5646 24.4307 41.092 24.9367C41.6087 24.4467 44.2903 22.01 44.3053 21.9983L44.5537 21.9267C44.8533 21.8294 45.1605 21.7569 45.472 21.71C45.8595 21.6565 46.2527 21.6615 46.6387 21.725C46.974 21.7706 47.3119 21.7957 47.6503 21.8C48.1858 21.8031 48.7081 21.6343 49.1403 21.3183L57.5087 14.22L57.4787 14.1767L57.467 14.18Z" fill="#E32213"/>
<path fill-rule="evenodd" clip-rule="evenodd" d="M29.8722 18.1467C34.8101 18.1467 39.5458 20.1082 43.0374 23.5998C46.529 27.0915 48.4906 31.8271 48.4906 36.765C48.4906 41.7029 46.529 46.4385 43.0374 49.9301C39.5458 53.4218 34.8101 55.3833 29.8722 55.3833C24.9343 55.3833 20.1987 53.4218 16.7071 49.9301C13.2155 46.4385 11.2539 41.7029 11.2539 36.765C11.2539 31.8271 13.2155 27.0915 16.7071 23.5998C20.1987 20.1082 24.9343 18.1467 29.8722 18.1467V18.1467Z" fill="white"/>
<path fill-rule="evenodd" clip-rule="evenodd" d="M26.4883 3.60666C26.1614 4.186 25.9892 4.83978 25.9883 5.50499C25.9869 6.06658 26.1081 6.62173 26.3433 7.13167C26.365 7.15333 26.44 7.21166 26.4916 7.19666C26.5433 7.18166 26.5516 7.12666 26.5633 7.07666C26.3275 6.58629 26.205 6.04913 26.205 5.50499C26.2054 4.76793 26.431 4.0486 26.8516 3.44333C26.8199 3.42167 26.7816 3.41166 26.7433 3.415C26.6889 3.42682 26.6377 3.4502 26.5931 3.48356C26.5485 3.51692 26.5117 3.55946 26.485 3.60832L26.4883 3.60666ZM32.42 4.31167C32.3033 4.19167 32.23 4.16166 32.2 4.17333C32.17 4.185 32.1566 4.25166 32.155 4.30332C32.3553 4.67455 32.4601 5.08982 32.46 5.51167C32.4609 6.17253 32.2038 6.80763 31.7433 7.28166V7.29667C31.7413 7.3087 31.7423 7.32102 31.7461 7.33261C31.7499 7.34421 31.7563 7.35474 31.765 7.36333C31.815 7.39667 31.9533 7.34833 32.0233 7.315C32.4527 6.81282 32.689 6.17405 32.69 5.51333C32.6912 5.10083 32.6007 4.6932 32.425 4.31999L32.42 4.31167Z" fill="#FFCB00"/>
<path fill-rule="evenodd" clip-rule="evenodd" d="M13.5984 55.9933L16.8851 52.3267L16.7818 52.1233L13.4485 55.8317C13.4968 55.8833 13.5468 55.935 13.5951 55.985L13.5984 55.9933ZM51.0851 8.54335L44.3418 16.3767C44.114 16.7358 43.9552 17.1343 43.8735 17.5517C43.8223 17.3275 43.8175 17.0952 43.8594 16.8691C43.9012 16.6429 43.9888 16.4277 44.1168 16.2367C44.1168 16.2367 50.8851 8.30668 50.8401 8.32168L51.0901 8.54501L51.0851 8.54335ZM42.8101 21.975L44.5651 20.0667C44.5651 20.0667 45.6001 19.2917 44.3568 17.9983C44.6375 18.2999 45.0236 18.4816 45.4349 18.5058C45.8462 18.53 46.2509 18.3948 46.5651 18.1283L50.5351 14.5084L46.7784 18.3417C46.5017 18.6468 46.3532 19.0467 46.3634 19.4585C46.3736 19.8703 46.542 20.2623 46.8335 20.5533C45.5968 19.27 44.7785 20.2734 44.7785 20.2734L42.8101 21.9617V21.975ZM3.29846 14.0367L11.2468 20.6417C11.61 20.863 12.0113 21.0144 12.4301 21.0883C12.2069 21.1434 11.9749 21.1523 11.7482 21.1145C11.5215 21.0767 11.3049 20.9929 11.1118 20.8683C11.1118 20.8683 3.06344 14.24 3.0801 14.29L3.30008 14.0317L3.29846 14.0367ZM16.8734 22.0817L14.9334 20.36C14.9334 20.36 14.1351 19.3433 12.8718 20.605C13.1688 20.3195 13.3443 19.9306 13.362 19.519C13.3797 19.1075 13.2382 18.7049 12.9668 18.395L9.28011 14.49L13.1851 18.1767C13.4954 18.4478 13.8982 18.5892 14.3099 18.5715C14.7216 18.5538 15.1108 18.3784 15.3968 18.0817C14.1351 19.3433 15.1518 20.1433 15.1518 20.1433L16.8734 22.0833V22.0817ZM52.9035 50.535C52.7368 50.8683 52.5501 51.2017 52.3534 51.555C51.055 53.9987 49.3333 56.1927 47.2684 58.035C44.9786 60.4225 42.1469 62.2228 39.0134 63.2833C37.0592 63.9959 35.0013 64.3827 32.9218 64.4283L32.7718 64.1067C34.8528 64.0757 36.9132 63.6884 38.8634 62.9617C42.0003 61.9091 44.8337 60.1083 47.1184 57.715C49.1781 55.8676 50.8985 53.674 52.2018 51.2333C52.3684 50.9517 52.5151 50.675 52.6585 50.4C53.4801 48.775 50.6834 49.1783 50.0201 49.1333L50.1868 49.0033L53.4818 48.7717C54.0384 47.4717 54.5301 45.955 54.9218 44.695C54.9218 44.695 55.1168 44.725 55.0284 45.0167C54.6601 46.2017 54.1868 47.6833 53.6951 48.895L54.5684 52.42L54.4835 52.615C54.2918 51.9683 53.5401 49.1917 52.9084 50.5267L52.9035 50.535ZM6.80177 50.535C6.96844 50.8683 7.15508 51.2017 7.35175 51.555C8.65061 53.9985 10.3723 56.1924 12.4368 58.035C14.7269 60.4222 17.5584 62.2225 20.6917 63.2833C22.6459 63.9959 24.7039 64.3827 26.7835 64.4283C26.7835 64.4283 29.3751 64.8783 29.8534 68.5567V59.735C29.7534 64.0567 26.9335 64.1083 26.9335 64.1083C24.8524 64.0773 22.7921 63.6901 20.8418 62.9633C17.7049 61.9107 14.8716 60.1099 12.5868 57.7167C10.5271 55.8693 8.80665 53.6756 7.50342 51.235C7.34342 50.9528 7.19179 50.675 7.04846 50.4017C6.22512 48.7767 9.02175 49.18 9.68675 49.135L9.52013 49.005L6.22509 48.7733C5.66843 47.4733 5.17679 45.9567 4.78512 44.6967C4.78512 44.6967 4.59013 44.7267 4.67846 45.0183C5.0468 46.2033 5.52011 47.685 6.01178 48.8967L5.13841 52.4217L5.22346 52.6167C5.41512 51.97 6.16508 49.1933 6.79842 50.5283L6.80177 50.535ZM53.0218 62.4667L49.1751 58.185L49.0368 58.3517L52.9151 62.6733C53.9334 62.695 53.0185 62.47 53.0185 62.47L53.0218 62.4667ZM46.6668 55.39L43.3434 51.6917L43.2401 51.895L46.5235 55.5483L46.6668 55.39ZM23.8735 11.355H23.7568V13.6367C23.7568 13.6676 23.7691 13.6973 23.791 13.7192C23.8128 13.7411 23.8425 13.7533 23.8735 13.7533C23.8888 13.7538 23.9041 13.7511 23.9185 13.7456C23.9328 13.74 23.9459 13.7316 23.9569 13.7209C23.968 13.7101 23.9767 13.6973 23.9827 13.6831C23.9887 13.669 23.9918 13.6537 23.9918 13.6383V13.6383V11.5967H36.0285C36.0438 11.5969 36.059 11.5941 36.0732 11.5884C36.0875 11.5828 36.1004 11.5744 36.1114 11.5637C36.1224 11.553 36.1312 11.5403 36.1373 11.5262C36.1433 11.5121 36.1465 11.497 36.1468 11.4817V11.4817C36.1468 11.4661 36.1437 11.4508 36.1378 11.4364C36.1318 11.422 36.1231 11.409 36.1121 11.398C36.1011 11.387 36.0881 11.3783 36.0737 11.3724C36.0594 11.3664 36.044 11.3634 36.0285 11.3634H23.8751L23.8735 11.355ZM10.9201 58.655L7.10176 62.9067C7.10176 62.9067 6.18678 63.1317 7.20511 63.11L11.0601 58.8183L10.9201 58.6517V58.655ZM24.3418 14.1783C24.3104 14.1783 24.2803 14.1908 24.2581 14.213C24.2359 14.2352 24.2234 14.2653 24.2234 14.2967V14.2967C24.2239 14.3278 24.2365 14.3574 24.2587 14.3793C24.2808 14.4011 24.3107 14.4133 24.3418 14.4133H36.0268C36.0579 14.4133 36.0877 14.4011 36.1098 14.3793C36.132 14.3574 36.1446 14.3278 36.1451 14.2967C36.1451 14.2811 36.142 14.2658 36.1361 14.2514C36.1301 14.237 36.1214 14.224 36.1104 14.213C36.0995 14.202 36.0864 14.1933 36.072 14.1874C36.0577 14.1814 36.0423 14.1783 36.0268 14.1783H24.3418Z" fill="white"/>
<path fill-rule="evenodd" clip-rule="evenodd" d="M50.4827 37.7C50.5576 37.645 50.6201 37.5749 50.6663 37.4942C50.7126 37.4136 50.7414 37.3241 50.751 37.2317C50.786 36.6933 50.2243 36.4117 49.6893 36.3783C49.6043 36.3783 49.4977 36.3783 49.381 36.3783V36.2317C49.7758 36.2745 50.1718 36.1628 50.486 35.92C50.5607 35.8652 50.6231 35.7953 50.6693 35.715C50.7156 35.6346 50.7445 35.5455 50.7543 35.4533C50.7893 34.915 50.2277 34.6317 49.6927 34.5983C49.4244 34.5841 49.1553 34.5958 48.8893 34.6334C48.9047 34.5894 48.9126 34.5432 48.9127 34.4967V34.4517C48.982 34.1851 49.0156 33.9105 49.0127 33.635C49.0154 33.2354 48.9401 32.8391 48.791 32.4683C48.6997 32.2409 48.5738 32.029 48.4177 31.84V31.84C48.4482 31.8229 48.473 31.7972 48.489 31.7661C48.505 31.7349 48.5115 31.6998 48.5077 31.665C48.5068 31.6194 48.5 31.574 48.4876 31.53V31.3817C48.4902 30.751 48.3108 30.133 47.971 29.6017C47.8006 29.3441 47.5862 29.1184 47.3376 28.935C47.3595 28.9187 47.377 28.8972 47.3887 28.8725C47.4003 28.8478 47.4057 28.8206 47.4043 28.7934C47.4017 28.7304 47.3864 28.6686 47.3593 28.6117C47.291 27.9326 47.0125 27.2917 46.5626 26.7784C46.3106 26.4956 46.0024 26.2686 45.6576 26.1117L45.686 26.0983C45.7019 26.0838 45.7145 26.066 45.7229 26.0462C45.7312 26.0263 45.7351 26.0049 45.7344 25.9833C45.7278 25.9091 45.702 25.8378 45.6593 25.7767C45.491 25.1173 45.1217 24.5267 44.6027 24.0867C44.3712 23.8966 44.1092 23.7472 43.8277 23.645C43.8472 23.6191 43.8578 23.5875 43.8577 23.555C43.8462 23.4712 43.8068 23.3937 43.746 23.335C43.4669 22.7142 43.0008 22.1961 42.4127 21.8534C42.0926 21.6679 41.736 21.5541 41.3676 21.52V21.5C41.3599 21.4551 41.3431 21.4123 41.3182 21.3742C41.2932 21.336 41.2607 21.3034 41.2227 21.2784C40.854 20.7061 40.3164 20.2628 39.6843 20.01C39.4559 19.922 39.2153 19.8692 38.971 19.8533C38.9735 19.839 38.9735 19.8243 38.971 19.81C38.971 19.6983 38.841 19.6217 38.7777 19.5884C38.303 19.1015 37.6884 18.7746 37.0193 18.6534C36.714 18.599 36.4014 18.599 36.096 18.6534V18.635C36.096 18.505 35.9427 18.4484 35.871 18.4217C35.33 18.0096 34.674 17.7766 33.9943 17.755C33.6174 17.7476 33.2429 17.8179 32.8943 17.9617C32.8957 17.9529 32.8957 17.9438 32.8943 17.935V17.935C32.8943 17.7933 32.7277 17.7517 32.636 17.7367C32.555 17.689 32.4715 17.6457 32.386 17.6067V17.5517C32.3889 17.2086 32.2762 16.8745 32.066 16.6034C32.0111 16.5286 31.9413 16.4662 31.861 16.42C31.7806 16.3738 31.6915 16.3448 31.5993 16.335C31.0827 16.3017 30.7977 16.8267 30.7494 17.345H30.6793C30.6478 17.3474 30.6166 17.3524 30.586 17.36C30.5584 17.0819 30.4527 16.8172 30.281 16.5967C30.226 16.5218 30.1559 16.4592 30.0752 16.413C29.9946 16.3668 29.9051 16.338 29.8127 16.3283C29.2743 16.295 28.9927 16.855 28.9593 17.39L28.8976 17.4034L28.831 17.4233C28.8097 17.1199 28.6982 16.8298 28.511 16.59C28.454 16.5134 28.3818 16.4495 28.2989 16.4021C28.216 16.3548 28.1242 16.3251 28.0293 16.315C27.4777 16.28 27.1877 16.85 27.1543 17.395C27.1543 17.455 27.1543 17.525 27.1543 17.6134V17.715C26.6448 17.6621 26.1301 17.7336 25.6543 17.9234C25.4267 18.0135 25.2146 18.1389 25.026 18.295V18.295C24.9643 18.165 24.7927 18.205 24.7143 18.225C24.0335 18.1928 23.3595 18.3734 22.786 18.7417C22.5281 18.9117 22.3024 19.1261 22.1193 19.375C22.0393 19.2567 21.8677 19.3217 21.796 19.355C21.1171 19.4219 20.4761 19.6992 19.9627 20.1483C19.6799 20.4004 19.4529 20.7086 19.296 21.0533C19.2946 21.0428 19.2899 21.0329 19.2827 21.025C19.186 20.9217 19.0327 21.0083 18.9627 21.0517C18.3033 21.22 17.7127 21.5893 17.2727 22.1084C17.0826 22.3398 16.9332 22.6018 16.831 22.8833C16.7177 22.8 16.586 22.91 16.5227 22.965C15.9022 23.2446 15.3843 23.7107 15.041 24.2983C14.8562 24.6169 14.7425 24.9717 14.7077 25.3383C14.6044 25.3233 14.511 25.4267 14.4643 25.4817C13.8917 25.8499 13.4483 26.3877 13.196 27.02C13.1067 27.2481 13.0538 27.4888 13.0393 27.7334C12.9043 27.69 12.811 27.8484 12.771 27.9184C12.2841 28.393 11.9573 29.0076 11.836 29.6767C11.8109 29.8293 11.7981 29.9837 11.7977 30.1384C11.7979 30.2938 11.8124 30.4489 11.841 30.6017V30.6017C11.6994 30.58 11.631 30.75 11.6044 30.8233C11.1921 31.3642 10.959 32.0203 10.9376 32.7V32.7367C10.9345 33.1014 11.0049 33.463 11.1444 33.8H11.1176C10.976 33.8 10.9343 33.9667 10.9177 34.0584C10.8163 34.2404 10.7342 34.4326 10.6727 34.6317C10.4393 34.6045 10.204 34.5967 9.96932 34.6084C9.43432 34.6417 8.87434 34.925 8.90767 35.4634C8.9175 35.5555 8.94646 35.6446 8.99266 35.725C9.03886 35.8053 9.10131 35.8752 9.17602 35.93C9.49529 36.1755 9.89747 36.2873 10.2976 36.2417C10.3892 36.2298 10.4792 36.208 10.566 36.1767C10.5793 36.2434 10.5943 36.3067 10.6093 36.3734V36.4117C10.3989 36.3899 10.1872 36.3849 9.97599 36.3967C9.44099 36.43 8.881 36.7134 8.91433 37.25C8.92414 37.3426 8.95323 37.4321 8.99973 37.5128C9.04623 37.5934 9.1091 37.6635 9.18431 37.7183C9.50343 37.9641 9.90597 38.0753 10.306 38.0284C10.4155 38.014 10.523 37.9866 10.626 37.9467C10.6491 38.0344 10.6775 38.1207 10.711 38.205C10.4679 38.1742 10.2224 38.1652 9.97767 38.1784C9.44267 38.2117 8.88268 38.495 8.91601 39.0334C8.92621 39.1256 8.9553 39.2149 9.00146 39.2954C9.04762 39.376 9.10984 39.4462 9.18431 39.5017C9.50343 39.7473 9.90615 39.858 10.306 39.81C10.4548 39.7874 10.5996 39.7437 10.736 39.68L10.9027 39.6217C10.9027 39.7167 10.8876 39.8234 10.8876 39.9384C10.8851 40.3379 10.9604 40.7342 11.1093 41.105C11.2006 41.3324 11.3266 41.5444 11.4826 41.7334V41.7334C11.4534 41.7497 11.4294 41.7741 11.4134 41.8036C11.3975 41.8331 11.3903 41.8666 11.3927 41.9C11.3941 41.9463 11.4013 41.9922 11.4143 42.0367V42.185C11.4119 42.8152 11.5913 43.4326 11.931 43.9634C12.1008 44.2209 12.3147 44.4465 12.5627 44.63V44.63C12.5408 44.6464 12.5233 44.6678 12.5116 44.6925C12.5 44.7172 12.4946 44.7444 12.496 44.7717C12.4991 44.8353 12.515 44.8977 12.5427 44.955C12.609 45.634 12.8864 46.2752 13.336 46.7884C13.5884 47.0706 13.8966 47.2976 14.241 47.455C14.2314 47.4579 14.2224 47.4624 14.2143 47.4683C14.1984 47.4829 14.1858 47.5007 14.1775 47.5205C14.1691 47.5404 14.1652 47.5618 14.166 47.5833C14.1725 47.6576 14.1984 47.7289 14.241 47.79C14.4088 48.4496 14.7781 49.0404 15.2976 49.48C15.5288 49.6706 15.791 49.82 16.0727 49.9217C16.0531 49.9476 16.0426 49.9792 16.0427 50.0117C16.054 50.0964 16.094 50.1746 16.156 50.2334C16.435 50.8542 16.9012 51.3723 17.4893 51.715C17.8091 51.8999 18.165 52.0136 18.5327 52.0484V52.0684C18.5327 52.165 18.626 52.2484 18.6777 52.2917C19.0463 52.8639 19.584 53.3072 20.216 53.56C20.445 53.6481 20.6861 53.7009 20.931 53.7167V53.7167C20.9291 53.7311 20.9291 53.7456 20.931 53.76C20.931 53.8717 21.061 53.95 21.1227 53.9817C21.5971 54.4689 22.2118 54.7957 22.881 54.9167C23.1864 54.971 23.4989 54.971 23.8043 54.9167V54.9167C23.803 54.925 23.803 54.9334 23.8043 54.9417C23.8043 55.0717 23.9577 55.1283 24.0293 55.1533C24.5703 55.5654 25.2263 55.7984 25.906 55.82C26.2829 55.8279 26.6573 55.7581 27.006 55.615C27.0047 55.6239 27.0047 55.6328 27.006 55.6417C27.006 55.7833 27.1727 55.825 27.2643 55.8417L27.326 55.875C27.2351 56.2033 27.1913 56.5428 27.196 56.8834V57.095C27.2293 57.63 27.5127 58.19 28.051 58.1567C28.1434 58.1471 28.2329 58.1182 28.3135 58.072C28.3942 58.0258 28.4643 57.9633 28.5193 57.8883C28.7298 57.6173 28.8425 57.2831 28.8393 56.94C28.839 56.8843 28.8357 56.8287 28.8293 56.7733C28.807 56.624 28.7632 56.4786 28.6993 56.3417L28.6676 56.2484C28.7859 56.2548 28.9044 56.2548 29.0227 56.2484C28.9887 56.4622 28.9714 56.6785 28.971 56.895C28.971 56.9734 28.971 57.0484 28.971 57.1084C29.0043 57.6434 29.286 58.2034 29.8243 58.17C29.9166 58.1597 30.0058 58.1306 30.0864 58.0844C30.1669 58.0383 30.2371 57.9761 30.2927 57.9017C30.5029 57.6305 30.6156 57.2964 30.6127 56.9534C30.6124 56.8977 30.609 56.842 30.6027 56.7867C30.5801 56.6379 30.5363 56.4931 30.4727 56.3567L30.441 56.2634C30.5617 56.2572 30.6819 56.2438 30.801 56.2234C30.7639 56.447 30.7456 56.6733 30.746 56.9C30.7423 56.9722 30.7423 57.0445 30.746 57.1167C30.7793 57.6517 31.0627 58.2117 31.601 58.1784C31.6932 58.1685 31.7823 58.1396 31.8626 58.0934C31.943 58.0472 32.0128 57.9847 32.0677 57.91C32.278 57.6383 32.3907 57.3036 32.3877 56.96C32.3874 56.9043 32.384 56.8487 32.3777 56.7934C32.3546 56.6441 32.3108 56.4989 32.2477 56.3617L32.171 56.1367C32.2493 56.0448 32.3117 55.9406 32.356 55.8283C32.9782 55.9599 33.6254 55.9066 34.2177 55.675C34.4449 55.5832 34.6567 55.4573 34.846 55.3017V55.3017C34.9076 55.4317 35.0793 55.3917 35.1577 55.3717C35.8385 55.4039 36.5124 55.2233 37.086 54.855C37.3436 54.6846 37.5693 54.4702 37.7527 54.2217V54.2217C37.8327 54.34 38.0027 54.275 38.076 54.2434C38.7552 54.1765 39.3963 53.8985 39.9093 53.4484C40.1919 53.1962 40.419 52.888 40.576 52.5434C40.5791 52.5528 40.5836 52.5618 40.5893 52.57C40.686 52.6734 40.8393 52.5867 40.9093 52.5434C41.5689 52.3756 42.1597 52.0062 42.5993 51.4867C42.7894 51.2553 42.9388 50.9932 43.041 50.7117C43.1544 50.795 43.2877 50.685 43.3494 50.6284C43.97 50.3489 44.4879 49.8828 44.831 49.295C45.016 48.9759 45.1297 48.6206 45.1643 48.2534C45.2677 48.2684 45.3593 48.165 45.406 48.11C45.9794 47.7422 46.4234 47.2043 46.676 46.5717C46.7641 46.3432 46.8169 46.1027 46.8327 45.8584V45.8584C46.9693 45.9017 47.0626 45.7434 47.101 45.6734C47.5874 45.1984 47.9142 44.5839 48.036 43.915C48.0604 43.7623 48.0733 43.608 48.0743 43.4534C48.0735 43.2985 48.059 43.144 48.031 42.9917V42.9917C48.1727 43.0117 48.241 42.8433 48.2693 42.77C48.6814 42.2284 48.9144 41.5719 48.936 40.8917V40.8534C48.9389 40.4888 48.8692 40.1274 48.731 39.79H48.7577C48.7893 39.7892 48.8201 39.7793 48.8464 39.7616C48.8727 39.7439 48.8933 39.7191 48.906 39.69C49.0424 39.7537 49.1872 39.7975 49.336 39.82C49.736 39.8674 50.1387 39.7561 50.4577 39.51C50.5324 39.4552 50.5948 39.3853 50.641 39.305C50.6872 39.2246 50.7162 39.1355 50.726 39.0433C50.761 38.505 50.1994 38.2217 49.6644 38.1883C49.576 38.1883 49.4676 38.1883 49.3493 38.1883C49.3462 38.1395 49.3462 38.0905 49.3493 38.0417C49.7424 38.0831 50.1364 37.9715 50.4493 37.73L50.4827 37.7ZM32.496 19.4167C32.497 19.275 32.487 19.1335 32.466 18.9933C32.9128 19.0998 33.3701 19.1557 33.8293 19.16C33.8293 19.16 34.006 19.15 34.2527 19.1284C34.9916 19.5606 35.8004 19.8601 36.6427 20.0133C36.6427 20.0133 36.7393 20.0233 36.881 20.0333C37.5303 20.5543 38.2568 20.971 39.0343 21.2683C39.0343 21.2683 39.3043 21.35 39.6493 21.435C40.2075 22.0487 40.8574 22.5721 41.576 22.9867L41.886 23.1267C42.3424 23.8558 42.9124 24.5073 43.5743 25.0567C43.5743 25.0567 43.791 25.21 44.0743 25.39C44.3871 26.1925 44.8384 26.9337 45.4077 27.58C45.4077 27.58 45.5377 27.71 45.7193 27.87C45.9069 28.7054 46.2397 29.5014 46.7027 30.2217C46.7027 30.2217 46.761 30.2983 46.851 30.41C46.9126 31.2395 47.1033 32.0543 47.416 32.825C47.416 32.825 47.546 33.0833 47.7127 33.3917C47.6726 33.7955 47.6687 34.2021 47.701 34.6067H47.6777C47.4797 34.6247 47.2872 34.6813 47.111 34.7734C47.0207 34.7419 46.9282 34.7168 46.8344 34.6984C46.3764 30.9962 44.7134 27.5474 42.1018 24.8837C39.4903 22.2201 36.075 20.4893 32.3827 19.9584C32.4496 19.7797 32.4895 19.5921 32.501 19.4017L32.496 19.4167ZM47.8827 36.31V36.4134C47.8167 36.4082 47.7503 36.4082 47.6843 36.4134C47.4864 36.4314 47.2939 36.488 47.1177 36.58C47.0677 36.5617 47.016 36.5467 46.9643 36.5334C46.9643 36.4034 46.9643 36.275 46.9543 36.145C47.1836 36.2457 47.4281 36.3077 47.6777 36.3284C47.7527 36.3284 47.821 36.3284 47.8877 36.3284L47.8827 36.31ZM30.741 18.785L30.936 18.7417C30.8517 18.9253 30.8074 19.1247 30.806 19.3267V19.4167C30.8162 19.5607 30.8482 19.7023 30.901 19.8367L30.6426 19.825C30.6831 19.6952 30.7072 19.5608 30.7143 19.425C30.7197 19.2149 30.6956 19.0051 30.6426 18.8017L30.741 18.7867V18.785ZM28.8976 18.8833C28.9743 18.8667 29.046 18.85 29.1093 18.83C29.0474 18.9895 29.0152 19.159 29.0143 19.33V19.42C29.0252 19.5623 29.0572 19.7022 29.1093 19.835L28.8643 19.85C28.9074 19.7127 28.9326 19.5704 28.9394 19.4267C28.9428 19.2453 28.9255 19.0641 28.8877 18.8867L28.8976 18.8833ZM12.3627 32.4584C12.7949 31.7194 13.0944 30.9106 13.2477 30.0684C13.2477 30.0684 13.256 29.9733 13.2677 29.8283C13.7887 29.1791 14.2053 28.4526 14.5027 27.675C14.5027 27.675 14.5843 27.405 14.6693 27.0584C15.283 26.4964 15.8049 25.8418 16.216 25.1184C16.216 25.1184 16.276 24.9883 16.3577 24.81C17.0868 24.3535 17.7383 23.7836 18.2877 23.1217C18.2877 23.1217 18.441 22.905 18.621 22.6217C19.4229 22.3113 20.1646 21.8635 20.8127 21.2984C20.8127 21.2984 20.9426 21.1683 21.1026 20.985C21.9385 20.7972 22.735 20.4644 23.456 20.0017C23.456 20.0017 23.5327 19.9433 23.6444 19.8533C24.4738 19.7917 25.2886 19.6011 26.0593 19.2884C26.0593 19.2884 26.3177 19.1583 26.626 18.9917C26.8285 19.0151 27.0322 19.0257 27.236 19.0233C27.2151 19.1192 27.2045 19.2169 27.2043 19.315V19.405C27.2197 19.6024 27.2735 19.7949 27.3627 19.9717V19.9967C23.7178 20.5643 20.3564 22.3021 17.7858 24.9478C15.2153 27.5936 13.5751 31.0036 13.1127 34.6633C12.9317 34.6809 12.7534 34.7189 12.581 34.7767C12.4347 34.7036 12.2777 34.6541 12.116 34.63C12.2794 34.0553 12.3701 33.4623 12.386 32.865C12.386 32.865 12.376 32.6883 12.3543 32.4417L12.3627 32.4584ZM20.2643 31.0667L25.8243 48.675C23.3611 47.814 21.2265 46.2084 19.7161 44.0805C18.2058 41.9526 17.3944 39.4078 17.3944 36.7983C17.3906 34.206 18.1913 31.6764 19.686 29.5584L19.7627 31.2917L20.2626 31.0617L20.2643 31.0667ZM12.0494 36.3234C12.3313 36.2951 12.6061 36.2172 12.861 36.0934C12.906 36.1084 12.956 36.1217 13.0027 36.1334C13.0027 36.25 13.0027 36.3667 12.9927 36.4817C12.8549 36.501 12.7193 36.5334 12.5877 36.5784C12.4209 36.4941 12.2402 36.441 12.0543 36.4217C12.0576 36.3879 12.0576 36.3538 12.0543 36.32L12.0494 36.3234ZM12.1443 38.1017C12.3927 38.0632 12.6342 37.9885 12.861 37.88L13.0276 37.9283C13.0276 38.04 13.0427 38.15 13.0527 38.2617C12.8944 38.2809 12.7385 38.3166 12.5877 38.3683C12.4543 38.3007 12.3116 38.253 12.1644 38.2267C12.1617 38.1856 12.155 38.1448 12.1443 38.105V38.1017ZM27.3793 54.5517C26.9606 54.4542 26.5325 54.4028 26.1026 54.3984C26.1026 54.3984 25.926 54.4067 25.6793 54.4284C24.9408 53.9953 24.1318 53.6957 23.2893 53.5434L23.051 53.5234C22.402 53.0029 21.6761 52.5862 20.8993 52.2884C20.8993 52.2884 20.6294 52.2067 20.2827 52.1217C19.7257 51.5074 19.0762 50.9839 18.3576 50.57C18.3576 50.57 18.2277 50.51 18.0477 50.4284C17.5912 49.6992 17.0213 49.0477 16.3593 48.4984C16.3593 48.4984 16.1427 48.345 15.8593 48.165C15.5494 47.3629 15.1015 46.6211 14.536 45.9734C14.536 45.9734 14.406 45.8434 14.2227 45.6834C14.0351 44.8479 13.7023 44.0519 13.2393 43.3317C13.2393 43.3317 13.181 43.255 13.091 43.1433C13.0292 42.3134 12.8385 41.4981 12.526 40.7267C12.526 40.7267 12.396 40.4684 12.2294 40.1617C12.241 40.0834 12.2493 39.995 12.2543 39.88C12.4659 39.8371 12.6713 39.7683 12.866 39.675C12.9934 39.7156 13.123 39.7484 13.2543 39.7734C13.8708 43.2424 15.5499 46.4341 18.0595 48.9073C20.569 51.3804 23.785 53.0127 27.2627 53.5783C27.2635 53.8971 27.3118 54.2139 27.406 54.5184C27.406 54.5334 27.3927 54.5484 27.386 54.5617L27.3793 54.5517ZM29.0693 54.81L28.9027 54.8467C28.8586 54.6342 28.7892 54.4277 28.696 54.2317C28.7464 54.0713 28.7854 53.9076 28.8127 53.7417L29.0476 53.7567C29.0572 54.0103 29.1009 54.2614 29.1776 54.5034C29.1296 54.6017 29.0911 54.7044 29.0626 54.81H29.0693ZM30.8793 54.7217L30.8243 54.7367L30.7843 54.75H30.6643C30.6214 54.5719 30.56 54.3987 30.481 54.2334C30.5286 54.0816 30.5659 53.9268 30.5926 53.77L30.8327 53.76C30.8428 54.013 30.8865 54.2635 30.9627 54.505C30.9287 54.5759 30.8992 54.6488 30.8743 54.7234L30.8793 54.7217ZM29.9743 49.3734C29.0641 49.3735 28.1565 49.2746 27.2677 49.0784V49.0784L21.1893 30.6183L21.6377 30.4117L20.2677 28.7667C21.4472 27.3377 22.9283 26.1876 24.6047 25.3986C26.2812 24.6096 28.1115 24.2015 29.9643 24.2033C31.6169 24.2027 33.2535 24.5277 34.7804 25.1597C36.3074 25.7917 37.6949 26.7184 38.8636 27.8868C40.0323 29.0552 40.9593 30.4424 41.5917 31.9692C42.2242 33.496 42.5496 35.1324 42.5493 36.785V36.785C42.5517 38.1663 42.3265 39.5386 41.8827 40.8467C39.4734 36.9062 38.3358 32.3196 38.6243 27.71L38.5643 27.665C36.8408 28.2404 35.1724 28.9694 33.5794 29.8434C33.5894 29.7134 33.601 29.57 33.601 29.42C33.601 28.645 33.3427 27.7117 31.546 27.56C29.1293 27.3417 25.831 28.5 21.461 31.1017L21.4476 31.1683C22.9993 33.2367 25.3427 41.1233 25.8193 44.5317L25.891 44.5617C27.0206 43.6448 28.2856 42.9088 29.641 42.38C29.5894 42.8149 29.561 43.2521 29.556 43.69C29.5136 44.0943 29.5582 44.5029 29.687 44.8885C29.8158 45.274 30.0258 45.6274 30.3027 45.925C30.6851 46.1585 31.1196 46.2932 31.5671 46.317C32.0145 46.3409 32.4609 46.2531 32.866 46.0617C34.3647 45.5028 35.7843 44.7515 37.0893 43.8267C38.501 42.8313 40.0375 42.0261 41.6593 41.4317C40.7282 43.7716 39.1164 45.7783 37.0323 47.1921C34.9482 48.6058 32.4877 49.3616 29.9693 49.3617L29.9743 49.3734ZM47.5744 41.11C47.1426 41.8492 46.8432 42.658 46.6893 43.5C46.6893 43.5 46.6793 43.595 46.6693 43.74C46.1483 44.3893 45.7317 45.1158 45.4343 45.8933C45.4343 45.8933 45.3527 46.1634 45.2677 46.5084C44.6533 47.0659 44.1298 47.716 43.716 48.435C43.716 48.435 43.656 48.565 43.576 48.7433C42.8465 49.2 42.195 49.7706 41.646 50.4333C41.646 50.4333 41.4927 50.65 41.3127 50.9334C40.5097 51.2461 39.7679 51.6974 39.121 52.2667C39.121 52.2667 38.991 52.3967 38.831 52.5784C37.9958 52.7658 37.1999 53.0981 36.4793 53.56C36.4793 53.56 36.4027 53.6184 36.291 53.7084C35.4615 53.77 34.6467 53.9606 33.876 54.2733C33.876 54.2733 33.6176 54.4034 33.3076 54.57C33.0071 54.5378 32.7045 54.5289 32.4026 54.5434C32.3671 54.438 32.3237 54.3355 32.2727 54.2367C32.3376 54.033 32.3838 53.8238 32.411 53.6117C35.9588 53.096 39.2527 51.4718 41.8219 48.9715C44.3911 46.4711 46.1041 43.2225 46.716 39.69C46.7593 39.6783 46.801 39.6684 46.846 39.6534C47.0887 39.7705 47.3487 39.8476 47.616 39.8817C47.5704 40.1447 47.5487 40.4114 47.551 40.6784C47.551 40.6784 47.5593 40.855 47.5826 41.1017L47.5744 41.11ZM48.0443 38.23C47.924 38.2038 47.8005 38.1948 47.6777 38.2034C47.4797 38.2211 47.2871 38.2778 47.111 38.37C47.0399 38.3456 46.9676 38.325 46.8943 38.3084C46.906 38.18 46.9143 38.0517 46.9243 37.92C47.1606 38.026 47.413 38.0914 47.671 38.1133C47.7958 38.1145 47.9205 38.1073 48.0443 38.0917L48.0677 38.1867C48.0677 38.2017 48.0527 38.2183 48.0443 38.235V38.23Z" fill="#1D1D1B"/>
<path fill-rule="evenodd" clip-rule="evenodd" d="M48.3584 36.54C48.6263 36.4434 48.9072 36.3873 49.1917 36.3733C49.1955 36.3078 49.1955 36.2422 49.1917 36.1767C49.1079 36.1519 49.0255 36.1224 48.945 36.0883L48.7184 36.0117C48.5771 36.1304 48.4088 36.2128 48.2284 36.2517C48.26 36.3383 48.2933 36.4183 48.3267 36.51L48.3734 36.53L48.3584 36.54ZM31.1167 19.8383C31.27 19.8483 31.4217 19.86 31.575 19.875C31.3299 19.6735 31.1501 19.4038 31.0584 19.1C31.0336 19.1994 31.0191 19.301 31.015 19.4033C31.0145 19.464 31.0179 19.5247 31.025 19.585C31.0459 19.6738 31.0754 19.7603 31.1133 19.8433L31.1167 19.8383ZM10.98 36.0183L10.9384 36.0333C10.8916 36.1601 10.8532 36.2899 10.8234 36.4217C10.9944 36.4461 11.1621 36.4897 11.3233 36.5517L11.39 36.5217C11.335 36.4 11.2834 36.2883 11.2317 36.1883C11.1382 36.1452 11.0512 36.0891 10.9734 36.0217L10.98 36.0183ZM41.66 22.8217C41.0179 22.4477 40.4307 21.9867 39.915 21.4517C40.2644 21.5988 40.6392 21.6764 41.0183 21.68C41.471 21.6771 41.9167 21.792 42.3117 22.0133C42.8626 22.3403 43.3 22.8284 43.565 23.4117V23.4267L43.5767 23.44C43.5981 23.4624 43.617 23.487 43.6333 23.5133C42.9424 23.3799 42.274 23.1487 41.6484 22.8267L41.66 22.8217ZM14.6183 47.3883C14.1939 47.236 13.813 46.9825 13.5084 46.65C13.0894 46.1652 12.8288 45.5639 12.7617 44.9267V44.91V44.895C12.7486 44.8665 12.738 44.837 12.73 44.8067C13.3467 45.1465 13.9086 45.5775 14.3967 46.085C14.8879 46.6574 15.2928 47.2987 15.5984 47.9883C15.3153 47.7287 14.9856 47.5251 14.6267 47.3883H14.6183ZM48.3633 34.7483C48.4287 34.7223 48.4954 34.7 48.5633 34.6817L48.4667 34.5667C48.2109 34.286 48.0122 33.9583 47.8817 33.6017C47.8817 33.7067 47.8717 33.8283 47.8717 33.9683C47.8717 34.1667 47.8717 34.3917 47.8917 34.615C48.0545 34.6319 48.2133 34.6759 48.3617 34.745L48.3633 34.7483ZM10.98 37.8017L10.8267 37.8533C10.8603 37.9788 10.9038 38.1014 10.9567 38.22C11.0837 38.2422 11.2081 38.2768 11.3283 38.3233C11.5257 38.2327 11.7412 38.1882 11.9584 38.1933C11.9555 38.1611 11.9493 38.1293 11.94 38.0983C11.5955 38.1201 11.2549 38.0159 10.9817 37.805L10.98 37.8017ZM38.295 20.0767C38.7371 19.9862 39.1957 20.022 39.6183 20.18C40.2109 20.4227 40.7155 20.8401 41.065 21.3767L41.0734 21.3917L41.0867 21.4033C41.1091 21.4213 41.1297 21.4414 41.1483 21.4633C40.447 21.4362 39.7532 21.3083 39.0883 21.0833C38.4159 20.8234 37.7809 20.4754 37.2 20.0483C37.559 20.1337 37.9317 20.1445 38.295 20.08V20.0767ZM16.6984 49.8883C16.2418 49.8067 15.8127 49.6125 15.45 49.3233C14.962 48.906 14.6131 48.3495 14.45 47.7283V47.7217L14.4417 47.7067C14.4247 47.6809 14.4102 47.6535 14.3984 47.625C15.0539 47.878 15.671 48.2214 16.2317 48.645C16.8146 49.131 17.3262 49.6965 17.7517 50.325C17.4283 50.1182 17.0696 49.9729 16.6934 49.8967L16.6984 49.8883ZM12.325 39.1383C12.175 38.72 10.7083 38.3283 10.015 38.3733C9.70501 38.3933 9.12501 38.55 9.15334 39C9.16316 39.0627 9.18532 39.1228 9.2185 39.1769C9.25168 39.2309 9.29523 39.2779 9.34667 39.315C9.62097 39.5212 9.96424 39.6138 10.305 39.5733C10.4347 39.5543 10.5611 39.5167 10.68 39.4617L10.7983 39.4233C10.5946 39.2876 10.4078 39.1281 10.2417 38.9483L10.4183 38.795C10.841 39.2578 11.4079 39.5638 12.0267 39.6633C12.1998 39.6531 12.3711 39.6217 12.5367 39.57C12.6149 39.5442 12.6912 39.5131 12.765 39.4767C12.6186 39.3926 12.4813 39.2937 12.355 39.1817L12.3234 39.1333L12.325 39.1383ZM29.325 19.805L29.6983 19.795C29.5086 19.5931 29.3657 19.3518 29.28 19.0883C29.2553 19.1877 29.2408 19.2893 29.2367 19.3917C29.2368 19.4524 29.2402 19.513 29.2467 19.5733C29.2664 19.6526 29.2926 19.7301 29.325 19.805V19.805ZM29.9717 53.7633H29.775L29.785 53.7783C29.5954 53.952 29.4532 54.1711 29.3717 54.415C29.3744 54.4301 29.3794 54.4448 29.3867 54.4583L29.4033 54.4983L29.3833 54.5367C29.3258 54.6417 29.2821 54.7537 29.2533 54.87C29.2461 54.9308 29.2428 54.9921 29.2434 55.0533C29.2487 55.1555 29.2632 55.2571 29.2867 55.3567C29.3749 55.0255 29.5781 54.7366 29.86 54.5417C30.0597 54.3097 30.215 54.0431 30.3184 53.755H29.9717V53.7633ZM12.02 39.8883C12.02 39.9083 12.035 39.9233 12.04 39.9433V39.8883H12.02ZM35.6867 18.955C36.1094 18.8064 36.5626 18.7657 37.005 18.8367C37.6346 18.9557 38.2127 19.2645 38.6617 19.7217L38.6734 19.735H38.6884C38.7149 19.7486 38.74 19.7648 38.7633 19.7833C38.0708 19.9008 37.3646 19.9131 36.6684 19.82C35.9342 19.6775 35.2242 19.4305 34.56 19.0867C34.9386 19.1136 35.319 19.0672 35.68 18.95L35.6867 18.955ZM18.2617 50.7217C18.9032 51.0958 19.4899 51.5568 20.005 52.0917C19.6556 51.9445 19.2808 51.8669 18.9017 51.8633C18.449 51.866 18.0033 51.7512 17.6083 51.53C17.0578 51.2025 16.6206 50.7146 16.355 50.1317V50.1167L16.3433 50.1033C16.3223 50.08 16.3034 50.0549 16.2867 50.0283C16.978 50.1621 17.647 50.3933 18.2734 50.715L18.2617 50.7217ZM11.8383 39.875C11.5871 39.8742 11.3403 39.8087 11.1217 39.685C11.1217 39.76 11.1133 39.8383 11.1133 39.9233C11.1093 40.2977 11.179 40.6692 11.3184 41.0167C11.4935 41.433 11.7823 41.7917 12.1517 42.0517C12.4453 42.2713 12.6909 42.5486 12.8733 42.8667C12.7904 42.1529 12.6127 41.4534 12.345 40.7867C12.2034 40.495 12.0217 40.1683 11.845 39.8733L11.8383 39.875ZM24.7683 18.4033C24.7975 18.3944 24.8278 18.3894 24.8584 18.3883C24.4307 18.9457 23.9224 19.4361 23.35 19.8433C22.7165 20.2416 22.0289 20.5464 21.3083 20.7483C21.6055 20.5086 21.853 20.213 22.0367 19.8783C22.245 19.4813 22.5492 19.1427 22.9217 18.8933C23.4619 18.5523 24.0934 18.3842 24.7317 18.4117H24.765L24.7683 18.4033ZM30.62 17.7117C30.5974 17.8605 30.5537 18.0053 30.49 18.1417L30.4134 18.3683C30.4727 18.4391 30.523 18.5169 30.5634 18.6C30.6074 18.5979 30.651 18.5906 30.6934 18.5783L30.875 18.54C30.7962 18.2329 30.7575 17.917 30.76 17.6V17.5283H30.7267L30.62 17.5467C30.6207 17.6023 30.6179 17.658 30.6117 17.7133L30.62 17.7117ZM20.8367 52.4583C21.5086 52.7183 22.143 53.0664 22.7233 53.4933C22.3643 53.4085 21.9917 53.3978 21.6284 53.4617C21.1865 53.5527 20.7279 53.5174 20.305 53.36C19.7126 53.1171 19.208 52.6997 18.8583 52.1633V52.1483L18.845 52.1367C18.8229 52.1183 18.8023 52.0983 18.7834 52.0767C19.4846 52.105 20.1782 52.233 20.8434 52.4567L20.8367 52.4583ZM33.9484 54.4283C33.4419 54.6777 32.9545 54.9641 32.49 55.285C32.4827 55.3888 32.4677 55.4918 32.445 55.5933C33.0236 55.7101 33.6235 55.6604 34.175 55.45C34.5911 55.2745 34.9497 54.9858 35.21 54.6167C35.4299 54.3228 35.7072 54.0767 36.025 53.8933C35.3119 53.9763 34.6129 54.154 33.9467 54.4217L33.9484 54.4283ZM12.335 31.9283C12.3284 31.6182 12.2751 31.3108 12.1767 31.0167C12.0819 30.7303 12.0303 30.4315 12.0234 30.13C12.0239 29.9854 12.0361 29.841 12.06 29.6983C12.1799 29.069 12.4886 28.4912 12.945 28.0417L12.9583 28.03V28.015C12.972 27.9885 12.9882 27.9634 13.0067 27.94C13.0868 28.2601 13.1177 28.5906 13.0984 28.92C13.0994 29.2924 13.081 29.6645 13.0434 30.035C12.9023 30.7696 12.6553 31.4798 12.31 32.1433C12.31 32.0717 12.3267 31.995 12.3267 31.9267L12.335 31.9283ZM23.2634 53.7217C23.9974 53.8627 24.7071 54.1098 25.37 54.455C24.989 54.4283 24.6063 54.4758 24.2434 54.595C23.8205 54.743 23.3675 54.7837 22.925 54.7133C22.2954 54.5943 21.7174 54.2855 21.2684 53.8283L21.2567 53.8167H21.2417C21.2154 53.8026 21.1904 53.7864 21.1667 53.7683C21.8593 53.6522 22.5654 53.6398 23.2617 53.7317L23.2634 53.7217ZM27.3483 18.7217C27.3329 18.6835 27.3195 18.6446 27.3084 18.605C27.1597 18.6944 27.0022 18.7682 26.8383 18.825C26.9683 18.825 27.125 18.835 27.3034 18.825C27.32 18.7783 27.3367 18.74 27.3483 18.7133V18.7217ZM31.7567 54.7617C31.3367 54.9117 30.9467 56.3783 30.9917 57.0717C31.0117 57.3817 31.1667 57.9617 31.6184 57.9333C31.6809 57.9238 31.741 57.902 31.795 57.8691C31.8491 57.8362 31.8961 57.7929 31.9333 57.7417C32.14 57.4669 32.2325 57.123 32.1917 56.7817C32.1716 56.652 32.1334 56.5258 32.0784 56.4067L32.04 56.29C31.9046 56.4939 31.7451 56.6808 31.565 56.8467L31.4117 56.67C31.8745 56.2473 32.1805 55.6804 32.28 55.0617C32.2691 54.8863 32.2372 54.7128 32.185 54.545C32.1596 54.4693 32.1296 54.3953 32.095 54.3233C32.0104 54.4697 31.911 54.6071 31.7984 54.7333L31.75 54.765L31.7567 54.7617ZM13.355 28.9567C13.3524 28.7725 13.3368 28.5887 13.3084 28.4067C13.2812 28.2284 13.2656 28.0486 13.2617 27.8683C13.2614 27.5997 13.3118 27.3334 13.41 27.0833C13.6529 26.4908 14.0702 25.9863 14.6067 25.6367H14.6217L14.6333 25.6233C14.6513 25.6009 14.6714 25.5803 14.6934 25.5617C14.7035 25.5935 14.7086 25.6266 14.7084 25.66C14.6469 26.3261 14.5145 26.9837 14.3134 27.6217C14.0534 28.2941 13.7054 28.9291 13.2784 29.51C13.327 29.3323 13.3534 29.1492 13.3567 28.965L13.355 28.9567ZM36.5834 53.7067C37.2162 53.3082 37.9033 53.0034 38.6234 52.8017C38.3261 53.042 38.0787 53.3381 37.895 53.6733C37.6867 54.0703 37.3825 54.4089 37.01 54.6583C36.4698 54.9994 35.8383 55.1674 35.2 55.14H35.1667C35.1375 55.1489 35.1072 55.154 35.0767 55.155C35.505 54.5983 36.0133 54.108 36.585 53.7L36.5834 53.7067ZM35.8084 18.59H35.7934L35.78 18.58C35.2686 18.1947 34.6516 17.9749 34.0117 17.95C33.562 17.9464 33.1181 18.0522 32.7184 18.2583C32.5659 18.3283 32.4095 18.3896 32.25 18.4417C32.3252 18.5473 32.3816 18.6652 32.4167 18.79C32.8747 18.9087 33.3453 18.9725 33.8184 18.98C34.5212 18.9697 35.2185 18.8534 35.8867 18.635C35.8601 18.6202 35.8322 18.6079 35.8033 18.5983L35.8084 18.59ZM29.975 54.7567C29.5567 54.9067 29.165 56.3733 29.21 57.0667C29.23 57.3767 29.3867 57.9567 29.8367 57.9283C29.8993 57.9188 29.9593 57.897 30.0134 57.8641C30.0675 57.8312 30.1145 57.7879 30.1517 57.7367C30.3583 57.4619 30.4509 57.118 30.41 56.7767C30.3904 56.6471 30.3528 56.5209 30.2984 56.4017L30.2583 56.285C30.1238 56.4891 29.9649 56.6761 29.785 56.8417L29.6317 56.665C30.0945 56.2424 30.4006 55.6755 30.5 55.0567C30.4898 54.8812 30.4579 54.7076 30.405 54.54C30.3802 54.4641 30.3501 54.3901 30.315 54.3183C30.2307 54.465 30.1313 54.6024 30.0184 54.7283L29.97 54.76L29.975 54.7567ZM31.75 19.71L31.7984 19.7417C31.8467 19.7967 31.8934 19.8533 31.9367 19.9083L32.18 19.9383L32.1917 19.9083C32.2409 19.7457 32.2711 19.5779 32.2817 19.4083C32.1822 18.7895 31.8761 18.2227 31.4133 17.8L31.5667 17.6233C31.7465 17.7894 31.9059 17.9763 32.0417 18.18L32.08 18.0617C32.1356 17.9434 32.1738 17.8176 32.1934 17.6883C32.2342 17.347 32.1417 17.0031 31.935 16.7283C31.8979 16.6769 31.8509 16.6333 31.7969 16.6001C31.7428 16.5669 31.6827 16.5448 31.62 16.535C31.17 16.5067 31.0134 17.085 30.9934 17.3967C30.95 18.0883 31.34 19.5633 31.76 19.705L31.75 19.71ZM28.85 17.7183C28.8277 17.8693 28.7839 18.0164 28.72 18.155V18.165C28.8183 18.125 28.9133 18.0817 29.0017 18.035C28.9867 17.8817 28.98 17.7317 28.98 17.6V17.585H28.9717L28.8583 17.6167V17.7217L28.85 17.7183ZM14.905 25.6783C14.9029 25.2257 15.0177 24.7802 15.2383 24.385C15.5659 23.8345 16.0537 23.3972 16.6367 23.1317H16.6467L16.66 23.12C16.6833 23.099 16.7085 23.08 16.735 23.0633V23.0833C16.5932 23.7658 16.3617 24.4265 16.0467 25.0483C15.6723 25.6902 15.2113 26.2773 14.6767 26.7933C14.8239 26.4439 14.9014 26.0691 14.905 25.69V25.6783ZM39.2383 52.3883C39.8108 51.8971 40.452 51.4922 41.1417 51.1867C40.882 51.4697 40.6784 51.7994 40.5417 52.1583C40.3893 52.5828 40.1359 52.9637 39.8034 53.2683C39.3183 53.6868 38.717 53.9472 38.08 54.015H38.0634H38.0484C38.0199 54.0281 37.9903 54.0387 37.96 54.0467C38.3 53.4296 38.7316 52.8677 39.24 52.38L39.2383 52.3883ZM29.0484 55.4683C29.0227 55.3653 29.0098 55.2595 29.01 55.1533V55.055C29.0058 55.038 29.0058 55.0203 29.01 55.0033L28.9067 55.025V55.055C28.9095 55.2369 28.8922 55.4186 28.855 55.5967C28.9123 55.5489 28.973 55.5054 29.0367 55.4667L29.0484 55.4683ZM13.0934 38.77C12.9563 38.6744 12.8079 38.596 12.6517 38.5367L12.6083 38.5517L12.5684 38.5683L12.5283 38.5483C12.4234 38.4906 12.3114 38.4469 12.195 38.4183C12.1342 38.4111 12.0729 38.4078 12.0117 38.4083C11.9095 38.4137 11.8079 38.4282 11.7083 38.4517C12.0396 38.5397 12.3286 38.743 12.5234 39.025C12.7214 39.198 12.9466 39.3371 13.19 39.4367C13.155 39.215 13.125 38.9917 13.1 38.77H13.0934ZM29.96 19.7117L30.0083 19.7433C30.025 19.7617 30.04 19.7833 30.0567 19.8017H30.4284C30.4631 19.6749 30.4837 19.5446 30.49 19.4133C30.3905 18.7945 30.0845 18.2277 29.6217 17.805L29.775 17.6283C29.9548 17.7944 30.1142 17.9813 30.25 18.185L30.29 18.0667C30.3445 17.948 30.3821 17.8224 30.4017 17.6933C30.4425 17.352 30.35 17.0081 30.1433 16.7333C30.1061 16.6819 30.0592 16.6384 30.0051 16.6052C29.9511 16.5721 29.891 16.5499 29.8283 16.54C29.3767 16.5117 29.22 17.09 29.2017 17.4017C29.1583 18.0933 29.5467 19.5683 29.9667 19.71L29.96 19.7117ZM32.275 18.1383C32.4217 18.0917 32.5605 18.0232 32.6867 17.935C32.6594 17.9234 32.6309 17.915 32.6017 17.91H32.585L32.57 17.9017C32.57 17.9017 32.4983 17.8617 32.3833 17.8067C32.3588 17.921 32.3231 18.0327 32.2767 18.14L32.275 18.1383ZM41.785 50.54C42.2711 49.9576 42.8366 49.4465 43.465 49.0217C43.2595 49.3455 43.1149 49.7042 43.0383 50.08C42.9567 50.5366 42.7625 50.9657 42.4734 51.3283C42.0566 51.8171 41.4999 52.1662 40.8784 52.3283H40.8617L40.8467 52.3367C40.8209 52.3536 40.7936 52.3682 40.765 52.38C41.0181 51.7244 41.3614 51.1074 41.785 50.5467V50.54ZM16.875 23.4717C16.9572 23.0152 17.1513 22.5863 17.44 22.2233C17.8574 21.7353 18.4139 21.3864 19.035 21.2233H19.0517L19.0667 21.215C19.0925 21.198 19.1198 21.1835 19.1484 21.1717C18.8945 21.8269 18.5513 22.4438 18.1284 23.005C17.6424 23.5879 17.0768 24.0996 16.4484 24.525C16.6542 24.2013 16.7988 23.8426 16.875 23.4667V23.4717ZM28.1717 19.7117L28.22 19.7433C28.2584 19.7867 28.2934 19.8333 28.3284 19.8783C28.4284 19.87 28.5267 19.8583 28.6267 19.8517C28.6684 19.7083 28.6935 19.5607 28.7017 19.4117C28.6022 18.7929 28.2961 18.226 27.8334 17.8033L27.9867 17.6267C28.1665 17.7928 28.3259 17.9796 28.4617 18.1833L28.5 18.065C28.5551 17.9466 28.5926 17.8208 28.6117 17.6917C28.6525 17.3503 28.56 17.0064 28.3533 16.7317C28.2781 16.628 28.1648 16.5585 28.0383 16.5383C27.5867 16.51 27.43 17.0883 27.41 17.4C27.3667 18.0917 27.7567 19.5667 28.175 19.7083L28.1717 19.7117ZM29.0667 56.0017L29.0117 55.9783C28.9201 55.9782 28.8322 55.9423 28.7667 55.8783C28.7396 55.9318 28.7084 55.9831 28.6734 56.0317C28.8026 56.0407 28.9324 56.0407 29.0617 56.0317V56.0083L29.0667 56.0017ZM13.055 38.4417H13.0167L13.055 38.465V38.4417ZM28.7834 18.555C28.8867 18.5683 28.995 18.58 29.1167 18.59C29.0805 18.4705 29.0532 18.3485 29.035 18.225C28.9175 18.2819 28.7967 18.332 28.6734 18.375C28.7181 18.4307 28.7577 18.4904 28.7917 18.5533L28.7834 18.555ZM43.1883 50.4633C43.3302 49.7809 43.5617 49.1202 43.8767 48.4983C44.2493 47.8582 44.7093 47.2731 45.2433 46.76C45.0974 47.1074 45.0204 47.4799 45.0167 47.8567C45.0181 48.3092 44.9033 48.7545 44.6833 49.15C44.3553 49.7001 43.8676 50.1373 43.285 50.4033H43.27L43.2567 50.415C43.2337 50.4364 43.2085 50.4554 43.1817 50.4717V50.4633H43.1883ZM27.8834 53.63L27.985 53.77C27.7955 53.9437 27.6532 54.1628 27.5717 54.4067C27.5744 54.4218 27.5794 54.4364 27.5867 54.45L27.6034 54.49L27.5834 54.5283C27.5258 54.6334 27.4821 54.7454 27.4534 54.8617C27.4455 54.9224 27.4422 54.9837 27.4433 55.045C27.4487 55.1472 27.4632 55.2487 27.4867 55.3483C27.5742 55.0168 27.7776 54.7277 28.06 54.5333C28.2734 54.2861 28.4364 53.9997 28.54 53.69C28.3183 53.6717 28.0983 53.65 27.8733 53.6233L27.8834 53.63ZM19.3833 21.3733C19.5357 20.9489 19.7891 20.5679 20.1217 20.2633C20.6068 19.8449 21.208 19.5844 21.845 19.5167H21.8617H21.8767C21.9052 19.5036 21.9347 19.493 21.965 19.485C21.6252 20.1017 21.1942 20.6636 20.6867 21.1517C20.1139 21.6424 19.4727 22.0472 18.7834 22.3533C19.0436 22.0704 19.2477 21.7407 19.385 21.3817L19.3833 21.3733ZM27.585 19.9067L27.605 19.9467C27.7567 19.9267 27.9083 19.9067 28.06 19.89C27.7818 19.6946 27.5808 19.408 27.4917 19.08C27.4682 19.1796 27.4537 19.2811 27.4483 19.3833C27.4485 19.444 27.4518 19.5047 27.4583 19.565C27.4871 19.6813 27.5308 19.7933 27.5884 19.8983L27.585 19.9067ZM27.48 54.055C27.5606 53.8993 27.6671 53.7584 27.795 53.6383L27.44 53.59C27.44 53.7433 27.4583 53.905 27.48 54.0567V54.055ZM30.795 55.1533V55.055C30.7982 55.0114 30.8037 54.968 30.8117 54.925L30.695 54.9633C30.695 54.99 30.695 55.0172 30.695 55.045C30.7235 55.3882 30.6374 55.7311 30.45 56.02C30.5845 56.0137 30.7182 55.997 30.85 55.97C30.8688 55.8918 30.8928 55.815 30.9217 55.74C30.8361 55.5527 30.7918 55.3492 30.7917 55.1433L30.795 55.1533ZM13.0484 35.1733C12.9223 35.0892 12.7869 35.0199 12.645 34.9667L12.6017 34.9817L12.5617 34.9983L12.5217 34.9783C12.4165 34.9211 12.3045 34.8775 12.1884 34.8483C12.1275 34.8412 12.0663 34.8378 12.005 34.8383C11.9028 34.8437 11.8013 34.8582 11.7017 34.8817C12.0326 34.9704 12.3214 35.1735 12.5167 35.455C12.6657 35.5866 12.8309 35.6986 13.0083 35.7883C13.02 35.5833 13.035 35.3767 13.055 35.1733H13.0484ZM49.2667 37.0217L49.4434 37.175C49.2773 37.3548 49.0904 37.5142 48.8867 37.65L49.005 37.6883C49.1237 37.7428 49.2493 37.7804 49.3784 37.8C49.7197 37.8409 50.0636 37.7483 50.3383 37.5417C50.3895 37.5044 50.4329 37.4575 50.4658 37.4034C50.4987 37.3493 50.5205 37.2892 50.53 37.2267C50.5583 36.775 49.98 36.6183 49.6683 36.6C48.9767 36.5567 47.5017 36.9467 47.36 37.365L47.3283 37.4133C47.2018 37.5255 47.0645 37.6249 46.9183 37.71C46.9912 37.7451 47.0664 37.7751 47.1434 37.8C47.311 37.8528 47.4845 37.8847 47.66 37.895C48.2782 37.7951 48.8444 37.4891 49.2667 37.0267V37.0217ZM29.48 53.765H29.2583C29.2583 53.865 29.2733 53.9633 29.2883 54.0617C29.3426 53.9604 29.4062 53.8644 29.4784 53.775L29.48 53.765ZM45.2267 47.9017C45.2881 47.2356 45.4205 46.5779 45.6217 45.94C45.8788 45.2692 46.2234 44.6354 46.6467 44.055C46.5986 44.2328 46.5723 44.4158 46.5684 44.6C46.5722 44.7842 46.5883 44.9679 46.6167 45.15C46.6439 45.3282 46.6595 45.5081 46.6634 45.6883C46.6636 45.957 46.6132 46.2233 46.515 46.4733C46.2733 47.0665 45.8557 47.5713 45.3184 47.92L45.3034 47.9283L45.2933 47.9417C45.2757 47.9644 45.2556 47.9851 45.2334 48.0033C45.2233 47.9715 45.2182 47.9384 45.2184 47.905L45.2267 47.9017ZM29.075 55.7883H29.09L29.135 55.8083L29.1567 55.7467C29.1423 55.7168 29.1295 55.6862 29.1184 55.655C29.0642 55.6855 29.0143 55.7231 28.97 55.7667C28.9988 55.7749 29.0284 55.78 29.0583 55.7817L29.075 55.7883ZM27.1917 17.905C26.7058 17.8495 26.2138 17.9136 25.7584 18.0917C25.3422 18.2672 24.9837 18.5559 24.7234 18.925C24.5031 19.218 24.2259 19.4635 23.9083 19.6467C24.6221 19.5637 25.3216 19.386 25.9884 19.1183C26.426 18.9019 26.8501 18.6593 27.2584 18.3917C27.2258 18.2328 27.2041 18.0718 27.1934 17.91L27.1917 17.905ZM13.0984 34.8667H13.0333L13.0934 34.9033V34.86L13.0984 34.8667ZM32.5017 55.0333C32.6864 54.9068 32.887 54.8054 33.0984 54.7317C32.9317 54.7233 32.7034 54.72 32.4517 54.7317C32.4781 54.8314 32.4943 54.9336 32.5 55.0367L32.5017 55.0333ZM46.835 44.6467C46.8346 44.2704 46.8535 43.8943 46.8917 43.52C47.0328 42.7859 47.2798 42.0763 47.625 41.4133C47.625 41.485 47.6083 41.5617 47.6083 41.6283C47.6162 41.9383 47.6695 42.2455 47.7667 42.54C47.8614 42.8263 47.9131 43.1251 47.92 43.4267C47.9194 43.5713 47.9072 43.7157 47.8834 43.8583C47.7643 44.4879 47.4555 45.066 46.9983 45.515L46.9867 45.5267V45.5417C46.9726 45.5679 46.9564 45.593 46.9383 45.6167C46.8563 45.3008 46.8248 44.974 46.845 44.6483L46.835 44.6467ZM49.2917 38.8133L49.4683 38.9667C49.3025 39.1468 49.1156 39.3062 48.9117 39.4417L49.03 39.48C49.1484 39.535 49.2742 39.5726 49.4033 39.5917C49.7447 39.6325 50.0886 39.54 50.3634 39.3333C50.4146 39.2961 50.4579 39.2491 50.4908 39.195C50.5237 39.141 50.5455 39.0809 50.555 39.0183C50.5834 38.5683 50.005 38.4117 49.6934 38.3917C49.0017 38.3483 47.5267 38.7383 47.385 39.1567L47.3534 39.205C47.2271 39.317 47.0897 39.4159 46.9434 39.5C47.0158 39.5364 47.091 39.5671 47.1683 39.5917C47.3361 39.6439 47.5096 39.6758 47.685 39.6867C48.3033 39.5872 48.8697 39.2811 49.2917 38.8183V38.8133ZM31.5184 53.715L31.5784 53.7967C31.3888 53.9704 31.2465 54.1895 31.165 54.4333C31.1677 54.4485 31.1728 54.4631 31.18 54.4767L31.1967 54.5167L31.1767 54.555C31.1191 54.66 31.0755 54.7721 31.0467 54.8883C31.0402 54.9492 31.0368 55.0104 31.0367 55.0717C31.042 55.1739 31.0565 55.2754 31.08 55.375C31.1647 55.0427 31.3658 54.7517 31.6467 54.555C31.8762 54.2869 32.0465 53.9734 32.1467 53.635C31.935 53.6617 31.7217 53.6833 31.5 53.7017L31.5184 53.715ZM12.3384 37.3667C12.1884 36.9483 10.7217 36.5567 10.0283 36.6017C9.71833 36.6217 9.13834 36.7767 9.16667 37.2283C9.17648 37.291 9.19864 37.3511 9.23183 37.4052C9.26501 37.4593 9.30856 37.5062 9.36 37.5433C9.6343 37.7496 9.97757 37.8421 10.3184 37.8017C10.4479 37.7821 10.5742 37.7445 10.6934 37.69L10.8117 37.6517C10.608 37.5159 10.4211 37.3565 10.255 37.1767L10.4317 37.0233C10.8543 37.4861 11.4212 37.7921 12.04 37.8917C12.2132 37.8814 12.3844 37.8501 12.55 37.7983C12.6281 37.7724 12.7044 37.7412 12.7783 37.705C12.6319 37.6203 12.4946 37.5209 12.3684 37.4083L12.3367 37.36L12.3384 37.3667ZM49.29 35.2417L49.4667 35.395C49.3008 35.5751 49.114 35.7346 48.91 35.87L49.0283 35.9083C49.1465 35.964 49.2724 36.0016 49.4017 36.02C49.743 36.0609 50.087 35.9683 50.3617 35.7617C50.4129 35.7244 50.4562 35.6774 50.4891 35.6234C50.522 35.5693 50.5438 35.5092 50.5533 35.4467C50.5817 34.9967 50.0033 34.84 49.6917 34.82C49 34.7767 47.525 35.165 47.3833 35.585L47.3517 35.6333C47.2254 35.7454 47.0881 35.8442 46.9417 35.9283C47.0148 35.9634 47.0899 35.994 47.1667 36.02C47.3345 36.0722 47.508 36.1041 47.6834 36.115C48.3016 36.0153 48.8679 35.7092 49.29 35.2467V35.2417ZM47.6017 32.7667C47.3345 32.0998 47.1574 31.4003 47.075 30.6867C47.2588 31.0043 47.5048 31.2815 47.7984 31.5017C48.1678 31.7616 48.4566 32.1203 48.6317 32.5367C48.7711 32.8841 48.8407 33.2556 48.8367 33.63C48.838 33.8913 48.8061 34.1517 48.7417 34.405V34.49C48.743 34.5039 48.743 34.5178 48.7417 34.5317C48.2847 33.9982 47.9054 33.4029 47.615 32.7633L47.6017 32.7667ZM13.0017 36.9183C12.8955 36.8534 12.784 36.7977 12.6684 36.7517L12.625 36.7667L12.585 36.7817L12.545 36.7617C12.4398 36.7045 12.3278 36.6608 12.2117 36.6317C12.1508 36.6245 12.0896 36.6211 12.0284 36.6217C11.9262 36.627 11.8246 36.6416 11.725 36.665C12.0563 36.753 12.3453 36.9563 12.54 37.2383C12.6854 37.3684 12.846 37.4804 13.0183 37.5717C13.01 37.3533 13.0033 37.135 13.0017 36.915V36.9183ZM12.335 35.585C12.185 35.165 10.7184 34.775 10.025 34.82C9.71503 34.84 9.13503 34.9967 9.16336 35.4467C9.17318 35.5093 9.19528 35.5694 9.22847 35.6235C9.26165 35.6776 9.30525 35.7245 9.35669 35.7617C9.63099 35.9679 9.97421 36.0604 10.315 36.02C10.4449 36.0016 10.5713 35.964 10.69 35.9083L10.8084 35.87C10.6047 35.7342 10.4178 35.5748 10.2517 35.395L10.4284 35.2417C10.851 35.7045 11.4179 36.0106 12.0367 36.11C12.2099 36.0997 12.3811 36.0684 12.5467 36.0167C12.6249 35.9909 12.7012 35.9597 12.775 35.9233C12.6286 35.8387 12.4912 35.7393 12.365 35.6267L12.3333 35.58L12.335 35.585ZM28.1934 54.7733C27.7734 54.9233 27.3833 56.39 27.4283 57.0833C27.4483 57.3933 27.6034 57.9733 28.055 57.945C28.1176 57.9355 28.1776 57.9136 28.2317 57.8807C28.2858 57.8478 28.3328 57.8045 28.37 57.7533C28.5767 57.4786 28.6692 57.1347 28.6283 56.7933C28.6088 56.6637 28.5712 56.5375 28.5167 56.4183L28.4783 56.3017C28.3432 56.5053 28.1843 56.6922 28.005 56.8583L27.8517 56.6817C28.3144 56.259 28.6205 55.6921 28.72 55.0733C28.7091 54.8979 28.6773 54.7245 28.625 54.5567C28.5996 54.481 28.5695 54.407 28.535 54.335C28.4503 54.4814 28.3509 54.6188 28.2383 54.745L28.19 54.7767L28.1934 54.7733ZM31.0734 54.0683C31.1361 53.9486 31.2127 53.8367 31.3017 53.735L31.0434 53.7517C31.0434 53.8583 31.0584 53.9633 31.075 54.0667L31.0734 54.0683ZM47.8134 39.9017C47.7718 40.135 47.749 40.3713 47.745 40.6083V40.69C47.7553 41.3929 47.8716 42.0902 48.09 42.7583C48.1048 42.7318 48.1171 42.7039 48.1267 42.675V42.66L48.1367 42.6467C48.5221 42.1346 48.7419 41.5171 48.7667 40.8767V40.8417C48.769 40.4596 48.6871 40.0818 48.5267 39.735C48.3025 39.8481 48.0544 39.9052 47.8034 39.9017H47.8134ZM46.865 30.1417C46.4668 29.5088 46.162 28.8217 45.96 28.1017C46.2004 28.3989 46.4965 28.6463 46.8317 28.83C47.2286 29.0383 47.5672 29.3425 47.8167 29.715C48.1357 30.2172 48.3045 30.8001 48.3033 31.395C48.306 31.4383 48.306 31.4817 48.3033 31.525V31.5567C48.3115 31.586 48.3166 31.6162 48.3183 31.6467C47.7604 31.2198 47.2699 30.7113 46.8634 30.1383L46.865 30.1417ZM11.7167 34.6583C11.7867 34.6471 11.8575 34.6409 11.9284 34.64C12.0852 34.0971 12.1786 33.5378 12.2067 32.9733V32.8933C12.1964 32.1904 12.0801 31.4932 11.8617 30.825C11.8471 30.8517 11.8348 30.8796 11.825 30.9083V30.9233L11.8134 30.9367C11.4286 31.4484 11.2088 32.0652 11.1833 32.705V32.7217C11.1845 33.1607 11.2902 33.5932 11.4917 33.9833C11.5893 34.1912 11.6674 34.4077 11.725 34.63L11.7167 34.6583ZM47.6917 38.43C47.6305 38.4301 47.5692 38.4335 47.5083 38.44C47.3922 38.4691 47.2802 38.5128 47.175 38.57L47.135 38.59L47.0934 38.5733L47.05 38.5583C46.99 38.5817 46.9317 38.6067 46.875 38.635C46.8506 38.8672 46.8206 39.0989 46.785 39.33C46.9271 39.25 47.0605 39.1556 47.1833 39.0483C47.3787 38.7662 47.6683 38.5629 48 38.475C47.9007 38.4503 47.799 38.4358 47.6967 38.4317L47.6917 38.43ZM27.2517 55.31C27.2491 55.2634 27.2491 55.2166 27.2517 55.17V55.055C27.2612 54.9417 27.2836 54.8299 27.3184 54.7217C26.9262 54.6288 26.5247 54.5807 26.1217 54.5783C25.4188 54.5886 24.7215 54.7049 24.0533 54.9233C24.0796 54.9387 24.1076 54.951 24.1367 54.96H24.1517L24.165 54.97C24.6765 55.3553 25.2935 55.5751 25.9333 55.6C26.3831 55.6036 26.8269 55.4978 27.2267 55.2917L27.2534 55.28L27.2517 55.31ZM48.3734 38.345C48.6359 38.2495 48.9111 38.1933 49.19 38.1783C49.19 38.115 49.2 38.0483 49.2 37.9833C49.1487 37.9699 49.098 37.9538 49.0484 37.935C49.0258 37.9554 48.997 37.9678 48.9667 37.97C48.9 37.97 48.8234 37.9217 48.745 37.8267L48.7184 37.8183C48.5816 37.9336 48.4194 38.0147 48.245 38.055C48.2667 38.1417 48.29 38.2217 48.315 38.3133L48.3734 38.34V38.345ZM45.5517 27.4733C45.0599 26.9013 44.655 26.26 44.35 25.57C44.633 25.8302 44.9626 26.0343 45.3217 26.1717C45.7461 26.324 46.1271 26.5774 46.4317 26.91C46.8491 27.3957 47.1095 27.9966 47.1784 28.6333V28.65V28.665C47.1914 28.6935 47.202 28.723 47.21 28.7533C46.5931 28.4139 46.0312 27.9828 45.5434 27.475L45.5517 27.4733ZM11.515 36.2817C11.5433 36.3417 11.5717 36.4033 11.5984 36.465C11.6868 36.4426 11.7772 36.4292 11.8683 36.425C11.8702 36.3914 11.8674 36.3578 11.86 36.325C11.7445 36.3202 11.6297 36.3057 11.5167 36.2817H11.515ZM47.6917 36.6417C47.6304 36.6411 47.5692 36.6445 47.5083 36.6517C47.392 36.6802 47.2799 36.7239 47.175 36.7817L47.135 36.8017L47.0934 36.7867L47.05 36.7717L46.9717 36.8033C46.9717 37.0133 46.9717 37.2217 46.9584 37.4283C47.036 37.3772 47.1106 37.3215 47.1817 37.2617C47.3771 36.9795 47.6666 36.7763 47.9984 36.6883C47.8987 36.6649 47.7972 36.6504 47.695 36.645L47.6917 36.6417ZM27.3133 55.635C27.3056 55.6139 27.2978 55.5906 27.29 55.565C27.2665 55.5779 27.2447 55.5936 27.225 55.6117C27.2533 55.6219 27.2822 55.6303 27.3117 55.6367L27.3133 55.635ZM48.07 36.4383L48.0617 36.4133V36.435H48.07V36.4383ZM47.6717 34.8333C47.6104 34.8328 47.5492 34.8361 47.4884 34.8433C47.372 34.8719 47.26 34.9156 47.155 34.9733L47.115 34.9933L47.0734 34.9767L47.03 34.9617C46.9717 34.9833 46.9167 35.0083 46.8634 35.0333C46.8834 35.235 46.9 35.44 46.9134 35.6433C47.0014 35.5864 47.0849 35.5229 47.1633 35.4533C47.3589 35.172 47.6476 34.969 47.9784 34.88C47.8787 34.8566 47.7772 34.8421 47.675 34.8367L47.6717 34.8333ZM43.6833 24.9067C43.1013 24.4203 42.5903 23.8548 42.165 23.2267C42.4887 23.4326 42.8474 23.5772 43.2234 23.6533C43.68 23.735 44.109 23.9292 44.4717 24.2183C44.9595 24.6359 45.3084 25.1923 45.4717 25.8133V25.83V25.845C45.4887 25.8708 45.5032 25.8981 45.515 25.9267C44.8598 25.6728 44.2428 25.3296 43.6817 24.9067H43.6833ZM11.3233 34.7517C11.3517 34.7383 11.3967 34.7183 11.4534 34.6967C11.3885 34.4508 11.2862 34.2164 11.15 34.0017C11.1392 34.0292 11.1308 34.0576 11.125 34.0867V34.1033L11.1167 34.1183C11.026 34.2828 10.9518 34.4559 10.895 34.635C11.042 34.6583 11.1861 34.6969 11.325 34.75L11.3233 34.7517ZM13.0984 44.7367C12.7014 44.5284 12.3628 44.2242 12.1133 43.8517C11.7949 43.3492 11.6262 42.7665 11.6267 42.1717V42.005C11.6178 41.9758 11.6127 41.9455 11.6117 41.915C12.1686 42.3436 12.6594 42.8518 13.0683 43.4233C13.4666 44.0563 13.7714 44.7433 13.9733 45.4633C13.7328 45.1673 13.4374 44.9206 13.1033 44.7367H13.0984Z" fill="white"/>
<path fill-rule="evenodd" clip-rule="evenodd" d="M21.6573 31.15V31.1584L21.8556 31.585C22.5979 32.9704 23.2116 34.4209 23.689 35.9183L24.754 35.3333C26.1166 34.4753 27.6127 33.8501 29.1807 33.4833C29.4472 33.4186 29.7178 33.3719 29.9906 33.3433C29.8523 32.1767 29.6757 31.01 29.504 29.9067L29.1973 27.8517C26.5165 28.5358 23.9645 29.6503 21.6406 31.1517L21.6573 31.15Z" fill="#E32213"/>
<path fill-rule="evenodd" clip-rule="evenodd" d="M41.8095 45.285L42.5378 46.38V46.39L41.3062 45.9566L41.8162 45.29L41.8095 45.285ZM41.6795 43.5816L41.1628 44.2666L41.5078 44.795L40.7544 45.7833L40.1511 45.595L39.5611 46.37L42.6645 47.1866L43.3011 46.3533L41.6895 43.5833L41.6795 43.5816ZM24.0045 39.8766L23.1595 39.57C23.2611 39.8866 23.6495 41.0983 23.6761 41.1816L24.5411 41.515L24.0061 39.885L24.0045 39.8766ZM16.6828 40.7483L16.4978 40.0133L17.0895 39.8633L17.2745 40.5983L16.6828 40.7466V40.7483ZM29.9412 22.5216L30.4045 21.2916H30.4178L30.7845 22.545L29.9412 22.5233V22.5216ZM28.6378 23.6283L29.4995 23.65L29.7262 23.0616L30.9694 23.0933L31.1678 23.6933L32.1395 23.72L30.9895 20.73L29.9412 20.7033L28.6378 23.6283ZM16.5345 27.9283L17.0511 27.205L19.4645 28.9183L18.9478 29.6416L16.5345 27.9283ZM44.2995 43.4183L44.7161 42.5683L45.2444 42.8266L44.0195 45.3266L43.4928 45.0683L43.9195 44.1983L41.7878 43.155L42.1761 42.38L44.3061 43.4233L44.2995 43.4183ZM33.1628 36.7733L33.3295 36.6683C34.9374 35.4935 36.7855 34.6893 38.7411 34.3133C38.6839 34.1288 38.6557 33.9365 38.6578 33.7433C38.6577 33.5971 38.6426 33.4514 38.6128 33.3083C36.6529 33.7686 34.7925 34.5794 33.1211 35.7016C33.1211 36.06 33.1412 36.4183 33.1595 36.7733H33.1628ZM32.8911 35.8316C30.0578 34.8316 27.3078 36.4566 24.6461 38.03C24.6823 38.1698 24.7057 38.3126 24.7161 38.4566C24.7263 38.6176 24.7542 38.7769 24.7994 38.9316C27.3544 37.3566 29.9045 36.0283 32.9361 36.8716C32.9161 36.5266 32.9011 36.1833 32.8928 35.8366L32.8911 35.8316ZM19.6278 28.285L19.6145 27.97L19.8928 28.3033L20.2261 27.97L18.6111 26.3316L20.9844 27.225L21.8178 26.4133L19.7494 24.2983L19.2111 24.8266L20.7628 26.3966L18.4711 25.555L17.6212 26.3883L19.6411 28.4566V28.29L19.6278 28.285ZM33.2544 39.7366C30.8061 39.2766 28.9878 40.37 26.8845 41.6416L25.6911 42.3516L25.7278 42.4633L25.9861 43.21L26.9962 42.5716C29.0112 41.2783 30.7628 40.1583 33.3978 40.5283C33.3461 40.27 33.2995 40 33.2561 39.7366H33.2544ZM33.0128 37.9033C30.1678 37.3266 28.1061 38.5366 25.4978 40.07L25.2211 40.2366L25.2761 40.4033C25.2761 40.4033 25.4811 41.0033 25.5128 41.0916L26.4794 40.51C28.4661 39.2966 30.3478 38.155 33.1095 38.745C33.0728 38.4694 33.0406 38.1911 33.0128 37.91V37.9033ZM15.4928 34.4783C14.9928 34.37 14.5728 34.1166 14.6945 33.5616C14.7084 33.4656 14.7447 33.3742 14.8002 33.2946C14.8558 33.215 14.9291 33.1495 15.0144 33.1033C15.262 33.0066 15.5349 32.9955 15.7895 33.0716C16.1895 33.16 16.6945 33.3766 16.5645 33.9766C16.4345 34.535 15.9528 34.5783 15.4928 34.4766V34.4783ZM15.3061 35.345C15.4898 35.3976 15.682 35.4135 15.8717 35.3917C16.0615 35.3699 16.2451 35.3108 16.412 35.2179C16.579 35.125 16.7259 35.0001 16.8444 34.8503C16.963 34.7005 17.0508 34.5288 17.1028 34.345C17.126 34.2677 17.1422 34.1885 17.1511 34.1083C17.2117 33.9254 17.2356 33.7324 17.2215 33.5403C17.2075 33.3482 17.1557 33.1608 17.0692 32.9887C16.9827 32.8166 16.8631 32.6632 16.7173 32.5373C16.5715 32.4114 16.4024 32.3155 16.2195 32.255C16.1434 32.2297 16.0653 32.2107 15.9861 32.1983C15.6234 32.0806 15.2289 32.1118 14.8892 32.2849C14.5495 32.4581 14.2924 32.759 14.1744 33.1216C14.1454 33.2122 14.1253 33.3055 14.1145 33.4C14.0044 33.8273 14.0541 34.2801 14.2545 34.6733C14.5051 35.0206 14.8789 35.2591 15.2995 35.34L15.3061 35.345ZM43.9611 39.9383C43.8445 39.9133 43.5128 39.8383 43.3878 40.335C43.3695 40.4066 43.2745 40.7816 43.6011 40.8633C43.7311 40.8983 43.8428 40.8633 43.9444 40.675L44.3128 39.9816C44.3812 39.7875 44.5177 39.6249 44.6971 39.524C44.8765 39.4231 45.0864 39.3909 45.2878 39.4333C45.7528 39.5516 46.0928 40.0266 45.8661 40.9333C45.5695 42.11 44.9478 42.0066 44.6411 41.9333L44.8545 41.0866C44.8987 41.1046 44.946 41.1137 44.9937 41.1133C45.0414 41.113 45.0886 41.1033 45.1325 41.0847C45.1765 41.0661 45.2164 41.0391 45.2499 41.0051C45.2834 40.9711 45.3099 40.9309 45.3278 40.8866C45.3408 40.8564 45.3492 40.8244 45.3528 40.7916C45.4128 40.55 45.3211 40.3616 45.1511 40.3183C44.9411 40.265 44.8428 40.4366 44.7795 40.5483L44.4995 41.0766C44.2978 41.4533 44.0595 41.8983 43.4511 41.7433C42.8045 41.5766 42.6761 40.9333 42.8594 40.1783C42.931 39.7785 43.1521 39.421 43.4778 39.1783C43.6918 39.0664 43.9408 39.0413 44.1728 39.1083L43.9611 39.9416V39.9383ZM15.7745 30.41L15.9161 30.12C16.0261 29.895 16.1744 29.5933 16.5011 29.755C16.569 29.7833 16.6257 29.8334 16.6621 29.8973C16.6986 29.9612 16.7129 30.0354 16.7028 30.1083C16.6756 30.225 16.6318 30.3373 16.5728 30.4416L16.4311 30.7316L15.7845 30.4116L15.7745 30.41ZM17.5611 32.2433L17.9428 31.4683L16.9078 30.9583L17.0745 30.6333C17.2411 30.285 17.3695 30.3316 17.7061 30.4533C17.9164 30.5361 18.1325 30.603 18.3528 30.6533L18.7644 29.82C18.5203 29.7761 18.28 29.7126 18.0461 29.63C17.6061 29.4916 17.3628 29.41 17.0844 29.945H17.0694C17.1284 29.7852 17.1528 29.6148 17.1411 29.445C17.1353 29.3348 17.0973 29.2287 17.0318 29.1398C16.9663 29.051 16.8763 28.9832 16.7728 28.945C16.6814 28.8918 16.5796 28.8589 16.4744 28.8485C16.3691 28.8382 16.2628 28.8506 16.1628 28.885C15.9178 28.9733 15.7961 29.1433 15.5511 29.6483L14.9178 30.9416L17.5745 32.245L17.5611 32.2433ZM26.1178 46.2816L25.1745 45.9266L25.6911 47.5633L26.6528 47.935L26.1178 46.2833V46.2816ZM46.2611 37.8616L46.1861 38.745L43.2361 38.4966L43.3111 37.6116L46.2611 37.8616ZM28.1911 29.1866V29.61L28.4728 29.2766L28.8911 29.3866L28.6478 29.0533L28.8845 28.7066L28.4961 28.8366L28.2278 28.5033L28.1961 28.9283L27.8078 29.0516L28.1894 29.1933L28.1911 29.1866ZM19.8578 28.5816L21.3111 30.325L19.9628 30.945C19.9512 30.6966 19.8795 29.045 19.8578 28.5783V28.5816ZM21.0128 30.7183L20.4594 30.9633C20.4961 31.0933 20.6261 31.5366 20.6445 31.61L21.3861 31.8866L21.0145 30.72L21.0128 30.7183ZM23.0128 49.9833L24.0128 49.79L23.0928 49.3066L23.2078 48.235L22.3895 48.9483L21.4778 48.475L21.9228 49.4233L21.1628 50.1683L22.2595 50.0616L22.8094 51.0183L23.0128 49.9833ZM28.9661 32.805V33.22L29.2461 32.8866L29.6645 33.0033L29.4195 32.66L29.6578 32.3166L29.2695 32.4366L29.0011 32.1033L28.9695 32.53L28.5811 32.6516L28.9695 32.805H28.9661ZM46.1912 34.9433L46.2428 35.815L43.8712 35.955L43.9528 37.3466L43.3711 37.38L43.2411 35.1166L46.1961 34.95L46.1912 34.9433ZM40.1811 38.4583L39.9628 38.005L39.8228 37.6966C37.7027 38.3035 35.6946 39.249 33.8761 40.4966C33.8761 40.545 33.9544 41.2716 33.9661 41.4016C35.8567 40.0744 37.9596 39.0791 40.1845 38.4583H40.1811ZM37.7178 49.7916L36.7178 49.5966L37.6428 49.1183L37.5278 48.0416L38.3445 48.755L39.2578 48.28L38.8111 49.2283L39.5711 49.975L38.4728 49.8683L37.9228 50.825L37.7212 49.79L37.7178 49.7916ZM21.8845 33.4083L21.1378 33.1283L21.6378 34.74L22.4278 35.0366L21.8911 33.4066L21.8845 33.4083ZM25.0695 43.0666L24.1478 42.7333L24.6645 44.3683L25.6078 44.72L25.0695 43.0666ZM32.9295 33.5366C32.3344 33.4527 31.7351 33.4009 31.1344 33.3816C28.738 33.5474 26.426 34.3343 24.4261 35.665L23.8278 35.9983L24.1444 36.7616L25.4778 36.095C27.8111 34.91 30.4511 33.5716 32.8995 34.4033C32.9078 34.115 32.9195 33.8266 32.9361 33.5366H32.9295ZM14.7295 36.7033C14.6105 36.7175 14.502 36.7779 14.4271 36.8715C14.3523 36.965 14.3173 37.0842 14.3295 37.2033V37.2133C14.3411 37.73 14.7995 37.88 15.3411 37.87C15.5211 37.87 16.2661 37.8433 16.2461 37.1766C16.2579 37.0573 16.2224 36.9382 16.1473 36.8447C16.0722 36.7512 15.9635 36.6909 15.8445 36.6766H15.8028L15.7828 35.7816C16.7078 35.765 16.8094 36.7533 16.8178 37.1566C16.85 37.5849 16.719 38.0094 16.4511 38.345C16.1491 38.6256 15.75 38.778 15.3378 38.77C14.9261 38.7983 14.5193 38.6677 14.2011 38.405C14.0445 38.2554 13.9222 38.0736 13.8425 37.8722C13.7628 37.6708 13.7276 37.4546 13.7395 37.2383C13.6953 36.8297 13.8151 36.4202 14.0728 36.1C14.1533 36.0149 14.2502 35.9468 14.3576 35.8999C14.4649 35.8529 14.5806 35.828 14.6978 35.8266L14.7178 36.7116L14.7295 36.7033ZM18.7161 44.9783L18.2945 44.3483L18.7945 44.015L19.2162 44.645L18.7161 44.9783ZM33.1244 34.4783L33.3828 34.3016C34.835 33.187 36.5547 32.4737 38.3694 32.2333C38.3594 32.155 38.2395 31.3183 38.2312 31.2333C36.4017 31.6389 34.6753 32.4167 33.1595 33.5183C33.1395 33.8516 33.1245 34.185 33.1161 34.5033L33.1244 34.4783ZM45.4778 31.86L43.7878 32.345C43.6356 32.3761 43.4963 32.4522 43.3878 32.5633C43.3286 32.6453 43.2899 32.7403 43.2748 32.8403C43.2597 32.9403 43.2687 33.0425 43.3011 33.1383C43.4511 33.665 43.8778 33.6183 44.1611 33.5366L45.8278 33.06L46.0595 33.8666L44.4128 34.34C44.113 34.4532 43.7831 34.4591 43.4795 34.3566C43.2874 34.2365 43.1218 34.0785 42.9929 33.8922C42.8639 33.706 42.7743 33.4954 42.7294 33.2733C42.3244 31.8633 43.1595 31.6183 43.6245 31.485L45.2444 31.025L45.4845 31.8583L45.4778 31.86ZM22.9261 36.6283L22.1328 36.325L22.6495 37.9783L23.4828 38.2833L22.9228 36.6266L22.9261 36.6283ZM19.9811 46.9916C20.0645 46.9083 20.3145 46.67 19.9595 46.295C19.9111 46.2416 19.6445 45.9616 19.3995 46.1866C19.2978 46.2816 19.2695 46.3916 19.3711 46.575L19.7528 47.2616C19.8788 47.4244 19.9414 47.6274 19.9288 47.8328C19.9162 48.0383 19.8294 48.2321 19.6844 48.3783C19.3344 48.7116 18.7478 48.7333 18.1145 48.045C17.2811 47.1566 17.7111 46.6916 17.9378 46.4733L18.5344 47.1116C18.4567 47.1664 18.4037 47.2496 18.3869 47.3432C18.37 47.4368 18.3907 47.5332 18.4445 47.6116C18.4638 47.639 18.4868 47.6637 18.5128 47.685C18.6794 47.8683 18.8911 47.8916 19.0128 47.7733C19.1795 47.625 19.0828 47.45 19.0128 47.3366L18.7211 46.82C18.5144 46.4483 18.2694 46.005 18.7211 45.5783C19.1728 45.1516 19.8245 45.3616 20.3561 45.9333C20.6556 46.2104 20.838 46.5913 20.8661 46.9983C20.8442 47.2384 20.7301 47.4606 20.5478 47.6183L19.9578 46.985L19.9811 46.9916ZM33.4061 30.9916C33.3545 31.38 33.3111 31.7533 33.2761 32.13L33.9995 31.7066C35.3006 30.9015 36.7089 30.2843 38.1828 29.8733C38.1828 29.82 38.2428 28.9483 38.2511 28.83C36.5634 29.3757 34.9395 30.1022 33.4078 30.9966L33.4061 30.9916ZM42.3278 29.37L43.6211 29.1266V29.1383L42.7411 30.1016L42.3228 29.3683L42.3278 29.37ZM40.7061 28.8283L41.1344 29.575L41.7545 29.4633L42.3728 30.5433L41.9645 31.025L42.4461 31.87L44.4078 29.3366L43.8911 28.425L40.7128 28.8266L40.7061 28.8283ZM41.5045 26.2166L41.7628 26.5C41.9295 26.6866 42.1178 26.9283 41.8478 27.1666C41.5511 27.4316 41.3311 27.1783 41.1811 27.02L40.9228 26.735L41.5045 26.2183V26.2166ZM39.1295 27.175L39.7061 27.8216L40.5011 27.1133L40.8778 27.5266C41.0442 27.7359 41.254 27.9064 41.4928 28.0266C41.6475 28.0847 41.8153 28.098 41.9772 28.065C42.139 28.032 42.2883 27.954 42.4078 27.84C42.5334 27.7386 42.6287 27.6045 42.6831 27.4525C42.7374 27.3005 42.7489 27.1364 42.7161 26.9783C42.6399 26.7091 42.4932 26.4651 42.2911 26.2716L41.3395 25.205L39.1295 27.175V27.175ZM33.1595 31.075C32.0737 30.6904 30.8844 30.7183 29.8178 31.1533L29.9078 31.645L29.9978 32.145C30.9772 31.7739 32.0585 31.7739 33.0378 32.145C33.0728 31.79 33.1128 31.43 33.1611 31.0666L33.1595 31.075ZM15.8111 42.5966C15.707 42.657 15.6311 42.756 15.5998 42.8722C15.5686 42.9884 15.5846 43.1123 15.6445 43.2166V43.2166C15.8561 43.6916 16.3362 43.6516 16.8312 43.4333C16.9978 43.3616 17.6761 43.0533 17.4045 42.445C17.388 42.3871 17.3602 42.333 17.3228 42.2858C17.2854 42.2387 17.239 42.1993 17.1864 42.1701C17.1338 42.1408 17.0759 42.1222 17.0161 42.1153C16.9563 42.1085 16.8957 42.1134 16.8378 42.13L16.7995 42.1433L16.4361 41.325C17.2844 40.9533 17.7578 41.825 17.9211 42.1966C18.116 42.5789 18.1583 43.021 18.0394 43.4333C17.8695 43.8091 17.5598 44.1038 17.1761 44.255C16.807 44.4398 16.3809 44.4756 15.9861 44.355C15.7834 44.2765 15.6002 44.155 15.4491 43.9987C15.298 43.8424 15.1827 43.6552 15.1111 43.45C14.9131 43.0894 14.8663 42.665 14.9811 42.27C15.0221 42.1592 15.085 42.0578 15.166 41.9719C15.2471 41.886 15.3446 41.8173 15.4528 41.77L15.8128 42.58L15.8111 42.5966ZM36.6594 24.3383C36.6044 24.445 36.4428 24.7433 36.8878 25.005C36.9512 25.0416 37.2878 25.235 37.4562 24.9433C37.5262 24.8233 37.5195 24.71 37.3661 24.555L36.7978 24.0133C36.6296 23.8949 36.5101 23.7195 36.4614 23.5197C36.4127 23.3199 36.438 23.1092 36.5328 22.9266C36.7728 22.5116 37.3228 22.3116 38.1295 22.7733C39.1828 23.3766 38.9161 23.94 38.7611 24.2233L38.0028 23.79C38.0319 23.7521 38.0534 23.7089 38.0658 23.6628C38.0782 23.6166 38.0814 23.5685 38.0753 23.5211C38.0691 23.4738 38.0536 23.4281 38.0297 23.3867C38.0058 23.3453 37.9741 23.3091 37.9361 23.28C37.9106 23.2603 37.8826 23.244 37.8528 23.2316C37.8158 23.2004 37.7727 23.1773 37.7263 23.1637C37.6799 23.1501 37.6311 23.1463 37.5831 23.1525C37.5351 23.1588 37.489 23.175 37.4476 23.2001C37.4062 23.2252 37.3705 23.2587 37.3428 23.2983C37.2361 23.4866 37.3728 23.6316 37.4644 23.7166L37.8978 24.13C38.2061 24.425 38.5645 24.7766 38.2578 25.32C37.9245 25.8933 37.2695 25.8533 36.5911 25.4666C36.2223 25.2905 35.9348 24.9797 35.7878 24.5983C35.7385 24.3625 35.7814 24.1167 35.9078 23.9116L36.6594 24.3416V24.3383ZM33.1128 41.405C32.0402 41.7488 30.9996 42.1854 30.0028 42.71C29.9333 42.8967 29.8966 43.0941 29.8945 43.2933C29.8965 43.398 29.9076 43.5023 29.9278 43.605L30.1678 43.4966C31.2606 43.0544 32.2914 42.4724 33.2345 41.765C33.2772 41.6914 33.3039 41.6096 33.3128 41.525C33.3137 41.5045 33.3085 41.4842 33.2978 41.4666C33.2728 41.4266 33.2061 41.4066 33.1111 41.405H33.1128ZM33.3711 29.7183C32.8663 29.2394 32.2273 28.9261 31.5396 28.8203C30.8518 28.7146 30.1481 28.8215 29.5228 29.1266C29.5486 29.2619 29.5642 29.399 29.5694 29.5366C29.5732 29.705 29.5945 29.8726 29.6328 30.0366C30.2191 29.7975 30.8515 29.6925 31.4836 29.7294C32.1157 29.7663 32.7316 29.9442 33.2861 30.25C33.3128 30.0833 33.3411 29.9016 33.3694 29.7333L33.3711 29.7183ZM35.1428 42.5516C33.6542 43.5604 32.0407 44.3711 30.3428 44.9633C30.4903 45.1683 30.6977 45.3225 30.9365 45.4046C31.1754 45.4867 31.4338 45.4926 31.6761 45.4216C33.182 44.857 34.6105 44.1044 35.9278 43.1816C37.5306 42.0955 39.2414 41.1778 41.0328 40.4433C40.9551 40.3033 40.893 40.1552 40.8478 40.0016C40.8102 39.8725 40.76 39.7475 40.6978 39.6283C38.7607 40.4358 36.9 41.4153 35.1378 42.555L35.1428 42.5516ZM28.4011 31.8616C28.3445 28.98 23.7345 28.975 23.7978 31.8616C23.8611 34.7483 28.4678 34.7466 28.4044 31.8516L28.4011 31.8616ZM27.1011 20.9683L27.9761 20.8383L28.4278 23.7633L27.5528 23.8933L27.1011 20.9683ZM34.0245 51.025C33.7661 50.2033 33.9344 50.0466 34.1661 49.9733C34.2478 49.9416 34.3383 49.941 34.4204 49.9717C34.5025 50.0025 34.5704 50.0624 34.6112 50.14C34.7275 50.3391 34.8203 50.5511 34.8878 50.7716C34.9748 51.0145 35.0111 51.2726 34.9945 51.53C34.9753 51.5917 34.941 51.6476 34.8947 51.6927C34.8484 51.7379 34.7916 51.7707 34.7295 51.7883C34.3961 51.895 34.2128 51.605 34.0278 51.0266L34.0245 51.025ZM33.2178 51.2683C33.3263 51.6696 33.5761 52.0182 33.9212 52.25C34.0708 52.3259 34.2346 52.3698 34.4022 52.379C34.5698 52.3882 34.7374 52.3624 34.8945 52.3033C35.7995 52.015 35.9195 51.2683 35.6695 50.4933C35.5775 50.101 35.339 49.7587 35.0028 49.5366C34.8499 49.447 34.6781 49.3945 34.5012 49.3835C34.3243 49.3725 34.1473 49.4033 33.9845 49.4733C33.8198 49.5164 33.6663 49.5946 33.5345 49.7025C33.4028 49.8103 33.2959 49.9454 33.2211 50.0983C33.0839 50.4791 33.0839 50.8959 33.2211 51.2767L33.2178 51.2683ZM39.0511 35.6016C36.9922 36.1656 35.0463 37.0813 33.2995 38.3083C33.3345 38.6266 33.3745 38.945 33.4228 39.2616L34.0245 38.8966C35.6476 37.7662 37.481 36.9728 39.4161 36.5633C39.3828 36.475 39.0828 35.6783 39.0511 35.61V35.6016ZM22.6828 31.7L22.6928 32.1183L22.9744 31.785L23.3911 31.8966L23.1478 31.5633L23.3828 31.2166L22.9945 31.3466L22.7261 31.0133L22.6944 31.4366L22.3061 31.5666L22.6944 31.715L22.6828 31.7ZM31.5161 50.8166C31.3175 51.0015 31.0886 51.1509 30.8395 51.2583L30.7611 50.6316C31.0678 50.5108 31.3414 50.3189 31.5594 50.0717L32.2511 49.9833L32.6061 52.805L31.7828 52.9083L31.5245 50.8133L31.5161 50.8166ZM33.1228 20.9333L34.2628 21.2666L34.6595 23.6766L35.2628 21.555L35.9861 21.7633L35.1645 24.6083L34.0478 24.285L33.6595 21.785L33.0295 23.9966L32.3011 23.7866L33.1228 20.9416V20.9333ZM23.5645 22L24.3894 21.7233L24.7561 22.8183L25.7394 22.485L25.3728 21.39L26.2062 21.1116L27.1495 23.9166L26.3161 24.195L25.9344 23.06L24.9461 23.3933L25.3278 24.5266L24.5061 24.8016L23.5628 21.9966L23.5645 22ZM28.8311 51.4566C28.7757 51.4575 28.7207 51.4475 28.6692 51.4271C28.6177 51.4067 28.5708 51.3764 28.531 51.3379C28.4912 51.2993 28.4594 51.2533 28.4374 51.2025C28.4155 51.1517 28.4037 51.097 28.4028 51.0416C28.4008 51.0195 28.4008 50.9972 28.4028 50.975C28.4028 50.9201 28.4136 50.8658 28.4347 50.8151C28.4557 50.7645 28.4866 50.7185 28.5254 50.6798C28.5643 50.6411 28.6104 50.6104 28.6611 50.5895C28.7119 50.5687 28.7662 50.5581 28.8211 50.5583C28.846 50.5558 28.8712 50.5558 28.8961 50.5583C29.0092 50.5561 29.1185 50.5986 29.2003 50.6767C29.2821 50.7547 29.3297 50.862 29.3328 50.975C29.3341 50.9972 29.3341 51.0194 29.3328 51.0416C29.3326 51.0969 29.3214 51.1515 29.3 51.2024C29.2785 51.2533 29.2473 51.2994 29.2079 51.3382C29.1686 51.3769 29.1219 51.4074 29.0707 51.4281C29.0195 51.4487 28.9647 51.459 28.9095 51.4583C28.8814 51.4578 28.8535 51.4545 28.8261 51.4483L28.8311 51.4566ZM27.5695 52.1533C27.5569 52.3291 27.6117 52.5031 27.7228 52.64C27.8484 52.7651 27.9978 52.8638 28.162 52.9305C28.3263 52.9972 28.5022 53.0304 28.6795 53.0283C28.8704 53.0583 29.0657 53.0438 29.2501 52.986C29.4345 52.9281 29.6031 52.8286 29.7428 52.695C29.9909 52.4011 30.1309 52.0311 30.1395 51.6467C30.1661 51.3526 30.1309 51.0563 30.0361 50.7766C29.9582 50.5526 29.8092 50.36 29.6119 50.2283C29.4146 50.0965 29.1797 50.0327 28.9428 50.0466C28.1912 49.995 27.6728 50.37 27.6328 50.9517C27.6239 51.0722 27.6392 51.1932 27.6779 51.3077C27.7165 51.4222 27.7777 51.5278 27.8578 51.6183C27.9533 51.7185 28.0684 51.7978 28.1961 51.8511C28.3238 51.9045 28.4611 51.9308 28.5994 51.9283C28.7293 51.9453 28.8614 51.9323 28.9853 51.8901C29.1093 51.8479 29.222 51.7777 29.3145 51.685C29.2711 52.185 29.1845 52.5466 28.7345 52.5183C28.4945 52.5016 28.3461 52.3683 28.3595 52.21L27.5678 52.155L27.5695 52.1533ZM24.0695 34.9683L24.0795 35.3883L24.3595 35.055L24.7778 35.1666L24.5345 34.8233L24.7711 34.48L24.3828 34.6033L24.1145 34.27L24.0811 34.6966L23.6928 34.82L24.0811 34.965L24.0695 34.9683ZM26.1245 50.3833C25.8717 50.4845 25.6032 50.5409 25.3311 50.55L25.4894 49.9383C25.8189 49.9395 26.144 49.8624 26.4378 49.7133L27.1044 49.88L26.3911 52.6333L25.5861 52.425L26.1144 50.3816L26.1245 50.3833ZM21.5594 23.8L20.7495 24.3L20.4461 23.8L22.8245 22.3533L23.1278 22.8533L22.2945 23.3533L23.5278 25.38L22.7845 25.8316L21.5528 23.805L21.5594 23.8Z" fill="white"/>
<path fill-rule="evenodd" clip-rule="evenodd" d="M24.3555 32.0866C24.3601 32.0675 24.3601 32.0475 24.3555 32.0283C24.3555 32.0283 24.3688 32.0116 24.3738 32.0116V31.9783C24.4022 31.895 24.3472 31.8983 24.4188 31.8116V31.7983C24.4588 31.7901 24.4944 31.7676 24.5188 31.735C24.5188 31.735 24.5388 31.72 24.5372 31.7133L24.6571 31.675C24.6571 31.62 24.6888 31.5166 24.6788 31.4533C24.6938 31.4333 24.6788 31.3933 24.6788 31.3633V31.35H24.6422C24.6422 31.3283 24.6272 31.32 24.6055 31.32H24.5955V31.28H24.6205C24.6205 31.265 24.6305 31.28 24.6205 31.265L24.6488 31.2533V31.2183L24.6221 31.2333C24.6221 31.2183 24.6105 31.2016 24.6022 31.205V31.1783C24.6572 31.1583 24.7788 31.0716 24.8272 31.1216C24.8672 31.1083 25.0721 31.1533 25.0955 31.075H25.1155C25.1206 31.0599 25.1313 31.0473 25.1455 31.04C25.1455 31.0083 25.1722 30.9833 25.1572 30.945H25.1205C25.1072 30.945 25.1122 30.945 25.1088 30.93H25.0821V30.9066H25.0605C25.0605 30.9066 25.0605 30.87 25.0605 30.8666C25.0605 30.8633 25.0688 30.8483 25.0605 30.8466L25.3372 30.7433V30.7083C25.3372 30.6983 25.3522 30.7 25.3588 30.6966C25.3581 30.6877 25.3606 30.6788 25.3658 30.6715C25.3709 30.6642 25.3785 30.6589 25.3872 30.6566V30.635H25.4088V30.615C25.4388 30.605 25.4722 30.64 25.5005 30.635C25.5 30.6364 25.4998 30.6379 25.5 30.6394C25.5001 30.6409 25.5006 30.6424 25.5014 30.6437C25.5022 30.645 25.5033 30.646 25.5046 30.6468C25.5059 30.6476 25.5073 30.6481 25.5088 30.6483V30.6483C25.512 30.6709 25.517 30.6932 25.5238 30.715C25.5238 30.7366 25.4805 30.7633 25.4688 30.7733V30.795L25.4788 30.8716C25.4938 30.8716 25.5122 30.9016 25.5172 30.9066C25.4955 30.875 25.5172 30.9066 25.5172 30.9266C25.5187 30.9246 25.5207 30.9229 25.523 30.9217C25.5253 30.9206 25.5279 30.92 25.5305 30.92C25.5331 30.92 25.5356 30.9206 25.5379 30.9217C25.5402 30.9229 25.5423 30.9246 25.5438 30.9266C25.5305 30.9116 25.5438 30.915 25.5538 30.9266C25.5305 30.9183 25.5388 30.9266 25.5538 30.9416C25.5806 30.9316 25.6068 30.9199 25.6322 30.9066C25.6338 30.8989 25.6338 30.891 25.6322 30.8833C25.6638 30.875 25.7038 30.8466 25.7438 30.835C25.7463 30.8206 25.7463 30.806 25.7438 30.7916C25.7462 30.7914 25.7486 30.7908 25.7507 30.7896C25.7529 30.7885 25.7548 30.787 25.7563 30.7851C25.7579 30.7833 25.759 30.7811 25.7597 30.7788C25.7605 30.7765 25.7607 30.774 25.7605 30.7716C25.7605 30.7583 25.7721 30.7516 25.7721 30.745C25.8105 30.7333 25.9022 30.67 25.9388 30.7016L26.0188 30.6716V30.6566C26.037 30.6484 26.0543 30.6384 26.0705 30.6266C26.0713 30.6211 26.0713 30.6155 26.0705 30.61C26.0766 30.6027 26.0847 30.5975 26.0938 30.595V30.5633C26.095 30.5607 26.0956 30.5579 26.0956 30.555C26.0956 30.5521 26.095 30.5493 26.0938 30.5466V30.5266C26.0938 30.5266 26.1238 30.515 26.1205 30.5016C26.1172 30.4883 26.1355 30.47 26.1455 30.47V30.4366V30.4233L26.1755 30.415C26.1781 30.4177 26.1811 30.4198 26.1846 30.4213C26.188 30.4227 26.1917 30.4234 26.1955 30.4233V30.4433C26.2082 30.4596 26.2158 30.4793 26.2171 30.5C26.2271 30.5 26.2305 30.52 26.2321 30.5383C26.2338 30.5566 26.2605 30.5716 26.2605 30.5916C26.2605 30.6116 26.3172 30.6083 26.3422 30.6033V30.6566C26.3113 30.691 26.2839 30.7284 26.2605 30.7683C26.2605 30.7683 26.2472 30.7883 26.2338 30.7933V30.8016C26.2338 30.7933 26.2338 30.8016 26.2338 30.815V30.8333C26.2338 30.8333 26.2338 30.8466 26.2188 30.8466V30.875C26.2288 30.875 26.2322 30.875 26.2338 30.885C26.2355 30.895 26.2488 30.895 26.2488 30.9016C26.2488 30.9083 26.2738 30.9016 26.2788 30.9016H26.2905C26.2905 30.9166 26.2905 30.9166 26.3072 30.91C26.3238 30.9033 26.3405 30.91 26.3455 30.925C26.376 30.9173 26.4046 30.903 26.429 30.8831C26.4535 30.8633 26.4733 30.8383 26.4872 30.81C26.4951 30.8061 26.5024 30.801 26.5088 30.795C26.5288 30.7866 26.6171 30.725 26.6255 30.7683C26.6565 30.76 26.6884 30.755 26.7205 30.7533H26.7421L26.7522 30.765C26.7788 30.765 26.8305 30.7416 26.8538 30.7533V30.7733C26.8747 30.7827 26.8934 30.7963 26.9088 30.8133C26.9088 30.8133 27.0122 30.745 27.0122 30.77L27.0638 30.755C27.0888 30.77 27.1805 30.7416 27.2172 30.7283C27.2172 30.7483 27.2872 30.6883 27.2888 30.7283C27.3155 30.7183 27.3188 30.7283 27.3322 30.7416H27.3805C27.3854 30.7485 27.3926 30.7536 27.4007 30.756C27.4089 30.7584 27.4176 30.758 27.4255 30.755C27.4424 30.7671 27.4632 30.7724 27.4838 30.77C27.4838 30.795 27.5371 30.79 27.5538 30.7833C27.5538 30.81 27.6238 30.7833 27.6488 30.7833H27.6572C27.6655 30.7833 27.6888 30.8033 27.6955 30.7966C27.6978 30.8041 27.7029 30.8103 27.7098 30.8141C27.7166 30.8178 27.7246 30.8187 27.7321 30.8166H27.7471C27.7496 30.8339 27.7578 30.8497 27.7705 30.8616C27.7705 30.9183 27.7905 31.13 27.7321 31.1466C27.7321 31.1633 27.7322 31.1633 27.7205 31.1633C27.7088 31.1633 27.7105 31.2083 27.7038 31.2083V31.2283C27.6838 31.2283 27.6855 31.2466 27.6755 31.26L27.6605 31.2816V31.3016C27.6521 31.3016 27.6455 31.3116 27.6405 31.315C27.6355 31.3183 27.6238 31.3633 27.6055 31.3716C27.6053 31.3817 27.6022 31.3914 27.5966 31.3997C27.591 31.408 27.583 31.4144 27.5738 31.4183C27.5738 31.4266 27.5738 31.435 27.5738 31.445H27.5538C27.5538 31.4633 27.5205 31.4933 27.5155 31.5166L27.4538 31.5366L27.4405 31.5516L27.4538 31.7183C27.4388 31.7466 27.4755 31.8366 27.4538 31.8666C27.4321 31.8966 27.4171 31.97 27.4238 32.0333C27.3971 32.0716 27.4238 32.145 27.3922 32.1633V32.1833C27.3822 32.1833 27.3805 32.2083 27.3671 32.2133C27.3821 32.185 27.3805 32.2133 27.3671 32.2283C27.3538 32.2433 27.3671 32.2533 27.3521 32.255C27.3371 32.2566 27.3322 32.28 27.3338 32.3016V32.31L27.3171 32.3216V32.34C27.3021 32.34 27.3172 32.3516 27.2972 32.36C27.2972 32.385 27.2855 32.405 27.2888 32.42V32.4333C27.2888 32.4333 27.2638 32.4516 27.2655 32.4633C27.2577 32.4659 27.2508 32.4708 27.2457 32.4773C27.2407 32.4839 27.2377 32.4917 27.2371 32.5C27.2071 32.5 27.0705 32.5183 27.0705 32.5666C27.0505 32.5666 26.9872 32.5866 26.9888 32.6133C26.9522 32.63 26.8521 32.6616 26.8355 32.7033C26.8205 32.7033 26.8038 32.735 26.7988 32.7466C26.7938 32.7583 26.7672 32.7566 26.7672 32.775C26.7672 32.7933 26.7405 32.8066 26.7322 32.8183C26.7238 32.83 26.7322 32.83 26.7322 32.8383C26.7322 32.8466 26.7138 32.865 26.7055 32.865C26.7012 32.8901 26.6928 32.9143 26.6805 32.9366C26.6999 33.0217 26.6999 33.11 26.6805 33.195C26.6711 33.1976 26.6629 33.2033 26.6572 33.2112C26.6514 33.219 26.6485 33.2286 26.6488 33.2383C26.6388 33.2383 26.6488 33.2383 26.6388 33.25V33.2766C26.6238 33.2766 26.6205 33.31 26.6238 33.3283C26.6238 33.28 26.6238 33.31 26.6088 33.3283V33.3466C26.5955 33.3466 26.5955 33.3466 26.5988 33.3666C26.6021 33.3866 26.5638 33.405 26.5638 33.405C26.5506 33.4156 26.5403 33.4294 26.5338 33.445C26.5221 33.445 26.5338 33.4533 26.5138 33.46C26.5151 33.4683 26.5151 33.4767 26.5138 33.485H26.4938C26.4875 33.4695 26.483 33.4532 26.4805 33.4366C26.5005 33.425 26.4805 33.4233 26.5005 33.4233C26.5205 33.4233 26.5005 33.4233 26.5005 33.3966C26.5205 33.3966 26.5171 33.3783 26.5255 33.375C26.5256 33.3587 26.5322 33.3431 26.5438 33.3316L26.4955 33.35C26.4955 33.365 26.4955 33.35 26.4955 33.37C26.4705 33.37 26.4755 33.3966 26.4688 33.3966C26.4621 33.3966 26.4688 33.4233 26.4688 33.4333C26.4688 33.4433 26.4688 33.4333 26.4538 33.4433C26.4388 33.4533 26.4355 33.55 26.4222 33.5533C26.4088 33.5566 26.4322 33.58 26.4222 33.59C26.4201 33.6089 26.4138 33.6271 26.4038 33.6433L26.3722 33.6583V33.6183C26.4038 33.605 26.3271 33.5433 26.3238 33.5433C26.3205 33.5433 26.3155 33.5433 26.3155 33.5283C26.2963 33.5235 26.2782 33.515 26.2622 33.5033H26.2422C26.2322 33.5033 26.1938 33.515 26.1805 33.52C26.1805 33.495 26.1555 33.495 26.1505 33.4933C26.1105 33.5016 26.0722 33.4933 26.0322 33.5066C26.0322 33.4666 26.0855 33.4283 26.0805 33.4016C26.0899 33.4022 26.0991 33.3993 26.1065 33.3934C26.1139 33.3876 26.1189 33.3792 26.1205 33.37C26.1322 33.37 26.1472 33.37 26.1472 33.3483H26.1671C26.1671 33.3483 26.1771 33.3283 26.1671 33.325C26.2021 33.31 26.1822 33.2433 26.2272 33.23C26.2272 33.215 26.2572 33.1933 26.2622 33.1733C26.2672 33.1533 26.2855 33.1733 26.2855 33.1516C26.3122 33.1416 26.3105 33.115 26.3255 33.1083V33.0416C26.3255 33.0416 26.3005 33.0233 26.2955 33.015C26.2905 33.0066 26.2455 32.9983 26.2372 33L26.2222 32.8833C26.1922 32.8933 26.1622 32.8983 26.1355 32.905C26.1355 32.905 26.1355 32.8933 26.1255 32.905V32.8266L26.1005 32.8183C26.1005 32.7983 26.0821 32.7983 26.0805 32.7883C26.0788 32.7783 26.0605 32.7883 26.0572 32.7733C26.0238 32.7866 25.9688 32.7883 25.9272 32.8C25.9088 32.755 25.9172 32.5916 25.8838 32.5866C25.8688 32.5083 25.8122 32.4566 25.8022 32.385C25.7922 32.385 25.7755 32.3633 25.7721 32.345C25.7688 32.3266 25.7522 32.345 25.7522 32.3316C25.7155 32.345 25.6821 32.3466 25.6505 32.36L25.6405 32.3466V32.3316L25.6238 32.2133C25.5872 32.2266 25.5055 32.235 25.4572 32.2516C25.4572 32.2383 25.4405 32.2416 25.4222 32.2516C25.4038 32.2616 25.4022 32.2516 25.4005 32.24C25.3885 32.2422 25.376 32.2414 25.3644 32.2376C25.3527 32.2338 25.3422 32.2272 25.3338 32.2183C25.3071 32.2283 25.2271 32.205 25.2188 32.1833C25.2105 32.1616 25.2072 32.1833 25.2055 32.1833L25.1938 32.17C25.1836 32.1681 25.1735 32.1653 25.1638 32.1616C25.1622 32.1542 25.1588 32.1474 25.1538 32.1416L25.1272 32.08V32.0566H25.1188C25.0827 32.0623 25.047 32.0707 25.0122 32.0816C25.0122 32.0933 24.9921 32.1083 24.9955 32.1216C24.9988 32.135 24.9688 32.1366 24.9705 32.1433C24.9722 32.15 24.9421 32.18 24.9171 32.19L24.9055 32.2183H24.8955C24.8879 32.2294 24.8812 32.2411 24.8755 32.2533H24.8555C24.8405 32.28 24.7621 32.2933 24.7371 32.2916V32.28H24.6988C24.6988 32.28 24.6988 32.2233 24.6871 32.2266C24.6755 32.23 24.6772 32.2 24.6772 32.195L24.6022 32.2216C24.6022 32.2216 24.5822 32.2433 24.5838 32.2533C24.5855 32.2633 24.5272 32.2816 24.5238 32.2533C24.5125 32.2572 24.5002 32.2572 24.4888 32.2533L24.4688 32.2616V32.2533H24.4571C24.4571 32.2383 24.4571 32.2383 24.4421 32.24C24.4271 32.2416 24.4272 32.1883 24.4105 32.1916C24.3938 32.195 24.4105 32.18 24.3988 32.18C24.3871 32.18 24.3855 32.1316 24.3788 32.1316L24.3555 32.0866ZM26.5222 30.6933C26.5122 30.6933 26.3688 30.7033 26.3722 30.7383L26.3455 30.75V30.77C26.3455 30.77 26.3455 30.7966 26.3455 30.8016L26.3338 30.815H26.3471V30.8283H26.3555H26.3722C26.3722 30.8383 26.3722 30.8283 26.3722 30.8383C26.3722 30.8483 26.4105 30.8183 26.4121 30.8383C26.4488 30.8233 26.4788 30.795 26.5072 30.7833L26.5188 30.7633C26.5188 30.7633 26.5188 30.7466 26.5188 30.7433V30.7116H26.5038V30.6916L26.5138 30.6816L26.5222 30.6933Z" fill="#004A92"/>
</svg>
