<svg width="76" height="75" viewBox="0 0 76 75" fill="none" xmlns="http://www.w3.org/2000/svg">
<path d="M37.7493 0C17.0397 0 0.240234 16.7775 0.240234 37.4728C0.240234 58.2225 17.0397 75 37.7493 75C58.4589 75 75.2402 58.2225 75.2402 37.4728C75.2402 16.7775 58.4589 0 37.7493 0Z" fill="#006755"/>
<path d="M37.7491 73.4946C17.9446 73.4946 1.79688 57.37 1.79688 37.4728C1.79688 17.63 17.9446 1.50543 37.7491 1.50543C57.5536 1.50543 73.647 17.63 73.647 37.4728C73.647 57.37 57.5536 73.4946 37.7491 73.4946Z" fill="white"/>
<path d="M68.2709 21.4027C67.7278 20.3507 67.1123 19.3349 66.4244 18.3374C65.1753 16.4329 63.709 14.6191 62.0616 13.0048C61.5186 12.4607 60.9574 11.8984 60.36 11.3906C59.8531 10.9915 59.3643 10.5381 58.8574 10.1935C58.3144 9.74002 57.7532 9.34098 57.1558 8.94195C57.011 8.83313 56.848 8.74244 56.7032 8.63361C56.1601 8.23458 55.5446 7.87182 54.9472 7.5272C54.2412 7.12817 53.5352 6.72913 52.793 6.36638C52.087 6.02176 51.3448 5.71342 50.6388 5.40507C48.2311 4.44377 45.7691 3.75453 43.1623 3.33736C41.9675 3.13784 40.7546 3.02901 39.5055 2.93832C38.9081 2.93832 38.2926 2.88391 37.7496 2.88391C37.5504 2.88391 37.297 2.93832 37.0435 2.93832C35.885 2.93832 34.7807 3.04715 33.6402 3.13784C32.6446 3.28294 31.6851 3.44618 30.6895 3.6457C29.73 3.84522 28.7343 4.09915 27.7749 4.40749C26.8698 4.66142 25.9284 5.00604 25.0233 5.3688C23.0139 6.16686 21.1131 7.12817 19.3571 8.28899C18.6511 8.68802 17.9994 9.14147 17.3477 9.64933C17.2391 9.75816 17.0942 9.84884 16.9494 9.95767C16.8408 10.0665 16.696 10.1572 16.6055 10.2116C16.1529 10.5562 15.7546 10.919 15.3564 11.2636C15.0124 11.5719 14.6503 11.8621 14.3064 12.2249C13.7995 12.6783 13.2564 13.1862 12.8039 13.6759C12.4961 13.9843 12.2608 14.2745 11.953 14.5828C10.7944 15.9432 9.69017 17.3942 8.69452 18.8996C7.9342 20.0967 7.24629 21.3664 6.6308 22.6723C4.47656 27.1886 3.26367 32.1584 3.26367 37.4909C3.26367 42.8235 4.45846 47.8476 6.6308 52.3095C7.22819 53.6155 7.9342 54.9214 8.69452 56.1366C9.69017 57.6421 10.7944 59.0931 11.953 60.4534C12.2608 60.7618 12.4961 61.052 12.8039 61.3059C13.2564 61.8501 13.7995 62.3579 14.3064 62.8114C14.6503 63.156 15.0124 63.4643 15.3564 63.7727C15.7546 64.1173 16.1529 64.48 16.6055 64.7702C16.7141 64.8791 16.8589 64.9698 16.9494 65.0786C17.0942 65.1874 17.2572 65.2781 17.3477 65.3869C17.9994 65.8404 18.6511 66.2938 19.3571 66.7473C21.1131 67.8537 23.0139 68.8513 25.0233 69.6675C25.9284 70.0121 26.8698 70.3204 27.7749 70.6288C28.7343 70.9371 29.73 71.1729 30.6895 71.3906C31.6851 71.5901 32.6446 71.7352 33.6402 71.844C34.7988 71.9891 35.9031 72.0979 37.0435 72.0979H37.7496C38.2926 72.0979 38.9081 72.0979 39.5055 72.0435C40.7546 71.9891 41.9675 71.8984 43.1623 71.6989C45.7691 71.2999 48.2311 70.5925 50.6388 69.6312C51.3448 69.3228 52.087 68.9782 52.793 68.6336C53.5533 68.289 54.2412 67.9262 54.9472 67.4728C55.5446 67.1644 56.142 66.7654 56.7032 66.4208C56.848 66.312 57.011 66.2213 57.1558 66.1124C57.7532 65.7134 58.3144 65.3144 58.8574 64.8609C59.3643 64.4619 59.8531 64.0629 60.36 63.6638C60.9574 63.1016 61.5186 62.6118 62.0616 62.0496C63.709 60.399 65.1753 58.6397 66.4244 56.717C67.1304 55.7195 67.7278 54.6493 68.2709 53.5973C70.7872 48.8271 72.2354 43.3494 72.2354 37.5272C72.2354 31.705 70.7872 26.2273 68.2709 21.4027Z" fill="#006755"/>
<path d="M70.5878 32.5574L68.2706 32.8113L66.4241 33.0471L65.1207 33.2104L65.4647 36.0762L64.7587 36.1668L64.3242 32.5574L66.4241 32.2491L68.2706 32.0496L70.4792 31.7412L70.5878 32.5574Z" fill="white"/>
<path d="M64.4155 17.63L64.8681 18.283L62.0622 20.1874L60.3605 21.3483H60.3062L60.3605 21.4571L61.9174 23.7606L61.3562 24.1596L60.3605 22.6542L59.3105 21.0943L60.3605 20.4051L62.0622 19.2443L64.4155 17.63Z" fill="white"/>
<path d="M60.3587 14.0205L60.8655 13.5671L61.3543 14.1112L60.3587 15.1269L58.8561 16.4691L57.3898 17.8839L58.8561 19.4982L59.3449 19.9879L58.8561 20.4413L57.1545 18.6457L56.7019 18.1922L56.3398 17.7751L56.7019 17.4849L57.1545 17.0314L58.8561 15.4171L60.3587 14.0205Z" fill="white"/>
<path d="M56.7024 10.9552L57.155 10.5925L57.2455 10.5562L57.9515 11.1003L57.155 13.4583L56.7024 14.8186L55.8878 17.2309L55.2361 16.7775L55.7973 14.9637L54.9465 14.3107L53.987 13.5671L52.7922 14.474L52.4845 14.7279L51.9414 14.3107L52.7922 13.7122L54.9465 12.1523L56.7024 10.9552Z" fill="white"/>
<path d="M50.2763 6.58398L50.6203 6.72909L52.3763 7.58157C52.5211 7.69039 52.684 7.72667 52.7745 7.8355C53.028 7.94432 53.2271 8.14384 53.4262 8.43404C53.6797 8.83308 53.6797 9.34094 53.4805 9.79438C53.3357 10.139 53.0823 10.3385 52.7745 10.5018C52.5211 10.6106 52.2315 10.6469 51.8694 10.6106C52.4668 11.1184 52.6659 11.8621 52.322 12.5695C52.1228 13.0773 51.7246 13.3675 51.2177 13.5308C51.0186 13.5852 50.8194 13.5852 50.6203 13.5308C50.2763 13.4764 50.0229 13.3313 49.6609 13.1862L47.6152 12.1523L50.2763 6.58398Z" fill="white"/>
<path d="M41.0983 4.26239L43.1621 4.62515L45.3163 4.96977L45.2077 5.67714L43.4517 5.3688L43.1621 7.32769L42.5647 10.792L41.8043 10.7013L42.7095 5.2237L41.0078 4.96977L41.0983 4.26239Z" fill="white"/>
<path d="M36.9886 4.11731H37.0429C38.455 4.11731 39.2515 5.22372 39.5049 6.47523C39.5592 6.67475 39.5592 6.92868 39.5592 7.18261C39.5592 7.43654 39.5592 7.72674 39.5049 8.03508C39.2515 9.2866 38.5093 10.4474 37.1516 10.4474H37.0429C35.3413 10.4474 34.5267 8.88756 34.5267 7.38212C34.4904 5.82227 35.2327 4.11731 36.9886 4.11731Z" fill="white"/>
<path d="M29.9653 5.02417C30.2187 4.96976 30.4721 4.91534 30.6713 4.91534C31.9747 5.02417 32.8255 6.16686 33.1333 7.41837C33.4772 8.92381 33.1333 10.792 31.4316 11.191C31.1782 11.2455 30.9247 11.2999 30.6713 11.2999C29.3679 11.191 28.517 10.0484 28.2093 8.74243C27.8653 7.23699 28.2093 5.4232 29.9653 5.02417Z" fill="white"/>
<path d="M25.0058 6.67475L26.3092 6.13062L26.5626 6.72916L25.0058 7.43654L23.8472 7.98068L24.6618 9.74005L25.0058 9.59494L26.9066 8.74247L27.16 9.2866L25.0058 10.3023L24.9153 10.3567L25.0058 10.5925L26.1101 13.0049L25.4041 13.3132L25.0058 12.5151L22.8516 7.69047L25.0058 6.67475Z" fill="white"/>
<path d="M16.5886 11.8078L16.9326 11.5538L17.3308 11.8078L19.3402 13.0593L22.3996 15.0182L21.8022 15.526L20.1911 14.5103L19.3402 15.2177L18.3989 15.9795L19.1411 17.7388L18.6342 18.1379L17.3308 14.9275L16.9326 13.9118L16.5886 12.9686L16.2266 12.1161L16.5886 11.8078Z" fill="white"/>
<path d="M11.9164 16.5236L12.2241 16.1245C12.4233 15.925 12.5681 15.7799 12.7672 15.6167C12.912 15.5079 13.075 15.4172 13.2741 15.3628C13.6181 15.2176 13.9801 15.2539 14.2698 15.4172C14.3784 15.4716 14.5232 15.526 14.6137 15.6167C15.1568 16.0701 15.2654 16.7231 14.9577 17.3216H15.012C15.1206 17.2672 15.2111 17.2128 15.3197 17.1221C15.718 16.977 16.1706 16.9226 16.5688 17.0677C16.6774 17.1221 16.8223 17.1765 16.9128 17.2672C16.9671 17.3216 17.0214 17.3216 17.0214 17.3761C17.1662 17.4849 17.2748 17.5756 17.3291 17.6844C17.5826 17.9927 17.6731 18.2829 17.6731 18.6457C17.6731 19.0447 17.5283 19.3531 17.3291 19.6433C17.2205 19.7884 17.13 19.9516 17.0214 20.0967L16.9128 20.1511L16.5688 20.659L15.5189 21.9105L15.3197 21.711L14.2698 20.8585L12.7672 19.607L11.9164 18.954L10.7578 17.9565L11.9164 16.5236Z" fill="white"/>
<path d="M9.50764 19.9517L11.9153 21.4571L12.7661 21.9468L14.2687 22.8537L14.7756 23.1621L14.3773 23.815L14.2687 23.7606L12.7661 22.8537L11.9153 22.3459L9.10938 20.6409L9.50764 19.9517Z" fill="white"/>
<path d="M6.61252 25.7739L8.20557 22.0556L8.65814 22.2551L8.85727 22.3095L8.65814 22.7086L8.16937 23.9057L8.65814 24.1596L11.9167 25.6288L12.7675 25.9734L13.1838 26.1729L12.8761 26.8803L12.7675 26.8259L11.9167 26.4812L8.65814 25.0121L7.80731 24.613L7.1013 26.2273L6.61252 26.0278L6.50391 25.9734L6.61252 25.7739Z" fill="white"/>
<path d="M4.94799 32.3035C5.0023 31.7957 5.14713 31.3422 5.49108 30.9976C5.79883 30.6893 6.19709 30.5442 6.59535 30.4897H6.9393C7.64531 30.6348 8.24271 31.1427 8.35132 31.9045L8.65907 31.7957L11.3745 31.0883L11.2297 31.8864L8.67718 32.5937L8.42374 32.6481L8.1703 34.3531L8.67718 34.4075L10.8314 34.7159L10.7228 35.5139L8.65907 35.2056L6.59535 34.8972L4.58594 34.5889L4.94799 32.3035Z" fill="white"/>
<path d="M4.49438 39.4861C4.44008 38.0713 5.39953 37.2188 6.59431 36.8742C6.84775 36.8198 7.1374 36.7835 7.44515 36.7291C7.84341 36.7291 8.24167 36.7835 8.65803 36.8198C9.81662 37.0737 10.758 37.7811 10.8666 39.087C10.9752 40.5381 9.90713 41.3906 8.65803 41.6989C8.4046 41.7533 8.15116 41.7896 7.89772 41.7896C7.44515 41.844 6.99257 41.7896 6.59431 41.6989C5.50814 41.445 4.603 40.7376 4.49438 39.4861Z" fill="white"/>
<path d="M9.3097 47.7751C9.11057 47.8295 8.85713 47.8839 8.658 47.8839C7.89768 47.9746 7.15546 47.8839 6.59427 47.5393C6.1417 47.2309 5.79775 46.7775 5.59862 46.1245C5.29087 45.0725 5.74344 44.22 6.59427 43.6215C6.70289 43.5671 6.7934 43.5127 6.90202 43.4764L7.24598 44.1294C6.99254 44.2745 6.7391 44.4377 6.59427 44.6372C6.25032 44.9818 6.05119 45.399 6.25032 45.9976C6.30463 46.2515 6.39514 46.451 6.59427 46.6505C7.04684 47.1584 7.95199 47.2128 8.658 47.0495C8.80282 47.0495 8.96574 46.9951 9.11057 46.9407C9.61745 46.8319 10.1605 46.5961 10.5226 46.2878C11.0295 45.8887 11.3191 45.2902 11.12 44.6735C10.8665 43.7666 10.07 43.5127 9.21918 43.5127V42.8053C10.414 42.7509 11.4277 43.2043 11.7717 44.4558C12.2243 46.2152 10.776 47.376 9.3097 47.7751Z" fill="white"/>
<path d="M11.9156 29.3289L11.7165 30.0363L8.65712 29.1294L6.6115 28.4764L5.79688 28.2769L6.05031 27.5333L6.6115 27.6784L8.65712 28.2769L11.9156 29.2926H11.9699L11.9156 29.3289Z" fill="white"/>
<path d="M15.3378 56.9166C15.1387 57.2612 14.7947 57.4789 14.3422 57.4789H14.2879C13.6905 57.4789 13.1836 56.971 13.1836 56.318C13.1836 55.7195 13.6905 55.2116 14.2879 55.1572H14.3422C14.7947 55.1572 15.1387 55.4112 15.3378 55.7558C15.4464 55.9553 15.4827 56.1004 15.4827 56.2999C15.4827 56.4994 15.4283 56.7171 15.3378 56.9166Z" fill="white"/>
<path d="M23.5569 64.861L22.3621 64.208L21.1673 66.4208L20.5156 66.0762L23.3759 60.5986L25.0232 61.451L25.2224 61.5417C25.6749 61.7957 26.1275 62.104 26.3266 62.5937C26.5258 63.1016 26.4715 63.7001 26.218 64.1536C25.9646 64.607 25.5663 64.9517 25.1137 65.1149H25.0051C24.4982 65.2056 24.0095 65.0605 23.5569 64.861Z" fill="white"/>
<path d="M29.4205 69.8307L28.6602 69.5767L28.624 67.6723L27.7732 67.4183L26.4698 66.9649L25.3655 68.4703L25.0034 68.3615L24.75 68.2708L25.0034 67.9262L27.7732 64.2079L28.624 63.0471L29.4748 63.3555L29.4205 69.8307Z" fill="white"/>
<path d="M36.0841 66.4026C35.9755 67.11 35.4867 67.7086 34.7264 67.8174L35.5772 70.8283L34.7264 70.7194L33.9661 67.9081L33.6221 67.8537L32.2644 67.6542L31.9205 70.3204L31.1602 70.2116L31.9567 64.081L33.604 64.2805L34.2557 64.3712C34.7626 64.4256 35.2514 64.5707 35.6134 64.9153C35.9936 65.2962 36.1927 65.8585 36.0841 66.4026Z" fill="white"/>
<path d="M41.1527 70.6832L40.4467 68.9238L39.5053 68.9782L38.1476 69.0145L37.7494 70.8283L37.0977 70.8827L38.6907 64.607L39.5053 64.5526H39.5958L41.9492 70.6288L41.1527 70.6832Z" fill="white"/>
<path d="M47.4171 69.3773L43.163 65.0605L43.0543 64.9516L43.163 65.2963L44.3577 70.1753L43.7603 70.3204L43.163 67.9625L42.2578 64.3531L43.163 64.0992L47.2723 68.2709L46.0232 63.3555L46.6749 63.1923L48.1774 69.2322L47.4171 69.3773Z" fill="white"/>
<path d="M53.5893 66.8198L52.7927 66.0036L52.2315 65.4595L50.6204 66.2576L50.1859 66.4571L50.4756 68.3253L49.8782 68.6155L49.0273 62.1403L49.8239 61.7957L50.6204 62.5937L52.7927 64.8972L54.2953 66.5115L53.5893 66.8198Z" fill="white"/>
<path d="M51.3809 61.0882L52.5394 59.3289L52.7929 59.5284L53.0825 59.7279L52.7929 60.0725L51.6886 61.3422L51.3809 61.0882Z" fill="white"/>
<path d="M60.559 57.4607H60.3598C59.8168 57.3519 59.4004 56.8984 59.4004 56.2999C59.4004 55.7557 59.7987 55.3023 60.3598 55.1934C60.4142 55.1934 60.5047 55.139 60.559 55.139C61.2107 55.139 61.7176 55.6832 61.7176 56.2999C61.7176 56.971 61.2107 57.4607 60.559 57.4607Z" fill="white"/>
<path d="M62.0619 44.7642C61.6093 46.2696 61.0663 47.7207 60.3603 49.081C59.9077 49.9879 59.4008 50.7859 58.8577 51.584C58.3508 52.3821 57.7534 53.1439 57.156 53.8875C57.0112 54.0326 56.8483 54.2321 56.7035 54.3954C56.1604 54.9939 55.5449 55.5925 54.9475 56.1548C54.2958 56.8077 53.5355 57.4063 52.7933 57.9685C52.0873 58.4764 51.3812 58.9661 50.639 59.4196C48.34 60.7799 45.8237 61.7775 43.1626 62.3398C41.9678 62.5937 40.7549 62.7932 39.5058 62.8839C38.9084 62.8839 38.2929 62.9383 37.7498 62.9383H37.0438C35.8852 62.8839 34.7448 62.7932 33.6405 62.5937C32.6448 62.4486 31.6311 62.1947 30.6897 61.9407C29.6941 61.6324 28.7346 61.2878 27.7752 60.8887C26.8157 60.4897 25.9287 60.0362 25.0235 59.474C22.9236 58.2769 21.0047 56.7714 19.3574 55.0121C18.6513 54.2503 17.9996 53.4522 17.3479 52.6541C17.2393 52.4546 17.0945 52.3095 16.9497 52.11C16.8411 51.9105 16.6962 51.7654 16.6057 51.5659C16.1532 50.8585 15.7549 50.2055 15.3566 49.4982C14.9584 48.7364 14.5963 47.9927 14.3067 47.2309C13.6007 45.5804 13.1119 43.8573 12.8041 42.0979C12.4964 40.5925 12.3516 39.0326 12.3516 37.4728C12.3516 35.8585 12.4964 34.3531 12.8041 32.8476C13.1119 31.0882 13.6007 29.3289 14.3067 27.7146C14.6144 27.0072 14.9584 26.2636 15.3566 25.5018C15.7549 24.7944 16.1532 24.087 16.6057 23.4341C16.7143 23.2346 16.8592 23.035 16.9497 22.8899C17.0945 22.6904 17.2574 22.4909 17.3479 22.3458C17.9996 21.4933 18.6513 20.7315 19.3574 19.9879C21.0047 18.2285 22.9236 16.7231 25.0235 15.4716C25.9287 14.9637 26.8338 14.5103 27.7752 14.0568C28.7346 13.6578 29.676 13.3494 30.6897 13.0592C31.6492 12.7509 32.6448 12.5514 33.6405 12.4063C34.7448 12.2067 35.9033 12.0979 37.0438 12.0616H37.7498C38.2929 12.0616 38.9084 12.0616 39.5058 12.1161C40.7549 12.2249 41.9678 12.37 43.1626 12.6602C45.8237 13.2043 48.3219 14.22 50.639 15.5804C51.3994 16.0338 52.0873 16.4873 52.7933 16.9951C53.5536 17.5937 54.2958 18.1922 54.9475 18.8089C55.5449 19.3531 56.1423 19.9697 56.7035 20.6227C56.8483 20.7678 57.0112 20.9673 57.156 21.1306C57.7534 21.8924 58.3508 22.636 58.8577 23.3978C59.4008 24.1959 59.9077 25.0483 60.3603 25.9008C61.0663 27.3156 61.6093 28.7122 62.0619 30.2176C62.7679 32.5211 63.1662 34.9335 63.1662 37.509C63.1662 39.9939 62.7679 42.4425 62.0619 44.7642Z" fill="white"/>
<path d="M65.7173 25.9734C65.9707 25.919 66.2242 25.8646 66.4233 25.8283C67.075 25.7195 67.7267 25.7739 68.2698 26.0278C68.8129 26.3361 69.2655 26.7896 69.4646 27.5332C69.8629 28.6397 69.2655 29.601 68.2698 30.1995L67.9259 29.5465C68.0707 29.4377 68.1793 29.347 68.2698 29.2926C68.7767 28.8936 69.0663 28.3313 68.8672 27.6421C68.7224 27.3337 68.5232 27.0435 68.2698 26.8803C67.7629 26.5719 67.075 26.5719 66.4233 26.6808C66.2785 26.7352 66.0794 26.7896 65.9164 26.8259C65.4639 26.971 64.9208 27.2249 64.5587 27.5332C64.1062 27.9323 63.7984 28.4945 63.9975 29.1475C64.3053 30.0544 65.1018 30.2539 65.9526 30.1995L66.007 30.9069C64.8122 31.0157 63.7984 30.5985 63.4001 29.347C62.8571 27.6239 64.2691 26.4268 65.7173 25.9734Z" fill="white"/>
<path d="M69.6821 46.3604C69.5373 46.8138 69.4286 47.2129 69.0847 47.5212C68.8312 47.7207 68.5778 47.8658 68.2882 47.8658C68.089 47.9202 67.9442 47.8658 67.7451 47.8114C67.0391 47.6663 66.6951 47.104 66.6951 46.3967C66.5865 46.5055 66.5503 46.5962 66.4417 46.705C66.0977 47.2129 65.446 47.4124 64.8305 47.2129C64.3236 47.104 63.9254 46.8138 63.7262 46.306C63.4728 45.7437 63.5814 45.3084 63.7262 44.7461L64.3236 42.4789L66.4236 43.0774L68.2701 43.5309L70.2795 44.075L69.6821 46.3604Z" fill="white"/>
<path d="M65.6276 40.2842C65.881 40.4837 66.1888 40.5925 66.4241 40.5925C66.5689 40.6469 66.7318 40.6469 66.8767 40.6469L68.2887 40.7557L70.7507 40.9008V41.5538L68.2887 41.4087L66.8405 41.2999C66.6956 41.2999 66.587 41.2999 66.4422 41.2455C65.9896 41.1911 65.537 41.1004 65.1931 40.7376C64.7405 40.2842 64.5957 39.6312 64.5957 39.0326C64.65 38.4341 64.7948 37.7811 65.3017 37.4184C65.6457 37.11 66.062 37.0193 66.4603 37.0193H67.112L68.3068 37.0738L71.0222 37.2733L70.9679 38.0351L68.3068 37.89L67.0577 37.7993H66.4603C66.2612 37.8537 66.0077 37.89 65.8629 37.9988C65.4646 38.1983 65.3198 38.7606 65.3198 39.1596C65.2112 39.5405 65.3198 39.994 65.6276 40.2842Z" fill="white"/>
<path d="M50.8742 17.2309C49.1726 16.1245 47.308 15.2176 45.3529 14.5646C44.7012 14.3107 43.9952 14.1656 43.3435 13.9661C42.5831 13.821 41.8952 13.6577 41.1349 13.567C40.1393 13.4219 39.1255 13.3675 38.0755 13.3131H37.7316C36.6273 13.3131 35.4687 13.4219 34.3645 13.567C33.6041 13.6759 32.9162 13.821 32.2102 13.9661C31.5042 14.1112 30.8525 14.3107 30.2008 14.5102C28.1914 15.1632 26.3449 16.0701 24.5889 17.2309C17.9814 21.5477 13.6367 28.9842 13.6367 37.4727C13.6367 45.9612 17.9995 53.4522 24.6251 57.769C26.3811 58.8754 28.2276 59.7823 30.237 60.4352C30.8887 60.6892 31.5404 60.8343 32.2464 61.0338C32.9524 61.1789 33.6584 61.3421 34.4007 61.4328C35.5049 61.5779 36.6635 61.6323 37.7678 61.6323H38.1117C39.1617 61.6323 40.1755 61.5235 41.1711 61.4328C41.9314 61.2877 42.6193 61.1789 43.3797 60.9794C44.0314 60.8343 44.7374 60.6348 45.3891 60.4352C47.3442 59.7823 49.1907 58.8754 50.9104 57.769C57.5361 53.4522 61.8989 45.9612 61.8989 37.4727C61.8989 28.9842 57.4999 21.5477 50.8742 17.2309Z" fill="#006755"/>
<path d="M41.1528 16.3785C41.4062 16.4329 41.6597 16.4873 41.9131 16.6324C42.3657 16.832 42.8726 17.1766 43.3614 17.5937C44.0131 18.1923 44.7191 18.8997 45.3708 19.5526C45.9139 20.2056 46.4207 20.8041 46.7828 21.312C48.5931 23.6699 49.6973 25.8283 49.987 26.6808C50.2947 27.4789 46.1311 29.0931 45.3708 28.6397C45.2621 28.6397 45.2621 28.5853 45.2259 28.5309C45.1354 28.023 44.4294 25.3749 43.3795 22.5454C42.7278 20.8948 42.0217 19.2261 41.1709 17.9746C41.0804 17.7751 40.9718 17.63 40.827 17.4305C40.1934 16.6324 40.6097 16.3241 41.1528 16.3785Z" fill="white"/>
<path d="M38.2933 17.3398C38.239 16.8319 38.8363 16.578 39.1984 16.8863C39.4518 17.0314 39.5424 17.1403 39.7053 17.3398C40.2122 17.9928 40.7009 18.8452 41.1535 19.8065C42.113 21.7654 42.8552 24.1233 43.3621 25.9371C43.706 27.3519 43.9232 28.3495 43.9594 28.6941C44.0138 28.948 43.7603 29.1475 43.3621 29.2926C42.819 29.4921 42.0043 29.6372 41.1535 29.7461C39.7053 29.8912 38.1484 29.8549 38.1484 29.4015C38.1484 28.4402 38.1484 21.5478 38.2933 17.3398Z" fill="white"/>
<path d="M36.247 16.8863C36.591 16.578 37.2065 16.8319 37.1522 17.3398C37.297 21.5659 37.297 28.4402 37.297 29.4015C37.297 29.8549 35.8488 29.9093 34.3824 29.7461C33.5859 29.6917 32.7713 29.5466 32.2282 29.347C31.7213 29.1475 31.4317 28.948 31.4679 28.6941C31.5222 28.3495 31.7756 27.1342 32.2282 25.5381C32.7351 23.7243 33.423 21.4752 34.3824 19.607C34.7807 18.7545 35.2876 17.9565 35.7945 17.3398C35.9393 17.1221 36.0479 17.0314 36.247 16.8863Z" fill="white"/>
<path d="M34.3823 16.3785C34.8892 16.3785 35.1789 16.6868 34.6358 17.4305C34.5272 17.5756 34.491 17.6844 34.3823 17.8295C33.5858 19.0266 32.8255 20.6409 32.2281 22.2551C31.0695 25.1753 30.3273 28.0411 30.2187 28.5308C29.9109 29.2926 25.1499 27.5333 25.4577 26.6808C25.7654 25.8283 26.9059 23.6699 28.6619 21.312C29.0601 20.8041 29.6213 20.1149 30.2187 19.4619C30.8161 18.7545 31.5221 18.1016 32.2281 17.503C32.6807 17.1584 33.1332 16.8501 33.5315 16.6505C33.8393 16.4692 34.1289 16.3785 34.3823 16.3785Z" fill="white"/>
<path d="M20.5878 22.6542C21.493 21.2031 22.9955 19.7884 24.6067 18.5913C26.0187 17.5937 27.5574 16.7412 28.9694 16.2334C29.422 16.0883 29.8203 15.925 30.2185 15.8343C31.0151 15.6348 31.7211 15.526 32.2279 15.526C32.9883 15.526 33.2236 15.7799 32.7348 16.1246C32.5357 16.2334 32.3909 16.3241 32.2279 16.4329C31.5219 16.8863 30.8702 17.4305 30.2185 18.0834C27.7022 20.4958 25.548 23.8694 24.6067 25.3749C24.4075 25.7195 24.2627 25.9734 24.2084 26.0822C23.7558 26.7715 20.0991 23.3616 20.5878 22.6542Z" fill="white"/>
<path d="M21.403 31.1971C22.2538 30.2902 23.3581 29.8368 24.6072 29.7823H24.9149C27.92 29.7823 29.6217 31.6868 29.9837 35.5139L27.2683 35.7134C27.2683 33.4099 26.3632 32.1403 24.8063 32.1403H24.6072C22.996 32.2491 22.1452 34.0992 22.1452 37.6179C22.1452 39.2684 22.29 41.0822 23.2495 42.0798C23.5934 42.4244 24.046 42.6239 24.6072 42.7328H24.9511C26.3088 42.7328 27.2502 41.572 27.5036 39.5586L29.9656 39.7582C29.6217 43.1318 27.7028 45.127 24.8063 45.127H24.6072C23.3581 45.0726 22.2538 44.6191 21.403 43.7122C20.0453 42.4063 19.3031 40.1028 19.3031 37.4365C19.2849 34.8065 20.0453 32.5574 21.403 31.1971Z" fill="white"/>
<path d="M32.2273 59.2745C31.7204 59.2745 31.0325 59.1838 30.2179 58.9299C29.8196 58.8392 29.4213 58.7303 28.9688 58.5852C27.5567 58.0774 26.018 57.2249 24.606 56.1729C22.9948 55.0121 21.4923 53.5611 20.5872 52.1463C20.0803 51.4389 23.737 48.029 24.1896 48.7364C24.2439 48.8271 24.3887 49.081 24.5879 49.4438C25.5473 50.9492 27.7016 54.2684 30.1998 56.7352C30.8515 57.3337 31.5032 57.9323 32.2092 58.3857C32.354 58.4764 32.5169 58.5852 32.716 58.6941C33.2229 59.0206 32.9876 59.2745 32.2273 59.2745Z" fill="white"/>
<path d="M34.3823 58.422C34.1289 58.3676 33.8393 58.3313 33.5315 58.1681C33.1332 57.9686 32.6807 57.6602 32.2281 57.2612C31.5221 56.717 30.8161 56.0097 30.2187 55.3567C29.6213 54.6493 29.0601 53.9964 28.6619 53.5066C26.9059 51.0943 25.7473 48.9903 25.4577 48.1378C25.1499 47.2854 29.9109 45.4716 30.2187 46.2334C30.3273 46.7412 31.0695 49.607 32.2281 52.5091C32.8255 54.1596 33.5858 55.7739 34.3823 56.971C34.491 57.1161 34.5272 57.2249 34.6358 57.37C35.1789 58.1136 34.8892 58.422 34.3823 58.422Z" fill="white"/>
<path d="M37.1338 57.6784C37.1881 58.023 36.5907 58.2225 36.2287 57.9323C36.0296 57.7872 35.9209 57.624 35.7761 57.4789C35.2692 56.8259 34.7805 56.0641 34.3641 55.2116C33.4046 53.3616 32.7167 51.0944 32.2099 49.2262C31.7573 47.6663 31.5038 46.4148 31.4495 46.052C31.3952 45.7981 31.703 45.5986 32.2099 45.3991C32.7529 45.1996 33.5676 45.0545 34.3641 44.9456C35.8123 44.8005 37.2787 44.8912 37.2787 45.3447C37.2968 46.3241 37.2968 53.5067 37.1338 57.6784Z" fill="white"/>
<path d="M37.0957 38.2346V42.1523H35.1406V32.0496H38.0914H41.1508V34.0084H38.0914H37.0957V36.312H38.0914H40.2999V38.2346H38.0914H37.0957Z" fill="white"/>
<path d="M39.3426 57.9142C38.9443 58.2225 38.3469 58.023 38.3831 57.6603C38.2383 53.4885 38.2383 46.306 38.2383 45.3447C38.2383 44.8912 39.6865 44.8005 41.1528 44.9456C41.9494 45.0545 42.764 45.1996 43.3614 45.3991C43.814 45.5986 44.1217 45.7981 44.0674 46.052C44.0131 46.3967 43.7596 47.6663 43.3614 49.2262C42.8545 51.0762 42.1123 53.3434 41.1528 55.2116C40.7546 56.0641 40.302 56.8259 39.7951 57.4789C39.6503 57.624 39.5417 57.7691 39.3426 57.9142Z" fill="white"/>
<path d="M41.153 58.422C40.6461 58.422 40.3565 58.1136 40.8996 57.37C40.9901 57.2249 41.0987 57.1161 41.153 56.971C42.0038 55.7739 42.7099 54.1596 43.3616 52.5091C44.4658 49.5889 45.208 46.7231 45.3167 46.2334H45.371C45.6244 45.4716 50.3855 47.2854 50.0777 48.1378C49.77 48.9903 48.6657 51.0943 46.8735 53.5066C46.5296 54.0145 45.9684 54.6675 45.371 55.3567C44.7193 56.0097 44.0133 56.717 43.3616 57.2612C42.8547 57.6602 42.4021 57.9686 42.0038 58.1681C41.7142 58.3313 41.4065 58.3676 41.153 58.422Z" fill="white"/>
<path d="M54.9829 52.1463C54.0234 53.5974 52.5209 55.0665 50.8735 56.2092C49.4615 57.2068 47.959 58.0593 46.5651 58.5671C46.1125 58.7122 45.7142 58.8211 45.3703 58.9118C44.5194 59.1657 43.8134 59.2564 43.3609 59.2564C42.6005 59.2564 42.3109 59.0024 42.854 58.6578C42.9988 58.549 43.1617 58.4583 43.3609 58.3495C44.0126 57.896 44.7186 57.2975 45.3703 56.6989C47.7779 54.341 49.9322 51.0762 50.8916 49.5163C51.1451 49.1173 51.2899 48.809 51.3985 48.7183C51.7787 48.029 55.4354 51.439 54.9829 52.1463Z" fill="white"/>
<path d="M49.5359 42.098C49.8798 42.4426 50.3324 42.6421 50.8936 42.7509H51.2375C52.5953 42.7509 53.5366 41.5901 53.79 39.5768L56.1977 39.7763C55.89 43.15 53.9892 45.1451 51.0927 45.1451H50.8936C49.6445 45.0907 48.5402 44.6373 47.6351 43.7304C46.3317 42.4244 45.5352 40.1209 45.5352 37.4547C45.5352 34.7884 46.3317 32.5393 47.6351 31.179C48.5402 30.2721 49.5902 29.8186 50.8936 29.7642H51.2013C54.1521 29.7642 55.8719 31.6687 56.2158 35.4958L53.5547 35.6953C53.5547 33.3918 52.6496 32.1221 51.0927 32.1221H50.8936C49.2462 32.231 48.4316 34.081 48.4316 37.5998C48.4316 39.2866 48.5221 41.1004 49.5359 42.098Z" fill="white"/>
<path d="M51.2715 26.0641C51.1629 25.9553 51.0724 25.7195 50.8732 25.4111C49.9681 23.9601 47.8138 20.6409 45.3519 18.1741C44.7002 17.5212 43.9941 16.977 43.3424 16.4692C43.1433 16.3603 42.9442 16.2152 42.6907 16.1246C42.1839 15.7255 42.4916 15.526 43.3424 15.526C43.8493 15.526 44.501 15.6348 45.3519 15.8706C45.6958 15.9794 46.0579 16.0701 46.4561 16.2152C47.8682 16.7231 49.4069 17.5756 50.8732 18.6276C52.4844 19.7884 53.9326 21.2394 54.892 22.6542C55.3446 23.3616 51.6878 26.7715 51.2715 26.0641Z" fill="white"/>
<path d="M18.1976 15.4172L19.3381 14.474L19.6459 14.2201L19.3381 13.9662L17.3287 12.7147L17.0391 12.5151L17.3287 13.3132L18.1976 15.4172Z" fill="#006755"/>
<path d="M13.7812 19.4438L14.2881 19.8428L15.3381 20.6953L15.5372 20.8404L16.4967 19.6796C16.551 19.6251 16.551 19.6251 16.6053 19.5707C16.7501 19.3168 16.9492 19.0629 16.9492 18.7727C16.9492 18.428 16.8044 18.1741 16.6053 17.9746C16.551 17.9746 16.551 17.9202 16.551 17.9202C16.2432 17.6663 15.845 17.5756 15.501 17.6663C15.4467 17.6663 15.3924 17.6663 15.3562 17.7207C15.0484 17.8295 14.8493 18.0653 14.6502 18.3192L14.3062 18.7727L13.7812 19.4438Z" fill="#006755"/>
<path d="M30.6703 10.5924C30.8694 10.6469 31.0686 10.6469 31.2677 10.5924C32.5711 10.2841 32.6254 8.74238 32.372 7.67225C32.2272 7.12811 31.9737 6.51142 31.6117 6.11239C31.3582 5.85846 31.0143 5.65894 30.6522 5.60453C30.5074 5.55012 30.3083 5.55012 30.1091 5.60453C28.7514 5.91287 28.7514 7.45459 29.0049 8.561C29.2221 9.44975 29.7652 10.4473 30.6703 10.5924Z" fill="#006755"/>
<path d="M37.0435 9.84888H37.1521C38.4012 9.79447 38.7632 8.28903 38.7632 7.23703C38.7632 6.6929 38.6546 6.03993 38.365 5.53207C38.0572 5.07863 37.659 4.73401 37.0616 4.73401C35.6495 4.78842 35.3599 6.29386 35.3599 7.40027C35.3418 8.43413 35.7944 9.84888 37.0435 9.84888Z" fill="#006755"/>
<path d="M12.7673 18.5913L13.2742 19.0447L14.0707 18.1378C14.125 18.029 14.2155 17.9383 14.2698 17.8295C14.4146 17.63 14.5776 17.3761 14.5776 17.0677C14.6319 16.8138 14.469 16.5236 14.2698 16.3241C14.2155 16.3241 14.2155 16.2696 14.2155 16.2696C13.9078 16.0157 13.6181 15.9613 13.2561 16.1245C13.0569 16.179 12.9121 16.3241 12.7492 16.5236C12.6949 16.578 12.6406 16.6324 12.6044 16.6687L11.8984 17.5212L11.6992 17.7207L11.8984 17.9202L12.7673 18.5913Z" fill="#006755"/>
<path d="M50.9274 9.84882C51.2714 9.99392 51.6335 10.1934 52.0317 10.1572C52.3395 10.0665 52.5748 9.84882 52.7377 9.55861C52.7377 9.55861 52.792 9.5042 52.792 9.44978C52.9006 9.25027 52.9006 9.05075 52.792 8.79682C52.7377 8.74241 52.7377 8.68799 52.7015 8.65172C52.5024 8.34337 52.2489 8.25268 51.9955 8.10758L50.7464 7.50903L50.6559 7.76296L49.8594 9.37723L50.6559 9.72185L50.9274 9.84882Z" fill="#006755"/>
<path d="M50.6198 12.8053C50.7103 12.8053 50.819 12.8053 50.9276 12.7509C51.2715 12.6965 51.525 12.497 51.6879 12.2067C51.8327 11.8621 51.8327 11.445 51.6879 11.1548C51.5431 10.8101 51.181 10.6106 50.8371 10.4474L50.6379 10.3385L49.588 9.83069L48.5742 11.8984L49.9319 12.5514C50.1854 12.6602 50.3845 12.7509 50.6198 12.8053Z" fill="#006755"/>
<path d="M34.1814 65.0605L33.6383 64.9517L32.6788 64.861L32.3711 67.0738L33.6202 67.2189H33.8193C34.2176 67.3277 34.5796 67.3277 34.9236 67.0738C35.1227 66.8743 35.2675 66.5659 35.3219 66.2757C35.3762 65.9311 35.2675 65.6227 35.0141 65.3688C34.7788 65.1512 34.5253 65.0968 34.1814 65.0605Z" fill="#006755"/>
<path d="M67.5281 44.1656L67.2203 45.3627C67.1117 45.7074 66.9669 46.1245 67.1117 46.4692C67.2565 46.7775 67.51 47.0314 67.8177 47.0677C67.9625 47.1221 68.1255 47.1221 68.2703 47.1221C68.4151 47.0677 68.578 46.977 68.7229 46.8682C68.9763 46.6143 69.0306 46.3603 69.1211 46.0701L69.4651 44.7098L68.2703 44.3652L67.5281 44.1656Z" fill="#006755"/>
<path d="M49.7344 62.7388L50.1326 65.8585L50.6214 65.6046L51.8343 65.006L50.6214 63.7001L49.7344 62.7388Z" fill="#006755"/>
<path d="M64.7591 43.4039L64.3609 44.9093C64.2704 45.2177 64.2161 45.6167 64.3609 45.9069C64.4695 46.2152 64.7048 46.4148 65.0126 46.5054C65.4108 46.5961 65.8091 46.5054 66.0625 46.3059C66.2617 46.1971 66.3703 45.9976 66.4065 45.7981C66.5151 45.653 66.5151 45.4897 66.5513 45.3446L66.9496 43.9843L66.4065 43.8755L64.7591 43.4039Z" fill="#006755"/>
<path d="M39.1442 65.4051L38.3477 68.416L39.5062 68.3616L40.2485 68.3253L39.5062 66.3664L39.1442 65.4051Z" fill="#006755"/>
<path d="M7.55477 34.2624L7.7539 32.8114C7.80821 32.4123 7.86252 32.0496 7.55477 31.705C7.40995 31.451 7.1022 31.3604 6.79445 31.3059C6.74015 31.3059 6.64963 31.2515 6.59532 31.2515C6.28757 31.3059 6.08844 31.3966 5.88931 31.5961C5.69018 31.8501 5.63587 32.104 5.58156 32.3942L5.32812 33.9541L6.57722 34.0992L7.55477 34.2624Z" fill="#006755"/>
<path d="M26.8691 66.4571L27.7743 66.7654L28.6613 67.0556L28.7156 63.954L27.7743 65.2056L26.8691 66.4571Z" fill="#006755"/>
<path d="M25.5121 63.7908C25.6569 63.4825 25.7655 63.0834 25.5664 62.7388C25.4578 62.4305 25.2586 62.2854 25.0233 62.1766L24.969 62.1221L23.7742 61.4692L22.6699 63.5732L23.8285 64.2261C24.1363 64.3712 24.4259 64.4801 24.8242 64.3712C24.8785 64.3712 24.969 64.3168 25.0233 64.2805C25.2043 64.208 25.4034 64.0085 25.5121 63.7908Z" fill="#006755"/>
<path d="M56.051 14.3652L56.7027 12.4607L57.0466 11.445L56.7027 11.6989L54.9467 12.9142L54.4941 13.2588L54.9467 13.5671L56.051 14.3652Z" fill="#006755"/>
<path d="M7.86114 40.9916C8.11458 40.9916 8.40423 40.9371 8.65767 40.9009C9.5085 40.6469 10.305 40.1028 10.2145 39.1415C10.1602 38.2346 9.45419 37.7812 8.65767 37.6361C8.31371 37.5272 7.89735 37.5272 7.5534 37.5816C7.24565 37.5816 6.90169 37.6361 6.59394 37.7267C6.34051 37.7812 6.08707 37.8718 5.88793 38.0351C5.43536 38.3434 5.09141 38.8332 5.12762 39.3954C5.18192 40.3023 5.83363 40.7558 6.57584 40.9009C7.01031 40.9916 7.46288 41.046 7.86114 40.9916Z" fill="#006755"/>
</svg>
