<svg width="74" height="74" viewBox="0 0 74 74" fill="none" xmlns="http://www.w3.org/2000/svg">
<path d="M74 37C74 57.4395 57.4395 74 37 74C16.5605 74 0 57.4395 0 37C0 16.5605 16.5605 0 37 0C57.4395 0 74 16.5605 74 37Z" fill="white"/>
<path fill-rule="evenodd" clip-rule="evenodd" d="M62.5115 11.5849C59.1608 8.23595 55.1831 5.58004 50.8056 3.7689C46.4281 1.95775 41.7367 1.02687 36.9994 1.02942V1.02942C27.4476 1.03132 18.2856 4.81741 11.5189 11.5589C4.75222 18.3005 0.93202 27.4483 0.894531 37V37C0.932411 46.5517 4.75269 55.6994 11.5193 62.4411C18.2858 69.1828 27.4476 72.9694 36.9994 72.972V72.972C46.5512 72.9694 55.7129 69.1828 62.4795 62.4411C69.2461 55.6994 73.0663 46.5517 73.1042 37C73.1042 32.2741 72.1681 27.595 70.35 23.2329C68.5319 18.8707 65.8678 14.9119 62.5115 11.5849V11.5849ZM72.0449 37C72.0106 46.2717 68.303 55.1519 61.7343 61.6955C55.1655 68.2391 46.2712 71.9125 36.9994 71.9113V71.9113C27.7274 71.9125 18.8329 68.2391 12.2639 61.6956C5.69497 55.1521 1.98705 46.2719 1.95231 37V37C1.98784 27.7284 5.69601 18.8486 12.2648 12.3053C18.8336 5.76191 27.7277 2.08824 36.9994 2.0887V2.0887C46.2708 2.08863 55.1645 5.76248 61.733 12.3058C68.3014 18.8491 72.0094 27.7286 72.0449 37V37Z" fill="#1E3D8E"/>
<path fill-rule="evenodd" clip-rule="evenodd" d="M37.0004 11.7401C23.1553 11.7401 11.8613 23.0862 11.8613 37C11.8613 50.9138 23.1553 62.2615 37.0004 62.2615C50.8456 62.2615 62.1396 50.9138 62.1396 37C62.1396 23.0862 50.8456 11.7401 37.0004 11.7401Z" fill="#1E3D8E"/>
<path fill-rule="evenodd" clip-rule="evenodd" d="M37.6303 49.6233L38.6165 52.6519H41.8003L39.2237 54.5243L40.2069 57.5529L37.6303 55.6806L35.0552 57.5529L36.0399 54.5243L33.4648 52.6519H36.6486L37.6303 49.6233Z" fill="white"/>
<path fill-rule="evenodd" clip-rule="evenodd" d="M51.1978 28.5557L52.1809 31.5843H55.3677L52.7897 33.4567L53.7743 36.4853L51.1978 34.6129L48.6212 36.4853L49.6059 33.4567L47.0293 31.5843H50.2146L51.1978 28.5557Z" fill="white"/>
<path fill-rule="evenodd" clip-rule="evenodd" d="M41.1232 34.5935L41.8543 36.8463H44.2264L42.3093 38.2398L43.0418 40.4941L41.1232 39.1006L39.2061 40.4941L39.9386 38.2398L38.0215 36.8463H40.3922L41.1232 34.5935Z" fill="white"/>
<path fill-rule="evenodd" clip-rule="evenodd" d="M37.0103 15.9906L37.9949 19.0177H41.1787L38.6037 20.8901L39.5868 23.9187L37.0103 22.0479L34.4352 23.9187L35.4184 20.8901L32.8418 19.0177H36.0256L37.0103 15.9906Z" fill="white"/>
<path fill-rule="evenodd" clip-rule="evenodd" d="M23.1978 28.302L24.1824 31.3306H27.3662L24.7897 33.203L25.7743 36.2301L23.1978 34.3593L20.6212 36.2301L21.6059 33.203L19.0293 31.3306H22.2146L23.1978 28.302Z" fill="white"/>
<path d="M12.1042 18.7029C11.873 18.594 11.124 18.3269 10.6287 19.0639C10.0692 19.8979 10.7003 20.7051 11.4776 21.2302C12.2549 21.7554 13.244 22.0269 13.8035 21.1944C14.2049 20.5976 13.9408 20.0784 13.4693 19.6085L14.645 17.8599C15.8147 18.6492 16.4114 20.4216 15.2776 22.1135C14.0213 23.9828 11.9953 24.1574 10.2811 23.0086C8.45941 21.7822 8.02526 19.8278 9.22179 18.0524C10.2945 16.471 11.7163 16.1562 13.2694 16.9752L12.1042 18.7029Z" fill="#1E3D8E"/>
<path d="M13.7402 12.7247L16.924 10.1646C17.8729 9.40071 19.1142 9.26942 19.9407 10.2899C20.3883 10.8524 20.6106 11.652 20.2212 12.304C20.818 12.1116 21.5013 12.3861 22.107 13.0142C22.3427 13.2618 22.8694 13.9004 23.2245 14.0287L21.5535 15.3714C21.2585 15.1591 20.987 14.9161 20.7434 14.6464C20.2824 14.166 19.8035 13.6647 19.144 14.1988L18.2489 14.9149L19.7721 16.8052L18.0997 18.1479L13.7402 12.7247ZM17.3209 13.7512L18.1952 13.0485C18.507 12.7964 18.8889 12.4025 18.4935 11.9161C18.2175 11.573 17.8699 11.5297 17.2314 12.0429L16.4496 12.671L17.3209 13.7512Z" fill="#1E3D8E"/>
<path d="M29.4422 8.52942C30.1434 10.3197 29.5093 11.5685 27.5281 12.3413C25.5468 13.1141 24.2294 12.6397 23.5282 10.836L21.9766 6.86293L23.9743 6.08414L25.3528 9.61704C25.6109 10.2795 25.9347 11.109 26.9059 10.7285C27.8518 10.3585 27.5281 9.53499 27.2699 8.86958L25.8914 5.33668L27.8891 4.5564L29.4422 8.52942Z" fill="#1E3D8E"/>
<path d="M31.8543 9.02469L34.8278 5.29486L31.7782 5.52014L31.6484 3.74026L37.5132 3.31207L37.6266 4.86816L34.6368 8.71437L38.0444 8.46522L38.1727 10.2436L31.9692 10.6912L31.8543 9.02469Z" fill="#1E3D8E"/>
<path d="M41.2573 3.58063L46.8879 4.807L46.509 6.54958L42.9686 5.78422L42.7836 6.63313L45.9942 7.32986L45.6541 8.9516L42.4434 8.25337L42.2525 9.10079L45.8943 9.89152L45.5138 11.6371L39.7773 10.3898L41.2573 3.58063Z" fill="#1E3D8E"/>
<path d="M50.1156 6.11694L52.0551 7.02702L49.1055 13.3305L47.166 12.4219L50.1156 6.11694Z" fill="#1E3D8E"/>
<path d="M55.1547 8.67261L58.3683 11.1895C59.3276 11.9355 59.7394 13.1201 58.9278 14.157C58.4802 14.7239 57.7506 15.1178 57.0285 14.885C57.3508 15.4236 57.2374 16.1502 56.763 16.8812C56.575 17.1692 56.0707 17.8256 56.0259 18.2001L54.3386 16.8753C54.478 16.5399 54.6536 16.2207 54.8622 15.9234C55.2263 15.3654 55.6082 14.7851 54.9398 14.2614L54.0447 13.5572L52.5453 15.4669L50.8594 14.142L55.1547 8.67261ZM54.9652 12.3831L55.8469 13.0738C56.1617 13.3215 56.6317 13.6049 57.0166 13.1141C57.2896 12.7695 57.2538 12.4189 56.6093 11.9206L55.8186 11.3014L54.9652 12.3831Z" fill="#1E3D8E"/>
<path d="M64.7784 18.0524C65.972 19.8024 65.5035 21.8255 63.7445 23.0205C61.9855 24.2156 59.9341 23.8993 58.7465 22.1493C57.5589 20.3992 58.0214 18.3761 59.7789 17.1811C61.5364 15.9861 63.5893 16.3009 64.7784 18.0524ZM60.1803 21.175C60.4876 21.6226 61.2574 22.1164 62.539 21.2451C63.8206 20.3738 63.649 19.4787 63.3417 19.0266C63.0343 18.5746 62.266 18.0852 60.9844 18.955C59.7028 19.8248 59.8744 20.7215 60.1803 21.1735V21.175Z" fill="#1E3D8E"/>
<path d="M63.7213 37.8415L63.2871 32.0945L65.067 31.9603L65.346 35.5678L66.2113 35.5021L65.9651 32.2199L67.6182 32.0945L67.8659 35.3768L68.7297 35.3111L68.4507 31.5977L70.2306 31.4634L70.6782 37.3163L63.7213 37.8415Z" fill="#1E3D8E"/>
<path d="M62.3457 45.6115L63.1469 41.8817C63.5318 40.0913 64.6254 39.9257 65.3206 40.0749C66.0159 40.2241 66.3068 40.6359 66.4754 41.1998C66.8155 40.6344 67.4243 40.1674 68.4268 40.3837C69.789 40.6821 70.241 42.01 69.9829 43.211L69.1519 47.0721L62.3457 45.6115ZM65.4474 44.0823L65.6861 42.9767C65.7786 42.5381 65.7145 42.2308 65.2774 42.1412C64.9342 42.0681 64.7477 42.3262 64.6552 42.7559L64.418 43.8629L65.4474 44.0823ZM67.9837 44.6283L68.2478 43.399C68.3418 42.9603 68.2985 42.5515 67.7749 42.4381C67.375 42.3531 67.1035 42.5441 66.9976 43.0349L66.7156 44.3493L67.9837 44.6283Z" fill="#1E3D8E"/>
<path d="M65.4584 49.3652C67.1443 50.3096 67.4412 51.6732 66.4013 53.5277C65.3614 55.3822 64.0381 55.8477 62.3627 54.9033L58.6328 52.8146L59.6772 50.9437L62.9863 52.7981C63.6069 53.1473 64.3827 53.5799 64.8915 52.6698C65.3868 51.7851 64.614 51.351 63.9963 51.0033L60.6872 49.1489L61.7316 47.2765L65.4584 49.3652Z" fill="#1E3D8E"/>
<path d="M53.9258 57.7215L55.4446 56.2057L59.0983 59.8744L61.281 57.6976L62.5402 58.9628L58.8387 62.6508L53.9258 57.7215Z" fill="#1E3D8E"/>
<path d="M52.1348 62.0645C51.9782 61.8631 51.4336 61.2828 50.6578 61.7139C49.779 62.2003 49.9715 63.2059 50.4251 64.0264C50.8786 64.847 51.632 65.5422 52.5138 65.0559C53.1448 64.7053 53.1463 64.1264 52.9405 63.4938L54.7815 62.4718C55.4633 63.6997 55.1888 65.5572 53.4059 66.5448C51.4366 67.6369 49.5493 66.8671 48.5527 65.0678C47.4889 63.1492 47.9947 61.2067 49.87 60.1683C51.547 59.2493 52.9539 59.6178 53.9624 61.053L52.1348 62.0645Z" fill="#1E3D8E"/>
<path d="M35.7617 63.8309L41.5131 63.4774L41.6235 65.2587L38.0116 65.481L38.0668 66.3463L41.349 66.1449L41.452 67.7995L38.1697 68.0009L38.2219 68.8677L41.9398 68.6395L42.0487 70.4193L36.1899 70.7804L35.7617 63.8309Z" fill="#1E3D8E"/>
<path d="M29.9111 64.6008L28.0059 64.1815L28.3878 62.439L34.2944 63.734L33.9124 65.478L32.0072 65.0603L30.8972 70.1209L28.7951 69.6644L29.9111 64.6008Z" fill="#1E3D8E"/>
<path d="M21.633 58.9866L25.2136 60.9515C26.2833 61.5364 26.8831 62.6329 26.258 63.7862C25.9103 64.4173 25.2539 64.926 24.5034 64.8141C24.9092 65.293 24.9152 66.0301 24.5661 66.8282C24.4273 67.1416 24.038 67.8726 24.0544 68.2486L22.173 67.2176C22.2567 66.8642 22.3778 66.5206 22.5341 66.1927C22.8026 65.584 23.0846 64.9484 22.3401 64.5411L21.3405 63.9906L20.1723 66.1196L18.291 65.0886L21.633 58.9866ZM22.0492 62.6851L23.0324 63.2237C23.383 63.4162 23.8947 63.6191 24.1961 63.0745C24.4065 62.6911 24.314 62.3509 23.5993 61.9571L22.7191 61.4737L22.0492 62.6851Z" fill="#1E3D8E"/>
<path d="M18.0001 55.4105C19.4652 56.9368 19.3428 59.0105 17.8136 60.4831C16.2843 61.9556 14.2046 61.9885 12.741 60.4622C11.2774 58.936 11.3983 56.8622 12.9275 55.3896C14.4567 53.9171 16.5335 53.8843 18.0001 55.4105ZM13.9898 59.2597C14.3687 59.6521 15.2087 60.0057 16.3276 58.933C17.4466 57.8603 17.1258 57.0054 16.7483 56.6115C16.3709 56.2176 15.5279 55.8655 14.4105 56.9368C13.293 58.008 13.6123 58.8643 13.9898 59.2597Z" fill="#1E3D8E"/>
<path d="M11.9883 46.4843L13.607 49.6815C14.4604 51.3688 13.5265 52.5848 12.6388 53.0338C11.1334 53.7947 9.91896 53.1428 9.19686 51.7165L8.62396 50.5856L6.74561 51.5359L5.77734 49.6233L11.9883 46.4843ZM10.1025 49.8426L10.4769 50.5766C10.7276 51.072 11.0275 51.5762 11.6541 51.2599C12.218 50.9735 12.033 50.5214 11.8033 50.0515L11.3721 49.1981L10.1025 49.8426Z" fill="#1E3D8E"/>
<path d="M6.18754 42.0487C6.03304 42.0796 5.88543 42.1382 5.75189 42.2218C5.37145 42.4545 5.37443 42.9305 5.4535 43.3228C5.52064 43.6675 5.73697 44.1718 6.24423 44.0688C6.59931 44.0002 6.63661 43.6854 6.74254 42.4426C6.83653 41.3013 6.89173 40.0078 8.27177 39.7392C9.85173 39.4304 10.7931 40.6478 11.0691 42.0547C11.3586 43.5377 11.0483 44.9595 9.3952 45.337L9.0058 43.3467C9.11529 43.3459 9.22187 43.3114 9.31103 43.2479C9.4002 43.1843 9.46761 43.0949 9.50411 42.9916C9.58563 42.7832 9.60329 42.5552 9.55483 42.3367C9.49814 42.0487 9.32955 41.5907 8.94612 41.6683C8.46572 41.8026 8.55076 42.8007 8.47169 43.8182C8.39262 44.8357 8.13004 45.883 6.87681 46.1277C5.09544 46.4753 4.20177 44.9505 3.90487 43.4288C3.75568 42.653 3.59903 40.3897 5.77725 39.9421L6.18754 42.0487Z" fill="#1E3D8E"/>
<path d="M10.7424 31.9572L10.2769 37.7027L8.4985 37.5535L8.79688 33.9475L7.93156 33.8774L7.66749 37.1596L6.01442 37.0268L6.27999 33.7446L5.41466 33.6745L5.11628 37.3879L3.33789 37.2387L3.80934 31.3873L10.7424 31.9572Z" fill="#1E3D8E"/>
</svg>
