<svg width="61" height="75" viewBox="0 0 61 75" fill="none" xmlns="http://www.w3.org/2000/svg">
<path d="M30.225 75C39.21 71.205 46.89 65.04 52.275 56.88C57.45 49.05 60.45 39.75 60.45 30.195V0H30.225H0V30.195C0 39.75 3 49.05 8.175 56.88C13.56 65.04 21.24 71.205 30.225 75Z" fill="#070308"/>
<path d="M28.0642 2.21997H2.32422V25.11H28.0642V2.21997ZM58.1242 9.08997H30.2242V18.18H58.1242V9.08997ZM9.46422 54.555H50.9842C52.7692 51.69 54.2542 48.645 55.3942 45.465H5.05422C6.19422 48.645 7.67922 51.69 9.46422 54.555ZM2.32422 27.285V30.12C2.32422 32.22 2.47422 34.32 2.77422 36.375H57.6742C57.9742 34.305 58.1242 32.22 58.1242 30.12V27.285H2.32422ZM30.2242 72.51C35.2042 70.38 39.7342 67.335 43.6192 63.66H16.8292C20.7142 67.35 25.2442 70.38 30.2242 72.51Z" fill="#C3281E"/>
<path d="M15.4941 20.025V18.45C14.4891 18.915 13.2591 19.065 12.1641 18.93C9.10406 18.54 7.13906 16.08 7.13906 13.035C7.13906 10.245 8.93906 7.62003 11.7741 7.62003C12.9141 7.62003 13.9941 8.16003 14.4741 9.48003C14.9241 8.49003 14.9841 6.36003 14.6091 5.43003C14.3541 5.40003 14.0841 5.40003 13.8141 5.40003C12.7041 5.40003 11.6241 5.61003 10.7241 5.92503C8.62406 6.64503 6.83906 8.25003 5.77406 10.2C5.05406 11.52 4.73906 12.705 3.91406 12.705C4.85906 16.83 7.82906 20.265 12.2391 20.505C13.3191 20.535 14.3991 20.385 15.4941 20.025ZM13.8141 4.93503C17.3091 4.93503 19.6941 6.85503 19.6941 10.365C19.6941 11.67 19.2891 12.96 18.3891 13.89H20.0391C21.8841 12.015 21.5541 9.67503 22.7991 9.67503C21.0741 5.37003 18.6741 3.28503 13.3041 3.42003C11.6841 3.43503 10.9041 3.45003 9.56906 2.97003L10.5441 5.50503C11.4591 5.17503 12.6291 4.93503 13.8141 4.93503ZM12.6591 20.94C11.9841 20.94 11.2941 20.865 10.6341 20.7C10.6341 22.155 10.3041 22.815 9.68906 23.265C10.4541 24.06 12.4341 24.405 14.0691 23.94C13.0041 23.28 12.6591 22.23 12.6591 20.94ZM23.6541 13.485C23.2941 13.935 22.7991 14.325 21.5991 14.325H17.9691V8.77503H19.0641C18.9141 8.17503 18.6441 7.63503 18.3291 7.15503H17.8491C16.9191 7.15503 16.0491 7.02003 15.1341 6.67503L15.9291 8.76003V14.295C16.9041 14.61 17.5641 15.18 18.2691 15.915H20.4741C21.7191 15.915 22.2141 16.755 22.1091 17.91C24.3141 16.755 23.9391 14.205 23.6541 13.485ZM17.9691 20.97V19.65C17.4141 18.795 16.7391 17.82 15.9441 17.175V20.73C15.9441 22.02 15.5991 22.815 14.9841 23.235C15.7491 24.03 17.7291 24.375 19.3641 23.91C18.2991 23.28 17.9691 22.065 17.9691 20.97ZM25.8141 6.06003C25.4391 6.73503 24.7491 7.15503 23.4891 7.15503H22.0041C22.3191 7.65003 22.6041 8.19003 22.8891 8.77503C24.0741 8.77503 24.4191 10.035 24.2541 10.77C26.5191 9.61503 26.0991 6.78003 25.8141 6.06003ZM21.1491 20.25C20.0841 19.08 19.0491 17.055 17.1591 15.495C15.8541 14.415 14.0991 14.19 12.6441 14.19V8.19003C11.9541 7.99503 11.2941 8.04003 10.6191 8.22003V18.075C11.2641 18.345 11.9541 18.51 12.6441 18.54V15.855C15.0441 15.855 16.1391 16.485 17.3541 18.045C18.6441 19.695 20.3091 22.92 21.8841 24.015C22.8141 23.835 24.8541 22.38 25.0191 20.505C23.7741 21.405 22.3191 21.525 21.1491 20.25Z" fill="white"/>
</svg>
