<svg width="66" height="75" viewBox="0 0 66 75" fill="none" xmlns="http://www.w3.org/2000/svg">
<path d="M32.8926 2.04465C24.9068 11.9424 14.597 15.8075 2.03731 13.3681C1.74887 45.7645 16.6903 61.0685 32.9008 73.3892C48.9383 61.2251 64.1516 45.6656 63.7313 13.3929C50.6854 15.8158 40.9525 12.0578 32.8926 2.04465Z" fill="white"/>
<path fill-rule="evenodd" clip-rule="evenodd" d="M32.8935 0L33.8917 1.24015C37.8105 6.10861 42.0798 9.38904 46.8896 11.1799C51.6992 12.9707 57.1511 13.31 63.4968 12.1314L64.9941 11.8533L65.0139 13.3761C65.227 29.733 61.4744 41.9319 55.5831 51.5994C49.704 61.2466 41.7424 68.293 33.6759 74.4113L32.8998 75L32.1242 74.4106C23.9732 68.2154 16.0352 61.1933 10.1855 51.5736C4.32357 41.9338 0.608028 29.7693 0.754159 13.3567L0.767889 11.8147L2.28169 12.1087C8.36731 13.2907 13.8425 12.9346 18.7358 11.1291C23.63 9.32334 28.0218 6.03814 31.8938 1.23901L32.8935 0ZM3.31777 14.8954C3.40996 30.1059 6.96683 41.342 12.3779 50.2404C17.7994 59.156 25.1286 65.8033 32.9013 71.7751C40.5921 65.8756 47.943 59.2055 53.3919 50.2641C58.8335 41.3347 62.4226 30.0654 62.4564 14.9098C56.3695 15.8394 50.9239 15.42 45.9943 13.5846C41.0852 11.7567 36.7741 8.55665 32.8897 4.04668C29.0109 8.51477 24.5887 11.7046 19.624 13.5364C14.6527 15.3707 9.20499 15.8183 3.31777 14.8954Z" fill="#8E0927"/>
<path d="M56.8576 38.3803C53.3221 48.072 46.3418 58.1428 32.8756 69.0954C19.5742 58.2005 12.5939 48.0472 9.02539 38.3803H56.8576Z" fill="#00613C"/>
<path d="M5.50781 17.3404C21.8749 17.5134 26.5807 14.2087 32.8852 7.20363C39.6925 14.0027 44.2087 17.5464 60.2709 17.3404C60.205 23.7768 59.5787 30.2214 57.3947 36.8309H8.4829C6.24128 30.1473 5.58198 23.6779 5.50781 17.3404Z" fill="#870A28"/>
<path d="M25.1953 18.7579C25.7392 18.9309 26.8353 18.5601 27.4287 19.7138C27.7254 20.2907 28.2528 20.9253 28.4259 22.145L31.813 21.6176C31.4422 20.2825 31.7059 20.2495 31.3763 19.2111C33.4695 19.0133 35.5051 18.5601 37.4006 17.5546C38.3319 18.3293 39.156 18.9886 40.2603 19.4336C36.0573 21.7824 36.4858 23.6861 36.799 24.9306L38.4555 26.892C38.3896 22.7796 41.035 20.1589 44.3315 19.3595C42.0816 18.1398 39.9059 16.7635 37.8539 15.1399C34.1041 16.4585 29.4808 17.9502 27.5358 16.4915L25.1953 18.7579Z" fill="white"/>
<path d="M21.8165 28.3342C21.8083 28.4661 24.6515 26.9002 25.352 27.2381L25.0883 25.6228C28.4177 24.1312 31.8049 23.5048 36.4118 24.2713C36.4447 23.546 36.42 23.0021 36.7497 22.2769C35.2168 22.0049 33.6921 21.9472 32.1263 21.8236C31.0385 21.9225 29.4314 22.0956 28.2529 22.4664C27.0744 22.8373 25.797 23.34 24.7174 23.4471C23.6296 23.5543 23.1104 23.2081 22.1214 22.9609C21.3055 23.9004 20.8276 24.3125 19.5996 25.4086C20.5968 25.1778 22.0885 25.5322 21.8742 27.815L21.8165 28.3342Z" fill="white"/>
<path d="M39.6984 22.7878C42.9372 23.9911 43.0196 22.862 44.4124 22.7466L45.2365 24.3537C40.9593 25.6228 38.9567 30.7159 42.0966 33.6168C39.0391 34.2102 37.226 30.4027 39.6654 25.7629C39.8055 25.491 39.649 25.0624 39.8138 24.7905L38.9072 24.5515C39.0721 23.851 39.3852 23.4554 39.6984 22.7878Z" fill="white"/>
<path d="M41.5877 27.4606C41.2333 28.0127 40.9201 28.7545 40.8789 29.5786C42.5436 30.1555 43.4914 31.0867 44.1424 33.3036C44.1589 33.3696 44.1919 33.4355 44.2166 33.5014C45.0572 35.6689 49.2273 35.7266 49.9525 34.9931C50.1338 34.1525 49.8866 33.6333 49.1284 33.419C48.2548 33.4272 48.3537 34.3008 47.5543 34.0865C46.5736 33.7404 46.0297 33.3119 45.7989 32.4877C45.4446 31.2598 46.1451 29.933 48.0241 29.4879L47.0846 28.1941C45.222 28.3094 43.3513 28.3094 41.5877 27.4606Z" fill="white"/>
<path d="M39.0337 26.7189L38.6052 26.6035L38.5228 26.9991L38.325 27.0815L37.7728 26.4139C35.9103 26.1914 34.056 26.1749 32.1935 26.3727L32.0781 28.5319C34.2785 28.3589 36.413 28.4495 38.3992 28.8039C38.5557 28.0622 38.6958 27.3699 39.0337 26.7189Z" fill="white"/>
<path d="M28.287 24.9058L28.1387 35.7431L31.2951 35.5865L31.4434 33.8558L33.7757 33.7075L34.1548 34.0866C32.4983 38.644 33.4543 41.4048 37.0145 42.3608L37.0887 41.9075C34.7317 40.251 34.3855 36.0645 37.4678 33.8558L36.4871 31.9026C34.6575 31.4164 32.9021 32.7432 31.4434 31.7543L31.9709 24.3042C30.8253 24.4031 29.5891 24.3536 28.287 24.9058Z" fill="white"/>
<path d="M24.2971 45.3689L23.918 48.2286C28.1952 49.1516 32.8845 49.3659 38.3649 47.4786C41.1504 46.5226 43.8536 45.5007 46.7133 45.9705C46.1693 45.1463 48.8478 40.1027 51.1553 43.0366L52.4327 43.1108C51.8558 41.957 51.8805 41.3306 53.6359 40.3252C51.7075 40.1027 50.2982 40.251 48.9714 39.1962C43.1201 44.6601 34.1454 47.4292 24.2971 45.3689Z" fill="white"/>
<path d="M36.1153 35.8914C35.629 36.7402 35.3983 37.2594 35.5137 38.1083C36.7416 38.2237 37.8212 38.8253 38.2992 39.7236L38.3404 35.7348L36.1153 35.8914Z" fill="white"/>
<path d="M28.2211 38.2731L27.875 45.6738C29.037 45.8468 29.9353 45.888 30.9984 45.8633L31.2209 38.2649L28.2211 38.2731Z" fill="white"/>
<path d="M27.7993 49.0198C29.1179 49.1846 30.2552 49.1187 31.2606 49.1681C31.5326 53.6678 33.2303 55.4809 36.9965 56.6759C37.7547 56.9149 38.6778 57.1704 39.2299 57.5165C30.247 58.3571 30.2717 52.58 26.2582 56.989L25.1621 55.4479C26.5137 54.1788 27.3048 51.6982 27.7993 49.0198Z" fill="white"/>
<path d="M27.8577 27.0073C22.4185 27.5347 17.4573 30.617 13.2048 37.4078C12.8751 37.8858 12.2076 38.6275 12.084 38.7676C12.6361 38.8665 13.0482 39.295 13.3037 39.534C15.5041 43.5228 17.9188 45.8303 20.4159 47.1407C20.7703 46.2094 20.8444 45.2782 20.9763 44.3469C19.4269 43.6546 16.0727 40.6219 16.3942 37.3006C18.0012 33.0729 23.119 29.3973 27.8577 29.4714V27.0073Z" fill="white"/>
<path d="M21.9984 31.7379C22.9544 30.9055 23.9845 30.3121 25.1795 30.205L25.2949 36.4024C27.8662 35.7843 30.7094 35.7349 33.2807 35.8997L33.0664 37.9106C30.4374 37.9682 27.5283 37.9682 24.8499 38.8583C24.4378 42.8883 24.0834 46.7452 22.8967 50.6021C24.8581 51.2531 25.8388 52.1102 26.3086 53.0662L25.4103 54.7474C24.1576 53.025 22.9296 52.1102 20.5974 52.5141L19.4766 51.5086C21.9325 46.7864 21.6605 37.6304 21.9984 31.7379Z" fill="white"/>
<path d="M26.5148 56.9808C26.7702 56.8983 27.5202 58.3241 28.8058 58.6867C28.8718 58.7444 29.7041 58.6537 29.2838 58.4889C28.8635 58.3241 28.0806 57.261 27.6026 56C27.6108 56 26.2675 57.0632 26.5148 56.9808Z" fill="white"/>
</svg>
