<svg width="72" height="74" viewBox="0 0 72 74" fill="none" xmlns="http://www.w3.org/2000/svg">
<path fill-rule="evenodd" clip-rule="evenodd" d="M2.09766 19.0134H69.026V2.09515H2.09766V19.0134ZM6.65328 9.43965H9.53466V11.0183H6.65328V15.5709H4.51345V5.44211H9.71966V7.02232H6.65328V9.43965ZM49.0399 9.43965H52.1078V11.0183H49.0399V13.9012H52.4793V15.5709H46.9031V5.44211H52.3868V7.02232H49.0399V9.43965ZM25.8933 5.44211H32.6766V7.11482H30.3549V15.5709H28.1241V7.11482H25.8933V5.44211ZM53.1361 5.44211H59.1779V7.11482C59.1779 7.9057 55.4378 12.7959 55.1803 13.8982H59.3644V15.0128C59.5648 14.6937 60.5977 10.8919 60.7766 10.1982C60.9878 9.3564 61.2267 8.60561 61.4672 7.73149C61.5844 7.29828 61.9174 5.44365 62.3383 5.44365L64.8142 5.45445L67.5383 15.5709H65.5866C65.1981 15.5709 64.8743 13.7424 64.8419 13.3401H61.9637L61.4025 15.5709H52.9434V13.8072C52.9434 13.6006 56.611 7.91803 57.0334 7.11482H53.1361V5.44211ZM23.8444 10.6468C24.9698 10.7408 25.1101 11.4623 25.2319 12.5137C25.2797 12.9377 25.2319 13.6345 25.2319 14.0909C25.2319 14.7353 25.4215 14.9758 25.4215 15.5739H23.4775C22.5525 15.5739 23.9585 11.3914 22.09 11.3914H21.0663V15.5709H18.9234V5.44211H21.4332C23.7858 5.44211 25.1517 5.63482 25.1517 8.0429V8.32503C25.1517 10.2321 24.3639 9.94686 23.8444 10.6468ZM10.7402 10.8333V9.53215C10.7402 7.00228 11.5496 5.34807 14.0857 5.34807H14.1797C16.3134 5.34807 17.5251 6.7032 17.5251 8.78753V11.6704C17.5251 13.6916 16.7635 15.6664 14.8303 15.6664H13.5291C11.2367 15.6664 10.7402 13.2013 10.7402 10.8333ZM33.7959 15.5709L31.8965 15.5585L34.727 5.44211H37.2353C37.6161 5.44211 37.9784 7.36303 38.1094 7.82245C38.333 8.60715 38.6691 9.66011 38.8094 10.3754C39.0545 11.6319 40.1861 14.5287 40.2077 15.5739H38.0031L37.5128 13.3478H34.5389C34.505 13.7733 34.1813 15.5709 33.7959 15.5709ZM40.9569 5.44211H43.1892V13.7209H46.2556V15.5709H40.9569V5.44211Z" fill="#FEFEFE"/>
<path fill-rule="evenodd" clip-rule="evenodd" d="M34.244 65.1277L34.2594 22.3588L5.70312 22.3726L34.244 65.1277Z" fill="#2861A6"/>
<path fill-rule="evenodd" clip-rule="evenodd" d="M36.7695 65.1184L65.3058 22.3588H36.7695V65.1184Z" fill="#E1251B"/>
<path fill-rule="evenodd" clip-rule="evenodd" d="M0.144531 21.1516L35.3747 73.8566H35.5597L70.9749 21.0576V0.144897H0.144531V21.1516ZM2.09628 2.09511H69.0247V19.0134H2.09628V2.09511ZM35.4317 70.4403L2.05928 20.4332L68.9306 20.407L35.4317 70.4403Z" fill="#2861A6"/>
<path d="M35.6372 74H35.298L35.2548 73.9352L0 21.1948V0H71.1202V21.1023L71.0955 21.1393L35.6372 74ZM35.4522 73.7117H35.483L70.8319 21.0145V0.288292H0.289833V21.1008L35.4522 73.7117ZM35.4321 70.6993L1.79758 20.2883H2.05967L69.2023 20.2637L69.0482 20.4872L35.4321 70.6993ZM2.32946 20.5782L35.4321 70.1798L68.6597 20.552L2.32946 20.5782ZM69.1684 19.1583H1.95175V1.95021H69.1684V19.1583ZM2.24158 18.8669H68.8801V2.2385H2.24158V18.8669Z" fill="#FEFEFE"/>
<path fill-rule="evenodd" clip-rule="evenodd" d="M35.4326 70.4403L68.9299 20.407L2.05859 20.4333L35.4326 70.4403ZM5.70155 22.3727L34.2594 22.3542L34.2424 65.1246L5.70155 22.3727ZM36.7677 22.3542H65.3039L36.7677 65.1169V22.3542Z" fill="#FEFEFE"/>
<path fill-rule="evenodd" clip-rule="evenodd" d="M62.3318 5.44055C61.9109 5.44055 61.5779 7.29055 61.4592 7.72993C61.2203 8.60713 60.9813 9.36101 60.7701 10.1966C60.5974 10.8903 59.5583 14.6936 59.3579 15.0112V13.8951H55.1738C55.4313 12.7928 59.1729 7.90105 59.1729 7.11172V5.44055H53.1358V7.1148H57.0393C56.6168 7.91801 52.9492 13.6006 52.9492 13.8087V15.5708H61.4083L61.9695 13.3401H64.8478C64.8802 13.744 65.2039 15.5724 65.5924 15.5724H67.5442L64.8077 5.45288L62.3318 5.44055ZM63.3786 7.58501L64.4578 11.766H62.3518L63.3786 7.58501Z" fill="#2861A6"/>
<path fill-rule="evenodd" clip-rule="evenodd" d="M23.8425 10.6483C24.3543 9.94529 25.1436 10.2336 25.1436 8.32345V8.04287C25.1436 5.63633 23.7793 5.44208 21.4251 5.44208H18.9199V15.5708H21.0582V11.3898H22.0819C23.9565 11.3898 22.5583 15.5739 23.4694 15.5739H25.4211C25.4211 14.9773 25.2346 14.7352 25.2346 14.0893C25.2346 13.6268 25.2778 12.9377 25.2346 12.5122C25.1113 11.4623 24.9725 10.7392 23.8471 10.6483M21.1492 7.11479H22.1728C22.8049 7.11479 23.0978 7.58808 23.0978 8.23095V8.32499C23.0978 9.38104 22.6646 9.8127 21.6101 9.8127H21.1476L21.1492 7.11479Z" fill="#2861A6"/>
<path fill-rule="evenodd" clip-rule="evenodd" d="M10.7383 10.8333C10.7383 13.2028 11.2316 15.6664 13.5272 15.6664H14.8268C16.7662 15.6664 17.5216 13.69 17.5216 11.6704V8.78748C17.5216 6.70161 16.3099 5.34802 14.1747 5.34802H14.0822C11.5492 5.34802 10.7383 7.00223 10.7383 9.53056V10.8333ZM12.8766 9.62461C12.8766 8.48069 12.9799 6.92977 14.0837 6.92977H14.2702C15.2924 6.92977 15.3864 8.37431 15.3864 9.43806V12.0419C15.3864 12.9315 15.1305 14.0846 14.2702 14.0846H13.9912C12.8689 14.0846 12.8766 12.0327 12.8766 10.8333V9.62461Z" fill="#2861A6"/>
<path fill-rule="evenodd" clip-rule="evenodd" d="M33.7939 15.5708C34.1808 15.5708 34.5015 13.7701 34.5369 13.3385H37.5108L38.0011 15.5708H40.2057C40.1841 14.5255 39.0494 11.6288 38.8074 10.3723C38.6671 9.65696 38.331 8.60246 38.1059 7.81776C37.9764 7.35526 37.6141 5.43896 37.2318 5.43896H34.725L31.8945 15.5585L33.7939 15.5708ZM36.0586 7.55413L37.1007 11.7521L34.9424 11.7475L36.0586 7.55413Z" fill="#2861A6"/>
<path fill-rule="evenodd" clip-rule="evenodd" d="M49.0402 7.02229H52.3856V5.44208H46.9004V15.5739H52.4781V13.9012H49.0402V11.0183H52.1066V9.43962H49.0402V7.02229Z" fill="#2861A6"/>
<path fill-rule="evenodd" clip-rule="evenodd" d="M6.65155 7.02229H9.71793V5.44208H4.51172V15.5739H6.65155V11.0183H9.53293V9.43962H6.65155V7.02229Z" fill="#2861A6"/>
<path fill-rule="evenodd" clip-rule="evenodd" d="M25.8926 7.11479H28.1249V15.5739H30.3542V7.11479H32.679V5.44208H25.8926V7.11479Z" fill="#2861A6"/>
<path fill-rule="evenodd" clip-rule="evenodd" d="M40.9512 15.5739H46.2499V13.7147H43.1835V5.44208H40.9512V15.5739Z" fill="#2861A6"/>
<path fill-rule="evenodd" clip-rule="evenodd" d="M12.8809 9.62464V10.8333C12.8809 12.0327 12.8809 14.0847 13.9955 14.0847H14.2745C15.1348 14.0847 15.3907 12.9315 15.3907 12.042V9.4381C15.3907 8.37435 15.2967 6.92981 14.2745 6.92981H14.088C12.9842 6.92981 12.8809 8.48073 12.8809 9.62464" fill="#FEFEFE"/>
<path fill-rule="evenodd" clip-rule="evenodd" d="M21.1523 9.81118H21.6148C22.6693 9.81118 23.1026 9.37952 23.1026 8.32347V8.22943C23.1026 7.5881 22.805 7.11481 22.1776 7.11481H21.1539L21.1523 9.81118Z" fill="#FEFEFE"/>
<path fill-rule="evenodd" clip-rule="evenodd" d="M34.9473 11.7475L37.0963 11.7506L36.0588 7.56342L34.9473 11.7475Z" fill="#FEFEFE"/>
<path fill-rule="evenodd" clip-rule="evenodd" d="M62.3516 11.7676L64.4575 11.766L63.3783 7.58502L62.3516 11.7676Z" fill="#FEFEFE"/>
</svg>
