<svg width="75" height="75" viewBox="0 0 75 75" fill="none" xmlns="http://www.w3.org/2000/svg">
<path d="M74.0991 37.5C74.0991 58.2104 57.5304 75 37.0925 75C16.6546 75 0.0859375 58.2126 0.0859375 37.5C0.0859375 16.7896 16.6546 0 37.0925 0C57.5325 0 74.0991 16.7896 74.0991 37.5Z" fill="white"/>
<path d="M26.5703 71.2448C29.8914 72.3078 33.4274 72.8828 37.0945 72.8828C40.7638 72.8828 44.2976 72.3078 47.6187 71.2448C44.648 68.9185 41.0153 67.5441 37.0945 67.5441C33.1737 67.5441 29.541 68.9185 26.5703 71.2448Z" fill="#0E93D2"/>
<path d="M47.6185 3.75744C44.2974 2.69447 40.7614 2.11725 37.0943 2.11725C33.4272 2.11725 29.8912 2.69447 26.5723 3.75744C29.5429 6.08158 33.1735 7.45603 37.0943 7.45603C41.0151 7.45603 44.6456 6.08376 47.6185 3.75744Z" fill="#0E93D2"/>
<path d="M50.4889 23.6227C55.6091 21.7189 60.2199 18.7631 64.0504 15.0122C60.2134 10.2942 55.1921 6.6087 49.4485 4.40436C47.5182 6.08811 45.2934 7.38632 42.873 8.19226C46.7852 11.0697 49.6807 16.7722 50.4889 23.6227Z" fill="#0E93D2"/>
<path d="M31.314 8.19226C28.8937 7.38632 26.6689 6.08593 24.7386 4.40436C18.995 6.6087 13.9715 10.2942 10.1367 15.0122C13.9672 18.7631 18.5801 21.7189 23.6982 23.6227C24.5064 16.7722 27.4019 11.0675 31.314 8.19226Z" fill="#0E93D2"/>
<path d="M23.6982 51.3795C18.5801 53.2833 13.9672 56.2391 10.1367 59.99C13.9737 64.708 18.9971 68.3957 24.7386 70.5978C26.6689 68.9141 28.8937 67.618 31.314 66.8099C27.4019 63.9325 24.5064 58.2322 23.6982 51.3795Z" fill="#0E93D2"/>
<path d="M50.4887 51.3795C49.6805 58.23 46.785 63.9325 42.875 66.8078C45.2954 67.6159 47.5202 68.9141 49.4505 70.5957C55.194 68.3935 60.2154 64.708 64.0523 59.9878C60.2197 56.2391 55.6089 53.2833 50.4887 51.3795Z" fill="#0E93D2"/>
<path d="M65.0775 58.6678C69.4347 52.7649 72.012 45.4374 72.012 37.5C72.012 29.5626 69.4325 22.2352 65.0775 16.3322C57.8357 23.3635 47.965 27.7068 37.0948 27.7068C26.2245 27.7068 16.3538 23.3635 9.11412 16.3322C4.75914 22.2352 2.17969 29.5626 2.17969 37.5C2.17969 45.4374 4.75914 52.7649 9.11412 58.6678C16.3538 51.6388 26.2245 47.2954 37.0948 47.2954C47.965 47.2954 57.8357 51.6388 65.0775 58.6678Z" fill="#231F20"/>
<path d="M43.3963 19.2968C43.7789 19.1704 44.1271 18.7718 44.1271 18.1336C44.1271 17.7459 44.0218 17.4279 43.7789 17.1817C43.536 16.9334 43.2222 16.8289 42.7708 16.8289C41.868 16.8289 41.5477 17.3516 41.2747 17.711L41.8981 18.1336C42.1732 17.7807 42.4612 17.6762 42.631 17.6762C42.9406 17.6762 43.2222 17.9376 43.2222 18.2752C43.2222 18.5235 43.1383 18.6869 42.9793 18.8393C42.8525 18.9613 42.6633 19.0506 42.386 19.0506H42.1431V19.7912H42.4913C42.7708 19.7912 42.9857 19.8566 43.1168 20.0395C43.2222 20.1877 43.3254 20.3641 43.3254 20.7104C43.3254 21.3726 42.9384 21.4859 42.6633 21.4859C42.4827 21.4859 42.3516 21.4663 42.2441 21.3791C42.1109 21.268 42.0012 21.096 41.9324 20.9195L41.1328 21.2375C41.236 21.5904 41.4123 21.8736 41.6895 22.05C41.9324 22.2265 42.2807 22.331 42.6977 22.331C43.1491 22.331 43.5339 22.1894 43.8111 21.9084C44.0884 21.5904 44.2282 21.2027 44.2282 20.6734C44.2303 20.2835 44.1035 19.5233 43.3963 19.2968Z" fill="#231F20"/>
<path d="M36.6054 19.1552C36.6054 20.1767 36.4335 20.9892 36.1196 21.5185C35.8768 21.9433 35.5264 22.2221 35.075 22.3288C34.9632 22.3571 34.8127 22.3637 34.6924 22.3637C34.4065 22.3637 34.1679 22.2896 33.8583 22.0827L34.17 21.3769C34.3377 21.4575 34.5483 21.5185 34.7289 21.5185C34.9417 21.5185 35.1438 21.414 35.32 21.2027C35.4963 20.9892 35.5995 20.6363 35.6682 20.1789C35.4748 20.3379 35.3566 20.4969 34.903 20.4969C34.5204 20.4969 34.2087 20.3554 33.9615 20.0373C33.7186 19.7193 33.6133 19.2967 33.6133 18.7674C33.6133 18.1314 33.753 17.674 33.998 17.356C34.2409 17.0379 34.6236 16.8615 35.0771 16.8267H35.1094C35.6339 16.8267 36.0165 17.0379 36.2594 17.4278C36.5044 17.8134 36.6054 18.3797 36.6054 19.1552ZM35.075 19.6845C35.2964 19.6845 35.4189 19.5668 35.4941 19.4013C35.5694 19.227 35.5973 18.9787 35.5973 18.6607C35.5973 18.3427 35.5737 18.0769 35.4941 17.9201C35.3996 17.7371 35.2491 17.674 35.075 17.674C34.9288 17.674 34.7654 17.7589 34.6924 17.9201C34.5978 18.127 34.5526 18.408 34.5526 18.6607C34.5526 19.1704 34.6967 19.6845 35.075 19.6845Z" fill="#231F20"/>
<path d="M30.028 17.356V18.0617L30.9673 17.7807V21.377H29.957V22.1894H32.8116V21.377H31.8723V16.9334L30.028 17.356Z" fill="#231F20"/>
<path d="M43.0485 53.7996H41.9673L40.6797 59.0926H41.5503L41.8619 57.7857H43.0807L43.3602 59.0926H44.3361L43.0485 53.7996ZM42.0382 56.9405L42.352 55.3875L42.4638 54.7885H42.4789L42.582 55.3526L42.9088 56.9405H42.0382Z" fill="#231F20"/>
<path d="M29.8496 53.8715V59.0926H30.8255V56.836H32.1496V55.9887H30.8255V54.7188H32.7407V53.8715H29.8496Z" fill="#231F20"/>
<path d="M32.6803 27.9399C32.6803 27.9399 34.5504 27.9726 34.6321 27.9747C34.6687 28.0444 36.1626 30.8892 36.2636 31.0809H35.1609L33.6648 29.1335L32.0763 31.107C32.0763 31.107 31.2144 31.0874 31.0273 31.083C31.1284 30.8935 32.6803 27.9399 32.6803 27.9399Z" fill="white"/>
<path d="M59.0274 43.734C57.8903 42.5142 57.3379 40.9024 57.3379 38.8069C57.3379 36.718 57.9075 35.0495 59.0253 33.845C60.1108 32.6426 61.6284 32.0327 63.5372 32.0327C65.446 32.0327 66.9614 32.6426 68.0448 33.845C69.1819 35.0648 69.7322 36.6875 69.7322 38.8069C69.7322 40.9024 69.1797 42.5142 68.0448 43.734H68.0426C66.97 44.9233 65.4524 45.5463 63.5329 45.5812C61.652 45.5812 60.1323 44.9582 59.0274 43.734ZM60.8395 35.4089C60.1946 36.2432 59.8808 37.3541 59.8808 38.8048C59.8808 40.2337 60.1925 41.3337 60.8352 42.1635C61.4736 42.9891 62.3571 43.3899 63.5372 43.3899C64.7173 43.3899 65.5986 42.9891 66.237 42.1635C66.8797 41.3337 67.1914 40.2337 67.1914 38.8048C67.1914 37.3541 66.8797 36.241 66.237 35.4089H66.2349C65.59 34.6074 64.7065 34.2196 63.535 34.2196C62.4022 34.2218 61.5209 34.6095 60.8395 35.4089Z" fill="white"/>
<path d="M56.2954 32.3856H53.7891V45.1912H56.2954V32.3856Z" fill="white"/>
<path d="M52.1505 32.3856V45.1912H49.8183V34.8186L49.6828 34.8012C49.6828 34.8012 47.1098 45.0867 47.0862 45.1912H44.5132C44.4852 45.0867 41.88 34.8012 41.88 34.8012L41.7446 34.8186V45.1912H39.4102V32.3856H43.1869C43.2148 32.4901 45.7836 42.438 45.7836 42.438C45.7836 42.438 48.3523 32.4901 48.3802 32.3856H52.1505V32.3856Z" fill="white"/>
<path d="M38.191 32.3856V34.4657H31.5059V37.3954H37.6343V39.4778H31.5059V42.9346H38.5393V45.1912H29.0684V32.3856H38.191Z" fill="white"/>
<path d="M23.7409 32.3856C25.1338 32.3856 26.1613 32.6774 26.7932 33.2503C27.4381 33.8362 27.7799 34.7816 27.7799 35.9861C27.7799 36.7267 27.6144 37.3976 27.3027 37.9247C27.0103 38.417 26.5439 38.7742 25.9141 38.9877L25.7077 39.0574L25.9141 39.1228C26.4514 39.2905 26.8599 39.5976 27.092 40.0071C27.3156 40.36 27.4295 40.9372 27.466 41.8782L27.5348 43.4683C27.5714 44.2677 27.724 44.7099 28.0206 44.9059V45.1934H25.2477C25.1531 44.9887 25.108 44.8297 25.0714 44.6641C25.0242 44.4572 24.9726 44.1914 24.9575 43.6403L24.9231 42.2637C24.8866 41.412 24.7361 40.8827 24.4502 40.593C24.1966 40.299 23.6979 40.1487 22.9735 40.1487H20.0823V45.1934H17.5781V32.3877H23.7409V32.3856ZM20.1554 34.4679H20.0866V38.0315H23.2551C23.9408 38.0315 24.4739 37.879 24.7963 37.5915C25.1144 37.3388 25.2756 36.8836 25.2756 36.2323C25.2756 35.6659 25.1209 35.2347 24.8027 34.9123C24.4739 34.616 24.0031 34.4679 23.3948 34.4679H20.1554V34.4679Z" fill="white"/>
<path d="M6.10613 43.6992C5.00986 42.4816 4.45312 40.824 4.45312 38.7699C4.45312 36.7115 4.99481 35.1127 6.10613 33.8798C7.1766 32.6557 8.64689 32.0327 10.4762 32.0327C12.0883 32.0327 13.3608 32.4095 14.369 33.1828C15.3621 33.9822 15.9532 35.0212 16.1338 36.2671H13.5844C13.4167 35.6812 13.0578 35.1345 12.572 34.7642C12.069 34.3808 11.3983 34.187 10.5815 34.187C9.47231 34.187 8.62324 34.5877 7.98483 35.4111V35.4133C7.37651 36.2497 7.06697 37.3671 7.06697 38.7372C7.06697 40.1661 7.37866 41.264 8.02137 42.096C8.70278 42.9346 9.61203 43.3572 10.7212 43.3572C11.5961 43.3572 12.2947 43.098 12.8578 42.5643C13.4189 42.1026 13.7779 41.399 13.924 40.4754L13.9369 40.3948H11.035V38.3147H16.1853V45.1934H14.5345C14.513 45.0911 14.2013 43.5772 14.2013 43.5772L14.1089 43.7057C13.6596 44.3374 13.1179 44.8166 12.4989 45.1303C11.9421 45.4309 11.2371 45.5812 10.4074 45.5812C8.64689 45.5812 7.20239 44.9473 6.10613 43.6992Z" fill="white"/>
<path d="M35.5276 56.3067C35.8436 56.4112 36.0844 56.5528 36.2606 56.799C36.4347 57.0473 36.5035 57.3283 36.5035 57.6811C36.5035 58.1386 36.3681 58.498 36.05 58.7398C35.7533 58.9641 35.36 59.0926 34.9558 59.0926H33.4727V53.8715H35.0053C35.7512 53.8715 36.3273 54.3311 36.3273 55.1392C36.3273 55.4223 36.2585 55.6685 36.1187 55.8798C35.9855 56.0867 35.7727 56.2196 35.5276 56.3067ZM34.7602 54.6469H34.4464V55.9865H34.7602C35.1643 55.9865 35.3858 55.6772 35.3858 55.2808C35.3879 54.7754 35.1643 54.6469 34.7602 54.6469ZM35.5276 57.5766C35.5276 57.2433 35.4309 57.0495 35.3019 56.9297C35.1644 56.8033 34.9 56.7641 34.728 56.7641H34.4486V58.3172H34.9558C35.2073 58.315 35.5276 58.1603 35.5276 57.5766Z" fill="#231F20"/>
<path d="M37.4434 53.8714V59.0925H38.4171V57.1169H38.8707C39.2898 57.0821 39.638 56.9405 39.9175 56.6922C40.2292 56.3741 40.3689 55.9886 40.3689 55.4571C40.3689 54.93 40.2292 54.5401 39.9497 54.2569C39.7068 54.0108 39.3242 53.8692 38.8707 53.8692H37.4434V53.8714ZM39.3457 55.4593C39.3457 56.0648 39.0727 56.3763 38.66 56.3763H38.4171V54.649H38.66C39.019 54.6468 39.3457 54.8102 39.3457 55.4593Z" fill="#231F20"/>
<path d="M37.7922 17.5694C37.5128 18.0269 37.373 18.7326 37.373 19.6148C37.373 20.4969 37.5128 21.1678 37.7922 21.6252C38.0717 22.0848 38.4521 22.3288 38.9766 22.3288C39.4989 22.3288 39.8816 22.0827 40.161 21.6252C40.4404 21.1656 40.5802 20.4969 40.5802 19.6148C40.5802 18.7326 40.4404 18.0269 40.161 17.5694C39.8816 17.075 39.5011 16.8267 38.9766 16.8267C38.4521 16.8267 38.0695 17.075 37.7922 17.5694ZM39.6 19.6148C39.6 20.2726 39.5677 20.7975 39.4603 21.0763C39.3592 21.3486 39.2174 21.4858 38.9723 21.4858C38.7294 21.4858 38.5875 21.3508 38.4865 21.0763C38.3812 20.7975 38.3489 20.2726 38.3489 19.6148C38.3489 18.9352 38.3812 18.3884 38.4865 18.0966C38.5875 17.8134 38.7294 17.674 38.9745 17.674C39.2195 17.674 39.3614 17.8134 39.4603 18.0966C39.5677 18.3863 39.6 18.933 39.6 19.6148Z" fill="#231F20"/>
</svg>
