<svg width="76" height="75" viewBox="0 0 76 75" fill="none" xmlns="http://www.w3.org/2000/svg">
<path d="M74.9967 37.5084C74.9963 47.3336 71.093 56.7564 64.1455 63.7039C57.198 70.6514 47.7753 74.5546 37.9501 74.5551C33.0847 74.5555 28.2668 73.5976 23.7717 71.736C19.2765 69.8745 15.192 67.1457 11.7514 63.7056C8.31082 60.2655 5.58149 56.1814 3.71933 51.6864C1.85717 47.1915 0.898657 42.3738 0.898438 37.5084C0.898 32.643 1.8559 27.8252 3.71745 23.33C5.579 18.8348 8.30772 14.7503 11.7478 11.3097C15.188 7.86912 19.2721 5.13982 23.767 3.27766C28.262 1.4155 33.0797 0.456945 37.9451 0.456726V0.456726C42.8105 0.456945 47.6282 1.4155 52.1231 3.27766C56.618 5.13982 60.7022 7.86912 64.1423 11.3097C67.5824 14.7503 70.3112 18.8348 72.1727 23.33C74.0343 27.8252 74.9922 32.643 74.9917 37.5084H74.9967Z" fill="white"/>
<path d="M37.9493 75.0001C32.9351 75.0094 27.9705 74.0072 23.3526 72.0534C18.8966 70.1713 14.8483 67.4419 11.4326 64.0167C8.00743 60.601 5.27805 56.5528 3.39596 52.0967C1.44218 47.4788 0.439964 42.5143 0.449283 37.5001C0.439964 32.4859 1.44218 27.5213 3.39596 22.9034C5.27835 18.4475 8.0077 14.3993 11.4326 10.9834C14.8483 7.55821 18.8966 4.82882 23.3526 2.94673C27.9705 0.992951 32.9351 -0.0092543 37.9493 6.43924e-05C42.9635 -0.0092543 47.928 0.992951 52.5459 2.94673C57.002 4.82882 61.0503 7.55821 64.466 10.9834C67.8911 14.3991 70.6205 18.4473 72.5026 22.9034C74.4564 27.5213 75.4586 32.4859 75.4493 37.5001C75.4586 42.5143 74.4564 47.4788 72.5026 52.0967C70.6205 56.5528 67.8911 60.601 64.466 64.0167C61.0503 67.4419 57.002 70.1713 52.5459 72.0534C47.928 74.0072 42.9635 75.0094 37.9493 75.0001V75.0001ZM37.9493 0.905063C33.0582 0.898663 28.2162 1.87876 23.7126 3.78674C19.3621 5.62326 15.4095 8.28697 12.0743 11.6301C8.73121 14.9653 6.06749 18.9179 4.23097 23.2684C2.32366 27.7749 1.34522 32.6199 1.35428 37.5134C1.34522 42.4069 2.32366 47.2519 4.23097 51.7584C6.06749 56.1089 8.73121 60.0615 12.0743 63.3967C15.4098 66.7386 19.3624 69.4012 23.7126 71.2367C28.2191 73.1441 33.0641 74.1225 37.9576 74.1134C42.8511 74.1225 47.6961 73.144 52.2026 71.2367C56.5531 69.4002 60.5057 66.7364 63.841 63.3934C67.184 60.0581 69.8477 56.1056 71.6843 51.755C73.591 47.2484 74.5689 42.4034 74.5593 37.5101C74.5689 32.6167 73.591 27.7717 71.6843 23.2651C69.8477 18.9146 67.184 14.962 63.841 11.6267C60.5057 8.28364 56.5531 5.61992 52.2026 3.7834C47.6961 1.87609 42.8511 0.897672 37.9576 0.906729L37.9493 0.905063Z" fill="#E5050F"/>
<path d="M67.6949 37.4601C67.694 45.296 64.5808 52.8108 59.0399 58.3517C53.499 63.8926 45.9842 67.0059 38.1482 67.0067C30.3122 67.0059 22.7974 63.8926 17.2566 58.3517C11.7157 52.8108 8.60245 45.296 8.60156 37.4601C8.60156 29.6238 11.7145 22.1085 17.2556 16.5674C22.7967 11.0263 30.312 7.91339 38.1482 7.91339V7.91339C45.9845 7.91339 53.4998 11.0263 59.0409 16.5674C64.582 22.1085 67.6949 29.6238 67.6949 37.4601Z" fill="white"/>
<path d="M38.1391 67.4601C34.1279 67.468 30.1564 66.6665 26.4624 65.1034C22.8971 63.5978 19.6582 61.4141 16.9257 58.6734C14.1864 55.9408 12.0033 52.7026 10.4974 49.1384C8.93434 45.4443 8.13279 41.4729 8.14068 37.4617C8.13279 33.4506 8.93434 29.4791 10.4974 25.7851C12.0027 22.2201 14.1859 18.9813 16.9257 16.2484C19.6583 13.5083 22.8972 11.3251 26.4624 9.82008C30.1563 8.2565 34.1278 7.45437 38.1391 7.46174C42.1531 7.45325 46.1275 8.2554 49.824 9.82008C53.3887 11.3251 56.627 13.5083 59.359 16.2484C62.0997 18.9809 64.2834 22.2198 65.789 25.7851C67.3521 29.4791 68.1536 33.4506 68.1457 37.4617C68.1536 41.4729 67.3521 45.4443 65.789 49.1384C64.2829 52.7029 62.0992 55.9411 59.359 58.6734C56.6265 61.4133 53.3883 63.597 49.824 65.1034C46.1274 66.6676 42.153 67.4691 38.1391 67.4601V67.4601ZM38.1391 8.36508C34.2487 8.35786 30.3968 9.13559 26.814 10.6517C23.3565 12.1123 20.2151 14.2297 17.5641 16.8867C14.9067 19.5375 12.7892 22.679 11.3291 26.1367C9.81233 29.7193 9.03456 33.5713 9.04238 37.4617C9.03456 41.3522 9.81233 45.2041 11.3291 48.7867C12.7892 52.2445 14.9067 55.386 17.5641 58.0367C20.2151 60.6937 23.3565 62.8112 26.814 64.2717C30.3968 65.7879 34.2487 66.5656 38.1391 66.5584C42.0294 66.5656 45.8812 65.7878 49.464 64.2717C52.9209 62.8108 56.0616 60.6934 58.7123 58.0367C61.3697 55.386 63.4872 52.2445 64.9474 48.7867C66.4635 45.204 67.2412 41.3521 67.234 37.4617C67.2412 33.5714 66.4635 29.7195 64.9474 26.1367C63.4872 22.679 61.3697 19.5375 58.7123 16.8867C56.0616 14.2301 52.9209 12.1127 49.464 10.6517C45.8812 9.13563 42.0294 8.3579 38.1391 8.36508V8.36508Z" fill="#E5050F"/>
<path d="M66.4742 37.4501C66.4746 41.1742 65.7415 44.8618 64.3168 48.3026C62.8921 51.7434 60.8036 54.8698 58.1706 57.5034C55.5376 60.1371 52.4116 62.2263 48.9712 63.6518C45.5308 65.0774 41.8432 65.8113 38.1192 65.8118C34.3951 65.8124 30.7074 65.0796 27.2665 63.655C23.8257 62.2305 20.6991 60.1422 18.0653 57.5093C15.4316 54.8765 13.3421 51.7506 11.9164 48.3103C10.4907 44.87 9.75652 41.1825 9.75586 37.4584C9.75498 29.9375 12.7416 22.7241 18.0588 17.4051C23.376 12.086 30.5882 9.09686 38.1092 9.09509C45.6297 9.09333 52.8429 12.0789 58.1623 17.3952C63.4817 22.7114 66.4715 29.9229 66.4742 37.4434V37.4501Z" fill="#E5050F"/>
<path d="M49.5723 30.2351C49.7847 28.9486 50.2467 27.716 50.9323 26.6068L52.8073 27.4534L54.5006 25.1551L56.1939 25.6718C56.2189 28.6934 56.1373 31.8084 57.2523 33.8968L56.4056 34.9551C54.4524 32.9572 52.1322 31.3546 49.5723 30.2351V30.2351Z" fill="white"/>
<path d="M46.4189 33.3701C42.6689 33.3551 45.3839 28.9734 45.9355 27.2918C46.18 26.1361 45.9984 24.9309 45.4241 23.8987C44.8497 22.8664 43.9215 22.0767 42.8105 21.6751V17.8234C48.4672 19.4634 49.0972 23.2318 52.3522 21.5018V23.4101C47.2772 28.6168 49.5006 33.3401 46.4189 33.3701Z" fill="white"/>
<path d="M31.3255 24.9734C35.7915 23.8222 40.4693 23.765 44.9621 24.8067C45.1734 25.4426 45.2425 26.1172 45.1644 26.7827C45.0864 27.4483 44.8631 28.0886 44.5105 28.6584C40.2468 27.8834 35.8647 28.0599 31.6771 29.175C31.2772 28.5577 31.0359 27.8513 30.9746 27.1183C30.9132 26.3853 31.0337 25.6486 31.3255 24.9734Z" fill="white"/>
<path d="M34.6153 21.6751C27.9487 22.8084 29.4487 30.7001 34.6153 32.8317V39.7184C19.972 35.4917 22.6153 19.5651 34.6153 17.9551V21.6751Z" fill="white"/>
<path d="M41.8271 46.4184C39.7833 46.6629 37.7177 46.6629 35.6738 46.4184V29.2001C37.7177 28.9569 39.7832 28.9569 41.8271 29.2001V46.4184Z" fill="white"/>
<path d="M14.0938 37.8367C17.6604 36.1117 18.4488 32.3251 23.6438 28.5167C23.6675 30.1681 24.0431 31.7953 24.7454 33.2901C22.5471 36.4717 22.6921 39.4967 25.9854 43.1617C25.3455 44.6676 24.4266 46.0389 23.2771 47.2034C18.6438 44.4434 17.5754 40.8584 14.0938 37.8367Z" fill="white"/>
<path d="M30.6738 50.5501C31.63 49.4568 32.3917 48.2076 32.9255 46.8568C37.4614 47.7802 42.1438 47.7074 46.6489 46.6434C47.1339 47.8167 47.198 49.1216 46.8305 50.3368C41.5513 51.7846 35.9894 51.8581 30.6738 50.5501V50.5501Z" fill="white"/>
<path d="M20.5566 49.98L21.0066 51.9317L23.71 52.1134C27.0216 54.6065 30.7406 56.5063 34.7016 57.7284V53.915C33.654 53.7544 32.6502 53.3814 31.752 52.8188C30.8538 52.2561 30.08 51.5159 29.4783 50.6434C32.97 46.88 33.6849 42.1584 31.4783 41.1967C28.5333 39.9184 27.2199 42.93 25.5383 45.6467C24.4268 47.6221 22.667 49.1529 20.5566 49.98V49.98Z" fill="white"/>
<path d="M41.8486 17.7251C41.8636 14.8084 44.0986 15.1617 45.1536 16.2117C45.0069 12.5551 42.0386 12.1184 40.6153 13.4401C40.1827 12.7185 39.5442 12.1427 38.7819 11.7867C38.0211 12.1428 37.3717 12.6993 36.9036 13.3967C35.5619 12.1701 32.5069 12.4734 32.3652 16.1567C33.4969 15.1801 35.6269 14.8351 35.6269 17.7401L35.6419 23.3217C37.7078 23.168 39.782 23.163 41.8486 23.3067V17.7251Z" fill="white"/>
<path d="M41.8449 57.8534C41.8599 60.7684 44.0949 60.4168 45.1499 59.3668C45.0033 63.0234 42.035 63.4584 40.6116 62.1384C40.1791 62.86 39.5406 63.4358 38.7783 63.7918C38.0178 63.436 37.3689 62.8793 36.9017 62.1818C35.5583 63.4084 32.5049 63.1051 32.3633 59.4218C33.4949 60.3984 35.6266 60.7434 35.6266 57.8384L35.6416 52.2568C37.7075 52.4111 39.7817 52.4161 41.8483 52.2718L41.8449 57.8534Z" fill="white"/>
<path d="M42.752 35.605V42.2C50.2953 44.7084 49.102 54.105 42.8486 53.88V57.6784C50.937 56.8767 54.067 51.86 54.117 46.9734C54.172 41.365 49.7453 37.4 42.752 35.605Z" fill="white"/>
<path d="M54.9407 46.7317C55.0158 45.6051 54.8517 44.4753 54.459 43.4167L56.1973 42.2501L58.1606 43.8584C57.2974 45.0284 56.201 46.0067 54.9407 46.7317V46.7317Z" fill="white"/>
<path d="M5.17137 37.8517L5.24802 36.6634C5.40693 36.6709 5.56501 36.6365 5.70634 36.5634C5.79588 36.5082 5.87112 36.4327 5.92587 36.3429C5.98061 36.2531 6.01331 36.1516 6.02134 36.0468C6.04996 35.9011 6.02448 35.75 5.94967 35.6217C5.92102 35.5733 5.88194 35.5318 5.83523 35.5004C5.78852 35.469 5.73538 35.4483 5.67969 35.4401C5.62582 35.4344 5.57138 35.4405 5.52014 35.4581C5.46889 35.4757 5.42206 35.5042 5.38301 35.5417C5.23535 35.7182 5.12787 35.9246 5.06802 36.1467C4.94599 36.5587 4.72779 36.9357 4.43137 37.2468C4.32256 37.3474 4.19252 37.4222 4.05087 37.4658C3.90921 37.5094 3.75959 37.5205 3.61304 37.4984C3.40439 37.4697 3.20893 37.3798 3.05137 37.2401C2.87388 37.0822 2.74738 36.8751 2.688 36.6451C2.61112 36.3172 2.60038 35.9772 2.65637 35.6451C2.68172 35.2311 2.83354 34.8349 3.09134 34.5101C3.21753 34.383 3.36969 34.2848 3.53741 34.2221C3.70513 34.1594 3.88444 34.1337 4.06302 34.1468L3.98134 35.3234C3.82899 35.3198 3.6805 35.3713 3.56304 35.4684C3.45949 35.5752 3.3969 35.7151 3.38635 35.8634C3.36393 35.977 3.3816 36.0948 3.43634 36.1967C3.45797 36.2344 3.48808 36.2665 3.52424 36.2905C3.56039 36.3145 3.60161 36.3297 3.64468 36.3351C3.67853 36.3384 3.71272 36.3342 3.74472 36.3227C3.77673 36.3111 3.80579 36.2926 3.82972 36.2684C3.92444 36.1523 3.99269 36.0169 4.02971 35.8717C4.15183 35.4806 4.31964 35.1052 4.52969 34.7534C4.65329 34.5566 4.83012 34.3988 5.03969 34.2984C5.23299 34.2141 5.44591 34.1853 5.65467 34.2151C5.9075 34.2473 6.14521 34.3534 6.33801 34.5201C6.54049 34.6959 6.68613 34.9279 6.75635 35.1867C6.83907 35.509 6.8544 35.8449 6.80137 36.1734C6.79188 36.6858 6.58605 37.175 6.22636 37.5401C5.92379 37.7678 5.54912 37.8785 5.17137 37.8517V37.8517Z" fill="#E5050F"/>
<path d="M5.93555 33.3001L6.04556 32.105L7.16556 32.2084L7.05554 33.4017L5.93555 33.3001Z" fill="#E5050F"/>
<path d="M7.19835 25.9067L7.82839 24.9517C8.07814 25.0886 8.29576 25.2773 8.46671 25.5051C8.61671 25.7103 8.71297 25.9498 8.74671 26.2017C8.77427 26.5075 8.73795 26.8157 8.64005 27.1067C8.54737 27.464 8.37976 27.7975 8.14837 28.0851C7.91971 28.3317 7.62353 28.5056 7.29672 28.5851C6.87615 28.6858 6.43551 28.6644 6.02668 28.5234C5.75208 28.462 5.49261 28.3462 5.26359 28.1827C5.03457 28.0192 4.84066 27.8115 4.69337 27.5717C4.57161 27.3243 4.50145 27.0548 4.48712 26.7795C4.4728 26.5041 4.51463 26.2287 4.61006 25.9701C4.70851 25.5585 4.93205 25.1876 5.25001 24.9084C5.56733 24.676 5.95171 24.5531 6.34503 24.5584L6.26502 25.6867C6.1659 25.6852 6.0671 25.6981 5.9717 25.7251C5.86366 25.7622 5.766 25.8245 5.68672 25.9067C5.60802 25.9933 5.5509 26.0972 5.52004 26.2101C5.47802 26.3322 5.46897 26.4632 5.49385 26.5899C5.51872 26.7167 5.57663 26.8346 5.66169 26.9317C5.8574 27.1268 6.10499 27.2616 6.37504 27.3201C6.67357 27.443 7.00383 27.4664 7.31671 27.3867C7.41651 27.3439 7.50492 27.2783 7.57494 27.1953C7.64496 27.1122 7.69465 27.014 7.72005 26.9084C7.75555 26.8152 7.77063 26.7156 7.7643 26.6161C7.75798 26.5166 7.73039 26.4196 7.68338 26.3317C7.56161 26.1501 7.39437 26.0036 7.19835 25.9067Z" fill="#E5050F"/>
<path d="M8.51172 24.2417L8.9467 23.1251L9.99502 23.5334L9.56005 24.6501L8.51172 24.2417Z" fill="#E5050F"/>
<path d="M8.01172 18.6734L8.71342 17.6384L12.0618 19.9034L11.3601 20.9384L8.01172 18.6734Z" fill="#E5050F"/>
<path d="M11.1172 14.4501L11.9105 13.5934L14.5856 13.9967L12.9439 12.4767L13.7439 11.6134L16.7106 14.3617L15.9105 15.2251L13.2539 14.8268L14.8822 16.3351L14.0839 17.1967L11.1172 14.4501Z" fill="#E5050F"/>
<path d="M16.9238 8.98004L20.1222 6.9317L20.6605 7.76503L19.5872 8.45338L21.2288 11.0184L20.1772 11.685L18.5355 9.12004L17.4622 9.80839L16.9238 8.98004Z" fill="#E5050F"/>
<path d="M23.3164 5.4234L26.4031 4.13007L26.7364 4.92507L24.8047 5.73842L25.0547 6.33008L26.8464 5.57507L27.1664 6.33509L25.3748 7.08841L25.6831 7.82341L27.6714 6.99007L28.0264 7.83508L24.8848 9.15674L23.3164 5.4234Z" fill="#E5050F"/>
<path d="M30.7846 6.95338L30.0312 2.98172L32.0762 2.59337C32.3674 2.52731 32.6668 2.50485 32.9645 2.52672C33.1742 2.55223 33.3694 2.64661 33.5196 2.79505C33.6825 2.96107 33.7897 3.17367 33.8263 3.40337C33.8694 3.6015 33.8584 3.80758 33.7946 4.00004C33.7301 4.17801 33.6218 4.33683 33.4796 4.46172C33.3589 4.56199 33.2234 4.64295 33.0779 4.70172C33.1977 4.71288 33.3152 4.7421 33.4262 4.78839C33.5116 4.83405 33.5911 4.89001 33.6629 4.95504C33.7419 5.01947 33.815 5.09088 33.8812 5.16838L34.6929 6.20338L33.3062 6.46172L32.4212 5.3717C32.3465 5.26738 32.2512 5.17947 32.1412 5.11337C32.0415 5.06838 31.9302 5.05556 31.8229 5.0767L31.7145 5.09671L32.0196 6.70837L30.7846 6.95338ZM31.5696 4.35671L32.0863 4.25837C32.1944 4.22862 32.2998 4.1896 32.4012 4.14172C32.4784 4.11001 32.5408 4.05053 32.5763 3.97504C32.6148 3.90192 32.6276 3.81801 32.6129 3.7367C32.606 3.68054 32.5864 3.62671 32.5555 3.57933C32.5246 3.53194 32.4832 3.49228 32.4346 3.46339C32.2815 3.4069 32.1142 3.40163 31.9579 3.44838L31.4196 3.55003L31.5696 4.35671Z" fill="#E5050F"/>
<path d="M37.7182 2.15503H38.8849L40.3999 4.39669V2.16003H41.5782L41.5682 6.20335H40.3899L38.8899 3.98002V6.20002H37.7148L37.7182 2.15503Z" fill="#E5050F"/>
<path d="M47.7418 6.82503L46.3651 6.47504L46.0101 7.07336L44.7734 6.76005L47.2401 3.21503L48.5618 3.54838L49.0401 7.84169L47.7734 7.52004L47.7418 6.82503ZM47.7051 5.92003L47.6301 4.40005L46.8451 5.7017L47.7051 5.92003Z" fill="#E5050F"/>
<path d="M54.7076 9.09006L55.446 9.9634C55.2441 10.1638 55.0021 10.3195 54.736 10.4201C54.4972 10.5068 54.2403 10.5315 53.9893 10.4917C53.6899 10.4324 53.4062 10.3116 53.156 10.1367C52.8401 9.94699 52.5681 9.6925 52.3577 9.39005C52.1854 9.10111 52.1025 8.76768 52.1193 8.43172C52.1427 7.99974 52.2877 7.58319 52.5376 7.23007C52.6755 6.98544 52.861 6.7709 53.0831 6.59914C53.3052 6.42739 53.5595 6.30189 53.831 6.23006C54.1025 6.18269 54.3808 6.19107 54.649 6.25468C54.9172 6.31828 55.1697 6.43579 55.391 6.60006C55.7561 6.81079 56.0471 7.1292 56.2243 7.51172C56.3584 7.8818 56.3684 8.28549 56.2527 8.66172L55.1943 8.26672C55.2254 8.1721 55.2406 8.07299 55.2393 7.9734C55.2339 7.85905 55.2014 7.74763 55.1443 7.64839C55.0845 7.54673 55.001 7.46099 54.901 7.3984C54.7957 7.32392 54.6726 7.27852 54.5441 7.26682C54.4156 7.25511 54.2864 7.27752 54.1693 7.33174C53.9259 7.46408 53.7257 7.66367 53.5927 7.90672C53.3898 8.15848 53.2729 8.46867 53.2593 8.79173C53.2728 8.89871 53.311 9.00108 53.3709 9.09075C53.4308 9.18042 53.5107 9.25494 53.6043 9.30839C53.6835 9.36903 53.7747 9.412 53.8719 9.43443C53.9691 9.45685 54.0699 9.45821 54.1677 9.4384C54.3748 9.37112 54.5609 9.25107 54.7076 9.09006V9.09006Z" fill="#E5050F"/>
<path d="M59.8848 9.52673L60.8698 10.3017L58.3698 13.4834L57.3848 12.7067L59.8848 9.52673Z" fill="#E5050F"/>
<path d="M62.0271 14.1951C62.22 13.9901 62.4522 13.8263 62.71 13.7135C62.9678 13.6006 63.2457 13.5411 63.5271 13.5384C63.8074 13.5561 64.081 13.6306 64.3315 13.7576C64.5819 13.8845 64.8039 14.0612 64.9838 14.2767C65.1896 14.4695 65.3546 14.7015 65.4691 14.9592C65.5836 15.2168 65.6453 15.4948 65.6505 15.7767C65.6329 16.0537 65.5591 16.3242 65.4336 16.5718C65.3081 16.8194 65.1335 17.0388 64.9205 17.2167C64.6389 17.5032 64.2924 17.7176 63.9105 17.8417C63.5872 17.9339 63.2438 17.9282 62.9238 17.8251C62.5551 17.6953 62.2262 17.4726 61.9688 17.1784C61.6915 16.9054 61.4795 16.5732 61.3488 16.2067C61.2483 15.881 61.2483 15.5325 61.3488 15.2067C61.479 14.8143 61.7135 14.4646 62.0271 14.1951V14.1951ZM62.8821 15.1067C62.6366 15.2999 62.4653 15.5719 62.3971 15.8767C62.3852 15.9931 62.3997 16.1106 62.4395 16.2206C62.4793 16.3305 62.5435 16.43 62.6271 16.5117C62.7029 16.601 62.7979 16.6719 62.905 16.7192C63.0121 16.7665 63.1284 16.7891 63.2455 16.7851C63.569 16.7195 63.862 16.5491 64.0788 16.3001C64.3116 16.1146 64.4705 15.8523 64.5271 15.5601C64.5374 15.4433 64.5214 15.3257 64.4805 15.2158C64.4396 15.106 64.3747 15.0066 64.2905 14.9251C64.2147 14.8385 64.1203 14.7703 64.0143 14.7256C63.9084 14.6808 63.7937 14.6607 63.6788 14.6667C63.3694 14.7179 63.087 14.8738 62.8788 15.1084L62.8821 15.1067Z" fill="#E5050F"/>
<path d="M68.6666 19.6284L69.2233 20.6534L67.985 23.0584L69.95 21.9901L70.5116 23.0251L66.96 24.9551L66.3983 23.9201L67.6266 21.5301L65.675 22.5901L65.1133 21.5551L68.6666 19.6284Z" fill="#E5050F"/>
<path d="M69.4879 30.6401L69.1546 29.2634L68.4596 29.2317L68.1562 27.9934L72.4463 28.5101L72.7712 29.8334L69.2079 32.2734L68.8963 31.0034L69.4879 30.6401ZM70.2746 30.1801L71.5796 29.4034L70.0629 29.3201L70.2746 30.1801Z" fill="#E5050F"/>
<path d="M73.5082 34.7617L73.5632 36.0101L70.5199 36.14L70.6065 38.0867L69.6065 38.1301L69.4648 34.9334L73.5082 34.7617Z" fill="#E5050F"/>
<path d="M30.1373 67.7767L29.1023 71.7567L28.0039 71.4717L28.6823 68.8634C28.4875 68.946 28.2855 69.0107 28.0789 69.0567C27.8521 69.1023 27.6219 69.1285 27.3906 69.1351L27.6239 68.2434C27.9583 68.2358 28.2883 68.1663 28.5973 68.0384C28.848 67.9229 29.0691 67.7519 29.244 67.5384L30.1373 67.7767Z" fill="#E5050F"/>
<path d="M33.207 71.6651L34.3321 71.6801C34.3282 71.8046 34.3637 71.9271 34.4337 72.0301C34.4939 72.1028 34.5799 72.1494 34.6737 72.1601C34.7618 72.172 34.8515 72.1584 34.9322 72.1209C35.0128 72.0834 35.0811 72.0235 35.1287 71.9484C35.2686 71.6925 35.3638 71.4146 35.4104 71.1267C35.2764 71.2354 35.1232 71.318 34.9587 71.3701C34.7959 71.4151 34.6253 71.4242 34.4587 71.3968C34.2884 71.3763 34.1243 71.3204 33.977 71.2325C33.8298 71.1447 33.7026 71.0269 33.6037 70.8868C33.499 70.7411 33.4245 70.576 33.3844 70.4011C33.3443 70.2263 33.3395 70.0452 33.3704 69.8684C33.403 69.6135 33.5032 69.3718 33.6604 69.1684C33.8098 68.9717 34.0147 68.8243 34.2487 68.7451C34.5256 68.6606 34.8186 68.6429 35.1037 68.6934C35.4387 68.7231 35.7605 68.8379 36.0387 69.0268C36.2725 69.2167 36.4424 69.4738 36.5254 69.7634C36.6323 70.1602 36.6494 70.5759 36.5754 70.9801C36.545 71.5547 36.3035 72.0978 35.8971 72.5051C35.7125 72.6544 35.4975 72.7616 35.2672 72.8192C35.0369 72.8767 34.7968 72.8833 34.5637 72.8384C34.3062 72.8128 34.0558 72.7393 33.8254 72.6218C33.658 72.5279 33.5161 72.3946 33.4121 72.2334C33.3052 72.0602 33.2353 71.8667 33.207 71.6651V71.6651ZM35.5054 70.1651C35.5421 69.9819 35.5088 69.7916 35.412 69.6317C35.3716 69.5668 35.3173 69.5116 35.2531 69.4701C35.1888 69.4286 35.1162 69.4018 35.0404 69.3917C34.9712 69.381 34.9005 69.3857 34.8333 69.4056C34.7662 69.4255 34.7042 69.46 34.652 69.5067C34.5239 69.6351 34.4469 69.8058 34.4354 69.9868C34.3979 70.1684 34.4263 70.3574 34.5154 70.5201C34.5531 70.5826 34.6044 70.6358 34.6656 70.6756C34.7268 70.7155 34.7963 70.7409 34.8687 70.7501C34.9423 70.7626 35.0178 70.7585 35.0896 70.738C35.1614 70.7175 35.2278 70.6812 35.2837 70.6318C35.4129 70.5091 35.4919 70.3428 35.5054 70.1651V70.1651Z" fill="#E5050F"/>
<path d="M39.5666 70.9934C39.4331 70.4362 39.5016 69.8498 39.7599 69.3384C39.902 69.1545 40.0819 69.0034 40.2875 68.8953C40.4931 68.7871 40.7196 68.7245 40.9516 68.7117C41.1765 68.6742 41.4063 68.6776 41.63 68.7217C41.795 68.7577 41.9509 68.8269 42.0883 68.9251C42.2043 69.0095 42.3066 69.1112 42.3916 69.2267C42.4763 69.3471 42.5457 69.4776 42.5983 69.6151C42.7162 69.9106 42.7967 70.2196 42.8383 70.5351C42.9565 71.0867 42.9031 71.6614 42.685 72.1817C42.5544 72.3839 42.3767 72.5513 42.1671 72.6695C41.9574 72.7877 41.7221 72.8531 41.4816 72.86C41.2038 72.9093 40.9182 72.8922 40.6483 72.81C40.4243 72.7288 40.2259 72.5897 40.0733 72.4067C39.9359 72.2339 39.8314 72.0373 39.7649 71.8267C39.6705 71.5565 39.604 71.2772 39.5666 70.9934V70.9934ZM40.6716 70.8467C40.6957 71.2038 40.7897 71.5526 40.9482 71.8734C40.9883 71.9504 41.051 72.0134 41.1278 72.054C41.2047 72.0945 41.2921 72.1105 41.3783 72.1001C41.4327 72.0936 41.4852 72.0762 41.5327 72.049C41.5802 72.0218 41.6218 71.9853 41.6549 71.9417C41.7364 71.8233 41.7816 71.6837 41.7849 71.5401C41.7967 71.2697 41.7805 70.9988 41.7366 70.7317C41.7125 70.3652 41.6174 70.0069 41.4566 69.6767C41.4137 69.5995 41.3483 69.5371 41.2691 69.4979C41.19 69.4586 41.1007 69.4442 41.0132 69.4567C40.9258 69.4673 40.8439 69.5052 40.7793 69.5651C40.7146 69.6249 40.6706 69.7037 40.6533 69.7901C40.5989 70.1399 40.6073 70.4966 40.6783 70.8434L40.6716 70.8467Z" fill="#E5050F"/>
<path d="M46.1002 70.9184L47.1735 70.5851C47.2085 70.7037 47.2803 70.8082 47.3785 70.8834C47.4583 70.9337 47.5546 70.9511 47.6469 70.9317C47.7344 70.9154 47.8154 70.8744 47.8803 70.8136C47.9453 70.7528 47.9915 70.6746 48.0135 70.5884C48.0667 70.3017 48.0701 70.0079 48.0235 69.7201C47.93 69.8649 47.8101 69.9909 47.6702 70.0917C47.5303 70.1857 47.3716 70.2482 47.2052 70.275C47.0371 70.3087 46.8638 70.3069 46.6964 70.2696C46.5291 70.2323 46.3714 70.1603 46.2335 70.0584C46.0879 69.9533 45.9648 69.8201 45.8715 69.6667C45.7782 69.5133 45.7166 69.3427 45.6902 69.165C45.6415 68.9128 45.6611 68.6522 45.7469 68.4101C45.8275 68.1773 45.9754 67.9736 46.1719 67.825C46.4076 67.6579 46.6794 67.5488 46.9652 67.5067C47.2957 67.431 47.6402 67.4419 47.9652 67.5384C48.2473 67.6444 48.4899 67.8347 48.6602 68.0834C48.8863 68.4268 49.0332 68.8162 49.0902 69.2234C49.2428 69.7804 49.1834 70.3743 48.9235 70.8901C48.794 71.0894 48.6225 71.258 48.4209 71.3841C48.2194 71.5102 47.9928 71.5907 47.7569 71.6201C47.5047 71.6768 47.2441 71.6858 46.9885 71.6467C46.7995 71.6104 46.6222 71.5286 46.4719 71.4084C46.3151 71.2729 46.1885 71.1059 46.1002 70.9184V70.9184ZM47.8102 68.7734C47.7865 68.5878 47.6944 68.4178 47.5519 68.2967C47.4931 68.2472 47.4239 68.2115 47.3495 68.1921C47.2751 68.1728 47.1973 68.1704 47.1219 68.1851C47.0525 68.1968 46.9866 68.2239 46.929 68.2642C46.8713 68.3046 46.8234 68.3572 46.7885 68.4184C46.7082 68.5783 46.6886 68.7618 46.7335 68.935C46.7546 69.1195 46.8409 69.2903 46.9769 69.4167C47.0325 69.4642 47.0981 69.4985 47.1688 69.517C47.2395 69.5355 47.3135 69.5377 47.3852 69.5234C47.4587 69.5116 47.5287 69.4838 47.5903 69.4421C47.6519 69.4003 47.7037 69.3456 47.7419 69.2817C47.8297 69.1277 47.8571 68.9465 47.8185 68.7734H47.8102Z" fill="#E5050F"/>
</svg>
