<svg width="76" height="75" viewBox="0 0 76 75" fill="none" xmlns="http://www.w3.org/2000/svg">
<path fill-rule="evenodd" clip-rule="evenodd" d="M37.9492 0C47.8948 0 57.4331 3.95089 64.4657 10.9835C71.4983 18.0161 75.4492 27.5544 75.4492 37.5C75.4492 47.4456 71.4983 56.9839 64.4657 64.0165C57.4331 71.0491 47.8948 75 37.9492 75C28.0036 75 18.4653 71.0491 11.4327 64.0165C4.40008 56.9839 0.449219 47.4456 0.449219 37.5C0.449219 27.5544 4.40008 18.0161 11.4327 10.9835C18.4653 3.95089 28.0036 0 37.9492 0" fill="white"/>
<path fill-rule="evenodd" clip-rule="evenodd" d="M37.9467 2.01163C47.3619 2.01163 56.3915 5.75181 63.049 12.4094C69.7065 19.0669 73.4467 28.0965 73.4467 37.5116V37.5116C73.4467 42.1736 72.5285 46.7898 70.7444 51.0969C68.9604 55.404 66.3455 59.3174 63.049 62.6139C59.7525 65.9104 55.839 68.5253 51.532 70.3094C47.2249 72.0934 42.6086 73.0116 37.9467 73.0116C33.2848 73.0116 28.6685 72.0934 24.3615 70.3094C20.0544 68.5253 16.1409 65.9104 12.8444 62.6139C9.54794 59.3174 6.93302 55.404 5.14898 51.0969C3.36494 46.7898 2.4467 42.1736 2.4467 37.5116C2.4467 28.0965 6.18688 19.0669 12.8444 12.4094C19.502 5.75181 28.5315 2.01163 37.9467 2.01163ZM37.9467 1.0733C47.609 1.0733 56.8755 4.91163 63.7078 11.7439C70.5401 18.5762 74.3784 27.8427 74.3784 37.505C74.3784 47.1673 70.5401 56.4338 63.7078 63.2661C56.8755 70.0983 47.609 73.9366 37.9467 73.9366C33.1624 73.9371 28.4249 72.9952 24.0047 71.1647C19.5844 69.3343 15.568 66.6511 12.1847 63.2684C8.80135 59.8857 6.11744 55.8698 4.28617 51.4499C2.45491 47.0299 1.51216 42.2926 1.51172 37.5083V37.5083C1.51172 27.846 5.35003 18.5795 12.1823 11.7472C19.0146 4.91496 28.2811 1.07663 37.9434 1.07663" fill="#006437"/>
<path fill-rule="evenodd" clip-rule="evenodd" d="M55.8232 11.71L56.2449 12.6883L55.5266 13.47L56.5799 13.37L57.0966 14.3L57.3266 13.265L58.3616 13.0566L57.4499 12.515L57.5799 11.4566L56.7866 12.1633L55.8232 11.71ZM58.9265 15.1816L59.2182 16.4616L58.1716 17.2483L59.4732 17.3666L59.8932 18.61L60.4099 17.4016L61.7166 17.3833L60.7332 16.52L61.1215 15.265L59.9999 15.9316L58.9265 15.1816ZM61.5682 19.6333L61.5882 21.3266L60.0549 22.0283L61.6616 22.5283L61.8516 24.21L62.8266 22.8283L64.4766 23.1616L63.4766 21.8016L64.3099 20.3283L62.7149 20.87L61.5682 19.6333ZM63.4682 25.3233L62.9516 27.4266L60.8316 27.805L62.6649 28.945L62.3682 31.0883L64.0132 29.69L65.9532 30.6366L65.1399 28.6366L66.6399 27.0766L64.4932 27.2433L63.4682 25.3233ZM12.4132 25.3233L12.9299 27.4266L15.0499 27.805L13.2166 28.945L13.5132 31.0883L11.8699 29.69L9.92989 30.6366L10.7449 28.6366L9.24489 27.0766L11.3916 27.2433L12.4132 25.3233ZM14.3132 19.6333L14.2932 21.3266L15.8249 22.0283L14.2182 22.5283L14.0282 24.21L13.0532 22.8283L11.4032 23.1616L12.4032 21.8016L11.5699 20.3283L13.1666 20.87L14.3132 19.6333ZM16.9649 15.1866L16.6732 16.4666L17.7199 17.2533L16.4182 17.3716L15.9999 18.615L15.4832 17.4066L14.1766 17.3883L15.1599 16.525L14.7716 15.27L15.8932 15.945L16.9649 15.1866ZM20.0682 11.715L19.6466 12.6933L20.3649 13.475L19.3099 13.3733L18.7932 14.3033L18.5632 13.2683L17.5282 13.06L18.4415 12.5183L18.3116 11.46L19.1049 12.1666L20.0682 11.715ZM60.0682 35.7666C60.3482 35.1583 60.5982 34.5266 60.8449 33.87L59.1449 33.57C58.7047 33.4525 58.2403 33.4609 57.8046 33.594C57.3689 33.7272 56.9793 33.9798 56.6799 34.3233C56.2806 34.8793 55.9614 35.4885 55.7316 36.1333C55.4382 36.8766 55.4566 38.2383 57.5516 39.1733C59.3849 40.015 60.7449 40.855 63.6432 38.385C65.3416 37.0183 65.9882 37.48 66.6082 37.6083C67.4966 37.9066 67.5899 38.2666 67.4149 39.1983C67.1816 40.35 65.8799 39.74 65.2482 39.4933C65.013 40.3837 64.7139 41.2559 64.3532 42.1033C64.7316 42.2616 65.2032 42.4766 65.6299 42.655C67.5599 43.4316 69.7382 43.01 70.2432 40.6733C70.4281 39.8169 70.4987 38.9399 70.4532 38.065C70.4104 37.285 70.09 36.5461 69.5499 35.9818C69.0098 35.4175 68.2856 35.0651 67.5082 34.9883C66.5415 34.717 65.5202 34.7071 64.5483 34.9595C63.5765 35.2119 62.6891 35.7176 61.9766 36.425C60.6832 37.385 60.4682 37.7483 59.2932 37.2816C58.6665 37.045 58.0682 36.835 58.4182 36.1016C58.6866 35.5383 58.9632 35.445 60.0682 35.7683V35.7666ZM56.4949 42.845L62.1616 45.1783C61.7986 45.9555 61.3769 46.7038 60.8999 47.4166L56.4949 42.845ZM53.4549 39.2133C52.9648 39.7485 52.4469 40.2575 51.9032 40.7383L64.2166 56.195C64.9898 55.1154 65.7015 53.9931 66.3482 52.8333L62.9866 49.4716C63.6223 48.4468 64.1682 47.3689 64.6182 46.25L68.4516 47.9166C68.8684 46.8784 69.2028 45.809 69.4516 44.7183L53.4549 39.2133ZM52.2366 52.0066C53.5899 51.1283 54.4032 50.435 52.7366 48.4783L50.8732 46.1266C49.7349 44.575 49.0716 45.4133 48.2199 45.8066L52.2366 52.0066ZM55.0999 64.8516L45.2665 44.7433C46.4491 44.3115 47.5881 43.7685 48.6682 43.1216C50.0215 42.25 51.1516 43.1333 52.2882 44.1833L55.1632 46.85C57.8882 49.385 57.3949 51.275 56.7916 51.8833L63.9416 56.5816C63.2125 57.6044 62.411 58.5735 61.5432 59.4816L54.5599 53.845L53.7466 54.3966L58.9532 62.0133C57.7445 63.0566 56.4561 64.0039 55.0999 64.8466V64.8516ZM42.6666 45.5233C43.2948 45.3823 43.9156 45.2099 44.5265 45.0066L53.7082 65.6866C52.3194 66.4547 50.8793 67.1263 49.3982 67.6966L42.6666 45.5233ZM41.9716 45.6666C40.6084 45.9321 39.2219 46.0589 37.8332 46.045L37.3465 69.7483C40.9565 69.8345 44.5547 69.3047 47.9866 68.1816L46.9266 64.1733C45.2969 64.7256 43.6111 65.0956 41.8999 65.2766L40.9599 57.18C42.2775 57.0701 43.5775 56.8055 44.8332 56.3916L44.0199 53.3766C42.8985 53.6871 41.7527 53.9013 40.5949 54.0166L39.9282 48.2966C40.8235 48.2626 41.7125 48.1324 42.5799 47.9083L41.9716 45.6666ZM19.6382 64L30.2216 44.55C30.8625 44.8055 31.5162 45.028 32.1799 45.2166L31.0132 55.235C31.3282 54.5116 34.9416 45.8516 34.9416 45.815C35.4932 45.9033 36.5432 45.9983 37.0032 46.0183L35.5816 69.6616C34.1005 69.5818 32.6293 69.3721 31.1849 69.035L33.2049 57.1016L28.1249 65.2483L27.9949 55.34C27.5749 56.595 23.3766 66.2016 23.3766 66.2416C22.0789 65.5814 20.8297 64.8301 19.6382 63.9933V64ZM12.9016 57.7L26.5682 42.6233C26.5182 42.6116 27.8032 43.4 28.4216 43.7183L17.8666 57.7C18.7484 58.6012 19.7076 59.4232 20.7332 60.1566L18.8216 63.405C16.6169 61.7576 14.6285 59.8392 12.9032 57.695L12.9016 57.7ZM20.1449 43.1016L14.0415 45.6483C14.4692 46.4975 14.9753 47.3049 15.5532 48.06L20.1449 43.1016ZM22.8016 39.4816C23.3438 40.0453 23.914 40.5816 24.5099 41.0883L12.4632 57.1566C11.6611 56.0988 10.9193 54.9965 10.2415 53.855L13.6182 50.2116C12.8322 49.1155 12.1588 47.9429 11.6082 46.7116L7.70322 48.4316C7.29616 47.3712 6.96804 46.2821 6.72155 45.1733L22.8016 39.4816ZM17.3299 35.55L12.9965 36.7266C13.0444 37.0804 13.1224 37.4295 13.2299 37.77C13.5449 38.805 14.0282 38.79 15.2466 38.3466L16.8299 37.755C17.4632 37.4733 18.0966 37.1866 17.7616 36.4616C17.5449 36.0733 17.3215 35.5283 17.3215 35.5483L17.3299 35.55ZM18.6882 33.1233C19.0973 34.0903 19.5723 35.028 20.1099 35.93C20.4394 36.4611 20.5445 37.1013 20.4019 37.7099C20.2594 38.3184 19.881 38.8454 19.3499 39.175C19.193 39.2723 19.0252 39.3506 18.8499 39.4083L15.7082 41.01C14.2082 41.7566 11.3749 41.4233 10.8299 39.4133C10.6159 38.7711 10.4433 38.1159 10.3132 37.4516L5.81322 38.7033C5.70461 37.6086 5.69681 36.5061 5.7899 35.41L18.6882 33.1233ZM37.9382 6.22662C40.4147 6.22575 42.867 6.7127 45.1553 7.65963C47.4435 8.60656 49.5228 9.99494 51.2744 11.7455C53.0261 13.4961 54.4158 15.5745 55.3641 17.8622C56.3124 20.1498 56.8009 22.6019 56.8016 25.0783V25.0866C56.8037 27.5639 56.3178 30.0173 55.3715 32.3067C54.4251 34.5961 53.0369 36.6766 51.2862 38.4293C49.5356 40.182 47.4566 41.5726 45.1683 42.5216C42.88 43.4705 40.4272 43.9593 37.9499 43.96C32.9488 43.96 28.1525 41.9733 24.6162 38.437C21.0799 34.9007 19.0932 30.1044 19.0932 25.1033C19.0932 20.1022 21.0799 15.3059 24.6162 11.7696C28.1525 8.23332 32.9488 6.24664 37.9499 6.24664L37.9382 6.22662ZM37.9499 3.03662C47.0928 3.03662 55.8612 6.66864 62.3262 13.1336C68.7912 19.5986 72.4232 28.3671 72.4232 37.51V37.51C72.4232 46.6529 68.7912 55.4213 62.3262 61.8863C55.8612 68.3513 47.0928 71.9833 37.9499 71.9833C28.807 71.9833 20.0386 68.3513 13.5736 61.8863C7.10855 55.4213 3.47656 46.6529 3.47656 37.51C3.47656 28.3671 7.10855 19.5986 13.5736 13.1336C20.0386 6.66864 28.807 3.03662 37.9499 3.03662V3.03662Z" fill="#006437"/>
<path fill-rule="evenodd" clip-rule="evenodd" d="M51.9072 15.0867C46.7236 13.9337 41.9199 11.4773 37.9505 7.95004C33.9795 11.4619 29.1875 13.9163 24.0172 15.0867C23.9901 20.4171 25.2412 25.6764 27.6655 30.4237C30.0898 35.1711 33.6166 39.2682 37.9505 42.3717C42.3217 39.303 45.8778 35.2136 48.31 30.4587C50.7422 25.7038 51.977 20.4271 51.9072 15.0867ZM38.1555 7.66503C42.1097 11.1511 46.8732 13.5924 52.0122 14.7667C50.4099 12.591 48.3243 10.8169 45.9198 9.58425C43.5153 8.35162 40.8574 7.69405 38.1555 7.66335V7.66503ZM23.8755 14.775C28.9962 13.5455 33.7477 11.1068 37.7322 7.66335C35.0296 7.69515 32.3713 8.35407 29.9667 9.58817C27.5622 10.8223 25.477 12.5979 23.8755 14.775V14.775ZM37.6472 42.6084C33.277 39.4789 29.7237 35.3441 27.2871 30.553C24.8505 25.7619 23.6021 20.455 23.6472 15.08C21.5713 18.0216 20.4596 21.5348 20.4655 25.135C20.4666 29.7176 22.2677 34.1163 25.4808 37.3837C28.6939 40.6511 33.0619 42.5256 37.6438 42.6034L37.6472 42.6084ZM52.2488 15.0934C52.338 20.4733 51.1087 25.7932 48.6683 30.5885C46.2279 35.3839 42.6506 39.5089 38.2488 42.6034C42.8291 42.5221 47.1944 40.6457 50.405 37.378C53.6157 34.1104 55.4149 29.7127 55.4155 25.1317C55.4217 21.5389 54.3156 18.0322 52.2488 15.0934V15.0934ZM37.9422 7.19836C42.6875 7.19748 47.2388 9.08158 50.595 12.4362C53.9513 15.7909 55.8375 20.3414 55.8388 25.0867V25.0867C55.8388 29.832 53.9539 34.383 50.5986 37.7386C47.2433 41.0942 42.6925 42.9796 37.9472 42.98V42.98C33.203 42.9813 28.6525 41.0986 25.2961 37.7457C21.9398 34.3928 20.0524 29.8442 20.0488 25.1V25.1C20.0488 20.3544 21.934 15.8032 25.2897 12.4475C28.6453 9.09189 33.1966 7.20671 37.9422 7.20671" fill="#006437"/>
<path d="M32.876 21.8067V17.03C32.876 16.0983 31.7993 15.8467 30.926 15.9C31.786 14.53 33.0626 14.0667 34.2876 15.1083C34.8341 14.3476 35.5385 13.714 36.3525 13.2509C37.1666 12.7878 38.0712 12.506 39.0043 12.425C47.4643 12.555 47.8276 24.695 41.8493 26.87C36.0576 28.9733 35.161 21.5367 38.781 21.795C41.141 22 40.3993 25.9333 38.2809 24.7C39.1143 27.115 44.4076 24.6433 41.7043 19.8917C42.0817 19.4068 42.3213 18.829 42.3978 18.2193C42.4744 17.6096 42.385 16.9906 42.1391 16.4274C41.8932 15.8643 41.4999 15.378 41.0007 15.0197C40.5015 14.6614 39.9148 14.4444 39.3026 14.3917C38.4253 14.4255 37.5973 14.8063 37.0007 15.4505C36.404 16.0946 36.0876 16.9493 36.1209 17.8267V17.8817V31.33C36.0943 33.71 36.4309 35.5667 38.3959 36.6033C38.0187 36.7734 37.6117 36.8674 37.1982 36.8801C36.7846 36.8928 36.3726 36.8239 35.9856 36.6773C35.5987 36.5308 35.2445 36.3094 34.9431 36.0259C34.6417 35.7424 34.3992 35.4023 34.2293 35.025C34.1038 34.7459 34.0196 34.45 33.9793 34.1467C33.1243 34.5067 32.2276 34.2567 31.5076 33.1033C31.7075 33.0845 31.9018 33.0265 32.0792 32.9325C32.2567 32.8385 32.4139 32.7104 32.5417 32.5556C32.6696 32.4008 32.7657 32.2223 32.8245 32.0303C32.8833 31.8383 32.9036 31.6365 32.8843 31.4367V31.3817V23.715L31.896 22.785L32.876 21.8067ZM31.5826 15.585C31.9903 15.5594 32.3915 15.6967 32.6981 15.9667C33.0046 16.2367 33.1915 16.6173 33.2176 17.025V21.9383L32.3676 22.7717L33.2176 23.5567V31.4883C33.2535 31.8689 33.1644 32.2508 32.9638 32.5762C32.7633 32.9016 32.4621 33.1528 32.1059 33.2917C32.3285 33.6128 32.6695 33.8323 33.054 33.902C33.4384 33.9717 33.8348 33.8858 34.156 33.6633C34.197 33.6349 34.2365 33.6043 34.2743 33.5717C34.2528 34.3315 34.5339 35.0687 35.0558 35.6213C35.5778 36.1739 36.2978 36.4966 37.0576 36.5183C37.2406 36.5235 37.4236 36.5112 37.6043 36.4817C36.9326 35.8908 36.4147 35.1454 36.0953 34.3097C35.7759 33.4741 35.6646 32.5733 35.771 31.685V17.85C35.7545 17.3704 35.8326 16.8923 36.001 16.443C36.1693 15.9936 36.4245 15.5818 36.752 15.2311C37.0795 14.8804 37.4728 14.5977 37.9096 14.399C38.3464 14.2003 38.8181 14.0897 39.2976 14.0733V14.0733C39.7846 14.1068 40.2603 14.2358 40.6974 14.4531C41.1345 14.6704 41.5246 14.9716 41.8453 15.3397C42.1659 15.7077 42.411 16.1353 42.5664 16.5981C42.7218 17.0608 42.7845 17.5497 42.751 18.0367C42.705 18.7061 42.4786 19.3505 42.096 19.9017C45.0543 25.375 37.9909 28.125 37.7776 23.995C40.0776 25.9617 40.6226 22.285 38.7143 22.13C35.6109 21.8717 36.5643 28.63 41.8493 26.5117C47.326 24.27 47.0726 12.965 38.996 12.755C38.0533 12.8529 37.1446 13.1612 36.337 13.6571C35.5293 14.1529 34.8432 14.8237 34.3293 15.62C34.0744 15.2563 33.686 15.0082 33.2489 14.9298C32.8117 14.8514 32.3613 14.9491 31.996 15.2017C31.8409 15.31 31.7052 15.4435 31.5943 15.5967L31.5826 15.585ZM39.3043 39.6483H36.6176C37.0484 40.0092 37.4985 40.3463 37.966 40.6583C38.1326 40.54 38.621 40.205 39.2993 39.6483H39.3043ZM40.6326 38.4917H35.2993C35.7159 38.88 36.1009 39.2183 36.4443 39.505H39.4909C39.8343 39.22 40.226 38.8817 40.646 38.4917H40.6326ZM41.8126 37.3583H34.1643C34.5109 37.7183 34.846 38.0483 35.1643 38.3583H40.8026C41.1226 38.0567 41.4693 37.7267 41.8126 37.3583ZM41.8043 24.5117H42.2126C42.186 24.56 42.156 24.6067 42.126 24.6533H41.6843C41.7243 24.6067 41.7643 24.56 41.8026 24.5117H41.8043ZM39.931 24.5117H41.8026C41.766 24.56 41.7243 24.6067 41.6843 24.6533H39.806C39.8526 24.6093 39.896 24.5619 39.9359 24.5117H39.931ZM39.7876 24.5117H39.9193C39.8794 24.5619 39.8359 24.6093 39.7893 24.6533H39.521C39.6114 24.6233 39.6948 24.5751 39.766 24.5117H39.7876ZM42.3526 23.335H42.611C42.611 23.3833 42.5926 23.43 42.5826 23.4783H42.3243C42.3387 23.4317 42.3515 23.3839 42.3626 23.335H42.3526ZM40.2443 23.335H42.3626C42.3515 23.3839 42.3387 23.4317 42.3243 23.4783H40.2526V23.335H40.2443ZM40.061 23.335H40.2526V23.4783H40.086C40.0831 23.4299 40.0753 23.3818 40.0626 23.335H40.061ZM36.7293 23.335H36.8826C36.8693 23.3828 36.8576 23.4306 36.8476 23.4783H36.6959C36.7059 23.43 36.716 23.3833 36.7276 23.335H36.7293ZM36.1343 23.335H36.7276C36.716 23.3833 36.7059 23.43 36.6959 23.4783H36.116L36.1343 23.335ZM35.901 23.335H36.1343V23.4783H35.901V23.335ZM42.466 22.195H42.6659C42.6659 22.2433 42.666 22.29 42.6743 22.3383H42.4509C42.4548 22.2906 42.4548 22.2427 42.4509 22.195H42.466ZM39.7193 22.195H42.4576C42.4538 22.2427 42.4538 22.2906 42.4576 22.3383H39.8593C39.816 22.2874 39.7692 22.2395 39.7193 22.195V22.195ZM39.1793 22.195H39.7193C39.7692 22.2395 39.816 22.2874 39.8593 22.3383H39.4193C39.344 22.283 39.2637 22.235 39.1793 22.195V22.195ZM37.4093 22.195H37.926C37.8218 22.2336 37.7214 22.2816 37.6259 22.3383H37.251C37.3003 22.2868 37.3532 22.2389 37.4093 22.195ZM36.116 22.195H37.4093C37.3532 22.2389 37.3003 22.2868 37.251 22.3383H36.1143L36.116 22.195ZM35.8826 22.195H36.116V22.3383H35.8826V22.195ZM42.2059 21.0283H42.416L42.4576 21.17H42.251C42.236 21.1233 42.2193 21.075 42.2043 21.0283H42.2059ZM36.1126 21.0283H42.2043C42.2193 21.0767 42.236 21.1233 42.251 21.17H36.1143L36.1126 21.0283ZM35.8826 21.0283H36.1126V21.17H35.8826V21.0283ZM41.716 19.8733H42.0076L41.9693 19.9167L42.0159 20.015H41.7576L41.6959 19.9017C41.7059 19.8933 41.7143 19.8817 41.7226 19.8733H41.716ZM36.1143 19.8733H41.7226L41.6959 19.9017L41.7576 20.015H36.1109L36.1143 19.8733ZM35.886 19.8733H36.1143V20.015H35.886V19.8733ZM42.366 18.7067H42.5943C42.5843 18.755 42.5709 18.8017 42.5576 18.85H42.316C42.331 18.8033 42.346 18.755 42.3593 18.7067H42.366ZM36.1076 18.7067H42.3593C42.346 18.7544 42.3315 18.8022 42.316 18.85H36.1093L36.1076 18.7067ZM35.8809 18.7067H36.1076V18.85H35.8809V18.7067ZM42.4359 17.5517H42.6393C42.6393 17.6 42.6493 17.6467 42.6543 17.695H42.4509C42.4491 17.6469 42.4441 17.5991 42.4359 17.5517ZM36.1243 17.5517H42.446C42.446 17.6 42.4559 17.6467 42.4609 17.695H36.1276C36.129 17.647 36.1329 17.5992 36.1393 17.5517H36.1243ZM35.9043 17.5517H36.1393C36.1393 17.6 36.1393 17.6467 36.1276 17.695H35.8976V17.5517H35.9043ZM42.1193 16.385H42.3376C42.3576 16.4317 42.376 16.48 42.3943 16.5267H42.1809C42.1609 16.4783 42.141 16.4317 42.1193 16.385ZM36.4226 16.385H42.1193C42.141 16.4317 42.1626 16.48 42.1809 16.5267H36.3626C36.3809 16.48 36.3993 16.4317 36.4176 16.385H36.4226ZM36.1743 16.385H36.4176C36.3976 16.4317 36.3793 16.48 36.3626 16.5267H36.1176C36.1359 16.48 36.1543 16.4317 36.1743 16.385ZM41.2943 15.2283H41.6276C41.6676 15.2767 41.7059 15.3233 41.7459 15.3717H41.4426C41.3976 15.3233 41.3493 15.275 41.3009 15.2283H41.2943ZM37.1726 15.2283H41.3009C41.3493 15.275 41.396 15.3233 41.4426 15.3717H37.046C37.0876 15.3233 37.1326 15.275 37.176 15.2283H37.1726ZM36.9426 15.2283H37.176C37.1302 15.2739 37.0868 15.3217 37.046 15.3717H36.8126C36.8543 15.3233 36.8976 15.2767 36.9426 15.2283ZM38.1909 26.8067H39.086C39.3453 26.884 39.6125 26.9321 39.8826 26.95H38.4693C38.3741 26.9072 38.2811 26.8593 38.1909 26.8067V26.8067ZM36.1226 26.8067H38.1909C38.2809 26.8583 38.3726 26.9067 38.4693 26.95H36.1209L36.1226 26.8067ZM35.8826 26.8067H36.1226V26.95H35.8826V26.8067ZM37.0576 25.64H37.4076C37.4443 25.6883 37.4826 25.735 37.5226 25.7817H37.1426C37.1126 25.735 37.0843 25.6867 37.0576 25.64ZM36.1226 25.64H37.0576C37.0843 25.6883 37.1126 25.735 37.1426 25.7817H36.1193L36.1226 25.64ZM35.8843 25.64H36.1226V25.7817H35.8843V25.64ZM36.6609 24.485H36.8543C36.8659 24.5333 36.8776 24.58 36.8926 24.6267H36.6843C36.676 24.5783 36.6659 24.5317 36.6609 24.485ZM36.1176 24.485H36.6609C36.6642 24.5329 36.6721 24.5803 36.6843 24.6267H36.1209L36.1176 24.485ZM35.8809 24.485H36.1176V24.6267H35.8809V24.485ZM41.9376 13.05H41.7043C41.5743 12.9983 41.4343 12.9483 41.2943 12.9067H41.6026C41.7159 12.9517 41.8293 12.9983 41.936 13.05H41.9376ZM43.6376 14.205H43.5709C43.5176 14.1567 43.4643 14.1083 43.4043 14.0617H43.476C43.5293 14.1083 43.5826 14.1567 43.6326 14.205H43.6376ZM44.5943 15.3717H44.5493C44.5176 15.325 44.4859 15.2767 44.4543 15.2283H44.4976L44.5943 15.3717V15.3717ZM45.2093 16.5267H45.1643L45.1009 16.385H45.146C45.166 16.4317 45.1893 16.48 45.2093 16.5267ZM45.606 17.6933H45.5509C45.5393 17.645 45.5243 17.5983 45.5126 17.55H45.5676C45.5826 17.5983 45.5943 17.645 45.6076 17.6933H45.606ZM45.8293 18.8483H45.7626L45.7443 18.705H45.811C45.811 18.7533 45.8259 18.8 45.8309 18.8483H45.8293ZM45.9026 20.015H45.8243V19.8733H45.9026V20.015ZM45.8309 21.17H45.7393C45.7393 21.1233 45.7543 21.075 45.7593 21.0283H45.8476C45.8453 21.0759 45.8397 21.1232 45.8309 21.17V21.17ZM45.6093 22.3367H45.506C45.5193 22.2883 45.5326 22.2417 45.5426 22.1933H45.6443L45.6093 22.3367ZM45.221 23.4767H45.1026C45.1226 23.43 45.146 23.3817 45.1643 23.3333H45.2776C45.2576 23.3817 45.2393 23.4283 45.2193 23.4767H45.221ZM44.5909 24.6533H44.4509L44.546 24.5117H44.6843L44.5909 24.6533V24.6533ZM43.6093 25.8083H43.3976C43.4543 25.7633 43.5093 25.715 43.5643 25.6667H43.7626C43.7126 25.715 43.661 25.7617 43.6093 25.8083V25.8083ZM41.5993 26.975H40.4326C40.729 26.9531 41.023 26.9052 41.311 26.8317H41.9776C41.926 26.8517 41.8759 26.875 41.8226 26.8933L41.5843 26.975H41.5993ZM36.0943 28.13H35.8526V27.9867H36.0943V28.13ZM36.0943 29.2967H35.851V29.155H36.0943V29.2967ZM36.0943 30.4517H35.8493V30.31H36.0943V30.4517ZM36.0943 31.585H35.8476V31.4417H36.0943V31.585ZM36.1359 32.74H35.8476V32.5967H36.126C36.126 32.645 36.1259 32.6917 36.1359 32.74ZM36.3126 33.9067H36.0609C36.0476 33.8583 36.0359 33.8117 36.0243 33.7633H36.2826C36.2926 33.8117 36.3026 33.8583 36.3143 33.9067H36.3126ZM36.7443 35.0617H36.4993C36.4743 35.015 36.4526 34.9667 36.4293 34.9183H36.6709C36.6943 34.9661 36.7187 35.0139 36.7443 35.0617V35.0617ZM37.7443 36.2283H37.356C37.306 36.1817 37.2559 36.135 37.2093 36.085H37.5643C37.621 36.1339 37.6765 36.1817 37.7309 36.2283H37.7443ZM34.9759 36.085H35.286C35.336 36.1333 35.3893 36.1817 35.4443 36.2283H35.1376C35.0826 36.1833 35.0276 36.135 34.971 36.085H34.9759ZM34.1676 34.9183H34.4793C34.4993 34.965 34.5226 35.0133 34.546 35.0617H34.231C34.2093 35.015 34.1876 34.9667 34.1676 34.9183ZM31.9776 33.7633H32.2926C32.3648 33.8122 32.4398 33.86 32.5176 33.9067H32.1376C32.0826 33.8633 32.031 33.815 31.971 33.7633H31.9776ZM32.4876 32.5967H32.906C32.903 32.6335 32.8957 32.6698 32.8843 32.705L32.861 32.7383H32.3609C32.4073 32.6934 32.4507 32.6455 32.4909 32.595L32.4876 32.5967ZM32.8493 31.44H32.9376V31.5833H32.8459V31.44H32.8493ZM32.8459 30.3083H32.9359V30.45H32.8459V30.3083ZM32.8459 29.1533H32.9376V29.295H32.8459V29.1533ZM32.8459 27.9867H32.9393V28.13H32.8459V27.9867ZM32.8459 26.8317H32.941V26.975H32.8459V26.8317ZM32.8459 25.665H32.9426V25.8067H32.8459V25.665ZM32.8459 24.51H32.9459V24.6517H32.8459V24.51ZM32.4376 23.3333H32.6476L32.7776 23.4767H32.611L32.4376 23.3333ZM32.8459 21.035H32.941V21.1767H32.8459V21.035ZM32.8459 19.88H32.9459V20.0217H32.8476L32.8459 19.88ZM32.8459 18.7133H32.9476V18.8567H32.8459V18.7133ZM32.8459 17.5583H32.9493V17.7017H32.8459V17.5583ZM32.6093 16.3917H32.916C32.9304 16.4378 32.9404 16.4853 32.9459 16.5333H32.7159C32.6849 16.4829 32.6492 16.4354 32.6093 16.3917V16.3917ZM31.4176 15.235H31.6543C31.611 15.28 31.5693 15.3283 31.5243 15.3783H31.2826L31.4126 15.235H31.4176ZM35.2059 14.0683H35.6176L35.4643 14.2117H35.0643L35.221 14.0683H35.2059ZM36.9376 12.9133H37.326C37.2237 12.9555 37.1226 13.0033 37.0226 13.0567H36.6543C36.7476 13.0067 36.841 12.96 36.9343 12.9133H36.9376ZM40.8343 11.895H34.9509C34.4409 12.2283 33.8726 12.5617 33.2509 12.9133H36.9343C36.8393 12.9583 36.746 13.0067 36.6543 13.0567H32.9876C32.3626 13.39 31.6859 13.74 30.9643 14.0683H35.2143L35.0576 14.2117H30.646C29.8326 14.5717 28.9643 14.9167 28.041 15.23H31.421C31.376 15.2767 31.3309 15.3233 31.2909 15.3733H27.6126C26.9109 15.6 26.191 15.805 25.431 15.9867V16.3867H32.6126C32.6525 16.4304 32.6882 16.4779 32.7193 16.5283H25.4343C25.4343 16.8739 25.4448 17.2133 25.466 17.5467H32.8493V17.69H25.4793C25.4959 18.035 25.5193 18.3717 25.5493 18.7017H32.8559V18.845H25.5859C25.6171 19.1906 25.6532 19.53 25.6943 19.8633H32.8793V20.005H25.7126C25.7548 20.3506 25.8037 20.6878 25.8593 21.0167H32.8793V21.1583H25.8793C25.936 21.5017 26.0009 21.8417 26.0676 22.1767H32.976L32.8309 22.32H26.0976C26.1676 22.6533 26.2432 22.9867 26.3243 23.32H32.4676L32.6193 23.4633H26.3593C26.4459 23.8133 26.5376 24.1583 26.6376 24.4983H32.876V24.64H26.6709C26.7721 24.9855 26.8782 25.3233 26.9893 25.6533H32.8676V25.795H27.0343C27.1526 26.14 27.2743 26.4783 27.4009 26.8133H32.8643V26.9567H27.456C27.5893 27.3017 27.7276 27.6383 27.8676 27.9683H32.8676V28.1117H27.9326C28.0837 28.4572 28.2393 28.7967 28.3993 29.13H32.8676V29.2717H28.4709C28.6432 29.6172 28.8154 29.9544 28.9876 30.2833H32.8676V30.425H29.0626C29.2448 30.7583 29.4309 31.0883 29.6209 31.415H32.866V31.5583H29.7093C29.917 31.9039 30.1271 32.2411 30.3393 32.57H32.506C32.4657 32.6205 32.4223 32.6684 32.3759 32.7133H30.4359C30.6671 33.0633 30.8993 33.4028 31.1326 33.7317H32.0043C32.0576 33.7817 32.1109 33.8317 32.1709 33.875H31.2426C31.496 34.225 31.7504 34.5622 32.0059 34.8867H34.2043C34.2243 34.935 34.2459 34.9817 34.2676 35.03H32.1193C32.4026 35.3856 32.6837 35.725 32.9626 36.0483H35.006C35.0593 36.0967 35.1126 36.145 35.1726 36.1917H33.0859C33.4009 36.55 33.7093 36.8883 34.0093 37.2033H41.9326C42.2359 36.8878 42.5465 36.5505 42.8643 36.1917H37.761C37.6998 36.145 37.6443 36.0972 37.5943 36.0483H42.9993C43.2804 35.7261 43.5632 35.3867 43.8476 35.03H36.766C36.7393 34.9833 36.7159 34.935 36.6926 34.8867H43.951C44.2099 34.5633 44.4654 34.2261 44.7176 33.875H36.3376C36.3259 33.8267 36.316 33.78 36.306 33.7317H44.8226C45.0582 33.405 45.2915 33.0656 45.5226 32.7133H36.1643C36.1643 32.665 36.1643 32.6183 36.1543 32.57H45.6176C45.831 32.2433 46.0415 31.9061 46.2493 31.5583H36.1226V31.415H46.3376C46.5265 31.0928 46.7126 30.7628 46.896 30.425H36.1226V30.2833H46.9659C47.1326 29.95 47.3109 29.6167 47.4826 29.2717H36.1209V29.13H47.5476C47.7143 28.7967 47.8626 28.4633 48.0126 28.1117H36.116V27.9683H48.0676C48.2093 27.635 48.3443 27.3017 48.4776 26.9567H41.6059L41.8443 26.875C41.8976 26.855 41.9476 26.8333 41.9993 26.8133H48.5343C48.6599 26.48 48.7809 26.1406 48.8976 25.795H43.6209C43.6726 25.7483 43.7226 25.7017 43.7743 25.6533H48.9409C49.0521 25.32 49.1571 24.9822 49.256 24.64H44.601C44.6326 24.5917 44.6643 24.545 44.6943 24.4983H49.3076C49.4043 24.165 49.496 23.815 49.5826 23.4633H45.236L45.2943 23.32H49.6176C49.6965 22.9933 49.7704 22.66 49.8393 22.32H45.621L45.656 22.1767H49.8693C49.936 21.8433 49.9993 21.51 50.0543 21.1583H45.8426C45.8456 21.1109 45.8512 21.0635 45.8593 21.0167H50.0776C50.131 20.6833 50.1787 20.3461 50.221 20.005H45.9193V19.8633H50.2526C50.2926 19.53 50.3276 19.1967 50.3576 18.845H45.8576C45.8541 18.7968 45.8474 18.749 45.8376 18.7017H50.3693C50.396 18.3683 50.4182 18.0311 50.436 17.69H45.6376C45.6243 17.6417 45.6109 17.595 45.5976 17.5467H50.4426C50.4576 17.2133 50.4693 16.8717 50.4726 16.5283H45.2409C45.2209 16.48 45.1993 16.4333 45.1776 16.3867H50.4793V15.9867C49.7015 15.8045 48.9593 15.6 48.2526 15.3733H44.6326L44.536 15.23H47.8176C46.8743 14.915 45.9943 14.5717 45.1776 14.2117H43.6776C43.6276 14.1633 43.5726 14.1167 43.5209 14.0683H44.8543C44.1243 13.735 43.4493 13.4017 42.826 13.0567H41.9476C41.8393 13.0067 41.7259 12.9583 41.6143 12.9133H42.5493C41.931 12.5667 41.3693 12.2233 40.8676 11.895H40.8343ZM39.2426 10.7383H36.6476C36.246 11.0417 35.7626 11.385 35.2043 11.7517H40.656C40.1076 11.385 39.6376 11.0417 39.2459 10.7383H39.2426ZM36.8376 10.5967H39.0626C38.6781 10.2983 38.3114 9.97773 37.9643 9.63665C37.6106 9.98143 37.2342 10.3022 36.8376 10.5967V10.5967ZM50.8026 15.7283C50.889 20.6851 49.7654 25.5882 47.5291 30.0128C45.2929 34.4373 42.0115 38.2498 37.9693 41.12C33.9585 38.2206 30.7005 34.4028 28.4677 29.9861C26.235 25.5694 25.0926 20.6821 25.136 15.7333C29.8942 14.6493 34.3058 12.3925 37.9693 9.16833C41.6039 12.4344 46.0271 14.6966 50.8026 15.7317" fill="#006437"/>
</svg>
