<svg width="77" height="75" viewBox="0 0 77 75" fill="none" xmlns="http://www.w3.org/2000/svg">
<path d="M60.6868 0.625183C60.271 0.846062 59.8682 1.06694 59.4525 1.30081C53.6447 4.32815 46.6415 5.83532 38.4171 5.84831C30.1926 5.83532 23.1764 4.31515 17.3556 1.30081C16.9399 1.07993 16.5371 0.859054 16.1343 0.625183L5.50616 12.0849C11.7557 16.6843 11.5348 24.0773 4.83053 34.2507C0.711797 40.4743 -0.249675 46.9707 1.94612 53.74C4.7006 62.2243 11.301 66.7848 21.7602 67.4604C28.2696 67.8762 33.8176 70.1629 38.43 74.3336C43.0165 70.1629 48.5645 67.8762 55.0739 67.4604C65.5331 66.7848 72.1335 62.2243 74.888 53.727C77.0708 46.9577 76.1223 40.4613 72.0166 34.2377C65.2993 24.0643 65.0784 16.6843 71.3279 12.0719L60.6868 0.625183Z" fill="black"/>
<path fill-rule="evenodd" clip-rule="evenodd" d="M60.7897 0.0112471L72.0655 12.1407L71.6206 12.4691C68.6181 14.685 67.1942 17.5328 67.3026 21.0542C67.4122 24.6143 69.0905 28.9109 72.4281 33.9656C76.6121 40.3079 77.5884 46.9595 75.3574 53.8784C73.9507 58.218 71.5514 61.5775 68.1508 63.9326C64.756 66.2838 60.3974 67.6112 55.1052 67.953C48.701 68.3621 43.2605 70.6078 38.7617 74.6988L38.4305 75L38.0985 74.6998C33.573 70.6077 28.1323 68.3621 21.7283 67.953C16.4361 67.6112 12.0773 66.2838 8.68247 63.9344C5.28192 61.5809 2.88287 58.2255 1.4761 53.8924C-0.768538 46.9725 0.221258 40.3207 4.41785 33.979C7.74885 28.9244 9.4241 24.6245 9.53213 21.0626C9.639 17.5392 8.21491 14.6917 5.21307 12.4824L4.76766 12.1546L16.0403 0L16.3817 0.198231C16.7769 0.427692 17.1732 0.645096 17.5845 0.863586C23.3194 3.83293 30.2531 5.34162 38.4166 5.35461C46.5786 5.34162 53.4969 3.84649 59.2169 0.866616C59.6333 0.632458 60.0374 0.410887 60.4547 0.189184L60.7897 0.0112471ZM38.4166 5.84827C30.1921 5.83528 23.176 4.31512 17.3552 1.30078C16.9394 1.0799 16.5366 0.859019 16.1338 0.625147L5.50569 12.0848C5.64014 12.1838 5.7716 12.284 5.90006 12.3856C11.7427 17.0037 11.3901 24.2961 4.83006 34.2506C0.711323 40.4742 -0.250148 46.9706 1.94564 53.7399C4.70013 62.2243 11.3005 66.7848 21.7597 67.4604C28.2692 67.8762 33.8171 70.1629 38.4296 74.3336C43.016 70.1629 48.564 67.8762 55.0734 67.4604C65.5327 66.7848 72.133 62.2243 74.8875 53.7269C77.0703 46.9577 76.1218 40.4612 72.0161 34.2377C65.4432 24.2829 65.0904 17.0028 70.9335 12.3731C71.0618 12.2714 71.1932 12.171 71.3275 12.0718L60.6863 0.625147C60.2705 0.846026 59.8678 1.0669 59.452 1.30078C53.6442 4.32811 46.6411 5.83528 38.4166 5.84827Z" fill="#3A3A3A"/>
<path d="M16.7568 2.44416C16.6399 2.39219 16.51 2.32722 16.393 2.24927L7.42797 11.9419C13.2358 16.9442 12.742 24.623 5.9208 34.9523C5.53101 35.55 5.14123 36.1736 4.81641 36.7713L54.0073 4.95178C49.4079 6.41997 44.1977 7.13458 38.4289 7.16057C29.9706 7.13458 22.7595 5.57544 16.7568 2.44416Z" fill="white"/>
<path d="M34.9615 36.7972L27.9844 41.2928V67.1485C30.453 67.8242 32.7787 68.8116 34.9485 70.0979L34.9615 36.7972Z" fill="white"/>
<path d="M48.8893 27.7672L41.9121 32.2627V70.0979C44.0819 68.7986 46.3946 67.7982 48.8893 67.1226V27.7672Z" fill="white"/>
<path d="M21.0065 45.8143L14.0293 50.3099V64.628C16.0952 65.3816 18.4079 65.8623 21.0065 66.1092V45.8143Z" fill="white"/>
<path d="M7.05246 54.8313L4.50586 56.4684C5.20747 57.8067 6.05201 59.015 7.05246 60.0934V54.8313Z" fill="white"/>
<path d="M62.8437 18.7502L55.8535 23.2457V66.1091C58.4521 65.8623 60.7648 65.3685 62.8307 64.6149L62.8437 18.7502Z" fill="white"/>
<path d="M70.9104 34.9523C70.5206 34.3676 70.1308 33.7699 69.793 33.1982V60.0675C71.482 58.2355 72.7683 55.9747 73.6388 53.3372C75.7047 46.9447 74.7952 40.825 70.9104 34.9523Z" fill="white"/>
<path d="M56.9961 7.22555C56.8012 6.7578 56.3984 6.65386 55.7748 6.9527L46.6798 12.9684C46.1341 13.5531 45.8612 14.1377 45.8223 14.7354V24.8958C46.0172 26.1691 46.6148 26.5069 47.6413 25.9612L55.6189 20.907C56.3465 20.2834 56.8012 19.4518 56.9961 18.3994V13.709L52.9553 16.1646V19.14L50.7206 20.6342C50.4607 20.7771 50.2788 20.7511 50.1749 20.5822C50.0839 20.4393 50.0579 20.1924 50.0319 19.7766L49.941 14.5925C49.98 14.3066 50.0839 14.0598 50.2528 13.8909L52.6175 12.1368C53.1372 11.7211 53.4101 11.7471 53.4361 12.1758V12.7085L56.9701 10.3568L56.9961 7.22555Z" fill="white"/>
<path d="M36.5723 22.739L39.08 21.1019V17.6978L27.2305 25.4025V27.9621L28.8676 26.9617V35.433L27.2694 36.5114L27.3084 38.9281L35.1431 33.9778V31.5222L33.0643 32.8604V29.6642L35.1041 28.3389V30.054L37.222 28.6507V23.3367L35.286 24.6749V25.6364L33.0123 26.9487V24.2462L35.8317 22.3752L36.5723 22.739Z" fill="white"/>
<path d="M24.8508 40.4872V37.239L21.4727 39.3698V42.722L24.8508 40.4872Z" fill="white"/>
<path d="M40.002 27.4294V30.7556L43.3931 28.5468V25.2986L40.002 27.4294Z" fill="white"/>
<path d="M18.8744 31.5352C18.6145 31.3923 18.2378 31.3793 17.705 31.5222L9.29867 36.7323C8.42815 37.304 8.02537 37.8887 8.12931 38.4993L8.14231 42.9169C8.20727 43.5925 8.45414 43.9433 8.86991 43.9823C9.29867 44.0343 9.92233 43.7614 10.7409 43.1768L14.2489 40.942C14.9246 40.6821 15.3274 40.6951 15.4703 40.994V43.8654L12.6508 45.7494C12.1831 46.0092 12.0012 45.8143 12.0661 45.2037V43.6055L8.12931 46.0482V49.0365C8.11632 50.2969 8.64903 50.6736 9.72744 50.1539L18.2378 44.6709C18.9783 44.2812 19.3162 43.4366 19.3032 42.1763L19.2512 38.0706C18.6535 37.2001 17.718 37.0182 16.4837 37.5898L12.7548 39.8636C12.391 40.0065 12.1831 39.8506 12.1181 39.4478V38.1615C12.0791 37.9666 12.1181 37.7847 12.2351 37.6158C12.352 37.4469 12.5599 37.252 12.9107 37.0312L14.7297 35.8618C15.1584 35.6149 15.4313 35.6669 15.5222 36.0567V37.0052L19.3032 34.6665V32.2238C19.1992 31.873 19.0563 31.6521 18.8744 31.5352Z" fill="white"/>
<path d="M62.6743 16.3075V13.0463L59.2832 15.1772V18.5293L62.6743 16.3075Z" fill="white"/>
<path d="M29.4258 14.6444C29.4258 12.3967 28.6203 10.4737 27.0352 8.88858C25.437 7.29046 23.5141 6.4849 21.2793 6.4979C19.0316 6.4849 17.1216 7.29046 15.5235 8.88858C13.9254 10.4737 13.1328 12.3967 13.1328 14.6444C13.1328 16.8792 13.9254 18.8021 15.5235 20.4002C15.6274 20.4912 15.7314 20.5951 15.8353 20.6731C17.3685 22.0763 19.1745 22.7909 21.2793 22.7909C23.5141 22.7909 25.437 21.9854 27.0352 20.4002C28.6203 18.8021 29.4258 16.8792 29.4258 14.6444ZM20.9025 7.29046C21.0455 7.27747 21.1624 7.27747 21.2923 7.27747C22.1499 7.27747 22.9294 7.42039 23.683 7.65426C23.696 7.66725 23.696 7.69324 23.696 7.70623C25.6709 11.2273 25.8398 14.2546 24.2677 16.7493C24.2547 16.7363 24.2157 16.7363 24.1767 16.7103C24.5795 13.2672 23.5011 10.1229 20.9025 7.29046ZM23.735 17.204C23.8259 17.204 23.9299 17.204 24.0208 17.217C24.1378 17.23 24.2417 17.269 24.3327 17.3209C24.3716 17.3599 24.3976 17.3859 24.4366 17.4379V17.4509C24.4366 17.4898 24.4496 17.5158 24.4366 17.5678C24.4236 17.6588 24.3716 17.7627 24.2677 17.8536C24.2157 17.9186 24.1637 17.9966 24.0988 18.0485C23.9429 18.1915 23.735 18.3084 23.5011 18.3864C23.2153 18.4903 22.9294 18.5423 22.6826 18.5423C22.6436 18.5293 22.6176 18.5293 22.5786 18.5293C22.3837 18.4903 22.2668 18.4253 22.2018 18.3084C22.1499 18.1915 22.1628 18.0615 22.2928 17.9186C22.2928 17.9186 22.3058 17.9056 22.3058 17.8796H22.3188C22.4877 17.6588 22.7605 17.4898 23.1113 17.3469C23.3062 17.269 23.5271 17.217 23.735 17.204ZM23.3452 16.7363C23.1893 16.7752 23.0723 16.8012 22.9164 16.8792C22.5786 16.9961 22.2928 17.165 22.0719 17.3729C18.2 16.6843 16.3031 13.9688 16.3291 9.2134C17.3815 8.25193 18.5768 7.62827 19.9151 7.3944C22.6696 10.2009 23.787 13.3062 23.3452 16.7363ZM28.5163 13.1502C28.4774 13.2542 28.4514 13.3711 28.4124 13.4881C27.6848 15.6189 26.5284 16.8532 24.9043 17.204C26.5934 14.6834 26.5544 11.6561 24.8134 8.16098C25.4111 8.4858 25.9698 8.91457 26.4765 9.43428C27.5679 10.4997 28.2435 11.747 28.5163 13.1502ZM26.5414 19.7766C26.5284 19.7896 26.5025 19.8156 26.4895 19.8286C25.593 20.7251 24.5795 21.3357 23.4491 21.6865C23.9689 20.881 24.1378 19.9195 23.9948 18.7502C24.0468 18.7372 24.0988 18.6982 24.1507 18.6592C24.9433 19.2959 25.7489 19.6856 26.5414 19.7766ZM24.7354 18.1395C24.7744 18.0875 24.8004 18.0485 24.8264 17.9966C26.5154 17.7757 27.7758 16.7622 28.6593 14.9562C28.6073 16.4894 28.1136 17.8407 27.2171 19.023C26.3855 19.062 25.554 18.7631 24.7354 18.1395ZM21.825 18.8541C21.877 18.8671 21.916 18.9061 21.9809 18.945C20.6947 20.0235 18.7457 20.3483 16.1731 19.8935C16.1342 19.8805 16.1212 19.8545 16.1082 19.8416C15.4325 19.1659 14.9388 18.4643 14.575 17.6717C16.9657 19.101 19.3694 19.4907 21.825 18.8541ZM22.9684 19.075V19.062C23.0594 19.062 23.1633 19.049 23.2413 19.023C23.3582 20.2443 23.0204 21.2188 22.2148 21.9464C21.929 21.9594 21.6171 21.9854 21.3053 21.9984C19.8631 21.9854 18.5508 21.6216 17.4075 20.881C19.9021 21.0499 21.7601 20.4522 22.9684 19.075ZM14.1722 16.4634C14.0163 15.8787 13.9514 15.2811 13.9514 14.6314C13.9514 12.8904 14.4841 11.3702 15.5625 10.0449C15.7314 14.6444 17.7583 17.3339 21.6431 18.1005C19.0965 18.7372 16.6019 18.2045 14.1722 16.4634Z" fill="black"/>
</svg>
