<svg width="76" height="75" viewBox="0 0 76 75" fill="none" xmlns="http://www.w3.org/2000/svg">
<path d="M0.363281 0V28.9079L38.0533 75L75.7433 28.9079V0H0.363281Z" fill="white"/>
<path d="M44.1328 27.4441V61.3763L71.8866 27.4441H44.1328Z" fill="black"/>
<path d="M4.21875 27.4441L31.9725 61.3763V27.4441H4.21875Z" fill="#ED1C24"/>
<path d="M71.9003 3.49036H4.21875V23.8272H71.9003V3.49036Z" fill="black"/>
<path d="M68.9042 11.5406V9.41544C68.9042 7.85324 67.6235 6.57251 66.0613 6.57251H58.8976C57.3354 6.57251 56.0547 7.85324 56.0547 9.41544V17.9302C56.0547 19.4924 57.3354 20.7731 58.8976 20.7731H66.0613C67.6235 20.7731 68.9042 19.4924 68.9042 17.9302V15.805H66.0613V17.2265C66.0613 17.6205 65.7516 17.9302 65.3576 17.9302H59.6013C59.2073 17.9302 58.8976 17.6205 58.8976 17.2265V10.1191C58.8976 9.72507 59.2073 9.41544 59.6013 9.41544H65.3576C65.7516 9.41544 66.0613 9.72507 66.0613 10.1191V11.5406C66.0613 11.5406 68.9042 11.5406 68.9042 11.5406Z" fill="white"/>
<path d="M7.2168 9.41544V12.2584C7.2168 13.8206 8.48345 15.1013 10.0597 15.1013H16.5197C16.8997 15.1013 17.2234 15.4109 17.2234 15.805V17.2265C17.2234 17.6205 16.8997 17.9302 16.5197 17.9302H7.2168V20.7731H17.2234C18.7856 20.7731 20.0663 19.4924 20.0663 17.9302V15.0872C20.0663 13.525 18.7856 12.2443 17.2234 12.2443H10.7634C10.3694 12.2443 10.0597 11.9347 10.0597 11.5406V10.1191C10.0597 9.72507 10.3694 9.41544 10.7634 9.41544H20.0663V6.57251H10.0457C8.48345 6.57251 7.2168 7.85324 7.2168 9.41544Z" fill="white"/>
<path d="M33.5066 6.57251H23.5V20.759H26.3429V15.0872H33.5066C35.0688 15.0872 36.3354 13.8065 36.3354 12.2443V9.41544C36.3354 7.85324 35.0688 6.57251 33.5066 6.57251ZM33.5066 11.5406C33.5066 11.9347 33.1829 12.2443 32.8029 12.2443H26.3429V9.41544H32.8029C33.1829 9.41544 33.5066 9.73914 33.5066 10.1191V11.5406Z" fill="white"/>
<path d="M39.7715 20.759H42.6144V15.0872H49.7781V12.2443H42.6144V9.41544H52.621V6.57251H39.7715V20.759Z" fill="white"/>
</svg>
