<svg width="59" height="75" viewBox="0 0 59 75" fill="none" xmlns="http://www.w3.org/2000/svg">
<path d="M58.4469 31.4919V16.616L57.5559 16.8693C57.4767 16.8921 49.517 19.1869 46.1707 15.6028C42.327 11.4944 45.4455 3.68034 45.4777 3.60182L45.7426 2.94073L45.0891 2.66971C42.7813 1.78736 40.3936 1.14167 37.961 0.742148C35.1495 0.275639 32.3074 0.0275482 29.4593 0V0C26.6061 0.0258055 23.759 0.273905 20.9427 0.742148C18.5104 1.14255 16.1227 1.78821 13.8146 2.66971L13.1612 2.94073L13.4334 3.60689C13.4656 3.68541 16.5916 11.4919 12.7379 15.6079C9.38675 19.192 1.42208 16.9022 1.35278 16.8744L0.449394 16.616V31.4818C0.449394 32.0998 0.310792 46.7477 7.82253 57.5127C17.6608 71.6135 28.796 74.8202 29.2638 74.9493L29.4469 75L29.6276 74.9493C30.0979 74.8202 41.233 71.6135 51.0688 57.5127C58.583 46.7477 58.4543 32.0998 58.4444 31.4919" fill="black"/>
<path d="M57.0515 18.4904C54.7077 19.0299 48.3889 20.0684 45.1516 16.6084C43.268 14.5947 42.5255 11.6008 42.9661 7.94075C43.1449 6.51555 43.465 5.11267 43.9215 3.75382C41.905 3.04735 39.8356 2.51028 37.7339 2.14794C34.998 1.69822 32.2331 1.45777 29.4623 1.42859V1.42859C26.6875 1.45982 23.9187 1.70025 21.1783 2.14794C19.0716 2.50969 16.9973 3.04677 14.9759 3.75382C15.4346 5.11217 15.7556 6.51519 15.9337 7.94075C16.3768 11.6008 15.6194 14.5947 13.7483 16.5958C10.5109 20.0557 4.1897 19.0172 1.84584 18.4904V31.5046C1.84584 31.6616 1.72209 46.3197 8.96157 56.6971C13.9587 63.845 19.3344 68.0623 22.9727 70.3394C26.3066 72.4316 28.7866 73.3004 29.4598 73.5157C30.138 73.2979 32.6526 72.4139 36.0013 70.3065C39.6149 68.0269 44.9684 63.8197 49.9482 56.6844C57.1951 46.2994 57.0639 31.649 57.0614 31.502L57.0515 18.4904ZM3.66747 31.5299V20.7016C6.96421 21.1576 11.9861 21.1626 15.0526 17.88C18.6934 13.9894 18.0227 8.28269 17.2158 4.96202C18.621 4.55415 20.0472 4.22605 21.4877 3.97925C24.1225 3.55054 26.7846 3.32111 29.4524 3.29282V3.29282C32.1203 3.32397 34.7824 3.55594 37.4171 3.98685C38.8538 4.23688 40.2758 4.56835 41.6766 4.97975C41.1816 7.0061 40.7361 9.92909 41.3053 12.7837L6.65483 48.2447C3.60064 39.924 3.66747 31.6363 3.66747 31.5299ZM48.4656 55.6054C40.6767 66.7655 31.8829 70.6484 29.4474 71.5628C27.5095 70.8561 21.5966 68.2903 15.3125 61.6211L55.2373 20.7472V31.5274C55.2373 31.6692 55.3388 45.7472 48.4607 55.6054" fill="white"/>
<path d="M40.9225 36.3171V36.2209H40.9102L40.9225 36.3171Z" fill="white"/>
<path d="M17.4238 45.732L17.4585 45.7117H17.4362V45.7244" fill="white"/>
<path d="M26.6365 65.0659C25.894 64.4858 25.5004 63.7335 25.5004 62.9458C25.5032 62.5219 25.6169 62.1064 25.8296 61.7427L25.2505 60.3394C24.5919 61.0408 24.2201 61.9731 24.2109 62.9458C24.2109 64.154 24.7926 65.2761 25.8494 66.1094C26.509 66.6214 27.2688 66.9817 28.0769 67.1657L27.4037 65.5395C27.132 65.4105 26.8748 65.2517 26.6365 65.0659V65.0659Z" fill="white"/>
<path d="M32.8081 57.6292L32.4863 58.4068C32.9026 58.5213 33.3104 58.666 33.7065 58.8399L34.2387 57.5532C34.3763 57.1988 34.6336 56.9067 34.9638 56.73H32.6249C32.7415 56.8362 32.8225 56.9773 32.8562 57.1333C32.89 57.2892 32.8749 57.4521 32.813 57.5988C32.8109 57.6088 32.8093 57.619 32.8081 57.6292Z" fill="white"/>
<path d="M31.3884 64.4731H29.9875L29.4579 65.7548L26.0918 57.6216V57.6038C26.03 57.4572 26.0148 57.2943 26.0486 57.1383C26.0824 56.9823 26.1633 56.8412 26.2799 56.735H23.9336C24.2638 56.9118 24.5211 57.2039 24.6588 57.5582L29.4505 69.1489L31.3884 64.4731Z" fill="white"/>
<path d="M33.5064 59.3262C33.1098 59.1526 32.7011 59.0095 32.2837 58.8982C32.1179 58.8526 31.9471 58.8121 31.7763 58.7741C31.0571 58.6245 30.3248 58.5498 29.5909 58.5512H29.529C28.7377 58.5557 27.9536 58.7068 27.2148 58.997L27.7099 60.2128C28.309 59.9836 28.9438 59.8677 29.5835 59.8708H29.6181C30.1665 59.8728 30.7138 59.9219 31.2541 60.0177C31.4298 60.0481 31.6006 60.0836 31.7689 60.1266C32.1924 60.2269 32.6065 60.3651 33.0064 60.5395C33.0782 60.5699 33.2218 60.6383 33.2242 60.6408C33.3157 60.6857 33.3993 60.7456 33.4717 60.8181C33.6181 60.9673 33.7106 61.1629 33.7341 61.3728V61.3728C33.7341 61.3906 33.7341 61.4007 33.7341 61.4007L33.9568 61.0689L34.6994 59.9848C34.4725 59.824 34.2352 59.6793 33.989 59.5517C33.8232 59.4706 33.6673 59.3946 33.5064 59.3262Z" fill="white"/>
<path d="M32.2207 60.8029C32.0104 60.732 31.795 60.6712 31.5723 60.6205L30.9609 62.0947H32.3593L32.8024 61.0258C32.6242 60.9448 32.4212 60.8688 32.2207 60.8029Z" fill="white"/>
<path d="M29.3405 63.9438H33.3476V65.1875C32.7215 65.5043 32.0549 65.7294 31.3675 65.8562L30.7809 67.2771C32.147 67.1533 33.4646 66.6984 34.6247 65.9499H34.6395V62.6241H28.791L29.3405 63.9438Z" fill="white"/>
<path d="M16.3544 32.2847C15.904 32.5946 15.4198 32.8497 14.9115 33.0446L14.2383 31.9149C14.4462 31.8414 14.8719 31.6616 14.9065 31.6337H14.9189C14.9971 31.5916 15.0681 31.5368 15.1293 31.4716C15.2796 31.3189 15.3733 31.1174 15.3941 30.9017C15.3947 30.8907 15.3947 30.8797 15.3941 30.8688L16.3544 32.2847Z" fill="white"/>
<path d="M11.2794 32.3987H11.2596C10.915 32.3982 10.5712 32.3651 10.2325 32.2999C10.0568 32.2644 9.88351 32.2214 9.71521 32.1707C9.25473 32.0301 8.81934 31.8146 8.42572 31.5324L8.30444 31.4412C8.16483 31.3305 8.0333 31.2094 7.91091 31.079C7.67728 30.8532 7.49117 30.5809 7.36397 30.2788C7.23677 29.9768 7.17116 29.6514 7.17116 29.3225C7.17116 28.9935 7.23677 28.6681 7.36397 28.3661C7.49117 28.064 7.67728 27.7917 7.91091 27.5659V25.8764C7.77561 25.9659 7.64443 26.0596 7.51738 26.1576C6.46054 26.9909 5.87891 28.1155 5.87891 29.3212C5.87891 30.5269 6.46054 31.654 7.51738 32.4873C7.64361 32.5861 7.76488 32.6798 7.91091 32.766C8.07717 32.8749 8.24902 32.9747 8.42572 33.0649C8.83689 33.271 9.26945 33.429 9.71521 33.536C9.88599 33.5765 10.0568 33.612 10.2325 33.6373C10.5667 33.6899 10.9042 33.717 11.2423 33.7183H11.2621C11.6914 33.7187 12.1203 33.6934 12.5467 33.6424L11.8041 32.3759C11.6358 32.3911 11.4576 32.3962 11.2794 32.3987Z" fill="white"/>
<path d="M8.42804 33.6474V34.1945C8.43444 34.4562 8.37243 34.7148 8.24842 34.9437C8.1244 35.1726 7.94289 35.3634 7.72266 35.4964H10.3982C10.1849 35.3613 10.0099 35.1715 9.89052 34.9458C9.77112 34.7201 9.71149 34.4663 9.71754 34.2097C9.71754 34.2097 9.71754 34.1869 9.71754 34.1768V34.0729C9.275 33.9751 8.84304 33.8326 8.42804 33.6474V33.6474Z" fill="white"/>
<path d="M15.0038 34.2452C15.0038 34.2452 13.1574 31.079 13.0733 30.9346C12.8745 30.5586 12.5994 30.2304 12.2664 29.9721C12.7903 29.7357 13.2479 29.3686 13.5973 28.9044C13.9466 28.4402 14.1767 27.8938 14.2663 27.3151C13.8603 27.1547 13.4412 27.0318 13.0139 26.9478C12.8901 28.0395 12.0932 28.8855 11.1279 28.8855H9.71715V24.4199H10.6898C10.8532 24.4199 11.0165 24.3997 11.1848 24.3971H11.264C12.1144 24.3964 12.9622 24.4941 13.7911 24.6884C13.5186 24.2118 13.1305 23.8152 12.6644 23.537C12.1983 23.2588 11.6699 23.1084 11.1304 23.1003H7.71484C7.93757 23.2324 8.12134 23.4235 8.2468 23.6535C8.37225 23.8835 8.43473 24.1439 8.42765 24.4073V30.8434C8.48953 30.8992 8.55388 30.9549 8.62318 31.0106C8.95434 31.2664 9.32377 31.4657 9.71715 31.6008V30.1925H10.3508C10.5672 30.1918 10.7817 30.2348 10.9819 30.3191C11.2153 30.4526 11.412 30.6443 11.5536 30.8764L14.239 35.4888H16.4245C15.8254 35.2537 15.3237 34.8145 15.0038 34.2452V34.2452Z" fill="white"/>
<path d="M16.3555 26.3602L15.3977 27.7736C15.3786 27.5559 15.2848 27.3522 15.1329 27.1986C15.0664 27.1281 14.9885 27.0698 14.9027 27.0264L14.826 26.9858C14.6651 26.9073 14.4943 26.8364 14.3309 26.7705C13.9082 26.6138 13.4736 26.4926 13.0316 26.4083C12.8558 26.3754 12.6801 26.3475 12.4994 26.3248C12.1037 26.2741 11.7053 26.2478 11.3065 26.2462H11.2718C10.9263 26.2454 10.5815 26.2785 10.2422 26.345V25.0051C10.3981 24.9823 10.5565 24.962 10.7149 24.9494C10.8733 24.9367 11.0441 24.9266 11.2099 24.9266H11.2718C11.6487 24.9267 12.0254 24.9462 12.4004 24.9848C12.9733 25.0451 13.5403 25.1535 14.0958 25.309C14.3012 25.3673 14.5017 25.4332 14.6997 25.5041C15.2855 25.715 15.8421 26.0027 16.3555 26.3602V26.3602Z" fill="white"/>
<path d="M38.071 47.1378C38.4686 46.4725 38.8129 45.7753 39.1006 45.0532C41.4642 43.4878 43.5952 40.7219 44.6793 37.2011C45.7068 33.6751 45.6515 29.9112 44.5209 26.4184H41.3479C41.718 25.7799 42.0153 25.1 42.234 24.3921C42.2959 24.1894 42.3478 23.9893 42.3949 23.7867C42.8626 21.7604 42.6597 19.7847 41.4642 18.2624C40.3455 16.8363 38.5759 16.1094 36.7617 15.8966C36.8489 15.1722 36.7258 14.4375 36.4077 13.7842C36.0141 12.9117 35.3383 12.2049 34.4945 11.7832L34.3856 11.7249C33.3042 11.2035 32.1281 10.9197 30.933 10.8916V6.43868C30.933 6.19751 30.8393 5.96622 30.6727 5.79569C30.5061 5.62516 30.2801 5.52936 30.0444 5.52936C29.8088 5.52936 29.5828 5.62516 29.4161 5.79569C29.2495 5.96622 29.1559 6.19751 29.1559 6.43868C29.1535 6.47917 29.1535 6.51977 29.1559 6.56026V6.56026C28.6193 6.65 28.0928 6.79425 27.5842 6.99086C26.9029 7.25309 26.2593 7.60838 25.671 8.04709V8.75378C25.4433 8.88295 25.228 9.00707 25.0201 9.16664C24.5746 9.47819 22.7926 10.77 22.0921 12.614C22.7228 12.2678 23.381 11.9772 24.0598 11.7452C25.6339 11.1803 27.2773 10.9448 27.9753 11.0917C26.3944 11.3633 24.8523 11.8338 23.3841 12.4924C23.3841 12.4924 22.0303 13.1509 21.956 13.1915C22.0253 13.2371 22.0946 13.2852 22.1614 13.3384C22.2484 13.4091 22.3311 13.4853 22.4089 13.5663C22.7664 13.9409 23.0363 14.3935 23.1984 14.8901C23.3604 15.3867 23.4104 15.9144 23.3445 16.4336C23.2618 17.2351 23.0002 18.0064 22.5797 18.6879C22.4231 18.9467 22.2477 19.1931 22.055 19.425H19.6839C20.081 19.7748 20.4203 20.1879 20.6888 20.6484C20.6888 20.6737 20.716 20.6965 20.7309 20.7244C21.0188 21.2369 21.2291 21.7912 21.3546 22.3683C21.4823 22.9608 21.5273 23.5688 21.4882 24.1742H16.2337C16.4076 24.3678 16.5649 24.5763 16.704 24.7973C17.205 25.6187 17.5775 26.5152 17.8078 27.4544C17.9612 28.0279 18.0834 28.6097 18.1741 29.197C18.4419 31.0022 18.505 32.833 18.3623 34.653C18.0603 38.774 16.8772 42.3075 15.3477 44.1135C16.8898 43.2094 18.487 42.4073 20.1294 41.7122C19.4739 43.201 18.5731 44.5633 17.4663 45.7396C18.8714 44.9924 20.3139 44.3211 21.7877 43.7284C21.9387 46.3956 23.1118 48.6727 24.7751 49.8328C24.6117 49.7923 24.4484 49.7517 24.2949 49.7011C24.1319 49.6508 23.9716 49.5916 23.8148 49.5238C23.6914 49.4739 23.5708 49.4172 23.4534 49.3541C23.2104 49.8088 22.8525 50.1883 22.4171 50.453C21.9817 50.7177 21.4848 50.8578 20.9784 50.8586C20.3495 50.8546 19.7399 50.6362 19.2458 50.2381C19.0988 50.4243 18.9328 50.5942 18.7508 50.7447L18.689 50.7978C18.5579 50.9115 18.418 51.014 18.2707 51.1043C18.0943 51.2138 17.9088 51.3071 17.7163 51.383C17.0893 51.6275 16.4061 51.6786 15.7511 51.5299C16.2155 51.8558 16.7646 52.0322 17.3277 52.0364C17.5784 52.0385 17.8283 52.0053 18.0702 51.9377C18.1786 51.9079 18.2852 51.8715 18.3895 51.8287C18.6792 51.7097 18.9482 51.5438 19.1864 51.3374C19.5026 51.6134 19.8691 51.8227 20.2646 51.9531C20.6602 52.0835 21.0771 52.1324 21.4913 52.0971C21.9055 52.0618 22.3087 51.9429 22.6778 51.7473C23.0468 51.5517 23.3743 51.2832 23.6415 50.9574C23.4253 51.6106 23.0163 52.179 22.471 52.5841C21.9257 52.9893 21.271 53.2112 20.5972 53.2193C19.9048 53.2187 19.2321 52.9836 18.684 52.5506C19.3597 53.8171 20.8373 54.696 22.55 54.696C23.4212 54.7007 24.277 54.4616 25.025 54.0045C25.7018 54.5357 26.5334 54.8184 27.3862 54.8075C28.3639 54.8262 29.3094 54.4493 30.0172 53.7588C30.6016 54.285 31.3525 54.5766 32.1309 54.5795C32.66 54.5734 33.1799 54.4371 33.6468 54.1824C34.1137 53.9276 34.514 53.5617 34.8138 53.1155C35.7263 53.7677 36.8145 54.1129 37.9274 54.1033C39.8555 54.1033 41.5236 53.1155 42.3256 51.6768C41.8784 51.8411 41.4072 51.9268 40.9321 51.9301C39.5461 51.9301 38.3383 51.2588 37.7146 50.2735C37.0416 50.6572 36.2791 50.8455 35.5093 50.8181C35.2237 50.8051 34.9405 50.7583 34.6653 50.6788C35.883 49.9974 37.0809 48.7664 38.071 47.1378Z" fill="black"/>
<path d="M24.6754 21.5299C24.9762 21.043 25.2433 20.5352 25.4748 20.0101H20.8242C21.712 21.2601 22.1801 22.7709 22.1583 24.3161V24.3744C23.1503 23.5808 24.0018 22.6186 24.6754 21.5299Z" fill="white"/>
<path d="M23.9626 11.2842C24.1582 11.2082 24.3562 11.1373 24.5517 11.074C25.7721 10.6607 27.0481 10.4444 28.3336 10.4332C27.7772 10.1696 27.1781 10.0133 26.5664 9.97216C27.4498 9.65645 28.39 9.54233 29.3211 9.63782C29.1692 9.53549 29.0431 9.39802 28.9528 9.23652C28.8625 9.07503 28.8106 8.89405 28.8013 8.70823C28.7665 8.31838 28.8358 7.92616 29.0018 7.57348C29.0599 7.4477 29.1287 7.32735 29.2072 7.21381C28.4617 7.31978 27.7384 7.55084 27.0663 7.8977C26.7884 8.0404 26.5198 8.20114 26.2619 8.37895V9.18949L26.1778 9.22495C25.8361 9.36872 25.5052 9.53804 25.1878 9.73154C24.9663 9.8635 24.7523 10.0081 24.5467 10.1647C24.5317 10.1733 24.5176 10.1835 24.5047 10.1951C23.9494 10.6119 23.458 11.1114 23.0469 11.6768C23.183 11.6135 23.3216 11.5502 23.4627 11.4894C23.6038 11.4286 23.7919 11.3475 23.9626 11.2842Z" fill="white"/>
<path d="M30.3438 6.48935C30.3476 6.44693 30.3427 6.40417 30.3294 6.3638C30.3162 6.32343 30.2948 6.28633 30.2667 6.25487C30.2387 6.22341 30.2045 6.19829 30.1664 6.1811C30.1284 6.16391 30.0872 6.15503 30.0456 6.15503C30.004 6.15503 29.9628 6.16391 29.9247 6.1811C29.8866 6.19829 29.8525 6.22341 29.8244 6.25487C29.7963 6.28633 29.775 6.32343 29.7617 6.3638C29.7485 6.40417 29.7436 6.44693 29.7473 6.48935V10.8637C29.9503 10.8941 30.1483 10.927 30.3438 10.9701V6.48935Z" fill="white"/>
<path d="M44.7196 31.269C44.663 29.9086 44.4521 28.5597 44.091 27.2492C44.0761 27.1935 44.0588 27.1352 44.0415 27.082H40.2447C41.2348 25.5395 41.8238 24.002 41.9773 22.5861C42.1391 21.4524 41.933 20.2956 41.3907 19.2933C40.4551 17.6241 38.5642 16.6844 36.156 16.464C36.32 15.711 36.2561 14.9247 35.9728 14.2097C34.7205 11.1499 29.4437 10.499 24.1917 12.7533C23.7313 12.9508 23.2833 13.1661 22.8551 13.3941C23.0707 13.585 23.2619 13.8028 23.4244 14.0425C23.9083 14.7789 24.1158 15.6695 24.0085 16.5501C23.9908 16.7255 23.9635 16.8997 23.9268 17.0719C23.7757 17.7549 23.5021 18.4033 23.12 18.9843C23.639 18.5462 24.1819 18.1386 24.7461 17.7634C24.8822 17.6747 25.0158 17.5861 25.1544 17.5101C25.4391 17.3277 25.7361 17.153 26.038 16.9833C30.159 14.6808 34.1388 14.4503 35.0472 16.4209C33.714 16.4261 32.3856 16.585 31.0871 16.8946C29.4974 17.2669 27.9472 17.798 26.4588 18.4802C26.3326 18.5587 26.2113 18.6398 26.0875 18.7335C26.6148 19.5924 26.952 20.5589 27.0756 21.5653C27.1991 22.5717 27.106 23.5936 26.8028 24.5592C26.6644 24.9991 26.4828 25.4234 26.2608 25.8257C25.9722 26.2895 25.6556 26.7345 25.3128 27.158C25.4414 26.3922 25.5241 25.6191 25.5604 24.8429H17.5115C17.6947 25.1823 17.8877 25.6028 18.0461 25.965C18.4823 27.0401 18.7971 28.1628 18.9842 29.311C19.3092 31.3103 19.3425 33.3478 19.0832 35.3571C18.9708 36.2439 18.8055 37.1228 18.5882 37.9888C18.1855 39.6448 17.5617 41.2362 16.7344 42.7178C17.9737 41.9659 19.2584 41.295 20.5806 40.7092L20.6251 40.6003C20.6247 40.591 20.6247 40.5817 20.6251 40.5724C20.6251 40.5724 20.6251 40.5724 20.6251 40.5724C20.8083 40.0354 21.3973 38.004 21.3973 33.9083C21.3973 29.192 20.5237 27.1606 20.4692 27.039C21.1552 27.6277 21.7076 28.3625 22.0879 29.192C22.1894 29.4073 22.2859 29.6302 22.3725 29.8607C23.1868 32.0263 23.3056 34.8733 22.5606 37.8065C22.5359 37.9078 22.5062 38.0116 22.4789 38.1129C22.4517 38.2143 22.4047 38.3789 22.3651 38.5106C22.2182 39.0003 22.0532 39.4731 21.8701 39.929C21.828 40.0304 21.7884 40.1317 21.7438 40.233C21.1117 41.7449 20.2236 43.1306 19.1203 44.3262C20.5652 43.589 22.053 42.9436 23.5754 42.3936L23.9887 42.2441C28.32 40.7244 32.4311 40.0658 35.3739 40.2735V39.7999L41.1308 35.3596H41.9377V36.3526L37.9553 40.5268L37.9133 40.7598C39.2028 41.0587 40.1408 41.7958 40.267 42.771C40.3014 43.0341 40.2768 43.3017 40.1952 43.5537C43.1356 40.6763 44.9325 36.2208 44.7196 31.269ZM26.3276 27.082C26.731 26.8667 27.1469 26.659 27.5651 26.464C33.0102 23.9716 38.2994 24.1033 39.3537 26.7604C39.3964 26.8644 39.4304 26.9721 39.4552 27.082H26.3276Z" fill="white"/>
<path d="M32.3531 53.2092C31.7154 53.2126 31.0854 53.0661 30.5117 52.7811C30.7006 53.0994 30.9611 53.3669 31.2715 53.5612C31.582 53.7555 31.9333 53.8711 32.2962 53.8981C32.6325 53.8971 32.9641 53.8182 33.2663 53.6673C33.5685 53.5164 33.8334 53.2974 34.0411 53.0268C34.115 52.9409 34.1836 52.8504 34.2465 52.7558C34.1064 52.8288 33.9617 52.8923 33.8134 52.9458C33.3456 53.1208 32.8513 53.21 32.3531 53.2092Z" fill="white"/>
<path d="M38.0048 53.2472C37.5033 53.1959 37.0232 53.0127 36.6114 52.7153C36.3676 52.8371 36.1132 52.9355 35.8516 53.0091C36.2974 53.3614 36.8306 53.579 37.391 53.6373C37.7935 53.6753 38.1994 53.6318 38.5854 53.5092C38.9714 53.3866 39.3301 53.1874 39.6408 52.923C39.1382 53.1925 38.5694 53.3052 38.0048 53.2472Z" fill="white"/>
<path d="M36.5859 51.654C36.7939 51.9026 37.0458 52.1088 37.3284 52.2619C37.7175 52.4612 38.1421 52.5776 38.5764 52.6042C39.0108 52.6308 39.4459 52.5669 39.8554 52.4164C39.1494 52.437 38.4556 52.2258 37.8754 51.8136C37.626 51.6293 37.4107 51.4012 37.2393 51.1398C37.3966 50.9945 37.5461 50.8406 37.6873 50.6788C37.51 50.7894 37.3265 50.8892 37.1378 50.9777C36.8735 51.0988 36.5994 51.1963 36.3186 51.269C36.1345 51.3167 35.9477 51.3522 35.7592 51.3754C35.68 51.3754 35.5984 51.3931 35.5117 51.3957C35.2894 51.4147 35.0658 51.4147 34.8435 51.3957L34.6776 51.3754C33.948 51.2743 33.2704 50.9329 32.7471 50.4028C32.5321 50.1825 32.348 49.9327 32.2001 49.6606C32.1331 49.54 32.0744 49.4147 32.0244 49.2857C31.9996 49.2249 31.9774 49.1642 31.9576 49.1008C31.8446 49.2595 31.7223 49.4109 31.5913 49.5542C31.1972 49.9677 30.7378 50.3102 30.2325 50.5674C30.0963 50.6408 29.9553 50.7067 29.8092 50.7675C29.6632 50.8283 29.49 50.8941 29.3142 50.9473C29.1304 51.007 28.9437 51.0568 28.7549 51.0968C28.5866 51.1348 28.4133 51.1652 28.2376 51.188C27.4709 51.2913 26.6918 51.2423 25.9432 51.0436C25.8368 51.0132 25.7304 50.9828 25.6289 50.9448C25.7303 51.0549 25.8386 51.1582 25.9531 51.2538C26.3464 51.5993 26.8057 51.8572 27.3017 52.0111C27.7977 52.165 28.3195 52.2116 28.8341 52.1479C29.0346 52.1214 29.2325 52.0774 29.4256 52.0162C29.4516 52.0101 29.4772 52.0025 29.5023 51.9934C29.6728 51.9357 29.8384 51.8637 29.9973 51.7781L30.0914 51.73C30.7374 51.3669 31.2708 50.8254 31.6309 50.1672C31.7332 50.7913 32.0426 51.3603 32.507 51.7781L32.5615 51.8263C33.0902 52.2513 33.7545 52.4599 34.4252 52.4114C34.5578 52.4053 34.69 52.3917 34.8212 52.3708C34.9296 52.3533 35.037 52.3296 35.1429 52.2999C35.3978 52.2399 35.6464 52.155 35.8855 52.0466C36.1289 51.9353 36.3631 51.804 36.5859 51.654V51.654Z" fill="white"/>
<path d="M25.5118 52.7609C25.3209 52.6556 25.1431 52.5272 24.9822 52.3784C24.7659 52.7593 24.4568 53.0762 24.085 53.2982C23.7132 53.5202 23.2915 53.6396 22.8611 53.6449C22.7717 53.6449 22.6825 53.6399 22.5938 53.6297C23.0068 53.8072 23.46 53.8634 23.9025 53.7918C24.3449 53.7202 24.7591 53.5237 25.0985 53.2244C25.3486 53.494 25.6506 53.7077 25.9854 53.852C26.3202 53.9963 26.6806 54.0681 27.0439 54.0628C27.5324 54.0791 28.0147 53.9477 28.4307 53.685C28.8467 53.4224 29.1778 53.0402 29.3828 52.5861C28.77 53.0064 28.0462 53.2247 27.3087 53.2118C26.6824 53.2172 26.0647 53.0622 25.5118 52.7609V52.7609Z" fill="white"/>
<path d="M25.2762 45.2203C25.4299 45.2448 25.5869 45.2349 25.7365 45.1911C25.8861 45.1474 26.0246 45.0709 26.1424 44.967C26.1235 44.9695 26.1044 44.9695 26.0855 44.967C25.5534 44.8531 25.2242 44.1818 25.2094 43.3181L24.3555 43.6347C24.405 44.4655 24.744 45.1038 25.2762 45.2203Z" fill="#FFA400"/>
<path d="M34.171 50.4762C35.3789 48.2599 36.4902 45.0709 37.2054 41.4514C37.2624 41.1677 37.3143 40.8865 37.3638 40.6079L36.4407 40.4483L41.1284 36.3957V35.9676L35.9531 40.1064C35.9531 40.3394 35.9531 40.5699 35.9357 40.8029C35.8021 44.7265 35.0423 48.2067 33.9805 50.3901L34.171 50.4762Z" fill="#FFA400"/>
<path d="M34.5664 50.2761C35.237 49.8081 35.8395 49.2453 36.3559 48.6044C36.2593 48.4752 36.1554 48.3511 36.049 48.2143C35.9425 48.0775 35.8683 48.0041 35.7792 47.9053C35.4314 48.7245 35.0261 49.5168 34.5664 50.2761V50.2761Z" fill="#FFA400"/>
<path d="M36.7391 48.1256C36.9173 47.8875 37.0906 47.6342 37.2589 47.3657C37.1178 47.1276 36.947 46.8592 36.7639 46.5881C36.6649 46.4412 36.5584 46.2968 36.457 46.1626C36.3184 46.5527 36.1773 46.9225 36.0312 47.2923C36.1798 47.4493 36.3431 47.6342 36.499 47.8242C36.5857 47.9179 36.6624 48.0167 36.7391 48.1256Z" fill="#FFA400"/>
<path d="M37.6111 46.7832C37.7546 46.5299 37.8932 46.2766 38.0244 46.0233C37.8908 45.7295 37.7002 45.3318 37.4923 44.9595C37.3537 44.7062 37.2027 44.4681 37.0715 44.268C36.9494 44.6834 36.824 45.0878 36.6953 45.4813C36.8611 45.689 37.069 45.96 37.2596 46.2412C37.3834 46.4185 37.5022 46.6059 37.6111 46.7832Z" fill="#FFA400"/>
<path d="M38.595 44.7518L38.6544 44.5948C38.4382 43.7278 38.0881 42.9018 37.6173 42.1479C37.5134 42.6089 37.3995 43.0623 37.2832 43.5031C37.4094 43.6854 37.7312 44.1591 38.0084 44.653C38.1346 44.8784 38.2559 45.1064 38.3549 45.3192C38.439 45.1317 38.5182 44.9443 38.595 44.7518Z" fill="#FFA400"/>
<path d="M27.7421 49.9519C28.1212 49.9023 28.4972 49.8304 28.8683 49.7366C29.0366 49.691 29.1999 49.6429 29.3633 49.5897C30.6256 49.1819 31.6428 48.5233 32.222 47.7609C32.3065 48.4327 32.5789 49.0651 33.0065 49.5821C33.0626 49.6518 33.1221 49.7186 33.1847 49.7822C33.2441 49.843 33.3085 49.8987 33.3728 49.9544C33.4372 50.0102 33.4694 50.038 33.5189 50.076C33.9135 49.1875 34.2315 48.2654 34.4693 47.3202C33.1148 47.4609 31.7789 47.7496 30.4845 48.1814C28.97 48.6894 27.4907 49.3012 26.0566 50.0127L26.3041 50.0254H26.6407C27.0089 50.0219 27.3766 49.9974 27.7421 49.9519V49.9519Z" fill="#FFA400"/>
<path d="M24.5586 48.9589C24.8134 49.2055 25.0865 49.4316 25.3754 49.6352C26.9652 48.8296 28.6086 48.1398 30.2933 47.5709C31.6967 47.0942 33.1508 46.7906 34.6246 46.6666C34.7384 46.1601 34.8424 45.6535 34.9339 45.0988C33.5349 45.199 32.1559 45.4947 30.8353 45.9777C28.6546 46.7635 26.5527 47.7618 24.5586 48.9589V48.9589Z" fill="#FFA400"/>
<path d="M24.1147 48.4802C26.1878 47.23 28.3744 46.1883 30.6438 45.3698C32.9258 44.5846 34.4727 44.4681 35.0444 44.4554C35.1162 43.9488 35.1806 43.4245 35.2325 42.8875C33.8511 42.9602 32.49 43.2587 31.2007 43.7715C28.4212 44.81 27.0228 45.8105 27.0105 45.8181C26.9981 45.8257 28.1193 44.2401 30.9854 43.1687C33.1263 42.3683 34.6435 42.2492 35.287 42.2442C35.3216 41.8085 35.3464 41.3678 35.3637 40.9194C32.754 41.2738 30.2341 42.1334 27.9386 43.4524L27.5575 43.6702C27.5426 43.7209 27.5278 43.7715 27.5154 43.8196C27.107 45.1798 26.0551 46.0739 25.1591 45.8181C24.4513 45.6155 24.0553 44.7467 24.1271 43.7158L22.3945 44.3592C22.4756 45.2891 22.7346 46.1936 23.1568 47.0213C23.4173 47.5454 23.739 48.0353 24.1147 48.4802Z" fill="#FFA400"/>
<path d="M34.0717 32.3734C34.1864 31.6076 34.4625 30.8766 34.8809 30.231C35.2993 29.5854 35.85 29.0407 36.4947 28.6348H30.0596C30.7044 29.0407 31.255 29.5854 31.6735 30.231C32.0919 30.8766 32.368 31.6076 32.4827 32.3734C31.7345 32.2551 31.0204 31.9715 30.39 31.5425C29.7595 31.1134 29.2279 30.549 28.832 29.8886V36.4742C29.2287 35.8144 29.7609 35.2508 30.3918 34.8226C31.0226 34.3944 31.7369 34.1118 32.4852 33.9944C32.3715 34.7615 32.0959 35.4941 31.6774 36.141C31.2589 36.788 30.7077 37.3339 30.0621 37.7406H36.4972C35.8525 37.3347 35.3018 36.79 34.8834 36.1444C34.465 35.4988 34.1888 34.7678 34.0742 34.002C34.8213 34.1189 35.5348 34.4005 36.1651 34.8273C36.7954 35.2542 37.3276 35.8161 37.7248 36.4742V29.8886C37.3282 30.5484 36.7959 31.1119 36.1651 31.5401C35.5343 31.9683 34.8199 32.2509 34.0717 32.3683" fill="#E2231A"/>
</svg>
