<svg width="155" height="46" viewBox="0 0 155 46" fill="none" xmlns="http://www.w3.org/2000/svg">
<path d="M148.933 45.8995H5.77603C5.01468 45.9098 4.25901 45.7673 3.55361 45.4807C2.84822 45.194 2.20749 44.769 1.66909 44.2306C1.13069 43.6922 0.705622 43.0513 0.41897 42.346C0.132318 41.6406 -0.0101958 40.8849 2.50105e-05 40.1235V5.77554C-0.0101958 5.01419 0.132318 4.25852 0.41897 3.55312C0.705622 2.84773 1.13069 2.20692 1.66909 1.66852C2.20749 1.13012 2.84822 0.705039 3.55361 0.418387C4.25901 0.131735 5.01468 -0.0106837 5.77603 -0.000462957H149.036C149.797 -0.0106837 150.553 0.131735 151.258 0.418387C151.964 0.705039 152.605 1.13012 153.143 1.66852C153.682 2.20692 154.107 2.84773 154.393 3.55312C154.68 4.25852 154.822 5.01419 154.812 5.77554V40.1205C154.792 41.6643 154.163 43.1377 153.062 44.2201C151.961 45.3024 150.477 45.906 148.933 45.8995Z" fill="black"/>
<path d="M148.933 1.03051C149.57 1.02972 150.201 1.15458 150.789 1.39793C151.378 1.64129 151.913 1.99835 152.363 2.44869C152.813 2.89903 153.17 3.43378 153.414 4.02232C153.657 4.61086 153.782 5.24164 153.781 5.87851V40.2235C153.782 40.8604 153.657 41.4911 153.414 42.0797C153.17 42.6682 152.813 43.203 152.363 43.6533C151.913 44.1037 151.378 44.4607 150.789 44.7041C150.201 44.9474 149.57 45.0723 148.933 45.0715H5.77603C5.13916 45.0723 4.50849 44.9474 3.91995 44.7041C3.3314 44.4607 2.79655 44.1037 2.34622 43.6533C1.89588 43.203 1.53891 42.6682 1.29556 42.0797C1.0522 41.4911 0.927336 40.8604 0.928126 40.2235V5.87851C0.927336 5.24164 1.0522 4.61086 1.29556 4.02232C1.53891 3.43378 1.89588 2.89903 2.34622 2.44869C2.79655 1.99835 3.3314 1.64129 3.91995 1.39793C4.50849 1.15458 5.13916 1.02972 5.77603 1.03051H148.933ZM148.933 0.102507H5.77603C5.01714 0.101189 4.26548 0.249691 3.56411 0.539495C2.86274 0.8293 2.22548 1.25471 1.68887 1.79132C1.15225 2.32793 0.726841 2.9652 0.437037 3.66657C0.147232 4.36794 -0.00129227 5.11962 2.50105e-05 5.87851V40.2235C-0.0101958 40.9849 0.132318 41.7405 0.41897 42.4459C0.705622 43.1513 1.13069 43.7921 1.66909 44.3305C2.20749 44.8689 2.84822 45.294 3.55361 45.5807C4.25901 45.8673 5.01468 46.0097 5.77603 45.9995H149.036C149.797 46.0097 150.553 45.8673 151.258 45.5807C151.964 45.294 152.605 44.8689 153.143 44.3305C153.682 43.7921 154.107 43.1513 154.393 42.4459C154.68 41.7405 154.822 40.9849 154.812 40.2235V5.87851C154.81 5.11175 154.656 4.35295 154.359 3.64617C154.062 2.9394 153.627 2.29872 153.08 1.76135C152.533 1.22398 151.885 0.80062 151.173 0.515852C150.461 0.231084 149.7 0.0905842 148.933 0.102507Z" fill="#A6A6A6"/>
<path d="M37.2377 22.0716C37.239 21.0908 37.4968 20.1275 37.9853 19.2771C38.4738 18.4266 39.1762 17.7187 40.0228 17.2236C39.492 16.5057 38.811 15.9123 38.0272 15.4848C37.2434 15.0573 36.3756 14.8061 35.4847 14.7486C33.5247 14.5426 31.6688 15.8836 30.6378 15.8836C29.6068 15.8836 28.1628 14.7486 26.5118 14.7486C25.4596 14.7813 24.4333 15.0828 23.5306 15.6243C22.6279 16.1659 21.8787 16.9296 21.3547 17.8426C19.1887 21.6586 20.7357 27.3316 23.0047 30.4256C24.0357 31.8696 25.2738 33.6256 26.9238 33.6256C28.5738 33.5256 29.0897 32.5946 31.0497 32.5946C33.0097 32.5946 33.4217 33.6256 35.1757 33.6256C36.9297 33.6256 37.9608 32.1816 38.9918 30.5316C39.7783 29.4749 40.3721 28.2877 40.7458 27.0246C39.7242 26.6576 38.84 25.9858 38.2126 25.0999C37.5852 24.2141 37.2449 23.157 37.2377 22.0716Z" fill="white"/>
<path d="M34.1389 12.7886C35.0646 11.663 35.5095 10.2179 35.377 8.7666C33.9296 8.90579 32.5954 9.61005 31.6639 10.7266C31.1998 11.26 30.8503 11.8831 30.6373 12.5573C30.4243 13.2315 30.3523 13.9424 30.4259 14.6456C31.1392 14.6077 31.837 14.4232 32.4758 14.1037C33.1146 13.7842 33.6807 13.3365 34.1389 12.7886Z" fill="white"/>
<path d="M57.4486 29.9092H52.0857L50.8477 33.8282H48.4756L53.5276 19.5952H55.8997L61.0566 33.8282H58.7876L57.4486 29.9092ZM52.4977 28.1562H56.8296L54.6637 21.8652H54.5636L52.4977 28.1562Z" fill="white"/>
<path d="M72.0945 28.5682C72.0945 31.7682 70.3415 33.8282 67.7625 33.8282C67.1056 33.8676 66.4516 33.7125 65.8824 33.3822C65.3133 33.0519 64.8542 32.5611 64.5625 31.9712V37.1282H62.3965V23.4112H64.4595V25.1642C64.8094 24.6025 65.2951 24.1379 65.8718 23.8134C66.4486 23.4888 67.0978 23.3147 67.7595 23.3072C70.3415 23.2052 72.0945 25.3712 72.0945 28.5682ZM69.9285 28.5682C69.9285 26.5052 68.8974 25.1682 67.1434 25.1682C65.4934 25.1682 64.3585 26.5092 64.3585 28.5682C64.3585 30.6272 65.4934 31.9682 67.1434 31.9682C68.8974 32.0752 69.9285 30.6312 69.9285 28.5682Z" fill="white"/>
<path d="M83.5427 28.5682C83.5427 31.7682 81.7897 33.8282 79.2107 33.8282C78.5538 33.8676 77.8999 33.7125 77.3307 33.3822C76.7615 33.0519 76.3023 32.5611 76.0107 31.9712V37.1282H73.8447V23.4112H75.9077V25.1642C76.2576 24.6025 76.7433 24.1379 77.3201 23.8134C77.8968 23.4888 78.546 23.3147 79.2077 23.3072C81.7897 23.2052 83.5427 25.3712 83.5427 28.5682ZM81.3767 28.5682C81.3767 26.5052 80.3457 25.1682 78.5917 25.1682C76.9417 25.1682 75.8067 26.5092 75.8067 28.5682C75.8067 30.6272 76.9407 31.9682 78.5917 31.9682C80.2427 31.9682 81.3767 30.6272 81.3767 28.5682Z" fill="white"/>
<path d="M91.0727 29.8062C91.1727 31.1472 92.5167 32.0752 94.4727 32.0752C96.3287 32.0752 97.5667 31.1472 97.5667 29.9092C97.5667 28.7742 96.7417 28.1562 94.8847 27.7432L93.0277 27.3302C90.3457 26.6082 89.2117 25.4732 89.2117 23.5142C89.2117 21.1422 91.3777 19.3882 94.3687 19.3882C97.3597 19.3882 99.4227 21.1412 99.5257 23.5142H97.2617C97.1617 22.1732 96.0237 21.2452 94.2707 21.2452C92.5177 21.2452 91.3827 22.1732 91.3827 23.4112C91.3827 24.4422 92.2077 25.0612 94.0647 25.4742L95.7147 25.7832C98.6027 26.5052 99.8407 27.6402 99.8407 29.7022C99.8407 32.3842 97.6747 34.0342 94.3747 34.0342C91.1747 34.0342 89.1147 32.3842 89.0117 29.8052L91.0727 29.8062Z" fill="white"/>
<path d="M104.378 20.9363V23.3083H106.338V25.0613H104.378V30.8363C104.378 31.7643 104.687 32.0743 105.616 32.0743H106.338V33.8273C105.965 33.9116 105.584 33.9453 105.203 33.9273C103.14 33.9273 102.315 33.1023 102.315 31.1423V25.1603H100.871V23.4073H102.315V21.0363H104.378V20.9363Z" fill="white"/>
<path d="M107.471 28.5684C107.471 25.3684 109.431 23.3083 112.422 23.3083C115.413 23.3083 117.373 25.3714 117.373 28.5684C117.373 31.8684 115.413 33.8283 112.422 33.8283C109.431 33.8283 107.471 31.8694 107.471 28.5684ZM115.206 28.5684C115.206 26.2994 114.175 25.0613 112.421 25.0613C110.667 25.0613 109.636 26.4024 109.636 28.5684C109.636 30.8374 110.667 32.0753 112.421 32.0753C114.175 32.0753 115.206 30.8374 115.206 28.5684Z" fill="white"/>
<path d="M119.229 23.3084H121.292V25.0614C121.41 24.5052 121.726 24.0107 122.181 23.6695C122.636 23.3283 123.199 23.1634 123.766 23.2054C124.011 23.1945 124.256 23.2284 124.489 23.3054V25.2654C124.186 25.1866 123.873 25.1529 123.56 25.1654C123.003 25.1633 122.466 25.3768 122.063 25.7613C121.659 26.1458 121.42 26.6715 121.395 27.2284V33.7284H119.229V23.3084Z" fill="white"/>
<path d="M134.288 30.6313C134.082 32.4883 132.122 33.8313 129.853 33.8313C126.862 33.8313 124.902 31.7683 124.902 28.5713C124.902 25.3743 126.754 23.2053 129.754 23.2053C132.642 23.2053 134.498 25.1653 134.498 28.3623V29.0843H127.175V29.1843C127.124 29.8893 127.339 30.5877 127.779 31.1415C128.218 31.6953 128.849 32.0642 129.547 32.1753H129.856C130.358 32.2511 130.87 32.1479 131.304 31.884C131.738 31.62 132.065 31.212 132.228 30.7313H134.291L134.288 30.6313ZM127.068 27.5373H132.225C132.231 26.8761 131.992 26.236 131.554 25.7407C131.116 25.2454 130.51 24.93 129.853 24.8553H129.647C128.956 24.8892 128.304 25.1858 127.825 25.6844C127.346 26.1829 127.075 26.8458 127.069 27.5373H127.068Z" fill="white"/>
<path d="M48.4756 16.5016V9.59156H51.2606C51.5134 9.55912 51.7701 9.57979 52.0144 9.65225C52.2587 9.72471 52.4851 9.84736 52.6793 10.0124C52.8735 10.1774 53.0311 10.3811 53.1421 10.6105C53.253 10.8399 53.3148 11.0899 53.3236 11.3446C53.3489 11.6835 53.2464 12.0197 53.0364 12.2869C52.8263 12.5541 52.5239 12.7331 52.1886 12.7886V12.8886C52.3987 12.88 52.6081 12.9187 52.8014 13.0017C52.9946 13.0846 53.1668 13.2099 53.3053 13.3681C53.4438 13.5264 53.5452 13.7137 53.6018 13.9162C53.6584 14.1188 53.669 14.3314 53.6327 14.5386C53.6327 15.7766 52.7046 16.4986 51.3636 16.4986L48.4756 16.5016ZM49.5066 12.5826H50.7446C51.6726 12.5826 52.0857 12.2736 52.0857 11.5516C52.0857 10.8296 51.6727 10.5206 50.8477 10.5206H49.4037L49.5066 12.5826ZM51.1566 15.5736C52.0846 15.5736 52.6006 15.2646 52.6006 14.4386C52.6006 13.7166 51.9816 13.3036 51.1566 13.3036H49.7126V15.4696H51.1566V15.5736Z" fill="white"/>
<path d="M54.6638 14.9547C54.6638 14.0267 55.3858 13.5107 56.6238 13.5107L57.9648 13.4107V12.9977C57.9648 12.3787 57.6548 12.1727 56.9338 12.1727C56.3148 12.1727 56.0058 12.3787 55.9028 12.7917H54.8718C54.9718 11.8637 55.7998 11.3477 56.9348 11.3477C57.1876 11.3152 57.4443 11.3359 57.6886 11.4083C57.9329 11.4808 58.1593 11.6035 58.3535 11.7685C58.5477 11.9335 58.7053 12.1372 58.8163 12.3666C58.9272 12.596 58.989 12.846 58.9978 13.1007V16.6077H57.9668V15.7827H57.8668C57.7028 16.0667 57.4591 16.2963 57.1658 16.443C56.8724 16.5896 56.5424 16.6469 56.2168 16.6077C55.8123 16.6316 55.4127 16.5093 55.0909 16.2631C54.7691 16.0169 54.5466 15.6633 54.4639 15.2667C54.6639 15.0577 54.6638 15.0577 54.6638 14.9547ZM57.9639 14.5417V14.1287L56.7258 14.2287C56.0038 14.2287 55.6948 14.5377 55.6948 14.9507C55.7225 15.1693 55.8357 15.368 56.0096 15.5033C56.1836 15.6387 56.4041 15.6995 56.6228 15.6727C56.7897 15.7194 56.9655 15.7245 57.1349 15.6876C57.3042 15.6507 57.462 15.5728 57.5944 15.4608C57.7267 15.3488 57.8295 15.2061 57.8939 15.0452C57.9583 14.8843 57.9824 14.71 57.9639 14.5377V14.5417Z" fill="white"/>
<path d="M60.5424 9.79744C60.5312 9.62019 60.5897 9.44558 60.7053 9.31075C60.8209 9.17591 60.9845 9.0915 61.1614 9.07544C61.5734 9.07544 61.8834 9.28144 61.8834 9.69444C61.8987 9.78394 61.8941 9.87571 61.8699 9.96322C61.8457 10.0507 61.8025 10.1318 61.7434 10.2008C61.6843 10.2697 61.6107 10.3248 61.528 10.362C61.4452 10.3993 61.3552 10.4179 61.2644 10.4164C60.8514 10.4164 60.5424 10.2104 60.5424 9.79744ZM60.6425 11.3444H61.6735V16.5014H60.6425V11.3444Z" fill="white"/>
<path d="M65.1846 14.6445L64.0496 16.5015H62.9146L64.6676 14.0265L62.9146 11.3445H64.0496L65.1846 13.2015H65.2845L66.4196 11.3445H67.5546L65.6976 13.8195L67.4506 16.5015H66.3156L65.1805 14.6445H65.1846Z" fill="white"/>
<path d="M68.3817 14.9547C68.3817 14.0267 69.1037 13.5107 70.3417 13.5107L71.6827 13.4107V12.9977C71.6827 12.3787 71.3737 12.1727 70.6517 12.1727C70.0327 12.1727 69.7237 12.3787 69.6207 12.7917H68.5897C68.6897 11.8637 69.5177 11.3477 70.6527 11.3477C70.9055 11.3152 71.1622 11.3359 71.4065 11.4083C71.6508 11.4808 71.8772 11.6035 72.0714 11.7685C72.2656 11.9335 72.4232 12.1372 72.5342 12.3666C72.6451 12.596 72.7069 12.846 72.7157 13.1007V16.6077H71.6837V15.7827H71.5837C71.4198 16.0667 71.1759 16.2963 70.8826 16.443C70.5892 16.5896 70.2593 16.6469 69.9337 16.6077C69.5293 16.6316 69.1297 16.5093 68.8079 16.2631C68.4861 16.0169 68.2634 15.6633 68.1807 15.2667C68.3817 15.0577 68.3817 15.0577 68.3817 14.9547ZM71.7817 14.5417V14.1287L70.5437 14.2287C69.8217 14.2287 69.5127 14.5377 69.5127 14.9507C69.5404 15.1693 69.6537 15.368 69.8276 15.5033C70.0016 15.6387 70.2219 15.6995 70.4407 15.6727C70.606 15.7034 70.7762 15.697 70.9387 15.6538C71.1013 15.6107 71.2521 15.532 71.3805 15.4233C71.5089 15.3147 71.6114 15.1789 71.6808 15.0257C71.7502 14.8725 71.7847 14.7058 71.7817 14.5377V14.5417Z" fill="white"/>
<path d="M74.3638 11.3415H75.3948V12.1665H75.4949C75.5609 11.8919 75.7207 11.6489 75.9467 11.4795C76.1727 11.3101 76.4507 11.2248 76.7328 11.2385H77.1448V12.2695C76.9388 12.2695 76.8359 12.1695 76.5259 12.1695C76.3661 12.1423 76.2022 12.1519 76.0468 12.1977C75.8913 12.2436 75.7484 12.3243 75.6289 12.4338C75.5094 12.5434 75.4167 12.6787 75.3575 12.8296C75.2984 12.9806 75.2746 13.143 75.2878 13.3045V16.5045H74.2568V11.3415H74.3638Z" fill="white"/>
<path d="M81.171 11.3446H82.202V12.1696H82.3019C82.4251 11.8904 82.6276 11.6535 82.8844 11.4885C83.1412 11.3235 83.4408 11.2376 83.746 11.2416C83.9769 11.2248 84.2089 11.2545 84.4282 11.3288C84.6475 11.4032 84.8497 11.5208 85.0228 11.6746C85.1959 11.8284 85.3365 12.0153 85.4361 12.2244C85.5357 12.4334 85.5925 12.6603 85.603 12.8916V16.5016H84.572V13.4076C84.572 12.5826 84.263 12.1696 83.437 12.1696C83.2787 12.1515 83.1185 12.1676 82.967 12.2168C82.8156 12.266 82.6765 12.3472 82.5591 12.4548C82.4417 12.5624 82.3488 12.6939 82.2867 12.8406C82.2246 12.9872 82.1946 13.1454 82.199 13.3046V16.5046H81.168L81.171 11.3446Z" fill="white"/>
<path d="M86.8426 14.9547C86.8426 14.0267 87.5646 13.5107 88.8026 13.5107L90.1436 13.4107V12.9977C90.1436 12.3787 89.8346 12.1727 89.1126 12.1727C88.4936 12.1727 88.1846 12.3787 88.0816 12.7917H87.0506C87.1506 11.8637 87.9786 11.3477 89.1136 11.3477C89.3663 11.3152 89.6231 11.3359 89.8674 11.4083C90.1117 11.4808 90.3381 11.6035 90.5323 11.7685C90.7265 11.9335 90.8841 12.1372 90.995 12.3666C91.1059 12.596 91.1678 12.846 91.1766 13.1007V16.6077H90.1456V15.7827H90.0456C89.8816 16.0667 89.6378 16.2963 89.3445 16.443C89.0511 16.5896 88.7212 16.6469 88.3956 16.6077C87.9911 16.6316 87.5916 16.5093 87.2698 16.2631C86.948 16.0169 86.7254 15.6633 86.6426 15.2667C86.8426 15.0577 86.8426 15.0577 86.8426 14.9547ZM90.1426 14.5417V14.1287L88.9046 14.2287C88.1826 14.2287 87.8736 14.5377 87.8736 14.9507C87.9013 15.1693 88.0145 15.368 88.1885 15.5033C88.3624 15.6387 88.5828 15.6995 88.8016 15.6727C88.9669 15.7034 89.137 15.697 89.2996 15.6538C89.4621 15.6107 89.613 15.532 89.7414 15.4233C89.8698 15.3147 89.9724 15.1789 90.0417 15.0257C90.1111 14.8725 90.1456 14.7058 90.1426 14.5377V14.5417Z" fill="white"/>
</svg>
