<svg width="84" height="33" viewBox="0 0 84 33" fill="none" xmlns="http://www.w3.org/2000/svg">
<path d="M11.4679 32.191L8.24487 32.23L15.7449 24.204L19.131 24.196L20.5989 32.202L17.4259 32.21L17.2019 30.903L13.595 30.91L15.511 28.889H16.861C16.826 28.689 16.79 28.508 16.761 28.338C16.732 28.168 16.697 28.001 16.668 27.838C16.639 27.675 16.606 27.5 16.575 27.324C16.544 27.148 16.5079 26.955 16.4669 26.751L11.476 32.1901L11.4679 32.191Z" fill="#00BAFF"/>
<path d="M26.002 26.7989L24.002 32.1619L21.2949 32.1689L24.2689 24.1859L28.5509 24.1779L31.0149 29.5079L33.006 24.1669L35.7059 24.1609L32.7319 32.1439L28.4729 32.1519L26.0039 26.7989H26.002Z" fill="#00BAFF"/>
<path d="M36.191 32.1348L32.9661 32.1758L40.4661 24.1489L43.8521 24.1418L45.3201 32.1478L42.1471 32.1548L41.9241 30.8549L38.3181 30.8618L40.2331 28.8419H41.5831C41.5481 28.6419 41.5131 28.4609 41.4831 28.2919C41.4531 28.1229 41.4171 27.9548 41.3901 27.7858C41.3631 27.6168 41.3291 27.4479 41.2971 27.2719C41.2651 27.0959 41.2311 26.9038 41.1901 26.6998L36.2001 32.1378L36.191 32.1348Z" fill="#00BAFF"/>
<path d="M49.5599 32.1399L46.7229 32.1469L48.9069 26.2849L45.4639 26.2929L46.2639 24.1379L55.8849 24.1179L55.0849 26.2709L51.7469 26.2779L49.5609 32.1389L49.5599 32.1399Z" fill="#00BAFF"/>
<path d="M59.8321 24.11L56.8451 32.126H54.0071L56.9941 24.11L59.8321 24.104V24.11Z" fill="#00BAFF"/>
<path d="M60.0811 26.4099C60.3181 25.7079 60.7768 25.1017 61.3881 24.6829C62.0777 24.27 62.873 24.068 63.6761 24.1019L70.6101 24.0869L69.7701 26.3429L63.1151 26.3569C62.9768 26.3513 62.8389 26.3744 62.7101 26.4249C62.6315 26.4522 62.5669 26.5093 62.5301 26.5839L62.2741 27.2089L61.6021 29.0089C61.5761 29.1019 61.5451 29.2009 61.5091 29.3089C61.4731 29.4169 61.4351 29.5179 61.4031 29.6089C61.3351 29.7909 61.467 29.8799 61.803 29.8809L68.4571 29.8669L67.622 32.0989L60.6881 32.1159C60.3557 32.1631 60.0171 32.136 59.6965 32.0366C59.3759 31.9371 59.0814 31.7678 58.8341 31.5409C58.6828 31.2804 58.6015 30.9853 58.5978 30.6841C58.5941 30.383 58.6683 30.086 58.8131 29.8219L60.0861 26.4079L60.0811 26.4099Z" fill="#00BAFF"/>
<path d="M79.9681 27.9768C80.016 28.5143 79.9304 29.0553 79.7191 29.5519C79.4772 30.3111 79.0166 30.9822 78.3951 31.4809C77.7479 31.9095 76.9815 32.1217 76.2061 32.0868L70.5501 32.0988L69.9221 31.9198L69.5221 31.6588L69.3721 31.3429L69.4171 30.8208L69.6971 30.0608L75.9341 30.0468C76.1436 30.0471 76.3517 30.0113 76.5491 29.9408C76.6424 29.9108 76.7276 29.8599 76.7983 29.792C76.869 29.724 76.9233 29.6409 76.9571 29.5489C77.0331 29.3429 76.9791 29.2158 76.7981 29.1628C76.6775 29.1232 76.5519 29.1007 76.4251 29.0959C76.2871 29.0899 76.1191 29.0868 75.9171 29.0858C75.8385 29.0799 75.7596 29.0799 75.6811 29.0858C75.5681 29.0858 75.4131 29.0859 75.2241 29.0799H74.8751C74.4161 29.0659 74.0441 29.0628 73.7551 29.0658C73.4661 29.0688 73.2731 29.0658 73.1551 29.0608L72.8151 29.0439C72.7021 29.0439 72.5981 29.0358 72.4921 29.0288C72.4311 29.0218 72.3731 29.0158 72.3121 29.0108C72.2598 29.009 72.2076 29.0037 72.1561 28.9948H71.9811C71.1997 28.9515 70.7244 28.6885 70.5551 28.2058C70.4852 27.9955 70.4687 27.7711 70.507 27.5528C70.556 27.245 70.6378 26.9433 70.7511 26.6529C70.9922 25.9178 71.4161 25.2561 71.9831 24.7298C72.5323 24.2874 73.2234 24.0593 73.9281 24.0878L79.8491 24.1088L80.3381 24.2868L80.7111 24.5028L80.8981 24.8438L80.9721 25.2968L80.7041 26.1128L74.4791 26.1258C74.2817 26.1247 74.0856 26.1586 73.9001 26.2259C73.8116 26.2573 73.7313 26.3082 73.6652 26.3748C73.5991 26.4415 73.5488 26.5221 73.5181 26.6108C73.4541 26.7838 73.4821 26.9039 73.6051 26.9679C73.7819 27.0421 73.9737 27.0739 74.1651 27.0608H74.5961C74.6961 27.0768 74.9231 27.0858 75.2691 27.0938H75.6061C76.0061 27.1078 76.3467 27.1105 76.6281 27.1018C76.9081 27.0938 77.1281 27.0938 77.2811 27.1018C77.3763 27.1093 77.4719 27.1093 77.5671 27.1018C77.6506 27.0951 77.7345 27.0951 77.8181 27.1018C77.8589 27.1094 77.9005 27.1131 77.9421 27.1128H78.0421C78.142 27.119 78.2422 27.119 78.3421 27.1128C78.4252 27.1048 78.5089 27.1048 78.5921 27.1128C78.9172 27.1244 79.2352 27.2114 79.5211 27.3669C79.6329 27.4295 79.7299 27.5155 79.8055 27.6191C79.8811 27.7226 79.9335 27.8412 79.9591 27.9668L79.9661 27.9789L79.9681 27.9768Z" fill="#00BAFF"/>
<path d="M2.89294 32.233H0L3.07202 24.075L11.845 24.0829L10.981 26.3829L5.10095 26.376L4.70996 27.4149L3.88403 29.608L2.89404 32.239L2.89294 32.233ZM5.26196 27.41H9.99194L9.16101 29.6099H4.43103L5.26099 27.41H5.26196Z" fill="#00BAFF"/>
<path d="M40.5849 0.506905L35.7509 13.3479C35.7065 13.4405 35.6973 13.5461 35.7251 13.6449C35.7529 13.7438 35.8158 13.8291 35.9019 13.8849C36.2109 14.054 36.5633 14.1268 36.9139 14.0939L45.3789 14.1029C45.8055 14.1247 46.2317 14.0548 46.6289 13.8979C46.8787 13.7991 47.0798 13.6063 47.1889 13.3609L52.024 0.519905L58.8189 0.526909L53.6859 14.1659C53.3922 14.9748 52.9977 15.7435 52.5119 16.4539C51.9963 17.1621 51.3632 17.7767 50.6399 18.2709C50.2599 18.5282 49.9176 18.7479 49.6129 18.9299C49.3457 19.0949 49.0681 19.2425 48.782 19.3719C48.1883 19.6353 47.5593 19.8105 46.9149 19.8919C46.5073 19.9794 46.0933 20.0346 45.6769 20.0569C45.1629 20.0936 44.6386 20.1206 44.1039 20.1379C43.5379 20.1379 42.797 20.1379 41.891 20.1469C40.985 20.1559 39.9909 20.1609 38.9129 20.1599C37.7616 20.1599 36.7586 20.1539 35.904 20.1419C35.0493 20.1299 34.3386 20.1246 33.7719 20.1259C32.8724 20.1192 31.975 20.0349 31.0899 19.8739H31.1189C30.8376 19.8301 30.5608 19.7608 30.292 19.6669C30.069 19.5919 29.8556 19.4912 29.6559 19.3669C29.4561 19.2416 29.2753 19.0884 29.1189 18.9119C28.9302 18.7012 28.7533 18.4802 28.589 18.2499C28.213 17.7251 28.0281 17.0874 28.0649 16.4429C28.1433 15.6529 28.335 14.8783 28.6339 14.1429L33.7669 0.503906L40.5899 0.51091L40.5849 0.506905Z" fill="#00BAFF"/>
<path d="M68.5389 20.0238L61.6329 20.0159L66.9969 5.76985L58.6189 5.76085L60.5889 0.526855L84.0009 0.54985L82.0279 5.78485L73.9079 5.77785L68.5429 20.0229L68.5389 20.0238Z" fill="#00BAFF"/>
<path d="M10.3091 20.0158L3.40308 20.0078L10.738 0.527832L31.686 0.548836L29.6221 6.03284L15.5801 6.01784L14.6471 8.49883L12.675 13.7338L10.3101 20.0148L10.3091 20.0158ZM15.6631 8.50083L26.9561 8.51183L24.974 13.7718L13.681 13.7608L15.662 8.50083H15.6631Z" fill="#00BAFF"/>
</svg>
