<svg width="84" height="33" viewBox="0 0 84 33" fill="none" xmlns="http://www.w3.org/2000/svg">
<path d="M11.4672 32.191L8.24414 32.23L15.7441 24.204L19.1302 24.196L20.5981 32.202L17.4252 32.21L17.2012 30.903L13.5942 30.91L15.5103 28.889H16.8602C16.8252 28.689 16.7893 28.508 16.7603 28.338C16.7313 28.168 16.6962 28.001 16.6672 27.838C16.6382 27.675 16.6052 27.5 16.5742 27.324C16.5432 27.148 16.5072 26.955 16.4662 26.751L11.4752 32.1901L11.4672 32.191Z" fill="#00DF5E"/>
<path d="M26.002 26.7989L24.002 32.1619L21.2949 32.1689L24.2689 24.1859L28.5509 24.1779L31.0149 29.5079L33.006 24.1669L35.7059 24.1609L32.7319 32.1439L28.4729 32.1519L26.0039 26.7989H26.002Z" fill="#00DF5E"/>
<path d="M36.1918 32.1348L32.9668 32.1758L40.4668 24.1489L43.8528 24.1418L45.3208 32.1478L42.1478 32.1548L41.9248 30.8549L38.3188 30.8618L40.2338 28.8419H41.5838C41.5488 28.6419 41.5138 28.4609 41.4838 28.2919C41.4538 28.1229 41.4178 27.9548 41.3908 27.7858C41.3638 27.6168 41.3298 27.4479 41.2978 27.2719C41.2658 27.0959 41.2318 26.9038 41.1908 26.6998L36.2008 32.1378L36.1918 32.1348Z" fill="#00DF5E"/>
<path d="M49.5609 32.1399L46.7239 32.1469L48.9078 26.2849L45.4648 26.2929L46.2648 24.1379L55.8859 24.1179L55.0859 26.2709L51.7479 26.2779L49.5619 32.1389L49.5609 32.1399Z" fill="#00DF5E"/>
<path d="M59.8328 24.11L56.8458 32.126H54.0078L56.9948 24.11L59.8328 24.104V24.11Z" fill="#00DF5E"/>
<path d="M60.0811 26.4099C60.3181 25.7079 60.7768 25.1017 61.3881 24.6829C62.0777 24.27 62.873 24.068 63.6761 24.1019L70.6101 24.0869L69.7701 26.3429L63.1151 26.3569C62.9768 26.3513 62.8389 26.3744 62.7101 26.4249C62.6315 26.4522 62.5669 26.5093 62.5301 26.5839L62.2741 27.2089L61.6021 29.0089C61.5761 29.1019 61.5451 29.2009 61.5091 29.3089C61.4731 29.4169 61.4351 29.5179 61.4031 29.6089C61.3351 29.7909 61.467 29.8799 61.803 29.8809L68.4571 29.8669L67.622 32.0989L60.6881 32.1159C60.3557 32.1631 60.0171 32.136 59.6965 32.0366C59.3759 31.9371 59.0814 31.7678 58.8341 31.5409C58.6828 31.2804 58.6015 30.9853 58.5978 30.6841C58.5941 30.383 58.6683 30.086 58.8131 29.8219L60.0861 26.4079L60.0811 26.4099Z" fill="#00DF5E"/>
<path d="M79.9671 27.9768C80.015 28.5143 79.9295 29.0553 79.7181 29.5519C79.4762 30.3111 79.0156 30.9822 78.3941 31.4809C77.747 31.9095 76.9805 32.1217 76.2051 32.0868L70.5491 32.0988L69.9211 31.9198L69.5211 31.6588L69.3711 31.3429L69.4161 30.8208L69.6961 30.0608L75.9331 30.0468C76.1426 30.0471 76.3507 30.0113 76.5481 29.9408C76.6414 29.9108 76.7267 29.8599 76.7974 29.792C76.8681 29.724 76.9223 29.6409 76.9561 29.5489C77.0321 29.3429 76.9781 29.2158 76.7971 29.1628C76.6765 29.1232 76.551 29.1007 76.4241 29.0959C76.2861 29.0899 76.1181 29.0868 75.9161 29.0858C75.8375 29.0799 75.7586 29.0799 75.6801 29.0858C75.5671 29.0858 75.4121 29.0859 75.2231 29.0799H74.8741C74.4151 29.0659 74.0431 29.0628 73.7541 29.0658C73.4651 29.0688 73.2721 29.0658 73.1541 29.0608L72.8141 29.0439C72.7011 29.0439 72.5971 29.0358 72.4911 29.0288C72.4301 29.0218 72.3721 29.0158 72.3111 29.0108C72.2588 29.009 72.2067 29.0037 72.1551 28.9948H71.9801C71.1988 28.9515 70.7234 28.6885 70.5541 28.2058C70.4842 27.9955 70.4677 27.7711 70.5061 27.5528C70.555 27.245 70.6369 26.9433 70.7501 26.6529C70.9912 25.9178 71.4151 25.2561 71.9821 24.7298C72.5313 24.2874 73.2224 24.0593 73.9271 24.0878L79.8481 24.1088L80.3371 24.2868L80.7101 24.5028L80.8971 24.8438L80.9711 25.2968L80.7031 26.1128L74.4781 26.1258C74.2807 26.1247 74.0847 26.1586 73.8991 26.2259C73.8106 26.2573 73.7303 26.3082 73.6642 26.3748C73.5981 26.4415 73.5478 26.5221 73.5171 26.6108C73.4531 26.7838 73.4811 26.9039 73.6041 26.9679C73.7809 27.0421 73.9727 27.0739 74.1641 27.0608H74.5951C74.6951 27.0768 74.9221 27.0858 75.2681 27.0938H75.6051C76.0051 27.1078 76.3457 27.1105 76.6271 27.1018C76.9071 27.0938 77.1271 27.0938 77.2801 27.1018C77.3753 27.1093 77.4709 27.1093 77.5661 27.1018C77.6496 27.0951 77.7335 27.0951 77.8171 27.1018C77.858 27.1094 77.8995 27.1131 77.9411 27.1128H78.0411C78.141 27.119 78.2412 27.119 78.3411 27.1128C78.4242 27.1048 78.508 27.1048 78.5911 27.1128C78.9163 27.1244 79.2343 27.2114 79.5201 27.3669C79.6319 27.4295 79.729 27.5155 79.8045 27.6191C79.8801 27.7226 79.9325 27.8412 79.9581 27.9668L79.9651 27.9789L79.9671 27.9768Z" fill="#00DF5E"/>
<path d="M2.89294 32.233H0L3.07202 24.075L11.845 24.0829L10.981 26.3829L5.10095 26.376L4.70996 27.4149L3.88403 29.608L2.89404 32.239L2.89294 32.233ZM5.26196 27.41H9.99194L9.16101 29.6099H4.43103L5.26099 27.41H5.26196Z" fill="#00DF5E"/>
<path d="M40.5852 0.506905L35.7512 13.3479C35.7067 13.4405 35.6975 13.5461 35.7253 13.6449C35.7531 13.7438 35.816 13.8291 35.9022 13.8849C36.2111 14.054 36.5635 14.1268 36.9142 14.0939L45.3792 14.1029C45.8057 14.1247 46.232 14.0548 46.6292 13.8979C46.8789 13.7991 47.08 13.6063 47.1892 13.3609L52.0242 0.519905L58.8192 0.526909L53.6862 14.1659C53.3924 14.9748 52.998 15.7435 52.5122 16.4539C51.9966 17.1621 51.3634 17.7767 50.6402 18.2709C50.2602 18.5282 49.9179 18.7479 49.6132 18.9299C49.3459 19.0949 49.0684 19.2425 48.7822 19.3719C48.1885 19.6353 47.5595 19.8105 46.9152 19.8919C46.5075 19.9794 46.0935 20.0346 45.6772 20.0569C45.1632 20.0936 44.6388 20.1206 44.1042 20.1379C43.5382 20.1379 42.7972 20.1379 41.8912 20.1469C40.9852 20.1559 39.9912 20.1609 38.9132 20.1599C37.7618 20.1599 36.7589 20.1539 35.9042 20.1419C35.0495 20.1299 34.3389 20.1246 33.7722 20.1259C32.8726 20.1192 31.9753 20.0349 31.0902 19.8739H31.1192C30.8378 19.8301 30.561 19.7608 30.2922 19.6669C30.0693 19.5919 29.8558 19.4912 29.6562 19.3669C29.4564 19.2416 29.2756 19.0884 29.1192 18.9119C28.9304 18.7012 28.7535 18.4802 28.5892 18.2499C28.2133 17.7251 28.0283 17.0874 28.0652 16.4429C28.1436 15.6529 28.3352 14.8783 28.6342 14.1429L33.7672 0.503906L40.5902 0.51091L40.5852 0.506905Z" fill="#00DF5E"/>
<path d="M68.5392 20.0238L61.6331 20.0159L66.9972 5.76985L58.6191 5.76085L60.5891 0.526855L84.0012 0.54985L82.0282 5.78485L73.9081 5.77785L68.5432 20.0229L68.5392 20.0238Z" fill="#00DF5E"/>
<path d="M10.3083 20.0158L3.40234 20.0078L10.7373 0.527832L31.6853 0.548836L29.6213 6.03284L15.5793 6.01784L14.6464 8.49883L12.6743 13.7338L10.3093 20.0148L10.3083 20.0158ZM15.6624 8.50083L26.9553 8.51183L24.9733 13.7718L13.6803 13.7608L15.6613 8.50083H15.6624Z" fill="#00DF5E"/>
</svg>
