<svg width="90" height="34" viewBox="0 0 90 34" fill="none" xmlns="http://www.w3.org/2000/svg">
<path d="M12.288 33.949L8.83496 33.9911L16.871 25.3911L20.4979 25.3831L22.0709 33.9601L18.6709 33.9691L18.4309 32.5691L14.5659 32.5771L16.6189 30.412H18.0649C18.0269 30.2 17.9889 30.0041 17.9529 29.8221C17.9169 29.6401 17.8839 29.461 17.8529 29.282C17.8219 29.103 17.7869 28.9201 17.7529 28.7311C17.7189 28.5421 17.681 28.3361 17.637 28.1171L12.2909 33.9441L12.288 33.949Z" fill="white"/>
<path d="M27.856 28.1739L25.714 33.9189L22.814 33.9269L26.001 25.3739L30.588 25.3649L33.228 31.0749L35.3619 25.3539L38.254 25.3469L35.067 33.8999L30.505 33.9089L27.86 28.1739H27.856Z" fill="white"/>
<path d="M38.7699 33.8911L35.3159 33.9351L43.3519 25.3351L46.9789 25.3281L48.5519 33.9052L45.1519 33.9121L44.9129 32.5191L41.0489 32.5261L43.1009 30.3621H44.5469C44.5089 30.1511 44.4719 29.9541 44.4369 29.7731C44.4019 29.5921 44.3659 29.4121 44.3369 29.2311C44.3079 29.0501 44.2709 28.8691 44.2369 28.6801C44.2029 28.4911 44.1659 28.2861 44.1229 28.0671L38.7769 33.8931L38.7699 33.8911Z" fill="white"/>
<path d="M53.095 33.896L50.0551 33.903L52.395 27.623L48.7061 27.632L49.5671 25.323L59.8751 25.302L59.014 27.609L55.438 27.617L53.0961 33.896H53.095Z" fill="white"/>
<path d="M64.0989 25.293L60.8989 33.881L57.8579 33.886L61.0579 25.298L64.0989 25.292V25.293Z" fill="white"/>
<path d="M64.3649 27.758C64.6189 27.006 65.1102 26.3568 65.7649 25.908C66.5035 25.4655 67.3556 25.2489 68.2159 25.285L75.6449 25.269L74.7449 27.686L67.6159 27.701C67.4677 27.6953 67.32 27.7201 67.1819 27.774C67.0978 27.8033 67.0285 27.8643 66.9889 27.944L66.7149 28.613L65.9949 30.545C65.9669 30.645 65.9339 30.751 65.8949 30.868C65.8559 30.985 65.8159 31.092 65.7809 31.19C65.7079 31.39 65.8499 31.48 66.2099 31.481L73.3379 31.466L72.4439 33.857L65.0159 33.875C64.6599 33.9255 64.2971 33.8965 63.9537 33.79C63.6103 33.6835 63.2948 33.5021 63.0299 33.259C62.8677 32.98 62.7803 32.6638 62.7763 32.3411C62.7722 32.0183 62.8517 31.7 63.0069 31.417L64.3709 27.759L64.3649 27.758Z" fill="white"/>
<path d="M85.671 29.436C85.7223 30.012 85.6306 30.5918 85.404 31.1239C85.1447 31.9376 84.6511 32.6567 83.985 33.191C83.2917 33.65 82.4706 33.8773 81.64 33.84L75.581 33.853L74.908 33.6609L74.475 33.381L74.314 33.0419L74.362 32.483L74.662 31.6689L81.344 31.6539C81.5686 31.6541 81.7915 31.6156 82.003 31.54C82.1029 31.5078 82.1942 31.4532 82.27 31.3804C82.3457 31.3076 82.4038 31.2185 82.44 31.1199C82.522 30.8989 82.464 30.7629 82.27 30.7059C82.1406 30.6634 82.006 30.6392 81.87 30.634C81.722 30.628 81.542 30.624 81.326 30.623C81.2417 30.6167 81.1572 30.6167 81.073 30.623C80.952 30.623 80.786 30.6229 80.583 30.6169H80.209C79.717 30.6019 79.319 30.599 79.009 30.602C78.699 30.605 78.492 30.6019 78.371 30.5959C78.25 30.5899 78.128 30.5829 78.007 30.5779C77.886 30.5729 77.7739 30.5689 77.6609 30.5619C77.5959 30.5539 77.533 30.548 77.468 30.543C77.412 30.5411 77.3562 30.5354 77.301 30.5259H77.113C76.2756 30.4793 75.7663 30.1976 75.585 29.681C75.5102 29.4555 75.4926 29.2149 75.534 28.9809C75.5862 28.6505 75.6736 28.3267 75.795 28.0149C76.0533 27.2275 76.5075 26.5187 77.115 25.9549C77.7034 25.4809 78.4439 25.2364 79.199 25.267L85.542 25.2899L86.066 25.4809L86.466 25.712L86.666 26.077L86.745 26.5619L86.458 27.436L79.789 27.4499C79.5774 27.4497 79.3675 27.4869 79.169 27.5599C79.0742 27.5937 78.9882 27.6483 78.9174 27.7198C78.8466 27.7913 78.7928 27.8778 78.76 27.9729C78.691 28.1589 78.721 28.287 78.853 28.355C79.0424 28.4347 79.2479 28.4689 79.453 28.4549H79.915C80.024 28.4719 80.265 28.482 80.636 28.49H80.997C81.4243 28.5053 81.7893 28.5083 82.0919 28.4989C82.3919 28.4909 82.626 28.4909 82.792 28.4989C82.8941 28.507 82.9968 28.507 83.099 28.4989C83.1885 28.4919 83.2784 28.4919 83.368 28.4989C83.4118 28.5072 83.4564 28.5112 83.501 28.511H83.612C83.7179 28.5174 83.8241 28.5174 83.93 28.511C84.0191 28.5022 84.1088 28.5022 84.198 28.511C84.5462 28.5235 84.8868 28.6166 85.193 28.7829C85.3132 28.8506 85.4174 28.9434 85.4983 29.0551C85.5793 29.1668 85.6351 29.2946 85.662 29.4299L85.67 29.4429L85.671 29.436Z" fill="white"/>
<path d="M3.09998 33.9961H0L3.29102 25.2561L12.691 25.2651L11.765 27.7261L5.46497 27.7191L5.04602 28.8321L4.16101 31.1821L3.09998 34.0011V33.9961ZM5.63794 28.8281L10.7061 28.8331L9.81604 31.1941H4.74805L5.63696 28.8331L5.63794 28.8281Z" fill="white"/>
<path d="M43.48 0.00800323L38.3011 13.765C38.2535 13.8641 38.2437 13.9772 38.2735 14.0831C38.3034 14.1889 38.3707 14.2803 38.4631 14.34C38.794 14.5211 39.1714 14.5991 39.547 14.564L48.6161 14.574C49.0741 14.5973 49.5317 14.522 49.958 14.353C50.2255 14.2472 50.4409 14.0407 50.558 13.778L55.737 0.0209961L63.016 0.0289993L57.516 14.641C57.2012 15.5075 56.7785 16.331 56.258 17.092C55.7056 17.8509 55.0271 18.5094 54.2521 19.039C53.8447 19.315 53.478 19.5503 53.152 19.745C52.8658 19.9219 52.5686 20.0802 52.2621 20.219C51.6261 20.5011 50.9523 20.6888 50.2621 20.776C49.8254 20.8698 49.382 20.929 48.9361 20.953C48.3851 20.992 47.824 21.022 47.25 21.04C46.644 21.04 45.8501 21.04 44.8791 21.05C43.9081 21.06 42.84 21.065 41.688 21.064C40.4547 21.064 39.38 21.0577 38.464 21.045C37.548 21.0323 36.7867 21.0267 36.18 21.028C35.216 21.0209 34.2545 20.9305 33.3061 20.758H33.337C33.0356 20.711 32.739 20.6367 32.451 20.536C32.2118 20.4542 31.9829 20.3448 31.769 20.21C31.5551 20.0759 31.3616 19.9119 31.1941 19.723C30.9918 19.4973 30.8021 19.2606 30.626 19.014C30.2233 18.4517 30.0254 17.7685 30.065 17.078C30.1489 16.231 30.3544 15.4005 30.675 14.612L36.175 0L43.484 0.00800323H43.48Z" fill="white"/>
<path d="M73.4281 20.917L66.0281 20.909L71.7741 5.64703L62.7981 5.63702L64.9091 0.0300293L89.9911 0.0550308L87.8771 5.66302L79.1771 5.65503L73.4301 20.916L73.4281 20.917Z" fill="white"/>
<path d="M11.045 20.9129L3.64502 20.9039L11.5031 0.0339355L33.9451 0.0569305L31.733 5.93193L16.6901 5.91593L15.6901 8.57393L13.577 14.1819L11.0431 20.9109L11.045 20.9129ZM16.78 8.57594L28.8801 8.58793L26.7561 14.2229L14.6561 14.2109L16.7791 8.57594H16.78Z" fill="white"/>
</svg>
