<svg width="16" height="20" viewBox="0 0 16 20" fill="none" xmlns="http://www.w3.org/2000/svg">
<path d="M8 12C6.67441 11.9984 5.40355 11.4711 4.46622 10.5338C3.52888 9.59645 3.00159 8.32559 3 7V5C3 3.67392 3.52678 2.40213 4.46446 1.46445C5.40214 0.526765 6.67392 0 8 0C9.32608 0 10.5979 0.526765 11.5355 1.46445C12.4732 2.40213 13 3.67392 13 5V7C12.9984 8.32559 12.4711 9.59645 11.5338 10.5338C10.5964 11.4711 9.32559 11.9984 8 12ZM8 2C7.20435 2 6.44129 2.31605 5.87868 2.87866C5.31607 3.44127 5 4.20435 5 5V7C5 7.79565 5.31607 8.5587 5.87868 9.12131C6.44129 9.68392 7.20435 10 8 10C8.79565 10 9.55871 9.68392 10.1213 9.12131C10.6839 8.5587 11 7.79565 11 7V5C11 4.20435 10.6839 3.44127 10.1213 2.87866C9.55871 2.31605 8.79565 2 8 2Z" fill="#00DF5E"/>
<path d="M12 15C12.5304 15 13.0391 15.2107 13.4142 15.5858C13.7893 15.9609 14 16.4696 14 17V18H2V17C2 16.4696 2.21071 15.9609 2.58578 15.5858C2.96086 15.2107 3.46957 15 4 15H12ZM12 13H4C2.93913 13 1.92173 13.4214 1.17159 14.1716C0.42144 14.9217 0 15.9391 0 17V19C0 19.2652 0.105356 19.5196 0.292892 19.7071C0.480429 19.8946 0.734784 20 1 20H15C15.2652 20 15.5196 19.8946 15.7071 19.7071C15.8946 19.5196 16 19.2652 16 19V17C16 15.9391 15.5786 14.9217 14.8284 14.1716C14.0783 13.4214 13.0609 13 12 13Z" fill="#00DF5E"/>
</svg>
