<svg width="16" height="20" viewBox="0 0 16 20" fill="none" xmlns="http://www.w3.org/2000/svg">
<path d="M7.99902 12C6.67343 11.9984 5.40258 11.4711 4.46524 10.5338C3.5279 9.59645 3.00061 8.3256 2.99902 7V5C2.99902 3.67392 3.5258 2.40213 4.46349 1.46445C5.40117 0.526765 6.67294 0 7.99902 0C9.32511 0 10.5969 0.526765 11.5346 1.46445C12.4722 2.40213 12.999 3.67392 12.999 5V7C12.9974 8.3256 12.4701 9.59645 11.5328 10.5338C10.5955 11.4711 9.32462 11.9984 7.99902 12V12ZM7.99902 2C7.20337 2 6.44031 2.31605 5.8777 2.87866C5.31509 3.44127 4.99902 4.20435 4.99902 5V7C4.99902 7.79565 5.31509 8.5587 5.8777 9.12131C6.44031 9.68392 7.20337 10 7.99902 10C8.79467 10 9.55774 9.68392 10.1203 9.12131C10.683 8.5587 10.999 7.79565 10.999 7V5C10.999 4.20435 10.683 3.44127 10.1203 2.87866C9.55774 2.31605 8.79467 2 7.99902 2Z" fill="#D7D7D7"/>
<path d="M12 15C12.5304 15 13.0391 15.2107 13.4142 15.5858C13.7893 15.9609 14 16.4696 14 17V18H2V17C2 16.4696 2.21071 15.9609 2.58578 15.5858C2.96086 15.2107 3.46957 15 4 15H12ZM12 13H4C2.93913 13 1.92173 13.4214 1.17159 14.1716C0.42144 14.9217 0 15.9391 0 17V19C0 19.2652 0.105356 19.5196 0.292892 19.7071C0.480429 19.8946 0.734784 20 1 20H15C15.2652 20 15.5196 19.8946 15.7071 19.7071C15.8946 19.5196 16 19.2652 16 19V17C16 15.9391 15.5786 14.9217 14.8284 14.1716C14.0783 13.4214 13.0609 13 12 13Z" fill="#D7D7D7"/>
</svg>
