<svg width="24" height="24" viewBox="0 0 24 24" fill="none" xmlns="http://www.w3.org/2000/svg">
<path d="M8 22C9.10457 22 10 21.1046 10 20C10 18.8954 9.10457 18 8 18C6.89543 18 6 18.8954 6 20C6 21.1046 6.89543 22 8 22Z" fill="#00DF5E"/>
<path d="M16 22C17.1046 22 18 21.1046 18 20C18 18.8954 17.1046 18 16 18C14.8954 18 14 18.8954 14 20C14 21.1046 14.8954 22 16 22Z" fill="#00DF5E"/>
<path d="M20.037 4.72797L18.245 11.002H7.72099L4.94899 2.68597C4.88264 2.48677 4.75528 2.31347 4.58495 2.1907C4.41461 2.06794 4.20996 2.0019 4 2.00195H2V4.00195H3.28L5.71399 11.302C5.09814 11.5924 4.59975 12.0842 4.30107 12.6961C4.00239 13.308 3.92128 14.0035 4.07114 14.6677C4.22099 15.3319 4.59285 15.9252 5.12534 16.3495C5.65782 16.7739 6.31909 17.0041 7 17.002H19V15.002H7C6.73478 15.002 6.48043 14.8966 6.29289 14.7091C6.10536 14.5215 6 14.2672 6 14.002C6 13.7367 6.10536 13.4824 6.29289 13.2949C6.48043 13.1073 6.73478 13.002 7 13.002H19C19.2175 13.002 19.4291 12.9312 19.6027 12.8002C19.7763 12.6692 19.9024 12.4851 19.962 12.276L21.962 5.27597L20.037 4.72797Z" fill="#00DF5E"/>
</svg>
