<svg width="24" height="24" viewBox="0 0 24 24" fill="none" xmlns="http://www.w3.org/2000/svg">
<path d="M11.9997 21.0001H9.99973V17.4081L7.64273 15.0001H5.23474C4.9255 14.9999 4.62049 14.928 4.34372 14.7901L2.55273 13.8901L3.44672 12.1011L5.23474 12.9951H7.64273C7.90897 12.9952 8.17252 13.0484 8.41803 13.1514C8.66354 13.2544 8.88608 13.4052 9.07272 13.5951L11.4287 16.0021C11.7963 16.3751 12.0015 16.8784 11.9997 17.4021V21.0001Z" fill="#00DF5E"/>
<path d="M3.44672 11.895L2.55273 10.106L6.11472 8.32397L7.01474 3.80396L8.97574 4.19696L8.07571 8.71695C8.01728 9.01656 7.89066 9.29872 7.70563 9.5415C7.52059 9.78429 7.28213 9.9812 7.00873 10.117L3.44672 11.895Z" fill="#00DF5E"/>
<path d="M17.2932 19.7071L15.4602 17.8741C15.2396 17.6547 15.0739 17.3864 14.9762 17.0911L14.1602 14.6431L12.0802 13.256C11.7146 13.0124 11.4394 12.6551 11.2972 12.2393C11.1549 11.8236 11.1535 11.3726 11.2932 10.9561L12.8932 6.15607C12.9913 5.86188 13.1565 5.59452 13.3757 5.37515C13.5949 5.15578 13.8621 4.99041 14.1562 4.89206L16.6832 4.05005L17.3152 5.95004L14.7892 6.79205L13.1892 11.592L15.2692 12.9781C15.6394 13.2259 15.9169 13.5896 16.0582 14.0121L16.8732 16.4601L18.7072 18.2931L17.2932 19.7071Z" fill="#00DF5E"/>
<path d="M12 4C13.5823 4 15.129 4.46918 16.4446 5.34824C17.7602 6.22729 18.7856 7.47673 19.3911 8.93854C19.9966 10.4003 20.155 12.0089 19.8463 13.5607C19.5376 15.1126 18.7757 16.538 17.6569 17.6569C16.5381 18.7757 15.1126 19.5376 13.5607 19.8463C12.0089 20.155 10.4004 19.9965 8.93855 19.391C7.47674 18.7855 6.2273 17.7601 5.34825 16.4445C4.4692 15.129 4.00001 13.5823 4.00001 12C4.00239 9.879 4.846 7.84554 6.34578 6.34576C7.84555 4.84599 9.87901 4.00238 12 4ZM12 2C10.0222 2 8.08881 2.58649 6.44432 3.6853C4.79983 4.78412 3.51809 6.3459 2.76121 8.17316C2.00434 10.0004 1.8063 12.0111 2.19215 13.9509C2.578 15.8907 3.53041 17.6726 4.92894 19.0711C6.32746 20.4696 8.10931 21.422 10.0491 21.8079C11.9889 22.1937 13.9996 21.9957 15.8269 21.2388C17.6541 20.4819 19.2159 19.2002 20.3147 17.5557C21.4135 15.9112 22 13.9778 22 12C22 9.34784 20.9465 6.80429 19.0711 4.92892C17.1957 3.05356 14.6522 2 12 2Z" fill="#00DF5E"/>
</svg>
