<svg width="20" height="20" viewBox="0 0 20 20" fill="none" xmlns="http://www.w3.org/2000/svg">
<path d="M9.99997 19H7.99997V15.408L5.64297 13H3.23499C2.92574 12.9998 2.62073 12.928 2.34396 12.79L0.552979 11.89L1.44696 10.101L3.23499 10.995H5.64297C5.90921 10.9952 6.17277 11.0483 6.41827 11.1513C6.66378 11.2543 6.88632 11.4051 7.07297 11.595L9.42896 14.002C9.79652 14.3751 10.0018 14.8783 9.99997 15.402V19Z" fill="#D7D7D7"/>
<path d="M1.44696 9.89499L0.552979 8.10599L4.11496 6.32401L5.01498 1.80399L6.97598 2.19699L6.07596 6.71698C6.01753 7.01659 5.89091 7.29875 5.70587 7.54153C5.52084 7.78432 5.28237 7.98123 5.00897 8.117L1.44696 9.89499Z" fill="#D7D7D7"/>
<path d="M15.293 17.707L13.4599 15.874C13.2394 15.6546 13.0736 15.3864 12.976 15.091L12.16 12.643L10.0799 11.256C9.71434 11.0123 9.43917 10.655 9.29692 10.2393C9.15468 9.82357 9.15328 9.37258 9.29296 8.95599L10.893 4.15601C10.9911 3.86182 11.1562 3.59446 11.3754 3.37509C11.5946 3.15572 11.8619 2.99035 12.156 2.892L14.683 2.04999L15.315 3.94998L12.789 4.79199L11.189 9.59198L13.269 10.978C13.6391 11.2259 13.9166 11.5895 14.058 12.012L14.8729 14.46L16.707 16.293L15.293 17.707Z" fill="#D7D7D7"/>
<path d="M10 2C11.5823 2 13.129 2.46918 14.4446 3.34824C15.7602 4.22729 16.7856 5.47673 17.3911 6.93854C17.9966 8.40035 18.155 10.0089 17.8463 11.5607C17.5376 13.1126 16.7757 14.538 15.6569 15.6569C14.5381 16.7757 13.1126 17.5376 11.5607 17.8463C10.0089 18.155 8.40036 17.9965 6.93855 17.391C5.47674 16.7855 4.2273 15.7601 3.34825 14.4445C2.4692 13.129 2.00001 11.5823 2.00001 10C2.00239 7.879 2.846 5.84554 4.34578 4.34576C5.84555 2.84599 7.87901 2.00238 10 2ZM10 0C8.0222 0 6.08881 0.586489 4.44432 1.6853C2.79983 2.78412 1.51809 4.3459 0.761212 6.17316C0.00433564 8.00042 -0.193701 10.0111 0.192151 11.9509C0.578003 13.8907 1.53041 15.6726 2.92894 17.0711C4.32746 18.4696 6.10931 19.422 8.04912 19.8079C9.98893 20.1937 11.9996 19.9957 13.8269 19.2388C15.6541 18.4819 17.2159 17.2002 18.3147 15.5557C19.4135 13.9112 20 11.9778 20 10C20 7.34784 18.9465 4.80429 17.0711 2.92892C15.1957 1.05356 12.6522 0 10 0Z" fill="#D7D7D7"/>
</svg>
