<svg width="448" height="448" viewBox="0 0 448 448" fill="none" xmlns="http://www.w3.org/2000/svg">
<path d="M224 56C131.26 56.108 56.108 131.26 56 223.989V280C56 304.742 76.058 324.8 100.8 324.8H123.2C135.571 324.8 145.6 314.771 145.6 302.4V201.6C145.6 189.229 135.571 179.2 123.2 179.2H100.8C94.936 179.232 89.352 180.389 84.238 182.466L84.537 182.359C103.103 121.795 158.482 78.5 223.988 78.401H224C289.517 78.5 344.896 121.795 363.189 181.326L363.462 182.359C358.648 180.39 353.063 179.233 347.212 179.201H324.799C312.428 179.201 302.399 189.23 302.399 201.601V302.401C302.399 314.772 312.428 324.801 324.799 324.801H347.199C353.055 324.771 358.632 323.614 363.737 321.535L363.439 321.642C351.217 350.037 323.493 369.565 291.203 369.6H257.599V392H291.199C346.844 391.936 391.936 346.845 391.999 291.206V224C391.891 131.26 316.739 56.108 224.009 56H223.999H224ZM123.2 302.4H112V201.6H123.2V302.4ZM100.8 201.6V302.4C88.429 302.4 78.4 292.371 78.4 280V224C78.4 211.629 88.429 201.6 100.8 201.6V201.6ZM324.8 201.6H336V302.4H324.8V201.6ZM347.2 302.4V201.6C359.571 201.6 369.6 211.629 369.6 224V280C369.6 292.371 359.571 302.4 347.2 302.4Z" fill="#757575"/>
<path d="M224 369.6H246.4V392H224V369.6Z" fill="#757575"/>
</svg>
