<svg width="20" height="20" viewBox="0 0 20 20" fill="none" xmlns="http://www.w3.org/2000/svg">
<path d="M16.42 17.9731C16.39 17.9731 16.36 17.9731 16.329 17.9731C12.6039 17.7656 9.08595 16.1923 6.44782 13.5542C3.80969 10.9161 2.23649 7.39815 2.02899 3.67305C2.0166 3.46005 2.0482 3.24677 2.12184 3.04651C2.19547 2.84625 2.30955 2.66329 2.45698 2.50905C2.60824 2.35089 2.79 2.22504 2.99127 2.1391C3.19254 2.05316 3.40914 2.00892 3.62799 2.00905H6.83399C7.23365 2.00711 7.61938 2.15575 7.91439 2.42537C8.2094 2.695 8.39206 3.06583 8.42599 3.46405C8.49381 4.38161 8.70609 5.28271 9.05498 6.13405C9.15086 6.36286 9.19175 6.61097 9.17438 6.85845C9.15702 7.10592 9.08187 7.34588 8.95499 7.55906L8.44599 8.41906C9.25926 9.68133 10.3342 10.7542 11.598 11.5651L12.433 11.0591C12.6478 10.9299 12.8899 10.8531 13.1399 10.8346C13.3898 10.8162 13.6406 10.8568 13.872 10.9531C14.722 11.3015 15.6218 11.5131 16.538 11.5801C16.9359 11.6144 17.3064 11.7973 17.5758 12.0922C17.8451 12.3872 17.9937 12.7726 17.992 13.1721V16.3791C17.9921 16.5979 17.9478 16.8145 17.8619 17.0157C17.7759 17.217 17.6501 17.3988 17.492 17.5501C17.2021 17.8232 16.8183 17.9747 16.42 17.9731ZM6.83198 3.57306L3.63199 3.60205C3.82127 6.93048 5.22979 10.0726 7.58862 12.4285C9.94745 14.7843 13.0913 16.1889 16.42 16.3741L16.398 13.1661C15.3232 13.0862 14.2678 12.8367 13.271 12.4271C13.2664 12.4262 13.2616 12.4262 13.257 12.4271L12.017 13.1831C11.8943 13.2577 11.7538 13.2978 11.6102 13.2994C11.4666 13.301 11.3253 13.2639 11.201 13.1921C9.38928 12.14 7.88176 10.6356 6.82599 8.82605C6.75409 8.70337 6.71619 8.56375 6.71619 8.42156C6.71619 8.27936 6.75409 8.13974 6.82599 8.01706L7.57899 6.74106C7.16221 5.73185 6.91033 4.66221 6.83298 3.57306H6.83198Z" fill="#757575"/>
</svg>
