<svg width="20" height="20" viewBox="0 0 20 20" fill="none" xmlns="http://www.w3.org/2000/svg">
<path d="M6 19.998C7.10457 19.998 8 19.1026 8 17.998C8 16.8934 7.10457 15.998 6 15.998C4.89543 15.998 4 16.8934 4 17.998C4 19.1026 4.89543 19.998 6 19.998Z" fill="#D7D7D7"/>
<path d="M14 19.998C15.1046 19.998 16 19.1026 16 17.998C16 16.8934 15.1046 15.998 14 15.998C12.8954 15.998 12 16.8934 12 17.998C12 19.1026 12.8954 19.998 14 19.998Z" fill="#D7D7D7"/>
<path d="M18.037 2.72601L16.245 9H5.72099L2.94899 0.684021C2.88264 0.484815 2.75528 0.31152 2.58495 0.188751C2.41461 0.0659828 2.20996 -5.05306e-05 2 2.90123e-08H0V2H1.28L3.71399 9.30002C3.09814 9.59048 2.59975 10.0822 2.30107 10.6942C2.00239 11.3061 1.92128 12.0015 2.07114 12.6657C2.22099 13.33 2.59286 13.9232 3.12534 14.3476C3.65782 14.772 4.31909 15.0021 5 15H17V13H5C4.73478 13 4.48043 12.8947 4.29289 12.7071C4.10536 12.5196 4 12.2652 4 12C4 11.7348 4.10536 11.4804 4.29289 11.2929C4.48043 11.1054 4.73478 11 5 11H17C17.2175 11.0001 17.4291 10.9292 17.6027 10.7982C17.7763 10.6672 17.9024 10.4832 17.962 10.274L19.962 3.27402L18.037 2.72601Z" fill="#D7D7D7"/>
</svg>
