<svg width="156" height="47" viewBox="0 0 156 47" fill="none" xmlns="http://www.w3.org/2000/svg">
<path d="M149.225 45.8995H6.06806C5.30646 45.9098 4.55053 45.7673 3.84494 45.4804C3.13934 45.1936 2.49839 44.7682 1.95995 44.2295C1.42151 43.6908 0.996497 43.0496 0.710025 42.3439C0.423554 41.6381 0.281433 40.8821 0.292059 40.1205V5.77554C0.281838 5.01419 0.424258 4.25852 0.71091 3.55312C0.997563 2.84773 1.42264 2.20692 1.96104 1.66852C2.49944 1.13012 3.14025 0.705039 3.84564 0.418387C4.55104 0.131735 5.30672 -0.0106837 6.06806 -0.000462957H149.328C150.089 -0.0106837 150.845 0.131735 151.55 0.418387C152.256 0.705039 152.897 1.13012 153.435 1.66852C153.973 2.20692 154.399 2.84773 154.685 3.55312C154.972 4.25852 155.114 5.01419 155.104 5.77554V40.1205C155.084 41.6643 154.455 43.1377 153.354 44.2201C152.253 45.3024 150.769 45.906 149.225 45.8995Z" fill="black"/>
<path d="M149.225 1.03051C149.862 1.02972 150.493 1.15458 151.081 1.39793C151.67 1.64129 152.205 1.99835 152.655 2.44869C153.105 2.89903 153.462 3.43378 153.706 4.02232C153.949 4.61086 154.074 5.24164 154.073 5.87851V40.2235C154.074 40.8604 153.949 41.4911 153.706 42.0797C153.462 42.6682 153.105 43.203 152.655 43.6533C152.205 44.1037 151.67 44.4607 151.081 44.7041C150.493 44.9474 149.862 45.0723 149.225 45.0715H6.06806C5.43119 45.0723 4.80042 44.9474 4.21187 44.7041C3.62333 44.4607 3.08858 44.1037 2.63824 43.6533C2.18791 43.203 1.83084 42.6682 1.58748 42.0797C1.34413 41.4911 1.21927 40.8604 1.22006 40.2235V5.87851C1.21927 5.24164 1.34413 4.61086 1.58748 4.02232C1.83084 3.43378 2.18791 2.89903 2.63824 2.44869C3.08858 1.99835 3.62333 1.64129 4.21187 1.39793C4.80042 1.15458 5.43119 1.02972 6.06806 1.03051H149.225ZM149.225 0.102507H6.06806C5.30917 0.101189 4.55749 0.249691 3.85612 0.539495C3.15475 0.8293 2.51749 1.25471 1.98087 1.79132C1.44426 2.32793 1.01885 2.9652 0.729047 3.66657C0.439243 4.36794 0.290741 5.11962 0.292059 5.87851V40.2235C0.281433 40.9851 0.423554 41.7411 0.710025 42.4468C0.996497 43.1526 1.42151 43.7938 1.95995 44.3325C2.49839 44.8712 3.13934 45.2965 3.84494 45.5834C4.55053 45.8702 5.30646 46.0127 6.06806 46.0025H149.328C150.089 46.0127 150.845 45.8703 151.55 45.5837C152.256 45.297 152.897 44.8719 153.435 44.3335C153.973 43.7951 154.399 43.1543 154.685 42.4489C154.972 41.7435 155.114 40.9879 155.104 40.2265V5.87851C155.102 5.11175 154.948 4.35295 154.651 3.64617C154.354 2.9394 153.919 2.29872 153.372 1.76135C152.825 1.22398 152.177 0.80062 151.465 0.515852C150.753 0.231084 149.992 0.0905842 149.225 0.102507Z" fill="#A6A6A6"/>
<path d="M78.369 25.0625C77.7141 25.0452 77.0625 25.1614 76.454 25.404C75.8455 25.6467 75.2927 26.0108 74.8295 26.474C74.3663 26.9373 74.0022 27.49 73.7595 28.0985C73.5168 28.707 73.4007 29.3586 73.418 30.0135C73.4094 30.666 73.5315 31.3137 73.7773 31.9183C74.0231 32.5229 74.3874 33.0721 74.8489 33.5335C75.3104 33.995 75.8596 34.3594 76.4642 34.6051C77.0688 34.8509 77.7164 34.9731 78.369 34.9645C79.0239 34.9818 79.6754 34.8656 80.284 34.6229C80.8925 34.3803 81.4452 34.0162 81.9085 33.553C82.3717 33.0897 82.7357 32.537 82.9784 31.9285C83.2211 31.32 83.3373 30.6684 83.32 30.0135C83.3289 29.3609 83.2069 28.7131 82.9612 28.1084C82.7155 27.5037 82.3511 26.9543 81.8896 26.4928C81.4281 26.0313 80.8788 25.6669 80.2741 25.4213C79.6694 25.1756 79.0216 25.0536 78.369 25.0625ZM78.369 32.9015C77.9897 32.8881 77.6167 32.8 77.2715 32.6424C76.9262 32.4849 76.6154 32.2608 76.3568 31.983C76.0981 31.7052 75.8968 31.3793 75.7642 31.0236C75.6316 30.668 75.5703 30.2898 75.584 29.9105C75.5558 29.5276 75.607 29.1431 75.7342 28.7809C75.8614 28.4187 76.0619 28.0866 76.3232 27.8054C76.5845 27.5242 76.901 27.2999 77.2529 27.1465C77.6048 26.9931 77.9846 26.914 78.3685 26.914C78.7524 26.914 79.1321 26.9931 79.484 27.1465C79.8359 27.2999 80.1524 27.5242 80.4137 27.8054C80.675 28.0866 80.8756 28.4187 81.0028 28.7809C81.13 29.1431 81.1811 29.5276 81.153 29.9105C81.1446 30.6659 80.8545 31.3911 80.3396 31.9439C79.8246 32.4967 79.1219 32.8375 78.369 32.8995V32.9015ZM67.643 25.0625C66.9881 25.0452 66.3365 25.1614 65.728 25.404C65.1195 25.6467 64.5667 26.0108 64.1035 26.474C63.6402 26.9373 63.2762 27.49 63.0335 28.0985C62.7908 28.707 62.6746 29.3586 62.692 30.0135C62.6834 30.666 62.8056 31.3137 63.0513 31.9183C63.2971 32.5229 63.6615 33.0721 64.1229 33.5335C64.5844 33.995 65.1336 34.3594 65.7382 34.6051C66.3427 34.8509 66.9904 34.9731 67.643 34.9645C68.2979 34.9818 68.9494 34.8656 69.558 34.6229C70.1665 34.3803 70.7192 34.0162 71.1825 33.553C71.6457 33.0897 72.0097 32.537 72.2524 31.9285C72.4951 31.32 72.6113 30.6684 72.594 30.0135C72.62 29.3562 72.5098 28.7007 72.2701 28.0882C72.0305 27.4756 71.6666 26.9193 71.2014 26.4543C70.7363 25.9892 70.1799 25.6255 69.5673 25.386C68.9547 25.1464 68.2992 25.0363 67.642 25.0625H67.643ZM67.643 32.9015C67.2637 32.8881 66.8907 32.8 66.5455 32.6424C66.2002 32.4849 65.8894 32.2608 65.6308 31.983C65.3721 31.7052 65.1708 31.3793 65.0382 31.0236C64.9056 30.668 64.8443 30.2898 64.858 29.9105C64.8356 29.5292 64.8909 29.1472 65.0203 28.7879C65.1497 28.4285 65.3506 28.099 65.6109 27.8195C65.8712 27.5399 66.1855 27.316 66.5348 27.1613C66.884 27.0067 67.261 26.9244 67.643 26.9195C68.0275 26.9157 68.4086 26.9921 68.7619 27.1439C69.1152 27.2956 69.4331 27.5193 69.6951 27.8008C69.9572 28.0822 70.1577 28.4152 70.2838 28.7784C70.41 29.1417 70.4591 29.5272 70.428 29.9105C70.4413 30.2897 70.3799 30.6678 70.2471 31.0232C70.1143 31.3787 69.9128 31.7045 69.6541 31.9821C69.3954 32.2596 69.0845 32.4835 68.7393 32.6409C68.394 32.7983 68.0212 32.8862 67.642 32.8995L67.643 32.9015ZM54.957 26.5065V28.5695H59.908C59.8075 29.5572 59.412 30.4917 58.773 31.2515C58.2719 31.7443 57.6738 32.1275 57.0167 32.3768C56.3596 32.6261 55.6578 32.736 54.956 32.6995C54.24 32.7101 53.5294 32.5751 52.8671 32.3028C52.2049 32.0305 51.6049 31.6266 51.1034 31.1155C50.6019 30.6044 50.2095 29.9968 49.9498 29.3295C49.6902 28.6622 49.5688 27.9491 49.593 27.2335C49.5775 26.5201 49.7049 25.8109 49.9676 25.1475C50.2304 24.4841 50.6232 23.8799 51.1229 23.3706C51.6226 22.8613 52.2192 22.4571 52.8774 22.1818C53.5357 21.9064 54.2424 21.7656 54.956 21.7675C56.356 21.7965 57.7034 22.3064 58.772 23.2115L60.216 21.7675C58.8312 20.4338 56.9815 19.6921 55.059 19.6995C54.0599 19.6832 53.0676 19.8659 52.1399 20.237C51.2122 20.608 50.3676 21.16 49.6553 21.8608C48.943 22.5615 48.3774 23.397 47.9912 24.3186C47.6051 25.2401 47.4062 26.2293 47.4062 27.2285C47.4062 28.2277 47.6051 29.2169 47.9912 30.1384C48.3774 31.06 48.943 31.8955 49.6553 32.5962C50.3676 33.297 51.2122 33.8489 52.1399 34.22C53.0676 34.5911 54.0599 34.7738 55.059 34.7575C56.0409 34.8045 57.0212 34.6348 57.9303 34.2604C58.8393 33.8861 59.6548 33.3163 60.319 32.5915C61.5351 31.2724 62.1993 29.5374 62.175 27.7435C62.1974 27.3282 62.1638 26.9118 62.075 26.5055L54.957 26.5065ZM106.939 28.1565C106.655 27.2775 106.106 26.508 105.368 25.9539C104.629 25.3998 103.736 25.0884 102.813 25.0625C102.184 25.0722 101.564 25.21 100.991 25.4676C100.417 25.7252 99.9024 26.0971 99.4776 26.5606C99.0528 27.024 98.727 27.5693 98.5202 28.163C98.3134 28.7567 98.23 29.3864 98.275 30.0135C98.2504 31.0624 98.5676 32.091 99.1786 32.944C99.7896 33.797 100.661 34.4282 101.662 34.7425C102.663 35.0568 103.74 35.0372 104.728 34.6865C105.717 34.3359 106.566 33.6732 107.145 32.7985L105.495 31.6635C105.252 32.0753 104.905 32.416 104.488 32.6513C104.072 32.8867 103.601 33.0085 103.123 33.0045C102.626 33.045 102.129 32.9271 101.702 32.6677C101.276 32.4083 100.943 32.0207 100.751 31.5605L107.251 28.7755L106.939 28.1565ZM100.339 29.8065C100.302 29.0994 100.538 28.4052 100.999 27.8676C101.46 27.33 102.11 26.9902 102.814 26.9185C103.19 26.8906 103.566 26.9733 103.896 27.1565C104.226 27.3397 104.495 27.6154 104.67 27.9495L100.339 29.8065ZM94.976 34.4475H97.142V20.1125H94.976V34.4475ZM91.469 26.0935C91.1251 25.7286 90.7091 25.4393 90.2473 25.2439C89.7856 25.0485 89.2883 24.9513 88.787 24.9585C87.5128 25.0199 86.3108 25.5675 85.4283 26.4885C84.5457 27.4096 84.05 28.6339 84.043 29.9095C84.0306 30.5408 84.1441 31.1682 84.3769 31.7552C84.6096 32.3421 84.9569 32.8768 85.3985 33.3281C85.8401 33.7794 86.3672 34.1383 86.9489 34.3837C87.5307 34.6291 88.1555 34.7561 88.787 34.7575C89.2564 34.7545 89.7198 34.6518 90.1465 34.4561C90.5732 34.2604 90.9534 33.9763 91.262 33.6225H91.362V34.3445C91.362 36.2015 90.331 37.2325 88.68 37.2325C88.1498 37.2296 87.6343 37.0582 87.2079 36.743C86.7815 36.4279 86.4664 35.9854 86.308 35.4795L84.451 36.3045C84.8228 37.1486 85.4281 37.8689 86.1956 38.3806C86.9631 38.8922 87.8608 39.1739 88.783 39.1925C91.258 39.1925 93.321 37.7485 93.321 34.1385V25.4745H91.258V26.0935H91.469ZM88.994 32.9005C88.6147 32.8871 88.2417 32.7991 87.8965 32.6415C87.5512 32.4839 87.2404 32.2598 86.9818 31.982C86.7231 31.7043 86.5218 31.3783 86.3892 31.0226C86.2566 30.667 86.1953 30.2888 86.209 29.9095C86.1866 29.5282 86.2418 29.1463 86.3712 28.7869C86.5007 28.4275 86.7016 28.098 86.9619 27.8185C87.2222 27.5389 87.5365 27.315 87.8858 27.1603C88.235 27.0056 88.612 26.9234 88.994 26.9185C89.3707 26.926 89.7417 27.011 90.0842 27.168C90.4267 27.3251 90.7332 27.5509 90.9847 27.8314C91.2362 28.1119 91.4274 28.4411 91.5463 28.7986C91.6652 29.1561 91.7094 29.5342 91.676 29.9095C91.7076 30.6597 91.4445 31.3924 90.943 31.9512C90.4414 32.5099 89.7412 32.8503 88.992 32.8995L88.994 32.9005ZM116.945 20.1115H111.788V34.4475H113.954V29.0845H116.945C118.162 29.1233 119.344 28.6784 120.233 27.8471C121.122 27.0158 121.646 25.866 121.689 24.6495C121.65 23.4222 121.131 22.2593 120.243 21.4108C119.356 20.5624 118.171 20.0961 116.943 20.1125L116.945 20.1115ZM117.045 27.0215H113.951V22.0705H117.045C117.364 22.0625 117.681 22.1177 117.978 22.2328C118.275 22.3479 118.546 22.5207 118.776 22.7412C119.006 22.9617 119.191 23.2255 119.318 23.5175C119.446 23.8095 119.514 24.1239 119.52 24.4425C119.536 24.7765 119.483 25.1102 119.366 25.4233C119.248 25.7363 119.068 26.0223 118.837 26.2636C118.605 26.505 118.327 26.6967 118.019 26.8271C117.712 26.9576 117.38 27.0241 117.046 27.0225L117.045 27.0215ZM130.245 24.9585C129.466 24.9037 128.689 25.08 128.01 25.4653C127.331 25.8507 126.781 26.4278 126.429 27.1245L128.389 27.9495C128.572 27.5987 128.858 27.312 129.208 27.1278C129.558 26.9436 129.956 26.8706 130.349 26.9185C130.892 26.8853 131.427 27.0582 131.847 27.4025C132.268 27.7467 132.543 28.2371 132.618 28.7755V28.8755C131.96 28.4896 131.215 28.2766 130.452 28.2565C128.389 28.2565 126.326 29.3915 126.326 31.4565C126.345 31.8973 126.451 32.3299 126.638 32.7297C126.824 33.1294 127.088 33.4882 127.414 33.7856C127.74 34.083 128.122 34.313 128.537 34.4624C128.952 34.6119 129.392 34.6778 129.833 34.6565C130.368 34.6532 130.895 34.5313 131.376 34.2993C131.858 34.0674 132.282 33.7314 132.618 33.3155H132.718V34.4505H134.781V28.9845C134.75 28.4218 134.607 27.8709 134.362 27.3636C134.116 26.8562 133.773 26.4024 133.352 26.0283C132.93 25.6541 132.439 25.3671 131.906 25.1837C131.373 25.0002 130.809 24.924 130.247 24.9595L130.245 24.9585ZM130.039 32.9005C129.317 32.9005 128.286 32.5915 128.286 31.6625C128.286 30.5275 129.524 30.2185 130.555 30.2185C131.229 30.2235 131.896 30.3639 132.515 30.6315C132.432 31.2389 132.14 31.7983 131.688 32.2125C131.236 32.6268 130.653 32.8698 130.041 32.8995L130.039 32.9005ZM142.003 25.2685L139.631 31.4565H139.531L137.056 25.2685H134.787L138.603 33.9325L136.437 38.7805H138.603L144.482 25.2695L142.003 25.2685ZM122.819 34.4475H124.985V20.1125H122.819V34.4475Z" fill="white"/>
<path d="M12.2561 8.66357C11.9249 9.14616 11.7783 9.73183 11.8432 10.3136V35.6856C11.8257 35.9886 11.8717 36.2918 11.9783 36.576C12.0849 36.8601 12.2497 37.1188 12.4622 37.3356L12.5621 37.4356L26.7951 23.2026V22.8936L12.2561 8.66357Z" fill="url(#paint0_linear_322_674)"/>
<path d="M31.2332 27.9526L26.4893 23.2086V22.8996L31.2332 18.1526L31.3333 18.2526L36.9023 21.4526C38.5523 22.3806 38.5523 23.8246 36.9023 24.7526L31.2292 27.9526H31.2332Z" fill="url(#paint1_linear_322_674)"/>
<path d="M31.3373 27.8475L26.4893 22.9995L12.1533 37.3355C12.7723 37.9545 13.4943 37.9545 14.5253 37.4355L31.3373 27.8435" fill="url(#paint2_linear_322_674)"/>
<path d="M31.3373 18.1527L14.6293 8.66365C14.2878 8.39289 13.8602 8.25401 13.4247 8.27236C12.9892 8.29072 12.5749 8.4651 12.2573 8.76365L26.5933 22.9967L31.3373 18.1527Z" fill="url(#paint3_linear_322_674)"/>
<path opacity="0.2" d="M31.2343 27.7446L14.6293 37.1306C14.306 37.3854 13.9063 37.5239 13.4948 37.5239C13.0832 37.5239 12.6835 37.3854 12.3603 37.1306L12.2603 37.2306L12.3603 37.3306C12.6843 37.5836 13.0837 37.7209 13.4948 37.7209C13.9059 37.7209 14.3052 37.5836 14.6293 37.3306L31.2343 27.7446Z" fill="black"/>
<path opacity="0.12" d="M12.2561 37.1295C11.9249 36.6469 11.7783 36.0612 11.8432 35.4795V35.5795C11.8257 35.8825 11.8717 36.1857 11.9783 36.4699C12.0849 36.754 12.2497 37.0128 12.4622 37.2295V37.1295H12.2561Z" fill="black"/>
<path opacity="0.12" d="M37.0094 24.4436L31.2334 27.6436L31.3334 27.7435L36.9034 24.5436C37.2338 24.4106 37.5176 24.1831 37.7193 23.8896C37.921 23.5961 38.0317 23.2496 38.0374 22.8936C38.1434 23.6186 37.6284 24.0316 37.0094 24.4436Z" fill="black"/>
<path opacity="0.25" d="M14.6282 8.76649L37.0092 21.4525C37.7312 21.8655 38.1442 22.3805 38.1442 22.8965C38.1255 22.5436 38.0096 22.2027 37.8093 21.9115C37.609 21.6203 37.3321 21.3902 37.0092 21.2465L14.6282 8.56049C12.9782 7.63249 11.7402 8.35449 11.7402 10.2105V10.3105C11.7402 8.66349 12.9782 7.83849 14.6282 8.76649Z" fill="white"/>
<path d="M47.6328 14.9536V8.0436H49.6958C50.1507 8.01242 50.607 8.07911 51.034 8.23919C51.4609 8.39927 51.8486 8.64902 52.1708 8.97161C52.4974 9.29091 52.7499 9.67813 52.9102 10.1058C53.0706 10.5335 53.135 10.9913 53.0988 11.4466C53.1203 11.9005 53.0491 12.3541 52.8896 12.7796C52.73 13.2051 52.4855 13.5937 52.1708 13.9216C51.8515 14.2482 51.4643 14.5007 51.0366 14.661C50.6089 14.8214 50.1511 14.8858 49.6958 14.8496H47.6328V14.9536ZM48.5608 14.1286H49.7988C50.1424 14.1523 50.487 14.0999 50.808 13.9751C51.129 13.8503 51.4185 13.6562 51.6558 13.4066C52.1217 12.86 52.3775 12.1653 52.3775 11.4471C52.3775 10.7289 52.1217 10.0342 51.6558 9.4876C51.4128 9.2457 51.1224 9.05668 50.8028 8.93243C50.4832 8.80818 50.1414 8.75138 49.7988 8.7656H48.5608V14.1286Z" fill="white" stroke="white" stroke-width="0.2" stroke-miterlimit="10"/>
<path d="M54.543 14.9535V8.04346H55.4709V14.9535H54.543Z" fill="white" stroke="white" stroke-width="0.2" stroke-miterlimit="10"/>
<path d="M58.8749 15.0576C58.3633 15.0662 57.8606 14.9224 57.4309 14.6446C56.9778 14.3164 56.6504 13.8433 56.5029 13.3036L57.3279 12.9946C57.4342 13.3601 57.6502 13.6841 57.9469 13.9226C58.2531 14.1244 58.6118 14.232 58.9785 14.232C59.3452 14.232 59.7038 14.1244 60.0099 13.9226C60.1359 13.8245 60.2382 13.6995 60.3097 13.5568C60.3811 13.414 60.4198 13.2572 60.4229 13.0976C60.4321 12.9213 60.3995 12.7453 60.3277 12.5841C60.2559 12.4228 60.147 12.2808 60.0099 12.1696C59.6314 11.9011 59.2138 11.6923 58.7719 11.5506C58.2742 11.4191 57.8147 11.1717 57.4309 10.8286C57.2897 10.6766 57.1804 10.4979 57.1094 10.3029C57.0385 10.108 57.0074 9.90076 57.0179 9.69356C57.0227 9.45419 57.0807 9.21889 57.1878 9.00475C57.2949 8.7906 57.4483 8.60299 57.6369 8.45556C58.0314 8.08728 58.5422 7.86835 59.0809 7.83656C59.5643 7.79809 60.044 7.94584 60.4219 8.24956C60.7246 8.50527 60.9705 8.82134 61.1439 9.17756L60.1129 9.59056C60.0121 9.36188 59.8724 9.15244 59.7 8.97156C59.4245 8.79573 59.0959 8.72278 58.7719 8.76556C58.4536 8.78466 58.1404 8.85419 57.8439 8.97156C57.7021 9.22295 57.6309 9.50801 57.6379 9.79656C57.6683 10.0622 57.7756 10.3132 57.9469 10.5186C58.2534 10.7352 58.6066 10.8767 58.9779 10.9316C59.259 11.0174 59.5346 11.1206 59.8029 11.2406C60.053 11.3611 60.2942 11.4991 60.5249 11.6536C60.8048 11.8199 61.0222 12.0736 61.1439 12.3756C61.2798 12.6662 61.3502 12.9832 61.3502 13.3041C61.3502 13.6249 61.2798 13.9419 61.1439 14.2326C60.9933 14.4879 60.7803 14.7009 60.5249 14.8516C60.2927 14.9732 60.0513 15.0766 59.8029 15.1606C59.5003 15.0808 59.1877 15.0461 58.8749 15.0576Z" fill="white" stroke="white" stroke-width="0.2" stroke-miterlimit="10"/>
<path d="M63.3098 14.9535H62.3818V8.04345H64.6508C64.922 8.03591 65.1915 8.08735 65.4409 8.19423C65.6902 8.30111 65.9133 8.46086 66.0948 8.66245C66.3104 8.8385 66.4861 9.0582 66.6105 9.30709C66.735 9.55598 66.8053 9.82842 66.8168 10.1065C66.8172 10.3867 66.7522 10.6632 66.6268 10.9139C66.5015 11.1646 66.3193 11.3826 66.0948 11.5505C65.6892 11.9013 65.1846 12.1175 64.6508 12.1694H63.3098V14.9535ZM63.3098 11.3435H64.7538C65.0898 11.3519 65.418 11.2426 65.6818 11.0344C65.8812 10.8059 65.9911 10.5128 65.9911 10.2094C65.9911 9.90611 65.8812 9.61304 65.6818 9.38445C65.418 9.17634 65.0898 9.06702 64.7538 9.07545H63.3098V11.3435Z" fill="white" stroke="white" stroke-width="0.2" stroke-miterlimit="10"/>
<path d="M73.6241 14.0254C73.3106 14.3661 72.927 14.6346 72.4997 14.8126C72.0724 14.9906 71.6116 15.0738 71.1491 15.0564C70.6853 15.0839 70.2214 15.0053 69.7926 14.8266C69.3637 14.648 68.9812 14.374 68.674 14.0254C68.3334 13.712 68.0649 13.3284 67.8869 12.9011C67.7089 12.4738 67.6257 12.013 67.643 11.5504C67.6156 11.0867 67.6942 10.6228 67.8728 10.1939C68.0515 9.76506 68.3255 9.38255 68.674 9.07542C68.9874 8.73461 69.3709 8.46584 69.7982 8.28767C70.2255 8.1095 70.6864 8.02617 71.1491 8.04342C71.6128 8.01599 72.0767 8.09457 72.5056 8.27321C72.9344 8.45186 73.3169 8.72586 73.6241 9.07442C73.9647 9.38785 74.2333 9.77144 74.4113 10.1987C74.5893 10.626 74.6724 11.0869 74.6551 11.5494C74.6827 12.0134 74.6042 12.4775 74.4256 12.9065C74.2469 13.3356 73.9728 13.7182 73.6241 14.0254ZM69.2921 13.5094C69.7874 14.0052 70.4492 14.2992 71.1491 14.3344C71.5016 14.3529 71.8534 14.2877 72.1759 14.1444C72.4985 14.001 72.7825 13.7834 73.005 13.5094C73.5204 12.9855 73.8157 12.2842 73.83 11.5494C73.8594 11.1805 73.7998 10.81 73.6563 10.4689C73.5127 10.1279 73.2894 9.82625 73.005 9.58942C72.51 9.09392 71.8486 8.79992 71.1491 8.76442C70.7964 8.74582 70.4443 8.81087 70.1216 8.95424C69.7989 9.09762 69.5147 9.31526 69.2921 9.58942C68.7767 10.1133 68.4815 10.8147 68.4671 11.5494C68.4612 11.9155 68.5315 12.2787 68.6736 12.6161C68.8156 12.9535 69.0262 13.2577 69.2921 13.5094Z" fill="white" stroke="white" stroke-width="0.2" stroke-miterlimit="10"/>
<path d="M75.8926 14.9535V8.04346H76.9236L80.2236 13.4065V8.04346H81.1516V14.9535H80.2236L76.7166 9.38345V14.9535H75.8926Z" fill="white" stroke="white" stroke-width="0.2" stroke-miterlimit="10"/>
<path d="M82.8027 14.9545V8.04453H83.7307V14.9545H82.8027ZM83.6277 7.52853H82.8027L83.2158 6.29053H84.1437L83.6277 7.52853Z" fill="white" stroke="white" stroke-width="0.2" stroke-miterlimit="10"/>
<path d="M86.9286 14.9535L84.5566 8.04346H85.5876L87.4446 13.6135L89.5076 8.04346H90.5386L88.0637 14.9535H86.9286Z" fill="white" stroke="white" stroke-width="0.2" stroke-miterlimit="10"/>
<path d="M95.3857 8.86845H92.2917V11.0345H95.1797V11.8595H92.2917V14.0255H95.3857V14.9535H91.3638V8.04346H95.3857V8.86845Z" fill="white" stroke="white" stroke-width="0.2" stroke-miterlimit="10"/>
<path d="M96.8296 14.9535V8.04346H97.7576V14.1285H100.749V14.9535H96.8296Z" fill="white" stroke="white" stroke-width="0.2" stroke-miterlimit="10"/>
<path d="M104.153 14.9535V8.04346H105.184L108.484 13.4065V8.04346H109.412V14.9535H108.484L104.977 9.38345V14.9535H104.153Z" fill="white" stroke="white" stroke-width="0.2" stroke-miterlimit="10"/>
<path d="M116.633 14.0254C116.32 14.3661 115.936 14.6346 115.509 14.8126C115.081 14.9906 114.62 15.0738 114.158 15.0564C113.694 15.0839 113.23 15.0053 112.801 14.8266C112.373 14.648 111.99 14.374 111.683 14.0254C111.342 13.712 111.074 13.3284 110.896 12.9011C110.718 12.4738 110.634 12.013 110.652 11.5504C110.624 11.0867 110.703 10.6227 110.882 10.1939C111.06 9.76501 111.334 9.38251 111.683 9.07543C111.996 8.73479 112.38 8.46621 112.807 8.28822C113.235 8.11022 113.695 8.02704 114.158 8.04443C114.622 8.01692 115.086 8.09547 115.514 8.27412C115.943 8.45277 116.326 8.72681 116.633 9.07543C116.974 9.38885 117.242 9.77245 117.42 10.1997C117.598 10.627 117.681 11.0879 117.664 11.5504C117.578 12.4606 117.219 13.3234 116.633 14.0254ZM112.095 13.5094C112.59 14.0049 113.251 14.2989 113.951 14.3344C114.304 14.353 114.656 14.288 114.978 14.1446C115.301 14.0012 115.585 13.7836 115.808 13.5094C116.323 12.9856 116.619 12.2842 116.633 11.5494C116.662 11.1805 116.603 10.81 116.459 10.469C116.316 10.1279 116.092 9.82626 115.808 9.58943C115.312 9.09378 114.651 8.79977 113.951 8.76443C113.598 8.74591 113.246 8.81099 112.924 8.95436C112.601 9.09774 112.317 9.31535 112.095 9.58943C111.613 10.1265 111.354 10.8278 111.373 11.5494C111.421 12.2583 111.672 12.9385 112.095 13.5094Z" fill="white" stroke="white" stroke-width="0.2" stroke-miterlimit="10"/>
<defs>
<linearGradient id="paint0_linear_322_674" x1="-15.1873" y1="61.0862" x2="-15.3976" y2="61.1409" gradientUnits="userSpaceOnUse">
<stop stop-color="#00A0FF"/>
<stop offset="0.007" stop-color="#00A1FF"/>
<stop offset="0.26" stop-color="#00BEFF"/>
<stop offset="0.512" stop-color="#00D2FF"/>
<stop offset="0.76" stop-color="#00DFFF"/>
<stop offset="1" stop-color="#00E3FF"/>
</linearGradient>
<linearGradient id="paint1_linear_322_674" x1="-15.0215" y1="61.2236" x2="-15.2661" y2="61.2236" gradientUnits="userSpaceOnUse">
<stop stop-color="#FFE000"/>
<stop offset="0.409" stop-color="#FFBD00"/>
<stop offset="0.775" stop-color="#FFA500"/>
<stop offset="1" stop-color="#FF9C00"/>
</linearGradient>
<linearGradient id="paint2_linear_322_674" x1="-15.1263" y1="61.2334" x2="-15.2869" y2="61.5107" gradientUnits="userSpaceOnUse">
<stop stop-color="#FF3A44"/>
<stop offset="1" stop-color="#C31162"/>
</linearGradient>
<linearGradient id="paint3_linear_322_674" x1="-15.2942" y1="61.0337" x2="-15.2284" y2="61.1531" gradientUnits="userSpaceOnUse">
<stop stop-color="#32A071"/>
<stop offset="0.068" stop-color="#2DA771"/>
<stop offset="0.476" stop-color="#15CF74"/>
<stop offset="0.801" stop-color="#06E775"/>
<stop offset="1" stop-color="#00F076"/>
</linearGradient>
</defs>
</svg>
