<svg width="448" height="448" viewBox="0 0 448 448" fill="none" xmlns="http://www.w3.org/2000/svg">
<path d="M224 56.0004C131.367 56.0004 56.001 131.366 56.001 224C56.001 252.925 63.4733 281.368 77.6436 306.465L56.2713 382.722C55.5701 385.228 56.2495 387.916 58.061 389.779C59.4562 391.218 61.3551 391.999 63.3056 391.999C63.8898 391.999 64.4815 391.926 65.0586 391.787L144.646 372.073C168.948 385.118 196.317 391.999 224.001 391.999C316.634 391.999 392 316.633 392 223.999C392 131.366 316.634 56 224.001 56L224 56.0004ZM308.511 283.282C304.918 293.23 287.679 302.309 279.396 303.529C271.961 304.618 262.553 305.085 252.224 301.842C245.965 299.87 237.93 297.255 227.638 292.865C184.374 274.414 156.121 231.399 153.959 228.558C151.804 225.716 136.348 205.469 136.348 184.513C136.348 163.557 147.488 153.251 151.446 148.985C155.405 144.719 160.073 143.653 162.951 143.653C165.829 143.653 168.699 143.689 171.219 143.806C173.87 143.938 177.428 142.805 180.927 151.117C184.52 159.649 193.147 180.605 194.213 182.745C195.294 184.878 196.01 187.369 194.578 190.21C193.147 193.052 192.431 194.826 190.269 197.317C188.107 199.808 185.74 202.869 183.797 204.782C181.635 206.908 179.393 209.209 181.906 213.474C184.418 217.74 193.074 231.684 205.9 242.977C222.371 257.483 236.272 261.983 240.581 264.115C244.891 266.248 247.411 265.89 249.924 263.049C252.436 260.2 260.705 250.61 263.575 246.351C266.446 242.093 269.324 242.794 273.283 244.219C277.242 245.636 298.446 255.935 302.756 258.068C307.065 260.2 309.943 261.267 311.024 263.042C312.105 264.809 312.105 273.341 308.511 283.282V283.282Z" fill="#757575"/>
</svg>
