<svg width="60" height="71" viewBox="0 0 60 71" fill="none" xmlns="http://www.w3.org/2000/svg">
<path d="M29.8248 0.316397C38.9829 0.300497 48.0408 2.22276 56.4031 5.95685C58.0381 12.2994 59.0006 18.7965 59.2746 25.3406V25.6066C59.2853 30.3194 58.5938 35.0074 57.2228 39.5164C55.883 43.8901 53.8901 48.0362 51.3117 51.8146C48.6971 55.6236 45.5611 59.047 41.9955 61.9848C38.2966 65.0936 34.2013 67.6976 29.817 69.7284C25.4336 67.6961 21.3385 65.0923 17.6386 61.9848C14.073 59.047 10.937 55.6236 8.32239 51.8146C5.74401 48.0362 3.75115 43.8901 2.41128 39.5164C1.0403 35.0074 0.348781 30.3194 0.359498 25.6066V25.3406C0.633503 18.7965 1.59601 12.2994 3.23107 5.95685C11.5941 2.22166 20.6532 0.299353 29.8124 0.316397" fill="white"/>
<path d="M29.8203 27.6662C31.7925 27.6614 33.733 28.1627 35.4561 29.1222H52.6154C52.6512 27.9244 52.6279 26.5742 52.603 25.3002C52.1778 18.4604 51.1307 11.6735 49.4748 5.02352C43.1293 2.956 36.4972 1.9029 29.8234 1.90308" fill="#BB002A"/>
<path d="M29.8262 1.92479C23.1566 1.90673 16.5268 2.95115 10.1858 5.01879C8.66387 11.2209 7.63196 17.5331 7.09954 23.897C6.74986 28.9085 7.19772 33.9437 8.42642 38.8148C9.09383 41.4355 9.99339 43.9915 11.1144 46.4526C12.4314 45.7554 13.6899 44.9527 14.8773 44.0523C16.1774 43.0415 17.3422 41.8678 18.3431 40.5601C18.2906 40.1161 18.2647 39.6694 18.2653 39.2223C18.2639 38.5396 18.3237 37.8581 18.4442 37.1861C16.072 37.2701 14.7218 37.2966 13.664 37.2966C12.9966 37.2617 12.3545 37.0296 11.819 36.6298C11.2835 36.23 10.8786 35.6803 10.6555 35.0503H10.0613C9.60864 35.0503 8.84175 34.6646 8.84175 33.2163C8.84175 31.7681 9.60864 31.3886 10.0613 31.3886H10.6555C10.8774 30.7571 11.2817 30.2058 11.8173 29.8045C12.3529 29.4033 12.9957 29.1701 13.664 29.1346H24.1826C25.904 28.1676 27.8457 27.6613 29.82 27.6646" fill="#D90016"/>
<path d="M19.3724 59.7323C16.2086 56.5858 13.5024 53.0104 11.3333 49.111C9.19132 45.2029 7.64811 40.9954 6.75524 36.6292C5.82356 32.143 5.5168 27.5495 5.84369 22.9792C6.39433 17.0885 7.37172 11.2456 8.76814 5.49634C7.37748 5.98634 5.99303 6.52611 4.63036 7.11411C3.14565 13.082 2.26492 19.184 2.00147 25.3281C1.96441 29.9646 2.62996 34.5799 3.97546 39.017C5.24481 43.2423 7.16683 47.2433 9.67191 50.875C12.1997 54.5584 15.2321 57.8688 18.6801 60.7092C22.1019 63.5224 25.8391 65.9284 29.8163 67.8788C29.8163 67.8788 29.8163 67.871 29.8163 67.8788C26.0324 65.5764 22.5273 62.8444 19.3708 59.737" fill="#002A5F"/>
<path d="M40.2616 59.7339C43.4235 56.5892 46.1295 53.0172 48.3007 49.1219C50.4417 45.2104 51.9873 41.0014 52.8865 36.6339C53.8156 32.1474 54.1197 27.5538 53.7902 22.9839C53.2372 17.0903 52.2593 11.2444 50.8642 5.4917C52.2549 5.9817 53.6394 6.52771 55.0098 7.11571C56.4955 13.0832 57.3742 19.1855 57.6325 25.3297C57.6725 29.9664 57.0069 34.5822 55.6585 39.0186C54.3684 43.2359 52.4479 47.2337 49.962 50.8766C47.435 54.5624 44.4026 57.8749 40.9538 60.717C37.5318 63.5237 33.7964 65.9249 29.8223 67.8726C33.6052 65.5709 37.1088 62.8387 40.2631 59.7308" fill="#002A5F"/>
<path d="M29.8119 28.2479C26.8995 28.2455 24.1054 29.3999 22.0441 31.4574C19.9828 33.5149 18.8232 36.3069 18.8203 39.2193C18.8174 42.1317 19.9715 44.926 22.0287 46.9875C24.0859 49.0491 26.8777 50.2091 29.7901 50.2124C32.7025 50.2149 35.4966 49.0604 37.5579 47.0029C39.6192 44.9454 40.7788 42.1534 40.7817 39.241V39.2224C40.7817 36.3126 39.6261 33.5219 37.569 31.4639C35.5119 29.406 32.7217 28.2492 29.8119 28.2479" fill="#A2884F"/>
<path d="M29.82 50.7724C28.0488 50.7738 26.3011 50.3677 24.712 49.5854C23.123 48.8032 21.7352 47.6658 20.6562 46.2612C18.162 47.6867 15.5202 48.8368 12.7773 49.6912C14.8684 53.361 17.4378 56.7365 20.4182 59.7292C23.2732 62.5812 26.4244 65.1203 29.8184 67.3032" fill="#D90016"/>
<path d="M13.6607 36.7163C13.0433 36.6698 12.4571 36.4265 11.9881 36.0222C11.5191 35.6179 11.1922 35.0739 11.0552 34.4701H10.0565C9.80139 34.4701 9.41406 34.159 9.41406 33.2179C9.41406 32.2768 9.79983 31.9579 10.0565 31.9579H11.0552C11.1907 31.3526 11.517 30.8069 11.9861 30.4011C12.4552 29.9953 13.0423 29.7509 13.6607 29.7039H23.257C20.8901 31.3404 19.2158 33.798 18.5592 36.5996C16.4374 36.6774 14.8009 36.721 13.6607 36.721" fill="#A2884F"/>
<path d="M49.9577 50.8595C47.4287 54.5442 44.3966 57.857 40.9495 60.7015C37.5265 63.5091 33.7894 65.9103 29.8133 67.8571C25.8363 65.9117 22.0991 63.5104 18.677 60.7015C15.228 57.8577 12.1942 54.5449 9.66416 50.8595C9.47283 50.5811 9.28304 50.2855 9.09326 49.9993C13.0441 49.244 16.8367 47.8188 20.3073 45.7853C19.3735 44.4469 18.737 42.9241 18.4406 41.3193C17.4897 42.5168 16.3958 43.5935 15.1833 44.5253C13.0456 46.1885 10.6435 47.4805 8.07749 48.3473C6.35051 45.407 4.97379 42.2745 3.97547 39.014C2.63058 34.5767 1.96504 29.9615 2.00148 25.3251C2.26368 19.1808 3.14443 13.0787 4.63037 7.11106C12.5852 3.68449 21.1557 1.91712 29.8171 1.91712C38.4786 1.91712 47.0491 3.68449 55.0039 7.11106C56.4892 13.0788 57.3699 19.1809 57.6328 25.3251C57.6328 26.7951 57.5799 28.2573 57.4539 29.7008H36.3497C37.671 30.6115 38.7885 31.787 39.631 33.1528C40.4735 34.5186 41.0226 36.0447 41.2435 37.6342L45.2693 36.6759C45.611 36.6202 45.9266 36.4583 46.1712 36.2132C46.4158 35.968 46.577 35.6521 46.6319 35.3102L56.7508 34.632C56.4623 36.1081 56.0989 37.5686 55.6619 39.0077C54.3695 43.2217 52.4491 47.2166 49.9655 50.858L49.9577 50.8595ZM56.6373 5.71883C48.1999 1.94867 39.0624 0 29.821 0C20.5797 0 11.4422 1.94867 3.00482 5.71883C1.33774 12.1249 0.36099 18.6909 0.0912606 25.3048C0.0541048 30.1342 0.747957 34.9413 2.14926 39.5631C3.49808 43.9617 5.50239 48.1318 8.0946 51.9328C10.7236 55.766 13.878 59.211 17.4653 62.1668C21.2157 65.3188 25.3706 67.9555 29.8195 70.0068C34.2686 67.9575 38.4239 65.323 42.1753 62.1731C45.7614 59.2207 48.9152 55.7794 51.5444 51.9499C54.1366 48.1489 56.1409 43.9788 57.4897 39.5802C58.891 34.9585 59.5849 30.1513 59.5477 25.322C59.2789 18.7076 58.3032 12.1411 56.6373 5.7344V5.71883Z" fill="#A2884F"/>
<path d="M30.5387 42.2542V48.1653C31.8637 48.0562 33.148 47.6549 34.2995 46.9903C35.4509 46.3257 36.4408 45.4143 37.198 44.3215L32.0787 41.366C31.6631 41.8069 31.127 42.1158 30.5371 42.2542" fill="white"/>
<path d="M29.0913 30.2655C27.7645 30.3707 26.4778 30.7703 25.3248 31.4352C24.1718 32.1001 23.1814 33.0136 22.4258 34.1093L27.5389 37.0648C27.956 36.6172 28.4979 36.3051 29.0945 36.1688" fill="white"/>
<path d="M29.8085 37.6201C29.3855 37.6218 28.9805 37.7913 28.6824 38.0914C28.3843 38.3916 28.2175 38.7978 28.2188 39.2208C28.2194 39.4304 28.2613 39.6378 28.342 39.8312C28.4228 40.0246 28.5409 40.2002 28.6895 40.348C28.8381 40.4957 29.0144 40.6128 29.2083 40.6924C29.4022 40.7721 29.6098 40.8127 29.8194 40.8121C30.2418 40.8109 30.6463 40.6421 30.9444 40.3429C31.2424 40.0437 31.4096 39.6385 31.4092 39.2161C31.4092 38.7931 31.2413 38.3874 30.9423 38.0881C30.6433 37.7889 30.2378 37.6205 29.8148 37.6201V37.6201" fill="white"/>
<path d="M30.5391 30.2655V36.1672C31.1358 36.3029 31.6778 36.6152 32.0946 37.0633L37.2031 34.1077C36.448 33.0129 35.4586 32.0999 34.3068 31.435C33.1549 30.7702 31.8695 30.3701 30.5437 30.2639" fill="white"/>
<path d="M29.0902 42.2526C28.6094 42.1409 28.1627 41.9146 27.7882 41.593C27.7026 41.5219 27.6221 41.445 27.5471 41.3628L22.4277 44.3183C22.5397 44.4879 22.6688 44.6544 22.7964 44.8161C23.5607 45.7742 24.5132 46.5655 25.5951 47.1413C26.677 47.717 27.8655 48.065 29.0871 48.1637" fill="white"/>
<path d="M32.8105 40.1137L37.9299 43.0693C38.4968 41.8664 38.7907 40.553 38.7907 39.2232C38.7907 37.8934 38.4968 36.58 37.9299 35.3771L32.8168 38.3326C32.9895 38.9154 32.9895 39.5357 32.8168 40.1184" fill="white"/>
<path d="M23.2754 33.9522L27.4489 36.3524C27.7657 36.086 28.1255 35.8756 28.513 35.7302V30.908C26.4478 31.2224 24.5774 32.3046 23.2754 33.9382" fill="#A2884F"/>
<path d="M31.123 30.9281V35.7503C31.5063 35.8846 31.8624 36.0864 32.1746 36.3461L36.3544 33.9459C35.0585 32.3117 33.1903 31.2308 31.1277 30.9219" fill="#A2884F"/>
<path d="M38.1813 38.3466C38.1026 37.6104 37.9263 36.888 37.6571 36.1984L33.4648 38.6064C33.5011 38.8055 33.5193 39.0075 33.5193 39.2099V39.451C34.7015 39.129 35.9444 38.8288 37.2122 38.555C37.5233 38.4928 37.8437 38.4228 38.1891 38.3435" fill="#A2884F"/>
<path d="M29.8203 67.2985C33.2172 65.1119 36.3724 62.5709 39.233 59.7183C42.3875 56.5512 45.0797 52.9552 47.2301 49.0363C49.3538 45.1082 50.879 40.885 51.7552 36.5063C51.8221 36.1703 51.8874 35.8483 51.9465 35.5186L47.0823 35.8623C46.9466 36.2131 46.7235 36.5233 46.434 36.7635C46.1446 37.0036 45.7985 37.1657 45.4287 37.2343V37.2343C45.3992 37.2343 43.6181 37.6823 41.3143 38.2143C41.3439 38.5441 41.361 38.8801 41.361 39.2145C41.3624 40.7309 41.0652 42.2327 40.4862 43.6342C39.9072 45.0357 39.0579 46.3094 37.9867 47.3826C36.9155 48.4559 35.6433 49.3076 34.2429 49.8892C32.8426 50.4708 31.3413 50.7709 29.825 50.7723V50.7723" fill="#BB002A"/>
<path d="M30.8389 39.2178C30.8377 38.9458 30.7285 38.6854 30.5354 38.4937C30.3424 38.3021 30.0811 38.195 29.8091 38.1958C29.5371 38.197 29.2767 38.3062 29.085 38.4992C28.8934 38.6923 28.7863 38.9535 28.7871 39.2256C28.7883 39.4962 28.8964 39.7555 29.0878 39.9469C29.2792 40.1383 29.5384 40.2464 29.8091 40.2476C29.9441 40.2478 30.0779 40.2214 30.2027 40.1699C30.3275 40.1184 30.441 40.0428 30.5366 39.9475C30.6322 39.8522 30.7082 39.7389 30.76 39.6143C30.8119 39.4896 30.8387 39.3559 30.8389 39.2209V39.2209" fill="#A2884F"/>
<path d="M31.1164 47.5104C33.1804 47.2012 35.0513 46.1232 36.3539 44.4926L32.1539 42.0784C31.8434 42.3366 31.4916 42.5407 31.1133 42.6819V47.5042" fill="#BB002A"/>
<path d="M23.2812 44.4942L27.461 42.0721C27.7745 42.3328 28.1308 42.537 28.5141 42.6757V47.5135C26.4521 47.2072 24.5837 46.1284 23.2875 44.4957" fill="#D90016"/>
<path d="M38.2189 39.2225V38.8865C37.9078 38.9487 37.5966 39.0187 37.3151 39.0747C36.0364 39.3485 34.7998 39.6549 33.6953 39.9567L37.648 42.2496C38.0279 41.289 38.2216 40.2648 38.2189 39.2318" fill="#BB002A"/>
<path d="M21.691 35.3755C21.1225 36.5799 20.8291 37.8956 20.8321 39.2274C20.835 40.5592 21.1343 41.8737 21.7081 43.0755L26.8103 40.1075C26.6378 39.5221 26.6378 38.8993 26.8103 38.3139" fill="white"/>
<path d="M21.9892 42.2541L26.1519 39.8399C26.0806 39.4323 26.0806 39.0154 26.1519 38.6079L21.9721 36.2139C21.2144 38.1598 21.2205 40.3203 21.9892 42.2619" fill="#A2884F"/>
<path d="M44.0928 19.7483C44.016 19.7608 43.9375 19.7579 43.8618 19.7399C43.7861 19.7219 43.7147 19.6891 43.6516 19.6434C43.5886 19.5977 43.5352 19.5401 43.4946 19.4737C43.4539 19.4074 43.4267 19.3336 43.4146 19.2568C43.4092 19.2108 43.4092 19.1643 43.4146 19.1183C43.4146 18.8383 43.5095 18.4106 44.3899 18.1726L44.4382 18.7761L44.4568 19.0499C44.4693 19.2459 44.4817 19.4201 44.5035 19.6177C44.384 19.6982 44.2446 19.744 44.1006 19.7499L44.0928 19.7483ZM33.2724 18.8399C33.0483 19.0922 32.776 19.2969 32.4713 19.442C32.1667 19.5871 31.8361 19.6696 31.4991 19.6846C31.25 19.6691 31.0106 19.5825 30.8093 19.4349C30.608 19.2874 30.4533 19.0852 30.3635 18.8523C30.9857 18.6221 33.319 17.7401 33.9957 17.4865C33.9957 17.9765 34.0144 18.6346 34.0144 18.6346C34.0268 19.0266 34.0331 19.4045 34.0268 19.7763V19.7857L33.2724 18.8399ZM29.9668 16.8721V16.8519C29.9668 15.8859 30.3293 15.5079 30.6684 15.4737C30.768 15.4737 31.0371 15.4394 31.1615 15.8937C31.2022 16.0255 31.2262 16.1619 31.233 16.2997C31.233 16.5657 31.0899 16.6108 30.9219 16.6714L29.9777 17.0339C29.9694 16.9777 29.9648 16.9211 29.9637 16.8643L29.9668 16.8721ZM12.2055 17.5799C12.3719 17.1132 12.5026 16.7352 12.7826 15.9279C12.9491 16.7337 13.0377 17.1537 13.1202 17.5519C12.7686 17.5643 12.6084 17.5643 12.204 17.5768L12.2055 17.5799ZM34.0035 20.4219C33.9911 20.6459 33.932 21.4019 33.9148 21.629H37.2375C37.0551 20.6235 36.9536 19.605 36.9342 18.5832C36.9342 18.591 36.8797 16.6652 36.8797 16.6652C36.8746 16.5849 36.8857 16.5044 36.9124 16.4284C36.9391 16.3525 36.9809 16.2828 37.0353 16.2234C37.0813 16.1734 37.1374 16.1337 37.1999 16.1069C37.2623 16.0801 37.3298 16.0668 37.3977 16.0679C37.5533 16.0679 37.8146 16.0679 37.8317 16.5999L37.9095 18.6439C37.9627 19.641 37.9366 20.6407 37.8317 21.6337H41.0735C41.0191 21.3521 40.9304 20.6879 40.9071 20.4997C41.1391 20.9363 41.4959 21.2939 41.932 21.5268C42.368 21.7598 42.8636 21.8577 43.3555 21.8079C43.9332 21.7998 44.4965 21.6272 44.9795 21.3101C44.9919 21.3397 45.1459 21.6337 45.1459 21.6337H51.1348C50.8759 20.6226 50.697 19.5928 50.5997 18.5537L49.7784 11.8477L46.6922 11.3437C46.949 12.346 47.13 13.3662 47.2335 14.3957L47.7002 18.6797C47.7984 19.4974 47.8503 20.32 47.8557 21.1437V21.2479L47.7344 20.9368C47.48 20.2139 47.3379 19.4564 47.3128 18.6906C47.3128 18.6906 47.1822 17.3185 47.1822 17.3185C47.0266 15.1408 45.8195 14.1483 43.2217 14.1483C42.473 14.166 41.7285 14.2667 41.002 14.4485L41.1808 16.9265L41.8715 16.4988C42.3253 16.19 42.8581 16.0177 43.4068 16.0026C43.5694 15.9848 43.7335 16.0175 43.8768 16.0963C44.0202 16.175 44.1358 16.296 44.2079 16.4428C43.6337 16.531 43.0739 16.6958 42.5435 16.9328C42.1464 17.0786 41.7844 17.3063 41.4811 17.6011C41.1777 17.8958 40.9397 18.2511 40.7826 18.6439V18.5817L40.6753 16.3137C40.6912 16.0159 40.6483 15.7179 40.5491 15.4367C40.4498 15.1556 40.2961 14.8967 40.0967 14.6749C39.8974 14.4532 39.6563 14.2729 39.3872 14.1444C39.1181 14.0158 38.8264 13.9416 38.5286 13.9259C38.4493 13.9259 38.3731 13.9259 38.2906 13.9259C37.6663 13.9161 37.0554 14.1075 36.5484 14.4719C36.5229 14.3901 36.4933 14.3096 36.4597 14.2308L36.3275 13.9648L33.6644 13.8434C33.8185 14.614 33.9256 15.3932 33.9848 16.1768C33.8451 15.3786 33.4048 14.6644 32.7544 14.181C32.1702 13.7932 31.4815 13.5929 30.7804 13.607C29.7796 13.6095 28.8203 14.007 28.1111 14.713C27.4124 15.4534 27.0229 16.4327 27.0222 17.4508C26.7377 17.153 26.3966 16.915 26.0188 16.7508L24.7946 16.1612L24.7355 16.1332C24.4446 15.9932 24.4322 15.9512 24.4368 15.8672C24.4493 15.7459 24.7293 15.6074 25.1337 15.6074C25.7843 15.6583 26.4109 15.8752 26.9537 16.2374L27.0004 14.0472C26.3961 13.7903 25.7435 13.6667 25.0871 13.6848C24.3635 13.6743 23.6486 13.8426 23.0057 14.1748V14.1748C22.8062 14.2883 22.6191 14.4223 22.4473 14.5746L22.4815 13.9306C22.0503 13.8488 21.6056 13.8757 21.1874 14.0088C20.7691 14.1419 20.3906 14.3769 20.0859 14.6928C20.0516 14.5132 20.0074 14.3356 19.9537 14.1608L17.0759 14.3366C17.28 15.3166 17.3403 16.3211 17.2548 17.3185L17.202 18.4168V18.5381C17.1724 19.1121 17.1351 19.6923 17.0806 20.2492C16.8395 19.5088 16.5813 18.493 16.3791 17.6452L14.9573 11.2488L10.9035 11.8228C10.9608 11.9836 11.0014 12.1499 11.0248 12.319C11.0496 12.9865 10.9258 13.6512 10.6624 14.265C10.0137 16.1628 9.07573 18.9628 8.17351 20.8948C8.05218 21.167 7.83594 21.6088 7.83594 21.6088H11C11.0849 20.9604 11.236 20.3224 11.4511 19.7048C11.8851 19.6908 13.0331 19.6628 13.5635 19.6488C13.6804 20.14 13.7656 20.6383 13.8186 21.1405L13.8544 21.6072H20.2104C20.1008 20.5581 20.0847 19.5014 20.1622 18.4494C20.1335 17.7827 20.348 17.1281 20.7657 16.6077C20.8767 16.4906 21.01 16.3968 21.1577 16.3319C21.3054 16.267 21.4646 16.2322 21.6259 16.2297C21.6189 16.6859 21.7548 17.1329 22.0145 17.5081C22.2742 17.8832 22.6447 18.1678 23.0742 18.3219L24.3186 18.9597C24.7651 19.1914 24.7588 19.3097 24.7526 19.3937C24.7339 19.6348 24.3715 19.7234 24.0448 19.7157C23.0355 19.5485 22.1241 19.0124 21.4875 18.2114L21.4346 21.0394C22.2526 21.4688 23.1664 21.6829 24.0899 21.6617C24.7929 21.7286 25.4992 21.5744 26.1102 21.2205C26.7212 20.8666 27.2065 20.3307 27.4982 19.6877C27.7819 20.1532 28.1546 20.5583 28.5949 20.8798C29.0353 21.2013 29.5347 21.4329 30.0645 21.5613C30.5944 21.6897 31.1444 21.7125 31.6831 21.6283C32.2217 21.5441 32.7386 21.3546 33.204 21.0706C33.5053 20.8868 33.7819 20.6651 34.0268 20.411L34.0035 20.4219Z" fill="#A2884F"/>
<path d="M26.4905 14.3942C26.0332 14.2481 25.5548 14.1798 25.0749 14.1919C24.4369 14.1834 23.8064 14.3302 23.2378 14.6197C22.9355 14.7698 22.6743 14.991 22.4765 15.2644C22.2786 15.5378 22.1502 15.8552 22.1022 16.1893C22.0775 16.5636 22.1788 16.9355 22.3899 17.2456C22.6011 17.5557 22.91 17.7862 23.2674 17.9004C23.7496 18.1415 24.2256 18.3826 24.5118 18.5366C24.91 18.7388 25.2491 18.9924 25.2133 19.4544C25.1776 19.9164 24.7467 20.2321 24.0187 20.2321C23.2415 20.1733 22.5065 19.8557 21.9311 19.3299L21.9062 20.7595C22.5819 21.0494 23.3116 21.192 24.0467 21.1779C25.3907 21.1779 27.0427 20.5557 27.0738 19.0002C27.074 18.6047 26.951 18.219 26.7218 17.8967C26.4926 17.5745 26.1687 17.3316 25.7951 17.2019C25.3129 16.9779 24.8027 16.7353 24.5647 16.6139C24.3267 16.4926 23.8803 16.3339 23.9223 15.8362C23.9643 15.3384 24.5118 15.1222 25.106 15.1222C25.5808 15.1241 26.0479 15.2416 26.4671 15.4644" fill="white"/>
<path d="M11.4825 18.1042L12.8825 14.0598L13.7147 18.0202L11.4825 18.1042ZM14.5469 11.812L11.4778 12.2522C11.5162 12.9969 11.3887 13.7407 11.1045 14.43C10.462 16.3122 9.42134 19.3378 8.60156 21.1189H10.532C10.647 20.4708 10.8241 19.8353 11.0609 19.2211L13.9262 19.1433C14.0819 19.7945 14.2029 20.4534 14.2887 21.1174H16.846C16.4453 20.0181 16.1194 18.8929 15.8707 17.7496L14.5469 11.812Z" fill="white"/>
<path d="M21.9421 14.4128L21.8767 15.7708C21.6046 15.7337 21.3275 15.7605 21.0675 15.8491C20.8075 15.9376 20.5717 16.0855 20.3787 16.2811C19.8766 16.8848 19.6142 17.6522 19.6414 18.4371C19.5751 19.3338 19.571 20.234 19.629 21.1313H17.4512C17.5792 20.2449 17.6596 19.3523 17.6923 18.4573L17.7467 17.3575C17.813 16.5072 17.7848 15.6521 17.6627 14.8079L19.5714 14.6866C19.6722 15.089 19.7105 15.5046 19.685 15.9186C20.5234 14.6586 21.3385 14.3786 21.9499 14.4082" fill="white"/>
<path d="M49.324 12.2646L47.3438 11.9535C47.5193 12.7353 47.644 13.5278 47.7171 14.3257L48.1837 18.6097C48.2892 19.4456 48.3412 20.2873 48.3393 21.1297H50.4798C50.3018 20.298 50.1729 19.4566 50.094 18.6097" fill="white"/>
<path d="M40.4753 21.1282C40.3539 20.2933 40.2848 19.4517 40.2684 18.6082L40.1626 16.3402C40.18 16.1058 40.151 15.8702 40.0773 15.647C40.0036 15.4238 39.8866 15.2173 39.7331 15.0393C39.5795 14.8613 39.3923 14.7153 39.1823 14.6097C38.9723 14.5041 38.7435 14.4409 38.5091 14.4238C38.4257 14.4177 38.342 14.4177 38.2586 14.4238C37.8627 14.4191 37.4714 14.5094 37.1176 14.6872C36.7639 14.8651 36.4579 15.1252 36.2255 15.4458C36.1845 15.1036 36.1036 14.7674 35.9844 14.444L34.2422 14.3662C34.3808 15.2183 34.4588 16.0791 34.4755 16.9422L34.5004 18.6082C34.533 19.4485 34.5148 20.2901 34.446 21.1282H36.6331C36.5165 20.2928 36.4474 19.4515 36.4262 18.6082L36.3717 16.6824C36.3512 16.4064 36.4411 16.1336 36.6216 15.9238C36.8022 15.7141 37.0586 15.5847 37.3346 15.564H37.3828C37.9957 15.55 38.2929 15.956 38.3162 16.572L38.3877 18.6098C38.4322 19.4494 38.426 20.2909 38.3691 21.1298" fill="white"/>
<path d="M44.0846 20.2385C43.9497 20.2569 43.8126 20.2484 43.681 20.2137C43.5494 20.179 43.4259 20.1187 43.3177 20.0362C43.2094 19.9537 43.1186 19.8506 43.0502 19.7329C42.9819 19.6152 42.9375 19.4851 42.9195 19.3502C42.9135 19.2845 42.9135 19.2184 42.9195 19.1527C42.8961 18.4387 43.3861 17.8087 44.8499 17.5707L44.9339 18.7389C44.9635 19.1371 44.9759 19.4249 45.0288 19.8107C44.911 19.9428 44.7675 20.0494 44.607 20.1241C44.4465 20.1987 44.2724 20.2398 44.0955 20.2447L44.0846 20.2385ZM47.2641 21.1345C46.9949 20.3633 46.8408 19.5566 46.8068 18.7405L46.6855 17.3685C46.5641 15.7507 45.8828 14.6462 43.2072 14.6462C42.6389 14.6535 42.0728 14.7191 41.5179 14.8423L41.6128 16.0867C42.1408 15.7259 42.7623 15.5264 43.4017 15.5127C43.5656 15.4941 43.7316 15.508 43.8902 15.5536C44.0488 15.5992 44.1968 15.6756 44.3259 15.7785C44.4549 15.8813 44.5624 16.0086 44.6421 16.1531C44.7219 16.2975 44.7724 16.4563 44.7908 16.6202C44.7992 16.7035 44.7992 16.7874 44.7908 16.8707C44.0789 16.9297 43.3818 17.1068 42.7281 17.3949C42.271 17.5366 41.8713 17.821 41.5877 18.2066C41.3041 18.5921 41.1515 19.0583 41.1523 19.5369C41.241 20.7813 42.1743 21.3149 43.3519 21.3149C43.6974 21.3106 44.0386 21.2371 44.3552 21.0987C44.6718 20.9603 44.9574 20.7598 45.1952 20.5091C45.2524 20.7248 45.3332 20.9335 45.4363 21.1314L47.2641 21.1345Z" fill="white"/>
<path d="M31.0874 17.1366L29.5194 17.7401C29.4759 17.4523 29.4541 17.1617 29.4541 16.8706C29.4541 15.2466 30.3236 15.0039 30.6083 14.9728C30.8455 14.9489 31.0829 15.0159 31.2726 15.1603C31.4623 15.3047 31.5901 15.5156 31.6303 15.7506C31.803 16.3884 31.7625 16.8846 31.0843 17.1288L31.0874 17.1366ZM32.4454 14.5948C31.9456 14.2627 31.356 14.0917 30.7561 14.1048C29.8858 14.1061 29.0517 14.4528 28.4371 15.0689C27.8225 15.685 27.4777 16.5199 27.4785 17.3902C27.4787 17.5066 27.4849 17.6229 27.4972 17.7386C27.5236 18.6798 27.9227 19.5719 28.6068 20.2189C29.2908 20.8659 30.2038 21.2148 31.145 21.1888C32.0812 21.1625 32.9691 20.7672 33.6152 20.089L33.1765 19.5368C32.7107 19.9493 32.1093 20.1758 31.4872 20.173C31.0539 20.1353 30.6449 19.9566 30.3227 19.6645C30.0005 19.3724 29.7829 18.9828 29.703 18.5553L33.6401 17.0775C33.6428 16.6001 33.5377 16.1283 33.3324 15.6973C33.1271 15.2663 32.8271 14.8873 32.4547 14.5886L32.4454 14.5948Z" fill="white"/>
</svg>
