<svg width="69" height="72" viewBox="0 0 69 72" fill="none" xmlns="http://www.w3.org/2000/svg">
<path fill-rule="evenodd" clip-rule="evenodd" d="M4.8765 38.785H63.8567C65.4051 55.1036 55.0388 63.9215 39.2732 64.7862L29.2589 64.8163C14.1669 63.7204 2.92591 55.7572 4.8765 38.785Z" fill="#00529F"/>
<path d="M38.6483 38.9762H30.293V65.0578H38.6483V38.9762Z" fill="#A2214B"/>
<path d="M22.0253 38.9762H13.6699V62.2827H22.0253V38.9762Z" fill="#A2214B"/>
<path d="M22.0255 61.0863H16.5859V63.4894H22.0255V61.0863Z" fill="#A2214B"/>
<path d="M55.1854 38.9762H46.8301V62.2827H55.1854V38.9762Z" fill="#A2214B"/>
<path d="M52.2696 61.0862H46.8301V63.4892H52.2696V61.0862Z" fill="#A2214B"/>
<path fill-rule="evenodd" clip-rule="evenodd" d="M34.2046 6.79136V29.9571L6.05177 30.1582L8.95754 19.0077L5.33789 5.66525L23.1546 3.3728L34.2046 6.79136Z" fill="white"/>
<path fill-rule="evenodd" clip-rule="evenodd" d="M34.6074 6.79136V29.9571L62.7603 30.1582L59.8545 19.0077L63.4641 5.66525L45.6474 3.3728L34.6074 6.79136Z" fill="#FFDF1A"/>
<path d="M26.0094 4.03638H17.9355V29.8063H26.0094V4.03638Z" fill="#E1393D"/>
<path d="M34.2042 13.6487H9.08789V21.7225H34.2042V13.6487Z" fill="#E1393D"/>
<path d="M40.1229 5.86646H37.1367V29.6455H40.1229V5.86646Z" fill="#E1393D"/>
<path d="M45.7929 4.15723H42.8066V29.6959H45.7929V4.15723Z" fill="#E1393D"/>
<path d="M51.494 5.6051H48.5078V29.7562H51.494V5.6051Z" fill="#E1393D"/>
<path d="M57.1444 6.48987H54.1582V29.7361H57.1444V6.48987Z" fill="#E1393D"/>
<path fill-rule="evenodd" clip-rule="evenodd" d="M23.2555 1C18.0572 4.81069 9.83259 5.21287 5.10694 3.3025L3.21668 5.73571C11.3307 17.1577 6.6654 28.64 0.230469 35.6783L3.19657 38.8153C1.99002 56.0287 12.0345 65.9828 29.6904 66.9983L34.4764 71L39.2523 66.9379C49.5381 66.757 67.566 60.9957 65.6255 38.7851L68.6016 35.6984C61.0406 27.3229 58.4364 15.8406 65.7461 5.73571L63.9664 3.31255C57.5014 5.43407 50.1112 4.25768 45.6671 1.04022C38.9909 5.8262 30.5249 6.31887 23.2555 1ZM45.7274 4.26774C49.7392 6.76128 54.1733 7.4651 61.8148 6.80149C57.984 13.4174 57.5717 21.3103 60.9601 28.9216L7.93228 28.8914C10.7878 22.0845 11.4413 14.262 6.96704 6.65067C12.4769 7.45504 17.8662 7.264 23.2353 4.33812C30.5149 8.61132 38.0055 8.6817 45.7274 4.26774ZM6.05207 39.0365H62.9107C64.4088 54.7719 54.4045 63.268 39.202 64.1026L29.5396 64.1227C15.0006 63.087 4.17186 55.4053 6.05207 39.0365Z" fill="#DEB405" stroke="#DEB405" stroke-width="0.0335958" stroke-miterlimit="10"/>
<path d="M6.90625 6.73116C11.3805 14.3425 10.727 22.1649 7.87149 28.9719L60.8893 29.0021C57.5009 21.3907 57.9131 13.4979 61.7439 6.88198C54.1025 7.55563 49.6684 6.84176 45.6566 4.35828C37.9347 8.77224 30.444 8.70186 23.1645 4.4186C17.7954 7.33443 12.4162 7.52547 6.90625 6.73116Z" stroke="black" stroke-width="0.143298" stroke-miterlimit="10"/>
<path d="M6.05226 39.0365H62.9109C64.409 54.7719 54.4047 63.268 39.2123 64.1026L29.5498 64.1227C15.0008 63.0871 4.17205 55.4054 6.05226 39.0365Z" stroke="black" stroke-width="0.143298" stroke-miterlimit="10"/>
<path d="M34.4258 7.52539V29.012" stroke="black" stroke-width="0.143298" stroke-miterlimit="10"/>
<path d="M42.2686 51.3031C42.2686 55.5763 38.8099 59.035 34.5367 59.035C30.2635 59.035 26.8047 55.5763 26.8047 51.3031C26.8047 51.3031 26.8047 51.3031 26.8047 51.293C26.8047 47.0198 30.2635 43.561 34.5367 43.561C38.7998 43.5711 42.2686 47.0299 42.2686 51.3031C42.2686 51.3031 42.2686 51.293 42.2686 51.3031Z" fill="#DEB405"/>
<path d="M42.2686 51.3031C42.2686 55.5763 38.8099 59.035 34.5367 59.035C30.2635 59.035 26.8047 55.5763 26.8047 51.3031C26.8047 51.3031 26.8047 51.3031 26.8047 51.293C26.8047 47.0198 30.2635 43.561 34.5367 43.561C38.7998 43.5711 42.2686 47.0299 42.2686 51.3031ZM42.2686 51.3031C42.2686 51.293 42.2686 51.3031 42.2686 51.3031Z" stroke="black" stroke-width="0.144017" stroke-miterlimit="1.0145"/>
<path d="M30.0717 45.0089C29.1668 48.2968 28.6138 51.5343 31.2079 53.0928C33.0278 54.1787 34.2544 51.9667 34.5963 51.102" stroke="black" stroke-width="0.125393" stroke-miterlimit="10"/>
<path d="M27.377 54.42C28.9052 54.3496 29.6996 54.2289 30.6749 52.7408" stroke="black" stroke-width="0.125393" stroke-miterlimit="10"/>
<path d="M34.5469 51.1521C36.0752 50.2171 37.4325 50.6695 38.066 53.0223C39.5541 52.4291 40.9919 53.5753 41.3639 54.7316" stroke="black" stroke-width="0.125393" stroke-miterlimit="10"/>
<path d="M38.0952 53.0223C36.9691 55.7471 33.993 57.014 29.8203 57.4262" stroke="black" stroke-width="0.125393" stroke-miterlimit="10"/>
<path d="M34.5461 51.2628C33.611 50.4081 32.1632 49.4228 34.2646 46.889C33.3697 45.7529 33.1284 44.6569 34.2947 43.6012" stroke="black" stroke-width="0.125393" stroke-miterlimit="10"/>
<path d="M42.2289 51.7655C40.8514 49.3423 37.6641 45.974 34.2656 46.8689" stroke="black" stroke-width="0.125393" stroke-miterlimit="10"/>
<path d="M23.728 30.299V30.3291H22.3203V33.0539V34.6023V37.6388H23.8386V34.6023H26.0003V33.0539H23.8386V31.8675H27.5789V30.299H23.728Z" fill="black"/>
<path fill-rule="evenodd" clip-rule="evenodd" d="M35.2196 32.5813L36.577 31.8674C35.7123 29.947 32.1831 29.394 31.0268 31.8674C29.8303 34.8134 31.0972 37.5483 33.4198 37.8197C34.8878 38.0309 36.0541 37.317 36.5569 36.03L35.2095 35.2558C34.8476 36.1507 33.4802 36.764 32.4445 35.2759C32.1228 34.6123 32.0423 33.5767 32.3943 32.5813C33.2388 31.4049 34.4957 31.5356 35.2196 32.5813Z" fill="black" stroke="black" stroke-width="0.00716481" stroke-miterlimit="10"/>
<path fill-rule="evenodd" clip-rule="evenodd" d="M40.4277 30.3191L40.4579 37.6891L44.4697 37.669C45.7768 37.488 47.486 35.3464 45.4852 33.6874C46.5409 32.7523 46.4102 30.7514 44.2887 30.3291L40.4277 30.3191ZM41.9661 31.767H43.9669C44.8417 32.0183 44.5803 32.8629 43.9971 33.0037H41.9661V31.767ZM41.9862 34.4515L44.0876 34.4817C45.1232 34.7934 44.892 35.9798 44.1178 36.1809L41.9962 36.1608L41.9862 34.4515Z" fill="black" stroke="black" stroke-width="0.0358293" stroke-miterlimit="10"/>
</svg>
