<svg width="71" height="70" viewBox="0 0 71 70" fill="none" xmlns="http://www.w3.org/2000/svg">
<path d="M0.0898438 34.9845C0.0939681 25.7046 3.78327 16.8062 10.3466 10.2458C16.9099 3.68536 25.81 -9.16532e-07 35.0898 0C44.3697 -9.16532e-07 53.2698 3.68536 59.8331 10.2458C66.3964 16.8062 70.0857 25.7046 70.0898 34.9845C70.0857 44.2643 66.3964 53.1627 59.8331 59.7231C53.2698 66.2835 44.3697 69.9689 35.0898 69.9689V69.9689C25.8102 69.9689 16.9105 66.2837 10.3472 59.7237C3.78389 53.1636 0.0943804 44.2656 0.0898438 34.986V34.9845Z" fill="#2E6ABD"/>
<path d="M35.0913 70.0001C30.5067 69.9941 25.9682 69.0853 21.7349 67.3253C17.5016 65.5654 13.6565 62.9888 10.419 59.7428C7.18147 56.4968 4.61503 52.6448 2.86622 48.4069C1.1174 44.169 0.220461 39.6282 0.226594 35.0436C0.243906 25.7858 3.93788 16.9139 10.496 10.3795C17.0541 3.84499 25.9392 0.183077 35.197 0.199182C39.7817 0.204898 44.3204 1.11362 48.5538 2.87348C52.7873 4.63334 56.6326 7.20986 59.8703 10.4559C63.108 13.702 65.6746 17.554 67.4235 21.792C69.1724 26.03 70.0694 30.5709 70.0632 35.1556C70.0518 42.0105 68.0222 48.7103 64.2276 54.4191C60.4331 60.128 55.0416 64.5931 48.7257 67.2576C44.4114 69.0789 39.7742 70.0117 35.0913 70.0001V70.0001ZM35.0913 0.0296126C30.5142 0.0332872 25.9828 0.938669 21.7558 2.69404C17.5287 4.44941 13.689 7.02038 10.4558 10.2601C7.22258 13.4998 4.65933 17.3447 2.91245 21.5752C1.16558 25.8058 0.269307 30.339 0.274825 34.9161C0.28054 39.4933 1.18804 44.0246 2.94549 48.2511C4.70294 52.4776 7.27587 56.3163 10.5173 59.5481C13.7588 62.7799 17.6053 65.3414 21.8369 67.0862C26.0686 68.831 30.6027 69.7249 35.1799 69.717C39.7571 69.7135 44.2887 68.8082 48.5159 67.053C52.7431 65.2977 56.5831 62.7268 59.8164 59.4871C63.0498 56.2473 65.6132 52.4024 67.3601 48.1717C69.1071 43.9411 70.0034 39.4077 69.9979 34.8305C69.9888 27.9873 67.9648 21.2983 64.1785 15.5981C60.3923 9.89777 55.0113 5.43854 48.707 2.77673C44.3994 0.954482 39.7684 0.0201242 35.0913 0.0296126Z" fill="#2E6ABD"/>
<path d="M1.61719 34.9486C1.61719 30.5554 2.48272 26.2053 4.16433 22.1467C5.84595 18.0881 8.3107 14.4006 11.4178 11.2949C14.5249 8.18907 18.2134 5.72585 22.2727 4.04594C26.332 2.36602 30.6825 1.50231 35.0756 1.50415C39.4688 1.50231 43.8193 2.36602 47.8786 4.04594C51.9379 5.72585 55.6264 8.18907 58.7335 11.2949C61.8406 14.4006 64.3053 18.0881 65.9869 22.1467C67.6686 26.2053 68.5341 30.5554 68.5341 34.9486C68.5341 39.3418 67.6686 43.6919 65.9869 47.7505C64.3053 51.809 61.8406 55.4966 58.7335 58.6023C55.6264 61.7081 51.9379 64.1713 47.8786 65.8513C43.8193 67.5312 39.4688 68.3949 35.0756 68.393C30.6825 68.3949 26.332 67.5312 22.2727 65.8513C18.2134 64.1713 14.5249 61.7081 11.4178 58.6023C8.3107 55.4966 5.84595 51.809 4.16433 47.7505C2.48272 43.6919 1.61719 39.3418 1.61719 34.9486V34.9486Z" fill="white"/>
<path d="M35.0816 68.4273C30.6982 68.4226 26.3587 67.5546 22.3107 65.8728C18.2628 64.191 14.5857 61.7284 11.4895 58.6255C8.39326 55.5227 5.93853 51.8403 4.26541 47.7888C2.5923 43.7373 1.7336 39.3958 1.7383 35.0124C1.74504 30.629 2.61506 26.2899 4.29874 22.2427C5.98242 18.1955 8.44679 14.5196 11.5511 11.4249C14.6554 8.33009 18.3389 5.87708 22.3912 4.20585C26.4435 2.53462 30.7853 1.67792 35.1687 1.68467C39.5521 1.68937 43.8917 2.55738 47.9396 4.23917C51.9876 5.92097 55.6646 8.38362 58.7608 11.4865C61.8571 14.5893 64.3118 18.2717 65.9849 22.3232C67.658 26.3747 68.5168 30.7161 68.5121 35.0995C68.503 41.6535 66.5642 48.0597 62.9375 53.5189C59.3108 58.978 54.1569 63.2483 48.1187 65.7969C43.9941 67.5415 39.56 68.4361 35.0816 68.4273V68.4273ZM35.0816 1.52911C30.7054 1.5336 26.373 2.40002 22.3317 4.07891C18.2903 5.7578 14.6193 8.21629 11.5281 11.314C8.43689 14.4116 5.98613 18.0879 4.31573 22.1327C2.64534 26.1776 1.788 30.5118 1.7927 34.888C1.80631 43.7256 5.32997 52.1958 11.5886 58.4354C17.8471 64.675 26.328 68.173 35.1656 68.1598C39.5418 68.1555 43.8744 67.2892 47.9158 65.6104C51.9572 63.9316 55.6284 61.4731 58.7196 58.3754C61.8108 55.2776 64.2616 51.6014 65.9319 47.5564C67.6022 43.5115 68.4594 39.1771 68.4545 34.8009C68.4452 28.2581 66.5095 21.863 62.8889 16.4133C59.2684 10.9636 54.1232 6.70069 48.0954 4.15643C43.9782 2.41475 39.5521 1.52117 35.0816 1.52911V1.52911Z" fill="white"/>
<path d="M35.0618 2.85604C30.8474 2.85726 26.6744 3.68856 22.7812 5.3025C18.888 6.91644 15.3509 9.28141 12.3717 12.2624C9.39245 15.2433 7.02953 18.7819 5.41785 22.676C3.80618 26.5701 2.97729 30.7436 2.97852 34.958C2.98512 43.4693 6.37243 51.6293 12.3953 57.6431C18.4182 63.657 26.5833 67.032 35.0945 67.0258C43.6009 67.0238 51.7585 63.6446 57.7747 57.631C63.791 51.6174 67.1736 43.4613 67.1794 34.9549C67.1817 30.7413 66.3539 26.5686 64.7435 22.6749C63.133 18.7812 60.7715 15.2429 57.7935 12.2619C54.8156 9.28094 51.2796 6.91574 47.3876 5.30133C43.4956 3.68693 39.3237 2.85495 35.1101 2.85291L35.0618 2.85604ZM37.2598 4.92491L39.7129 5.30758L40.4456 7.50559C40.5716 7.88866 40.6571 8.28384 40.7007 8.6847L40.7318 8.71581C40.9285 8.3294 41.1521 7.95722 41.4008 7.60203L42.7105 5.7898L45.0688 6.17247L41.4365 10.6307L40.9901 13.5287L38.8232 13.1787L39.307 10.2807L37.2598 4.92491ZM33.0599 5.11624L36.7232 12.6327L34.4288 12.8878L33.791 11.3322L30.8587 11.6823L30.5087 13.3389L28.3745 13.594L30.3174 5.44135L33.0599 5.11624ZM31.7859 6.86781C31.7511 7.30661 31.6872 7.74262 31.5945 8.17293L31.2118 10.0847L33.1236 9.86069L32.2945 8.08268C32.1156 7.69226 31.9669 7.28873 31.8496 6.87559L31.7859 6.86781ZM47.0147 7.02335L51.8898 9.57135L51.1245 11.004L48.1285 9.44847L47.4596 10.7536L50.2596 12.2174L49.4943 13.65L46.6943 12.1862L45.9616 13.5551L49.0525 15.1791L48.3199 16.6118L43.3421 13.9969L47.0147 7.02335ZM23.0296 7.53358C23.3996 7.47053 23.78 7.52965 24.1134 7.70196C24.4468 7.87427 24.7151 8.15042 24.8776 8.48869C25.123 8.84637 25.2201 9.28522 25.1488 9.71305C25.0774 10.1409 24.8431 10.5244 24.495 10.7831L24.5261 10.8469C24.9436 10.64 25.4262 10.6073 25.8678 10.756C26.3095 10.9048 26.674 11.2228 26.8812 11.6402L26.9108 11.7025C27.9468 13.552 25.9774 14.6767 25.2541 15.0827L22.4183 16.6756L18.5621 9.76425L21.4616 8.14024C21.9419 7.84155 22.4745 7.63674 23.0312 7.53669L23.0296 7.53358ZM22.7185 9.34425C22.6426 9.3418 22.5669 9.35232 22.4945 9.37536C22.3728 9.41508 22.2556 9.46721 22.1445 9.53093L21.1257 10.1049L21.8909 11.4427L22.8787 10.8687C23.3547 10.6027 23.5196 10.2465 23.2614 9.7798C23.0872 9.48891 22.9176 9.35204 22.7139 9.3427L22.7185 9.34425ZM55.281 11.9887L57.7341 14.6642C57.9695 14.8375 58.1684 15.0555 58.3193 15.3058C58.4703 15.5561 58.5703 15.8338 58.6137 16.1229C58.657 16.4119 58.6429 16.7067 58.572 16.9903C58.5011 17.2739 58.375 17.5407 58.2007 17.7754C58.1091 17.8975 58.0048 18.0096 57.8896 18.1098C57.5838 18.4497 57.1771 18.6827 56.7292 18.7745C56.2812 18.8663 55.8156 18.8122 55.4007 18.62L54.0303 22.2818L52.4063 20.4991L53.7379 17.5047L53.1638 16.9011L50.9316 18.9436L49.4663 17.3507L55.281 11.9887ZM24.4063 12.0198C24.1478 12.0023 23.8906 12.0695 23.6737 12.2111L22.6548 12.7851L23.4839 14.2816L24.5992 13.678C24.804 13.5874 24.9644 13.4192 25.0452 13.2103C25.126 13.0015 25.1206 12.7691 25.0301 12.5643C25.0159 12.5322 24.9998 12.501 24.9818 12.4709C24.9291 12.3551 24.8488 12.2539 24.7479 12.1764C24.647 12.0988 24.5287 12.0472 24.4032 12.026L24.4063 12.0198ZM55.5936 14.6005L54.3212 15.7842L55.0865 16.6118C55.2266 16.796 55.4341 16.917 55.6634 16.9482C55.8927 16.9794 56.125 16.9183 56.3092 16.7783C56.4003 16.709 56.4769 16.6225 56.5346 16.5237C56.5923 16.4248 56.63 16.3156 56.6454 16.2022C56.6609 16.0888 56.6539 15.9734 56.6247 15.8628C56.5956 15.7521 56.5449 15.6482 56.4756 15.5571C56.4418 15.5117 56.4032 15.47 56.3605 15.4327L55.5936 14.6005ZM35.0759 14.8556C37.7136 14.8529 40.326 15.3699 42.7639 16.3769C45.2018 17.384 47.4174 18.8614 49.2843 20.7248C51.1511 22.5882 52.6326 24.8011 53.6442 27.2371C54.6558 29.6731 55.1776 32.2846 55.1799 34.9223C55.1832 40.248 53.071 45.357 49.3079 49.1256C45.5448 52.8943 40.4389 55.0139 35.1132 55.0185C32.4755 55.0209 29.8632 54.5038 27.4254 53.4967C24.9876 52.4896 22.7721 51.0122 20.9052 49.1488C19.0384 47.2855 17.5569 45.0726 16.5452 42.6367C15.5336 40.2008 15.0116 37.5895 15.0092 34.9518C15.0141 29.6286 17.1289 24.5244 20.8902 20.7575C24.6516 16.9907 29.7526 14.8683 35.0759 14.8556V14.8556ZM12.8998 15.4591C13.357 15.4308 13.8146 15.5074 14.2376 15.6831L13.505 17.5623C13.369 17.4806 13.2184 17.4265 13.0615 17.4031C12.9047 17.3797 12.7447 17.3875 12.5909 17.4259C12.437 17.4643 12.2923 17.5327 12.1649 17.6271C12.0375 17.7215 11.9299 17.84 11.8483 17.976V17.976C11.5372 18.4722 11.3816 19.4865 13.1223 20.5878C14.2205 21.2816 15.4556 21.7342 16.1168 20.6827C16.2704 20.3828 16.3162 20.0392 16.2465 19.7095C16.1769 19.3798 15.9959 19.0841 15.7341 18.872L17.1683 17.4394C17.7282 17.9357 18.0791 18.6258 18.1501 19.3707C18.2211 20.1155 18.007 20.8595 17.551 21.4527C17.2934 21.9311 16.9329 22.3465 16.4954 22.6688C16.0579 22.9911 15.5544 23.2123 15.0211 23.3165C14.4878 23.4206 13.938 23.4051 13.4114 23.2711C12.8848 23.1371 12.3945 22.888 11.9758 22.5416C11.5353 22.326 11.1416 22.0257 10.8172 21.6579C10.4927 21.29 10.2439 20.8619 10.085 20.3979C9.92614 19.9339 9.86024 19.4431 9.89107 18.9536C9.9219 18.4641 10.0489 17.9855 10.2647 17.5451C10.3549 17.3662 10.4589 17.1946 10.5759 17.0318C10.8075 16.6005 11.1413 16.2325 11.5481 15.9599C11.9548 15.6874 12.4222 15.5187 12.9092 15.4685L12.8998 15.4591ZM62.0943 20.9362L62.9234 23.5169L59.8652 26.5534C59.433 26.9856 58.9646 27.3801 58.4652 27.7325L58.4963 27.8274C58.9982 27.5858 59.5183 27.384 60.0518 27.2238L63.7152 26.0167L64.353 27.9596L56.8334 30.3738L55.9732 27.7931L59.1916 24.6074C59.5737 24.2176 60.0015 23.8755 60.4656 23.5885L60.4345 23.5247C60.0487 23.6709 59.7314 23.828 59.2865 23.9696L55.1799 25.2747L54.5763 23.3629L62.0943 20.9362ZM7.67476 22.7267L9.20387 23.3007L8.08852 26.4211L9.64408 26.9951L10.733 23.9385L12.2621 24.4798L11.1732 27.5365L13.9732 28.5554L13.2436 30.5931L5.81742 27.9176L7.67476 22.7267ZM13.5361 41.2938L15.0652 44.1918L12.0707 47.0898C11.7558 47.3725 11.426 47.6384 11.0829 47.8863L11.1141 47.95C11.563 47.8044 12.0207 47.6875 12.4845 47.6L16.4699 46.9L17.9336 49.7358L10.9336 53.3665L9.97852 51.5185L13.9841 49.4154C14.5123 49.143 15.0544 48.8985 15.6081 48.6827L15.5443 48.5567C15.2441 48.6516 14.2812 48.8678 13.6963 48.9705L9.07632 49.8307L8.34364 48.4307L12.007 44.8C12.3617 44.4516 12.8641 44.0363 13.0958 43.8449L13.0321 43.75C12.7754 43.9056 11.8825 44.4407 11.3116 44.7378L7.4881 46.7445L6.53297 44.9618L13.5361 41.2938ZM56.9952 41.3576L63.9407 45.1469L62.6341 47.5347L58.1416 47.4087C57.5931 47.4012 57.0477 47.326 56.5176 47.1847L56.4865 47.2485C56.8568 47.4243 57.1912 47.5378 57.6019 47.7587L61.3927 49.8276L60.4376 51.6103L53.4921 47.852L54.7987 45.4643L59.0999 45.5903C59.7083 45.6013 60.3147 45.6653 60.9121 45.7816L60.9432 45.6867C60.4258 45.4941 59.9248 45.2601 59.4452 44.9867L56.037 43.1387L56.9952 41.3576ZM52.5665 49.0965L53.6554 50.2756L51.2023 52.57L52.1901 53.62L54.5234 51.4858L55.6123 52.6649L53.3178 54.8302L54.3694 55.9767L56.9174 53.62L58.0327 54.7992L53.9261 58.6212L48.5407 52.8251L52.5665 49.0965ZM18.8265 50.652L20.547 51.9571L17.4887 55.9067C16.9785 56.5616 16.8354 57.2585 17.5525 57.8185C18.3303 58.422 18.9727 58.0596 19.4643 57.4358L22.5225 53.5189L24.1792 54.7929L21.121 58.7098C20.876 59.0739 20.5523 59.3784 20.1739 59.6007C19.7955 59.8231 19.372 59.9575 18.9347 59.9943C18.4973 60.031 18.0573 59.969 17.6471 59.813C17.2369 59.6569 16.867 59.4107 16.5648 59.0925C16.1779 58.8801 15.8442 58.583 15.5884 58.2233C15.3327 57.8637 15.1617 57.4509 15.088 57.0158C15.0144 56.5807 15.0402 56.1346 15.1634 55.7108C15.2866 55.2871 15.504 54.8967 15.7994 54.5689L18.8265 50.652ZM21.0245 52.3087L22.1134 53.1689L20.1705 54.5067L21.0245 52.3087ZM47.1578 53.5531L50.8912 60.4956L48.9794 61.5456L47.3865 58.6149L45.0921 59.822L46.6476 62.7527L44.7358 63.7716L41.0025 56.8291L42.9143 55.8103L44.3143 58.3909L46.6087 57.1838L45.2383 54.572L47.1578 53.5531ZM25.7472 55.4634L28.3278 56.2598L29.0279 60.5283C29.1327 61.1261 29.1848 61.732 29.1834 62.3389L29.2783 62.37C29.3737 61.8187 29.5121 61.2758 29.6921 60.746L30.8401 57.0516L32.7519 57.6551L30.3936 65.1716L27.813 64.3751L27.0476 59.9169C26.957 59.3805 26.9356 58.8347 26.9839 58.2929L26.889 58.2618C26.7879 58.66 26.7412 59.0287 26.6028 59.4689L25.2961 63.574L23.3843 62.9705L25.7472 55.4634ZM37.5041 57.0562C38.1026 57.0007 38.7033 57.1374 39.2189 57.4465C39.7344 57.7556 40.138 58.221 40.3709 58.7752L38.523 59.6027C38.4429 59.2946 38.2436 59.0309 37.9692 58.8695C37.6947 58.7082 37.3674 58.6625 37.0592 58.7425C36.4883 58.8778 35.6949 59.4736 36.1663 61.4803C36.4649 62.7434 36.9954 63.9318 38.2056 63.6456C39.069 63.4434 39.1499 62.6298 39.1934 62.09H41.2328C41.2874 62.8324 41.0577 63.5678 40.5904 64.1472C40.1231 64.7266 39.453 65.1067 38.7158 65.2105C38.2523 65.3556 37.7648 65.408 37.281 65.3647C36.7972 65.3214 36.3268 65.1831 35.8964 64.9579C35.4661 64.7327 35.0844 64.4249 34.773 64.0522C34.4617 63.6794 34.2268 63.2489 34.0818 62.7854C34.011 62.5588 33.962 62.326 33.9356 62.09C33.7728 61.6239 33.7033 61.1302 33.7313 60.6372C33.7593 60.1442 33.8841 59.6615 34.0986 59.2168C34.3131 58.772 34.6131 58.3739 34.9815 58.0451C35.3499 57.7163 35.7795 57.4633 36.2457 57.3005C36.4273 57.2373 36.6135 57.1879 36.8025 57.1527C37.0337 57.1005 37.2689 57.0688 37.5056 57.0578L37.5041 57.0562Z" fill="#ED1248"/>
<path d="M35.0345 16.422C31.5959 16.419 28.2243 17.3738 25.2979 19.1795C22.3715 20.9852 20.0059 23.5703 18.4663 26.6451L21.2383 31.3895L21.9709 22.7593L26.0776 29.7966L26.7776 21.1975L30.92 28.2348L31.6527 19.6357L35.7594 26.6731L36.492 18.0428L40.5987 25.1128L41.2349 17.4688C39.2427 16.7696 37.1458 16.4156 35.0345 16.422V16.422ZM40.6096 25.1144L39.8769 33.7446L43.9836 40.7446L44.6836 32.1455L40.6096 25.1144ZM39.8769 33.7446L35.7765 26.7119L35.0407 35.3126L30.934 28.2753L30.2014 36.8744L26.0947 29.8744L25.362 38.4735L29.4687 45.5108L30.1687 36.8806L34.3112 43.9506L35.0438 35.3515L39.1505 42.3515L39.8769 33.7446ZM34.3018 43.9366L33.5692 52.5668L29.4625 45.5295L28.8885 52.374C33.0655 53.8447 37.6314 53.77 41.758 52.1633C45.8847 50.5565 49.299 47.5242 51.3818 43.6162L48.8338 39.1906L48.1012 47.8208L43.9945 40.7835L43.2509 49.4168L39.1443 42.3795L38.4116 51.0097L34.3018 43.9366ZM48.8307 39.1922L49.5307 30.562L45.4536 23.562L44.7209 32.1611L48.8307 39.1922ZM25.3418 38.4595L21.2352 31.4222L20.5352 40.0524L24.6138 47.0524L25.3418 38.4595ZM42.0998 17.8219L45.4458 23.5231L45.732 19.8286C44.5998 19.0256 43.3802 18.3535 42.0967 17.8251L42.0998 17.8219ZM50.0969 24.1593L49.5556 30.5915L53.4118 37.184C53.4997 36.4333 53.5418 35.678 53.5378 34.9222C53.5432 31.063 52.3382 27.2992 50.0923 24.1608L50.0969 24.1593ZM16.5794 33.2997C16.5327 33.8317 16.5156 34.3808 16.5156 34.9237C16.5133 38.8121 17.7393 42.6018 20.0187 45.752L20.5025 40.0197L16.5794 33.2997ZM24.6076 47.0897L24.3525 50.0453C25.2837 50.6985 26.273 51.2645 27.3081 51.7362L24.6076 47.0897Z" fill="#2E6ABD"/>
</svg>
