<svg width="71" height="70" viewBox="0 0 71 70" fill="none" xmlns="http://www.w3.org/2000/svg">
<path d="M35.0898 0C25.8073 0 16.9049 3.6875 10.3411 10.2513C3.77732 16.815 0.0898438 25.7174 0.0898438 35C0.0898438 44.2826 3.77732 53.185 10.3411 59.7488C16.9049 66.3125 25.8073 70 35.0898 70C44.3724 70 53.2748 66.3125 59.8386 59.7488C66.4023 53.185 70.0898 44.2826 70.0898 35V35C70.0898 25.7174 66.4023 16.815 59.8386 10.2513C53.2748 3.6875 44.3724 0 35.0898 0V0Z" fill="#FCEA1C"/>
<path d="M1.71484 34.9999C1.71484 26.1485 5.23107 17.6596 11.49 11.4006C17.7489 5.14172 26.2378 1.62549 35.0893 1.62549V1.62549C39.4721 1.62488 43.8122 2.4876 47.8616 4.16437C51.911 5.84115 55.5905 8.29913 58.69 11.398C61.7894 14.4968 64.2481 18.1759 65.9256 22.225C67.6031 26.2741 68.4666 30.614 68.4668 34.9968V34.9968C68.4668 43.8483 64.9506 52.3372 58.6917 58.5961C52.4328 64.855 43.9439 68.3713 35.0924 68.3713V68.3713C26.2409 68.3709 17.7521 64.8545 11.493 58.5958C5.23393 52.337 1.71724 43.8483 1.71641 34.9968L1.71484 34.9999ZM12.6753 12.589C9.72789 15.5289 7.39045 19.0222 5.79727 22.8681C4.2041 26.7141 3.3866 30.837 3.39174 34.9999V34.9999C3.38663 39.1626 4.20414 43.2853 5.79732 47.131C7.3905 50.9767 9.72794 54.4697 12.6753 57.4093C15.6151 60.3567 19.1083 62.694 22.9544 64.2869C26.8004 65.8799 30.9233 66.697 35.0862 66.6913V66.6913C39.2489 66.6975 43.3717 65.8807 47.2176 64.2877C51.0634 62.6947 54.5564 60.3571 57.4955 57.4093C60.4426 54.4696 62.7798 50.9766 64.3728 47.1309C65.9657 43.2851 66.7829 39.1625 66.7775 34.9999V34.9999C66.7829 30.8371 65.9656 26.7143 64.3727 22.8683C62.7798 19.0223 60.4426 15.529 57.4955 12.589C54.5559 9.6419 51.0628 7.30473 47.2171 5.71181C43.3714 4.1189 39.2488 3.30166 35.0862 3.30706V3.30706C30.9234 3.30163 26.8005 4.11883 22.9545 5.71174C19.1085 7.30465 15.6152 9.64186 12.6753 12.589V12.589Z" fill="black"/>
<path d="M30.2804 48.552H29.3813C28.5583 48.4806 27.7403 48.7352 27.1032 49.2609C26.4661 49.7866 26.0608 50.5414 25.9746 51.3629V58.9197C26.0612 59.741 26.4666 60.4954 27.1037 61.0208C27.7408 61.5461 28.5586 61.8005 29.3813 61.7291H30.2804C31.1028 61.8 31.9202 61.5455 32.557 61.0202C33.1937 60.4949 33.5989 59.7407 33.6855 58.9197V51.3629C33.5997 50.5415 33.1947 49.7867 32.5579 49.2609C31.921 48.7352 31.1031 48.4806 30.2804 48.552V48.552ZM31.069 58.2462C31.0422 58.415 30.9823 58.5768 30.8928 58.7224C30.8034 58.868 30.6861 58.9946 30.5477 59.0948C30.4093 59.1951 30.2525 59.2671 30.0862 59.3067C29.92 59.3464 29.7476 59.3528 29.5788 59.3258C29.3081 59.2826 29.0578 59.155 28.864 58.9611C28.6701 58.7672 28.5424 58.517 28.4993 58.2462V52.2246C28.5251 52.0558 28.5839 51.8937 28.6724 51.7476C28.7609 51.6015 28.8773 51.4742 29.0149 51.3731C29.1526 51.272 29.3088 51.199 29.4747 51.1583C29.6406 51.1175 29.8129 51.1099 29.9817 51.1358C30.2555 51.1776 30.5088 51.3058 30.7047 51.5017C30.9005 51.6975 31.0287 51.9508 31.0706 52.2246L31.069 58.2462Z" fill="black"/>
<path d="M43.7914 52.206V51.9789C43.7893 51.4819 43.6894 50.9901 43.4973 50.5317C43.3052 50.0733 43.0247 49.6572 42.6719 49.3072C42.319 48.9573 41.9006 48.6802 41.4406 48.4919C40.9807 48.3036 40.4882 48.2077 39.9911 48.2097H39.8822C39.3852 48.2077 38.8927 48.3036 38.4327 48.4919C37.9728 48.6802 37.5544 48.9573 37.2015 49.3072C36.8486 49.6572 36.5681 50.0733 36.376 50.5317C36.184 50.9901 36.0841 51.4819 36.082 51.9789V52.9589C36.087 53.9621 36.49 54.9223 37.2026 55.6285C37.9152 56.3346 38.879 56.729 39.8822 56.7249H39.9896C40.4371 56.7245 40.8811 56.645 41.3009 56.49V56.49C41.3009 57.5587 41.7287 59.3102 40.0114 59.3102C38.294 59.3102 38.6114 57.3798 38.6114 57.3798H36.1225C36.1225 57.3798 35.5609 61.8644 40.0114 61.8644C44.4618 61.8644 43.7914 58.1653 43.7914 52.206ZM40.0953 54.2391C39.7767 54.2492 39.467 54.1328 39.2339 53.9154C39.0008 53.698 38.8631 53.3972 38.8509 53.0786V52.206C38.8618 52.0423 38.9049 51.8823 38.9778 51.7354C39.0507 51.5884 39.1519 51.4573 39.2756 51.3496C39.3994 51.2419 39.5432 51.1597 39.6989 51.1078C39.8545 51.0559 40.0188 51.0352 40.1825 51.0471C40.4832 51.0671 40.7665 51.1957 40.9796 51.4088C41.1928 51.622 41.3213 51.9052 41.3414 52.206V53.0755C41.328 53.3933 41.1898 53.6929 40.9568 53.9093C40.7238 54.1257 40.4148 54.2414 40.0969 54.2313L40.0953 54.2391Z" fill="black"/>
<path d="M24.4824 8.27087H29.7153L34.9497 25.9357L40.0426 8.27087H45.232L36.8211 34.9533H33.08L24.4824 8.27087Z" fill="black"/>
<path d="M58.8762 34.6718C58.8762 34.6718 61.0711 33.3169 61.0711 28.9722C61.0711 22.6162 54.4833 21.4962 54.4833 21.4962H45.3242V47.7586H54.2547C54.2547 47.7586 61.1224 46.914 61.1224 40.096C61.1162 40.0929 61.2111 35.9815 58.8762 34.6718ZM54.4102 43.1293H50.1324V37.0082L54.4009 37.058C55.2059 37.3484 55.8625 37.9466 56.2266 38.7211C56.5906 39.4956 56.6322 40.3829 56.3422 41.188C56.1812 41.6344 55.9238 42.0398 55.5883 42.3753C55.2527 42.7109 54.8473 42.9683 54.4009 43.1293H54.4102ZM54.3962 32.1938H50.0967V26.3542L54.3962 26.4009C54.777 26.5158 55.1314 26.7047 55.4391 26.9567C55.7468 27.2087 56.0019 27.5189 56.1897 27.8695C56.3775 28.2201 56.4944 28.6043 56.5336 29.0001C56.5729 29.3959 56.5337 29.7955 56.4184 30.1762C56.2744 30.654 56.0144 31.0886 55.6615 31.4415C55.3087 31.7943 54.874 32.0544 54.3962 32.1984V32.1938Z" fill="black"/>
<path d="M24.6676 34.6718C24.6676 34.6718 26.8641 33.3169 26.8641 28.9722C26.8641 22.6162 20.2763 21.4962 20.2763 21.4962H11.1172V47.7586H20.0476C20.0476 47.7586 26.9154 46.914 26.9154 40.096C26.9123 40.0929 27.0041 35.9815 24.6676 34.6718ZM20.2016 43.1293H15.9285V37.0082L20.1954 37.058C21.0004 37.3484 21.6571 37.9466 22.0211 38.7211C22.3851 39.4956 22.4267 40.3829 22.1367 41.188C21.9758 41.6344 21.7183 42.0398 21.3828 42.3753C21.0472 42.7109 20.6418 42.9683 20.1954 43.1293H20.2016ZM20.1861 32.1938H15.8819V26.3542L20.1814 26.4009C20.5622 26.5158 20.9165 26.7047 21.2243 26.9567C21.532 27.2087 21.7871 27.5189 21.9749 27.8695C22.1627 28.2201 22.2795 28.6043 22.3188 29.0001C22.358 29.3959 22.3189 29.7955 22.2036 30.1762C22.0596 30.654 21.7995 31.0886 21.4467 31.4415C21.0938 31.7943 20.6592 32.0544 20.1814 32.1984L20.1861 32.1938Z" fill="black"/>
</svg>
