<svg width="71" height="70" viewBox="0 0 71 70" fill="none" xmlns="http://www.w3.org/2000/svg">
<path d="M35.5469 0C16.2524 0 0.546875 15.7056 0.546875 35C0.546875 54.2944 16.2524 70 35.5469 70C54.8413 70 70.5469 54.2944 70.5469 35C70.5298 15.7056 54.8413 0 35.5469 0Z" fill="#00285E"/>
<path d="M66.8896 35C66.8896 17.688 52.8589 3.65723 35.5298 3.65723C18.2178 3.65723 4.16992 17.688 4.16992 35C4.16992 52.312 18.2178 66.3599 35.5298 66.3599C52.8589 66.3428 66.8896 52.312 66.8896 35Z" fill="white"/>
<path d="M55.5078 35C55.5078 23.9771 46.5698 15.0391 35.5469 15.0391C24.5239 15.0391 15.5859 23.9771 15.5859 35C15.5859 46.0229 24.5239 54.9609 35.5469 54.9609C46.5698 54.9609 55.5078 46.0229 55.5078 35Z" fill="#6CADDF"/>
<path d="M35.5469 56.5332C23.6694 56.5332 14.0137 46.8603 14.0137 34.9829C14.0137 23.1055 23.6694 13.4497 35.5469 13.4497C47.4243 13.4497 57.0972 23.1055 57.0972 34.9829C57.0801 46.8774 47.4243 56.5332 35.5469 56.5332ZM35.5469 14.6631C24.3359 14.6631 15.21 23.7891 15.21 35C15.21 46.2109 24.3359 55.3369 35.5469 55.3369C46.7578 55.3369 55.8838 46.2109 55.8838 35C55.8838 23.7891 46.7578 14.6631 35.5469 14.6631Z" fill="#00285E"/>
<path d="M35.5469 68.5645C17.0386 68.5645 1.98242 53.5083 1.98242 35C1.98242 16.4917 17.0386 1.43555 35.5469 1.43555C54.0552 1.43555 69.1113 16.4917 69.1113 35C69.0942 53.5083 54.0552 68.5645 35.5469 68.5645ZM35.5469 2.15332C17.4316 2.15332 2.71729 16.8848 2.71729 35C2.71729 53.0982 17.4487 67.8296 35.5469 67.8296C53.645 67.8296 68.3765 53.0982 68.3765 35C68.3765 16.8848 53.645 2.15332 35.5469 2.15332Z" fill="#6CADDF"/>
<path d="M7.53613 34.231L6.97217 34.3677L6.81836 33.7866L7.7583 33.5132H8.23682V36.7944H7.53613V34.231Z" fill="#6CADDF"/>
<path d="M9.05664 35.8887C9.05664 35.4785 9.24463 35.2563 9.58643 35.1025C9.33008 34.9487 9.17627 34.7437 9.17627 34.3848V34.3677C9.17627 33.8721 9.6377 33.479 10.3213 33.479C11.0049 33.479 11.4663 33.8721 11.4663 34.3677V34.3848C11.4663 34.7266 11.3125 34.9487 11.0562 35.1025C11.3809 35.2734 11.5859 35.4785 11.5859 35.8716V35.8887C11.5859 36.4868 11.0562 36.8457 10.3384 36.8457C9.62061 36.8457 9.05664 36.4526 9.05664 35.8887ZM10.8682 35.8374C10.8682 35.5811 10.6289 35.4272 10.3042 35.4272C9.97949 35.4272 9.74023 35.5811 9.74023 35.8203C9.74023 36.0425 9.94531 36.2305 10.3042 36.2305C10.6631 36.2305 10.8682 36.0596 10.8682 35.8374ZM10.7827 34.4702C10.7827 34.2651 10.6118 34.0771 10.3213 34.0771C10.0308 34.0771 9.85986 34.248 9.85986 34.4531V34.4702C9.85986 34.6924 10.0479 34.8633 10.3213 34.8633C10.5947 34.8633 10.7827 34.6924 10.7827 34.4702Z" fill="#6CADDF"/>
<path d="M60.6528 35.4443C60.4819 35.5811 60.2769 35.6665 59.9863 35.6665C59.2856 35.6665 58.8242 35.2734 58.8242 34.624V34.6069C58.8242 33.9575 59.3369 33.4619 60.0718 33.4619C60.5161 33.4619 60.7554 33.5645 61.0117 33.8208C61.251 34.0601 61.3877 34.4019 61.3877 35.0513V35.0684C61.3877 36.1279 60.8921 36.8457 59.9692 36.8457C59.4907 36.8457 59.1831 36.6919 58.8926 36.4526L59.2686 35.9058C59.5078 36.0938 59.7129 36.1792 59.9863 36.1792C60.4819 36.1792 60.6187 35.7178 60.6528 35.4443ZM60.6699 34.5898C60.6699 34.2993 60.4648 34.0771 60.106 34.0771C59.7471 34.0771 59.5591 34.2822 59.5591 34.5728V34.5898C59.5591 34.8804 59.7813 35.0854 60.123 35.0854C60.4648 35.0684 60.6699 34.8633 60.6699 34.5898Z" fill="#6CADDF"/>
<path d="M63.6777 36.0767H62.0884L61.9688 35.564L63.7461 33.4961H64.3442V35.4956H64.7886V36.0767H64.3442V36.7773H63.6606V36.0767H63.6777ZM63.6777 35.4956V34.4873L62.8062 35.4956H63.6777Z" fill="#6CADDF"/>
<path d="M35.5479 55.3369C24.3369 55.3369 15.2109 46.2109 15.2109 35C15.2109 23.7891 24.3369 14.6631 35.5479 14.6631C46.7588 14.6631 55.8848 23.7891 55.8848 35C55.8848 46.2109 46.7588 55.3369 35.5479 55.3369ZM35.5479 15.415C24.7471 15.415 15.9629 24.1992 15.9629 35C15.9629 45.8008 24.7471 54.585 35.5479 54.585C46.3486 54.585 55.1328 45.8008 55.1328 35C55.1328 24.1992 46.3486 15.415 35.5479 15.415Z" fill="white"/>
<path fill-rule="evenodd" clip-rule="evenodd" d="M35.1712 17.4829C25.1395 17.4829 19.346 18.7988 19.346 18.7988C19.346 18.7988 17.0389 27.6001 18.3548 38.8623C18.9017 43.5962 22.7469 53.7646 35.4959 57.251C48.245 53.7817 52.0902 43.5962 52.6371 38.8623C53.953 27.583 51.6458 18.7988 51.6458 18.7988C51.6458 18.7988 45.8524 17.4829 35.8206 17.4829H35.1712Z" fill="#00285E"/>
<path fill-rule="evenodd" clip-rule="evenodd" d="M50.876 36.2476C50.7563 39.6655 50.2266 49.8853 35.478 55.5078C20.8491 50.0391 20.0801 39.4604 20.0801 36.2476H50.876V36.2476Z" fill="#97C1E7"/>
<path fill-rule="evenodd" clip-rule="evenodd" d="M50.4325 35.6836C50.8256 27.207 49.39 20.3369 49.39 20.3369C49.39 20.3369 43.8871 19.2773 35.496 19.2773C27.0878 19.2773 21.4994 20.4395 21.4994 20.4395C21.4994 20.4395 19.9784 27.3437 20.3886 35.6665H50.4325V35.6836Z" fill="white"/>
<path d="M35.9393 55.2002L20.3704 36.3843C19.8065 40.2637 22.951 51.6968 35.9393 55.2002Z" fill="#6CADDF"/>
<path d="M25.0195 36.2646L39.4263 53.645C40.8789 52.9443 41.9556 52.2607 42.981 51.4404L30.4028 36.2646H25.0195Z" fill="#6CADDF"/>
<path d="M35.0156 36.2817L45.6626 49.1162C46.7051 47.937 47.5938 46.8604 48.2261 45.7324L40.3989 36.2817H35.0156V36.2817Z" fill="#6CADDF"/>
<path d="M50.6196 36.2817L45.3047 36.2646L49.7651 41.6479C50.5342 39.9902 50.6196 37.2046 50.6196 36.2817Z" fill="#6CADDF"/>
<path d="M41.7666 43.3228C41.7324 43.2031 41.6299 43.1006 41.5103 43.0493L40.6216 42.7417C40.5361 42.7075 40.4678 42.7246 40.3823 42.7417C40.314 42.4341 40.1431 42.1606 39.8867 41.9727C39.8525 41.9556 39.8184 41.9214 39.7842 41.9043C39.7329 41.8701 39.6646 41.8359 39.5962 41.8018C39.4766 41.7505 39.3569 41.7163 39.2544 41.6821C38.998 41.5967 38.7417 41.5112 38.417 41.2891C38.1094 41.0669 37.9727 40.8618 37.8359 40.6738C37.8018 40.6226 37.7676 40.5884 37.7334 40.5371C37.648 40.4004 37.5283 40.2808 37.4087 40.1782C37.1865 40.0244 36.9131 39.939 36.6396 39.939C36.5713 39.939 36.52 39.9561 36.4517 39.9561C36.4517 39.9561 36.4517 39.9561 36.4517 39.939C36.4688 39.8364 36.4346 39.7168 36.3833 39.6313L35.8364 38.8965C35.751 38.7939 35.6313 38.7256 35.4946 38.7256C35.3579 38.7256 35.2383 38.7769 35.1699 38.8794L34.5889 39.6143C34.5205 39.6997 34.4863 39.8193 34.5034 39.939C34.4521 39.939 34.418 39.9219 34.3667 39.9219C34.0933 39.9219 33.8198 40.0073 33.5977 40.1611C33.5635 40.1782 33.5293 40.2124 33.5122 40.2295C33.4609 40.2808 33.4097 40.3149 33.3584 40.3833C33.2729 40.4858 33.2046 40.5713 33.1362 40.6738C32.9653 40.896 32.8286 41.1011 32.4868 41.3403C32.1792 41.5625 31.9399 41.6309 31.7178 41.6992C31.6665 41.7163 31.6152 41.7334 31.564 41.7505C31.4102 41.7847 31.2563 41.853 31.1196 41.9556C30.8462 42.1436 30.6753 42.4341 30.6069 42.7588C30.5215 42.7246 30.4189 42.7246 30.3164 42.7417L29.4448 43.0322C29.3252 43.0664 29.2227 43.1689 29.1714 43.2886C29.1372 43.4082 29.1543 43.5449 29.2227 43.6475L29.7524 44.4165C29.8208 44.502 29.9062 44.5532 30.0088 44.5874C29.8721 44.8779 29.8379 45.2368 29.9404 45.5444C29.9575 45.5786 29.9746 45.6128 29.9746 45.647C29.9917 45.7153 30.0259 45.7837 30.0771 45.852C30.1455 45.9546 30.2139 46.0571 30.2822 46.1426C30.4531 46.3647 30.6069 46.5698 30.7266 46.9629C30.8462 47.3218 30.8291 47.561 30.8291 47.8003C30.8291 47.8516 30.8291 47.9199 30.8291 47.9712C30.812 48.1421 30.8291 48.2959 30.8975 48.4497C31 48.7573 31.2222 49.0137 31.4785 49.1675C31.4443 49.2358 31.4102 49.3042 31.4272 49.3726V50.2954C31.4272 50.4321 31.4956 50.5518 31.5981 50.6201C31.7007 50.6885 31.8374 50.7227 31.957 50.6885L32.8628 50.4321C32.9482 50.415 32.9995 50.3467 33.0508 50.2954C33.3242 50.5518 33.7002 50.6714 34.0591 50.6543C34.1274 50.6543 34.1958 50.6372 34.2812 50.6201C34.4009 50.5859 34.5205 50.5518 34.623 50.5176C34.8794 50.4321 35.1357 50.3467 35.5459 50.3467C35.9219 50.3467 36.144 50.4321 36.3833 50.5005C36.4346 50.5176 36.4858 50.5347 36.5371 50.5518C36.6909 50.6201 36.8618 50.6372 37.0156 50.6372C37.3403 50.6372 37.665 50.5005 37.9043 50.2783C37.9556 50.3467 38.0068 50.3809 38.0923 50.415L38.981 50.6885C39.1006 50.7227 39.2373 50.7056 39.3569 50.6372C39.4595 50.5688 39.5278 50.4492 39.5278 50.3125L39.5449 49.3896C39.5449 49.3213 39.5278 49.2529 39.4937 49.1846C39.7671 49.0308 39.9893 48.7744 40.0747 48.4668C40.0918 48.4326 40.0918 48.3984 40.1089 48.3472C40.126 48.2788 40.1431 48.2104 40.1431 48.125C40.1602 48.0054 40.1602 47.8857 40.1602 47.7661C40.1602 47.4927 40.1602 47.2363 40.2798 46.8433C40.3994 46.4844 40.5361 46.2964 40.6899 46.1084C40.7241 46.0571 40.7583 46.0229 40.7925 45.9717C40.895 45.852 40.9805 45.6982 41.0317 45.5444C41.1343 45.2197 41.1001 44.8608 40.9463 44.5532C41.0317 44.519 41.1001 44.4849 41.1514 44.4165L41.6982 43.6645C41.7837 43.5791 41.8179 43.4595 41.7666 43.3228Z" fill="#00285E"/>
<path d="M35 45.3223C35 45.0317 35.2393 44.8096 35.5298 44.8096C35.8203 44.8096 36.0596 45.0488 36.0596 45.3223C36.0596 45.6128 35.8203 45.835 35.5298 45.835C35.2393 45.835 35 45.5957 35 45.3223Z" fill="#FFC758"/>
<path d="M35.5127 40.9131C35.4272 40.5884 35.2222 40.3149 34.9658 40.1611L35.5127 39.4604L36.0254 40.1611C35.769 40.332 35.5981 40.5884 35.5127 40.9131ZM31.3257 43.9551C31.0522 43.7671 30.8643 43.5278 30.7617 43.2373L29.9414 43.5107L30.437 44.2285C30.6763 44.0576 31.001 43.9551 31.3257 43.9551ZM32.9492 48.7915C32.6929 48.9966 32.4023 49.0991 32.0776 49.0991V49.9707L32.9321 49.7144C32.8296 49.4409 32.8296 49.1162 32.9492 48.7915ZM38.0762 48.8086C38.1958 49.1162 38.1958 49.4238 38.0933 49.7144L38.9307 49.9707L38.9478 49.0991C38.6572 49.1162 38.3496 49.0137 38.0762 48.8086ZM39.6655 43.9722C40.0073 43.9551 40.2979 44.0405 40.5371 44.2285L41.0498 43.5278L40.2124 43.2373C40.144 43.5107 39.939 43.7842 39.6655 43.9722ZM34.4531 48.8257C34.0601 48.8257 33.7524 48.5181 33.7524 48.125C33.7524 48.0737 33.7012 48.0566 33.667 48.0908C33.4106 48.3984 33.2227 48.6719 33.2056 48.9966C33.1885 49.4751 33.5986 49.8682 34.0942 49.8682C34.1284 49.8682 34.1626 49.8682 34.1797 49.8682C34.231 49.8682 34.2651 49.8682 34.3335 49.8511C34.6753 49.7656 34.9829 49.5947 35.564 49.5947C36.0596 49.5947 36.3159 49.7314 36.5723 49.7998C36.6748 49.834 36.7944 49.8682 36.9141 49.8682C37.4097 49.8682 37.8027 49.4751 37.8027 48.9966C37.8027 48.6548 37.5977 48.3984 37.3413 48.0908C37.3242 48.0566 37.2729 48.0908 37.2729 48.125C37.2729 48.501 36.9482 48.8257 36.5723 48.8257C36.2817 48.8257 35.9058 48.5693 35.5298 48.5693C35.2051 48.5693 34.7437 48.8257 34.4531 48.8257ZM33.9917 47.8687C33.9917 48.1934 34.248 48.4497 34.5728 48.4497C34.6069 48.4497 34.6411 48.4497 34.6924 48.4326C34.7095 48.4326 34.7266 48.4326 34.7437 48.4155H34.7607C34.9658 48.3472 35.1538 48.2617 35.5127 48.2617C35.8716 48.2617 36.0425 48.3643 36.2476 48.4155C36.3159 48.4326 36.3843 48.4497 36.4526 48.4497C36.7773 48.4497 37.0337 48.1934 37.0337 47.8687C37.0337 47.7832 37.0166 47.6978 36.9824 47.6294C36.9653 47.5952 36.9482 47.561 36.9312 47.5439C36.9312 47.5439 35.9399 46.1938 35.9058 46.1597C35.8545 46.0913 35.7861 46.1255 35.752 46.1426C35.7007 46.1597 35.5811 46.1938 35.4956 46.1938C35.4102 46.1938 35.3076 46.1768 35.2563 46.1426C35.188 46.1084 35.1367 46.0913 35.1025 46.1597C35.0684 46.2109 34.3506 47.1851 34.1284 47.4927C34.043 47.5952 33.9917 47.7148 33.9917 47.8687ZM38.5547 47.4243C38.4351 47.8003 38.042 47.9883 37.666 47.8687C37.6147 47.8516 37.5806 47.8857 37.6147 47.937C37.8369 48.2617 38.0249 48.5352 38.3496 48.6548C38.811 48.8086 39.3237 48.5522 39.4604 48.0908C39.4775 48.0566 39.4775 48.0396 39.4775 48.0054C39.4946 47.9712 39.4946 47.9199 39.5117 47.8687C39.5459 47.5098 39.4604 47.1851 39.6484 46.6211C39.8022 46.1597 40.0073 45.9546 40.1611 45.7324C40.2295 45.647 40.2979 45.5444 40.332 45.4419C40.4858 44.9805 40.2295 44.4678 39.7681 44.3311C39.4434 44.2285 39.1187 44.3481 38.7427 44.4849C38.7085 44.502 38.7085 44.5361 38.7598 44.5532C39.1357 44.6729 39.3408 45.0659 39.2212 45.4419C39.1357 45.7153 38.7769 45.9888 38.6572 46.3477C38.5547 46.6382 38.6572 47.1338 38.5547 47.4243ZM37.4951 47.561C37.8027 47.6636 38.1445 47.4927 38.2471 47.1851C38.2642 47.1509 38.2642 47.1167 38.2642 47.0654C38.2642 47.0483 38.2642 47.0313 38.2642 47.0142V46.9971C38.2642 46.792 38.23 46.5698 38.3325 46.2451C38.4521 45.9033 38.5889 45.7666 38.7085 45.5957C38.7427 45.5444 38.7769 45.4761 38.811 45.4077C38.9136 45.1001 38.7427 44.7754 38.4351 44.6729C38.3496 44.6558 38.2642 44.6387 38.1958 44.6558C38.1616 44.6558 38.1274 44.6558 38.0933 44.6729C38.0933 44.6729 36.4868 45.1855 36.4355 45.2026C36.3672 45.2368 36.3672 45.3052 36.3672 45.3394C36.3672 45.3906 36.3501 45.5103 36.333 45.5957C36.3159 45.6641 36.2646 45.7666 36.2134 45.8179C36.1621 45.8691 36.1279 45.9204 36.1792 45.9717C36.2305 46.023 36.9141 46.9971 37.1533 47.3047C37.2388 47.4243 37.3584 47.5098 37.4951 47.561ZM38.4521 43.0835C38.7769 43.3057 38.8452 43.75 38.606 44.0576C38.5718 44.0918 38.606 44.1431 38.6572 44.126C39.0503 44.0234 39.3579 43.9209 39.563 43.6475C39.8535 43.2544 39.7681 42.7075 39.375 42.417C39.3579 42.3999 39.3237 42.3828 39.2896 42.3657C39.2554 42.3315 39.2212 42.3145 39.1528 42.2974C38.8281 42.1606 38.4863 42.1265 38.0078 41.7847C37.6147 41.4941 37.478 41.2378 37.3071 41.0156C37.2559 40.9302 37.1704 40.8447 37.0679 40.7593C36.6748 40.4688 36.1108 40.5542 35.8374 40.9473C35.6494 41.2207 35.6494 41.5625 35.6665 41.9556C35.6665 41.9897 35.7178 42.0068 35.7349 41.9556C35.957 41.648 36.4014 41.5796 36.7261 41.8018C36.9653 41.9727 37.1191 42.3999 37.4268 42.605C37.7002 42.8613 38.2129 42.9126 38.4521 43.0835ZM38.2642 44.1431C38.4521 43.8867 38.4009 43.5107 38.1274 43.3228C38.1104 43.3057 38.0762 43.2715 38.0249 43.2544C38.0078 43.2544 37.9907 43.2373 37.9736 43.2373H37.9565C37.7515 43.1689 37.5464 43.1348 37.2559 42.9297C36.9653 42.7246 36.8799 42.5366 36.7603 42.3828C36.7261 42.3315 36.6748 42.2803 36.6235 42.229C36.3672 42.041 35.9912 42.0923 35.8032 42.3657C35.752 42.4341 35.7178 42.5024 35.7007 42.5879C35.7007 42.6221 35.6836 42.6563 35.6836 42.6904C35.6836 42.6904 35.6836 44.3652 35.6836 44.4165C35.6836 44.502 35.752 44.502 35.8032 44.519C35.8545 44.5361 35.9741 44.5874 36.0254 44.6216C36.0938 44.6729 36.1621 44.7412 36.1963 44.7925C36.2305 44.8438 36.2646 44.895 36.333 44.8608C36.4014 44.8267 37.5464 44.4678 37.9053 44.3481C38.0591 44.3311 38.1787 44.2456 38.2642 44.1431ZM34.2822 41.853C34.5898 41.6309 35.0342 41.6992 35.2734 42.0068C35.3076 42.041 35.3589 42.041 35.3589 41.9897C35.376 41.5967 35.376 41.2549 35.188 40.9814C34.9146 40.5884 34.3506 40.5029 33.9575 40.7935C33.9233 40.8105 33.9063 40.8276 33.8892 40.8447C33.855 40.8618 33.8208 40.896 33.7866 40.9473C33.5474 41.2207 33.4106 41.5283 32.9321 41.8701C32.5391 42.1606 32.2485 42.2119 31.9922 42.2803C31.8896 42.3145 31.77 42.3486 31.6846 42.417C31.2915 42.7075 31.189 43.2544 31.4966 43.6475C31.7017 43.9209 32.0264 44.0234 32.4023 44.126C32.4365 44.1431 32.4536 44.0918 32.4365 44.0576C32.2144 43.75 32.2827 43.3057 32.5903 43.0835C32.8296 42.9126 33.2739 42.8955 33.5815 42.6733C33.8208 42.5024 34.043 42.0239 34.2822 41.853ZM35.2393 42.3657C35.0513 42.1094 34.6753 42.041 34.4189 42.229C34.3848 42.2461 34.3677 42.2632 34.3335 42.2974C34.3164 42.3145 34.3164 42.3145 34.2993 42.3315L34.2822 42.3486C34.1626 42.5195 34.0601 42.7075 33.7695 42.9126C33.479 43.1177 33.2739 43.1348 33.0859 43.2202C33.0176 43.2373 32.9492 43.2715 32.8979 43.3057C32.6416 43.4937 32.5732 43.8525 32.7612 44.126C32.8125 44.1943 32.8809 44.2456 32.9492 44.2798C32.9834 44.2969 33.0005 44.314 33.0347 44.314C33.0347 44.314 34.6411 44.8267 34.6924 44.8438C34.7778 44.8608 34.812 44.8096 34.8291 44.7754C34.8633 44.7412 34.9316 44.6387 35 44.5874C35.0684 44.5361 35.1538 44.502 35.2222 44.4849C35.2905 44.4678 35.3418 44.4507 35.3418 44.3823C35.3418 44.314 35.3418 43.1177 35.3418 42.7417C35.3589 42.6221 35.3247 42.4854 35.2393 42.3657ZM31.8213 45.4248C31.7017 45.0488 31.9067 44.6558 32.2656 44.5361C32.3169 44.519 32.3169 44.4678 32.2827 44.4507C31.9067 44.314 31.582 44.1943 31.2744 44.2969C30.813 44.4336 30.5566 44.9463 30.7104 45.4077C30.7104 45.4419 30.7275 45.459 30.7446 45.4932C30.7617 45.5273 30.7788 45.5786 30.813 45.6299C31.001 45.9375 31.2573 46.1597 31.4453 46.7236C31.5991 47.1851 31.5479 47.4756 31.5479 47.749C31.5308 47.8516 31.5479 47.9712 31.582 48.0908C31.7358 48.5522 32.2314 48.8086 32.6929 48.6548C33.0176 48.5522 33.2056 48.2788 33.4277 47.937C33.4448 47.9028 33.4106 47.8687 33.3765 47.8857C33.0005 48.0054 32.6074 47.8003 32.4878 47.4414C32.4023 47.168 32.522 46.7407 32.4023 46.3818C32.2998 46.0571 31.9067 45.6982 31.8213 45.4248ZM32.5903 44.6899C32.2827 44.7925 32.1118 45.1172 32.2144 45.4248C32.2144 45.459 32.2314 45.4932 32.2656 45.5273C32.2827 45.5444 32.2827 45.5615 32.2998 45.5615C32.2998 45.5615 32.2998 45.5786 32.3169 45.5786C32.4365 45.7495 32.5903 45.9033 32.71 46.228C32.8296 46.5698 32.7783 46.7578 32.7954 46.9629C32.7954 47.0312 32.7954 47.0996 32.8296 47.168C32.9321 47.4756 33.2568 47.6465 33.5645 47.5439C33.6499 47.5269 33.7183 47.4756 33.7695 47.4243C33.7866 47.4072 33.8208 47.373 33.8379 47.356C33.8379 47.356 34.8291 46.0059 34.8462 45.9546C34.8975 45.8862 34.8462 45.835 34.812 45.8008C34.7778 45.7666 34.7095 45.6641 34.6924 45.5786C34.6753 45.5103 34.6582 45.4077 34.6582 45.3394C34.6582 45.271 34.6582 45.2197 34.5898 45.2026C34.5215 45.1855 33.3765 44.8096 33.0176 44.6899C32.8809 44.6558 32.7441 44.6387 32.5903 44.6899Z" fill="#EE3124"/>
<path d="M40.4351 27.2412L44.041 25.9937C44.041 25.9937 43.7334 27.4976 43.8188 28.6597C43.9214 30.1636 44.793 31.3086 44.793 31.3086L40.3496 32.8467L40.4351 27.2412Z" fill="#FFC758"/>
<path d="M44.7919 31.3086C44.7919 31.3086 44.0058 30.1807 43.8691 28.8647C43.7665 27.8735 43.8691 27.019 44.04 25.9937C43.8861 26.6772 43.3051 28.6084 41.6816 30.4028C41.0321 31.1206 40.7416 31.7529 40.622 32.1973L40.5536 23.7036C40.5536 23.7036 39.6991 24.0112 39.6137 24.0283C39.5111 24.0625 39.4599 24.1309 39.4599 24.148C39.4599 24.1992 39.4257 24.2334 39.3573 24.2505C39.289 24.2676 38.7934 24.4556 38.4516 24.5581C38.3832 24.5752 38.4174 24.6436 38.4516 24.6436C38.8617 24.6265 39.4428 24.5752 39.4941 24.5752C39.5795 24.5581 39.6137 24.5239 39.6137 24.4727C39.6137 24.4727 39.6137 24.4727 39.6137 24.4556C39.6308 24.3872 39.682 24.3359 39.7504 24.3359C39.8017 24.3359 40.1093 24.3018 40.2973 24.2676L40.2118 33.4106H40.622V32.7612L44.7919 31.3086Z" fill="#D4A11E"/>
<path d="M28.8143 33.0859C28.8143 33.0859 28.1478 32.5903 27.9598 31.6504C27.7718 30.6934 28.2503 30.1465 28.2503 30.1465L32.6253 28.6426C32.6253 28.6426 32.3519 29.5142 32.6082 30.5054C32.9329 31.7529 33.5994 32.5903 33.5994 32.5903C33.5994 32.5903 31.993 32.2827 30.4378 32.4878C28.9681 32.6758 28.8143 33.0859 28.8143 33.0859Z" fill="#FFC758"/>
<path d="M23.7891 31.9922C23.7891 31.9922 24.3359 30.5054 25.9253 28.8818C27.1387 27.6514 27.9248 27.2925 27.9248 27.2925C27.9248 27.2925 27.2241 28.3008 26.9336 29.9585C26.7456 30.9839 26.9507 32.2827 26.9507 32.2827C26.9507 32.2827 26.1304 32.1118 25.1904 32.0093C24.4043 31.9238 23.7891 31.9922 23.7891 31.9922Z" fill="#FFC758"/>
<path d="M27.9252 27.2925C27.9252 27.2925 27.2416 28.3008 26.9511 29.9585C26.7631 30.9839 26.9682 32.2827 26.9682 32.2827C26.9682 32.2827 26.7631 32.2314 26.2846 32.1289C24.3363 31.6846 27.9252 27.2925 27.9252 27.2925Z" fill="#D4A11E"/>
<path d="M30.4882 28.4888L30.454 24.5581C30.3686 24.5923 29.5995 24.8486 29.5141 24.8828C29.4115 24.917 29.3603 24.9854 29.3603 25.0195C29.3603 25.0708 29.3261 25.105 29.2577 25.1221C29.1894 25.1392 28.6938 25.3101 28.352 25.4297C28.2836 25.4468 28.3178 25.5151 28.352 25.5151C28.745 25.498 29.3432 25.4468 29.3944 25.4468C29.4799 25.4297 29.5141 25.3955 29.5312 25.3442C29.5312 25.3442 29.5312 25.3442 29.5312 25.3271C29.5483 25.2588 29.5995 25.2075 29.6679 25.2075C29.7192 25.2075 30.0097 25.1733 30.2148 25.1562L30.1806 28.5059H30.4882V28.4888Z" fill="#D4A11E"/>
<path d="M35.5819 24.9341H35.8896V21.1572C35.8896 21.1572 35.0351 21.4648 34.9496 21.4819C34.8471 21.5161 34.7958 21.5845 34.7958 21.6016C34.7958 21.6528 34.7616 21.687 34.6933 21.7041C34.6249 21.7212 34.1293 21.8921 33.7875 22.0117C33.7192 22.0288 33.7533 22.0972 33.7875 22.0972C34.1977 22.0801 34.7787 22.0288 34.83 22.0288C34.9154 22.0117 34.9496 21.9775 34.9667 21.9263C34.9838 21.8579 35.0351 21.8066 35.1034 21.8066C35.1547 21.8066 35.4281 21.7725 35.6332 21.7554L35.5819 24.9341Z" fill="#D4A11E"/>
<path d="M34.8115 22.0459H34.8286C34.9141 22.0288 34.9482 21.9946 34.9482 21.9434C34.9482 21.8921 34.9824 21.8579 35.0337 21.8408L34.9312 21.5161C34.8286 21.5503 34.7944 21.6187 34.7944 21.6357C34.7944 21.687 34.7603 21.7041 34.709 21.7212L34.8115 22.0459Z" fill="#FFC758"/>
<path d="M29.3779 25.4297H29.395C29.4805 25.4126 29.5146 25.3784 29.5146 25.3271C29.5317 25.2759 29.5488 25.2417 29.6001 25.2246L29.4976 24.8999C29.395 24.9341 29.3608 25.0024 29.3608 25.0195C29.3608 25.0708 29.3267 25.0879 29.2754 25.105L29.3779 25.4297Z" fill="#FFC758"/>
<path d="M39.46 24.5752H39.4771C39.5625 24.5581 39.5967 24.5239 39.5967 24.4727C39.6138 24.4214 39.6309 24.3872 39.6821 24.3701L39.5796 24.0454C39.477 24.0796 39.4429 24.1479 39.4429 24.165C39.4429 24.2163 39.4087 24.2334 39.3574 24.2505L39.46 24.5752Z" fill="#FFC758"/>
<path d="M33.5983 32.5903C33.5983 32.5903 32.8976 31.5649 32.6242 30.4712C32.3849 29.5312 32.6242 28.6426 32.6242 28.6426C32.6242 28.6426 32.1628 30.249 31.0519 31.1206C30.2829 31.7358 28.3859 32.2998 28.8302 33.0859C28.8986 32.9834 29.0866 32.7783 29.8556 32.5903C29.9411 32.5732 30.0436 32.5561 30.1462 32.5391V33.8379H30.5563V32.4878C31.9748 32.334 33.5983 32.5903 33.5983 32.5903Z" fill="#D4A11E"/>
<path d="M28.353 29.873C28.353 29.873 27.8403 29.5654 27.9086 28.5742C27.977 27.5488 28.4897 27.1045 28.4897 27.0703L31.8906 25.9082C31.8906 25.9082 31.6342 26.4209 31.8222 27.1899C32.0273 28.1128 32.6254 28.6426 32.6254 28.6426C32.6254 28.6426 30.9164 28.6597 29.3783 29.1895C28.6264 29.4458 28.353 29.873 28.353 29.873Z" fill="#FFC758"/>
<path d="M30.3686 27.7368C31.3427 26.9336 31.8725 25.9082 31.8725 25.9082C31.8725 25.9082 31.7358 26.5576 31.8383 27.1387C32.0263 28.1299 32.6074 28.6426 32.6074 28.6426C32.6074 28.6426 31.2231 28.6597 29.7363 29.0869C28.7451 29.3604 28.4374 29.7534 28.352 29.8901C28.0273 29.1382 29.3774 28.5571 30.3686 27.7368Z" fill="#D4A11E"/>
<path d="M34.2488 33.3423C34.2488 33.3423 33.3089 32.6416 33.0867 31.3257C32.8987 30.2832 33.5994 29.5312 33.5994 29.5312L38.9144 27.7026C38.9144 27.7026 38.6238 28.8818 38.8973 30.0098C39.2049 31.2744 40.367 32.8467 40.367 32.8467C40.367 32.8467 38.1624 32.2144 36.2483 32.4536C34.4197 32.6929 34.2488 33.3423 34.2488 33.3423Z" fill="#FFC758"/>
<path d="M33.1714 24.917C33.1372 24.1138 33.7012 23.4644 33.7183 23.4302L37.5293 22.0972C37.5293 22.0972 37.273 22.6953 37.3413 23.208C37.461 24.1821 38.0078 24.6948 38.0078 24.6948C38.0078 24.6948 36.5039 24.6094 34.7437 25.2246C33.7696 25.5664 33.667 26.0278 33.667 26.0278C33.667 26.0278 33.2056 25.9082 33.1714 24.917Z" fill="#FFC758"/>
<path d="M36.1782 23.8916C36.8618 23.2935 37.5283 22.1143 37.5283 22.1143C37.5283 22.1143 37.272 22.7124 37.3403 23.2251C37.46 24.1992 38.0068 24.7119 38.0068 24.7119C38.0068 24.7119 36.3833 24.6948 34.8281 25.2417C34.1616 25.481 33.7344 25.8398 33.6831 26.0449C33.4609 25.293 35.2383 24.7119 36.1782 23.8916Z" fill="#D4A11E"/>
<path d="M33.7179 29.3091C33.7179 29.3091 33.171 28.6768 33.0684 27.6855C32.9659 26.6602 33.564 26.25 33.6153 26.2158L38.0245 24.6948C38.0245 24.6948 37.9049 25.0195 38.0074 25.9082C38.1099 26.6602 38.8448 27.6855 38.8448 27.6855C38.8448 27.6855 36.4864 27.7539 35.0338 28.3179C34.1109 28.6768 33.7179 29.3091 33.7179 29.3091Z" fill="#FFC758"/>
<path d="M36.6399 26.7627C37.5969 25.9424 38.0242 24.7119 38.0242 24.7119C38.0242 24.7119 37.9045 25.4126 38.0242 25.9595C38.2463 26.9165 38.9299 27.7197 38.9299 27.7197C38.9299 27.7197 36.8791 27.7539 35.3923 28.2495C34.4182 28.5742 33.8201 29.1553 33.7346 29.3262C33.5124 28.4888 35.6828 27.583 36.6399 26.7627Z" fill="#D4A11E"/>
<path d="M40.4518 32.9321C40.4518 32.9321 39.2555 31.377 38.8966 30.0098C38.6744 29.104 38.8453 28.0786 38.9137 27.7197C38.777 28.1982 38.2985 29.7534 37.1193 30.8472C35.9913 31.8896 33.7696 32.3853 34.2482 33.3594C34.3336 33.2056 34.59 32.8296 35.4957 32.6074L35.4786 33.855H35.9059V32.522C37.8712 32.2144 40.4518 32.9321 40.4518 32.9321Z" fill="#D4A11E"/>
<path fill-rule="evenodd" clip-rule="evenodd" d="M42.5028 35.8545C42.7762 35.8032 43.0496 35.7349 43.4598 35.6323C43.4427 35.6152 43.4085 35.5981 43.3914 35.5811C42.9471 35.0854 43.0155 34.5557 43.2889 34.2993C44.2801 33.3765 44.263 32.6929 44.263 32.6929C44.263 32.6929 41.8534 33.1885 38.6746 33.3594C38.4696 33.3765 37.7347 33.7012 37.5125 33.7012C37.0682 33.7183 36.6239 33.7354 36.1624 33.7354C30.1639 33.7866 28.4891 33.3594 26.5238 33.0005C24.5243 32.6245 23.6527 32.2314 23.6527 32.2314L23.5843 32.4365C23.5843 32.4365 25.1566 33.0518 26.2845 33.5986C26.5238 33.7183 27.4637 35.1196 27.7713 35.5981H20.6449C20.2518 27.4292 21.8241 20.7471 21.8241 20.7471C21.8241 20.7471 27.2757 19.585 35.4788 19.585V18.7134C26.7801 18.7134 20.9867 19.9438 20.9867 19.9438C20.9867 19.9438 18.4574 28.8647 19.7904 39.4946C20.3543 43.9209 24.0116 52.2095 35.4447 56.0547L35.9403 55.354L35.4447 54.6533C24.6781 51.0474 21.5335 43.75 20.9867 39.5972C20.867 38.6743 20.7816 37.7515 20.7132 36.8628H35.4959V35.6152H27.908C28.0789 35.0684 28.6087 34.9316 29.2752 35.0854C29.9588 35.2563 30.6424 35.4272 31.2918 35.3931C32.9154 35.3076 32.6761 34.8804 32.8299 34.8804C34.5047 34.9829 35.137 35.3931 36.5897 35.3589C37.9227 35.3418 38.3841 34.9829 38.5037 34.9829C40.1273 34.9658 40.7425 35.7178 42.366 35.8545C42.4173 35.8545 42.4686 35.8545 42.5028 35.8545Z" fill="#FFC758"/>
<path fill-rule="evenodd" clip-rule="evenodd" d="M49.9531 19.9438C49.9531 19.9438 44.1768 18.7134 35.478 18.7134V19.585C43.6811 19.585 49.1157 20.7471 49.1157 20.7471C49.1157 20.7471 50.7051 27.4292 50.2949 35.5981H43.1514C42.5874 35.0513 42.9121 34.3335 43.1001 34.1626C43.9375 33.4106 43.9375 32.8979 43.9375 32.8979C43.9375 32.8979 42.0063 33.3765 38.8276 33.5132C38.6226 33.5132 37.7339 33.9233 37.5117 33.9233C37.0674 33.9404 36.4521 33.9575 35.9907 33.9575C31.855 33.9575 29.8213 33.8721 26.2324 33.103C26.3008 33.1885 26.335 33.2227 26.4033 33.3252C26.4204 33.3594 27.9756 33.7524 27.9927 33.7866C28.2319 34.1113 28.5396 34.3335 28.9155 34.5386C29.4966 34.8462 30.3511 35.1025 31.0518 35.1538C32.6753 35.2563 32.3677 34.6411 32.5215 34.6411C34.1792 34.6069 35.2559 35.2051 36.7085 35.188C38.0415 35.1709 38.0757 34.7437 38.2124 34.7437C39.5283 34.6753 40.8613 35.2393 42.0063 35.6152H35.478V36.8628H50.2095C50.1411 37.7686 50.0557 38.6743 49.936 39.5972C49.3892 43.7671 46.2446 51.0474 35.478 54.6533V56.0547C46.9111 52.2095 50.5854 43.938 51.1323 39.4946C52.4824 28.8647 49.9531 19.9438 49.9531 19.9438Z" fill="#D4A11E"/>
<path d="M8.7832 23.7891L9.38135 22.644L12.0815 22.4561L10.7144 20.1147L11.3125 18.9868L16.1147 21.5161L15.5679 22.5586L12.4233 20.918L13.7734 23.3447L13.7563 23.3618L11.022 23.6353L14.1323 25.2759L13.5854 26.3184L8.7832 23.7891Z" fill="#00285E"/>
<path d="M14.2695 15.2441L15.0215 14.4409L20.5928 16.4917L19.7383 17.3975L18.5078 16.9189L16.9355 18.5938L17.4824 19.79L16.645 20.6787L14.2695 15.2441ZM17.4653 16.5259L15.688 15.8423L16.4741 17.5684L17.4653 16.5259Z" fill="#00285E"/>
<path d="M18.5762 11.2964L19.5161 10.7324L23.4297 12.2705L21.7036 9.4165L22.7119 8.80127L25.5147 13.4326L24.6431 13.9624L20.6099 12.373L22.4043 15.3296L21.396 15.9448L18.5762 11.2964Z" fill="#00285E"/>
<path d="M25.874 10.3564C25.4467 8.85246 26.1987 7.31438 27.8051 6.85295C28.7792 6.56242 29.4799 6.73332 30.0952 7.05803L29.5996 8.1176C29.0869 7.86125 28.6254 7.75871 28.0956 7.91252C27.2241 8.16887 26.7968 9.07463 27.0532 9.98039V9.99748C27.3095 10.8862 28.1469 11.4501 29.0356 11.1938C29.6337 11.0229 29.9243 10.6811 30.2319 10.1855L31.1718 10.7153C30.7958 11.4501 30.3002 11.9799 29.309 12.2704C27.788 12.7148 26.3012 11.8603 25.874 10.3564Z" fill="#00285E"/>
<path d="M32.3848 5.99853L33.564 5.96436L33.6323 8.11768L35.8198 8.06641L35.7686 5.91309L36.9648 5.87891L37.1016 11.3135L35.9053 11.3477L35.854 9.16016L33.6494 9.22852L33.7178 11.3989L32.5215 11.4331L32.3848 5.99853Z" fill="#00285E"/>
<path d="M43.9883 12.0484L44.9795 11.5699C45.2529 12.1338 45.6118 12.5953 46.1758 12.8516C46.6201 13.0567 46.9619 13.0054 47.0986 12.7149V12.6978C47.2354 12.4244 47.1157 12.2022 46.3979 11.6211C45.5264 10.9034 45.0137 10.3394 45.458 9.36529V9.3482C45.8682 8.45953 46.8594 8.20318 47.8677 8.6646C48.5854 8.98931 49.0981 9.50201 49.4058 10.1343L48.4658 10.6983C48.1753 10.1856 47.8164 9.80962 47.4063 9.62164C46.9961 9.43365 46.6885 9.5191 46.5688 9.75835V9.77544C46.415 10.1002 46.5859 10.3052 47.3379 10.9205C48.2095 11.6382 48.6196 12.2706 48.2095 13.1251V13.1421C47.7651 14.1163 46.7568 14.3213 45.6973 13.8428C44.9795 13.4669 44.3472 12.8516 43.9883 12.0484Z" fill="#00285E"/>
<path d="M51.917 12.373L50.6011 11.3647L51.2676 10.4932L54.8394 13.2104L54.1728 14.0991L52.8569 13.0908L50.2422 16.5259L49.2852 15.8081L51.917 12.373Z" fill="#00285E"/>
<path d="M60.4971 20.0806L61.6079 22.3022C61.9155 22.9175 61.9839 23.4814 61.8301 23.96C61.6934 24.3701 61.3857 24.6948 60.9243 24.9341H60.9072C60.1211 25.3271 59.4204 25.1562 58.8735 24.6436L57.7285 26.6943L57.0962 25.4468L58.1216 23.6182L57.6943 22.7808L56.1392 23.5669L55.6094 22.5073L60.4971 20.0806ZM59.2153 23.4131C59.4717 23.9258 59.8989 24.0967 60.3091 23.8916H60.3262C60.7876 23.6694 60.856 23.2251 60.5996 22.7124L60.0698 21.6528L58.6855 22.3535L59.2153 23.4131Z" fill="#00285E"/>
<path d="M40.3657 9.63867L42.3652 10.0659L42.9292 9.10889L40.605 8.59619L40.8271 7.51953L43.6641 8.13477L43.9033 7.10937L39.8872 6.23779L38.7422 11.5356L42.7925 12.4243L43.0146 11.3818L40.1265 10.7495L40.3657 9.63867Z" fill="#00285E"/>
<path d="M56.4805 14.834L52.3105 18.3203L54.9766 21.4819L55.7798 20.7983L53.8999 18.5425L54.7715 17.8076L56.1045 19.397L57.1812 19.0381L55.5918 17.124L56.4292 16.4233L58.292 18.645L59.1123 17.9614L56.4805 14.834Z" fill="#00285E"/>
<path d="M26.334 61.1133C26.334 59.5239 27.5132 58.2422 29.2222 58.2422C30.2646 58.2422 30.8799 58.584 31.4097 59.0967L30.6406 59.9854C30.2134 59.5923 29.7861 59.3701 29.2222 59.3701C28.2822 59.3701 27.6157 60.1392 27.6157 61.0962V61.1133C27.6157 62.0532 28.2651 62.8564 29.2222 62.8564C29.8545 62.8564 30.2476 62.6001 30.6748 62.207L31.4438 62.9932C30.8799 63.6084 30.2476 63.9844 29.1709 63.9844C27.5474 63.9502 26.334 62.6856 26.334 61.1133Z" fill="#00285E"/>
<path d="M32.623 58.3276H33.8364V63.8477H32.623V58.3276Z" fill="#00285E"/>
<path d="M36.6553 59.4556H34.9805V58.3276H39.5605V59.4556H37.8857V63.8648H36.6724V59.4556H36.6553Z" fill="#00285E"/>
<path d="M42.1934 61.6772L40.0742 58.3276H41.4927L42.8086 60.5493L44.1416 58.3276H45.5259L43.4067 61.6431V63.8477H42.1934V61.6772Z" fill="#00285E"/>
</svg>
