<svg width="46" height="70" viewBox="0 0 46 70" fill="none" xmlns="http://www.w3.org/2000/svg">
<path fill-rule="evenodd" clip-rule="evenodd" d="M38.7407 10.3224C34.7191 3.97986 29.1393 0.0432862 22.8884 0C10.3866 0.0639399 0.546875 15.7784 0.546875 35.0099C0.546875 44.6139 3.01147 53.3574 7.03498 59.6971C11.0578 66.037 16.6374 69.9766 22.8883 70C29.1392 69.9766 34.7191 66.037 38.7407 59.6971C42.7645 53.3574 45.2299 44.6139 45.2299 35.0099C45.2299 25.4029 42.7645 16.662 38.7407 10.3224Z" fill="#1F211D"/>
<path fill-rule="evenodd" clip-rule="evenodd" d="M42.7984 21.6244C41.6948 17.4949 40.0942 13.787 38.1255 10.6928C36.1364 7.59386 33.8005 5.0882 31.227 3.35997C28.6532 1.6561 25.8529 0.707886 22.8894 0.707886C19.926 0.707886 17.1255 1.6561 14.5517 3.35997C11.9783 5.0882 9.6423 7.59386 7.65323 10.6928C5.68458 13.787 4.0841 17.4949 2.9803 21.6244C1.87761 25.7313 1.27148 30.2605 1.27148 35.0211C1.27148 44.5003 3.7174 53.1153 7.65323 59.3086C9.6423 62.4061 11.9783 64.9105 14.5517 66.6389C17.1255 68.3459 19.926 69.2921 22.8894 69.2921C25.8529 69.2921 28.6532 68.3459 31.227 66.6389C33.8005 64.9105 36.1364 62.4061 38.1255 59.3086C42.0613 53.1153 44.5072 44.5003 44.5072 35.0211C44.5072 30.2605 43.9011 25.7313 42.7984 21.6244Z" fill="#E21C2A"/>
<path fill-rule="evenodd" clip-rule="evenodd" d="M22.8893 67.3346C11.8376 67.2692 3.19727 52.7369 3.19727 35.0212C3.19727 17.285 11.8376 2.74983 22.8893 2.6875C33.941 2.74983 42.5814 17.285 42.5814 35.0212C42.5814 52.7369 33.941 67.2692 22.8893 67.3346Z" fill="#1F211D"/>
<path fill-rule="evenodd" clip-rule="evenodd" d="M22.8877 16.0001C30.3063 16.0001 36.7388 20.0236 40.0489 25.9417C39.1617 21.1207 37.6267 16.7999 35.5707 13.3032C32.3065 7.76297 27.8194 4.39629 22.8877 4.37366C17.956 4.39629 13.4689 7.76297 10.2047 13.3032C8.14874 16.7999 6.61368 21.1207 5.72656 25.9417C9.0366 20.0236 15.4691 16.0001 22.8877 16.0001Z" fill="white"/>
<path fill-rule="evenodd" clip-rule="evenodd" d="M22.889 54.0209C15.4704 54.0209 9.05905 49.9993 5.75 44.0796C6.61498 48.9022 8.15004 53.2199 10.206 56.6983C11.849 59.4558 13.7737 61.7109 15.9364 63.2477C18.0773 64.806 20.4239 65.6492 22.889 65.6492C25.3542 65.6492 27.7007 64.806 29.8416 63.2477C32.0043 61.7109 33.9291 59.4558 35.572 56.6983C37.6279 53.2199 39.163 48.9022 40.028 44.0796C36.7189 49.9993 30.3076 54.0209 22.889 54.0209Z" fill="white"/>
<path fill-rule="evenodd" clip-rule="evenodd" d="M29.3667 54.1837C28.1589 54.5882 27.4825 55.5077 27.9578 56.8527C28.2781 57.7667 29.2396 58.3276 30.4233 57.9351C30.8363 57.7923 31.2866 57.5437 31.4308 57.0771L31.4549 57.0894C31.8515 58.2435 31.4549 58.7158 30.9773 58.9549C30.5051 59.1771 30.0703 59.0633 29.7883 58.7321L29.7851 58.7266L28.9896 59.2626C29.4508 59.9351 30.315 60.1409 31.268 59.8206C32.3837 59.4475 33.269 58.3846 32.5248 56.273C32.256 55.5006 31.504 53.4693 29.3667 54.1837ZM30.3797 56.9889C29.9184 57.1408 29.2989 57.1433 29.0113 56.3251C28.737 55.5444 29.3565 55.1749 29.666 55.0799C30.2955 54.8719 30.7303 55.1506 30.9532 55.7672C31.1807 56.42 30.8035 56.845 30.3797 56.9889Z" fill="#1F211D"/>
<path fill-rule="evenodd" clip-rule="evenodd" d="M23.2336 14.5862C24.4967 14.5862 25.6367 14.0594 26.4245 13.2167L25.4902 12.3841C24.9308 12.9767 24.1274 13.3518 23.2336 13.3518C21.5396 13.3518 20.165 12.0166 20.165 10.366C20.165 8.70537 21.5396 7.36783 23.2336 7.36783C24.1274 7.36783 24.9308 7.74466 25.4902 8.33682L26.4222 7.49954C25.6289 6.66078 24.4967 6.13318 23.2336 6.13318C20.841 6.13318 18.9004 8.02714 18.9004 10.366C18.9004 12.6943 20.841 14.5862 23.2336 14.5862Z" fill="#1F211D"/>
<path fill-rule="evenodd" clip-rule="evenodd" d="M29.1979 11.1674L30.1236 15.882C30.3441 15.9735 30.5585 16.0597 30.7781 16.159L32.0897 13.0191L33.4633 17.5628C34.0011 17.901 34.5285 18.273 35.0304 18.6638L32.6468 10.8144L31.9025 10.2417L30.8273 12.8305L29.9335 8.68743L28.8995 8.01538L26.7402 14.9138C27.1447 14.9921 27.5445 15.0794 27.9433 15.1826L29.1979 11.1674Z" fill="#1F211D"/>
<path fill-rule="evenodd" clip-rule="evenodd" d="M13.614 15.0911L17.3788 13.6324L17.8572 15.1815C18.2476 15.0782 18.6481 14.9921 19.0487 14.9138L16.9186 8.01538L15.3606 8.99179L10.4512 18.9042C11.0683 18.4067 11.7248 17.9439 12.4015 17.5179L13.614 15.0911ZM16.21 9.86754L17.0204 12.4796L14.4096 13.4906L16.21 9.86754Z" fill="#1F211D"/>
<path fill-rule="evenodd" clip-rule="evenodd" d="M24.504 55.1149C23.2331 55.2223 22.3479 55.9487 22.4679 57.3661C22.5536 58.3191 23.3445 59.1015 24.5912 58.9954C25.0307 58.9626 25.5224 58.8271 25.7835 58.4181L25.8022 58.4305C25.8949 59.6444 25.3869 60.0106 24.8679 60.1143C24.3552 60.2281 23.964 60.0177 23.7754 59.628V59.6188L22.87 59.9539C23.1427 60.7003 23.9352 61.1057 24.9357 61.0269C26.1062 60.9318 27.2329 60.1143 27.0435 57.8914C26.9803 57.0753 26.7583 54.9357 24.504 55.1149ZM24.7892 58.0666C24.3006 58.1101 23.6975 57.9715 23.6219 57.1058C23.5565 56.2743 24.246 56.0733 24.5772 56.0517C25.2318 55.9978 25.5903 56.3657 25.6471 57.0239C25.7071 57.7135 25.2318 58.0369 24.7892 58.0666Z" fill="#1F211D"/>
<path fill-rule="evenodd" clip-rule="evenodd" d="M19.6431 54.9062C18.5201 54.7088 17.5372 55.1506 17.3646 56.1333C17.2668 56.6615 17.4717 57.07 17.9389 57.3879C16.89 57.6162 16.7557 58.379 16.7026 58.6667C16.5596 59.4529 16.9586 60.5134 18.6145 60.8064C20.3135 61.0945 21.0379 60.0519 21.1722 59.3281C21.3032 58.5855 21.025 58.1654 20.4581 57.7799C21.0184 57.6364 21.3183 57.2469 21.4083 56.7528C21.5471 55.9595 20.9693 55.1366 19.6431 54.9062ZM19.9169 59.1638C19.8456 59.5605 19.4447 60.0177 18.7855 59.8986C18.2085 59.8003 17.822 59.3616 17.9233 58.8015C18.0332 58.1857 18.6183 58.0097 19.0816 58.0977C19.7859 58.2077 19.9937 58.7577 19.9169 59.1638ZM20.2213 56.6726C20.1465 57.0794 19.7603 57.328 19.2608 57.2429C18.7154 57.1432 18.4543 56.7168 18.5123 56.3842C18.5891 55.9564 18.9912 55.7258 19.5612 55.8209C19.966 55.8941 20.2991 56.2337 20.2213 56.6726Z" fill="#1F211D"/>
<path fill-rule="evenodd" clip-rule="evenodd" d="M13.5361 54.3451L13.3635 54.2866L13.1185 54.9716L13.1267 54.9739L13.0059 55.305L13.242 55.3908C13.8654 55.6082 14.2908 55.6082 14.5752 55.4929L13.2911 59.1639L14.5156 59.5682L16.4056 54.176L15.2929 53.798C15.2068 54.0482 14.4634 54.6482 13.5361 54.3451Z" fill="#1F211D"/>
<path fill-rule="evenodd" clip-rule="evenodd" d="M35.0762 37.718V48.271C38.1479 45.5954 40.2899 41.8885 40.939 37.718H35.0762Z" fill="white"/>
<path fill-rule="evenodd" clip-rule="evenodd" d="M23.8945 52.7586C25.4084 52.6735 26.8773 52.4001 28.262 51.9996V37.718H23.8945V52.7586Z" fill="white"/>
<path fill-rule="evenodd" clip-rule="evenodd" d="M40.8518 31.7142C40.0963 27.7835 38.0298 24.3162 35.0762 21.7695V31.7142H40.8518Z" fill="white"/>
<path fill-rule="evenodd" clip-rule="evenodd" d="M23.8945 31.7142H28.262V18.0225C26.8554 17.6232 25.4084 17.3496 23.8945 17.2646V31.7142Z" fill="white"/>
<path fill-rule="evenodd" clip-rule="evenodd" d="M35.0757 21.7511H35.0547C35.0619 21.7572 35.0687 21.7635 35.0757 21.7695V21.7511Z" fill="white"/>
<path fill-rule="evenodd" clip-rule="evenodd" d="M6.85201 43.5512V26.4677C5.44633 29.0188 4.625 31.9249 4.625 35.0211C4.625 38.0968 5.44633 41.0032 6.85201 43.5512Z" fill="#E21C2A"/>
<path fill-rule="evenodd" clip-rule="evenodd" d="M29.2165 18.3381V32.6617H23.8945V36.7697L29.2165 36.7917V51.6831C30.987 51.053 32.6327 50.1442 34.1046 49.0299V36.7917H41.0887C41.1535 36.2001 41.1751 35.6119 41.1751 35.0211C41.1751 34.2217 41.1097 33.4207 41.0015 32.6617H34.1046V20.9917C32.6327 19.8755 30.987 18.97 29.2165 18.3381Z" fill="#E21C2A"/>
<path fill-rule="evenodd" clip-rule="evenodd" d="M17.0801 51.8726C18.1839 52.231 19.3086 52.4842 20.4973 52.6525V17.3688C19.3086 17.5161 18.1839 17.7915 17.0801 18.1499V51.8726Z" fill="#E21C2A"/>
<path fill-rule="evenodd" clip-rule="evenodd" d="M10.2695 47.8487C11.3082 48.8181 12.433 49.6386 13.6645 50.3577V19.6652C12.433 20.3602 11.3082 21.2013 10.2695 22.1723V47.8487Z" fill="#E21C2A"/>
</svg>
