<svg width="51" height="71" viewBox="0 0 51 71" fill="none" xmlns="http://www.w3.org/2000/svg">
<path d="M41.6542 16.2727C41.8033 16.0637 41.8872 15.8153 41.8953 15.5587C41.8951 15.4888 41.8889 15.4191 41.8766 15.3502C41.8286 15.0783 41.679 14.8347 41.4582 14.6689C41.5355 14.5125 41.5769 14.3409 41.5795 14.1665C41.5787 13.929 41.507 13.6973 41.3738 13.5008C41.2405 13.3043 41.0516 13.1521 40.8313 13.0636C41.0298 12.8481 41.1407 12.5663 41.1424 12.2734C41.1427 12.0054 41.0518 11.7454 40.8848 11.5359C40.7177 11.3264 40.4843 11.18 40.223 11.1207C40.3037 10.963 40.3473 10.7891 40.3506 10.612C40.3498 10.2975 40.2245 9.99607 40.0021 9.77366C39.7797 9.55125 39.4782 9.42594 39.1637 9.42512C39.1248 9.42512 39.0875 9.43289 39.0502 9.44067C39.079 9.33943 39.0942 9.23481 39.0953 9.12956C39.0949 8.81476 38.9697 8.51296 38.7473 8.29021C38.5248 8.06747 38.2232 7.94195 37.9084 7.94113C37.7851 7.94306 37.6629 7.96404 37.546 8.00334C37.5447 7.68908 37.4192 7.38808 37.1969 7.16601C36.9745 6.94394 36.6733 6.81884 36.3591 6.81802C36.1644 6.82257 35.9739 6.87605 35.8053 6.97356C35.7261 6.7421 35.5774 6.54076 35.3794 6.39708C35.1814 6.2534 34.9439 6.17441 34.6993 6.17091C34.5233 6.17221 34.3498 6.21282 34.1916 6.2898C34.0333 6.36677 33.8943 6.47815 33.7846 6.61579C33.5709 6.42346 33.2944 6.31563 33.0069 6.31247L32.9228 6.32179C32.9423 6.23921 32.9523 6.15465 32.9524 6.06979C32.952 5.75472 32.8267 5.45268 32.6039 5.2299C32.3811 5.00711 32.079 4.88175 31.7639 4.88133C31.6135 4.88475 31.4651 4.91696 31.3268 4.97623C31.3241 4.66558 31.1996 4.36841 30.98 4.14868C30.8693 4.03753 30.7376 3.9496 30.5926 3.89003C30.4475 3.83046 30.2921 3.80045 30.1353 3.80178C29.9293 3.80594 29.7281 3.86445 29.552 3.97135C29.4722 3.74105 29.3234 3.54098 29.1257 3.39843C28.928 3.25589 28.6912 3.17781 28.4475 3.17489C28.1803 3.17639 27.9214 3.26854 27.7133 3.43625C27.6083 3.26611 27.462 3.12534 27.2879 3.02713C27.1138 2.92893 26.9176 2.87648 26.7177 2.87468C26.6122 2.87786 26.5076 2.89513 26.4066 2.92602C26.2125 2.71695 25.9737 2.55426 25.7082 2.45002L25.5868 2.41112V1.7998H26.2806C26.3128 1.7998 26.3437 1.787 26.3664 1.76424C26.3892 1.74149 26.402 1.71064 26.402 1.67846V1.67846V0.85556C26.402 0.823381 26.3892 0.792533 26.3664 0.769779C26.3437 0.747024 26.3128 0.734222 26.2806 0.734222H25.5868V0.121338C25.5868 0.0891583 25.5741 0.0583108 25.5513 0.0355564C25.5286 0.012802 25.4977 0 25.4655 0H24.5991C24.5669 0 24.536 0.012802 24.5132 0.0355564C24.4905 0.0583108 24.4777 0.0891583 24.4777 0.121338V0.121338V0.734222H23.7855C23.7533 0.734222 23.7225 0.747024 23.6997 0.769779C23.677 0.792533 23.6642 0.823381 23.6642 0.85556V0.85556V1.67846C23.6642 1.71064 23.677 1.74149 23.6997 1.76424C23.7225 1.787 23.7533 1.7998 23.7855 1.7998H24.4777V2.42201L24.3564 2.46089C24.0908 2.56513 23.8521 2.72782 23.658 2.93689C23.5628 2.90518 23.464 2.88586 23.364 2.87935C23.164 2.88161 22.9678 2.93442 22.7938 3.03288C22.6197 3.13134 22.4733 3.27224 22.3684 3.44246C22.1603 3.27465 21.9015 3.18251 21.6342 3.18113C21.3905 3.18406 21.1536 3.26211 20.956 3.40465C20.7583 3.5472 20.6094 3.74727 20.5297 3.97757C20.3536 3.87066 20.1524 3.81218 19.9464 3.80802C19.6336 3.80841 19.3336 3.93209 19.1114 4.15224C18.8892 4.37239 18.7628 4.67125 18.7595 4.98402C18.6206 4.92485 18.4718 4.89264 18.3208 4.88912C18.0058 4.88953 17.7037 5.01487 17.4809 5.23766C17.2581 5.46044 17.1328 5.76251 17.1324 6.07758C17.1332 6.16239 17.1431 6.24685 17.162 6.32956L17.0779 6.32023C16.7904 6.32339 16.5139 6.43124 16.3002 6.62357C16.1907 6.48617 16.0519 6.37504 15.8939 6.29832C15.7359 6.2216 15.5627 6.18125 15.387 6.18023C15.1423 6.18306 14.9044 6.26181 14.7063 6.40558C14.5082 6.54936 14.3596 6.75108 14.281 6.98291C14.1119 6.88522 13.921 6.83171 13.7257 6.82735C13.4115 6.82816 13.1103 6.95327 12.8879 7.17534C12.6656 7.39741 12.5401 7.69841 12.5388 8.01267C12.4221 7.97277 12.2997 7.95177 12.1764 7.95046C11.8613 7.95087 11.5593 8.07621 11.3365 8.29899C11.1137 8.52178 10.9884 8.82382 10.988 9.13889C10.9891 9.24414 11.0042 9.34879 11.0331 9.45002C10.9942 9.45002 10.9568 9.43445 10.9195 9.43445C10.6046 9.43486 10.3027 9.56027 10.0802 9.7831C9.85762 10.0059 9.73262 10.308 9.73262 10.6229C9.73577 10.8 9.7794 10.974 9.86018 11.1316C9.59889 11.1909 9.36554 11.3373 9.19847 11.5468C9.0314 11.7562 8.94055 12.0163 8.94084 12.2842C8.94249 12.5772 9.05341 12.859 9.25192 13.0745C9.03216 13.1636 8.84388 13.316 8.71094 13.5124C8.57799 13.7087 8.50641 13.9402 8.50529 14.1774C8.50787 14.3518 8.54932 14.5234 8.62663 14.6798C8.40579 14.8456 8.2562 15.0892 8.20816 15.3611C8.19591 15.4299 8.18967 15.4997 8.18951 15.5696C8.19755 15.8262 8.28145 16.0746 8.43061 16.2836C8.27369 16.445 8.18702 16.662 8.18951 16.8871V16.9058C8.20617 17.1269 8.26841 17.3423 8.37227 17.5382C8.47614 17.7342 8.61939 17.9065 8.79306 18.0445C9.00862 18.2418 9.28127 18.3657 9.57174 18.3981C9.86221 18.4305 10.1555 18.3699 10.4093 18.2249C10.6399 18.3916 10.9027 18.5086 11.1809 18.5683C11.4591 18.628 11.7468 18.6292 12.0255 18.5718C12.0142 18.6058 12.0059 18.6406 12.0006 18.676C12.0004 18.7837 12.0243 18.89 12.0706 18.9871C12.11 19.074 12.1661 19.1522 12.2358 19.2174C12.3055 19.2825 12.3873 19.3332 12.4766 19.3667C12.5872 19.4066 12.7062 19.4168 12.8219 19.3962C12.8096 19.4157 12.7997 19.4366 12.7924 19.4584C12.7747 19.5089 12.7672 19.5625 12.7704 19.6159C12.7736 19.6693 12.7875 19.7216 12.8111 19.7696C12.8322 19.8148 12.862 19.8554 12.8988 19.889C12.9356 19.9227 12.9788 19.9487 13.0257 19.9656C13.0509 19.9738 13.077 19.9786 13.1035 19.9796L12.9371 20.6609C12.9331 20.6775 12.9346 20.6949 12.9413 20.7106C12.948 20.7263 12.9596 20.7395 12.9744 20.748L13.6573 21.1291C13.5978 21.2033 13.5649 21.2954 13.5639 21.3905C13.5642 21.4512 13.5775 21.5111 13.6029 21.5662C13.6435 21.6654 13.7219 21.7444 13.8208 21.7858C13.9197 21.8272 14.0309 21.8277 14.1302 21.7871H14.1442C17.5522 20.1794 21.2757 19.3515 25.0439 19.3636C28.8121 19.3515 32.5357 20.1794 35.9437 21.7871C35.9919 21.8093 36.044 21.8217 36.097 21.8237C36.15 21.8257 36.2029 21.8172 36.2526 21.7987C36.3024 21.7802 36.3479 21.7521 36.3868 21.7159C36.4256 21.6798 36.4569 21.6363 36.4788 21.588V21.574C36.5054 21.5187 36.5192 21.4581 36.5193 21.3967C36.5194 21.3014 36.4865 21.209 36.426 21.1353L37.1088 20.7542C37.1238 20.7459 37.1356 20.7328 37.1423 20.717C37.1491 20.7013 37.1504 20.6837 37.1462 20.6671L36.9797 19.9827C37.0425 19.9761 37.1026 19.9535 37.1541 19.917C37.2056 19.8805 37.2468 19.8313 37.2737 19.7742C37.3003 19.7189 37.3141 19.6583 37.3142 19.5969C37.3142 19.5555 37.3068 19.5144 37.2924 19.4756C37.2815 19.4468 37.2669 19.4196 37.2488 19.3947C37.4018 19.4229 37.5598 19.4 37.6984 19.3294C37.8371 19.2588 37.9486 19.1445 38.0157 19.0042C38.0609 18.9068 38.0838 18.8005 38.0826 18.6931C38.0774 18.6567 38.069 18.6208 38.0577 18.5858C38.3359 18.6443 38.6233 18.6444 38.9015 18.586C39.1797 18.5276 39.4427 18.4121 39.6739 18.2467C39.9277 18.3917 40.221 18.4523 40.5115 18.4199C40.802 18.3875 41.0746 18.2636 41.2902 18.0662C41.4638 17.9283 41.6071 17.7559 41.711 17.56C41.8148 17.364 41.8771 17.1487 41.8937 16.9276V16.9089C41.8962 16.6838 41.8095 16.4668 41.6526 16.3053L41.6542 16.2727ZM14.6248 11.0662C14.6218 11.0921 14.6218 11.1182 14.6248 11.144C14.0225 11.2704 13.4303 11.4409 12.853 11.6542C12.513 11.7882 12.192 11.966 11.898 12.1831C12.5844 10.8675 13.7043 9.82945 15.0682 9.24468C15.0837 9.51121 15.1903 9.76432 15.3699 9.96179C15.147 10.0496 14.9556 10.2025 14.8207 10.4006C14.6859 10.5987 14.6139 10.8328 14.614 11.0725L14.6248 11.0662ZM24.1573 7.084C24.0547 7.24986 24.0008 7.44123 24.0017 7.63624C24.001 7.83123 24.0548 8.02253 24.1573 8.18846V8.70179C22.0474 8.37772 19.8889 8.68738 17.9553 9.59156C18.4022 8.37707 19.2334 7.34167 20.3224 6.64259C21.4115 5.9435 22.6989 5.61895 23.9893 5.71824C23.9896 5.9121 24.0434 6.10211 24.1448 6.26734L24.1573 7.084ZM25.9384 8.70179V8.18846C26.0408 8.02253 26.0947 7.83123 26.094 7.63624C26.0949 7.44123 26.041 7.24986 25.9384 7.084V6.26891C26.0404 6.10395 26.0943 5.91374 26.094 5.71978C27.385 5.61944 28.6735 5.9435 29.7635 6.64266C30.8535 7.34181 31.6854 8.37782 32.1326 9.59312C30.1966 8.68759 28.0352 8.37787 25.9228 8.70334L25.9384 8.70179ZM37.2333 11.6573C36.6565 11.444 36.0649 11.2735 35.463 11.1471C35.463 11.1207 35.463 11.0958 35.463 11.0694C35.4622 10.8315 35.3904 10.5994 35.2568 10.4026C35.1233 10.2059 34.934 10.0535 34.7133 9.9649C34.8931 9.76689 34.9996 9.51323 35.0151 9.24622C36.3788 9.83064 37.4983 10.8688 38.1837 12.1847C37.8856 11.9691 37.5609 11.7929 37.2177 11.6604L37.2333 11.6573Z" fill="#00529F"/>
<path d="M38.5421 17.4798C38.368 17.4928 38.1938 17.4561 38.0397 17.374C37.893 17.293 37.7708 17.174 37.6859 17.0295C37.6011 16.885 37.5567 16.7203 37.5575 16.5527V16.4874C37.6704 16.3551 37.7528 16.1994 37.7986 16.0316C37.8242 15.9336 37.8372 15.8327 37.8375 15.7314C37.8374 15.5188 37.7799 15.3103 37.671 15.1278C37.5914 14.9921 37.4857 14.8735 37.3599 14.779C37.2341 14.6845 37.0908 14.6158 36.9383 14.5771C36.6325 14.5005 36.3088 14.5478 36.0376 14.7086C35.7664 14.8694 35.5696 15.1307 35.4901 15.4358L35.4621 15.6365C35.3503 15.779 35.1995 15.886 35.0279 15.9442C34.8564 16.0025 34.6716 16.0096 34.4961 15.9647C34.3036 15.9142 34.1324 15.8034 34.0073 15.6487C33.8822 15.4939 33.8098 15.3032 33.8008 15.1045C34.1034 15.208 34.4347 15.1872 34.722 15.0466C35.0093 14.906 35.229 14.6572 35.333 14.3547C35.3583 14.2804 35.3765 14.2038 35.3874 14.126C35.4301 13.9688 35.4526 13.8067 35.4543 13.6438C35.4589 13.4353 35.4025 13.23 35.2919 13.0531C35.1814 12.8762 35.0215 12.7355 34.8321 12.6483V12.6078C34.8322 12.4524 34.8032 12.2983 34.7466 12.1536C34.9254 12.0797 35.0837 11.9635 35.2078 11.8151C35.3318 11.6666 35.4181 11.4903 35.459 11.3011C36.0491 11.4255 36.6294 11.5929 37.195 11.802C37.6135 11.9666 38.0015 12.2 38.343 12.4927C38.6538 13.3362 38.8378 14.221 38.889 15.1185C38.7218 15.205 38.5737 15.3245 38.4537 15.4696C38.3337 15.6148 38.2442 15.7826 38.1905 15.9631C38.1109 16.1611 38.0682 16.372 38.0646 16.5854C38.0655 16.7647 38.1118 16.9409 38.1991 17.0975C38.2864 17.2541 38.4119 17.3862 38.5639 17.4814L38.5421 17.4798Z" fill="#EE324E"/>
<path d="M31.7767 14.5881C31.6732 14.7572 31.5184 14.8889 31.3349 14.9642C31.1514 15.0394 30.9488 15.0543 30.7563 15.0065C30.5612 14.9563 30.3877 14.8443 30.2615 14.6873C30.1354 14.5303 30.0634 14.3367 30.0563 14.1354C30.1483 13.9659 30.197 13.7761 30.1979 13.5832C30.1975 13.2669 30.0716 12.9637 29.848 12.74C29.6243 12.5163 29.3211 12.3905 29.0048 12.3901C28.6883 12.3905 28.3849 12.5163 28.161 12.7399C27.9371 12.9635 27.8109 13.2668 27.8101 13.5832C27.8124 13.6816 27.827 13.7793 27.8536 13.8741C27.794 14.0637 27.6754 14.2293 27.5151 14.3469C27.3547 14.4644 27.1611 14.5277 26.9623 14.5274C26.764 14.5263 26.5713 14.4612 26.413 14.3418C26.2546 14.2225 26.139 14.0551 26.0834 13.8648C26.4025 13.887 26.7173 13.7817 26.9588 13.572C27.2003 13.3623 27.3487 13.0653 27.3714 12.7463C27.3781 12.6718 27.3781 12.5968 27.3714 12.5223C27.4115 12.2299 27.3384 11.9331 27.1669 11.6928C26.9954 11.4525 26.7386 11.2868 26.449 11.2296C26.4119 11.0334 26.3227 10.8507 26.1908 10.7007C26.0589 10.5508 25.8891 10.439 25.6992 10.3772C25.8236 10.2797 25.9242 10.1552 25.9937 10.0133C26.0632 9.87132 26.0998 9.71549 26.1005 9.55743C26.1015 9.3624 26.0476 9.17104 25.945 9.00521V8.84965C28.0877 8.51023 30.2829 8.84224 32.2294 9.8001C32.4168 10.3171 32.5427 10.8543 32.6043 11.4008C32.38 11.5179 32.199 11.7038 32.0879 11.9312C31.7943 11.9174 31.5063 12.0156 31.2823 12.2059C31.0582 12.3961 30.9147 12.6643 30.8808 12.9563C30.8381 13.1136 30.8157 13.2756 30.8139 13.4385C30.7968 14.0001 31.1296 14.3765 31.7767 14.5881Z" fill="#EE324E"/>
<path d="M24.3888 10.3786C24.1991 10.4408 24.0296 10.5527 23.8977 10.7026C23.7659 10.8525 23.6765 11.035 23.639 11.231C23.3496 11.2885 23.093 11.4543 22.9215 11.6945C22.7501 11.9347 22.6768 12.2313 22.7166 12.5237C22.6984 12.6811 22.7114 12.8406 22.7549 12.993C22.7984 13.1453 22.8714 13.2877 22.97 13.4118C23.0685 13.5359 23.1905 13.6393 23.3291 13.7162C23.4676 13.7931 23.62 13.842 23.7775 13.8599C23.852 13.8665 23.9269 13.8665 24.0014 13.8599C23.9455 14.0504 23.8297 14.2178 23.671 14.3372C23.5124 14.4566 23.3196 14.5216 23.121 14.5226C22.9229 14.521 22.7302 14.4571 22.5705 14.3398C22.4108 14.2225 22.292 14.0578 22.2312 13.8692C22.2578 13.7745 22.2725 13.6768 22.2748 13.5784C22.2753 13.4214 22.2446 13.2659 22.1845 13.1209C22.1244 12.9759 22.0361 12.8443 21.9248 12.7337C21.8142 12.6223 21.6826 12.5341 21.5376 12.474C21.3926 12.4139 21.2371 12.3832 21.0801 12.3837C20.7637 12.3841 20.4603 12.5099 20.2364 12.7335C20.0124 12.9571 19.8863 13.2604 19.8854 13.5768C19.8877 13.7698 19.9369 13.9593 20.0286 14.129C20.0214 14.3305 19.9492 14.5243 19.8227 14.6813C19.6963 14.8384 19.5223 14.9502 19.327 15.0001C19.1345 15.0479 18.9318 15.033 18.7484 14.9578C18.5649 14.8825 18.4102 14.7508 18.3066 14.5817C18.9599 14.3701 19.2865 13.9937 19.2865 13.4353C19.2841 13.2744 19.2617 13.1145 19.2197 12.9593C19.1857 12.6673 19.0422 12.3991 18.8182 12.2088C18.5941 12.0185 18.3062 11.9204 18.0125 11.9342C17.9014 11.7067 17.7205 11.5208 17.4961 11.4037C17.5583 10.8574 17.6842 10.3202 17.871 9.80303C19.8181 8.84514 22.0138 8.51315 24.157 8.85259V9.00037C24.0544 9.16624 24.0005 9.35758 24.0014 9.55259C24.0002 9.71047 24.0343 9.86661 24.1013 10.0096C24.1683 10.1525 24.2666 10.2786 24.3888 10.3786Z" fill="#EE324E"/>
<path d="M15.2784 12.6498C15.089 12.7371 14.9292 12.8778 14.8187 13.0547C14.7081 13.2316 14.6516 13.4369 14.6562 13.6454C14.6579 13.8083 14.6804 13.9704 14.7231 14.1276C14.7443 14.2847 14.7963 14.4361 14.876 14.5731C14.9558 14.7101 15.0617 14.8301 15.1878 14.9261C15.3139 15.0222 15.4577 15.0924 15.611 15.1329C15.7643 15.1734 15.924 15.1833 16.0811 15.1621C16.1589 15.1513 16.2355 15.133 16.3098 15.1076C16.3006 15.3066 16.228 15.4974 16.1026 15.6522C15.9772 15.807 15.8056 15.9176 15.6129 15.9679C15.4374 16.0128 15.2526 16.0057 15.0811 15.9474C14.9095 15.8891 14.7587 15.7822 14.6469 15.6396L14.6173 15.4421C14.5381 15.1367 14.3415 14.875 14.0703 14.7138C13.7991 14.5527 13.4752 14.5053 13.1691 14.5818C13.017 14.6204 12.874 14.6888 12.7485 14.7831C12.623 14.8773 12.5174 14.9956 12.438 15.131C12.3291 15.3135 12.2716 15.522 12.2716 15.7345C12.2718 15.8353 12.2849 15.9357 12.3104 16.0332C12.356 16.2011 12.4383 16.3568 12.5515 16.489V16.5527C12.5526 16.7206 12.5083 16.8856 12.4235 17.0304C12.3386 17.1753 12.2163 17.2945 12.0693 17.3756C11.9152 17.4577 11.741 17.4944 11.5669 17.4814C11.7189 17.3862 11.8444 17.2542 11.9317 17.0975C12.019 16.9409 12.0652 16.7647 12.0662 16.5854C12.062 16.3719 12.0188 16.1611 11.9386 15.9632C11.8857 15.7823 11.7964 15.6142 11.6764 15.469C11.5563 15.3238 11.4079 15.2045 11.2402 15.1185C11.2922 14.2217 11.4762 13.3374 11.7862 12.4943C12.1276 12.2016 12.5157 11.9682 12.9342 11.8036C13.4994 11.5947 14.0791 11.4273 14.6686 11.3027C14.7096 11.4919 14.7958 11.6682 14.9199 11.8167C15.044 11.9652 15.2023 12.0813 15.3811 12.1552C15.3245 12.2999 15.2955 12.454 15.2956 12.6094C15.2784 12.6203 15.2784 12.6374 15.2784 12.6498Z" fill="#EE324E"/>
<path d="M35.3164 17.0349C35.5553 16.972 35.7819 16.8695 35.9869 16.7316C36.0934 16.8017 36.2105 16.8543 36.3337 16.8871L36.41 16.9011C36.4655 17.1401 36.5601 17.3682 36.69 17.5762C36.2368 17.3875 35.7789 17.2071 35.3164 17.0349Z" fill="#EE324E"/>
<path d="M25.0411 15.2087L24.3613 15.2227C24.6701 14.9891 24.906 14.6724 25.0411 14.3096C25.1763 14.6724 25.4121 14.9891 25.7209 15.2227L25.0411 15.2087Z" fill="#EE324E"/>
<path d="M13.3945 17.5856C13.5246 17.3777 13.6193 17.1495 13.6746 16.9105L13.7508 16.8965C13.874 16.8636 13.9911 16.811 14.0976 16.741C14.3027 16.8783 14.5293 16.9803 14.7681 17.0427C14.3056 17.2087 13.8477 17.3896 13.3945 17.5856Z" fill="#EE324E"/>
<path d="M16.9961 16.3101C17.2274 16.0062 17.3687 15.6435 17.4037 15.2632C17.6223 15.5826 17.927 15.8335 18.2825 15.9865C17.8491 16.084 17.4202 16.1919 16.9961 16.3101Z" fill="#EE324E"/>
<path d="M20.5742 15.5447C20.8024 15.3288 20.9812 15.0661 21.0984 14.7747C21.1798 14.7713 21.2607 14.7593 21.3396 14.7389C21.5263 14.9951 21.7668 15.2075 22.0442 15.3611C21.5557 15.4098 21.0658 15.471 20.5742 15.5447Z" fill="#EE324E"/>
<path d="M28.0312 15.3611C28.3089 15.2073 28.5499 14.995 28.7375 14.7389C28.8164 14.7591 28.8972 14.7711 28.9786 14.7747C29.0968 15.0656 29.2755 15.328 29.5028 15.5447C29.0133 15.4721 28.5228 15.4109 28.0312 15.3611Z" fill="#EE324E"/>
<path d="M31.7969 15.9802C32.1525 15.8273 32.4573 15.5764 32.6758 15.2568C32.7116 15.6377 32.8533 16.0008 33.0849 16.3053C32.6607 16.1912 32.2314 16.0828 31.7969 15.9802Z" fill="#EE324E"/>
<path d="M22.834 4.07088C22.834 3.93061 22.8897 3.79608 22.9889 3.69689C23.0881 3.59771 23.2226 3.54199 23.3629 3.54199C23.5031 3.54199 23.6377 3.59771 23.7368 3.69689C23.836 3.79608 23.8918 3.93061 23.8918 4.07088C23.8918 4.21115 23.836 4.34567 23.7368 4.44486C23.6377 4.54404 23.5031 4.59978 23.3629 4.59978C23.2226 4.59978 23.0881 4.54404 22.9889 4.44486C22.8897 4.34567 22.834 4.21115 22.834 4.07088V4.07088Z" fill="white"/>
<path d="M24.5117 5.71663C24.5117 5.57636 24.5675 5.44185 24.6667 5.34267C24.7659 5.24348 24.9004 5.18774 25.0406 5.18774C25.1809 5.18774 25.3154 5.24348 25.4146 5.34267C25.5138 5.44185 25.5695 5.57636 25.5695 5.71663C25.5695 5.8569 25.5138 5.99142 25.4146 6.09061C25.3154 6.1898 25.1809 6.24553 25.0406 6.24553C24.9004 6.24553 24.7659 6.1898 24.6667 6.09061C24.5675 5.99142 24.5117 5.8569 24.5117 5.71663V5.71663Z" fill="white"/>
<path d="M24.5117 7.63936C24.5117 7.49909 24.5675 7.36456 24.6667 7.26537C24.7659 7.16619 24.9004 7.11047 25.0406 7.11047C25.1809 7.11047 25.3154 7.16619 25.4146 7.26537C25.5138 7.36456 25.5695 7.49909 25.5695 7.63936C25.5695 7.77963 25.5138 7.91415 25.4146 8.01334C25.3154 8.11253 25.1809 8.16826 25.0406 8.16826C24.9004 8.16826 24.7659 8.11253 24.6667 8.01334C24.5675 7.91415 24.5117 7.77963 24.5117 7.63936Z" fill="white"/>
<path d="M24.5117 9.5604C24.5117 9.42013 24.5675 9.2856 24.6667 9.18642C24.7659 9.08723 24.9004 9.03149 25.0406 9.03149C25.1809 9.03149 25.3154 9.08723 25.4146 9.18642C25.5138 9.2856 25.5695 9.42013 25.5695 9.5604C25.5695 9.62978 25.5558 9.69848 25.5292 9.76256C25.5026 9.82664 25.4637 9.88483 25.4145 9.93381C25.3654 9.9828 25.3071 10.0216 25.2429 10.048C25.1788 10.0744 25.11 10.0879 25.0406 10.0877C24.9006 10.0877 24.7663 10.0322 24.6672 9.93336C24.568 9.83451 24.5121 9.7004 24.5117 9.5604V9.5604Z" fill="white"/>
<path d="M21.1055 4.37263C21.1056 4.30323 21.1193 4.23454 21.146 4.17047C21.1727 4.10641 21.2118 4.04825 21.261 3.99932C21.3099 3.95009 21.3681 3.91101 21.4322 3.88431C21.4962 3.85762 21.5649 3.84384 21.6344 3.84375C21.7746 3.84375 21.9091 3.89946 22.0083 3.99865C22.1075 4.09784 22.1632 4.23236 22.1632 4.37263C22.1632 4.44201 22.1495 4.51071 22.1229 4.57479C22.0963 4.63887 22.0574 4.69708 22.0082 4.74607C21.9591 4.79506 21.9008 4.83388 21.8366 4.86029C21.7725 4.8867 21.7037 4.90018 21.6344 4.89997C21.4944 4.89997 21.36 4.84447 21.2609 4.74562C21.1618 4.64677 21.1059 4.51263 21.1055 4.37263Z" fill="white"/>
<path d="M19.418 4.99959C19.418 4.85932 19.4737 4.72479 19.5729 4.6256C19.6721 4.52642 19.8066 4.4707 19.9469 4.4707C20.0869 4.47111 20.221 4.52701 20.3198 4.62615C20.4187 4.72529 20.4742 4.85959 20.4742 4.99959C20.4738 5.13932 20.4181 5.27322 20.3193 5.37203C20.2205 5.47083 20.0866 5.52652 19.9469 5.52693C19.8069 5.52693 19.6726 5.47142 19.5734 5.37257C19.4743 5.27372 19.4184 5.13959 19.418 4.99959V4.99959Z" fill="white"/>
<path d="M17.793 6.07918C17.793 5.93891 17.8487 5.80438 17.9479 5.70519C18.0471 5.60601 18.1816 5.55029 18.3219 5.55029C18.3913 5.55038 18.46 5.56416 18.524 5.59086C18.5881 5.61755 18.6463 5.65661 18.6952 5.70583C18.7444 5.75476 18.7835 5.81293 18.8102 5.87699C18.8369 5.94106 18.8506 6.00977 18.8507 6.07918C18.8507 6.21918 18.7953 6.35347 18.6964 6.45261C18.5976 6.55175 18.4634 6.60765 18.3234 6.60806C18.1831 6.60806 18.0486 6.55235 17.9494 6.45316C17.8502 6.35397 17.7945 6.21945 17.7945 6.07918H17.793Z" fill="white"/>
<path d="M16.5527 7.51021C16.5531 7.37033 16.6088 7.2363 16.7075 7.13724C16.8063 7.03819 16.9402 6.98214 17.0801 6.98132C17.2203 6.98132 17.3548 7.03706 17.454 7.13625C17.5532 7.23543 17.6089 7.36994 17.6089 7.51021C17.6085 7.65021 17.5526 7.78434 17.4535 7.88319C17.3543 7.98204 17.2201 8.03755 17.0801 8.03755C16.9402 8.03755 16.8061 7.98199 16.7072 7.8831C16.6083 7.7842 16.5527 7.65006 16.5527 7.51021Z" fill="white"/>
<path d="M14.8594 7.36718C14.8598 7.22718 14.9157 7.09305 15.0148 6.9942C15.114 6.89535 15.2483 6.83984 15.3883 6.83984C15.4577 6.83993 15.5264 6.85371 15.5904 6.88041C15.6545 6.9071 15.7127 6.94619 15.7616 6.99541C15.8108 7.04434 15.8499 7.1025 15.8766 7.16657C15.9033 7.23063 15.9171 7.29932 15.9172 7.36873C15.9172 7.50873 15.8617 7.64302 15.7628 7.74216C15.664 7.84131 15.5298 7.8972 15.3898 7.89761C15.3201 7.89782 15.251 7.88425 15.1866 7.85766C15.1222 7.83108 15.0636 7.79201 15.0143 7.74271C14.965 7.69341 14.9259 7.63486 14.8993 7.57041C14.8728 7.50596 14.8592 7.4369 14.8594 7.36718V7.36718Z" fill="white"/>
<path d="M13.1953 8.01743C13.1953 7.87716 13.251 7.74264 13.3502 7.64345C13.4494 7.54426 13.5839 7.48853 13.7242 7.48853C13.8642 7.48894 13.9983 7.54485 14.0972 7.644C14.196 7.74314 14.2516 7.87743 14.2516 8.01743C14.2518 8.08681 14.2382 8.15555 14.2118 8.21971C14.1854 8.28387 14.1466 8.34219 14.0977 8.39132C14.0487 8.44045 13.9905 8.47941 13.9264 8.50601C13.8623 8.53261 13.7936 8.54632 13.7242 8.54632C13.5839 8.54632 13.4494 8.4906 13.3502 8.39142C13.251 8.29223 13.1953 8.1577 13.1953 8.01743V8.01743Z" fill="white"/>
<path d="M11.6543 9.14048C11.6543 9.00021 11.71 8.86568 11.8092 8.7665C11.9084 8.66731 12.0429 8.61157 12.1832 8.61157C12.3232 8.61198 12.4573 8.6679 12.5562 8.76704C12.655 8.86618 12.7105 9.00048 12.7105 9.14048C12.7107 9.20986 12.6972 9.2786 12.6708 9.34276C12.6444 9.40691 12.6056 9.46523 12.5566 9.51437C12.5076 9.5635 12.4494 9.60246 12.3853 9.62906C12.3212 9.65566 12.2526 9.66936 12.1832 9.66936C12.043 9.66895 11.9087 9.61308 11.8096 9.51399C11.7105 9.41489 11.6547 9.28062 11.6543 9.14048V9.14048Z" fill="white"/>
<path d="M10.3984 10.6167C10.3988 10.4768 10.4545 10.3427 10.5532 10.2437C10.652 10.1446 10.7859 10.0886 10.9258 10.0878C11.0661 10.0878 11.2006 10.1435 11.2998 10.2427C11.399 10.3419 11.4547 10.4764 11.4547 10.6167C11.4547 10.7569 11.399 10.8914 11.2998 10.9906C11.2006 11.0898 11.0661 11.1455 10.9258 11.1455C10.7858 11.1451 10.6517 11.0892 10.5528 10.9901C10.454 10.8909 10.3984 10.7567 10.3984 10.6167Z" fill="white"/>
<path d="M9.60156 12.278C9.60197 12.138 9.65789 12.0039 9.75703 11.9051C9.85617 11.8062 9.99044 11.7507 10.1304 11.7507C10.2704 11.7507 10.4048 11.8062 10.5039 11.9051C10.603 12.0039 10.6589 12.138 10.6593 12.278C10.6589 12.4182 10.6031 12.5525 10.504 12.6516C10.4049 12.7507 10.2706 12.8065 10.1304 12.8069C9.99018 12.8069 9.85565 12.7512 9.75646 12.652C9.65728 12.5528 9.60156 12.4183 9.60156 12.278Z" fill="white"/>
<path d="M9.16406 14.1711C9.16447 14.0311 9.22039 13.897 9.31953 13.7982C9.41867 13.6993 9.55294 13.6438 9.69295 13.6438C9.83268 13.6442 9.96656 13.6999 10.0654 13.7987C10.1642 13.8975 10.2199 14.0314 10.2203 14.1711C10.2203 14.3111 10.1648 14.4454 10.0659 14.5446C9.96708 14.6437 9.83295 14.6996 9.69295 14.7C9.5528 14.6996 9.41853 14.6437 9.31944 14.5446C9.22034 14.4456 9.16447 14.3113 9.16406 14.1711V14.1711Z" fill="white"/>
<path d="M15.7207 9.17783C15.721 9.03769 15.777 8.90341 15.8763 8.80449C15.9252 8.75527 15.9833 8.71618 16.0474 8.68949C16.1115 8.6628 16.1802 8.64901 16.2496 8.64893C16.3899 8.64893 16.5244 8.70466 16.6236 8.80385C16.7228 8.90304 16.7785 9.03756 16.7785 9.17783C16.7785 9.3181 16.7228 9.45263 16.6236 9.55182C16.5244 9.651 16.3899 9.70672 16.2496 9.70672C16.1093 9.70672 15.9748 9.651 15.8756 9.55182C15.7764 9.45263 15.7207 9.3181 15.7207 9.17783V9.17783Z" fill="white"/>
<path d="M15.2813 11.0725C15.2817 10.9326 15.3373 10.7985 15.4361 10.6995C15.5348 10.6004 15.6687 10.5444 15.8086 10.5436C15.9488 10.5436 16.0834 10.5993 16.1826 10.6985C16.2817 10.7977 16.3375 10.9322 16.3375 11.0725C16.3375 11.2127 16.2817 11.3473 16.1826 11.4464C16.0834 11.5456 15.9488 11.6013 15.8086 11.6013C15.6686 11.6009 15.5345 11.545 15.4356 11.4459C15.3368 11.3468 15.2812 11.2125 15.2813 11.0725Z" fill="white"/>
<path d="M24.0898 12.2967C24.0907 12.045 24.1912 11.8039 24.3693 11.6261C24.5474 11.4482 24.7886 11.3482 25.0403 11.3478C25.2917 11.3486 25.5326 11.4488 25.7104 11.6266C25.8882 11.8044 25.9884 12.0453 25.9892 12.2967C25.9884 12.5481 25.8882 12.789 25.7104 12.9667C25.5326 13.1445 25.2917 13.2447 25.0403 13.2456C24.7886 13.2451 24.5474 13.1451 24.3693 12.9673C24.1912 12.7895 24.0907 12.5483 24.0898 12.2967Z" fill="white"/>
<path d="M16.4276 14.1494C16.3198 14.0863 16.2256 14.0024 16.1505 13.9025C16.0755 13.8026 16.0211 13.6888 15.9905 13.5676C15.9282 13.3236 15.9652 13.0648 16.0936 12.8481C16.2219 12.6314 16.431 12.4745 16.675 12.4119C16.919 12.349 17.178 12.3857 17.395 12.5137C17.612 12.6418 17.7693 12.8508 17.8323 13.0948V13.0948C17.8947 13.3386 17.8578 13.5972 17.7298 13.8138C17.6018 14.0305 17.393 14.1876 17.1494 14.2505C17.0284 14.2824 16.9023 14.2898 16.7784 14.2724C16.6544 14.2551 16.5352 14.2133 16.4276 14.1494V14.1494Z" fill="white"/>
<path d="M9.0661 17.0987C8.94533 16.8781 8.91682 16.6186 8.98678 16.3769C9.05673 16.1353 9.21944 15.9312 9.43942 15.8092C9.54881 15.7489 9.66904 15.7109 9.79318 15.6973C9.91732 15.6837 10.0429 15.6948 10.1628 15.7299C10.2827 15.7644 10.3946 15.8223 10.4921 15.9002C10.5895 15.9782 10.6706 16.0746 10.7306 16.1841V16.1841C10.8517 16.4046 10.8805 16.6643 10.8105 16.906C10.7405 17.1478 10.5775 17.3519 10.3572 17.4736C10.1362 17.5948 9.87622 17.6233 9.6342 17.553C9.39217 17.4828 9.18786 17.3194 9.0661 17.0987V17.0987Z" fill="white"/>
<path d="M26.1914 4.07088C26.1919 3.93077 26.2479 3.79657 26.347 3.69756C26.3959 3.64834 26.4541 3.60925 26.5182 3.58256C26.5822 3.55586 26.6509 3.54208 26.7203 3.54199C26.8606 3.54199 26.9951 3.59771 27.0943 3.69689C27.1935 3.79608 27.2492 3.93061 27.2492 4.07088C27.2492 4.21115 27.1935 4.34567 27.0943 4.44486C26.9951 4.54404 26.8606 4.59978 26.7203 4.59978C26.5801 4.59978 26.4455 4.54404 26.3464 4.44486C26.2472 4.34567 26.1914 4.21115 26.1914 4.07088V4.07088Z" fill="white"/>
<path d="M27.9219 4.37422C27.9219 4.23422 27.9774 4.09992 28.0762 4.00078C28.1751 3.90164 28.3092 3.84575 28.4492 3.84534C28.5895 3.84534 28.724 3.90105 28.8232 4.00024C28.9224 4.09942 28.9781 4.23395 28.9781 4.37422C28.9777 4.51422 28.9218 4.64833 28.8227 4.74718C28.7235 4.84603 28.5892 4.90156 28.4492 4.90156C28.3095 4.90115 28.1756 4.84544 28.0768 4.74664C27.978 4.64783 27.9223 4.51395 27.9219 4.37422V4.37422Z" fill="white"/>
<path d="M29.6094 4.99959C29.6098 4.85971 29.6654 4.72565 29.7642 4.6266C29.8629 4.52755 29.9969 4.47152 30.1367 4.4707C30.277 4.4707 30.4115 4.52642 30.5107 4.6256C30.6099 4.72479 30.6656 4.85932 30.6656 4.99959C30.6652 5.13959 30.6093 5.27372 30.5101 5.37257C30.411 5.47142 30.2767 5.52693 30.1367 5.52693C29.997 5.52652 29.8631 5.47083 29.7643 5.37203C29.6655 5.27322 29.6098 5.13932 29.6094 4.99959V4.99959Z" fill="white"/>
<path d="M31.2324 6.07918C31.2324 5.93918 31.288 5.80488 31.3868 5.70574C31.4856 5.6066 31.6198 5.5507 31.7598 5.55029C31.9001 5.55029 32.0346 5.60601 32.1338 5.70519C32.233 5.80438 32.2887 5.93891 32.2887 6.07918C32.2887 6.21945 32.233 6.35397 32.1338 6.45316C32.0346 6.55235 31.9001 6.60806 31.7598 6.60806C31.6198 6.60765 31.4856 6.55175 31.3868 6.45261C31.288 6.35347 31.2324 6.21918 31.2324 6.07918Z" fill="white"/>
<path d="M32.4727 7.51021C32.4727 7.36994 32.5284 7.23543 32.6276 7.13625C32.7267 7.03706 32.8613 6.98132 33.0015 6.98132C33.0709 6.98141 33.1397 6.99519 33.2037 7.02189C33.2678 7.04858 33.3259 7.08767 33.3749 7.13689C33.474 7.23591 33.5299 7.3701 33.5304 7.51021C33.53 7.65021 33.4741 7.78434 33.375 7.88319C33.2758 7.98204 33.1415 8.03755 33.0015 8.03755C32.8615 8.03755 32.7273 7.98204 32.6281 7.88319C32.529 7.78434 32.4731 7.65021 32.4727 7.51021V7.51021Z" fill="white"/>
<path d="M34.168 7.36718C34.1684 7.22718 34.2243 7.09305 34.3234 6.9942C34.4226 6.89535 34.5568 6.83984 34.6968 6.83984C34.8366 6.84025 34.9705 6.89594 35.0693 6.99474C35.1681 7.09355 35.2238 7.22745 35.2242 7.36718C35.2244 7.43657 35.2109 7.5053 35.1845 7.56946C35.1581 7.63362 35.1192 7.69194 35.0703 7.74107C35.0213 7.7902 34.9631 7.82919 34.899 7.85579C34.835 7.88239 34.7662 7.89607 34.6968 7.89607C34.5567 7.89566 34.4224 7.83981 34.3233 7.74072C34.2242 7.64162 34.1684 7.50733 34.168 7.36718V7.36718Z" fill="white"/>
<path d="M35.8281 8.01743C35.8285 7.87756 35.8842 7.7435 35.983 7.64445C36.0817 7.54539 36.2156 7.48935 36.3555 7.48853C36.4958 7.48853 36.6303 7.54426 36.7295 7.64345C36.8287 7.74264 36.8844 7.87716 36.8844 8.01743C36.8844 8.1577 36.8287 8.29223 36.7295 8.39142C36.6303 8.4906 36.4958 8.54632 36.3555 8.54632C36.2155 8.5459 36.0814 8.48999 35.9825 8.39085C35.8837 8.2917 35.8281 8.15743 35.8281 8.01743V8.01743Z" fill="white"/>
<path d="M37.375 9.14048C37.375 9.00021 37.4307 8.86568 37.5299 8.7665C37.6291 8.66731 37.7636 8.61157 37.9039 8.61157C38.0439 8.61198 38.178 8.6679 38.2768 8.76704C38.3757 8.86618 38.4312 9.00048 38.4312 9.14048C38.4314 9.20986 38.4179 9.2786 38.3915 9.34276C38.3651 9.40691 38.3263 9.46523 38.2773 9.51437C38.2283 9.5635 38.1701 9.60246 38.106 9.62906C38.0419 9.65566 37.9733 9.66936 37.9039 9.66936C37.7637 9.66895 37.6294 9.61308 37.5303 9.51399C37.4312 9.41489 37.3754 9.28062 37.375 9.14048V9.14048Z" fill="white"/>
<path d="M38.6309 10.6167C38.6309 10.4764 38.6866 10.3419 38.7858 10.2427C38.8849 10.1435 39.0195 10.0878 39.1597 10.0878C39.3 10.0878 39.4345 10.1435 39.5337 10.2427C39.6329 10.3419 39.6886 10.4764 39.6886 10.6167C39.6886 10.7569 39.6329 10.8914 39.5337 10.9906C39.4345 11.0898 39.3 11.1455 39.1597 11.1455C39.0195 11.1455 38.8849 11.0898 38.7858 10.9906C38.6866 10.8914 38.6309 10.7569 38.6309 10.6167V10.6167Z" fill="white"/>
<path d="M39.4219 12.278C39.4223 12.1383 39.478 12.0044 39.5768 11.9056C39.6756 11.8068 39.8095 11.7511 39.9492 11.7507C40.0892 11.7507 40.2235 11.8062 40.3227 11.9051C40.4218 12.0039 40.4777 12.138 40.4781 12.278C40.4781 12.4183 40.4224 12.5528 40.3232 12.652C40.224 12.7512 40.0895 12.8069 39.9492 12.8069C39.8092 12.8065 39.6751 12.7506 39.5762 12.6515C39.4774 12.5523 39.4219 12.418 39.4219 12.278V12.278Z" fill="white"/>
<path d="M39.8594 14.1711C39.8598 14.0311 39.9157 13.897 40.0148 13.7982C40.1139 13.6993 40.2483 13.6438 40.3883 13.6438C40.5281 13.6438 40.6623 13.6994 40.7611 13.7982C40.86 13.8971 40.9156 14.0313 40.9156 14.1711C40.9158 14.2405 40.9023 14.3092 40.8759 14.3734C40.8495 14.4376 40.8107 14.4959 40.7617 14.545C40.7127 14.5941 40.6545 14.6331 40.5904 14.6597C40.5263 14.6863 40.4576 14.7 40.3883 14.7C40.2481 14.6996 40.1138 14.6437 40.0147 14.5446C39.9156 14.4456 39.8598 14.3113 39.8594 14.1711V14.1711Z" fill="white"/>
<path d="M33.3047 9.17783C33.3047 9.03756 33.3604 8.90304 33.4596 8.80385C33.5588 8.70466 33.6933 8.64893 33.8336 8.64893C33.9738 8.64893 34.1084 8.70466 34.2076 8.80385C34.3067 8.90304 34.3625 9.03756 34.3625 9.17783C34.3625 9.3181 34.3067 9.45263 34.2076 9.55182C34.1084 9.651 33.9738 9.70672 33.8336 9.70672C33.6933 9.70672 33.5588 9.651 33.4596 9.55182C33.3604 9.45263 33.3047 9.3181 33.3047 9.17783V9.17783Z" fill="white"/>
<path d="M33.7422 11.0725C33.7422 10.9322 33.7979 10.7977 33.8971 10.6985C33.9963 10.5993 34.1308 10.5436 34.2711 10.5436C34.4113 10.5436 34.5459 10.5993 34.6451 10.6985C34.7442 10.7977 34.8 10.9322 34.8 11.0725C34.8 11.2127 34.7442 11.3473 34.6451 11.4464C34.5459 11.5456 34.4113 11.6013 34.2711 11.6013C34.1308 11.6013 33.9963 11.5456 33.8971 11.4464C33.7979 11.3473 33.7422 11.2127 33.7422 11.0725Z" fill="white"/>
<path d="M32.9322 14.2536C32.8115 14.2225 32.6981 14.1679 32.5985 14.0929C32.499 14.0178 32.4152 13.9239 32.352 13.8165C32.2874 13.7089 32.2451 13.5894 32.2277 13.4651C32.2104 13.3408 32.2182 13.2143 32.2509 13.0931V13.0931C32.2815 12.9724 32.3357 12.8589 32.4105 12.7593C32.4853 12.6597 32.579 12.576 32.6864 12.5129C32.7942 12.4487 32.9136 12.4065 33.0378 12.3889C33.162 12.3713 33.2884 12.3785 33.4097 12.4102C33.5308 12.4409 33.6446 12.4953 33.7445 12.5704C33.8444 12.6454 33.9284 12.7396 33.9916 12.8474C34.0564 12.9548 34.099 13.0743 34.1166 13.1986C34.1342 13.3228 34.1266 13.4494 34.0942 13.5707C34.0634 13.6917 34.0089 13.8054 33.9338 13.9053C33.8588 14.0051 33.7647 14.0891 33.6571 14.1525C33.5492 14.2164 33.4298 14.2583 33.3056 14.2757C33.1814 14.293 33.055 14.2855 32.9337 14.2536H32.9322Z" fill="white"/>
<path d="M39.7267 17.4736C39.6167 17.414 39.5198 17.3328 39.4418 17.235C39.3637 17.1372 39.3062 17.0247 39.2725 16.9042C39.2373 16.7843 39.2263 16.6586 39.2402 16.5344C39.2541 16.4103 39.2926 16.2901 39.3534 16.1809V16.1809C39.4134 16.0715 39.4944 15.975 39.5919 15.8971C39.6893 15.8191 39.8013 15.7612 39.9212 15.7267C40.041 15.6916 40.1666 15.6805 40.2908 15.6941C40.4149 15.7077 40.5351 15.7458 40.6445 15.806C40.7538 15.8658 40.8502 15.9467 40.9281 16.0438C41.0061 16.141 41.064 16.2526 41.0987 16.3722C41.1339 16.4921 41.1451 16.6177 41.1314 16.7418C41.1178 16.866 41.0797 16.9862 41.0194 17.0956C40.9597 17.2052 40.8789 17.3019 40.7818 17.3803C40.6846 17.4587 40.573 17.5172 40.4533 17.5525C40.3335 17.5877 40.208 17.599 40.0838 17.5858C39.9597 17.5725 39.8394 17.5349 39.7298 17.4751L39.7267 17.4736Z" fill="white"/>
<path d="M21.1152 18.06C21.1153 17.9906 21.1291 17.9219 21.1558 17.8578C21.1825 17.7938 21.2216 17.7356 21.2708 17.6867C21.3197 17.6374 21.3779 17.5984 21.442 17.5717C21.506 17.545 21.5748 17.5312 21.6442 17.5311C21.7844 17.5311 21.919 17.5868 22.0181 17.686C22.1173 17.7852 22.173 17.9197 22.173 18.06C22.1726 18.2002 22.1168 18.3344 22.0177 18.4335C21.9186 18.5326 21.7843 18.5885 21.6442 18.5889C21.5039 18.5889 21.3694 18.5332 21.2702 18.434C21.171 18.3348 21.1152 18.2003 21.1152 18.06V18.06Z" fill="white"/>
<path d="M14.5664 19.8319C14.5669 19.6918 14.6229 19.5575 14.722 19.4585C14.7709 19.4093 14.829 19.3702 14.8931 19.3435C14.9572 19.3168 15.0259 19.3031 15.0953 19.303C15.2356 19.303 15.3701 19.3587 15.4693 19.4579C15.5685 19.5571 15.6242 19.6916 15.6242 19.8319C15.6242 19.9721 15.5685 20.1067 15.4693 20.2058C15.3701 20.305 15.2356 20.3607 15.0953 20.3607C15.0258 20.3609 14.9569 20.3474 14.8926 20.3209C14.8284 20.2944 14.77 20.2554 14.7208 20.2063C14.6717 20.1571 14.6327 20.0988 14.6062 20.0345C14.5797 19.9702 14.5662 19.9014 14.5664 19.8319V19.8319Z" fill="white"/>
<path d="M25.0409 17.2573L26.7302 17.8795L25.0409 18.5018L23.3516 17.8795L25.0409 17.2573Z" fill="#EE324E"/>
<path d="M13.2594 19.9298L13.9703 20.1911L13.7634 21L13.0898 20.6252L13.2594 19.9298Z" fill="#EE324E"/>
<path d="M27.9102 18.06C27.9106 17.9201 27.9662 17.7861 28.065 17.687C28.1637 17.588 28.2976 17.5319 28.4375 17.5311C28.5776 17.5315 28.7119 17.5874 28.811 17.6865C28.9101 17.7856 28.966 17.9199 28.9664 18.06C28.966 18.2002 28.9101 18.3344 28.811 18.4335C28.7119 18.5326 28.5776 18.5885 28.4375 18.5889C28.2975 18.5885 28.1634 18.5326 28.0645 18.4334C27.9657 18.3343 27.9102 18.2 27.9102 18.06Z" fill="white"/>
<path d="M34.4609 19.8319C34.4609 19.6919 34.5164 19.5576 34.6153 19.4584C34.7141 19.3593 34.8483 19.3034 34.9883 19.303C35.1283 19.3034 35.2624 19.3593 35.3612 19.4584C35.4601 19.5576 35.5156 19.6919 35.5156 19.8319C35.5158 19.9012 35.5023 19.97 35.4759 20.0341C35.4495 20.0983 35.4107 20.1566 35.3617 20.2057C35.3127 20.2549 35.2545 20.2939 35.1904 20.3205C35.1264 20.3471 35.0576 20.3607 34.9883 20.3607C34.9189 20.3607 34.8502 20.3471 34.7861 20.3205C34.722 20.2939 34.6638 20.2549 34.6148 20.2057C34.5659 20.1566 34.527 20.0983 34.5006 20.0341C34.4742 19.97 34.4607 19.9012 34.4609 19.8319Z" fill="white"/>
<path d="M37.0158 19.4539C33.271 17.6854 29.1793 16.7736 25.038 16.7845C20.8967 16.7733 16.8049 17.6852 13.0603 19.4539C13.0315 19.4671 13.0091 19.4911 12.998 19.5208C12.9847 19.563 12.9886 19.6089 13.0089 19.6483C13.026 19.684 13.056 19.7118 13.0929 19.7261C13.1108 19.7338 13.1302 19.7378 13.1497 19.7378C13.1692 19.7378 13.1885 19.7338 13.2065 19.7261C13.235 19.7151 13.2666 19.7151 13.2951 19.7261C13.324 19.737 13.3474 19.7588 13.3605 19.7868L13.3698 19.8085L14.0931 20.073C14.1113 20.0794 14.1263 20.0924 14.1352 20.1094C14.1442 20.1264 14.1464 20.1462 14.1414 20.1648L13.9282 21.0001L13.9531 21.0514C13.9656 21.0796 13.9667 21.1115 13.9563 21.1404C13.9459 21.1694 13.9247 21.1932 13.8971 21.207C13.852 21.2283 13.817 21.2665 13.7998 21.3134C13.7826 21.3602 13.7846 21.412 13.8054 21.4574C13.8215 21.5015 13.8545 21.5374 13.897 21.5573C13.9396 21.5771 13.9883 21.5792 14.0325 21.5632V21.5632C17.4716 19.9406 21.2292 19.1053 25.0318 19.1179C28.8344 19.1053 32.592 19.9406 36.0311 21.5632C36.0743 21.5808 36.1226 21.5807 36.1657 21.563C36.2088 21.5452 36.2432 21.5112 36.2614 21.4683V21.4605C36.2822 21.4153 36.2844 21.3637 36.2675 21.3168C36.2506 21.27 36.216 21.2316 36.1711 21.2101C36.1436 21.1963 36.1224 21.1725 36.112 21.1435C36.1016 21.1146 36.1027 21.0827 36.1151 21.0545L36.14 21.0032L35.9269 20.1679C35.9222 20.1493 35.9246 20.1297 35.9335 20.1128C35.9424 20.0958 35.9572 20.0828 35.9751 20.0761L36.6984 19.8116L36.7078 19.7883C36.7208 19.7603 36.7443 19.7386 36.7731 19.7276C36.8016 19.7166 36.8333 19.7166 36.8618 19.7276C36.8981 19.7429 36.9388 19.7439 36.9757 19.7303C37.0127 19.7167 37.0431 19.6896 37.0609 19.6545C37.08 19.6153 37.0833 19.5702 37.0702 19.5285C37.0594 19.4984 37.037 19.4738 37.008 19.4601L37.0158 19.4539ZM15.0934 20.5148C14.9125 20.5139 14.7393 20.4417 14.6114 20.3138C14.4835 20.186 14.4113 20.0127 14.4104 19.8319C14.4108 19.6509 14.483 19.4774 14.6112 19.3496C14.6743 19.286 14.7494 19.2355 14.8321 19.201C14.9149 19.1666 15.0037 19.1489 15.0934 19.149C15.2742 19.1498 15.4474 19.222 15.5753 19.3499C15.7032 19.4778 15.7754 19.651 15.7763 19.8319C15.7754 20.013 15.703 20.1865 15.5748 20.3144C15.4466 20.4423 15.2729 20.5144 15.0918 20.5148H15.0934ZM20.2267 18.323L18.5529 19.4912C18.5377 19.5024 18.5188 19.5074 18.5 19.5052L16.4778 19.2905C16.4622 19.2886 16.4475 19.2822 16.4356 19.2719C16.4237 19.2617 16.4151 19.2481 16.4109 19.233C16.4066 19.2176 16.4072 19.2014 16.4125 19.1863C16.4178 19.1713 16.4275 19.1583 16.4405 19.149L18.1142 17.9823C18.1295 17.9713 18.1484 17.9663 18.1671 17.9683L20.1894 18.1814C20.205 18.1833 20.2196 18.1898 20.2315 18.2C20.2434 18.2103 20.2521 18.2238 20.2563 18.239C20.2603 18.2543 20.2596 18.2705 20.2544 18.2855C20.2491 18.3005 20.2395 18.3135 20.2267 18.323ZM21.6453 18.7445C21.4645 18.7437 21.2913 18.6715 21.1634 18.5436C21.0355 18.4157 20.9633 18.2425 20.9625 18.0616C20.9624 17.972 20.9801 17.8832 21.0145 17.8004C21.049 17.7177 21.0995 17.6425 21.1631 17.5794C21.2909 17.4513 21.4644 17.3791 21.6453 17.3788C21.8266 17.3788 22.0005 17.4507 22.1288 17.5787C22.2571 17.7067 22.3294 17.8804 22.3298 18.0616C22.3281 18.2418 22.2555 18.4141 22.1277 18.5411C21.9998 18.668 21.8271 18.7395 21.6469 18.7399L21.6453 18.7445ZM26.9824 17.9668L25.0691 18.6792C25.0605 18.6828 25.0512 18.6847 25.0419 18.6847C25.0325 18.6847 25.0233 18.6828 25.0147 18.6792L23.1029 17.9668C23.0877 17.9615 23.0746 17.9516 23.0654 17.9385C23.0562 17.9254 23.0514 17.9097 23.0516 17.8936C23.0514 17.8776 23.0562 17.8619 23.0654 17.8488C23.0746 17.8356 23.0877 17.8258 23.1029 17.8205L25.0147 17.1081C25.0233 17.1045 25.0325 17.1026 25.0419 17.1026C25.0512 17.1026 25.0605 17.1045 25.0691 17.1081L26.9824 17.8205C26.9975 17.826 27.0105 17.8359 27.0197 17.849C27.0288 17.8621 27.0338 17.8776 27.0338 17.8936C27.0339 17.9094 27.0292 17.9249 27.0203 17.938C27.0114 17.951 26.9988 17.9611 26.984 17.9668H26.9824ZM28.44 18.7445C28.2592 18.7437 28.0859 18.6715 27.958 18.5436C27.8301 18.4157 27.758 18.2425 27.7571 18.0616C27.758 17.8808 27.8301 17.7076 27.958 17.5797C28.0859 17.4518 28.2592 17.3796 28.44 17.3788C28.6213 17.3788 28.7952 17.4507 28.9235 17.5787C29.0518 17.7067 29.1241 17.8804 29.1245 18.0616C29.1228 18.2418 29.0502 18.4141 28.9224 18.5411C28.7945 18.668 28.6218 18.7395 28.4416 18.7399L28.44 18.7445ZM33.6138 19.289L31.5916 19.5036C31.5728 19.5058 31.5539 19.5008 31.5387 19.4896L29.8649 18.3214C29.8519 18.3122 29.8419 18.2992 29.8364 18.2842C29.8308 18.2692 29.8299 18.2529 29.8338 18.2374C29.838 18.2223 29.8466 18.2087 29.8585 18.1985C29.8704 18.1882 29.8851 18.1818 29.9007 18.1799L31.9229 17.9668C31.9412 17.9647 31.9596 17.9697 31.9742 17.9807L33.648 19.1474C33.6609 19.1568 33.6707 19.1698 33.6763 19.1847C33.6818 19.1997 33.6828 19.2159 33.6791 19.2314C33.6755 19.2467 33.6673 19.2606 33.6556 19.2711C33.644 19.2817 33.6294 19.2884 33.6138 19.2905V19.289ZM34.9905 20.5148C34.8096 20.5139 34.6364 20.4417 34.5085 20.3138C34.3806 20.186 34.3084 20.0127 34.3076 19.8319C34.3084 19.651 34.3806 19.4778 34.5085 19.3499C34.6364 19.222 34.8096 19.1498 34.9905 19.149C35.1713 19.1498 35.3446 19.222 35.4724 19.3499C35.6003 19.4778 35.6725 19.651 35.6733 19.8319C35.6725 20.0133 35.5999 20.187 35.4713 20.3149C35.3428 20.4429 35.1688 20.5148 34.9874 20.5148H34.9905Z" fill="#FEBE10"/>
<path d="M41.4399 16.3847C41.4191 16.3649 41.4061 16.3385 41.4029 16.31C41.3998 16.2816 41.4068 16.2529 41.4228 16.2291C41.5162 16.114 41.5844 15.9806 41.623 15.8376C41.6615 15.6945 41.6697 15.5449 41.6468 15.3984C41.6263 15.2783 41.5806 15.1638 41.5128 15.0625C41.445 14.9611 41.3565 14.8753 41.2532 14.8105C41.2292 14.7935 41.2122 14.7683 41.2053 14.7397C41.1985 14.7111 41.2022 14.6809 41.2159 14.6549C41.3016 14.5087 41.3467 14.3422 41.3466 14.1727C41.3442 13.9542 41.2679 13.7429 41.1301 13.5734C40.9922 13.4039 40.8009 13.2861 40.5875 13.2394C40.5662 13.2343 40.5466 13.2236 40.531 13.2082C40.5153 13.1928 40.5042 13.1735 40.4988 13.1522C40.4936 13.1302 40.4946 13.1073 40.5018 13.0858C40.5089 13.0644 40.5219 13.0454 40.5393 13.0309C40.6544 12.9421 40.7474 12.828 40.8114 12.6975C40.8753 12.5669 40.9084 12.4234 40.9079 12.278C40.9089 12.0399 40.8207 11.8101 40.6606 11.6339C40.5005 11.4576 40.2801 11.3478 40.043 11.326C40.0233 11.3237 40.0044 11.3166 39.9881 11.3051C39.9718 11.2937 39.9586 11.2785 39.9497 11.2607C39.9402 11.2433 39.9352 11.2238 39.9352 11.2039C39.9352 11.1841 39.9402 11.1645 39.9497 11.1471C40.0524 10.9894 40.1064 10.8049 40.1052 10.6167C40.1052 10.363 40.0045 10.1196 39.8251 9.94021C39.6456 9.7608 39.4023 9.66001 39.1486 9.66001C39.064 9.66058 38.9798 9.67208 38.8981 9.69424C38.8766 9.70019 38.8538 9.69999 38.8324 9.69367C38.8109 9.68735 38.7917 9.67516 38.7768 9.65847C38.7635 9.64158 38.7548 9.62142 38.7518 9.6001C38.7488 9.57878 38.7515 9.55705 38.7597 9.53713C38.8167 9.41317 38.8464 9.27844 38.8468 9.14202C38.8464 8.88843 38.7455 8.64532 38.5661 8.466C38.3868 8.28668 38.1437 8.18576 37.8901 8.18535C37.7398 8.18533 37.5915 8.22106 37.4577 8.28957C37.4384 8.29868 37.4171 8.30263 37.3958 8.30099C37.3745 8.29935 37.354 8.2922 37.3363 8.28024C37.3189 8.26788 37.305 8.25119 37.296 8.23182C37.287 8.21246 37.2832 8.19108 37.285 8.1698L37.2975 8.01424C37.2971 7.76064 37.1961 7.51756 37.0168 7.33824C36.8375 7.15892 36.5944 7.05797 36.3408 7.05756C36.1452 7.05648 35.9542 7.11689 35.7948 7.23024C35.7791 7.24108 35.761 7.248 35.7421 7.25044C35.7231 7.25287 35.7039 7.25076 35.6859 7.24424C35.6681 7.23712 35.6522 7.22575 35.6397 7.21111C35.6273 7.19647 35.6185 7.17901 35.6144 7.16024C35.5663 6.94795 35.4481 6.75809 35.2787 6.62144C35.1093 6.48478 34.8986 6.40934 34.681 6.40734C34.5206 6.40726 34.3627 6.44755 34.2219 6.52448C34.0811 6.6014 33.9619 6.71251 33.8753 6.84757C33.8654 6.86244 33.8523 6.8749 33.8369 6.88405C33.8216 6.8932 33.8044 6.89881 33.7866 6.90045C33.769 6.9017 33.7513 6.89901 33.7349 6.89255C33.7185 6.88609 33.7037 6.87603 33.6917 6.86312C33.6021 6.76498 33.493 6.68664 33.3714 6.63307C33.2498 6.5795 33.1183 6.55189 32.9855 6.55201L32.7708 6.57691C32.7502 6.57928 32.7294 6.57655 32.7101 6.56896C32.6909 6.56136 32.6738 6.54913 32.6604 6.53335C32.6478 6.5179 32.6393 6.4996 32.6355 6.48007C32.6317 6.46053 32.6328 6.44037 32.6386 6.42134C32.6818 6.31189 32.704 6.19526 32.7039 6.07758C32.7035 5.82398 32.6026 5.58087 32.4232 5.40155C32.2439 5.22223 32.0008 5.12131 31.7473 5.1209C31.5678 5.12088 31.392 5.17158 31.2402 5.26714C31.2218 5.27794 31.2008 5.28363 31.1795 5.28363C31.1582 5.28363 31.1372 5.27794 31.1188 5.26714C31.1003 5.25526 31.0855 5.23852 31.0759 5.21876C31.0663 5.19901 31.0623 5.17699 31.0644 5.15513L31.0784 4.99956C31.0788 4.87386 31.0542 4.74933 31.0062 4.63318C30.9581 4.51702 30.8875 4.41157 30.7984 4.3229C30.7097 4.23387 30.6042 4.16329 30.488 4.11523C30.3719 4.06718 30.2474 4.0426 30.1217 4.04291C29.9156 4.04268 29.7151 4.10988 29.5508 4.23425C29.5351 4.24573 29.5168 4.25313 29.4975 4.25585C29.4783 4.25856 29.4586 4.25649 29.4404 4.24979C29.4219 4.24338 29.4054 4.23225 29.3926 4.21751C29.3798 4.20278 29.3711 4.18495 29.3673 4.16579C29.3186 3.95408 29.2001 3.76493 29.0307 3.62889C28.8614 3.49284 28.6511 3.41786 28.4339 3.41602C28.3081 3.416 28.1836 3.44085 28.0675 3.48918C27.9513 3.5375 27.8459 3.60834 27.7572 3.69758C27.7442 3.71064 27.7282 3.72041 27.7106 3.72608C27.6931 3.73176 27.6744 3.73319 27.6561 3.73024C27.638 3.72656 27.621 3.71874 27.6065 3.7074C27.5919 3.69607 27.5802 3.68152 27.5722 3.66489C27.4944 3.50107 27.3719 3.36251 27.2189 3.26511C27.0659 3.16771 26.8886 3.11543 26.7073 3.11424C26.6015 3.11423 26.4963 3.13155 26.3961 3.16556C26.3749 3.17171 26.3523 3.17194 26.3309 3.16618C26.3095 3.16042 26.2901 3.1489 26.2748 3.1329C26.0953 2.92917 25.869 2.77222 25.6153 2.67558L25.4348 2.61802C25.4102 2.61107 25.3886 2.59644 25.3729 2.57629C25.3572 2.55615 25.3484 2.53153 25.3477 2.50601V1.68935C25.3477 1.65718 25.3605 1.6263 25.3832 1.60355C25.406 1.5808 25.4368 1.56802 25.469 1.56802H26.1628V0.976898H25.469C25.4368 0.976898 25.406 0.96412 25.3832 0.941366C25.3605 0.918611 25.3477 0.88774 25.3477 0.85556V0.85556V0.242676H24.713V0.85556C24.713 0.88774 24.7002 0.918611 24.6775 0.941366C24.6547 0.96412 24.6239 0.976898 24.5917 0.976898H23.8995V1.56802H24.5917C24.6239 1.56802 24.6547 1.5808 24.6775 1.60355C24.7002 1.6263 24.713 1.65718 24.713 1.68935V2.50601C24.7123 2.53153 24.7035 2.55615 24.6879 2.57629C24.6722 2.59644 24.6505 2.61107 24.6259 2.61802L24.4455 2.67558C24.1917 2.77217 23.9653 2.92913 23.7859 3.1329C23.7706 3.1489 23.7512 3.16042 23.7298 3.16618C23.7084 3.17194 23.6858 3.17171 23.6646 3.16556C23.5643 3.13164 23.4593 3.11431 23.3535 3.11424C23.1721 3.11543 22.9948 3.16771 22.8418 3.26511C22.6888 3.36251 22.5664 3.50107 22.4886 3.66489C22.4805 3.68145 22.4687 3.69594 22.4541 3.70726C22.4396 3.71858 22.4226 3.72645 22.4046 3.73024C22.3863 3.73319 22.3677 3.73176 22.3501 3.72608C22.3325 3.72041 22.3165 3.71064 22.3035 3.69758C22.2148 3.60794 22.1092 3.53688 21.9927 3.48854C21.8763 3.44019 21.7514 3.41554 21.6253 3.41602C21.4081 3.41786 21.1978 3.49284 21.0285 3.62889C20.8591 3.76493 20.7405 3.95408 20.6919 4.16579C20.6872 4.18456 20.6781 4.20194 20.6654 4.21654C20.6527 4.23114 20.6368 4.24254 20.6188 4.24979C20.6006 4.25649 20.5809 4.25856 20.5616 4.25585C20.5424 4.25313 20.5241 4.24573 20.5084 4.23425C20.344 4.10988 20.1435 4.04268 19.9375 4.04291C19.6839 4.04332 19.4408 4.14424 19.2615 4.32356C19.0821 4.50289 18.9812 4.74597 18.9808 4.99956L18.9948 5.15513C18.9972 5.17708 18.9935 5.19925 18.9841 5.21926C18.9748 5.23927 18.9602 5.25635 18.9419 5.26868C18.9235 5.27948 18.9026 5.28518 18.8813 5.28518C18.8599 5.28518 18.839 5.27948 18.8206 5.26868C18.6684 5.17381 18.4928 5.12319 18.3135 5.12247C18.0599 5.12288 17.8168 5.2238 17.6375 5.40312C17.4581 5.58244 17.3572 5.82552 17.3568 6.07912C17.3567 6.19681 17.3789 6.31346 17.4221 6.42291C17.4273 6.44184 17.428 6.46175 17.4239 6.48097C17.4199 6.50018 17.4112 6.51815 17.3988 6.53335C17.3854 6.54913 17.3683 6.56136 17.3491 6.56896C17.3298 6.57655 17.3089 6.57928 17.2883 6.57691L17.0722 6.55201C16.939 6.55177 16.8073 6.57931 16.6854 6.63288C16.5635 6.68645 16.4542 6.76487 16.3644 6.86312C16.3523 6.87594 16.3375 6.88595 16.3211 6.89241C16.3047 6.89886 16.287 6.90159 16.2695 6.90045C16.2516 6.89892 16.2344 6.89338 16.219 6.88422C16.2037 6.87506 16.1906 6.86252 16.1808 6.84757C16.0948 6.71233 15.9759 6.60104 15.8353 6.52407C15.6947 6.4471 15.5369 6.40694 15.3766 6.40734C15.159 6.40934 14.9483 6.48478 14.7789 6.62144C14.6095 6.75809 14.4913 6.94795 14.4433 7.16024C14.4386 7.1788 14.4297 7.19604 14.4173 7.21061C14.4049 7.22518 14.3893 7.23669 14.3717 7.24424C14.3537 7.25076 14.3345 7.25287 14.3156 7.25044C14.2966 7.248 14.2785 7.24108 14.2628 7.23024C14.1022 7.11676 13.9104 7.05589 13.7137 7.05602C13.4601 7.05643 13.217 7.15735 13.0377 7.33667C12.8584 7.51599 12.7574 7.7591 12.757 8.01269L12.771 8.16823C12.773 8.18937 12.7694 8.21066 12.7607 8.23002C12.752 8.24937 12.7384 8.26614 12.7213 8.27868C12.704 8.29143 12.6836 8.29932 12.6623 8.30151C12.6409 8.3037 12.6194 8.3001 12.5999 8.29111C12.4656 8.22247 12.3168 8.18677 12.1659 8.18691C11.9123 8.18733 11.6692 8.28825 11.4899 8.46757C11.3106 8.64689 11.2097 8.88997 11.2093 9.14357C11.2092 9.27988 11.2383 9.41461 11.2948 9.53867C11.303 9.5586 11.3057 9.58035 11.3027 9.60167C11.2997 9.62299 11.2911 9.64312 11.2777 9.66001C11.2628 9.6767 11.2436 9.68891 11.2222 9.69524C11.2007 9.70156 11.1779 9.70176 11.1564 9.69581C11.0747 9.67355 10.9905 9.66204 10.9059 9.66158C10.6523 9.66199 10.4092 9.76291 10.2299 9.94223C10.0506 10.1216 9.94967 10.3646 9.94925 10.6182C9.9475 10.8065 10.0016 10.9911 10.1048 11.1487C10.1153 11.1655 10.1215 11.1847 10.1229 11.2045C10.1242 11.2243 10.1207 11.2441 10.1126 11.2622C10.1037 11.28 10.0905 11.2953 10.0742 11.3067C10.0579 11.3181 10.039 11.3253 10.0193 11.3276C9.78204 11.349 9.56151 11.4587 9.40133 11.6351C9.24116 11.8114 9.15303 12.0414 9.15439 12.2796C9.15345 12.4244 9.18561 12.5675 9.24843 12.698C9.31124 12.8285 9.40301 12.9429 9.51679 13.0325C9.53416 13.0469 9.54719 13.0659 9.55434 13.0874C9.56148 13.1088 9.56246 13.1318 9.55723 13.1538C9.55184 13.175 9.54073 13.1944 9.52509 13.2098C9.50946 13.2251 9.48994 13.2359 9.4686 13.2409C9.25532 13.2877 9.06423 13.4056 8.92662 13.5751C8.789 13.7447 8.71301 13.9559 8.71105 14.1742C8.71057 14.3436 8.7551 14.51 8.84012 14.6565C8.85367 14.6827 8.8572 14.7129 8.85005 14.7416C8.84289 14.7702 8.82554 14.7952 8.80124 14.812C8.69814 14.8772 8.60997 14.9634 8.54243 15.065C8.47488 15.1666 8.42951 15.2813 8.40927 15.4016C8.38613 15.548 8.39412 15.6977 8.43272 15.8408C8.47132 15.9839 8.53962 16.1173 8.63324 16.2322C8.64921 16.256 8.65626 16.2847 8.65313 16.3131C8.65 16.3416 8.6369 16.368 8.61615 16.3878C8.54044 16.4494 8.48028 16.528 8.44055 16.6172C8.40083 16.7063 8.38265 16.8036 8.38748 16.9011C8.40313 17.0887 8.45684 17.2711 8.54537 17.4372C8.6339 17.6033 8.75538 17.7496 8.90236 17.8671C9.09083 18.0424 9.33193 18.1506 9.58818 18.1748C9.84444 18.199 10.1015 18.1378 10.3195 18.0009C10.3394 17.9873 10.363 17.98 10.3871 17.98C10.4113 17.98 10.4349 17.9873 10.4548 18.0009C10.6861 18.1789 10.9566 18.2989 11.2437 18.3509C11.5309 18.4029 11.8263 18.3853 12.1052 18.2996C12.1266 18.2934 12.1494 18.2934 12.1708 18.2994C12.1922 18.3055 12.2115 18.3174 12.2266 18.3338C12.2399 18.3507 12.2486 18.3708 12.2516 18.3921C12.2546 18.4135 12.2519 18.4352 12.2437 18.4551C12.2123 18.5201 12.196 18.5914 12.196 18.6636C12.196 18.7358 12.2123 18.807 12.2437 18.872C12.2703 18.9315 12.3085 18.9851 12.356 19.0297C12.4036 19.0743 12.4595 19.109 12.5206 19.1318C12.5777 19.1524 12.6384 19.1613 12.699 19.1581C12.7596 19.1549 12.8191 19.1396 12.8737 19.1131C16.6672 17.3219 20.8119 16.3978 25.007 16.408C29.2057 16.3972 33.3541 17.3213 37.1513 19.1131C37.266 19.1609 37.3949 19.1625 37.5108 19.1176C37.6267 19.0727 37.7208 18.9847 37.7735 18.872C37.8043 18.8069 37.8204 18.7357 37.8204 18.6636C37.8204 18.5915 37.8043 18.5203 37.7735 18.4551C37.765 18.4353 37.762 18.4135 37.7651 18.3921C37.7681 18.3707 37.7769 18.3505 37.7906 18.3338C37.8056 18.3174 37.8249 18.3055 37.8464 18.2994C37.8678 18.2934 37.8905 18.2934 37.9119 18.2996C38.1912 18.3851 38.4868 18.4027 38.7742 18.3507C39.0616 18.2988 39.3323 18.1788 39.5639 18.0009C39.5838 17.9873 39.6075 17.98 39.6316 17.98C39.6558 17.98 39.6793 17.9873 39.6993 18.0009C39.9172 18.1378 40.1743 18.199 40.4306 18.1748C40.6868 18.1506 40.9279 18.0424 41.1164 17.8671C41.2634 17.7496 41.3848 17.6033 41.4733 17.4372C41.5618 17.2711 41.6156 17.0887 41.6313 16.9011C41.636 16.804 41.618 16.7071 41.5785 16.6183C41.5391 16.5294 41.4794 16.451 41.4042 16.3894L41.4399 16.3847ZM41.0712 14.1711C41.0704 14.352 40.9982 14.5252 40.8703 14.6531C40.7424 14.781 40.5692 14.8532 40.3884 14.854C40.2071 14.854 40.0333 14.7821 39.9049 14.6541C39.7766 14.5261 39.7043 14.3524 39.7039 14.1711C39.7043 13.9899 39.7766 13.8162 39.9049 13.6882C40.0333 13.5601 40.2071 13.4882 40.3884 13.4882C40.5695 13.4882 40.7432 13.5602 40.8712 13.6883C40.9993 13.8163 41.0712 13.99 41.0712 14.1711ZM39.9497 11.5951C40.1306 11.5959 40.3038 11.6682 40.4316 11.7961C40.5595 11.9239 40.6318 12.0971 40.6326 12.278C40.6326 12.4593 40.5607 12.6331 40.4326 12.7614C40.3046 12.8898 40.131 12.962 39.9497 12.9625C39.7685 12.962 39.5948 12.8898 39.4667 12.7614C39.3387 12.6331 39.2668 12.4593 39.2668 12.278C39.2668 12.0969 39.3388 11.9232 39.4668 11.7952C39.5949 11.6671 39.7686 11.5951 39.9497 11.5951V11.5951ZM39.1595 9.9338C39.3404 9.93462 39.5135 10.0068 39.6414 10.1347C39.7693 10.2626 39.8416 10.4358 39.8424 10.6167C39.8416 10.7975 39.7693 10.9708 39.6414 11.0986C39.5135 11.2265 39.3404 11.2987 39.1595 11.2996C38.9786 11.2987 38.8054 11.2265 38.6775 11.0986C38.5496 10.9708 38.4774 10.7975 38.4766 10.6167C38.477 10.4356 38.549 10.2619 38.6769 10.1337C38.8049 10.0055 38.9784 9.93306 39.1595 9.93224V9.9338ZM37.9026 8.45757C38.0834 8.45839 38.2567 8.53061 38.3846 8.6585C38.5125 8.78639 38.5847 8.9596 38.5855 9.14046C38.5847 9.32132 38.5125 9.49455 38.3846 9.62244C38.2567 9.75033 38.0834 9.82252 37.9026 9.82334C37.7217 9.82252 37.5485 9.75033 37.4206 9.62244C37.2927 9.49455 37.2205 9.32132 37.2197 9.14046C37.2205 8.9596 37.2927 8.78639 37.4206 8.6585C37.5485 8.53061 37.7217 8.45839 37.9026 8.45757V8.45757ZM36.3564 7.33601C36.5372 7.33682 36.7104 7.40904 36.8383 7.53693C36.9662 7.66482 37.0384 7.83805 37.0393 8.01891C37.0384 8.19977 36.9662 8.37298 36.8383 8.50087C36.7104 8.62876 36.5372 8.70097 36.3564 8.70179C36.1755 8.70097 36.0023 8.62876 35.8744 8.50087C35.7465 8.37298 35.6743 8.19977 35.6735 8.01891C35.6743 7.83805 35.7465 7.66482 35.8744 7.53693C36.0023 7.40904 36.1755 7.33682 36.3564 7.33601V7.33601ZM34.6966 6.68735C34.8774 6.68817 35.0507 6.76039 35.1786 6.88828C35.3065 7.01617 35.3786 7.18937 35.3795 7.37023C35.3795 7.55149 35.3076 7.72535 35.1796 7.85366C35.0515 7.98198 34.8778 8.05427 34.6966 8.05468C34.5151 8.05468 34.341 7.98257 34.2126 7.85421C34.0842 7.72585 34.0121 7.55176 34.0121 7.37023C34.0121 7.18912 34.0841 7.01544 34.2122 6.88737C34.3402 6.75931 34.5139 6.68735 34.695 6.68735H34.6966ZM33.8333 8.49802C34.0141 8.49884 34.1873 8.57106 34.3152 8.69894C34.4431 8.82683 34.5153 9.00004 34.5161 9.1809C34.5153 9.36176 34.4431 9.53499 34.3152 9.66288C34.1873 9.79077 34.0141 9.86297 33.8333 9.86378C33.6524 9.86297 33.4792 9.79077 33.3513 9.66288C33.2234 9.53499 33.1512 9.36176 33.1504 9.1809C33.1504 8.99938 33.2225 8.82529 33.3508 8.69693C33.4792 8.56857 33.6533 8.49645 33.8348 8.49645L33.8333 8.49802ZM32.609 12.3869C32.7334 12.3119 32.8715 12.2625 33.0152 12.2417C33.1589 12.2208 33.3054 12.229 33.4459 12.2656C33.5864 12.3017 33.7184 12.3653 33.8342 12.4526C33.9501 12.5399 34.0475 12.6492 34.121 12.7742C34.196 12.8986 34.2454 13.0367 34.2662 13.1804C34.2871 13.3241 34.279 13.4706 34.2424 13.6111C34.2071 13.7522 34.1438 13.8847 34.0565 14.0009C33.9691 14.1171 33.8594 14.2147 33.7337 14.2878C33.6094 14.3628 33.4712 14.4122 33.3275 14.433C33.1838 14.4539 33.0374 14.4457 32.8968 14.4091C32.7563 14.373 32.6244 14.3094 32.5085 14.2221C32.3927 14.1349 32.2952 14.0255 32.2217 13.9005C32.1206 13.7311 32.0668 13.5377 32.0661 13.3405C32.0661 13.2471 32.0776 13.1541 32.1003 13.0636C32.1356 12.9223 32.1986 12.7895 32.2856 12.6728C32.3727 12.5561 32.4821 12.4578 32.6075 12.3838L32.609 12.3869ZM34.2735 11.7647C34.0926 11.7639 33.9194 11.6917 33.7915 11.5638C33.6636 11.4359 33.5914 11.2627 33.5906 11.0818C33.5914 10.9009 33.6636 10.7277 33.7915 10.5998C33.9194 10.4719 34.0926 10.3997 34.2735 10.3989C34.4543 10.3997 34.6276 10.4719 34.7554 10.5998C34.8833 10.7277 34.9555 10.9009 34.9563 11.0818C34.9561 11.1715 34.9383 11.2602 34.9038 11.343C34.8693 11.4258 34.8188 11.501 34.7553 11.5642C34.6917 11.6275 34.6163 11.6776 34.5334 11.7117C34.4504 11.7459 34.3616 11.7633 34.2719 11.7631L34.2735 11.7647ZM33.0026 6.83667C33.0922 6.83659 33.181 6.85428 33.2638 6.88873C33.3466 6.92317 33.4217 6.97368 33.4848 7.03734C33.5485 7.10046 33.599 7.17559 33.6334 7.25837C33.6678 7.34114 33.6856 7.42993 33.6855 7.51958C33.6847 7.70044 33.6125 7.87365 33.4846 8.00154C33.3567 8.12943 33.1835 8.20164 33.0026 8.20246C32.8216 8.20205 32.6481 8.12997 32.5201 8.00199C32.3922 7.87401 32.3201 7.70057 32.3197 7.51958C32.3195 7.4297 32.337 7.34065 32.3712 7.25754C32.4054 7.17442 32.4556 7.09883 32.519 7.03513C32.5825 6.97143 32.6578 6.92084 32.7408 6.88626C32.8238 6.85167 32.9127 6.83377 33.0026 6.83356V6.83356V6.83667ZM31.7581 5.40713C31.939 5.40795 32.1122 5.48014 32.2401 5.60803C32.368 5.73592 32.4402 5.90915 32.4411 6.09001C32.4402 6.27088 32.368 6.44411 32.2401 6.57199C32.1122 6.69988 31.939 6.77208 31.7581 6.7729C31.5773 6.77208 31.4041 6.69988 31.2762 6.57199C31.1483 6.44411 31.0761 6.27088 31.0752 6.09001C31.075 6.00013 31.0925 5.91109 31.1267 5.82797C31.161 5.74485 31.2112 5.66929 31.2746 5.60559C31.338 5.54189 31.4134 5.4913 31.4963 5.45672C31.5793 5.42213 31.6682 5.40423 31.7581 5.40402V5.40402V5.40713ZM30.1342 4.31825C30.315 4.31907 30.4882 4.39126 30.6161 4.51915C30.744 4.64704 30.8162 4.82027 30.817 5.00113C30.8162 5.18199 30.744 5.3552 30.6161 5.48309C30.4882 5.61098 30.315 5.68319 30.1342 5.68401C29.9533 5.68319 29.7801 5.61098 29.6522 5.48309C29.5243 5.3552 29.452 5.18199 29.4512 5.00113C29.4525 4.82041 29.5251 4.64752 29.6534 4.52017C29.7816 4.39282 29.955 4.32135 30.1357 4.32136L30.1342 4.31825ZM28.4448 3.69601C28.6257 3.69683 28.7989 3.76905 28.9268 3.89694C29.0547 4.02483 29.1269 4.19803 29.1277 4.37889C29.1269 4.55975 29.0547 4.73298 28.9268 4.86087C28.7989 4.98876 28.6257 5.06098 28.4448 5.0618C28.264 5.06098 28.0907 4.98876 27.9628 4.86087C27.835 4.73298 27.7627 4.55975 27.7619 4.37889C27.7623 4.28921 27.7804 4.20049 27.8151 4.1178C27.8498 4.0351 27.9004 3.96006 27.9641 3.89694C28.0278 3.83381 28.1033 3.78386 28.1863 3.74992C28.2694 3.71597 28.3582 3.69871 28.4479 3.69912L28.4448 3.69601ZM26.2328 3.59335C26.2959 3.52969 26.371 3.47919 26.4538 3.44474C26.5366 3.4103 26.6254 3.39261 26.7151 3.39269C26.8963 3.39269 27.0701 3.46457 27.1985 3.59259C27.3268 3.72062 27.399 3.89432 27.3995 4.07557C27.399 4.25683 27.3268 4.43053 27.1985 4.55855C27.0701 4.68657 26.8963 4.75845 26.7151 4.75845C26.5342 4.75764 26.361 4.68544 26.2331 4.55755C26.1052 4.42966 26.0329 4.25643 26.0321 4.07557C26.0325 3.89459 26.1046 3.72115 26.2328 3.59335V3.59335ZM25.0366 5.04158C25.2175 5.04239 25.3907 5.11461 25.5186 5.2425C25.6465 5.37039 25.7187 5.5436 25.7195 5.72446C25.7187 5.90532 25.6465 6.07855 25.5186 6.20644C25.3907 6.33433 25.2175 6.40652 25.0366 6.40734C24.8557 6.40652 24.6825 6.33433 24.5546 6.20644C24.4267 6.07855 24.3545 5.90532 24.3537 5.72446C24.3545 5.5432 24.4272 5.36968 24.5558 5.24195C24.6844 5.11422 24.8584 5.0427 25.0397 5.04312L25.0366 5.04158ZM24.3552 9.56979C24.356 9.38893 24.4283 9.21572 24.5562 9.08783C24.6841 8.95994 24.8573 8.88773 25.0382 8.88691C25.219 8.88773 25.3922 8.95994 25.5201 9.08783C25.648 9.21572 25.7202 9.38893 25.721 9.56979C25.7202 9.75065 25.648 9.92388 25.5201 10.0518C25.3922 10.1797 25.219 10.2519 25.0382 10.2527C24.9479 10.2521 24.8587 10.2337 24.7756 10.1985C24.6925 10.1634 24.6171 10.1122 24.5539 10.0479C24.4906 9.9836 24.4406 9.90746 24.4068 9.82381C24.373 9.74017 24.356 9.65068 24.3568 9.56046L24.3552 9.56979ZM26.1442 12.3153C26.1442 12.6087 26.0276 12.89 25.8202 13.0974C25.6128 13.3048 25.3315 13.4213 25.0382 13.4213C24.7448 13.4213 24.4635 13.3048 24.2561 13.0974C24.0486 12.89 23.9322 12.6087 23.9322 12.3153C23.9322 12.022 24.0486 11.7407 24.2561 11.5333C24.4635 11.3259 24.7448 11.2093 25.0382 11.2093C25.3308 11.2098 25.6114 11.326 25.8186 11.5326C26.0259 11.7393 26.1429 12.0196 26.1442 12.3122V12.3153ZM25.0382 8.33313C24.8573 8.33231 24.6841 8.26009 24.5562 8.1322C24.4283 8.00431 24.356 7.83111 24.3552 7.65025C24.356 7.46938 24.4283 7.29615 24.5562 7.16826C24.6841 7.04037 24.8573 6.96816 25.0382 6.96734C25.219 6.96816 25.3922 7.04037 25.5201 7.16826C25.648 7.29615 25.7202 7.46938 25.721 7.65025C25.7202 7.83069 25.6482 8.00351 25.5206 8.13111C25.393 8.25871 25.2201 8.33074 25.0397 8.33156L25.0382 8.33313ZM23.3597 3.39891C23.5406 3.39973 23.7138 3.47192 23.8417 3.59981C23.9696 3.7277 24.0418 3.90093 24.0426 4.08179C24.0418 4.26265 23.9696 4.43588 23.8417 4.56377C23.7138 4.69166 23.5406 4.76385 23.3597 4.76467C23.1784 4.76467 23.0046 4.69279 22.8762 4.56477C22.7479 4.43675 22.6757 4.26305 22.6753 4.08179C22.675 3.99191 22.6926 3.90287 22.7268 3.81975C22.761 3.73663 22.8112 3.66107 22.8746 3.59736C22.938 3.53366 23.0134 3.48308 23.0963 3.44849C23.1793 3.41391 23.2683 3.396 23.3581 3.3958L23.3597 3.39891ZM21.1477 3.90135C21.2108 3.83769 21.286 3.78718 21.3687 3.75274C21.4515 3.7183 21.5403 3.7006 21.6299 3.70069C21.8108 3.70151 21.984 3.7737 22.1119 3.90159C22.2398 4.02948 22.312 4.20271 22.3128 4.38357C22.312 4.56443 22.2398 4.73766 22.1119 4.86555C21.984 4.99344 21.8108 5.06563 21.6299 5.06645C21.4491 5.06563 21.2758 4.99344 21.1479 4.86555C21.0201 4.73766 20.9479 4.56443 20.947 4.38357C20.9465 4.29338 20.9639 4.20399 20.9984 4.12065C21.0328 4.0373 21.0836 3.96168 21.1477 3.89824V3.90135ZM19.9406 4.32758C20.1215 4.32839 20.2947 4.40059 20.4226 4.52848C20.5505 4.65637 20.6227 4.8296 20.6235 5.01046C20.6227 5.19132 20.5505 5.36455 20.4226 5.49244C20.2947 5.62033 20.1215 5.69252 19.9406 5.69334C19.7597 5.69252 19.5865 5.62033 19.4586 5.49244C19.3307 5.36455 19.2585 5.19132 19.2577 5.01046C19.2575 4.92058 19.275 4.83153 19.3092 4.74841C19.3434 4.66529 19.3936 4.58973 19.457 4.52603C19.5205 4.46233 19.5958 4.41175 19.6788 4.37716C19.7617 4.34258 19.8507 4.32467 19.9406 4.32447V4.32758ZM18.3166 5.41646C18.4062 5.41638 18.495 5.43407 18.5778 5.46851C18.6605 5.50296 18.7357 5.55346 18.7988 5.61712C18.9269 5.74492 18.9991 5.91836 18.9995 6.09934C18.9986 6.2802 18.9265 6.45343 18.7986 6.58132C18.6707 6.70921 18.4974 6.78143 18.3166 6.78225C18.1357 6.78143 17.9625 6.70921 17.8346 6.58132C17.7067 6.45343 17.6345 6.2802 17.6337 6.09934C17.6329 6.00946 17.6498 5.9203 17.6834 5.83694C17.717 5.75359 17.7668 5.67767 17.8298 5.61354C17.8927 5.5494 17.9677 5.4983 18.0505 5.46315C18.1332 5.428 18.222 5.40949 18.3119 5.40867H18.3197L18.3166 5.41646ZM17.0722 6.84603C17.253 6.84684 17.4262 6.91904 17.5541 7.04693C17.682 7.17482 17.7542 7.34805 17.755 7.52891C17.7542 7.70977 17.682 7.88298 17.5541 8.01086C17.4262 8.13875 17.253 8.21097 17.0722 8.21179C16.8913 8.21097 16.7181 8.13875 16.5902 8.01086C16.4623 7.88298 16.3901 7.70977 16.3893 7.52891C16.3885 7.43902 16.4053 7.34986 16.439 7.26651C16.4726 7.18315 16.5224 7.10724 16.5853 7.04311C16.6483 6.97897 16.7233 6.92786 16.806 6.89271C16.8888 6.85756 16.9776 6.83905 17.0675 6.83824H17.0752L17.0722 6.84603ZM16.6288 12.2765C16.9126 12.2037 17.2138 12.2465 17.466 12.3955C17.7183 12.5446 17.9011 12.7877 17.9744 13.0714C18.0471 13.3552 18.0043 13.6563 17.8553 13.9085C17.7062 14.1608 17.4632 14.3437 17.1795 14.4169C17.039 14.4535 16.8925 14.4616 16.7488 14.4408C16.6051 14.42 16.4669 14.3706 16.3426 14.2956C16.2169 14.2224 16.1072 14.1249 16.0198 14.0087C15.9324 13.8925 15.8692 13.7599 15.8339 13.6189C15.7622 13.3347 15.8061 13.0336 15.956 12.7817C16.1058 12.5298 16.3495 12.3475 16.6335 12.2749L16.6288 12.2765ZM15.1184 11.0849C15.1192 10.904 15.1914 10.7308 15.3193 10.6029C15.4472 10.4751 15.6204 10.4028 15.8012 10.402C15.9821 10.4028 16.1553 10.4751 16.2832 10.6029C16.4111 10.7308 16.4833 10.904 16.4841 11.0849C16.4833 11.2658 16.4111 11.439 16.2832 11.5669C16.1553 11.6948 15.9821 11.767 15.8012 11.7678C15.6204 11.767 15.4473 11.6944 15.3198 11.5661C15.1924 11.4378 15.1211 11.2642 15.1215 11.0834L15.1184 11.0849ZM16.2399 8.50735C16.4208 8.50817 16.594 8.58038 16.7219 8.70827C16.8498 8.83616 16.922 9.00937 16.9228 9.19023C16.922 9.37109 16.8498 9.54432 16.7219 9.67221C16.594 9.8001 16.4208 9.87232 16.2399 9.87314C16.0591 9.87232 15.8858 9.8001 15.7579 9.67221C15.6301 9.54432 15.5579 9.37109 15.557 9.19023C15.557 9.10058 15.5746 9.01181 15.6091 8.92904C15.6435 8.84627 15.6941 8.77114 15.7577 8.70801C15.8213 8.64351 15.8971 8.5924 15.9807 8.55767C16.0643 8.52294 16.154 8.50528 16.2446 8.50578L16.2399 8.50735ZM15.3766 6.69668C15.4663 6.6966 15.555 6.71429 15.6378 6.74873C15.7206 6.78318 15.7957 6.83368 15.8588 6.89734C15.9225 6.96047 15.973 7.0356 16.0074 7.11837C16.0419 7.20114 16.0596 7.28991 16.0595 7.37956C16.0595 7.56082 15.9876 7.73468 15.8595 7.86299C15.7315 7.9913 15.5579 8.0636 15.3766 8.06401C15.1951 8.06401 15.021 7.99189 14.8926 7.86354C14.7643 7.73518 14.6922 7.56109 14.6922 7.37956C14.6924 7.28968 14.7103 7.20072 14.7449 7.11775C14.7794 7.03479 14.83 6.95947 14.8937 6.89606C14.9574 6.83265 15.033 6.78239 15.1161 6.74819C15.1992 6.71398 15.2882 6.69648 15.3781 6.69668H15.3766ZM13.7152 7.34536C13.8961 7.34618 14.0693 7.41837 14.1972 7.54626C14.3251 7.67415 14.3973 7.84738 14.3981 8.02824C14.3973 8.2091 14.3251 8.38231 14.1972 8.5102C14.0693 8.63809 13.8961 8.7103 13.7152 8.71112C13.534 8.71112 13.3601 8.63924 13.2318 8.51122C13.1035 8.3832 13.0312 8.2095 13.0308 8.02824C13.031 7.93836 13.0489 7.8494 13.0835 7.76643C13.1181 7.68347 13.1687 7.60813 13.2324 7.54472C13.2961 7.4813 13.3716 7.43107 13.4548 7.39686C13.5379 7.36266 13.6269 7.34515 13.7168 7.34536H13.7152ZM12.1706 8.4669C12.3515 8.46772 12.5246 8.53994 12.6525 8.66783C12.7804 8.79572 12.8527 8.96892 12.8535 9.14978C12.8527 9.33065 12.7804 9.50388 12.6525 9.63177C12.5246 9.75966 12.3515 9.83187 12.1706 9.83269C11.9893 9.83269 11.8155 9.76078 11.6871 9.63276C11.5588 9.50474 11.4866 9.33104 11.4862 9.14978C11.4864 9.0599 11.5043 8.97094 11.5388 8.88798C11.5734 8.80502 11.624 8.7297 11.6877 8.66628C11.7514 8.60287 11.827 8.55262 11.9101 8.51841C11.9932 8.4842 12.0822 8.4667 12.1721 8.4669V8.4669H12.1706ZM10.9137 9.94313C11.0949 9.94313 11.2688 10.015 11.3971 10.143C11.5255 10.2711 11.5977 10.4448 11.5981 10.626C11.5977 10.8073 11.5255 10.981 11.3971 11.109C11.2688 11.237 11.0949 11.3089 10.9137 11.3089C10.7328 11.3081 10.5596 11.2359 10.4317 11.108C10.3038 10.9801 10.2316 10.8069 10.2308 10.626C10.231 10.5361 10.2489 10.4472 10.2835 10.3642C10.3181 10.2812 10.3687 10.2059 10.4324 10.1425C10.4961 10.0791 10.5717 10.0288 10.6548 9.99464C10.7379 9.96043 10.8269 9.94293 10.9168 9.94313V9.94313H10.9137ZM9.44059 12.2858C9.44141 12.1049 9.51361 11.9317 9.64149 11.8038C9.76938 11.6759 9.94261 11.6037 10.1235 11.6029C10.3043 11.6037 10.4776 11.6759 10.6055 11.8038C10.7333 11.9317 10.8055 12.1049 10.8064 12.2858C10.8064 12.4671 10.7345 12.6409 10.6065 12.7692C10.4784 12.8975 10.3047 12.9698 10.1235 12.9702C9.94303 12.969 9.77037 12.8966 9.64306 12.7687C9.51575 12.6408 9.44409 12.4678 9.44368 12.2873L9.44059 12.2858ZM9.6817 13.4929C9.86256 13.4937 10.0358 13.5659 10.1637 13.6938C10.2916 13.8217 10.3638 13.9949 10.3646 14.1758C10.3638 14.3567 10.2916 14.5299 10.1637 14.6578C10.0358 14.7857 9.86256 14.8579 9.6817 14.8587C9.50084 14.8579 9.32761 14.7857 9.19972 14.6578C9.07183 14.5299 8.99964 14.3567 8.99882 14.1758C8.99964 14.0859 9.01812 13.9971 9.05327 13.9143C9.08842 13.8316 9.13953 13.7566 9.20366 13.6936C9.2678 13.6307 9.34371 13.5809 9.42706 13.5473C9.51042 13.5136 9.59961 13.4967 9.68949 13.4976V13.4976L9.6817 13.4929ZM10.419 17.6151C10.1619 17.7563 9.85935 17.7897 9.57765 17.708C9.29594 17.6264 9.05812 17.4363 8.91636 17.1796C8.77569 16.9226 8.74254 16.6204 8.82417 16.3391C8.9058 16.0577 9.09556 15.8202 9.35192 15.6785C9.47954 15.6078 9.61993 15.5632 9.76492 15.5472C9.90991 15.5312 10.0566 15.5441 10.1966 15.5851C10.3362 15.6249 10.4665 15.6921 10.5798 15.7829C10.693 15.8738 10.787 15.9863 10.8562 16.114C10.9457 16.2765 10.9927 16.459 10.993 16.6445C10.9948 16.8429 10.9432 17.0381 10.8436 17.2097C10.744 17.3813 10.6 17.523 10.4268 17.6198L10.419 17.6151ZM15.2273 17.108C14.5039 17.3616 13.7791 17.6494 13.0837 17.9527C13.0592 17.9628 13.0319 17.9645 13.0062 17.9575C12.9806 17.9504 12.9581 17.9351 12.9422 17.9138C12.9273 17.8918 12.9202 17.8656 12.9218 17.8391C12.9235 17.8126 12.9339 17.7875 12.9515 17.7676C13.2084 17.4921 13.3825 17.1497 13.4539 16.7798C13.4591 16.7558 13.4714 16.734 13.4892 16.7171C13.5069 16.7002 13.5293 16.689 13.5535 16.6849L13.6748 16.6616C13.7958 16.6318 13.9099 16.579 14.0108 16.506C14.0309 16.492 14.0548 16.4845 14.0793 16.4845C14.1037 16.4845 14.1276 16.492 14.1477 16.506C14.4535 16.7268 14.8151 16.8573 15.1915 16.8825C15.2178 16.8849 15.2427 16.8959 15.2621 16.9139C15.2815 16.932 15.2944 16.9559 15.2988 16.982C15.3052 17.0087 15.3024 17.0367 15.2908 17.0616C15.2792 17.0865 15.2596 17.1066 15.235 17.1189L15.2273 17.108ZM15.6488 16.1918C15.4248 16.2496 15.1887 16.2395 14.9704 16.1628C14.7521 16.0861 14.5616 15.9462 14.423 15.7609C14.4104 15.7412 14.4024 15.7188 14.3997 15.6956L14.3702 15.4965C14.3057 15.2499 14.1464 15.0388 13.927 14.9092C13.7076 14.7795 13.4459 14.7418 13.1988 14.8042C13.076 14.8353 12.9606 14.8905 12.8594 14.9666C12.7582 15.0427 12.6731 15.1382 12.6092 15.2476C12.5453 15.3554 12.5034 15.4749 12.4858 15.599C12.4681 15.7231 12.4752 15.8495 12.5066 15.9709C12.5444 16.1189 12.6176 16.2555 12.7197 16.3691C12.7367 16.3876 12.747 16.4111 12.7492 16.436C12.7712 16.6641 12.7257 16.8935 12.6184 17.096C12.5111 17.2984 12.3467 17.4648 12.1457 17.5747C11.9992 17.6552 11.8373 17.7033 11.6706 17.7159C11.504 17.7285 11.3366 17.7053 11.1797 17.6478C11.1586 17.6396 11.1402 17.6256 11.1267 17.6075C11.1133 17.5893 11.1052 17.5677 11.1035 17.5451C11.1026 17.5226 11.1082 17.5002 11.1194 17.4807C11.1307 17.4612 11.1473 17.4452 11.1672 17.4347C11.4089 17.3503 11.6073 17.1736 11.719 16.9433C11.8306 16.713 11.8464 16.4478 11.763 16.2058C11.745 16.1555 11.7232 16.1066 11.6977 16.0596C11.6556 15.8938 11.576 15.74 11.4652 15.6097C11.3544 15.4795 11.2152 15.3763 11.0584 15.3082C11.0331 15.3 11.0113 15.2836 10.9964 15.2617C10.9815 15.2397 10.9743 15.2134 10.9759 15.1869C10.9347 13.8476 11.3118 12.5287 12.0547 11.4136C12.7977 10.2984 13.8696 9.4425 15.1215 8.96469C15.1399 8.95389 15.1608 8.94817 15.1822 8.94817C15.2035 8.94817 15.2244 8.95389 15.2428 8.96469C15.2599 8.97526 15.2738 8.9902 15.2831 9.00799C15.2924 9.02577 15.2968 9.04574 15.2957 9.06578L15.2879 9.18712C15.2878 9.33243 15.321 9.47584 15.3849 9.60634C15.4488 9.73685 15.5418 9.85099 15.6566 9.94002C15.674 9.95448 15.687 9.97349 15.6941 9.99492C15.7012 10.0164 15.7023 10.0394 15.697 10.0613C15.6916 10.0826 15.6805 10.1019 15.6649 10.1173C15.6493 10.1327 15.6297 10.1434 15.6084 10.1484C15.3944 10.1946 15.2023 10.3121 15.0639 10.4817C14.9254 10.6513 14.8486 10.8629 14.8462 11.0818C14.8473 11.2878 14.9143 11.4881 15.0375 11.6532C15.1606 11.8184 15.3335 11.9398 15.5306 11.9996C15.5466 12.0049 15.5614 12.0134 15.5739 12.0246C15.5865 12.0359 15.5967 12.0496 15.6037 12.0649C15.6103 12.0804 15.6137 12.0971 15.6137 12.1139C15.6137 12.1307 15.6103 12.1474 15.6037 12.1629C15.522 12.3359 15.4887 12.5278 15.5073 12.7182C15.5085 12.7412 15.5029 12.7641 15.4913 12.784C15.4797 12.8039 15.4625 12.82 15.4419 12.8302C15.3274 12.8758 15.223 12.9435 15.1348 13.0296C15.0466 13.1157 14.9763 13.2184 14.928 13.3318C14.8797 13.4451 14.8543 13.567 14.8534 13.6902C14.8524 13.8134 14.8758 13.9357 14.9224 14.0498L14.9348 14.0794C15.1261 14.8245 15.5726 15.0671 16.383 14.8571C16.3993 14.8536 16.4161 14.8534 16.4324 14.8566C16.4488 14.8598 16.4642 14.8663 16.4779 14.8758C16.4914 14.8856 16.5027 14.8981 16.511 14.9126C16.5194 14.9271 16.5245 14.9432 16.5261 14.9598C16.5523 15.236 16.4787 15.5124 16.3186 15.739C16.1585 15.9656 15.9225 16.1273 15.6535 16.1949L15.6488 16.1918ZM18.7148 16.1187C18.0164 16.2742 17.3148 16.4485 16.6521 16.6476C16.6268 16.6539 16.6001 16.6518 16.576 16.6418C16.5519 16.6317 16.5316 16.6141 16.5184 16.5916C16.5067 16.5681 16.503 16.5414 16.5078 16.5156C16.5125 16.4898 16.5255 16.4662 16.5448 16.4485C16.7696 16.2547 16.9437 16.0091 17.0522 15.7329C17.1606 15.4567 17.2 15.1582 17.1671 14.8633C17.166 14.8363 17.1739 14.8097 17.1897 14.7877C17.2055 14.7657 17.2282 14.7496 17.2542 14.742C17.281 14.7359 17.309 14.7393 17.3337 14.7515C17.3583 14.7636 17.378 14.7839 17.3895 14.8089C17.5034 15.0845 17.6833 15.328 17.9133 15.5178C18.1433 15.7077 18.4164 15.8382 18.7086 15.8978C18.7343 15.9036 18.7574 15.9177 18.7743 15.938C18.7911 15.9582 18.8009 15.9835 18.8019 16.0098C18.8018 16.0356 18.7933 16.0607 18.778 16.0814C18.7626 16.1021 18.741 16.1173 18.7163 16.1249L18.7148 16.1187ZM22.4824 15.5509C21.7155 15.6162 20.9408 15.7065 20.177 15.8387C20.151 15.8418 20.1246 15.8363 20.1019 15.8231C20.0791 15.8099 20.0613 15.7898 20.051 15.7656C20.0423 15.7407 20.042 15.7137 20.0501 15.6887C20.0583 15.6637 20.0745 15.642 20.0962 15.6271C20.4676 15.3912 20.7503 15.039 20.9004 14.6253C20.9078 14.6021 20.9226 14.582 20.9425 14.5679C20.9625 14.5539 20.9864 14.5467 21.0108 14.5476H21.0637C21.1606 14.5518 21.2576 14.5413 21.3515 14.5165C21.375 14.5099 21.4 14.5107 21.4231 14.5188C21.4462 14.5268 21.4662 14.5418 21.4806 14.5616C21.7298 14.9254 22.0933 15.1958 22.5135 15.33C22.5381 15.3388 22.5592 15.3554 22.5736 15.3773C22.5879 15.3992 22.5946 15.4252 22.5928 15.4514C22.5891 15.4778 22.5767 15.5023 22.5576 15.5209C22.5384 15.5395 22.5136 15.5511 22.487 15.554L22.4824 15.5509ZM21.9877 13.9316C21.9804 13.9099 21.9804 13.8864 21.9877 13.8647C22.0144 13.7753 22.028 13.6826 22.0282 13.5893C22.0281 13.463 22.0031 13.3378 21.9545 13.2212C21.9059 13.1045 21.8347 12.9986 21.745 12.9096C21.656 12.8199 21.5501 12.7487 21.4334 12.7001C21.3168 12.6515 21.1916 12.6265 21.0652 12.6265C20.9383 12.6262 20.8126 12.6511 20.6953 12.6996C20.5781 12.7481 20.4715 12.8192 20.3817 12.9089C20.292 12.9987 20.2208 13.1053 20.1723 13.2226C20.1239 13.3398 20.099 13.4655 20.0992 13.5925C20.0993 13.7619 20.1444 13.9283 20.2299 14.0747C20.2405 14.0931 20.2458 14.1141 20.2455 14.1353C20.2391 14.39 20.1501 14.6356 19.9919 14.8351C19.8336 15.0347 19.6146 15.1772 19.3681 15.2413C19.0999 15.3114 18.8155 15.2833 18.5661 15.1621C18.3168 15.0409 18.1191 14.8345 18.0086 14.5802C18.002 14.565 17.9986 14.5486 17.9986 14.532C17.9986 14.5154 18.002 14.499 18.0086 14.4838C18.0161 14.4689 18.0267 14.4557 18.0395 14.445C18.0523 14.4343 18.0672 14.4263 18.0833 14.4216C18.8937 14.2069 19.1721 13.7791 18.9792 13.034C18.8237 12.4118 18.497 12.152 17.9323 12.1894C17.9095 12.1899 17.8869 12.1839 17.8674 12.1721C17.8478 12.1602 17.832 12.143 17.8219 12.1225C17.7753 12.0055 17.7059 11.8989 17.6178 11.8089C17.5297 11.7189 17.4246 11.6473 17.3086 11.5982C17.2852 11.5882 17.2656 11.5711 17.2525 11.5493C17.2394 11.5276 17.2334 11.5022 17.2355 11.4769C17.3352 9.79144 18.1004 8.21464 19.3627 7.09328C20.6249 5.97193 22.2809 5.39787 23.9663 5.49735L24.1033 5.50668C24.1339 5.51021 24.1621 5.52545 24.1818 5.54922C24.2015 5.57298 24.2112 5.60344 24.209 5.63424V5.72913C24.2085 5.89557 24.2584 6.05826 24.3521 6.1958C24.3653 6.21503 24.3724 6.2378 24.3724 6.26113V7.12445C24.3724 7.14777 24.3653 7.17057 24.3521 7.18979C24.2584 7.32734 24.2085 7.49003 24.209 7.65646C24.2085 7.8229 24.2584 7.98559 24.3521 8.12314C24.3653 8.14236 24.3724 8.16513 24.3724 8.18846V9.0518C24.3724 9.07513 24.3653 9.0979 24.3521 9.11712C24.2583 9.25463 24.2084 9.41735 24.209 9.5838C24.2091 9.74305 24.2554 9.89887 24.3424 10.0323C24.4294 10.1657 24.5533 10.2709 24.699 10.3351C24.7214 10.3459 24.7398 10.3634 24.7518 10.3851C24.7638 10.4069 24.7687 10.4318 24.7659 10.4565C24.7622 10.4808 24.7512 10.5034 24.7342 10.5212C24.7172 10.539 24.6951 10.5512 24.671 10.556C24.4574 10.573 24.2563 10.6638 24.1022 10.8128C23.9481 10.9618 23.8506 11.1597 23.8263 11.3727C23.8215 11.3952 23.8102 11.4158 23.794 11.4321C23.7777 11.4484 23.7571 11.4596 23.7346 11.4645C23.1793 11.5749 22.9319 11.9078 22.9319 12.5533C22.9319 13.3218 23.3053 13.6687 24.139 13.6749C24.1556 13.675 24.172 13.6786 24.187 13.6856C24.202 13.6926 24.2154 13.7027 24.2262 13.7154C24.2364 13.7284 24.2439 13.7434 24.2481 13.7595C24.2524 13.7755 24.2534 13.7923 24.251 13.8087C24.2073 14.0826 24.0671 14.3319 23.8557 14.5116C23.6444 14.6913 23.3758 14.7896 23.0984 14.7887C22.8489 14.7835 22.6075 14.6994 22.4088 14.5485C22.2101 14.3976 22.0643 14.1876 21.9924 13.9487L21.9877 13.9316ZM26.225 15.3798C26.218 15.4062 26.2021 15.4294 26.18 15.4455C26.1579 15.4616 26.131 15.4698 26.1037 15.4685L25.0242 15.4482L23.9352 15.4685C23.9079 15.4698 23.881 15.4616 23.859 15.4455C23.8369 15.4294 23.821 15.4062 23.8139 15.3798C23.8085 15.354 23.8117 15.3271 23.8229 15.3033C23.8341 15.2794 23.8528 15.2598 23.8761 15.2476C24.1471 15.1185 24.3819 14.9244 24.5597 14.6826C24.7375 14.4407 24.8526 14.1587 24.895 13.8616C24.9 13.8343 24.9141 13.8096 24.9351 13.7915C24.956 13.7734 24.9825 13.763 25.0102 13.762C25.0378 13.763 25.0643 13.7734 25.0853 13.7915C25.1062 13.8096 25.1203 13.8343 25.1253 13.8616C25.1677 14.1587 25.2828 14.4407 25.4606 14.6826C25.6384 14.9244 25.8732 15.1185 26.1442 15.2476C26.1712 15.2561 26.1945 15.2738 26.2098 15.2977C26.2252 15.3216 26.2316 15.3501 26.2281 15.3782L26.225 15.3798ZM30.0081 15.7734C29.9983 15.7969 29.9812 15.8166 29.9594 15.8298C29.9376 15.8429 29.9122 15.8488 29.8868 15.8465C29.1246 15.7251 28.3483 15.6225 27.5815 15.5587C27.5552 15.5555 27.5307 15.5437 27.5119 15.5251C27.493 15.5065 27.4808 15.4822 27.4773 15.456C27.4753 15.4301 27.4818 15.4042 27.4959 15.3823C27.5099 15.3604 27.5306 15.3437 27.555 15.3347C27.975 15.1994 28.3387 14.9293 28.5895 14.5662C28.6038 14.5464 28.6239 14.5315 28.647 14.5234C28.67 14.5154 28.695 14.5146 28.7186 14.5211C28.8089 14.5483 28.9027 14.562 28.997 14.5616H29.0499C29.0743 14.5605 29.0984 14.5675 29.1184 14.5816C29.1384 14.5957 29.1532 14.616 29.1604 14.6394C29.3109 15.0531 29.5943 15.4054 29.9662 15.6411C29.9878 15.656 30.004 15.6777 30.0122 15.7027C30.0203 15.7277 30.02 15.7547 30.0113 15.7796L30.0081 15.7734ZM30.6879 15.2429C30.4414 15.1788 30.2225 15.0362 30.0642 14.8367C29.906 14.6372 29.8169 14.3915 29.8106 14.1369C29.8102 14.1152 29.8156 14.0937 29.8262 14.0747C29.9112 13.9282 29.9557 13.7618 29.9552 13.5925C29.9554 13.4655 29.9306 13.3398 29.8821 13.2226C29.8337 13.1053 29.7625 12.9987 29.6728 12.9089C29.583 12.8192 29.4765 12.7481 29.3592 12.6996C29.2419 12.6511 29.1162 12.6262 28.9892 12.6265C28.8623 12.6262 28.7366 12.6511 28.6193 12.6996C28.502 12.7481 28.3955 12.8192 28.3057 12.9089C28.216 12.9987 28.1449 13.1053 28.0964 13.2226C28.0479 13.3398 28.023 13.4655 28.0232 13.5925C28.0228 13.6852 28.0364 13.7776 28.0637 13.8662C28.0708 13.888 28.0708 13.9114 28.0637 13.9331C27.992 14.1745 27.8439 14.3862 27.6417 14.5362C27.4394 14.6863 27.194 14.7667 26.9422 14.7653C26.6649 14.7662 26.3965 14.6678 26.1854 14.4881C25.9743 14.3084 25.8344 14.0592 25.791 13.7854C25.7887 13.7689 25.7898 13.7522 25.7941 13.7362C25.7983 13.7201 25.8058 13.7051 25.8159 13.692C25.8269 13.6796 25.8403 13.6697 25.8552 13.6627C25.8702 13.6557 25.8865 13.6519 25.903 13.6516C26.7399 13.6516 27.1102 13.2985 27.1102 12.53C27.1102 11.8891 26.8628 11.5547 26.3075 11.4411C26.285 11.4363 26.2643 11.425 26.2481 11.4088C26.2318 11.3925 26.2206 11.3718 26.2157 11.3493C26.1915 11.1364 26.094 10.9385 25.9399 10.7895C25.7858 10.6405 25.5847 10.5497 25.371 10.5327C25.3469 10.5278 25.3249 10.5157 25.3079 10.4979C25.2909 10.4801 25.2798 10.4575 25.2761 10.4331C25.2733 10.4085 25.2783 10.3835 25.2903 10.3618C25.3023 10.3401 25.3207 10.3226 25.343 10.3118C25.4887 10.2476 25.6126 10.1423 25.6996 10.0089C25.7866 9.87553 25.833 9.71972 25.833 9.56046C25.8336 9.39401 25.7837 9.23129 25.6899 9.09379C25.6767 9.07457 25.6696 9.05179 25.6697 9.02847V8.16512C25.6696 8.1418 25.6767 8.11903 25.6899 8.0998C25.7837 7.9623 25.8336 7.79958 25.833 7.63313C25.8336 7.46668 25.7837 7.30396 25.6899 7.16646C25.6767 7.14723 25.6696 7.12444 25.6697 7.10112V6.23779C25.6696 6.21447 25.6767 6.19167 25.6899 6.17245C25.7837 6.03495 25.8336 5.87225 25.833 5.7058V5.61247C25.83 5.58116 25.8393 5.5499 25.8591 5.52546C25.8789 5.50101 25.9075 5.48531 25.9388 5.48178C27.6214 5.34549 29.2893 5.88318 30.5755 6.97655C31.8617 8.06992 32.6608 9.6294 32.7972 11.312C32.7972 11.3571 32.7973 11.4054 32.8066 11.452C32.8086 11.4774 32.8027 11.5027 32.7896 11.5245C32.7765 11.5462 32.7568 11.5633 32.7335 11.5733C32.6175 11.6224 32.5124 11.694 32.4243 11.784C32.3362 11.874 32.2668 11.9806 32.2201 12.0976C32.21 12.1181 32.1943 12.1353 32.1747 12.1472C32.1551 12.159 32.1326 12.165 32.1097 12.1645C31.545 12.1333 31.2215 12.3947 31.0628 13.0091C30.8715 13.7542 31.1468 14.1836 31.9573 14.3967C31.9733 14.4014 31.9882 14.4094 32.001 14.4201C32.0138 14.4308 32.0244 14.444 32.0319 14.4589C32.0385 14.4741 32.0419 14.4905 32.0419 14.5071C32.0419 14.5237 32.0385 14.5401 32.0319 14.5554C31.9231 14.807 31.7289 15.0123 31.4836 15.1349C31.2384 15.2575 30.9577 15.2897 30.6911 15.2258L30.6879 15.2429ZM33.5408 16.5993C33.5275 16.6218 33.5073 16.6395 33.4832 16.6495C33.4591 16.6596 33.4324 16.6617 33.407 16.6554C32.7381 16.4578 32.0444 16.2789 31.3444 16.1265C31.3187 16.1203 31.2958 16.1058 31.2792 16.0853C31.2626 16.0648 31.2532 16.0393 31.2526 16.0129C31.2537 15.9866 31.2634 15.9613 31.2803 15.9411C31.2971 15.9208 31.3202 15.9067 31.3459 15.9009C31.6381 15.8413 31.9112 15.7108 32.1412 15.5209C32.3712 15.3311 32.5511 15.0876 32.665 14.812C32.6765 14.787 32.6962 14.7667 32.7209 14.7546C32.7455 14.7424 32.7736 14.739 32.8004 14.7451C32.8262 14.7528 32.8487 14.7689 32.8642 14.7909C32.8797 14.8129 32.8874 14.8396 32.8859 14.8665C32.8529 15.1613 32.8924 15.4598 33.0008 15.736C33.1092 16.0123 33.2833 16.2579 33.5081 16.4516C33.528 16.4693 33.5416 16.493 33.5466 16.5192C33.5517 16.5453 33.548 16.5724 33.5361 16.5962L33.5408 16.5993ZM37.1186 17.9262C37.1027 17.9475 37.0801 17.9629 37.0545 17.9699C37.0288 17.9769 37.0016 17.9753 36.977 17.9651C36.2739 17.654 35.5522 17.3616 34.8335 17.1205C34.8094 17.1112 34.789 17.0943 34.7752 17.0724C34.7615 17.0506 34.7552 17.0249 34.7572 16.9991C34.7616 16.973 34.7745 16.9491 34.7939 16.9311C34.8134 16.913 34.8382 16.902 34.8646 16.8996C35.2417 16.8757 35.6042 16.7451 35.9099 16.5231C35.93 16.5091 35.9539 16.5016 35.9784 16.5016C36.0028 16.5016 36.0267 16.5091 36.0468 16.5231C36.1473 16.5969 36.2616 16.6498 36.3828 16.6787L36.5042 16.702C36.5279 16.7061 36.5499 16.7171 36.5673 16.7338C36.5848 16.7504 36.5969 16.7718 36.6021 16.7954C36.6744 17.165 36.8484 17.5071 37.1046 17.7831C37.1213 17.8013 37.132 17.8242 37.1353 17.8487C37.1386 17.8731 37.1344 17.898 37.1232 17.92L37.1186 17.9262ZM39.0086 15.3098C38.8522 15.3784 38.7135 15.4817 38.603 15.6119C38.4925 15.7421 38.4131 15.8957 38.3708 16.0611C38.3082 16.1714 38.2679 16.2929 38.2523 16.4188C38.2367 16.5447 38.246 16.6724 38.2798 16.7946C38.3137 16.9169 38.3712 17.0312 38.4493 17.1312C38.5274 17.2311 38.6244 17.3147 38.7348 17.3771C38.7844 17.4055 38.8365 17.4295 38.8904 17.4487C38.9103 17.4592 38.9269 17.4752 38.9382 17.4947C38.9495 17.5142 38.955 17.5366 38.9541 17.5591C38.9526 17.5815 38.9447 17.603 38.9315 17.6212C38.9183 17.6393 38.9003 17.6534 38.8795 17.6618C38.7226 17.7196 38.5552 17.743 38.3885 17.7304C38.2218 17.7178 38.0598 17.6694 37.9135 17.5887C37.7125 17.4791 37.5482 17.3129 37.4409 17.1108C37.3336 16.9086 37.2881 16.6794 37.3099 16.4516C37.3122 16.4266 37.3226 16.4032 37.3395 16.3847C37.4415 16.2704 37.5146 16.1333 37.5526 15.9849C37.584 15.8635 37.5911 15.7371 37.5735 15.613C37.5559 15.4888 37.5139 15.3694 37.4499 15.2616C37.3859 15.1523 37.3009 15.0568 37.1997 14.9807C37.0985 14.9046 36.9831 14.8494 36.8603 14.8182C36.6135 14.7557 36.352 14.7932 36.1326 14.9226C35.9132 15.0519 35.7538 15.2626 35.689 15.5089L35.661 15.7096C35.6577 15.7327 35.6498 15.7549 35.6377 15.7749C35.4989 15.9603 35.3081 16.1002 35.0896 16.177C34.871 16.2537 34.6346 16.2637 34.4104 16.2058C34.1419 16.1374 33.9066 15.9753 33.747 15.7489C33.5873 15.5225 33.5136 15.2466 33.5393 14.9707C33.541 14.9541 33.5462 14.9381 33.5545 14.9236C33.5628 14.9091 33.5741 14.8966 33.5875 14.8867C33.6012 14.8772 33.6167 14.8707 33.633 14.8675C33.6493 14.8643 33.6661 14.8645 33.6823 14.868C34.4959 15.0702 34.9439 14.8291 35.1306 14.0902C35.1825 13.978 35.2117 13.8566 35.2163 13.733C35.2209 13.6094 35.201 13.4862 35.1575 13.3704C35.1141 13.2546 35.0481 13.1486 34.9634 13.0586C34.8786 12.9685 34.7768 12.8962 34.6639 12.8458L34.6313 12.8318C34.6106 12.8215 34.5934 12.8055 34.5818 12.7856C34.5702 12.7657 34.5647 12.7428 34.5659 12.7198C34.585 12.5298 34.5516 12.3383 34.4695 12.166C34.4628 12.1505 34.4594 12.1339 34.4594 12.117C34.4594 12.1002 34.4628 12.0835 34.4695 12.068C34.4765 12.0527 34.4867 12.039 34.4992 12.0277C34.5118 12.0165 34.5266 12.008 34.5426 12.0027C34.7397 11.9429 34.9126 11.8215 35.0357 11.6563C35.1589 11.4912 35.2259 11.2909 35.227 11.0849C35.2246 10.8662 35.1481 10.6548 35.0099 10.4852C34.8717 10.3157 34.6801 10.1981 34.4663 10.1516C34.4449 10.1467 34.4253 10.136 34.4097 10.1206C34.394 10.1052 34.3829 10.0858 34.3777 10.0645C34.3725 10.0425 34.3735 10.0195 34.3807 9.99803C34.3878 9.9766 34.4008 9.95759 34.4182 9.94313C34.533 9.8541 34.6259 9.73996 34.6898 9.60945C34.7537 9.47895 34.7869 9.33554 34.7868 9.19023L34.779 9.07668C34.7792 9.05667 34.7842 9.037 34.7937 9.01938C34.8032 9.00176 34.8169 8.98671 34.8335 8.97556C34.8519 8.96476 34.8728 8.95907 34.8942 8.95907C34.9155 8.95907 34.9364 8.96476 34.9548 8.97556C36.2064 9.45376 37.278 10.3098 38.0209 11.4248C38.7638 12.5399 39.1411 13.8586 39.1003 15.1978C39.102 15.2243 39.0948 15.2506 39.0799 15.2726C39.065 15.2945 39.0432 15.3109 39.0179 15.3191L39.0086 15.3098ZM41.1428 17.1842C41.0011 17.441 40.7632 17.6311 40.4815 17.7127C40.1998 17.7944 39.8972 17.761 39.6401 17.6198C39.5127 17.55 39.4003 17.4557 39.3095 17.3422C39.2187 17.2287 39.1514 17.0984 39.1113 16.9587C39.0821 16.8576 39.0674 16.7528 39.0677 16.6476C39.0678 16.4618 39.1155 16.2792 39.2062 16.1171C39.2753 15.9894 39.3692 15.8769 39.4825 15.7861C39.5958 15.6952 39.726 15.628 39.8657 15.5882C40.0056 15.5469 40.1524 15.5339 40.2974 15.5499C40.4425 15.5659 40.5828 15.6107 40.7104 15.6816C40.838 15.7507 40.9506 15.8447 41.0414 15.9579C41.1322 16.0712 41.1995 16.2015 41.2392 16.3411C41.2803 16.4811 41.2932 16.6278 41.2772 16.7728C41.2612 16.9178 41.2165 17.0582 41.1459 17.1858L41.1428 17.1842Z" fill="#FEBE10"/>
<path d="M36.8164 19.9298L36.9859 20.6252L36.3124 21L36.1055 20.1911L36.8164 19.9298Z" fill="#EE324E"/>
<path d="M0 44.982C0.00988514 51.6195 2.65226 57.982 7.3474 62.6736C12.0425 67.3652 18.407 70.0029 25.0445 70.0078C31.6824 70.0029 38.0474 67.3648 42.7426 62.6725C47.4378 57.9802 50.0798 51.6169 50.0889 44.9789C50.0807 38.3392 47.4394 31.9739 42.7445 27.2789C38.0495 22.5839 31.6841 19.9427 25.0445 19.9344C18.4042 19.9427 12.0384 22.5844 7.34336 27.28C2.64831 31.9756 0.00740953 38.3418 0 44.982V44.982Z" fill="#00529F"/>
<path d="M0.708602 44.9804C0.70655 48.174 1.33574 51.3365 2.56 54.2861C3.78427 57.2357 5.57946 59.9143 7.84238 62.1678V62.1678C10.098 64.4303 12.7783 66.2249 15.7294 67.4486C18.6805 68.6723 21.8443 69.3009 25.039 69.2984V69.2984C28.2338 69.3009 31.3976 68.6723 34.3487 67.4486C37.2998 66.2249 39.9801 64.4303 42.2357 62.1678V62.1678C44.4986 59.9143 46.2938 57.2357 47.5181 54.2861C48.7423 51.3365 49.3715 48.174 49.3695 44.9804C49.3717 41.784 48.7426 38.6187 47.5184 35.666C46.2942 32.7133 44.499 30.0315 42.2357 27.7744V27.7744C39.9804 25.511 37.3003 23.7153 34.3492 22.4903C31.3982 21.2653 28.2343 20.6351 25.039 20.636C21.8437 20.6342 18.6795 21.2639 15.7283 22.4889C12.7771 23.714 10.0971 25.5102 7.84238 27.7744V27.7744C5.57889 30.0314 3.78338 32.7132 2.55891 35.6659C1.33444 38.6185 0.705113 41.7839 0.707036 44.9804H0.708602Z" fill="#FEBE10"/>
<path d="M2.84766 44.9665C2.85301 39.0805 5.19325 33.437 9.35485 29.2745C13.5164 25.1121 19.1595 22.7706 25.0455 22.764V22.764C30.9323 22.7694 36.5764 25.1103 40.739 29.2729C44.9016 33.4355 47.2425 39.0797 47.2479 44.9665V44.9665C47.2442 50.8544 44.904 56.5001 40.7412 60.6641C36.5784 64.828 30.9334 67.1698 25.0455 67.1751V67.1751C19.1585 67.1681 13.5148 64.8257 9.35314 60.662C5.19146 56.4982 2.85177 50.8534 2.84766 44.9665Z" fill="#00529F"/>
<path d="M3.55273 44.968C3.55932 39.2709 5.82542 33.809 9.85385 29.7806C13.8823 25.7522 19.3441 23.4861 25.0412 23.4795C30.7378 23.4865 36.1991 25.7528 40.227 29.7813C44.2548 33.8097 46.5203 39.2713 46.5265 44.968C46.5203 50.6646 44.2548 56.1262 40.227 60.1547C36.1991 64.1831 30.7378 66.4494 25.0412 66.4564C19.3442 66.4494 13.8826 64.1832 9.85428 60.1548C5.82593 56.1265 3.55973 50.6649 3.55273 44.968V44.968Z" fill="white"/>
<path d="M45.6428 44.8886C45.6355 41.1958 44.6407 37.5721 42.7617 34.3931C40.8827 31.2141 38.1877 28.5954 34.9561 26.8084L34.8193 26.7322L30.0235 31.71H29.9986L29.9208 31.7877C28.3595 31.2121 26.7112 30.908 25.0472 30.8886V30.8886C23.3119 30.8911 21.5902 31.1954 19.959 31.7877L15.1632 26.7804L15.0248 26.8582L14.877 26.9437L14.8692 26.936C11.1053 29.0734 8.10361 32.3339 6.28415 36.2615L6.29502 36.2724C5.04272 38.9717 4.39353 41.9114 4.39259 44.887C4.38713 49.7989 6.21167 54.5367 9.51033 58.1762L9.65659 58.3395L12.3959 55.5395L12.2403 55.3964C9.58598 52.6252 8.08026 48.9511 8.02637 45.1142C8.02637 44.9788 8.02637 44.8419 8.02637 44.705C8.08019 42.7987 8.43508 40.9129 9.07791 39.1175L11.3708 41.4508C11.1297 42.3979 11.0007 43.3701 10.9866 44.3473V44.5215C11.0055 47.5967 12.0328 50.5807 13.911 53.0158C15.7891 55.4509 18.4144 57.2025 21.3839 58.0019V61.5284H25.1888V58.4437C26.0468 58.4242 26.901 58.3232 27.7399 58.1419C29.5682 60.0086 31.4079 61.8888 33.259 63.7824C37.1519 62.0724 40.4256 59.2081 42.6375 55.5768V55.5768C44.6004 52.3545 45.6386 48.654 45.6381 44.8808L45.6428 44.8886ZM21.3886 53.7677C19.5447 53.1563 17.9335 51.9925 16.7737 50.4342C15.6138 48.8758 14.9614 46.9984 14.905 45.0566L21.3886 51.6662V53.7677ZM25.0084 37.0066L22.9566 34.9097C23.5771 34.7807 24.2097 34.7181 24.8435 34.7231C25.544 34.7414 26.241 34.8278 26.9248 34.9813L25.0084 37.0066ZM39.6772 52.5311L27.505 39.9824L30.6846 36.6224C31.9477 37.5032 32.978 38.6776 33.6868 40.0446L33.8081 40.2779L36.8664 37.6335L36.7777 37.4857C35.9027 36.0447 34.7676 34.7788 33.4301 33.7524L35.4523 31.6788C37.398 33.2487 38.9719 35.23 40.0609 37.4803C41.1499 39.7307 41.727 42.1943 41.7508 44.6942C41.83 47.4486 41.1104 50.1672 39.6788 52.5217L39.6772 52.5311Z" fill="#00529F"/>
<path d="M34.9426 27.6251L30.4097 32.3307L30.321 32.424H30.2884L30.2371 32.4753L30.1001 32.6122L29.9181 32.5422L29.7968 32.4956C28.2777 31.9199 26.669 31.6166 25.0446 31.5996C23.3502 31.6046 21.67 31.9079 20.0808 32.4956L19.7697 32.6169L19.6312 32.4722L15.0392 27.6764C12.0266 29.4297 9.5249 31.9403 7.78233 34.9591C6.03976 37.9779 5.11696 41.3999 5.10549 44.8856C5.09859 49.4366 6.7259 53.8388 9.69127 57.2911L11.4024 55.5458C8.83376 52.6711 7.38689 48.9672 7.32684 45.1127C7.32684 44.9706 7.32684 44.827 7.32684 44.6818C7.37625 42.0442 8.01086 39.4504 9.18484 37.088C10.3588 34.7255 12.0428 32.6532 14.1153 31.0209L14.4777 30.7269L17.5313 33.8862L17.0755 34.23C15.4718 35.4029 14.1553 36.9246 13.2253 38.6804C12.2954 40.4363 11.7763 42.3803 11.7072 44.366V44.5309C11.7244 47.4767 12.7164 50.334 14.5284 52.6567C16.3404 54.9795 18.8703 56.6369 21.7235 57.3704L22.1077 57.4653V60.83H24.4908V57.75H24.9933C26.8584 57.7213 28.6975 57.3082 30.3958 56.5366C32.094 55.7649 33.6149 54.6513 34.8633 53.2653L32.9966 51.3784C30.9931 53.5949 28.215 54.9575 25.236 55.1849C25.1457 55.1849 25.0555 55.1849 24.9699 55.1849L24.4877 55.16V51.5231H28.6504V49.4527H24.4877V46.5065H28.7032V44.7331H22.1046V54.768L21.4404 54.5471C19.3562 53.9158 17.5289 52.6338 16.2261 50.8888C14.9234 49.1437 14.2136 47.0274 14.2008 44.8498V44.6429C14.225 42.9133 14.661 41.2144 15.4725 39.6868C16.2841 38.1592 17.4478 36.8469 18.8675 35.8587L19.2206 35.6176L19.3995 35.8011L25.0135 41.5924L30.4191 35.882L30.5948 35.6969L30.9572 35.938C32.2025 36.7803 33.248 37.8852 34.0201 39.1751L35.9506 37.5076C35.1167 36.2268 34.0636 35.1031 32.8395 34.188L32.3728 33.8427L35.3797 30.7642L35.7312 31.0053C37.8119 32.6365 39.4986 34.7154 40.6659 37.0876C41.8333 39.4598 42.4515 42.0644 42.4746 44.7082C42.5367 48.6718 41.1025 52.5132 38.4582 55.4664L40.4461 57.456C43.35 53.9128 44.9365 49.4729 44.9355 44.8918C44.9285 41.3913 44.0024 37.9539 42.2498 34.9237C40.4972 31.8935 37.9796 29.3767 34.9488 27.6251H34.9426ZM25.236 37.8062L25.0213 38.0333L21.5539 34.4929L22.4375 34.2938C23.1677 34.1225 23.9137 34.0276 24.6635 34.0107H24.8719C25.7433 34.031 26.6093 34.1526 27.4526 34.3731L28.2724 34.5924L25.236 37.8062Z" fill="#FEBE10"/>
</svg>
